<svg id="Layer_1" data-name="Layer 1" xmlns="http://www.w3.org/2000/svg" viewBox="0 0 900 200"><defs><style>.cls-3{fill:#f9c7e4}</style></defs><path style="fill:#f7eec9" d="M0 0h900v200H0z"/><path d="M205.8 30.01h7.06v139.17h-7.06zm-175.86 0h139.17v139.17H29.94z" style="fill:#07448e"/><path class="cls-3" d="M104.17 57.35 97.6 71.07c.9-.08 1.8-.13 2.71-.13a28.48 28.48 0 0 1 25.69 40.8l.74-.77 6 15.76 14.08 4.8a56.53 56.53 0 0 0-46.51-88.63c-.93 0-1.85 0-2.77.07Z"/><path class="cls-3" d="m61.43 120.55 15.14-5.41a28.49 28.49 0 0 1 15.37-42.95l7.12-14.88-6.4-13.89a56.52 56.52 0 0 0-36.43 91.36Z"/><path class="cls-3" d="m129.2 130.41-5.58-14.63a28.48 28.48 0 0 1-44 3.19L65 124.17l-5.32 14.56a56.53 56.53 0 0 0 84.18-3.32Z"/><text transform="translate(244 82.11)" style="font-size:76px;font-family:DINCondensed-Bold,DIN Condensed;font-weight:700;fill:#07448e"><tspan style="letter-spacing:-.05em">T</tspan><tspan x="21.05" y="0">ALK</tspan><tspan x="0" y="91.2">OBJECTIVES</tspan></text></svg>