<svg id="a1f258e2-c4c5-4a13-9a57-b2aae33dc893" data-name="Layer 1" xmlns="http://www.w3.org/2000/svg" viewBox="0 0 900 200"><title>05-supporting-quotes</title><rect width="900" height="200" style="fill:#f7eec9"/><rect x="205.8" y="30" width="7.1" height="139.2" style="fill:#07448e"/><rect x="29.9" y="30" width="139.2" height="139.2" style="fill:#07448e"/><path d="M104.2,57.3,97.6,71a24.37,24.37,0,0,1,2.7-.1,28.49,28.49,0,0,1,28.5,28.5,28.77,28.77,0,0,1-2.8,12.3l.7-.8,6,15.8,14.1,4.8a56.5,56.5,0,0,0-46.5-88.6,27.15,27.15,0,0,0-2.8.1Z" style="fill:#f9c7e4"/><path d="M61.4,120.6l15.1-5.4a28.51,28.51,0,0,1,8-39.5,28.85,28.85,0,0,1,7.3-3.5l7.1-14.9L92.5,43.4a56.56,56.56,0,0,0-36.4,91.4Z" style="fill:#f9c7e4"/><path d="M129.2,130.4l-5.6-14.6a28.41,28.41,0,0,1-39.7,6.9,31,31,0,0,1-4.3-3.7L65,124.2l-5.3,14.6a56.53,56.53,0,0,0,79.9,1.3,60.16,60.16,0,0,0,4.2-4.6Z" style="fill:#f9c7e4"/><path d="M272.7,43.6H265V41.9a7.78,7.78,0,0,0-1.3-4.6,4.61,4.61,0,0,0-4.2-1.9,5,5,0,0,0-2.6.6,4.1,4.1,0,0,0-1.6,1.6,7.16,7.16,0,0,0-.8,2.2,11,11,0,0,0-.2,2.6,21,21,0,0,0,.1,2.7A5.31,5.31,0,0,0,255,47a4.27,4.27,0,0,0,1.3,1.4,13.32,13.32,0,0,0,2.4,1.2l5.9,2.4a16.5,16.5,0,0,1,4.2,2.3,9.26,9.26,0,0,1,2.5,3.1,13.07,13.07,0,0,1,1.2,4.1,41.06,41.06,0,0,1,.3,5.3,24.81,24.81,0,0,1-.7,6.3,14.32,14.32,0,0,1-2.2,5,10.35,10.35,0,0,1-4.1,3.3,14.75,14.75,0,0,1-6.3,1.2,12.69,12.69,0,0,1-5.2-1,15.13,15.13,0,0,1-4.2-2.7,12,12,0,0,1-2.8-4.1,12.55,12.55,0,0,1-1-5.1V66.8h7.8v2.4a5.85,5.85,0,0,0,1.3,3.8c.8,1.1,2.2,1.7,4.2,1.7a6.84,6.84,0,0,0,3.1-.6,4.36,4.36,0,0,0,1.7-1.6,6.12,6.12,0,0,0,.7-2.5,32.51,32.51,0,0,0,.2-3.3,31.58,31.58,0,0,0-.2-3.5,6.39,6.39,0,0,0-.6-2.2,3.76,3.76,0,0,0-1.4-1.4,16.66,16.66,0,0,0-2.3-1.1l-5.5-2.3c-3.3-1.4-5.6-3.2-6.7-5.4a19.49,19.49,0,0,1-1.7-8.5,22,22,0,0,1,.8-5.8,14.08,14.08,0,0,1,2.5-4.7,13,13,0,0,1,4.1-3.2,13.51,13.51,0,0,1,5.9-1.2,13.22,13.22,0,0,1,5.3,1.1,12,12,0,0,1,4.1,2.8,14,14,0,0,1,2.6,3.9,11.17,11.17,0,0,1,.9,4.4v4Z" style="fill:#07448e"/><path d="M303.6,69.9a11.31,11.31,0,0,1-1,4.9,15.64,15.64,0,0,1-2.7,4,14.08,14.08,0,0,1-4,2.7,11.31,11.31,0,0,1-4.9,1,11.94,11.94,0,0,1-4.9-1,12.67,12.67,0,0,1-6.7-6.7,11.62,11.62,0,0,1-1-4.9V28h7.8V69.2a6.17,6.17,0,0,0,1.4,4.3,4.39,4.39,0,0,0,3.4,1.4,4.76,4.76,0,0,0,3.4-1.4,5.84,5.84,0,0,0,1.4-4.3V28h7.8Z" style="fill:#07448e"/><path d="M310.9,28h11.6a18.9,18.9,0,0,1,5.6.8,10.52,10.52,0,0,1,4.4,3,11.61,11.61,0,0,1,2.7,5,31.29,31.29,0,0,1,.8,7.7,35.9,35.9,0,0,1-.4,6.1,14,14,0,0,1-1.8,4.8,10.58,10.58,0,0,1-4.3,4.1,14.25,14.25,0,0,1-7,1.5h-4V82.1h-7.8V28Zm7.7,25.7h3.7a7,7,0,0,0,3.6-.7,4.35,4.35,0,0,0,1.9-1.9,7.72,7.72,0,0,0,.7-2.9c.1-1.1.1-2.4.1-3.7s0-2.5-.1-3.6a9.42,9.42,0,0,0-.7-3,4.38,4.38,0,0,0-1.8-2,6.78,6.78,0,0,0-3.5-.7h-4V53.7Z" style="fill:#07448e"/><path d="M341.8,28h11.6a18.9,18.9,0,0,1,5.6.8,10.52,10.52,0,0,1,4.4,3,11.61,11.61,0,0,1,2.7,5,31.29,31.29,0,0,1,.8,7.7,35.9,35.9,0,0,1-.4,6.1,14,14,0,0,1-1.8,4.8,10.58,10.58,0,0,1-4.3,4.1,14.25,14.25,0,0,1-7,1.5h-4V82.1h-7.8V28Zm7.8,25.7h3.7a7,7,0,0,0,3.6-.7,4.35,4.35,0,0,0,1.9-1.9,7.72,7.72,0,0,0,.7-2.9c.1-1.1.1-2.4.1-3.7s0-2.5-.1-3.6a9.42,9.42,0,0,0-.7-3,4.38,4.38,0,0,0-1.8-2,6.78,6.78,0,0,0-3.5-.7h-4V53.7Z" style="fill:#07448e"/><path d="M372.3,40.8a15,15,0,0,1,1.1-5.8,11.8,11.8,0,0,1,3-4.1,13.18,13.18,0,0,1,8.9-3.3,15.46,15.46,0,0,1,4.7.8,15.07,15.07,0,0,1,4.2,2.5,14,14,0,0,1,3,4.1,13.35,13.35,0,0,1,1.1,5.8V69.4a14.63,14.63,0,0,1-1.1,5.8,14,14,0,0,1-3,4.1,13.18,13.18,0,0,1-8.9,3.3,15.46,15.46,0,0,1-4.7-.8,15.07,15.07,0,0,1-4.2-2.5,14,14,0,0,1-3-4.1,13.07,13.07,0,0,1-1.1-5.8ZM380,69.3c0,1.9.5,3.3,1.6,4.1a5.41,5.41,0,0,0,3.7,1.3,5.58,5.58,0,0,0,3.7-1.3,5.33,5.33,0,0,0,1.6-4.1V40.8c0-1.9-.5-3.3-1.6-4.1a5.41,5.41,0,0,0-3.7-1.3,5.58,5.58,0,0,0-3.7,1.3,5.33,5.33,0,0,0-1.6,4.1Z" style="fill:#07448e"/><path d="M405.1,28h12.5c9.1,0,13.7,5.3,13.7,15.9a20.19,20.19,0,0,1-1.5,8.1,10.88,10.88,0,0,1-5.2,5.4L433,82.1h-8.2L417.5,59h-4.6V82.1h-7.8Zm7.8,24.2h4.4a7.48,7.48,0,0,0,3.3-.6,4.94,4.94,0,0,0,1.9-1.6,8.81,8.81,0,0,0,.9-2.6,19.44,19.44,0,0,0,.2-3.6,35.29,35.29,0,0,0-.2-3.6,7.94,7.94,0,0,0-1-2.7,4.47,4.47,0,0,0-2-1.6,8.42,8.42,0,0,0-3.4-.5h-4V52.2Z" style="fill:#07448e"/><polygon points="441.2 35.3 432.2 35.3 432.2 28 457.9 28 457.9 35.3 448.9 35.3 448.9 82.1 441.1 82.1 441.1 35.3 441.2 35.3" style="fill:#07448e"/><rect x="461.6" y="28" width="7.8" height="54.1" style="fill:#07448e"/><polygon points="476.6 28 484 28 495.7 60.6 495.9 60.6 495.9 28 503.7 28 503.7 82.1 496.4 82.1 484.5 49.6 484.3 49.6 484.3 82.1 476.5 82.1 476.5 28 476.6 28" style="fill:#07448e"/><path d="M510.1,40.8a15,15,0,0,1,1.1-5.8,10.67,10.67,0,0,1,3-4.1,13.18,13.18,0,0,1,8.9-3.3,15.46,15.46,0,0,1,4.7.8,15.07,15.07,0,0,1,4.2,2.5,14,14,0,0,1,3,4.1,13.07,13.07,0,0,1,1.1,5.8v2.7h-7.8V40.8c0-1.9-.5-3.3-1.6-4.1a5.41,5.41,0,0,0-3.7-1.3,5.58,5.58,0,0,0-3.7,1.3,5.33,5.33,0,0,0-1.6,4.1V69.4c0,1.9.5,3.3,1.6,4.1a5.41,5.41,0,0,0,3.7,1.3,5.58,5.58,0,0,0,3.7-1.3,5.33,5.33,0,0,0,1.6-4.1V59.2h-6.2V52.4H536v17a14.63,14.63,0,0,1-1.1,5.8,14,14,0,0,1-3,4.1,13.18,13.18,0,0,1-8.9,3.3,15.46,15.46,0,0,1-4.7-.8,15.07,15.07,0,0,1-4.2-2.5,14,14,0,0,1-3-4.1,13.07,13.07,0,0,1-1.1-5.8V40.8Z" style="fill:#07448e"/><path d="M247.2,132a15,15,0,0,1,1.1-5.8,11.8,11.8,0,0,1,3-4.1,13.18,13.18,0,0,1,8.9-3.3,15.46,15.46,0,0,1,4.7.8,15.07,15.07,0,0,1,4.2,2.5,14,14,0,0,1,3,4.1,13.35,13.35,0,0,1,1.1,5.8v28.6a13.15,13.15,0,0,1-1.1,5.5l4.8,3.9-4,4.7-4.6-3.7a10.22,10.22,0,0,1-3.8,2.1,12.51,12.51,0,0,1-4.3.7,15.46,15.46,0,0,1-4.7-.8,15.07,15.07,0,0,1-4.2-2.5,14,14,0,0,1-3-4.1,13.07,13.07,0,0,1-1.1-5.8Zm7.7,28.5c0,1.9.5,3.3,1.6,4.1a5.41,5.41,0,0,0,3.7,1.3,4.31,4.31,0,0,0,1.7-.3l-3.5-2.8,4-4.7,3.1,2.5V132c0-1.9-.5-3.3-1.6-4.1a5.41,5.41,0,0,0-3.7-1.3,5.58,5.58,0,0,0-3.7,1.3,5.33,5.33,0,0,0-1.6,4.1Z" style="fill:#07448e"/><path d="M305.1,161.1a11.31,11.31,0,0,1-1,4.9,15.64,15.64,0,0,1-2.7,4,14.08,14.08,0,0,1-4,2.7,11.31,11.31,0,0,1-4.9,1,11.94,11.94,0,0,1-4.9-1,12.67,12.67,0,0,1-6.7-6.7,11.62,11.62,0,0,1-1-4.9v-42h7.8v41.2a6.17,6.17,0,0,0,1.4,4.3,4.39,4.39,0,0,0,3.4,1.4,4.76,4.76,0,0,0,3.4-1.4,5.84,5.84,0,0,0,1.4-4.3V119.1h7.8Z" style="fill:#07448e"/><path d="M311.9,132a15,15,0,0,1,1.1-5.8,11.8,11.8,0,0,1,3-4.1,13.18,13.18,0,0,1,8.9-3.3,15.46,15.46,0,0,1,4.7.8,15.07,15.07,0,0,1,4.2,2.5,14,14,0,0,1,3,4.1,13.35,13.35,0,0,1,1.1,5.8v28.6a14.63,14.63,0,0,1-1.1,5.8,14,14,0,0,1-3,4.1,13.18,13.18,0,0,1-8.9,3.3,15.46,15.46,0,0,1-4.7-.8,15.07,15.07,0,0,1-4.2-2.5,14,14,0,0,1-3-4.1,13.07,13.07,0,0,1-1.1-5.8Zm7.8,28.5c0,1.9.5,3.3,1.6,4.1a5.41,5.41,0,0,0,3.7,1.3,5.58,5.58,0,0,0,3.7-1.3,5.33,5.33,0,0,0,1.6-4.1V132c0-1.9-.5-3.3-1.6-4.1a5.41,5.41,0,0,0-3.7-1.3,5.58,5.58,0,0,0-3.7,1.3,5.33,5.33,0,0,0-1.6,4.1Z" style="fill:#07448e"/><polygon points="349 126.5 340 126.5 340 119.2 365.7 119.2 365.7 126.5 356.7 126.5 356.7 173.3 349 173.3 349 126.5" style="fill:#07448e"/><polygon points="369.1 119.2 392.2 119.2 392.2 126.5 376.8 126.5 376.8 142.4 390.2 142.4 390.2 149.7 376.8 149.7 376.8 165.6 392.2 165.6 392.2 173.4 369.1 173.4 369.1 119.2" style="fill:#07448e"/><path d="M422.3,134.8h-7.8V133a7.78,7.78,0,0,0-1.3-4.6,4.61,4.61,0,0,0-4.2-1.9,5,5,0,0,0-2.6.6,4.1,4.1,0,0,0-1.6,1.6,7.16,7.16,0,0,0-.8,2.2,11,11,0,0,0-.2,2.6,21,21,0,0,0,.1,2.7,5.31,5.31,0,0,0,.6,1.9,4.27,4.27,0,0,0,1.3,1.4,13.32,13.32,0,0,0,2.4,1.2l5.9,2.4a16.5,16.5,0,0,1,4.2,2.3,9.26,9.26,0,0,1,2.5,3.1,13.07,13.07,0,0,1,1.2,4.1,41.06,41.06,0,0,1,.3,5.3,24.81,24.81,0,0,1-.7,6.3,14.32,14.32,0,0,1-2.2,5,10.35,10.35,0,0,1-4.1,3.3,14.75,14.75,0,0,1-6.3,1.2,12.69,12.69,0,0,1-5.2-1,15.13,15.13,0,0,1-4.2-2.7,12,12,0,0,1-2.8-4.1,12.55,12.55,0,0,1-1-5.1V158h7.8v2.4a5.85,5.85,0,0,0,1.3,3.8c.8,1.1,2.2,1.7,4.2,1.7a6.84,6.84,0,0,0,3.1-.6,4.36,4.36,0,0,0,1.7-1.6,6.12,6.12,0,0,0,.7-2.5,32.51,32.51,0,0,0,.2-3.3,31.58,31.58,0,0,0-.2-3.5,6.39,6.39,0,0,0-.6-2.2,3.76,3.76,0,0,0-1.4-1.4,16.66,16.66,0,0,0-2.3-1.1l-5.5-2.3c-3.3-1.4-5.6-3.2-6.7-5.4a19.49,19.49,0,0,1-1.7-8.5,22,22,0,0,1,.8-5.8,14.08,14.08,0,0,1,2.5-4.7,13,13,0,0,1,4.1-3.2,13.51,13.51,0,0,1,5.9-1.2,13.22,13.22,0,0,1,5.3,1.1,12,12,0,0,1,4.1,2.8,14,14,0,0,1,2.6,3.9,11.17,11.17,0,0,1,.9,4.4v4Z" style="fill:#07448e"/></svg>