<svg id="ef7803b3-276c-46c6-9df6-ec3488b63417" data-name="Layer 1" xmlns="http://www.w3.org/2000/svg" viewBox="0 0 900 200"><title>06-doc-tooling</title><rect width="900" height="200" style="fill:#f7eec9"/><rect x="205.8" y="30" width="7.1" height="139.2" style="fill:#07448e"/><rect x="29.9" y="30" width="139.2" height="139.2" style="fill:#07448e"/><path d="M104.2,57.3,97.6,71a24.37,24.37,0,0,1,2.7-.1,28.49,28.49,0,0,1,28.5,28.5,28.77,28.77,0,0,1-2.8,12.3l.7-.8,6,15.8,14.1,4.8a56.5,56.5,0,0,0-46.5-88.6,27.15,27.15,0,0,0-2.8.1Z" style="fill:#f9c7e4"/><path d="M61.4,120.6l15.1-5.4a28.51,28.51,0,0,1,8-39.5,28.85,28.85,0,0,1,7.3-3.5l7.1-14.9L92.5,43.4a56.56,56.56,0,0,0-36.4,91.4Z" style="fill:#f9c7e4"/><path d="M129.2,130.4l-5.6-14.6a28.41,28.41,0,0,1-39.7,6.9,31,31,0,0,1-4.3-3.7L65,124.2l-5.3,14.6a56.53,56.53,0,0,0,79.9,1.3,60.16,60.16,0,0,0,4.2-4.6Z" style="fill:#f9c7e4"/><path d="M247.6,28h11.5c4.4,0,7.8,1.2,10.1,3.7s3.5,5.9,3.5,10.3V67.3c0,5.1-1.2,8.8-3.7,11.2s-6,3.6-10.6,3.6H247.6Zm7.8,46.8H259c2.2,0,3.7-.5,4.6-1.6a8,8,0,0,0,1.4-5.1V42a7.73,7.73,0,0,0-1.3-4.9c-.9-1.2-2.4-1.7-4.7-1.7h-3.6Z" style="fill:#07448e"/><path d="M279.6,40.8a15,15,0,0,1,1.1-5.8,11.8,11.8,0,0,1,3-4.1,13.18,13.18,0,0,1,8.9-3.3,15.46,15.46,0,0,1,4.7.8,15.07,15.07,0,0,1,4.2,2.5,14,14,0,0,1,3,4.1,13.35,13.35,0,0,1,1.1,5.8V69.4a14.63,14.63,0,0,1-1.1,5.8,14,14,0,0,1-3,4.1,13.18,13.18,0,0,1-8.9,3.3,15.46,15.46,0,0,1-4.7-.8,15.07,15.07,0,0,1-4.2-2.5,14,14,0,0,1-3-4.1,13.07,13.07,0,0,1-1.1-5.8Zm7.7,28.5c0,1.9.5,3.3,1.6,4.1a5.41,5.41,0,0,0,3.7,1.3,5.58,5.58,0,0,0,3.7-1.3,5.33,5.33,0,0,0,1.6-4.1V40.8c0-1.9-.5-3.3-1.6-4.1a5.41,5.41,0,0,0-3.7-1.3,5.58,5.58,0,0,0-3.7,1.3,5.33,5.33,0,0,0-1.6,4.1Z" style="fill:#07448e"/><path d="M337,70a11.17,11.17,0,0,1-1,4.8,13.13,13.13,0,0,1-2.6,4,11.86,11.86,0,0,1-3.9,2.7,11.17,11.17,0,0,1-4.8,1,17.4,17.4,0,0,1-4.5-.6,10.67,10.67,0,0,1-4.1-2.1,11.93,11.93,0,0,1-3-3.9,14,14,0,0,1-1.2-6.2V40a13,13,0,0,1,.9-4.9,13.13,13.13,0,0,1,2.6-4,11.09,11.09,0,0,1,4-2.6,14,14,0,0,1,5.1-1,11.31,11.31,0,0,1,4.9,1,11.79,11.79,0,0,1,4,2.7,11.51,11.51,0,0,1,2.6,4.1,14.58,14.58,0,0,1,1,5.2v3h-7.8V40.9a6.39,6.39,0,0,0-1.3-4,4.27,4.27,0,0,0-3.5-1.7c-1.9,0-3.2.6-3.8,1.8a10,10,0,0,0-1,4.5V69.2a7.21,7.21,0,0,0,1,4c.7,1.1,1.9,1.6,3.7,1.6a4.53,4.53,0,0,0,1.6-.3,5.07,5.07,0,0,0,1.6-.9,4.34,4.34,0,0,0,1.2-1.7,6.84,6.84,0,0,0,.5-2.7V66.5H337Z" style="fill:#07448e"/><polygon points="252.7 126.5 243.7 126.5 243.7 119.2 269.4 119.2 269.4 126.5 260.4 126.5 260.4 173.3 252.6 173.3 252.6 126.5 252.7 126.5" style="fill:#07448e"/><path d="M271.5,132a15,15,0,0,1,1.1-5.8,11.8,11.8,0,0,1,3-4.1,13.18,13.18,0,0,1,8.9-3.3,15.46,15.46,0,0,1,4.7.8,15.07,15.07,0,0,1,4.2,2.5,14,14,0,0,1,3,4.1,13.35,13.35,0,0,1,1.1,5.8v28.6a14.63,14.63,0,0,1-1.1,5.8,14,14,0,0,1-3,4.1,13.18,13.18,0,0,1-8.9,3.3,15.46,15.46,0,0,1-4.7-.8,15.07,15.07,0,0,1-4.2-2.5,14,14,0,0,1-3-4.1,13.07,13.07,0,0,1-1.1-5.8Zm7.8,28.5c0,1.9.5,3.3,1.6,4.1a5.41,5.41,0,0,0,3.7,1.3,5.58,5.58,0,0,0,3.7-1.3,5.33,5.33,0,0,0,1.6-4.1V132c0-1.9-.5-3.3-1.6-4.1a5.41,5.41,0,0,0-3.7-1.3,5.58,5.58,0,0,0-3.7,1.3,5.33,5.33,0,0,0-1.6,4.1Z" style="fill:#07448e"/><path d="M303.9,132a15,15,0,0,1,1.1-5.8,11.8,11.8,0,0,1,3-4.1,13.18,13.18,0,0,1,8.9-3.3,15.46,15.46,0,0,1,4.7.8,15.07,15.07,0,0,1,4.2,2.5,14,14,0,0,1,3,4.1,13.35,13.35,0,0,1,1.1,5.8v28.6a14.63,14.63,0,0,1-1.1,5.8,14,14,0,0,1-3,4.1,13.18,13.18,0,0,1-8.9,3.3,15.46,15.46,0,0,1-4.7-.8,15.07,15.07,0,0,1-4.2-2.5,14,14,0,0,1-3-4.1,13.07,13.07,0,0,1-1.1-5.8Zm7.7,28.5c0,1.9.5,3.3,1.6,4.1a5.41,5.41,0,0,0,3.7,1.3,5.58,5.58,0,0,0,3.7-1.3,5.33,5.33,0,0,0,1.6-4.1V132c0-1.9-.5-3.3-1.6-4.1a5.41,5.41,0,0,0-3.7-1.3,5.58,5.58,0,0,0-3.7,1.3,5.33,5.33,0,0,0-1.6,4.1Z" style="fill:#07448e"/><polygon points="336.7 119.2 344.5 119.2 344.5 165.6 359.9 165.6 359.9 173.4 336.8 173.4 336.8 119.2 336.7 119.2" style="fill:#07448e"/><rect x="365.1" y="119.2" width="7.8" height="54.1" style="fill:#07448e"/><polygon points="380 119.2 387.4 119.2 399.1 151.8 399.3 151.8 399.3 119.2 407.1 119.2 407.1 173.3 399.8 173.3 387.9 140.8 387.7 140.8 387.7 173.3 380 173.3 380 119.2" style="fill:#07448e"/><path d="M413.6,132a15,15,0,0,1,1.1-5.8,11.8,11.8,0,0,1,3-4.1,13.18,13.18,0,0,1,8.9-3.3,15.46,15.46,0,0,1,4.7.8,15.07,15.07,0,0,1,4.2,2.5,14,14,0,0,1,3,4.1,13.35,13.35,0,0,1,1.1,5.8v2.7h-7.8V132c0-1.9-.5-3.3-1.6-4.1a5.41,5.41,0,0,0-3.7-1.3,5.58,5.58,0,0,0-3.7,1.3,5.33,5.33,0,0,0-1.6,4.1v28.6c0,1.9.5,3.3,1.6,4.1a5.41,5.41,0,0,0,3.7,1.3,5.58,5.58,0,0,0,3.7-1.3,5.33,5.33,0,0,0,1.6-4.1V150.4h-6.2v-6.8h13.9v17a14.63,14.63,0,0,1-1.1,5.8,14,14,0,0,1-3,4.1,13.18,13.18,0,0,1-8.9,3.3,15.46,15.46,0,0,1-4.7-.8,15.07,15.07,0,0,1-4.2-2.5,14,14,0,0,1-3-4.1,13.07,13.07,0,0,1-1.1-5.8V132Z" style="fill:#07448e"/></svg>