<svg id="Layer_1" data-name="Layer 1" xmlns="http://www.w3.org/2000/svg" viewBox="0 0 900 900"><defs><style>.cls-1{fill:#07448e;}.cls-2{fill:#f7eec9;}.cls-3,.cls-4{fill:#f9c7e4;}.cls-4{font-size:76px;font-family:DINCondensed-Bold, DIN Condensed;font-weight:700;}</style></defs><title>1-developer-ci-publishing</title><rect class="cls-1" width="900" height="900"/><path class="cls-2" d="M297,135.71h-.12a5.72,5.72,0,0,0-.58-.37l-27.42-13.19a.89.89,0,0,1-.59-.92V89.5a.85.85,0,0,1,.59-.91Q281.27,83,293.59,77.31c1.59-.73,3.17-1.48,4.75-2.22h.26c.19.1.37.22.56.3l28.19,12.93a.84.84,0,0,1,.6.91q0,15.84,0,31.68a.86.86,0,0,1-.6.92l-25,11.41C300.56,134.05,298.8,134.89,297,135.71ZM271,90.06c0,.22,0,.37,0,.52v29.25a.68.68,0,0,0,.46.71L297,132.68c.15.07.3.12.49.19V102.66a.78.78,0,0,0-.58-.81L271.57,90.3Zm29.11,41.82.43-.18,24.38-11.52c.4-.18.42-.46.42-.79V89.7l-.65.29c-2.29,1.12-4.58,2.25-6.88,3.35a.77.77,0,0,0-.51.8v13.15a.77.77,0,0,1-.46.78c-2.29,1.24-4.58,2.52-6.9,3.78-.14.08-.3.14-.58.27V97.58l-.64.3c-2.69,1.32-5.38,2.65-8.08,4a.83.83,0,0,0-.55.89v27Zm-26.18-43a1.13,1.13,0,0,0,.21.15l24,10.85a.7.7,0,0,0,.55,0q4.19-2,8.39-4a1.28,1.28,0,0,0-.22-.17l-23.21-10.9a.75.75,0,0,0-.55,0C280.06,86.11,277.05,87.46,273.92,88.84Zm48.29-.22c-.21-.11-.35-.2-.51-.27Q310.32,83.15,298.9,78a1.19,1.19,0,0,0-.87,0c-2,.88-4,1.8-6,2.71l-.43.24.1.07,23.9,10.53a.69.69,0,0,0,.49,0c2-1,4-1.89,6.08-2.89Z"/><path class="cls-2" d="M373.51,135.71h-.12a5.57,5.57,0,0,0-.57-.37l-27.43-13.19a.91.91,0,0,1-.59-.92V89.5a.85.85,0,0,1,.59-.91Q357.74,83,370.06,77.31c1.6-.73,3.17-1.48,4.75-2.22h.24c.19.1.37.22.56.3l28.22,12.93a.84.84,0,0,1,.59.91q0,15.84,0,31.68a.86.86,0,0,1-.6.92l-25,11.41C377,134.05,375.27,134.89,373.51,135.71ZM347.46,90.06c0,.22,0,.37,0,.52v29.25a.68.68,0,0,0,.46.71l25.58,12.14c.15.07.3.12.49.19V102.66a.78.78,0,0,0-.58-.81L348,90.3Zm29.1,41.82.43-.18,24.38-11.52c.4-.18.42-.46.42-.79V89.7l-.65.29-6.86,3.35a.77.77,0,0,0-.51.8v13.15a.75.75,0,0,1-.46.78c-2.29,1.24-4.58,2.52-6.87,3.78-.15.08-.31.14-.59.27V97.58l-.64.3c-2.69,1.32-5.37,2.65-8.07,4a.84.84,0,0,0-.56.89v27Zm-26.18-43a1.49,1.49,0,0,0,.2.15l24,10.85a.7.7,0,0,0,.55,0l8.4-4-.22-.17-23.22-10.9a.72.72,0,0,0-.54,0c-3,1.32-6.08,2.67-9.18,4Zm48.29-.22-.51-.27L375.36,78a1.19,1.19,0,0,0-.87,0c-2,.88-4,1.8-6,2.71l-.43.24.09.07,23.9,10.53a.72.72,0,0,0,.5,0c2-1,4-1.89,6.09-2.89Z"/><path class="cls-2" d="M450,135.71h-.12a5.57,5.57,0,0,0-.57-.37l-27.43-13.19a.89.89,0,0,1-.58-.92V89.5a.83.83,0,0,1,.58-.91Q434.2,83,446.53,77.31c1.6-.73,3.17-1.48,4.76-2.22h.23c.19.1.37.22.56.3L480.3,88.32a.84.84,0,0,1,.59.91q0,15.84,0,31.68a.86.86,0,0,1-.6.92l-25,11.41C453.51,134.05,451.74,134.89,450,135.71Zm-26-45.65c0,.22,0,.37,0,.52v29.25a.68.68,0,0,0,.46.71l25.58,12.14c.15.07.3.12.49.19V102.66a.78.78,0,0,0-.58-.81L424.51,90.3Zm29.11,41.82.42-.18,24.38-11.52c.4-.18.42-.46.42-.79V89.7l-.65.29c-2.29,1.12-4.58,2.25-6.85,3.35a.76.76,0,0,0-.51.8v13.15a.78.78,0,0,1-.46.78c-2.29,1.24-4.59,2.52-6.88,3.78-.15.08-.31.14-.58.27V97.58l-.64.3c-2.7,1.32-5.38,2.65-8.08,4a.83.83,0,0,0-.55.89v27Zm-26.19-43a1.59,1.59,0,0,0,.21.15l24,10.85a.68.68,0,0,0,.54,0c2.8-1.32,5.59-2.65,8.4-4a1.84,1.84,0,0,0-.22-.17L436.6,84.79a.75.75,0,0,0-.55,0C433,86.11,430,87.46,426.86,88.84Zm48.3-.22-.51-.27L451.85,78a1.21,1.21,0,0,0-.88,0c-2,.88-4,1.8-6,2.71l-.42.24.09.07,23.9,10.53a.69.69,0,0,0,.49,0C471.07,90.56,473.08,89.62,475.16,88.62Z"/><path class="cls-2" d="M444.64,280.68h-.11c-.19-.13-.38-.26-.58-.37l-27.43-13.19a.89.89,0,0,1-.58-.92V234.47a.84.84,0,0,1,.58-.91q12.36-5.62,24.68-11.27c1.59-.73,3.16-1.49,4.75-2.23h.23a6.19,6.19,0,0,0,.57.3L475,233.29a.84.84,0,0,1,.6.91q0,15.84,0,31.68a.86.86,0,0,1-.61.92q-12.49,5.7-25,11.42C448.17,279,446.41,279.86,444.64,280.68ZM418.6,235c0,.22,0,.37,0,.52V264.8a.66.66,0,0,0,.46.71l25.58,12.14a5.07,5.07,0,0,0,.49.19V247.63a.8.8,0,0,0-.58-.81l-25.34-11.55Zm29.11,41.82.43-.18,24.38-11.52c.4-.18.41-.46.41-.79V234.67l-.64.3-6.86,3.34a.78.78,0,0,0-.51.81v13.14a.76.76,0,0,1-.46.78l-6.87,3.78c-.15.08-.31.14-.59.27V242.56l-.64.29c-2.69,1.32-5.37,2.65-8.07,4a.84.84,0,0,0-.56.89v27Zm-26.18-43a1,1,0,0,0,.2.15l24,10.85a.7.7,0,0,0,.55,0l8.4-4a1.53,1.53,0,0,0-.22-.16q-11.61-5.46-23.22-10.9a.72.72,0,0,0-.54,0C427.67,231.09,424.63,232.43,421.53,233.81Zm48.3-.22c-.22-.11-.36-.2-.52-.27l-22.8-10.39a1.19,1.19,0,0,0-.87,0c-2,.88-4,1.8-6,2.71-.14.07-.28.16-.43.25l.09.06,23.9,10.53a.72.72,0,0,0,.5,0Z"/><path class="cls-2" d="M526.45,135.71h-.11c-.19-.13-.38-.26-.58-.37l-27.43-13.19a.89.89,0,0,1-.58-.92V89.5a.84.84,0,0,1,.58-.91Q510.68,83,523,77.31c1.59-.73,3.16-1.48,4.75-2.22H528a6.19,6.19,0,0,0,.57.3l28.23,12.93a.84.84,0,0,1,.6.91q0,15.84,0,31.68a.87.87,0,0,1-.61.92l-25,11.41C530,134.05,528.22,134.89,526.45,135.71Zm-26-45.65c0,.22,0,.37,0,.52v29.25a.68.68,0,0,0,.46.71l25.58,12.14c.15.07.31.12.49.19V102.66a.77.77,0,0,0-.58-.81Q513.65,96.06,501,90.3Zm29.11,41.82.42-.18,24.38-11.52c.4-.18.42-.46.42-.79V89.7l-.65.29c-2.29,1.12-4.58,2.25-6.87,3.35a.76.76,0,0,0-.51.8v13.15a.78.78,0,0,1-.46.78c-2.3,1.24-4.59,2.52-6.9,3.78-.15.08-.31.14-.59.27V97.58l-.64.3c-2.69,1.32-5.37,2.65-8.07,4a.84.84,0,0,0-.56.89v27Zm-26.19-43,.21.15,24,10.85a.7.7,0,0,0,.55,0q4.18-2,8.39-4a1.84,1.84,0,0,0-.22-.17l-23.21-10.9a.75.75,0,0,0-.55,0C509.48,86.11,506.44,87.46,503.33,88.84Zm48.3-.22c-.21-.11-.36-.2-.52-.27L528.32,78a1.19,1.19,0,0,0-.87,0c-2,.88-4,1.8-6,2.71l-.42.24.09.07,23.9,10.53a.69.69,0,0,0,.49,0C547.55,90.56,549.55,89.62,551.63,88.62Z"/><path class="cls-2" d="M602.92,135.71h-.11c-.19-.13-.38-.26-.58-.37L574.8,122.15a.89.89,0,0,1-.58-.92V89.5a.84.84,0,0,1,.58-.91Q587.15,83,599.48,77.31c1.59-.73,3.16-1.48,4.75-2.22h.25a6.19,6.19,0,0,0,.57.3l28.19,12.93a.86.86,0,0,1,.6.91q0,15.84,0,31.68a.87.87,0,0,1-.61.92l-25,11.41C606.45,134.05,604.69,134.89,602.92,135.71Zm-26-45.65c0,.22,0,.37,0,.52v29.25a.66.66,0,0,0,.45.71l25.58,12.14c.15.07.31.12.5.19V102.66a.79.79,0,0,0-.59-.81L577.46,90.3ZM606,131.88l.43-.18,24.37-11.52c.4-.18.42-.46.42-.79V89.7l-.64.29c-2.3,1.12-4.59,2.25-6.88,3.35a.76.76,0,0,0-.51.8v13.15a.78.78,0,0,1-.46.78c-2.29,1.24-4.59,2.52-6.9,3.78-.15.08-.31.14-.59.27V97.58l-.64.3c-2.69,1.32-5.37,2.65-8.07,4a.85.85,0,0,0-.56.89v27Zm-26.19-43L580,89l24,10.85a.7.7,0,0,0,.55,0q4.18-2,8.39-4a1.28,1.28,0,0,0-.22-.17l-23.21-10.9a.75.75,0,0,0-.55,0C586,86.11,582.93,87.46,579.8,88.84Zm48.3-.22c-.21-.11-.36-.2-.52-.27L604.79,78a1.19,1.19,0,0,0-.87,0c-2,.88-4,1.8-6,2.71-.14.07-.27.16-.42.24l.09.07,23.9,10.53a.69.69,0,0,0,.49,0C624,90.56,626,89.62,628.1,88.62Z"/><path class="cls-2" d="M486,438.44H410.09c.33-7.26,6.56-15,13.51-16.65a3.58,3.58,0,0,0,2.79-3.27,87.31,87.31,0,0,0,1-12c0-4.65-.81-9.3-.81-14a29.53,29.53,0,0,1,3.05-13.18c3.44-7,9-10.6,16.9-10.42a53.86,53.86,0,0,1,6,.17c6.42.92,10.91,4.55,13.55,10.37,3.17,7,3.7,14.26,2.61,21.79a44,44,0,0,0,.07,15.48,13.73,13.73,0,0,0,1.34,3.57,2.83,2.83,0,0,0,1.73,1.29c5.16,1,8.56,4.18,10.85,8.66C483.88,432.85,484.82,435.56,486,438.44Zm-21.82-43.29c-1.32,2.53-2.81,1.34-4.35.54q-8.85-4.59-17.75-9.14c-2.46-1.26-4.86-1.06-6.52,1.15-1.34,1.79-2,4.05-3,6.1-.24.5-.28,1.19-.66,1.49-2.1,1.67-1.69,6.67.66,8a3.14,3.14,0,0,1,1.27,1.38,26,26,0,0,0,6.09,9.21c5,4.68,10.74,4.72,15.78.1a25.2,25.2,0,0,0,6.11-9.2,3.11,3.11,0,0,1,.84-1.4,5.92,5.92,0,0,0,1.57-8.22ZM433.92,421c1.07,3.42,7.89,7,13.85,7s12.71-3.59,13.86-7.08l-3.91-4.31c-6.18,5.32-12.45,6.3-19.76,0Z"/><rect class="cls-3" x="40" y="641" width="815" height="13"/><polygon class="cls-3" points="288.97 160.27 283.01 167.15 295.39 178.16 320.15 148.81 310.52 148.81 295.85 166.69 288.97 160.27"/><polygon class="cls-3" points="365.44 160.27 359.48 167.15 371.86 178.16 396.63 148.81 387 148.81 372.32 166.69 365.44 160.27"/><polygon class="cls-3" points="441.91 160.27 435.95 167.15 448.33 178.16 473.1 148.81 463.47 148.81 448.79 166.69 441.91 160.27"/><polygon class="cls-3" points="435.44 315.98 429.48 322.86 441.86 333.87 466.63 304.51 456.99 304.51 442.32 322.4 435.44 315.98"/><polygon class="cls-3" points="518.38 160.27 512.42 167.15 524.8 178.16 549.57 148.81 539.94 148.81 525.26 166.69 518.38 160.27"/><polygon class="cls-3" points="594.85 160.27 588.89 167.15 601.27 178.16 626.04 148.81 616.41 148.81 601.73 166.69 594.85 160.27"/><text class="cls-4" transform="translate(39.28 741.11)">1 DEVELOPER, CI VERIFIED, <tspan x="0" y="91.2">DEVELOPER PUBLISHED</tspan></text><text class="cls-4" transform="translate(129.9 535.66)">SEMVER BUMP &amp; PUBLISH</text></svg>