<svg id="46ee4c98-850f-409b-a514-6d9c2ca30e57" data-name="Layer 1" xmlns="http://www.w3.org/2000/svg" viewBox="0 0 900 900"><title>1-developer-ci-publishing</title><rect width="900" height="900" style="fill:#07448e"/><path d="M297,135.7h-.1c-.2-.1-.4-.3-.6-.4l-27.4-13.2a.87.87,0,0,1-.6-.9V89.5a.87.87,0,0,1,.6-.9c8.3-3.7,16.5-7.5,24.7-11.3,1.6-.7,3.2-1.5,4.8-2.2h.3l.6.3,28.2,12.9a.78.78,0,0,1,.6.9v31.7a.87.87,0,0,1-.6.9l-25,11.4C300.6,134.1,298.8,134.9,297,135.7ZM271,90.1v29.7a.75.75,0,0,0,.5.7L297,132.6c.1.1.3.1.5.2V102.6a.76.76,0,0,0-.6-.8L271.6,90.2Zm29.1,41.8.4-.2,24.4-11.5a.74.74,0,0,0,.4-.8V89.7l-.6.3-6.9,3.3a.79.79,0,0,0-.5.8v13.2a1,1,0,0,1-.5.8c-2.3,1.2-4.6,2.5-6.9,3.8-.1.1-.3.1-.6.3V97.6l-.6.3c-2.7,1.3-5.4,2.7-8.1,4a.72.72,0,0,0-.5.9v29.1Zm-26.2-43,.2.2,24,10.8a.45.45,0,0,0,.5,0c2.8-1.3,5.6-2.7,8.4-4l-.2-.2L283.6,84.8a.45.45,0,0,0-.5,0C280.1,86.1,277,87.5,273.9,88.9Zm48.3-.2a2.19,2.19,0,0,1-.5-.3c-7.6-3.5-15.2-7-22.8-10.4a1.39,1.39,0,0,0-.9,0l-6,2.7-.4.2.1.1,23.9,10.5a.45.45,0,0,0,.5,0C318.1,90.5,320.1,89.7,322.2,88.7Z" style="fill:#f7eec9"/><path d="M373.5,135.7h-.1c-.2-.1-.4-.3-.6-.4l-27.4-13.2a.87.87,0,0,1-.6-.9V89.5a.87.87,0,0,1,.6-.9c8.2-3.7,16.5-7.5,24.7-11.3,1.6-.7,3.2-1.5,4.8-2.2h.2l.6.3,28.2,12.9a.87.87,0,0,1,.6.9v31.7a.87.87,0,0,1-.6.9l-25,11.4C377,134.1,375.3,134.9,373.5,135.7Zm-26-45.6v29.7a.75.75,0,0,0,.5.7l25.6,12.1c.1.1.3.1.5.2V102.6a.76.76,0,0,0-.6-.8L348,90.3Zm29.1,41.8.4-.2,24.4-11.5a.74.74,0,0,0,.4-.8V89.7l-.6.3-6.9,3.3a.79.79,0,0,0-.5.8v13.2a.75.75,0,0,1-.5.8c-2.3,1.2-4.6,2.5-6.9,3.8-.1.1-.3.1-.6.3V97.6l-.6.3c-2.7,1.3-5.4,2.7-8.1,4a.87.87,0,0,0-.6.9v27Zm-26.2-43,.2.2,24,10.8a.45.45,0,0,0,.5,0l8.4-4-.2-.2L360.1,84.8a.45.45,0,0,0-.5,0C356.5,86.1,353.5,87.5,350.4,88.9Zm48.3-.2-.5-.3L375.4,78a1.39,1.39,0,0,0-.9,0l-6,2.7-.4.2.1.1L392,91.5a.45.45,0,0,0,.5,0C394.5,90.5,396.5,89.7,398.7,88.7Z" style="fill:#f7eec9"/><path d="M450,135.7h-.1c-.2-.1-.4-.3-.6-.4l-27.4-13.2a.87.87,0,0,1-.6-.9V89.5a.78.78,0,0,1,.6-.9c8.2-3.7,16.4-7.5,24.6-11.3,1.6-.7,3.2-1.5,4.8-2.2h.2l.6.3,28.2,12.9a.87.87,0,0,1,.6.9v31.7a.87.87,0,0,1-.6.9l-25,11.4C453.5,134.1,451.7,134.9,450,135.7ZM424,90.1v29.7a.75.75,0,0,0,.5.7l25.6,12.1c.1.1.3.1.5.2V102.6a.76.76,0,0,0-.6-.8L424.6,90.2Zm29.1,41.8.4-.2,24.4-11.5a.74.74,0,0,0,.4-.8V89.7l-.6.3-6.9,3.3a.79.79,0,0,0-.5.8v13.2a1,1,0,0,1-.5.8c-2.3,1.2-4.6,2.5-6.9,3.8-.1.1-.3.1-.6.3V97.6l-.6.3c-2.7,1.3-5.4,2.7-8.1,4a.72.72,0,0,0-.5.9v29.1Zm-26.2-43,.2.2,24,10.8a.45.45,0,0,0,.5,0c2.8-1.3,5.6-2.7,8.4-4l-.2-.2L436.6,84.8a.45.45,0,0,0-.5,0C433,86.1,430,87.5,426.9,88.9Zm48.3-.2-.5-.3L451.9,78a1.39,1.39,0,0,0-.9,0l-6,2.7-.4.2.1.1,23.9,10.5a.45.45,0,0,0,.5,0C471.1,90.6,473.1,89.6,475.2,88.7Z" style="fill:#f7eec9"/><path d="M444.6,280.7h-.1c-.2-.1-.4-.3-.6-.4l-27.4-13.2a.87.87,0,0,1-.6-.9V234.5a.78.78,0,0,1,.6-.9c8.2-3.7,16.5-7.5,24.7-11.3,1.6-.7,3.2-1.5,4.8-2.2h.2l.6.3L475,233.3a.78.78,0,0,1,.6.9v31.7a.87.87,0,0,1-.6.9c-8.3,3.8-16.7,7.6-25,11.4C448.2,279,446.4,279.9,444.6,280.7Zm-26-45.7v29.8a.75.75,0,0,0,.5.7l25.6,12.1c.2.1.3.1.5.2V247.6a.76.76,0,0,0-.6-.8l-25.3-11.6Zm29.1,41.8.4-.2,24.4-11.5a.74.74,0,0,0,.4-.8V234.6l-.6.3-6.9,3.3a.89.89,0,0,0-.5.8v13.1a1,1,0,0,1-.5.8l-6.9,3.8c-.1.1-.3.1-.6.3V242.5l-.6.3c-2.7,1.3-5.4,2.6-8.1,4a.87.87,0,0,0-.6.9v27Zm-26.2-43c.1.1.1.1.2.1l24,10.9a.45.45,0,0,0,.5,0l8.4-4-.2-.2c-7.7-3.6-15.5-7.3-23.2-10.9a.45.45,0,0,0-.5,0C427.7,231.1,424.6,232.4,421.5,233.8Zm48.3-.2a2.19,2.19,0,0,1-.5-.3l-22.8-10.4a1.39,1.39,0,0,0-.9,0l-6,2.7a.76.76,0,0,1-.4.2l.1.1,23.9,10.5a.45.45,0,0,0,.5,0Z" style="fill:#f7eec9"/><path d="M526.5,135.7h-.1c-.2-.1-.4-.3-.6-.4l-27.4-13.2a.87.87,0,0,1-.6-.9V89.5a.78.78,0,0,1,.6-.9c8.2-3.7,16.5-7.5,24.7-11.3,1.6-.7,3.2-1.5,4.8-2.2h.2l.6.3,28.2,12.9a.78.78,0,0,1,.6.9v31.7a.87.87,0,0,1-.6.9l-25,11.4C530,134.1,528.2,134.9,526.5,135.7Zm-26-45.6v29.7a.75.75,0,0,0,.5.7l25.6,12.1c.2.1.3.1.5.2V102.6a.76.76,0,0,0-.6-.8c-8.5-3.9-17-7.7-25.4-11.6Zm29.1,41.8.4-.2,24.4-11.5a.74.74,0,0,0,.4-.8V89.7l-.7.3-6.9,3.3a.79.79,0,0,0-.5.8v13.2a1,1,0,0,1-.5.8c-2.3,1.2-4.6,2.5-6.9,3.8a3.29,3.29,0,0,0-.6.3V97.6l-.6.3c-2.7,1.3-5.4,2.7-8.1,4a.87.87,0,0,0-.6.9v27Zm-26.2-43,.2.2,24,10.8a.45.45,0,0,0,.5,0c2.8-1.3,5.6-2.7,8.4-4l-.2-.2L513.1,84.8a.45.45,0,0,0-.5,0C509.5,86.1,506.4,87.5,503.4,88.9Zm48.3-.2a2.19,2.19,0,0,1-.5-.3L528.3,78a1.39,1.39,0,0,0-.9,0l-6,2.7-.4.2.1.1L545,91.5a.45.45,0,0,0,.5,0C547.5,90.6,549.5,89.6,551.7,88.7Z" style="fill:#f7eec9"/><path d="M602.9,135.7h-.1c-.2-.1-.4-.3-.6-.4l-27.4-13.2a.87.87,0,0,1-.6-.9V89.5a.78.78,0,0,1,.6-.9c8.2-3.7,16.5-7.5,24.7-11.3,1.6-.7,3.2-1.5,4.8-2.2h.2l.6.3,28.2,12.9a.87.87,0,0,1,.6.9v31.7a.87.87,0,0,1-.6.9l-25,11.4C606.5,134.1,604.7,134.9,602.9,135.7Zm-26-45.6v29.7a.64.64,0,0,0,.5.7L603,132.6c.2.1.3.1.5.2V102.6a.76.76,0,0,0-.6-.8L577.5,90.2ZM606,131.9l.4-.2,24.4-11.5a.74.74,0,0,0,.4-.8V89.7l-.6.3-6.9,3.3a.79.79,0,0,0-.5.8v13.2a1,1,0,0,1-.5.8c-2.3,1.2-4.6,2.5-6.9,3.8a3.29,3.29,0,0,0-.6.3V97.6l-.6.3c-2.7,1.3-5.4,2.7-8.1,4a.87.87,0,0,0-.6.9v27Zm-26.2-43,.2.1,24,10.8a.45.45,0,0,0,.5,0c2.8-1.3,5.6-2.7,8.4-4l-.2-.2L589.5,84.7a.45.45,0,0,0-.5,0C586,86.1,582.9,87.5,579.8,88.9Zm48.3-.2a2.19,2.19,0,0,1-.5-.3L604.8,78a1.39,1.39,0,0,0-.9,0l-6,2.7a.76.76,0,0,1-.4.2l.1.1,23.9,10.5a.45.45,0,0,0,.5,0C624,90.6,626,89.6,628.1,88.7Z" style="fill:#f7eec9"/><path d="M486,438.4H410.1c.3-7.3,6.6-15,13.5-16.6a3.52,3.52,0,0,0,2.8-3.3,97.09,97.09,0,0,0,1-12c0-4.6-.8-9.3-.8-14a30,30,0,0,1,3-13.2c3.4-7,9-10.6,16.9-10.4a40.12,40.12,0,0,1,6,.2c6.4.9,10.9,4.5,13.5,10.4,3.2,7,3.7,14.3,2.6,21.8a42.51,42.51,0,0,0,.1,15.5,17.35,17.35,0,0,0,1.3,3.6,3.15,3.15,0,0,0,1.7,1.3c5.2,1,8.6,4.2,10.9,8.7C483.9,432.9,484.8,435.6,486,438.4Zm-21.8-43.3c-1.3,2.5-2.8,1.3-4.4.5-5.9-3.1-11.8-6.1-17.8-9.1-2.5-1.3-4.9-1.1-6.5,1.1-1.3,1.8-2,4-3,6.1-.2.5-.3,1.2-.7,1.5-2.1,1.7-1.7,6.7.7,8a3,3,0,0,1,1.3,1.4,24.72,24.72,0,0,0,6.1,9.2c5,4.7,10.7,4.7,15.8.1a24.72,24.72,0,0,0,6.1-9.2,3.92,3.92,0,0,1,.8-1.4A5.74,5.74,0,0,0,464.2,395.1ZM433.9,421c1.1,3.4,7.9,7,13.9,7s12.7-3.6,13.9-7.1l-3.9-4.3c-6.2,5.3-12.5,6.3-19.8,0Z" style="fill:#f7eec9"/><rect x="40" y="641" width="815" height="13" style="fill:#f9c7e4"/><polygon points="289 160.3 283 167.1 295.4 178.2 320.1 148.8 310.5 148.8 295.9 166.7 289 160.3" style="fill:#f9c7e4"/><polygon points="365.4 160.3 359.5 167.1 371.9 178.2 396.6 148.8 387 148.8 372.3 166.7 365.4 160.3" style="fill:#f9c7e4"/><polygon points="441.9 160.3 436 167.1 448.3 178.2 473.1 148.8 463.5 148.8 448.8 166.7 441.9 160.3" style="fill:#f9c7e4"/><polygon points="435.4 316 429.5 322.9 441.9 333.9 466.6 304.5 457 304.5 442.3 322.4 435.4 316" style="fill:#f9c7e4"/><polygon points="518.4 160.3 512.4 167.1 524.8 178.2 549.6 148.8 539.9 148.8 525.3 166.7 518.4 160.3" style="fill:#f9c7e4"/><polygon points="594.8 160.3 588.9 167.1 601.3 178.2 626 148.8 616.4 148.8 601.7 166.7 594.8 160.3" style="fill:#f9c7e4"/><polygon points="51.1 695.2 43.3 700.9 43.3 692.7 51.1 687 58.9 687 58.9 741.1 51.1 741.1 51.1 695.2" style="fill:#f9c7e4"/><path d="M85.3,687H96.8c4.4,0,7.8,1.2,10.1,3.7s3.5,5.9,3.5,10.3v25.3c0,5.1-1.2,8.8-3.7,11.2s-6,3.6-10.6,3.6H85.3Zm7.8,46.8h3.6c2.2,0,3.7-.5,4.6-1.6a8,8,0,0,0,1.4-5.1V701a7.73,7.73,0,0,0-1.3-4.9c-.9-1.2-2.4-1.7-4.7-1.7H93.1Z" style="fill:#f9c7e4"/><polygon points="117.7 687 140.8 687 140.8 694.3 125.4 694.3 125.4 710.2 138.8 710.2 138.8 717.5 125.4 717.5 125.4 733.4 140.8 733.4 140.8 741.2 117.7 741.2 117.7 687" style="fill:#f9c7e4"/><polygon points="161 741.1 154.2 741.1 143.2 687 151.4 687 157.6 724.8 157.8 724.8 164 687 172.2 687 161 741.1" style="fill:#f9c7e4"/><polygon points="176.8 687 199.9 687 199.9 694.3 184.5 694.3 184.5 710.2 197.9 710.2 197.9 717.5 184.5 717.5 184.5 733.4 199.9 733.4 199.9 741.2 176.8 741.2 176.8 687" style="fill:#f9c7e4"/><polygon points="204.9 687 212.7 687 212.7 733.4 228 733.4 228 741.2 204.9 741.2 204.9 687" style="fill:#f9c7e4"/><path d="M232.5,699.8a15,15,0,0,1,1.1-5.8,11.8,11.8,0,0,1,3-4.1,13.18,13.18,0,0,1,8.9-3.3,15.46,15.46,0,0,1,4.7.8,15.07,15.07,0,0,1,4.2,2.5,14,14,0,0,1,3,4.1,13.35,13.35,0,0,1,1.1,5.8v28.6a14.63,14.63,0,0,1-1.1,5.8,14,14,0,0,1-3,4.1,13.18,13.18,0,0,1-8.9,3.3,15.46,15.46,0,0,1-4.7-.8,15.07,15.07,0,0,1-4.2-2.5,14,14,0,0,1-3-4.1,13.07,13.07,0,0,1-1.1-5.8Zm7.8,28.5c0,1.9.5,3.3,1.6,4.1a5.41,5.41,0,0,0,3.7,1.3,5.58,5.58,0,0,0,3.7-1.3,5.33,5.33,0,0,0,1.6-4.1V699.7c0-1.9-.5-3.3-1.6-4.1a5.41,5.41,0,0,0-3.7-1.3,5.58,5.58,0,0,0-3.7,1.3,5.33,5.33,0,0,0-1.6,4.1Z" style="fill:#f9c7e4"/><path d="M265.4,687H277a18.9,18.9,0,0,1,5.6.8,10.52,10.52,0,0,1,4.4,3,11.61,11.61,0,0,1,2.7,5,31.29,31.29,0,0,1,.8,7.7,35.9,35.9,0,0,1-.4,6.1,14,14,0,0,1-1.8,4.8,10.58,10.58,0,0,1-4.3,4.1,14.25,14.25,0,0,1-7,1.5h-4v21.1h-7.8V687Zm7.7,25.7h3.7a7,7,0,0,0,3.6-.7,4.35,4.35,0,0,0,1.9-1.9,7.72,7.72,0,0,0,.7-2.9c.1-1.1.1-2.4.1-3.7s0-2.5-.1-3.6a9.42,9.42,0,0,0-.7-3,4.38,4.38,0,0,0-1.8-2,6.78,6.78,0,0,0-3.5-.7h-4v18.5Z" style="fill:#f9c7e4"/><polygon points="296.3 687 319.4 687 319.4 694.3 304 694.3 304 710.2 317.4 710.2 317.4 717.5 304 717.5 304 733.4 319.4 733.4 319.4 741.2 296.3 741.2 296.3 687" style="fill:#f9c7e4"/><path d="M324.4,687h12.5c9.1,0,13.7,5.3,13.7,15.9a20.19,20.19,0,0,1-1.5,8.1,10.88,10.88,0,0,1-5.2,5.4l8.4,24.7H344L336.8,718h-4.6v23.1h-7.8Zm7.8,24.2h4.4a7.48,7.48,0,0,0,3.3-.6,4.94,4.94,0,0,0,1.9-1.6,8.81,8.81,0,0,0,.9-2.6,19.44,19.44,0,0,0,.2-3.6,35.29,35.29,0,0,0-.2-3.6,7.94,7.94,0,0,0-1-2.7,4.47,4.47,0,0,0-2-1.6,8.42,8.42,0,0,0-3.4-.5h-4v16.8Z" style="fill:#f9c7e4"/><polygon points="356.3 733.4 364.1 733.4 364.1 741.2 356.3 746.8 356.3 733.4" style="fill:#f9c7e4"/><path d="M409.7,729a11.17,11.17,0,0,1-1,4.8,13.13,13.13,0,0,1-2.6,4,11.86,11.86,0,0,1-3.9,2.7,11.17,11.17,0,0,1-4.8,1,17.4,17.4,0,0,1-4.5-.6,10.67,10.67,0,0,1-4.1-2.1,11.93,11.93,0,0,1-3-3.9,14,14,0,0,1-1.2-6.2V699a13,13,0,0,1,.9-4.9,13.13,13.13,0,0,1,2.6-4,11.09,11.09,0,0,1,4-2.6,14,14,0,0,1,5.1-1,11.31,11.31,0,0,1,4.9,1,11.79,11.79,0,0,1,4,2.7,11.51,11.51,0,0,1,2.6,4.1,14.58,14.58,0,0,1,1,5.2v3h-7.8v-2.6a6.39,6.39,0,0,0-1.3-4,4.27,4.27,0,0,0-3.5-1.7c-1.9,0-3.2.6-3.8,1.8a10,10,0,0,0-1,4.5v27.7a7.21,7.21,0,0,0,1,4c.7,1.1,1.9,1.6,3.7,1.6a4.53,4.53,0,0,0,1.6-.3,5.07,5.07,0,0,0,1.6-.9,4.34,4.34,0,0,0,1.2-1.7,6.84,6.84,0,0,0,.5-2.7v-2.7h7.8Z" style="fill:#f9c7e4"/><rect x="416.2" y="687" width="7.8" height="54.1" style="fill:#f9c7e4"/><polygon points="460.8 741.1 454 741.1 443 687 451.2 687 457.4 724.8 457.6 724.8 463.8 687 472 687 460.8 741.1" style="fill:#f9c7e4"/><polygon points="476.6 687 499.7 687 499.7 694.3 484.3 694.3 484.3 710.2 497.7 710.2 497.7 717.5 484.3 717.5 484.3 733.4 499.7 733.4 499.7 741.2 476.6 741.2 476.6 687" style="fill:#f9c7e4"/><path d="M504.7,687h12.5c9.1,0,13.7,5.3,13.7,15.9a20.19,20.19,0,0,1-1.5,8.1,10.88,10.88,0,0,1-5.2,5.4l8.4,24.7h-8.2L517.2,718h-4.6v23.1h-7.8V687Zm7.7,24.2h4.4a7.48,7.48,0,0,0,3.3-.6A4.94,4.94,0,0,0,522,709a8.81,8.81,0,0,0,.9-2.6,19.44,19.44,0,0,0,.2-3.6,35.29,35.29,0,0,0-.2-3.6,10.71,10.71,0,0,0-.9-2.7,4.47,4.47,0,0,0-2-1.6,8.42,8.42,0,0,0-3.4-.5h-4v16.8Z" style="fill:#f9c7e4"/><rect x="537.3" y="687" width="7.8" height="54.1" style="fill:#f9c7e4"/><polygon points="552.6 687 575.7 687 575.7 694.3 560.3 694.3 560.3 710.7 573.7 710.7 573.7 718 560.3 718 560.3 741.1 552.5 741.1 552.5 687 552.6 687" style="fill:#f9c7e4"/><rect x="580.9" y="687" width="7.8" height="54.1" style="fill:#f9c7e4"/><polygon points="596.2 687 619.3 687 619.3 694.3 604 694.3 604 710.2 617.4 710.2 617.4 717.5 604 717.5 604 733.4 619.4 733.4 619.4 741.2 596.3 741.2 596.3 687 596.2 687" style="fill:#f9c7e4"/><path d="M624.3,687h11.5c4.4,0,7.8,1.2,10.1,3.7s3.5,5.9,3.5,10.3v25.3c0,5.1-1.2,8.8-3.7,11.2s-6,3.6-10.6,3.6H624.3Zm7.8,46.8h3.6c2.2,0,3.7-.5,4.6-1.6a8,8,0,0,0,1.4-5.1V701a7.73,7.73,0,0,0-1.3-4.9c-.9-1.2-2.4-1.7-4.7-1.7h-3.6Z" style="fill:#f9c7e4"/><polygon points="656.2 733.4 664 733.4 664 741.2 656.2 746.8 656.2 733.4" style="fill:#f9c7e4"/><path d="M42.9,778.2H54.4c4.4,0,7.8,1.2,10.1,3.7s3.5,5.9,3.5,10.3v25.3c0,5.1-1.2,8.8-3.7,11.2s-6,3.6-10.6,3.6H42.9ZM50.7,825h3.6c2.2,0,3.7-.5,4.6-1.6a8,8,0,0,0,1.4-5.1V792.2a7.73,7.73,0,0,0-1.3-4.9c-.9-1.2-2.4-1.7-4.7-1.7H50.7Z" style="fill:#f9c7e4"/><polygon points="75.3 778.2 98.4 778.2 98.4 785.5 83.1 785.5 83.1 801.4 96.5 801.4 96.5 808.7 83.1 808.7 83.1 824.6 98.5 824.6 98.5 832.4 75.3 832.4 75.3 778.2" style="fill:#f9c7e4"/><polygon points="118.6 832.3 111.8 832.3 100.8 778.2 109 778.2 115.2 816 115.4 816 121.6 778.2 129.8 778.2 118.6 832.3" style="fill:#f9c7e4"/><polygon points="134.4 778.2 157.5 778.2 157.5 785.5 142.1 785.5 142.1 801.4 155.5 801.4 155.5 808.7 142.1 808.7 142.1 824.6 157.5 824.6 157.5 832.4 134.4 832.4 134.4 778.2" style="fill:#f9c7e4"/><polygon points="162.5 778.2 170.3 778.2 170.3 824.6 185.7 824.6 185.7 832.4 162.6 832.4 162.6 778.2 162.5 778.2" style="fill:#f9c7e4"/><path d="M190.1,791a15,15,0,0,1,1.1-5.8,11.8,11.8,0,0,1,3-4.1,13.18,13.18,0,0,1,8.9-3.3,15.46,15.46,0,0,1,4.7.8,15.07,15.07,0,0,1,4.2,2.5,14,14,0,0,1,3,4.1,13.35,13.35,0,0,1,1.1,5.8v28.6a14.63,14.63,0,0,1-1.1,5.8,14,14,0,0,1-3,4.1,13.18,13.18,0,0,1-8.9,3.3,15.46,15.46,0,0,1-4.7-.8,15.07,15.07,0,0,1-4.2-2.5,14,14,0,0,1-3-4.1,13.07,13.07,0,0,1-1.1-5.8Zm7.8,28.5c0,1.9.5,3.3,1.6,4.1a5.41,5.41,0,0,0,3.7,1.3,5.58,5.58,0,0,0,3.7-1.3,5.33,5.33,0,0,0,1.6-4.1V791c0-1.9-.5-3.3-1.6-4.1a5.41,5.41,0,0,0-3.7-1.3,5.58,5.58,0,0,0-3.7,1.3,5.33,5.33,0,0,0-1.6,4.1Z" style="fill:#f9c7e4"/><path d="M223,778.2h11.6a18.9,18.9,0,0,1,5.6.8,10.52,10.52,0,0,1,4.4,3,11.61,11.61,0,0,1,2.7,5,31.29,31.29,0,0,1,.8,7.7,35.9,35.9,0,0,1-.4,6.1,14,14,0,0,1-1.8,4.8,10.58,10.58,0,0,1-4.3,4.1,14.25,14.25,0,0,1-7,1.5h-4v21.1H223Zm7.7,25.7h3.7a7,7,0,0,0,3.6-.7,4.35,4.35,0,0,0,1.9-1.9,7.72,7.72,0,0,0,.7-2.9c.1-1.1.1-2.4.1-3.7s0-2.5-.1-3.6a9.42,9.42,0,0,0-.7-3,4.38,4.38,0,0,0-1.8-2,6.78,6.78,0,0,0-3.5-.7h-4v18.5Z" style="fill:#f9c7e4"/><polygon points="253.9 778.2 277 778.2 277 785.5 261.6 785.5 261.6 801.4 275 801.4 275 808.7 261.6 808.7 261.6 824.6 277 824.6 277 832.4 253.9 832.4 253.9 778.2" style="fill:#f9c7e4"/><path d="M282,778.2h12.5c9.1,0,13.7,5.3,13.7,15.9a20.19,20.19,0,0,1-1.5,8.1,10.88,10.88,0,0,1-5.2,5.4l8.4,24.7h-8.2l-7.2-23.1h-4.6v23.1H282Zm7.8,24.2h4.4a7.48,7.48,0,0,0,3.3-.6,4.94,4.94,0,0,0,1.9-1.6,8.81,8.81,0,0,0,.9-2.6,19.44,19.44,0,0,0,.2-3.6,35.29,35.29,0,0,0-.2-3.6,7.94,7.94,0,0,0-1-2.7,4.47,4.47,0,0,0-2-1.6,8.42,8.42,0,0,0-3.4-.5h-4v16.8Z" style="fill:#f9c7e4"/><path d="M328.5,778.2h11.6a18.9,18.9,0,0,1,5.6.8,10.52,10.52,0,0,1,4.4,3,11.61,11.61,0,0,1,2.7,5,31.29,31.29,0,0,1,.8,7.7,35.9,35.9,0,0,1-.4,6.1,14,14,0,0,1-1.8,4.8,10.58,10.58,0,0,1-4.3,4.1,14.25,14.25,0,0,1-7,1.5h-4v21.1h-7.8V778.2Zm7.8,25.7H340a7,7,0,0,0,3.6-.7,4.35,4.35,0,0,0,1.9-1.9,7.72,7.72,0,0,0,.7-2.9c.1-1.1.1-2.4.1-3.7s0-2.5-.1-3.6a9.42,9.42,0,0,0-.7-3,4.38,4.38,0,0,0-1.8-2,6.78,6.78,0,0,0-3.5-.7h-4v18.5Z" style="fill:#f9c7e4"/><path d="M384.5,820.1a11.31,11.31,0,0,1-1,4.9,15.64,15.64,0,0,1-2.7,4,14.08,14.08,0,0,1-4,2.7,11.31,11.31,0,0,1-4.9,1,11.94,11.94,0,0,1-4.9-1,12.67,12.67,0,0,1-6.7-6.7,11.62,11.62,0,0,1-1-4.9v-42h7.8v41.2a6.17,6.17,0,0,0,1.4,4.3,4.39,4.39,0,0,0,3.4,1.4,4.76,4.76,0,0,0,3.4-1.4,5.84,5.84,0,0,0,1.4-4.3V778.1h7.8Z" style="fill:#f9c7e4"/><path d="M391.8,778.2h11.3a16.54,16.54,0,0,1,6.3,1.1,13.76,13.76,0,0,1,4.3,3,11.79,11.79,0,0,1,2.4,4.4,17.45,17.45,0,0,1,.7,5.1v2a19,19,0,0,1-.3,3.7,10.79,10.79,0,0,1-1,2.7,8.2,8.2,0,0,1-1.7,2,13.36,13.36,0,0,1-2.3,1.6,8.23,8.23,0,0,1,4,3.8,14.72,14.72,0,0,1,1.3,6.8v3c0,4.8-1.2,8.4-3.5,10.9s-6,3.8-11.1,3.8H391.6V778.2Zm7.8,22.2h3.5c2.6,0,4.3-.6,5.2-1.9a10,10,0,0,0,1.3-5.7,8.59,8.59,0,0,0-1.5-5.5q-1.5-1.8-5.4-1.8h-3.2v14.9Zm0,24.2h3.3a7.62,7.62,0,0,0,3.7-.7,4.61,4.61,0,0,0,2-1.9,6.56,6.56,0,0,0,.8-2.9c.1-1.1.2-2.3.2-3.6a35.29,35.29,0,0,0-.2-3.6,5.71,5.71,0,0,0-1-2.5,5.26,5.26,0,0,0-2-1.6,8.42,8.42,0,0,0-3.4-.5h-3.4Z" style="fill:#f9c7e4"/><polygon points="424.2 778.2 432 778.2 432 824.6 447.4 824.6 447.4 832.4 424.3 832.4 424.3 778.2 424.2 778.2" style="fill:#f9c7e4"/><rect x="452.6" y="778.2" width="7.8" height="54.1" style="fill:#f9c7e4"/><path d="M492.9,793.8h-7.8V792a7.78,7.78,0,0,0-1.3-4.6,4.61,4.61,0,0,0-4.2-1.9,5,5,0,0,0-2.6.6,4.1,4.1,0,0,0-1.6,1.6,7.16,7.16,0,0,0-.8,2.2,11,11,0,0,0-.2,2.6,21,21,0,0,0,.1,2.7,5.31,5.31,0,0,0,.6,1.9,4.27,4.27,0,0,0,1.3,1.4,13.32,13.32,0,0,0,2.4,1.2l5.9,2.4a16.5,16.5,0,0,1,4.2,2.3,9.26,9.26,0,0,1,2.5,3.1,13.07,13.07,0,0,1,1.2,4.1,41.06,41.06,0,0,1,.3,5.3,24.81,24.81,0,0,1-.7,6.3,14.32,14.32,0,0,1-2.2,5,10.35,10.35,0,0,1-4.1,3.3,14.75,14.75,0,0,1-6.3,1.2,12.69,12.69,0,0,1-5.2-1,15.13,15.13,0,0,1-4.2-2.7,12,12,0,0,1-2.8-4.1,12.55,12.55,0,0,1-1-5.1V817h7.8v2.4a5.85,5.85,0,0,0,1.3,3.8c.8,1.1,2.2,1.7,4.2,1.7a6.84,6.84,0,0,0,3.1-.6,4.36,4.36,0,0,0,1.7-1.6,6.12,6.12,0,0,0,.7-2.5,32.51,32.51,0,0,0,.2-3.3,31.58,31.58,0,0,0-.2-3.5,6.39,6.39,0,0,0-.6-2.2,3.76,3.76,0,0,0-1.4-1.4,16.66,16.66,0,0,0-2.3-1.1l-5.5-2.3c-3.3-1.4-5.6-3.2-6.7-5.4a19.49,19.49,0,0,1-1.7-8.5,22,22,0,0,1,.8-5.8,14.08,14.08,0,0,1,2.5-4.7,13,13,0,0,1,4.1-3.2,13.51,13.51,0,0,1,5.9-1.2,13.22,13.22,0,0,1,5.3,1.1,12,12,0,0,1,4.1,2.8,14,14,0,0,1,2.6,3.9,11.17,11.17,0,0,1,.9,4.4v4Z" style="fill:#f9c7e4"/><polygon points="498.7 778.2 506.5 778.2 506.5 801.4 516.1 801.4 516.1 778.2 523.9 778.2 523.9 832.3 516 832.3 516 808.2 506.4 808.2 506.4 832.3 498.6 832.3 498.6 778.2 498.7 778.2" style="fill:#f9c7e4"/><polygon points="531.1 778.2 554.2 778.2 554.2 785.5 538.8 785.5 538.8 801.4 552.2 801.4 552.2 808.7 538.8 808.7 538.8 824.6 554.2 824.6 554.2 832.4 531.1 832.4 531.1 778.2" style="fill:#f9c7e4"/><path d="M559.2,778.2h11.5c4.4,0,7.8,1.2,10.1,3.7s3.5,5.9,3.5,10.3v25.3c0,5.1-1.2,8.8-3.7,11.2s-6,3.6-10.6,3.6H559.2Zm7.7,46.8h3.6c2.2,0,3.7-.5,4.6-1.6a8,8,0,0,0,1.4-5.1V792.2a7.73,7.73,0,0,0-1.3-4.9c-.9-1.2-2.4-1.7-4.7-1.7h-3.6Z" style="fill:#f9c7e4"/><path d="M158.6,497.1h-7.8v-1.7a7.78,7.78,0,0,0-1.3-4.6,4.61,4.61,0,0,0-4.2-1.9,5,5,0,0,0-2.6.6,4.1,4.1,0,0,0-1.6,1.6,7.16,7.16,0,0,0-.8,2.2,11,11,0,0,0-.2,2.6,21,21,0,0,0,.1,2.7,5.31,5.31,0,0,0,.6,1.9,4.27,4.27,0,0,0,1.3,1.4,13.32,13.32,0,0,0,2.4,1.2l5.9,2.4a16.5,16.5,0,0,1,4.2,2.3,9.26,9.26,0,0,1,2.5,3.1,13.07,13.07,0,0,1,1.2,4.1,41.06,41.06,0,0,1,.3,5.3,24.81,24.81,0,0,1-.7,6.3,14.32,14.32,0,0,1-2.2,5,10.35,10.35,0,0,1-4.1,3.3,14.75,14.75,0,0,1-6.3,1.2,12.69,12.69,0,0,1-5.2-1,15.13,15.13,0,0,1-4.2-2.7,12,12,0,0,1-2.8-4.1,12.55,12.55,0,0,1-1-5.1v-2.9h7.8v2.4a5.85,5.85,0,0,0,1.3,3.8c.8,1.1,2.2,1.7,4.2,1.7a6.84,6.84,0,0,0,3.1-.6,4.36,4.36,0,0,0,1.7-1.6,6.12,6.12,0,0,0,.7-2.5,32.51,32.51,0,0,0,.2-3.3,31.58,31.58,0,0,0-.2-3.5,6.39,6.39,0,0,0-.6-2.2,3.76,3.76,0,0,0-1.4-1.4,16.66,16.66,0,0,0-2.3-1.1l-5.5-2.3c-3.3-1.4-5.6-3.2-6.7-5.4a19.49,19.49,0,0,1-1.7-8.5,22,22,0,0,1,.8-5.8,14.08,14.08,0,0,1,2.5-4.7,13,13,0,0,1,4.1-3.2,13.51,13.51,0,0,1,5.9-1.2,13.22,13.22,0,0,1,5.3,1.1,12,12,0,0,1,4.1,2.8,14,14,0,0,1,2.6,3.9,11.17,11.17,0,0,1,.9,4.4v4Z" style="fill:#f9c7e4"/><polygon points="164.4 481.5 187.5 481.5 187.5 488.8 172.1 488.8 172.1 504.7 185.5 504.7 185.5 512 172.1 512 172.1 527.9 187.5 527.9 187.5 535.7 164.4 535.7 164.4 481.5" style="fill:#f9c7e4"/><polygon points="192.5 481.5 199.9 481.5 209.9 510.2 210.1 510.2 220 481.5 227.5 481.5 227.5 535.6 219.7 535.6 219.7 502.7 219.5 502.7 211.8 526 208 526 200.4 502.7 200.2 502.7 200.2 535.6 192.4 535.6 192.4 481.5 192.5 481.5" style="fill:#f9c7e4"/><polygon points="250 535.7 243.2 535.7 232.2 481.6 240.4 481.6 246.6 519.4 246.8 519.4 253 481.6 261.2 481.6 250 535.7" style="fill:#f9c7e4"/><polygon points="265.7 481.5 288.8 481.5 288.8 488.8 273.4 488.8 273.4 504.7 286.8 504.7 286.8 512 273.4 512 273.4 527.9 288.8 527.9 288.8 535.7 265.7 535.7 265.7 481.5" style="fill:#f9c7e4"/><path d="M293.8,481.5h12.5c9.1,0,13.7,5.3,13.7,15.9a20.19,20.19,0,0,1-1.5,8.1,10.88,10.88,0,0,1-5.2,5.4l8.4,24.7h-8.2l-7.2-23.1h-4.6v23.1h-7.8V481.5Zm7.8,24.2H306a7.48,7.48,0,0,0,3.3-.6,4.94,4.94,0,0,0,1.9-1.6,8.81,8.81,0,0,0,.9-2.6,19.44,19.44,0,0,0,.2-3.6,35.29,35.29,0,0,0-.2-3.6,7.94,7.94,0,0,0-1-2.7,4.47,4.47,0,0,0-2-1.6,8.42,8.42,0,0,0-3.4-.5h-4v16.8Z" style="fill:#f9c7e4"/><path d="M340.3,481.5h11.3a16.54,16.54,0,0,1,6.3,1.1,13.76,13.76,0,0,1,4.3,3,11.79,11.79,0,0,1,2.4,4.4,17.45,17.45,0,0,1,.7,5.1v2a19,19,0,0,1-.3,3.7,10.79,10.79,0,0,1-1,2.7,8.2,8.2,0,0,1-1.7,2,13.36,13.36,0,0,1-2.3,1.6,8.23,8.23,0,0,1,4,3.8,14.72,14.72,0,0,1,1.3,6.8v3c0,4.8-1.2,8.4-3.5,10.9s-6,3.8-11.1,3.8H340.1V481.5Zm7.8,22.2h3.5c2.6,0,4.3-.6,5.2-1.9a10,10,0,0,0,1.3-5.7,8.59,8.59,0,0,0-1.5-5.5q-1.5-1.8-5.4-1.8H348v14.9Zm0,24.2h3.3a7.62,7.62,0,0,0,3.7-.7,4.61,4.61,0,0,0,2-1.9,6.56,6.56,0,0,0,.8-2.9c.1-1.1.2-2.3.2-3.6a35.29,35.29,0,0,0-.2-3.6,5.71,5.71,0,0,0-1-2.5,5.26,5.26,0,0,0-2-1.6,8.42,8.42,0,0,0-3.4-.5h-3.4Z" style="fill:#f9c7e4"/><path d="M397.8,523.5a11.31,11.31,0,0,1-1,4.9,15.64,15.64,0,0,1-2.7,4,14.08,14.08,0,0,1-4,2.7,11.31,11.31,0,0,1-4.9,1,11.94,11.94,0,0,1-4.9-1,12.67,12.67,0,0,1-6.7-6.7,11.62,11.62,0,0,1-1-4.9v-42h7.8v41.2a6.17,6.17,0,0,0,1.4,4.3,4.39,4.39,0,0,0,3.4,1.4,4.76,4.76,0,0,0,3.4-1.4,5.84,5.84,0,0,0,1.4-4.3V481.5h7.8Z" style="fill:#f9c7e4"/><polygon points="405.1 481.5 412.5 481.5 422.5 510.2 422.7 510.2 432.6 481.5 440.1 481.5 440.1 535.6 432.3 535.6 432.3 502.7 432.1 502.7 424.4 526 420.5 526 412.9 502.7 412.7 502.7 412.7 535.6 404.9 535.6 404.9 481.5 405.1 481.5" style="fill:#f9c7e4"/><path d="M447.3,481.5H459a18.9,18.9,0,0,1,5.6.8,10.52,10.52,0,0,1,4.4,3,11.61,11.61,0,0,1,2.7,5,31.29,31.29,0,0,1,.8,7.7,35.9,35.9,0,0,1-.4,6.1,14,14,0,0,1-1.8,4.8A10.58,10.58,0,0,1,466,513a14.25,14.25,0,0,1-7,1.5h-4v21.1h-7.8V481.5Zm7.8,25.7h3.7a7,7,0,0,0,3.6-.7,4.35,4.35,0,0,0,1.9-1.9,7.72,7.72,0,0,0,.7-2.9c.1-1.1.1-2.4.1-3.7s0-2.5-.1-3.6a9.42,9.42,0,0,0-.7-3,4.38,4.38,0,0,0-1.8-2,6.78,6.78,0,0,0-3.5-.7h-4v18.5Z" style="fill:#f9c7e4"/><path d="M513,531.6a15.13,15.13,0,0,1-4.8,3.4,12.46,12.46,0,0,1-5.6,1.1,10.36,10.36,0,0,1-4.3-.9,11.6,11.6,0,0,1-3.6-2.5,12.18,12.18,0,0,1-2.4-4,14,14,0,0,1-.9-5.1,14.22,14.22,0,0,1,2.1-7.8,30.63,30.63,0,0,1,5.3-6.2,29.81,29.81,0,0,1-3.4-6,16.06,16.06,0,0,1-1.3-6.5,11.41,11.41,0,0,1,.7-4.1,9.13,9.13,0,0,1,2-3.3,9.55,9.55,0,0,1,3.3-2.2,13,13,0,0,1,4.6-.8,11.91,11.91,0,0,1,4.4.8,8.92,8.92,0,0,1,3.2,2.1,9.19,9.19,0,0,1,2,3.1,9.52,9.52,0,0,1,.7,3.8,12.72,12.72,0,0,1-2.4,7.3,36.56,36.56,0,0,1-5.5,6.3c1,1.5,2.1,3.2,3.3,5.3s2.5,4.1,3.8,6l4.2-5.7,4.8,3.3-5.8,7.4,5.9,9.3h-7.8Zm-14.7-8.4a7.14,7.14,0,0,0,1.6,4.8,5.26,5.26,0,0,0,4.1,2,5.68,5.68,0,0,0,3.3-1.1,8.7,8.7,0,0,0,2.4-2.2l-7.4-11.9a17.42,17.42,0,0,0-2.9,3.8A10.07,10.07,0,0,0,498.3,523.2Zm2.8-26a11.27,11.27,0,0,0,.8,3.8c.6,1.3,1.3,2.7,2.1,4.1.5-.5,1-1,1.5-1.6a9,9,0,0,0,1.5-1.9,9.73,9.73,0,0,0,1.1-2.3,7.63,7.63,0,0,0,.5-2.7,4.12,4.12,0,0,0-1-2.7,3.42,3.42,0,0,0-2.7-1.2,3.37,3.37,0,0,0-2.8,1.4A4.8,4.8,0,0,0,501.1,497.2Z" style="fill:#f9c7e4"/><path d="M543.1,481.5h11.6a18.9,18.9,0,0,1,5.6.8,10.52,10.52,0,0,1,4.4,3,11.61,11.61,0,0,1,2.7,5,31.29,31.29,0,0,1,.8,7.7,35.9,35.9,0,0,1-.4,6.1,14,14,0,0,1-1.8,4.8,10.58,10.58,0,0,1-4.3,4.1,14.25,14.25,0,0,1-7,1.5h-4v21.1h-7.8V481.5Zm7.8,25.7h3.7a7,7,0,0,0,3.6-.7,4.35,4.35,0,0,0,1.9-1.9,7.72,7.72,0,0,0,.7-2.9c.1-1.1.1-2.4.1-3.7s0-2.5-.1-3.6a9.42,9.42,0,0,0-.7-3,4.38,4.38,0,0,0-1.8-2,6.78,6.78,0,0,0-3.5-.7h-4v18.5Z" style="fill:#f9c7e4"/><path d="M599.1,523.5a11.31,11.31,0,0,1-1,4.9,15.64,15.64,0,0,1-2.7,4,14.08,14.08,0,0,1-4,2.7,11.31,11.31,0,0,1-4.9,1,11.94,11.94,0,0,1-4.9-1,12.67,12.67,0,0,1-6.7-6.7,11.62,11.62,0,0,1-1-4.9v-42h7.8v41.2a6.17,6.17,0,0,0,1.4,4.3,4.76,4.76,0,0,0,3.4,1.4,4.6,4.6,0,0,0,3.4-1.4,5.84,5.84,0,0,0,1.4-4.3V481.5h7.8Z" style="fill:#f9c7e4"/><path d="M606.4,481.5h11.3a16.54,16.54,0,0,1,6.3,1.1,13.76,13.76,0,0,1,4.3,3,11.79,11.79,0,0,1,2.4,4.4,17.45,17.45,0,0,1,.7,5.1v2a19,19,0,0,1-.3,3.7,10.79,10.79,0,0,1-1,2.7,8.2,8.2,0,0,1-1.7,2,13.36,13.36,0,0,1-2.3,1.6,8.23,8.23,0,0,1,4,3.8,14.72,14.72,0,0,1,1.3,6.8v3c0,4.8-1.2,8.4-3.5,10.9s-6,3.8-11.1,3.8H606.2V481.5Zm7.8,22.2h3.5c2.6,0,4.3-.6,5.2-1.9a10,10,0,0,0,1.3-5.7,8.59,8.59,0,0,0-1.5-5.5q-1.5-1.8-5.4-1.8h-3.2v14.9Zm0,24.2h3.3a7.62,7.62,0,0,0,3.7-.7,4.61,4.61,0,0,0,2-1.9,6.56,6.56,0,0,0,.8-2.9c.1-1.1.2-2.3.2-3.6a35.29,35.29,0,0,0-.2-3.6,5.71,5.71,0,0,0-1-2.5,5.26,5.26,0,0,0-2-1.6,8.42,8.42,0,0,0-3.4-.5h-3.4Z" style="fill:#f9c7e4"/><polygon points="638.8 481.5 646.6 481.5 646.6 527.9 662 527.9 662 535.7 638.9 535.7 638.9 481.5 638.8 481.5" style="fill:#f9c7e4"/><rect x="667.1" y="481.5" width="7.8" height="54.1" style="fill:#f9c7e4"/><path d="M707.5,497.1h-7.8v-1.7a7.78,7.78,0,0,0-1.3-4.6,4.61,4.61,0,0,0-4.2-1.9,5,5,0,0,0-2.6.6,4.1,4.1,0,0,0-1.6,1.6,7.16,7.16,0,0,0-.8,2.2,11,11,0,0,0-.2,2.6,21,21,0,0,0,.1,2.7,5.31,5.31,0,0,0,.6,1.9,4.27,4.27,0,0,0,1.3,1.4,13.32,13.32,0,0,0,2.4,1.2l5.9,2.4a16.5,16.5,0,0,1,4.2,2.3,9.26,9.26,0,0,1,2.5,3.1,13.07,13.07,0,0,1,1.2,4.1,41.06,41.06,0,0,1,.3,5.3,24.81,24.81,0,0,1-.7,6.3,14.32,14.32,0,0,1-2.2,5,10.35,10.35,0,0,1-4.1,3.3,14.75,14.75,0,0,1-6.3,1.2,12.69,12.69,0,0,1-5.2-1,15.13,15.13,0,0,1-4.2-2.7,12,12,0,0,1-2.8-4.1,12.55,12.55,0,0,1-1-5.1v-2.9h7.8v2.4a5.85,5.85,0,0,0,1.3,3.8c.8,1.1,2.2,1.7,4.2,1.7a6.84,6.84,0,0,0,3.1-.6,3.78,3.78,0,0,0,1.7-1.6,6.12,6.12,0,0,0,.7-2.5,32.51,32.51,0,0,0,.2-3.3,31.58,31.58,0,0,0-.2-3.5,6.39,6.39,0,0,0-.6-2.2,3.76,3.76,0,0,0-1.4-1.4,16.66,16.66,0,0,0-2.3-1.1l-5.5-2.3c-3.3-1.4-5.6-3.2-6.7-5.4a19.49,19.49,0,0,1-1.7-8.5,22,22,0,0,1,.8-5.8,14.08,14.08,0,0,1,2.5-4.7,13,13,0,0,1,4.1-3.2,13.51,13.51,0,0,1,5.9-1.2,13.22,13.22,0,0,1,5.3,1.1,12,12,0,0,1,4.1,2.8,14,14,0,0,1,2.6,3.9,11.17,11.17,0,0,1,.9,4.4v4Z" style="fill:#f9c7e4"/><polygon points="713.3 481.5 721.1 481.5 721.1 504.7 730.7 504.7 730.7 481.5 738.5 481.5 738.5 535.6 730.7 535.6 730.7 511.5 721 511.5 721 535.6 713.2 535.6 713.2 481.5 713.3 481.5" style="fill:#f9c7e4"/></svg>