<svg id="Layer_1" data-name="Layer 1" xmlns="http://www.w3.org/2000/svg" viewBox="0 0 900 900"><defs><style>.cls-1{fill:#07448e;}.cls-2{font-size:76px;font-family:DINCondensed-Bold, DIN Condensed;font-weight:700;}.cls-2,.cls-5{fill:#f9c7e4;}.cls-3{letter-spacing:-0.07em;}.cls-4{fill:#f7eec9;}</style></defs><title>1-developer-multiple-packages-ci-savings</title><rect class="cls-1" width="900" height="900"/><text class="cls-2" transform="translate(40 766.11)">1 DEVELOPER, MU<tspan class="cls-3" x="416.78" y="0">L</tspan><tspan x="439.27" y="0">TIPLE </tspan><tspan x="0" y="91.2">DEPENDENCIES, ALL VERIFIED </tspan></text><path class="cls-4" d="M107.59,226.45h-.25a12.84,12.84,0,0,0-1.26-.81q-29.89-14.4-59.81-28.77a1.93,1.93,0,0,1-1.27-2q0-34.59,0-69.18a1.86,1.86,0,0,1,1.27-2q26.92-12.26,53.81-24.58c3.47-1.59,6.9-3.24,10.36-4.86H111c.41.23.8.48,1.23.67Q142.93,109,173.7,123.1a1.86,1.86,0,0,1,1.3,2q-.06,34.54,0,69.08a1.88,1.88,0,0,1-1.32,2q-27.27,12.42-54.53,24.89C115.28,222.83,111.44,224.65,107.59,226.45ZM50.8,126.9c0,.48-.07.81-.07,1.14q0,31.89,0,63.77a1.47,1.47,0,0,0,1,1.56q27.9,13.22,55.78,26.47c.32.15.66.26,1.07.41,0-.43,0-.68,0-.94q0-32.48,0-64.93a1.71,1.71,0,0,0-1.27-1.77Q79.67,140,52.06,127.43C51.68,127.25,51.29,127.11,50.8,126.9Zm63.48,91.19.93-.39q26.58-12.57,53.16-25.12c.87-.4.91-1,.91-1.73q0-30.73,0-61.47v-3.26l-1.41.64c-5,2.44-10,4.89-15,7.3a1.66,1.66,0,0,0-1.11,1.75c0,9.55,0,19.11,0,28.67a1.68,1.68,0,0,1-1,1.7c-5,2.71-10,5.48-15.05,8.23-.32.18-.67.31-1.27.59V143.31c-.64.29-1,.45-1.4.64-5.87,2.88-11.72,5.78-17.61,8.62a1.83,1.83,0,0,0-1.21,1.94q0,29.44,0,58.89Zm-57.1-93.85a3.5,3.5,0,0,0,.45.33Q83.81,136.41,110,148.22a1.59,1.59,0,0,0,1.19.06c6.09-2.88,12.17-5.79,18.31-8.73a3.29,3.29,0,0,0-.48-.36q-25.31-11.9-50.62-23.77a1.63,1.63,0,0,0-1.19,0C70.58,118.3,64,121.24,57.18,124.24Zm105.31-.47c-.46-.25-.78-.45-1.12-.6q-24.84-11.34-49.71-22.66a2.6,2.6,0,0,0-1.9,0c-4.36,1.92-8.68,3.93-13,5.92-.31.14-.6.34-.93.53l.2.15q26.05,11.47,52.12,22.95a1.47,1.47,0,0,0,1.07,0C153.59,128,158,125.94,162.49,123.77Z"/><path class="cls-4" d="M274.34,226.45h-.25a12.84,12.84,0,0,0-1.26-.81q-29.89-14.4-59.81-28.77a1.93,1.93,0,0,1-1.27-2q0-34.59,0-69.18a1.86,1.86,0,0,1,1.27-2q26.92-12.26,53.81-24.58c3.47-1.59,6.9-3.24,10.36-4.86h.51c.41.23.8.48,1.23.67Q309.68,109,340.45,123.1a1.86,1.86,0,0,1,1.3,2q-.06,34.54,0,69.08a1.88,1.88,0,0,1-1.32,2q-27.27,12.42-54.53,24.89C282,222.83,278.19,224.65,274.34,226.45ZM217.55,126.9c0,.48-.07.81-.07,1.14q0,31.89,0,63.77a1.47,1.47,0,0,0,1,1.56q27.9,13.22,55.78,26.47c.32.15.66.26,1.07.41,0-.43,0-.68,0-.94q0-32.48,0-64.93a1.71,1.71,0,0,0-1.27-1.77Q246.42,140,218.81,127.43C218.43,127.25,218,127.11,217.55,126.9ZM281,218.09l.93-.39q26.58-12.57,53.16-25.12c.87-.4.91-1,.91-1.73q0-30.73,0-61.47v-3.26l-1.41.64c-5,2.44-10,4.89-14.95,7.3a1.66,1.66,0,0,0-1.11,1.75c0,9.55,0,19.11,0,28.67a1.68,1.68,0,0,1-1,1.7c-5,2.71-10,5.48-15,8.23-.32.18-.67.31-1.27.59V143.31c-.64.29-1,.45-1.4.64-5.87,2.88-11.72,5.78-17.61,8.62a1.83,1.83,0,0,0-1.21,1.94q0,29.44,0,58.89Zm-57.1-93.85a3.5,3.5,0,0,0,.45.33q26.18,11.84,52.38,23.65a1.59,1.59,0,0,0,1.19.06c6.09-2.88,12.17-5.79,18.31-8.73a3.29,3.29,0,0,0-.48-.36q-25.3-11.9-50.62-23.77a1.63,1.63,0,0,0-1.19,0C237.33,118.3,230.7,121.24,223.93,124.24Zm105.31-.47c-.46-.25-.78-.45-1.12-.6q-24.84-11.34-49.71-22.66a2.6,2.6,0,0,0-1.9,0c-4.36,1.92-8.68,3.93-13,5.92-.31.14-.6.34-.93.53l.2.15q26.06,11.47,52.12,22.95a1.47,1.47,0,0,0,1.07,0C320.34,128,324.71,125.94,329.24,123.77Z"/><path class="cls-4" d="M441.09,226.45h-.25a12.84,12.84,0,0,0-1.26-.81q-29.9-14.4-59.81-28.77a1.93,1.93,0,0,1-1.27-2q0-34.59,0-69.18a1.86,1.86,0,0,1,1.27-2q26.93-12.26,53.81-24.58c3.47-1.59,6.9-3.24,10.36-4.86h.51c.41.23.8.48,1.23.67Q476.43,109,507.2,123.1a1.86,1.86,0,0,1,1.3,2q-.06,34.54,0,69.08a1.88,1.88,0,0,1-1.32,2q-27.27,12.42-54.53,24.89C448.78,222.83,444.94,224.65,441.09,226.45ZM384.3,126.9c0,.48-.07.81-.07,1.14q0,31.89,0,63.77a1.47,1.47,0,0,0,1,1.56q27.9,13.22,55.78,26.47c.32.15.66.26,1.07.41,0-.43,0-.68,0-.94q0-32.48,0-64.93a1.71,1.71,0,0,0-1.27-1.77Q413.17,140,385.56,127.43C385.18,127.25,384.79,127.11,384.3,126.9Zm63.48,91.19.93-.39q26.58-12.57,53.16-25.12c.87-.4.91-1,.91-1.73q0-30.73,0-61.47v-3.26l-1.41.64c-5,2.44-10,4.89-14.95,7.3a1.66,1.66,0,0,0-1.11,1.75c0,9.55,0,19.11,0,28.67a1.68,1.68,0,0,1-1,1.7c-5,2.71-10,5.48-15,8.23-.32.18-.67.31-1.27.59V143.31c-.64.29-1,.45-1.4.64-5.87,2.88-11.72,5.78-17.61,8.62a1.83,1.83,0,0,0-1.21,1.94q0,29.44,0,58.89Zm-57.1-93.85a3.5,3.5,0,0,0,.45.33q26.17,11.84,52.38,23.65a1.59,1.59,0,0,0,1.19.06c6.09-2.88,12.17-5.79,18.31-8.73a3.29,3.29,0,0,0-.48-.36q-25.3-11.9-50.62-23.77a1.63,1.63,0,0,0-1.19,0C404.08,118.3,397.45,121.24,390.68,124.24ZM496,123.77c-.46-.25-.78-.45-1.12-.6Q470,111.83,445.16,100.51a2.6,2.6,0,0,0-1.9,0c-4.36,1.92-8.68,3.93-13,5.92-.31.14-.6.34-.93.53l.2.15q26.06,11.47,52.12,22.95a1.47,1.47,0,0,0,1.07,0C487.09,128,491.46,125.94,496,123.77Z"/><path class="cls-4" d="M607.84,226.45h-.25a12.84,12.84,0,0,0-1.26-.81q-29.9-14.4-59.81-28.77a1.93,1.93,0,0,1-1.27-2q0-34.59,0-69.18a1.86,1.86,0,0,1,1.27-2q26.93-12.26,53.81-24.58c3.47-1.59,6.9-3.24,10.36-4.86h.51c.41.23.8.48,1.23.67Q643.18,109,674,123.1a1.86,1.86,0,0,1,1.3,2q-.06,34.54,0,69.08a1.88,1.88,0,0,1-1.32,2q-27.27,12.42-54.53,24.89C615.53,222.83,611.69,224.65,607.84,226.45ZM551.05,126.9c0,.48-.07.81-.07,1.14q0,31.89,0,63.77a1.47,1.47,0,0,0,1,1.56q27.9,13.22,55.78,26.47c.32.15.66.26,1.07.41,0-.43,0-.68,0-.94q0-32.48,0-64.93a1.71,1.71,0,0,0-1.27-1.77Q579.92,140,552.31,127.43C551.93,127.25,551.54,127.11,551.05,126.9Zm63.48,91.19.93-.39q26.58-12.57,53.16-25.12c.87-.4.91-1,.91-1.73q0-30.73,0-61.47v-3.26l-1.41.64c-5,2.44-10,4.89-15,7.3a1.66,1.66,0,0,0-1.11,1.75c0,9.55,0,19.11,0,28.67a1.68,1.68,0,0,1-1,1.7c-5,2.71-10,5.48-15.05,8.23-.32.18-.67.31-1.27.59V143.31c-.64.29-1,.45-1.4.64-5.87,2.88-11.72,5.78-17.61,8.62a1.83,1.83,0,0,0-1.21,1.94q0,29.44,0,58.89Zm-57.1-93.85a3.5,3.5,0,0,0,.45.33q26.18,11.84,52.38,23.65a1.59,1.59,0,0,0,1.19.06c6.09-2.88,12.17-5.79,18.31-8.73a3.29,3.29,0,0,0-.48-.36q-25.31-11.9-50.62-23.77a1.63,1.63,0,0,0-1.19,0C570.83,118.3,564.2,121.24,557.43,124.24Zm105.31-.47c-.46-.25-.78-.45-1.12-.6q-24.84-11.34-49.71-22.66a2.6,2.6,0,0,0-1.9,0c-4.36,1.92-8.68,3.93-13,5.92-.31.14-.6.34-.93.53l.2.15q26.06,11.47,52.12,22.95a1.47,1.47,0,0,0,1.07,0C653.84,128,658.21,125.94,662.74,123.77Z"/><path class="cls-4" d="M774.59,226.45h-.25a12.84,12.84,0,0,0-1.26-.81q-29.9-14.4-59.81-28.77a1.93,1.93,0,0,1-1.27-2q0-34.59,0-69.18a1.86,1.86,0,0,1,1.27-2q26.93-12.26,53.81-24.58c3.47-1.59,6.9-3.24,10.36-4.86H778c.41.23.8.48,1.23.67Q809.93,109,840.7,123.1a1.86,1.86,0,0,1,1.3,2q-.06,34.54,0,69.08a1.88,1.88,0,0,1-1.32,2q-27.27,12.42-54.53,24.89C782.28,222.83,778.44,224.65,774.59,226.45ZM717.8,126.9c0,.48-.07.81-.07,1.14q0,31.89,0,63.77a1.47,1.47,0,0,0,1,1.56q27.9,13.22,55.78,26.47c.32.15.66.26,1.07.41,0-.43,0-.68,0-.94q0-32.48,0-64.93a1.71,1.71,0,0,0-1.27-1.77Q746.67,140,719.06,127.43C718.68,127.25,718.29,127.11,717.8,126.9Zm63.48,91.19.93-.39q26.58-12.57,53.16-25.12c.87-.4.91-1,.91-1.73q0-30.73,0-61.47v-3.26l-1.41.64c-5,2.44-10,4.89-15,7.3a1.66,1.66,0,0,0-1.11,1.75c0,9.55,0,19.11,0,28.67a1.68,1.68,0,0,1-1,1.7c-5,2.71-10,5.48-15.05,8.23-.32.18-.67.31-1.27.59V143.31c-.64.29-1,.45-1.4.64-5.87,2.88-11.72,5.78-17.61,8.62a1.83,1.83,0,0,0-1.21,1.94q0,29.44,0,58.89Zm-57.1-93.85a3.5,3.5,0,0,0,.45.33q26.18,11.84,52.38,23.65a1.59,1.59,0,0,0,1.19.06c6.09-2.88,12.17-5.79,18.31-8.73a3.29,3.29,0,0,0-.48-.36q-25.31-11.9-50.62-23.77a1.63,1.63,0,0,0-1.19,0C737.58,118.3,731,121.24,724.18,124.24Zm105.31-.47c-.46-.25-.78-.45-1.12-.6q-24.84-11.34-49.71-22.66a2.6,2.6,0,0,0-1.9,0c-4.36,1.92-8.68,3.93-13,5.92-.31.14-.6.34-.93.53l.2.15q26.06,11.47,52.12,22.95a1.47,1.47,0,0,0,1.07,0C820.59,128,825,125.94,829.49,123.77Z"/><path class="cls-4" d="M515,526H349.44c.72-15.83,14.31-32.73,29.46-36.3,4.09-1,5.66-4,6.08-7.13a192.49,192.49,0,0,0,2.15-26.13c0-10.15-1.78-20.29-1.78-30.44A64.56,64.56,0,0,1,392,397.25c7.5-15.25,19.66-23.11,36.85-22.71,4.32.1,8.71-.23,13,.37,14,2,23.79,9.91,29.56,22.6,6.91,15.18,8.06,31.11,5.69,47.53-1.61,11.21-2.26,22.54.15,33.76a29.56,29.56,0,0,0,2.91,7.78,6.24,6.24,0,0,0,3.77,2.81c11.26,2.15,18.68,9.12,23.66,18.88C510.35,513.8,512.39,519.72,515,526Zm-47.59-94.4c-2.87,5.52-6.13,2.92-9.48,1.18q-19.32-10-38.7-19.92c-5.37-2.76-10.61-2.32-14.23,2.5-2.91,3.89-4.45,8.82-6.57,13.29-.51,1.09-.61,2.61-1.43,3.26-4.58,3.63-3.69,14.55,1.44,17.51a6.85,6.85,0,0,1,2.77,3c3.16,7.55,7.26,14.46,13.28,20.1,10.89,10.2,23.42,10.29,34.4.21,6.07-5.59,10.22-12.48,13.33-20.06.45-1.1.94-2.47,1.84-3.06A12.9,12.9,0,0,0,467.41,431.6Zm-66,56.34c2.32,7.47,17.21,15.34,30.19,15.34s27.73-7.82,30.23-15.44l-8.53-9.39c-13.47,11.59-27.14,13.73-43.09,0Z"/><rect class="cls-5" x="40" y="641" width="815" height="13"/><polygon class="cls-5" points="90 280 77 295 104 319 158 255 137 255 105 294 90 280"/><polygon class="cls-5" points="256.75 280 243.75 295 270.75 319 324.75 255 303.75 255 271.75 294 256.75 280"/><polygon class="cls-5" points="423.5 280 410.5 295 437.5 319 491.5 255 470.5 255 438.5 294 423.5 280"/><polygon class="cls-5" points="590.25 280 577.25 295 604.25 319 658.25 255 637.25 255 605.25 294 590.25 280"/><polygon class="cls-5" points="757 280 744 295 771 319 825 255 804 255 772 294 757 280"/></svg>