<svg id="df47e06d-13fa-46d9-be02-56c135b78099" data-name="Layer 1" xmlns="http://www.w3.org/2000/svg" viewBox="0 0 900 900"><title>1-developer-multiple-packages</title><rect width="900" height="900" style="fill:#07448e"/><path d="M51.78,720.21,44,725.91V717.7l7.75-5.7h7.75v54.11H51.78Z" style="fill:#f9c7e4"/><path d="M86.05,712H97.53q6.61,0,10.11,3.69c2.33,2.45,3.49,5.89,3.49,10.29v25.31q0,7.61-3.68,11.21t-10.6,3.61H86.05Zm7.76,46.82h3.57q3.27,0,4.63-1.64c.92-1.09,1.37-2.8,1.37-5.13V726a8.22,8.22,0,0,0-1.29-4.94c-.86-1.16-2.43-1.75-4.71-1.75H93.81Z" style="fill:#f9c7e4"/><path d="M118.43,712h23.1v7.29H126.18v15.89h13.38v7.29H126.18v15.89h15.35v7.75h-23.1Z" style="fill:#f9c7e4"/><path d="M161.75,766.11h-6.84l-11-54.11h8.21l6.15,37.77h.16L164.64,712h8.21Z" style="fill:#f9c7e4"/><path d="M177.48,712h23.11v7.29H185.23v15.89h13.38v7.29H185.23v15.89h15.36v7.75H177.48Z" style="fill:#f9c7e4"/><path d="M205.6,712h7.75v46.36h15.36v7.75H205.6Z" style="fill:#f9c7e4"/><path d="M233.26,724.77A13.83,13.83,0,0,1,234.4,719a12,12,0,0,1,3-4.14,12.91,12.91,0,0,1,4.18-2.47,13.4,13.4,0,0,1,9.34,0,12.91,12.91,0,0,1,4.18,2.47,12,12,0,0,1,3,4.14,13.83,13.83,0,0,1,1.14,5.78v28.57a13.8,13.8,0,0,1-1.14,5.82,12.1,12.1,0,0,1-3,4.1,12.91,12.91,0,0,1-4.18,2.47,13.4,13.4,0,0,1-9.34,0,12.91,12.91,0,0,1-4.18-2.47,12.1,12.1,0,0,1-3-4.1,13.8,13.8,0,0,1-1.14-5.82ZM241,753.34a5.19,5.19,0,0,0,1.55,4.15,5.78,5.78,0,0,0,7.38,0,5.19,5.19,0,0,0,1.55-4.15V724.77a5.19,5.19,0,0,0-1.55-4.15,5.78,5.78,0,0,0-7.38,0,5.19,5.19,0,0,0-1.55,4.15Z" style="fill:#f9c7e4"/><path d="M266.1,712h11.62a17.23,17.23,0,0,1,5.63.84,10.73,10.73,0,0,1,4.41,3,11.6,11.6,0,0,1,2.73,5,31,31,0,0,1,.76,7.71,38.3,38.3,0,0,1-.42,6.12,12.74,12.74,0,0,1-1.78,4.75,11.43,11.43,0,0,1-4.26,4.14,14.28,14.28,0,0,1-7,1.48h-3.95v21.13H266.1Zm7.75,25.69h3.72a7.87,7.87,0,0,0,3.65-.69,4.33,4.33,0,0,0,1.9-1.86,7,7,0,0,0,.72-2.85q.12-1.66.12-3.72c0-1.27,0-2.47-.12-3.61a8.43,8.43,0,0,0-.68-3,4.37,4.37,0,0,0-1.79-2,6.9,6.9,0,0,0-3.49-.73h-4Z" style="fill:#f9c7e4"/><path d="M297,712h23.1v7.29H304.78v15.89h13.38v7.29H304.78v15.89h15.35v7.75H297Z" style="fill:#f9c7e4"/><path d="M325.15,712h12.46q13.68,0,13.68,15.88a20.07,20.07,0,0,1-1.48,8.1,11.46,11.46,0,0,1-5.21,5.43l8.36,24.7h-8.2L337.54,743H332.9v23.1h-7.75Zm7.75,24.17h4.41a7.83,7.83,0,0,0,3.27-.57,4.2,4.2,0,0,0,1.86-1.64,6.92,6.92,0,0,0,.87-2.62,28.45,28.45,0,0,0,0-7.22,6.52,6.52,0,0,0-.95-2.66,4.28,4.28,0,0,0-2-1.63,9,9,0,0,0-3.42-.54h-4Z" style="fill:#f9c7e4"/><path d="M357.07,758.36h7.75v7.75l-7.75,5.63Z" style="fill:#f9c7e4"/><path d="M385.79,712h7.45l10,28.65h.15L413.23,712h7.52v54.11H413V733.2h-.15l-7.68,23.26H401.3l-7.6-23.26h-.15v32.91h-7.76Z" style="fill:#f9c7e4"/><path d="M453.13,754a12.25,12.25,0,0,1-1,4.94,12.72,12.72,0,0,1-6.69,6.69,12.42,12.42,0,0,1-9.72,0,12.72,12.72,0,0,1-6.69-6.69,12.25,12.25,0,0,1-1-4.94V712h7.75v41.19a5.81,5.81,0,0,0,1.37,4.26,5,5,0,0,0,6.84,0,5.81,5.81,0,0,0,1.37-4.26V712h7.75Z" style="fill:#f9c7e4"/><path d="M460.42,712h7.76v46.36h15.35v7.75H460.42Z" style="fill:#f9c7e4"/><path d="M488,719.29h-9V712h25.69v7.29h-9v46.82H488Z" style="fill:#f9c7e4"/><path d="M508.38,712h7.75v54.11h-7.75Z" style="fill:#f9c7e4"/><path d="M523.66,712h11.62a17.23,17.23,0,0,1,5.63.84,10.73,10.73,0,0,1,4.41,3,11.71,11.71,0,0,1,2.73,5,31,31,0,0,1,.76,7.71,38.3,38.3,0,0,1-.42,6.12,12.74,12.74,0,0,1-1.78,4.75,11.43,11.43,0,0,1-4.26,4.14,14.28,14.28,0,0,1-7,1.48h-4v21.13h-7.75Zm7.75,25.69h3.72a7.87,7.87,0,0,0,3.65-.69,4.33,4.33,0,0,0,1.9-1.86,7.19,7.19,0,0,0,.72-2.85q.12-1.66.12-3.72c0-1.27,0-2.47-.12-3.61a8.43,8.43,0,0,0-.68-3,4.37,4.37,0,0,0-1.79-2,6.9,6.9,0,0,0-3.49-.73h-4Z" style="fill:#f9c7e4"/><path d="M554.59,712h7.75v46.36h15.35v7.75h-23.1Z" style="fill:#f9c7e4"/><path d="M582.71,712h23.1v7.29H590.46v15.89h13.37v7.29H590.46v15.89h15.35v7.75h-23.1Z" style="fill:#f9c7e4"/><path d="M43.65,803.2H55.12q6.62,0,10.11,3.69c2.33,2.45,3.5,5.89,3.5,10.29v25.31q0,7.6-3.69,11.21t-10.6,3.61H43.65ZM51.4,850H55q3.27,0,4.64-1.64T61,843.25V817.18a8.22,8.22,0,0,0-1.3-4.94Q58.39,810.5,55,810.5H51.4Z" style="fill:#f9c7e4"/><path d="M76,803.2H99.13v7.3H83.78v15.88H97.15v7.3H83.78v15.88H99.13v7.75H76Z" style="fill:#f9c7e4"/><path d="M104.14,803.2h11.63a17.28,17.28,0,0,1,5.63.84,10.7,10.7,0,0,1,4.4,3,11.62,11.62,0,0,1,2.74,5,31.44,31.44,0,0,1,.76,7.71,38.3,38.3,0,0,1-.42,6.12,12.91,12.91,0,0,1-1.78,4.75,11.43,11.43,0,0,1-4.26,4.14,14.31,14.31,0,0,1-7,1.48H111.9v21.13h-7.76Zm7.76,25.69h3.72a7.9,7.9,0,0,0,3.65-.69,4.33,4.33,0,0,0,1.9-1.86,7.36,7.36,0,0,0,.72-2.85c.08-1.11.11-2.35.11-3.72s0-2.47-.11-3.61a8.89,8.89,0,0,0-.68-3,4.37,4.37,0,0,0-1.79-2,7,7,0,0,0-3.5-.72h-4Z" style="fill:#f9c7e4"/><path d="M135.07,803.2h23.11v7.3H142.83v15.88H156.2v7.3H142.83v15.88h15.35v7.75H135.07Z" style="fill:#f9c7e4"/><path d="M162.89,803.2h7.45L182,835.8h.15V803.2H190v54.11h-7.3l-11.86-32.53h-.15v32.53h-7.75Z" style="fill:#f9c7e4"/><path d="M196.94,803.2h11.47q6.61,0,10.11,3.69c2.33,2.45,3.5,5.89,3.5,10.29v25.31q0,7.6-3.69,11.21t-10.6,3.61H196.94ZM204.69,850h3.57c2.18,0,3.72-.55,4.64-1.64s1.37-2.8,1.37-5.13V817.18a8.22,8.22,0,0,0-1.3-4.94q-1.29-1.74-4.71-1.74h-3.57Z" style="fill:#f9c7e4"/><path d="M229.31,803.2h23.11v7.3H237.06v15.88h13.38v7.3H237.06v15.88h15.36v7.75H229.31Z" style="fill:#f9c7e4"/><path d="M257.13,803.2h7.45l11.7,32.6h.15V803.2h7.75v54.11h-7.29L265,824.78h-.15v32.53h-7.75Z" style="fill:#f9c7e4"/><path d="M315.8,845.23a12.4,12.4,0,0,1-.95,4.79,12.74,12.74,0,0,1-2.62,4,12.9,12.9,0,0,1-3.92,2.73,11.34,11.34,0,0,1-4.82,1,17.63,17.63,0,0,1-4.49-.61,10.86,10.86,0,0,1-4.1-2.09,11.18,11.18,0,0,1-3-3.91,14.07,14.07,0,0,1-1.18-6.16V815.21a13.11,13.11,0,0,1,.91-4.94,11.66,11.66,0,0,1,2.58-3.95,12.1,12.1,0,0,1,4-2.63,13.42,13.42,0,0,1,5.12-1,12.75,12.75,0,0,1,4.94,1,12,12,0,0,1,4,2.66,12.42,12.42,0,0,1,2.62,4.11,14,14,0,0,1,.95,5.2v3h-7.75v-2.58a6.21,6.21,0,0,0-1.3-4,4.16,4.16,0,0,0-3.49-1.67c-1.93,0-3.21.59-3.84,1.78a9.61,9.61,0,0,0-.95,4.52v27.67a7.1,7.1,0,0,0,1,3.95,4,4,0,0,0,3.68,1.6,5.61,5.61,0,0,0,1.64-.27,4.59,4.59,0,0,0,1.59-.87,4.44,4.44,0,0,0,1.18-1.68,6.65,6.65,0,0,0,.46-2.66v-2.66h7.75Z" style="fill:#f9c7e4"/><path d="M322.33,803.2h7.76v54.11h-7.76Z" style="fill:#f9c7e4"/><path d="M337.61,803.2h23.1v7.3H345.36v15.88h13.38v7.3H345.36v15.88h15.35v7.75h-23.1Z" style="fill:#f9c7e4"/><path d="M390.81,818.78h-7.75V817a8.28,8.28,0,0,0-1.26-4.6,4.62,4.62,0,0,0-4.21-1.93,5.17,5.17,0,0,0-2.63.6,4.57,4.57,0,0,0-1.59,1.56,6.44,6.44,0,0,0-.8,2.21,14.76,14.76,0,0,0-.23,2.62,25.69,25.69,0,0,0,.12,2.7,4.66,4.66,0,0,0,.57,1.9,4.2,4.2,0,0,0,1.33,1.4,12.17,12.17,0,0,0,2.39,1.22l5.93,2.35a15,15,0,0,1,4.18,2.32,9.62,9.62,0,0,1,2.47,3.12,13.48,13.48,0,0,1,1.18,4.1,41.61,41.61,0,0,1,.3,5.28,28.23,28.23,0,0,1-.68,6.35,13.5,13.5,0,0,1-2.25,5,10.81,10.81,0,0,1-4.14,3.3,14.73,14.73,0,0,1-6.31,1.22,13.77,13.77,0,0,1-5.24-1,12.76,12.76,0,0,1-4.18-2.7,12.75,12.75,0,0,1-3.8-9.16V842H372v2.43a6.31,6.31,0,0,0,1.26,3.84c.83,1.14,2.24,1.71,4.21,1.71a6.79,6.79,0,0,0,3.08-.57,3.92,3.92,0,0,0,1.67-1.6,6.67,6.67,0,0,0,.73-2.55c.1-1,.15-2.12.15-3.34a33.36,33.36,0,0,0-.15-3.5,5.67,5.67,0,0,0-.65-2.2,4,4,0,0,0-1.37-1.37,18.65,18.65,0,0,0-2.32-1.14L373,831.47q-5-2.06-6.73-5.43a18.72,18.72,0,0,1-1.71-8.48,19.54,19.54,0,0,1,.84-5.77,13.22,13.22,0,0,1,2.47-4.71,11.74,11.74,0,0,1,4.14-3.16,13.69,13.69,0,0,1,5.85-1.18,12.84,12.84,0,0,1,5.28,1.07,13.21,13.21,0,0,1,4.11,2.81,12.61,12.61,0,0,1,2.62,3.91,11.36,11.36,0,0,1,.91,4.45Z" style="fill:#f9c7e4"/><path d="M182.13,161h-.2a10.33,10.33,0,0,0-1-.63Q157.48,149.06,134,137.78a1.49,1.49,0,0,1-1-1.59q0-27.15,0-54.31a1.45,1.45,0,0,1,1-1.57Q155.14,70.7,176.23,61c2.72-1.24,5.42-2.54,8.13-3.81h.41c.32.18.63.38,1,.53Q209.87,68.82,234,79.88a1.45,1.45,0,0,1,1,1.57q0,27.1,0,54.22a1.49,1.49,0,0,1-1,1.57q-21.41,9.73-42.8,19.53C188.17,158.16,185.15,159.59,182.13,161ZM137.56,82.87c0,.37-.06.63-.06.89q0,25,0,50.05a1.16,1.16,0,0,0,.76,1.23L182,155.82c.26.12.53.2.84.32,0-.34,0-.54,0-.74q0-25.49,0-51a1.33,1.33,0,0,0-1-1.38q-21.69-9.87-43.36-19.77C138.25,83.14,137.94,83,137.56,82.87Zm49.82,71.57c.36-.15.55-.22.73-.31q20.85-9.85,41.73-19.71c.67-.32.71-.75.71-1.36q0-24.12,0-48.24V82.26c-.46.21-.79.34-1.11.5-3.91,1.91-7.81,3.84-11.73,5.73a1.3,1.3,0,0,0-.87,1.37c0,7.5,0,15,0,22.5a1.28,1.28,0,0,1-.79,1.33c-3.95,2.14-7.87,4.31-11.81,6.47-.25.14-.52.24-1,.46V95.75c-.49.22-.8.35-1.1.5-4.6,2.26-9.2,4.53-13.81,6.76a1.44,1.44,0,0,0-.95,1.53q0,23.1,0,46.22ZM142.56,80.78a2.9,2.9,0,0,0,.35.26Q163.46,90.33,184,99.6a1.28,1.28,0,0,0,.94.05c4.78-2.26,9.55-4.55,14.37-6.86a4,4,0,0,0-.37-.28q-19.86-9.33-39.74-18.65a1.25,1.25,0,0,0-.93,0C153.08,76.12,147.87,78.43,142.56,80.78Zm82.66-.37c-.37-.2-.62-.35-.88-.47q-19.5-8.91-39-17.79a2.07,2.07,0,0,0-1.49,0c-3.42,1.51-6.82,3.08-10.22,4.64-.24.12-.47.27-.73.42a.83.83,0,0,0,.16.12l40.91,18a1.14,1.14,0,0,0,.83,0C218.23,83.76,221.66,82.11,225.22,80.41Z" style="fill:#f7eec9"/><path d="M313,161h-.2a11.59,11.59,0,0,0-1-.63q-23.47-11.31-46.95-22.59a1.49,1.49,0,0,1-1-1.59q0-27.15,0-54.31a1.45,1.45,0,0,1,1-1.57Q286,70.7,307.11,61c2.72-1.24,5.42-2.54,8.13-3.81h.41c.32.18.63.38,1,.53q24.13,11.09,48.29,22.15a1.47,1.47,0,0,1,1,1.57q0,27.1,0,54.22a1.48,1.48,0,0,1-1,1.57q-21.42,9.73-42.81,19.53C319.05,158.16,316,159.59,313,161ZM268.44,82.87c0,.37-.06.63-.06.89q0,25,0,50.05a1.16,1.16,0,0,0,.77,1.23l43.77,20.78c.26.12.53.2.85.32,0-.34,0-.54,0-.74q0-25.49,0-51a1.33,1.33,0,0,0-1-1.38q-21.69-9.87-43.36-19.77C269.13,83.14,268.82,83,268.44,82.87Zm49.82,71.57c.36-.15.55-.22.73-.31q20.86-9.85,41.73-19.71c.67-.32.71-.75.71-1.36q0-24.12,0-48.24V82.26c-.47.21-.8.34-1.12.5-3.91,1.91-7.81,3.84-11.73,5.73a1.3,1.3,0,0,0-.87,1.37c0,7.5,0,15,0,22.5a1.28,1.28,0,0,1-.79,1.33c-3.94,2.14-7.87,4.31-11.81,6.47-.25.14-.52.24-1,.46V95.75c-.49.22-.8.35-1.1.5-4.6,2.26-9.19,4.53-13.81,6.76a1.45,1.45,0,0,0-1,1.53q0,23.1,0,46.22ZM273.44,80.78a4,4,0,0,0,.35.26q20.57,9.28,41.11,18.56a1.28,1.28,0,0,0,.94.05c4.79-2.26,9.55-4.55,14.37-6.86a3,3,0,0,0-.37-.28Q310,83.18,290.1,73.86a1.22,1.22,0,0,0-.92,0C284,76.12,278.75,78.43,273.44,80.78Zm82.66-.37c-.36-.2-.61-.35-.88-.47q-19.5-8.91-39-17.79a2.07,2.07,0,0,0-1.49,0c-3.42,1.51-6.81,3.08-10.22,4.64-.24.12-.46.27-.73.42a1.41,1.41,0,0,0,.16.12l40.91,18a1.16,1.16,0,0,0,.84,0C349.11,83.76,352.54,82.11,356.1,80.41Z" style="fill:#f7eec9"/><path d="M443.89,161h-.2a9.08,9.08,0,0,0-1-.63q-23.46-11.31-46.95-22.59a1.5,1.5,0,0,1-1-1.59q0-27.15,0-54.31a1.45,1.45,0,0,1,1-1.57Q416.9,70.7,438,61c2.72-1.24,5.42-2.54,8.12-3.81h.41c.32.18.63.38,1,.53q24.13,11.09,48.29,22.15a1.47,1.47,0,0,1,1,1.57q0,27.1,0,54.22a1.48,1.48,0,0,1-1,1.57Q474.35,147,453,156.77C449.93,158.16,446.92,159.59,443.89,161ZM399.32,82.87c0,.37-.06.63-.06.89q0,25,0,50.05A1.16,1.16,0,0,0,400,135l43.78,20.78c.25.12.52.2.84.32,0-.34,0-.54,0-.74q0-25.49,0-51a1.32,1.32,0,0,0-1-1.38Q422,93.18,400.31,83.28C400,83.14,399.7,83,399.32,82.87Zm49.82,71.57c.37-.15.55-.22.73-.31q20.86-9.85,41.73-19.71c.68-.32.71-.75.71-1.36V82.26c-.47.21-.8.34-1.12.5-3.91,1.91-7.81,3.84-11.73,5.73a1.3,1.3,0,0,0-.87,1.37c0,7.5,0,15,0,22.5a1.28,1.28,0,0,1-.78,1.33c-3.95,2.14-7.88,4.31-11.82,6.47-.25.14-.52.24-1,.46V95.75c-.5.22-.81.35-1.1.5-4.61,2.26-9.2,4.53-13.82,6.76a1.45,1.45,0,0,0-.95,1.53q0,23.1,0,46.22ZM404.32,80.78a2.76,2.76,0,0,0,.36.26q20.55,9.28,41.11,18.56a1.28,1.28,0,0,0,.94.05c4.78-2.26,9.54-4.55,14.37-6.86a3.93,3.93,0,0,0-.38-.28Q440.86,83.18,421,73.86a1.25,1.25,0,0,0-.93,0C414.84,76.12,409.64,78.43,404.32,80.78ZM487,80.41c-.37-.2-.62-.35-.89-.47q-19.5-8.91-39-17.79a2,2,0,0,0-1.48,0c-3.43,1.51-6.82,3.08-10.22,4.64-.25.12-.47.27-.74.42a1.41,1.41,0,0,0,.16.12l40.91,18a1.16,1.16,0,0,0,.84,0C480,83.76,483.43,82.11,487,80.41Z" style="fill:#f7eec9"/><path d="M574.78,161h-.21a9.08,9.08,0,0,0-1-.63q-23.46-11.31-47-22.59a1.49,1.49,0,0,1-1-1.59q0-27.15,0-54.31a1.44,1.44,0,0,1,1-1.57Q547.77,70.7,568.88,61c2.72-1.24,5.42-2.54,8.13-3.81h.4c.32.18.63.38,1,.53q24.14,11.09,48.29,22.15a1.47,1.47,0,0,1,1,1.57q0,27.1,0,54.22a1.48,1.48,0,0,1-1,1.57q-21.42,9.73-42.81,19.53C580.81,158.16,577.8,159.59,574.78,161ZM530.2,82.87c0,.37-.06.63-.06.89q0,25,0,50.05a1.16,1.16,0,0,0,.77,1.23l43.78,20.78c.25.12.52.2.84.32,0-.34,0-.54,0-.74q0-25.49,0-51a1.32,1.32,0,0,0-1-1.38L531.19,83.28C530.89,83.14,530.59,83,530.2,82.87ZM580,154.44c.36-.15.54-.22.72-.31q20.87-9.85,41.73-19.71c.68-.32.72-.75.72-1.36q0-24.12,0-48.24V82.26c-.46.21-.79.34-1.11.5-3.91,1.91-7.82,3.84-11.74,5.73a1.28,1.28,0,0,0-.86,1.37c0,7.5,0,15,0,22.5a1.3,1.3,0,0,1-.79,1.33c-4,2.14-7.88,4.31-11.81,6.47-.26.14-.53.24-1,.46V95.75c-.5.22-.8.35-1.1.5-4.61,2.26-9.2,4.53-13.82,6.76a1.45,1.45,0,0,0-1,1.53q0,23.1,0,46.22ZM535.2,80.78a3.7,3.7,0,0,0,.36.26q20.55,9.28,41.11,18.56a1.28,1.28,0,0,0,.94.05c4.78-2.26,9.55-4.55,14.37-6.86a3,3,0,0,0-.38-.28q-19.86-9.33-39.73-18.65a1.25,1.25,0,0,0-.93,0C545.72,76.12,540.52,78.43,535.2,80.78Zm82.67-.37c-.37-.2-.62-.35-.88-.47Q597.48,71,578,62.15a2,2,0,0,0-1.48,0c-3.43,1.51-6.82,3.08-10.22,4.64-.25.12-.47.27-.73.42.1.08.12.11.15.12l40.91,18a1.16,1.16,0,0,0,.84,0C610.88,83.76,614.31,82.11,617.87,80.41Z" style="fill:#f7eec9"/><path d="M705.66,161h-.2a10.33,10.33,0,0,0-1-.63Q681,149.06,657.53,137.78a1.49,1.49,0,0,1-1-1.59q0-27.15,0-54.31a1.45,1.45,0,0,1,1-1.57Q678.65,70.7,699.76,61c2.72-1.24,5.42-2.54,8.13-3.81h.4c.32.18.63.38,1,.53q24.15,11.09,48.29,22.15a1.47,1.47,0,0,1,1,1.57q0,27.1,0,54.22a1.49,1.49,0,0,1-1,1.57q-21.4,9.73-42.8,19.53C711.69,158.16,708.68,159.59,705.66,161ZM661.08,82.87c0,.37-.06.63-.06.89q0,25,0,50.05a1.15,1.15,0,0,0,.76,1.23l43.78,20.78c.25.12.52.2.84.32,0-.34,0-.54,0-.74q0-25.49,0-51a1.32,1.32,0,0,0-1-1.38L662.07,83.28C661.77,83.14,661.47,83,661.08,82.87Zm49.83,71.57c.36-.15.55-.22.72-.31q20.86-9.85,41.73-19.71c.68-.32.72-.75.72-1.36q0-24.12,0-48.24V82.26c-.46.21-.79.34-1.11.5-3.91,1.91-7.81,3.84-11.74,5.73a1.31,1.31,0,0,0-.86,1.37c0,7.5,0,15,0,22.5a1.28,1.28,0,0,1-.79,1.33c-4,2.14-7.88,4.31-11.81,6.47-.25.14-.53.24-1,.46V95.75c-.5.22-.8.35-1.1.5-4.6,2.26-9.2,4.53-13.82,6.76a1.45,1.45,0,0,0-1,1.53q0,23.1,0,46.22ZM666.09,80.78a2.9,2.9,0,0,0,.35.26Q687,90.33,707.55,99.6a1.28,1.28,0,0,0,.94.05c4.78-2.26,9.55-4.55,14.37-6.86a4,4,0,0,0-.37-.28q-19.87-9.33-39.74-18.65a1.25,1.25,0,0,0-.93,0C676.61,76.12,671.4,78.43,666.09,80.78Zm82.66-.37c-.37-.2-.62-.35-.88-.47q-19.5-8.91-39-17.79a2.07,2.07,0,0,0-1.49,0c-3.42,1.51-6.82,3.08-10.22,4.64-.24.12-.47.27-.73.42a.83.83,0,0,0,.16.12q20.45,9,40.91,18a1.13,1.13,0,0,0,.83,0C741.76,83.76,745.19,82.11,748.75,80.41Z" style="fill:#f7eec9"/><path d="M440.66,590h-.2a10.33,10.33,0,0,0-1-.63Q416,578.06,392.53,566.78a1.49,1.49,0,0,1-1-1.59q0-27.15,0-54.31a1.45,1.45,0,0,1,1-1.57q21.12-9.62,42.23-19.3c2.72-1.24,5.42-2.54,8.13-3.81h.4c.32.18.63.38,1,.53q24.15,11.08,48.29,22.15a1.47,1.47,0,0,1,1,1.57q0,27.1,0,54.22a1.49,1.49,0,0,1-1,1.57q-21.4,9.74-42.8,19.53C446.69,587.16,443.68,588.59,440.66,590Zm-44.58-78.13c0,.37-.06.63-.06.89q0,25,0,50a1.15,1.15,0,0,0,.76,1.23l43.78,20.78c.25.12.52.2.84.32,0-.34,0-.54,0-.74q0-25.49,0-51a1.32,1.32,0,0,0-1-1.38q-21.68-9.87-43.35-19.77C396.77,512.14,396.47,512,396.08,511.87Zm49.83,71.57c.36-.15.55-.22.72-.31q20.87-9.86,41.73-19.71c.68-.32.72-.75.72-1.36q0-24.12,0-48.24v-2.56c-.46.21-.79.34-1.11.5-3.91,1.91-7.81,3.84-11.74,5.73a1.31,1.31,0,0,0-.86,1.37c0,7.5,0,15,0,22.5a1.28,1.28,0,0,1-.79,1.33c-4,2.14-7.88,4.31-11.81,6.47-.25.14-.53.24-1,.46V524.75c-.5.22-.8.35-1.1.5-4.6,2.26-9.2,4.53-13.82,6.76a1.45,1.45,0,0,0-.95,1.53q0,23.1,0,46.22Zm-44.82-73.66a2.9,2.9,0,0,0,.35.26q20.55,9.29,41.11,18.56a1.28,1.28,0,0,0,.94,0c4.78-2.26,9.55-4.55,14.37-6.86a4,4,0,0,0-.37-.28q-19.87-9.33-39.74-18.65a1.25,1.25,0,0,0-.93,0C411.61,505.12,406.4,507.43,401.09,509.78Zm82.66-.37c-.37-.2-.62-.35-.88-.47q-19.5-8.91-39-17.79a2.07,2.07,0,0,0-1.49,0c-3.42,1.51-6.82,3.08-10.22,4.64-.24.12-.47.27-.73.42a.83.83,0,0,0,.16.12q20.44,9,40.91,18a1.13,1.13,0,0,0,.83,0C476.76,512.76,480.19,511.11,483.75,509.41Z" style="fill:#f7eec9"/><path d="M499.16,371H390.44c.47-10.39,9.4-21.49,19.34-23.84a5.11,5.11,0,0,0,4-4.68,126.73,126.73,0,0,0,1.41-17.16c0-6.66-1.17-13.33-1.17-20a42.38,42.38,0,0,1,4.35-18.88c4.93-10,12.91-15.17,24.21-14.91a71,71,0,0,1,8.51.24c9.19,1.3,15.62,6.51,19.41,14.84,4.53,10,5.29,20.43,3.74,31.21-1.06,7.36-1.49,14.8.1,22.17a19,19,0,0,0,1.91,5.11,4,4,0,0,0,2.47,1.85c7.39,1.41,12.27,6,15.54,12.4C496.11,363,497.45,366.88,499.16,371Zm-31.25-62c-1.88,3.63-4,1.93-6.22.78Q449,303.21,436.27,296.7c-3.53-1.81-7-1.53-9.34,1.64-1.92,2.55-2.92,5.79-4.32,8.73-.33.71-.4,1.72-.94,2.14-3,2.38-2.42,9.55.95,11.5a4.52,4.52,0,0,1,1.82,2,37.29,37.29,0,0,0,8.72,13.2c7.15,6.7,15.38,6.76,22.59.14a36,36,0,0,0,8.75-13.17,4.35,4.35,0,0,1,1.21-2A8.47,8.47,0,0,0,467.91,309Zm-43.32,37c1.52,4.9,11.3,10.07,19.82,10.07s18.22-5.14,19.85-10.14c-2-2.17-3.78-4.16-5.6-6.16-8.84,7.61-17.82,9-28.29,0Z" style="fill:#f7eec9"/><rect x="40" y="641" width="815" height="13" style="fill:#f9c7e4"/><path d="M447.29,443.15H435.93c0-1.63-.05-2.62-.05-3a19.84,19.84,0,0,1,1.83-9.09q1.83-3.57,7.31-8a54.72,54.72,0,0,0,6.55-5.84,7.81,7.81,0,0,0,1.65-4.81,8.11,8.11,0,0,0-2.92-6.27,11.42,11.42,0,0,0-7.87-2.6,11.86,11.86,0,0,0-8,2.72q-3.21,2.72-4.41,8.28l-11.5-1.42a19.06,19.06,0,0,1,6.79-13.55Q431.66,394,441.9,394q10.78,0,17.16,5.64t6.37,13.12a14.41,14.41,0,0,1-2.34,7.84q-2.34,3.7-10,10.08c-2.65,2.2-4.29,4-4.93,5.3S447.23,439.71,447.29,443.15ZM435.93,460V447.48h12.52V460Z" style="fill:#f9c7e4"/><path d="M187.78,229.15H176.42c0-1.63,0-2.62,0-3a19.84,19.84,0,0,1,1.83-9.09q1.83-3.57,7.31-8a54.72,54.72,0,0,0,6.55-5.84,7.81,7.81,0,0,0,1.65-4.81,8.11,8.11,0,0,0-2.92-6.27,11.42,11.42,0,0,0-7.87-2.6,11.86,11.86,0,0,0-8,2.72q-3.21,2.72-4.41,8.28L159,199.12a19.06,19.06,0,0,1,6.79-13.55q6.31-5.56,16.56-5.57,10.79,0,17.16,5.64t6.37,13.12a14.41,14.41,0,0,1-2.34,7.84q-2.34,3.71-10,10.08c-2.65,2.2-4.29,4-4.93,5.3S187.72,225.71,187.78,229.15ZM176.42,246V233.48h12.52V246Z" style="fill:#f9c7e4"/><path d="M319,229.15H307.67c0-1.63,0-2.62,0-3a19.84,19.84,0,0,1,1.83-9.09q1.82-3.57,7.3-8a53.86,53.86,0,0,0,6.55-5.84,7.81,7.81,0,0,0,1.65-4.81,8.11,8.11,0,0,0-2.92-6.27,11.38,11.38,0,0,0-7.86-2.6,11.88,11.88,0,0,0-8,2.72q-3.21,2.72-4.41,8.28l-11.5-1.42a19.07,19.07,0,0,1,6.8-13.55q6.3-5.56,16.55-5.57,10.78,0,17.16,5.64t6.37,13.12a14.41,14.41,0,0,1-2.34,7.84q-2.32,3.71-10,10.08c-2.64,2.2-4.29,4-4.92,5.3S319,225.71,319,229.15ZM307.67,246V233.48H320.2V246Z" style="fill:#f9c7e4"/><path d="M450.29,229.15H438.93c0-1.63-.05-2.62-.05-3a19.84,19.84,0,0,1,1.83-9.09q1.83-3.57,7.31-8a54.72,54.72,0,0,0,6.55-5.84,7.81,7.81,0,0,0,1.65-4.81,8.11,8.11,0,0,0-2.92-6.27,11.42,11.42,0,0,0-7.87-2.6,11.86,11.86,0,0,0-8,2.72q-3.21,2.72-4.41,8.28l-11.5-1.42a19.06,19.06,0,0,1,6.79-13.55Q434.66,180,444.9,180q10.78,0,17.16,5.64t6.37,13.12a14.41,14.41,0,0,1-2.34,7.84q-2.34,3.71-10,10.08c-2.65,2.2-4.29,4-4.93,5.3S450.23,225.71,450.29,229.15ZM438.93,246V233.48h12.52V246Z" style="fill:#f9c7e4"/><path d="M581.55,229.15H570.18c0-1.63,0-2.62,0-3a19.84,19.84,0,0,1,1.83-9.09q1.81-3.57,7.3-8a53.86,53.86,0,0,0,6.55-5.84,7.81,7.81,0,0,0,1.65-4.81,8.11,8.11,0,0,0-2.92-6.27,11.38,11.38,0,0,0-7.86-2.6,11.88,11.88,0,0,0-8,2.72q-3.21,2.72-4.41,8.28l-11.5-1.42a19.07,19.07,0,0,1,6.8-13.55q6.3-5.56,16.55-5.57,10.79,0,17.16,5.64t6.37,13.12a14.41,14.41,0,0,1-2.34,7.84q-2.34,3.71-10,10.08c-2.64,2.2-4.29,4-4.92,5.3S581.49,225.71,581.55,229.15ZM570.18,246V233.48h12.53V246Z" style="fill:#f9c7e4"/><path d="M712.8,229.15H701.44c0-1.63-.05-2.62-.05-3a19.84,19.84,0,0,1,1.83-9.09q1.83-3.57,7.31-8a54.72,54.72,0,0,0,6.55-5.84,7.81,7.81,0,0,0,1.65-4.81,8.11,8.11,0,0,0-2.92-6.27,11.42,11.42,0,0,0-7.87-2.6,11.86,11.86,0,0,0-8,2.72q-3.21,2.72-4.41,8.28l-11.5-1.42a19.06,19.06,0,0,1,6.79-13.55q6.31-5.56,16.56-5.57,10.79,0,17.16,5.64t6.37,13.12a14.41,14.41,0,0,1-2.34,7.84q-2.34,3.71-10,10.08c-2.64,2.2-4.28,4-4.92,5.3S712.74,225.71,712.8,229.15ZM701.44,246V233.48H714V246Z" style="fill:#f9c7e4"/></svg>