<svg data-name="Layer 1" xmlns="http://www.w3.org/2000/svg" viewBox="0 0 900 900"><path style="fill:#07448e" d="M0 0h900v900H0z"/><text transform="translate(40 766.11)" style="fill:#f9c7e4;font-size:76px;font-family:DINCondensed-Bold,DIN Condensed;font-weight:700">1 DE<tspan x="102.9" y="0" style="letter-spacing:-.09em">V</tspan><tspan x="126.84" y="0">, MU</tspan><tspan x="229.74" y="0" style="letter-spacing:-.07em">L</tspan><tspan x="252.24" y="0">TIPLE DEPENDENCIES, </tspan><tspan x="0" y="91.2">ALL VERIFIED BY CI </tspan></text><path d="M195.37 194.29h-.19a8 8 0 0 0-1-.61Q171.61 182.77 149 171.9a1.44 1.44 0 0 1-1-1.54V118a1.41 1.41 0 0 1 1-1.52q20.39-9.27 40.73-18.6c2.62-1.2 5.22-2.45 7.83-3.68h.39c.31.17.61.36.93.51q23.28 10.7 46.56 21.36a1.42 1.42 0 0 1 1 1.51v52.28a1.42 1.42 0 0 1-1 1.51q-20.64 9.4-41.27 18.84c-2.98 1.34-5.88 2.72-8.8 4.08Zm-43-75.34c0 .36-.06.61-.06.86v48.26a1.12 1.12 0 0 0 .74 1.19l42.21 20c.24.12.5.19.81.31v-49.86a1.28 1.28 0 0 0-1-1.33l-41.81-19.06c-.2-.1-.5-.22-.87-.32Zm48.05 69 .7-.29q20.12-9.51 40.23-19c.66-.31.69-.73.69-1.31v-48.99c-.45.2-.77.33-1.08.49-3.77 1.84-7.53 3.7-11.31 5.52a1.26 1.26 0 0 0-.84 1.32v21.7a1.24 1.24 0 0 1-.76 1.28c-3.81 2.06-7.59 4.16-11.39 6.24-.24.13-.5.23-1 .44v-24c-.48.22-.78.34-1.06.48-4.44 2.18-8.87 4.37-13.32 6.53a1.37 1.37 0 0 0-.92 1.46v44.57c.07 1.16.08 2.29.08 3.61Zm-43.22-71a1.84 1.84 0 0 0 .34.24q19.81 9 39.64 17.91a1.22 1.22 0 0 0 .9 0c4.61-2.18 9.21-4.38 13.86-6.61a2.55 2.55 0 0 0-.36-.27q-19.15-9-38.32-18a1.19 1.19 0 0 0-.89 0c-5.01 2.22-10.03 4.45-15.15 6.72Zm79.7-.36c-.35-.19-.59-.34-.85-.45q-18.8-8.59-37.62-17.15A2 2 0 0 0 197 99c-3.3 1.46-6.57 3-9.85 4.48-.24.11-.45.26-.71.41l.16.11 39.44 17.37a1.13 1.13 0 0 0 .81 0c3.33-1.56 6.64-3.15 10.07-4.79Zm84.68 77.7h-.2a8 8 0 0 0-.95-.61q-22.62-10.91-45.27-21.78a1.45 1.45 0 0 1-1-1.54V118a1.41 1.41 0 0 1 1-1.52q20.37-9.27 40.72-18.6c2.62-1.2 5.22-2.45 7.84-3.68h.39c.3.17.6.36.92.51q23.28 10.7 46.56 21.36a1.41 1.41 0 0 1 1 1.51v52.28a1.42 1.42 0 0 1-1 1.51q-20.64 9.4-41.27 18.84c-2.93 1.34-5.83 2.72-8.74 4.08ZM278.6 119c0 .36-.06.61-.06.86v48.26a1.12 1.12 0 0 0 .74 1.19l42.21 20c.24.12.51.19.81.31v-49.86a1.28 1.28 0 0 0-1-1.33l-41.8-19.06Zm48 69 .7-.29q20.12-9.51 40.23-19c.66-.31.69-.73.69-1.31v-49c-.45.2-.77.33-1.08.49-3.77 1.84-7.53 3.7-11.31 5.52a1.26 1.26 0 0 0-.84 1.32v21.7a1.24 1.24 0 0 1-.76 1.28c-3.8 2.06-7.59 4.16-11.39 6.24-.24.13-.5.23-1 .44v-24l-1.06.48c-4.44 2.18-8.87 4.37-13.32 6.53a1.37 1.37 0 0 0-.92 1.46v44.57Zm-43.22-71a1.84 1.84 0 0 0 .34.24q19.82 9 39.64 17.91a1.25 1.25 0 0 0 .91 0c4.61-2.18 9.2-4.38 13.85-6.61a2.55 2.55 0 0 0-.36-.27q-19.16-9-38.31-18a1.22 1.22 0 0 0-.9 0c-4.99 2.17-10.01 4.4-15.13 6.67Zm79.71-.36c-.36-.19-.6-.34-.86-.45q-18.75-8.65-37.58-17.19a2 2 0 0 0-1.43 0c-3.3 1.46-6.58 3-9.86 4.48-.23.11-.45.26-.7.41l.15.11q19.72 8.68 39.44 17.37a1.14 1.14 0 0 0 .81 0c3.32-1.56 6.63-3.15 10.07-4.79Zm84.69 77.65h-.2a7.3 7.3 0 0 0-.95-.61Q424 182.77 401.37 171.9a1.45 1.45 0 0 1-1-1.54V118a1.41 1.41 0 0 1 1-1.52q20.37-9.27 40.72-18.6c2.62-1.2 5.23-2.45 7.84-3.68h.39c.31.17.61.36.92.51q23.28 10.7 46.56 21.36a1.41 1.41 0 0 1 1 1.51v52.28a1.42 1.42 0 0 1-1 1.51q-20.66 9.4-41.28 18.84c-2.92 1.34-5.83 2.72-8.74 4.08ZM404.8 119c0 .36-.06.61-.06.86v48.26a1.13 1.13 0 0 0 .74 1.19q21.12 10 42.21 20c.25.12.51.19.81.31v-49.86c0-.78-.35-1.06-1-1.33l-41.8-19.06Zm48 69 .7-.29q20.11-9.51 40.24-19c.65-.31.69-.73.68-1.31v-49c-.45.2-.77.33-1.07.49-3.77 1.84-7.54 3.7-11.32 5.52a1.25 1.25 0 0 0-.83 1.32v21.7a1.23 1.23 0 0 1-.75 1.28c-3.81 2.06-7.6 4.16-11.4 6.24-.24.13-.5.23-1 .44v-24l-1.06.48c-4.44 2.18-8.87 4.37-13.32 6.53a1.37 1.37 0 0 0-.92 1.46v44.57Zm-43.22-71a2.26 2.26 0 0 0 .34.24q19.82 9 39.64 17.91a1.25 1.25 0 0 0 .91 0c4.61-2.18 9.2-4.38 13.85-6.61a1.76 1.76 0 0 0-.36-.27q-19.15-9-38.31-18a1.22 1.22 0 0 0-.9 0c-4.99 2.17-10.01 4.4-15.13 6.67Zm79.71-.36c-.36-.19-.6-.34-.85-.45q-18.77-8.65-37.59-17.19a2 2 0 0 0-1.43 0c-3.3 1.46-6.58 3-9.86 4.48-.23.11-.45.26-.7.41l.15.11q19.73 8.68 39.45 17.37a1.11 1.11 0 0 0 .8 0c3.33-1.56 6.63-3.15 10.07-4.79Zm-43.51 457.65h-.2a7.3 7.3 0 0 0-.95-.61q-22.63-10.9-45.26-21.78a1.45 1.45 0 0 1-1-1.54V498a1.41 1.41 0 0 1 1-1.52q20.37-9.27 40.72-18.6c2.62-1.2 5.23-2.45 7.84-3.68h.39c.31.17.61.36.92.51q23.28 10.69 46.56 21.36a1.41 1.41 0 0 1 1 1.51v52.28a1.42 1.42 0 0 1-1 1.51q-20.66 9.4-41.28 18.84c-2.92 1.34-5.83 2.72-8.74 4.08ZM402.8 499c0 .36-.06.61-.06.86v48.26a1.13 1.13 0 0 0 .74 1.19q21.12 10 42.21 20c.25.12.51.19.81.31v-49.86c0-.78-.35-1.06-1-1.33l-41.8-19.06Zm48 69 .7-.29q20.11-9.51 40.24-19c.65-.31.69-.73.68-1.31v-49c-.45.2-.77.33-1.07.49-3.77 1.84-7.54 3.7-11.32 5.52a1.25 1.25 0 0 0-.83 1.32v21.7a1.23 1.23 0 0 1-.75 1.28c-3.81 2.06-7.6 4.16-11.4 6.24-.24.13-.5.23-1 .44v-24l-1.06.48c-4.44 2.18-8.87 4.37-13.32 6.53a1.37 1.37 0 0 0-.92 1.46v44.57Zm-43.22-71a2.26 2.26 0 0 0 .34.24q19.82 9 39.64 17.91a1.25 1.25 0 0 0 .91 0c4.61-2.18 9.2-4.38 13.85-6.61a1.76 1.76 0 0 0-.36-.27q-19.15-9-38.31-18a1.22 1.22 0 0 0-.9 0c-4.99 2.17-10.01 4.4-15.13 6.67Zm79.71-.36c-.36-.19-.6-.34-.85-.45q-18.81-8.6-37.63-17.15a2 2 0 0 0-1.43 0c-3.3 1.46-6.58 3-9.86 4.48-.23.11-.45.26-.7.41l.15.11q19.73 8.68 39.45 17.37a1.11 1.11 0 0 0 .8 0c3.37-1.6 6.67-3.19 10.11-4.83ZM574 194.29h-.2a7.93 7.93 0 0 0-.94-.61q-22.64-10.91-45.27-21.78a1.43 1.43 0 0 1-1-1.54V118a1.39 1.39 0 0 1 1-1.52q20.37-9.27 40.72-18.6c2.62-1.2 5.23-2.45 7.84-3.68h.39c.31.17.61.36.93.51q23.26 10.7 46.56 21.36a1.41 1.41 0 0 1 1 1.51v52.28a1.42 1.42 0 0 1-1 1.51q-20.65 9.4-41.28 18.84c-2.95 1.34-5.86 2.72-8.75 4.08ZM531 119c0 .36-.06.61-.06.86v48.26a1.13 1.13 0 0 0 .74 1.19q21.12 10 42.21 20c.25.12.51.19.82.31v-49.86a1.28 1.28 0 0 0-1-1.33L532 119.35Zm48 69 .7-.29q20.12-9.51 40.24-19c.65-.31.69-.73.69-1.31v-48.99c-.45.2-.76.33-1.07.49-3.77 1.84-7.54 3.7-11.32 5.52a1.25 1.25 0 0 0-.83 1.32v21.7a1.25 1.25 0 0 1-.76 1.28c-3.81 2.06-7.6 4.16-11.39 6.24-.25.13-.51.23-1 .44v-24l-1.06.48c-4.44 2.18-8.87 4.37-13.32 6.53a1.36 1.36 0 0 0-.91 1.46v44.57Zm-43.22-71a2.94 2.94 0 0 0 .34.24q19.82 9 39.64 17.91a1.25 1.25 0 0 0 .91 0c4.61-2.18 9.21-4.38 13.85-6.61a1.76 1.76 0 0 0-.36-.27q-19.14-9-38.31-18a1.22 1.22 0 0 0-.9 0c-4.95 2.17-9.95 4.4-15.13 6.67Zm79.71-.36c-.35-.19-.6-.34-.85-.45q-18.77-8.65-37.59-17.19a2 2 0 0 0-1.43 0c-3.3 1.46-6.58 3-9.86 4.48-.23.11-.45.26-.7.41l.15.11q19.72 8.68 39.45 17.37a1.11 1.11 0 0 0 .8 0c3.33-1.56 6.64-3.15 10.07-4.79Zm84.69 77.65H700a7.93 7.93 0 0 0-.94-.61q-22.63-10.91-45.27-21.78a1.44 1.44 0 0 1-1-1.54V118a1.41 1.41 0 0 1 1-1.52q20.37-9.27 40.72-18.6c2.63-1.2 5.23-2.45 7.84-3.68h.39c.31.17.61.36.93.51q23.26 10.7 46.56 21.36a1.41 1.41 0 0 1 1 1.51v52.28a1.41 1.41 0 0 1-1 1.51q-20.66 9.4-41.28 18.84c-2.95 1.34-5.86 2.72-8.77 4.08ZM657.2 119c0 .36-.06.61-.06.86v48.26a1.13 1.13 0 0 0 .74 1.19l42.22 20c.24.12.5.19.81.31v-49.86a1.28 1.28 0 0 0-1-1.33l-41.8-19.06Zm48 69 .7-.29q20.12-9.51 40.24-19c.65-.31.69-.73.69-1.31v-48.99c-.44.2-.76.33-1.07.49-3.77 1.84-7.53 3.7-11.32 5.52a1.26 1.26 0 0 0-.83 1.32v21.7a1.25 1.25 0 0 1-.76 1.28c-3.81 2.06-7.6 4.16-11.39 6.24-.25.13-.51.23-1 .44v-24c-.48.22-.78.34-1.06.48-4.44 2.18-8.87 4.37-13.33 6.53a1.37 1.37 0 0 0-.91 1.46v44.57Zm-43.22-71a2.18 2.18 0 0 0 .35.24q19.82 9 39.64 17.91a1.22 1.22 0 0 0 .9 0c4.61-2.18 9.21-4.38 13.86-6.61a2.55 2.55 0 0 0-.36-.27q-19.15-9-38.32-18a1.19 1.19 0 0 0-.89 0c-4.99 2.17-10.01 4.4-15.16 6.67Zm79.71-.36c-.35-.19-.59-.34-.85-.45q-18.77-8.65-37.59-17.19a2 2 0 0 0-1.43 0c-3.3 1.46-6.57 3-9.85 4.48a7.56 7.56 0 0 0-.71.41l.15.11 39.45 17.37a1.13 1.13 0 0 0 .81 0c3.33-1.56 6.63-3.15 10.06-4.79ZM503.71 421h-125.3c.54-12 10.83-24.77 22.29-27.47a5.89 5.89 0 0 0 4.61-5.4 144.27 144.27 0 0 0 1.62-19.77c0-7.69-1.34-15.36-1.35-23a49.09 49.09 0 0 1 5-21.76c5.68-11.54 14.88-17.49 27.89-17.19 3.28.08 6.59-.18 9.81.28 10.6 1.5 18 7.5 22.38 17.11 5.22 11.49 6.1 23.54 4.3 36-1.22 8.48-1.71 17 .12 25.55a22.08 22.08 0 0 0 2.2 5.88 4.67 4.67 0 0 0 2.85 2.13c8.52 1.63 14.14 6.91 17.91 14.29 2.15 4.11 3.69 8.6 5.67 13.35Zm-36-71.45c-2.18 4.19-4.64 2.22-7.18.9q-14.62-7.59-29.29-15.08c-4.07-2.09-8-1.76-10.77 1.89-2.21 2.95-3.37 6.68-5 10.07-.39.82-.47 2-1.09 2.46-3.46 2.74-2.79 11 1.1 13.25a5.2 5.2 0 0 1 2.09 2.29 43.16 43.16 0 0 0 10.05 15.21c8.24 7.72 17.73 7.79 26 .16a41.57 41.57 0 0 0 10.1-15.19 5.06 5.06 0 0 1 1.39-2.31 9.77 9.77 0 0 0 2.59-13.65Zm-49.94 42.65c1.75 5.65 13 11.6 22.84 11.6s21-5.92 22.88-11.68L457 385c-10.19 8.77-20.53 10.39-32.6 0-2.14 2.36-4.29 4.67-6.63 7.2Z" style="fill:#f7eec9"/><path d="M40 641h815v13H40zm142.06-406.18-9.84 11.35 20.43 18.17 40.87-48.44h-15.89l-24.22 29.51-11.35-10.59zm126.2 0-9.84 11.35 20.44 18.17 40.86-48.44h-15.89l-24.22 29.51-11.35-10.59zm126.2 0-9.84 11.35 20.44 18.17 40.87-48.44h-15.9l-24.22 29.51-11.35-10.59zm126.2 0-9.84 11.35 20.44 18.17 40.87-48.44h-15.9l-24.22 29.51-11.35-10.59zm126.2 0-9.84 11.35 20.44 18.17 40.87-48.44h-15.9l-24.21 29.51-11.36-10.59z" style="fill:#f9c7e4"/></svg>