<svg id="Layer_1" data-name="Layer 1" xmlns="http://www.w3.org/2000/svg" viewBox="0 0 900 900"><defs><style>.cls-1{fill:#07448e;}.cls-2{font-size:76px;font-family:DINCondensed-Bold, DIN Condensed;font-weight:700;}.cls-2,.cls-6{fill:#f9c7e4;}.cls-3{letter-spacing:-0.09em;}.cls-4{letter-spacing:-0.07em;}.cls-5{fill:#f7eec9;}</style></defs><title>1-developer-multiple-packages-ci-savings</title><rect class="cls-1" width="900" height="900"/><text class="cls-2" transform="translate(40 766.11)">1 DE<tspan class="cls-3" x="102.9" y="0">V</tspan><tspan x="126.84" y="0">, MU</tspan><tspan class="cls-4" x="229.74" y="0">L</tspan><tspan x="252.24" y="0">TIPLE DEPENDENCIES, </tspan><tspan x="0" y="91.2">ALL VERIFIED BY CI </tspan></text><path class="cls-5" d="M195.37,194.29h-.19a8,8,0,0,0-1-.61Q171.61,182.77,149,171.9a1.44,1.44,0,0,1-1-1.54q0-26.18,0-52.36a1.41,1.41,0,0,1,1-1.52q20.39-9.27,40.73-18.6c2.62-1.2,5.22-2.45,7.83-3.68h.39c.31.17.61.36.93.51q23.28,10.7,46.56,21.36a1.42,1.42,0,0,1,1,1.51q0,26.14,0,52.28a1.42,1.42,0,0,1-1,1.51q-20.64,9.4-41.27,18.84C201.19,191.55,198.29,192.93,195.37,194.29Zm-43-75.34c0,.36-.06.61-.06.86q0,24.13,0,48.26a1.12,1.12,0,0,0,.74,1.19l42.21,20c.24.12.5.19.81.31,0-.33,0-.52,0-.71q0-24.57,0-49.15a1.28,1.28,0,0,0-1-1.33l-41.81-19.06C153.06,119.22,152.76,119.1,152.39,119Zm48.05,69,.7-.29q20.12-9.51,40.23-19c.66-.31.69-.73.69-1.31q0-23.26,0-46.52v-2.47c-.45.2-.77.33-1.08.49-3.77,1.84-7.53,3.7-11.31,5.52a1.26,1.26,0,0,0-.84,1.32c0,7.23,0,14.47,0,21.7a1.24,1.24,0,0,1-.76,1.28c-3.81,2.06-7.59,4.16-11.39,6.24-.24.13-.5.23-1,.44v-24c-.48.22-.78.34-1.06.48-4.44,2.18-8.87,4.37-13.32,6.53a1.37,1.37,0,0,0-.92,1.46q0,22.29,0,44.57C200.43,185.55,200.44,186.68,200.44,188Zm-43.22-71a1.84,1.84,0,0,0,.34.24q19.81,9,39.64,17.91a1.22,1.22,0,0,0,.9,0c4.61-2.18,9.21-4.38,13.86-6.61a2.55,2.55,0,0,0-.36-.27q-19.15-9-38.32-18a1.19,1.19,0,0,0-.89,0C167.36,112.44,162.34,114.67,157.22,116.94Zm79.7-.36c-.35-.19-.59-.34-.85-.45q-18.8-8.59-37.62-17.15A2,2,0,0,0,197,99c-3.3,1.46-6.57,3-9.85,4.48-.24.11-.45.26-.71.41l.16.11q19.71,8.68,39.44,17.37a1.13,1.13,0,0,0,.81,0C230.18,119.81,233.49,118.22,236.92,116.58Z"/><path class="cls-5" d="M321.58,194.29h-.2a8,8,0,0,0-.95-.61q-22.62-10.91-45.27-21.78a1.45,1.45,0,0,1-1-1.54q0-26.18,0-52.36a1.41,1.41,0,0,1,1-1.52q20.37-9.27,40.72-18.6c2.62-1.2,5.22-2.45,7.84-3.68h.39c.3.17.6.36.92.51q23.28,10.7,46.56,21.36a1.41,1.41,0,0,1,1,1.51q0,26.14,0,52.28a1.42,1.42,0,0,1-1,1.51q-20.64,9.4-41.27,18.84C327.39,191.55,324.49,192.93,321.58,194.29ZM278.6,119c0,.36-.06.61-.06.86q0,24.13,0,48.26a1.12,1.12,0,0,0,.74,1.19l42.21,20c.24.12.51.19.81.31,0-.33,0-.52,0-.71q0-24.57,0-49.15a1.28,1.28,0,0,0-1-1.33l-41.8-19.06Zm48,69,.7-.29q20.12-9.51,40.23-19c.66-.31.69-.73.69-1.31v-49c-.45.2-.77.33-1.08.49-3.77,1.84-7.53,3.7-11.31,5.52a1.26,1.26,0,0,0-.84,1.32c0,7.23,0,14.47,0,21.7a1.24,1.24,0,0,1-.76,1.28c-3.8,2.06-7.59,4.16-11.39,6.24-.24.13-.5.23-1,.44v-24l-1.06.48c-4.44,2.18-8.87,4.37-13.32,6.53a1.37,1.37,0,0,0-.92,1.46q0,22.29,0,44.57Zm-43.22-71a1.84,1.84,0,0,0,.34.24q19.82,9,39.64,17.91a1.25,1.25,0,0,0,.91,0c4.61-2.18,9.2-4.38,13.85-6.61a2.55,2.55,0,0,0-.36-.27q-19.16-9-38.31-18a1.22,1.22,0,0,0-.9,0C293.56,112.44,288.54,114.67,283.42,116.94Zm79.71-.36c-.36-.19-.6-.34-.86-.45Q343.48,107.54,324.65,99a2,2,0,0,0-1.43,0c-3.3,1.46-6.58,3-9.86,4.48-.23.11-.45.26-.7.41l.15.11q19.72,8.68,39.44,17.37a1.14,1.14,0,0,0,.81,0C356.38,119.81,359.69,118.22,363.13,116.58Z"/><path class="cls-5" d="M447.78,194.29h-.2a7.3,7.3,0,0,0-.95-.61Q424,182.77,401.37,171.9a1.45,1.45,0,0,1-1-1.54q0-26.18,0-52.36a1.41,1.41,0,0,1,1-1.52q20.37-9.27,40.72-18.6c2.62-1.2,5.23-2.45,7.84-3.68h.39c.31.17.61.36.92.51q23.28,10.7,46.56,21.36a1.41,1.41,0,0,1,1,1.51q0,26.14,0,52.28a1.42,1.42,0,0,1-1,1.51q-20.66,9.4-41.28,18.84C453.6,191.55,450.69,192.93,447.78,194.29ZM404.8,119c0,.36-.06.61-.06.86q0,24.13,0,48.26a1.13,1.13,0,0,0,.74,1.19q21.12,10,42.21,20c.25.12.51.19.81.31,0-.33,0-.52,0-.71q0-24.57,0-49.15c0-.78-.35-1.06-1-1.33l-41.8-19.06Zm48,69,.7-.29q20.11-9.51,40.24-19c.65-.31.69-.73.68-1.31v-49c-.45.2-.77.33-1.07.49-3.77,1.84-7.54,3.7-11.32,5.52a1.25,1.25,0,0,0-.83,1.32c0,7.23,0,14.47,0,21.7a1.23,1.23,0,0,1-.75,1.28c-3.81,2.06-7.6,4.16-11.4,6.24-.24.13-.5.23-1,.44v-24l-1.06.48c-4.44,2.18-8.87,4.37-13.32,6.53a1.37,1.37,0,0,0-.92,1.46q0,22.29,0,44.57Zm-43.22-71a2.26,2.26,0,0,0,.34.24q19.82,9,39.64,17.91a1.25,1.25,0,0,0,.91,0c4.61-2.18,9.2-4.38,13.85-6.61a1.76,1.76,0,0,0-.36-.27q-19.15-9-38.31-18a1.22,1.22,0,0,0-.9,0C419.76,112.44,414.74,114.67,409.62,116.94Zm79.71-.36c-.36-.19-.6-.34-.85-.45Q469.67,107.54,450.85,99a2,2,0,0,0-1.43,0c-3.3,1.46-6.58,3-9.86,4.48-.23.11-.45.26-.7.41l.15.11q19.73,8.68,39.45,17.37a1.11,1.11,0,0,0,.8,0C482.59,119.81,485.89,118.22,489.33,116.58Z"/><path class="cls-5" d="M445.78,574.29h-.2a7.3,7.3,0,0,0-.95-.61Q422,562.78,399.37,551.9a1.45,1.45,0,0,1-1-1.54q0-26.18,0-52.36a1.41,1.41,0,0,1,1-1.52q20.37-9.27,40.72-18.6c2.62-1.2,5.23-2.45,7.84-3.68h.39c.31.17.61.36.92.51q23.28,10.69,46.56,21.36a1.41,1.41,0,0,1,1,1.51q0,26.15,0,52.28a1.42,1.42,0,0,1-1,1.51q-20.66,9.4-41.28,18.84C451.6,571.55,448.69,572.93,445.78,574.29ZM402.8,499c0,.36-.06.61-.06.86q0,24.13,0,48.26a1.13,1.13,0,0,0,.74,1.19q21.12,10,42.21,20c.25.12.51.19.81.31,0-.33,0-.52,0-.71q0-24.57,0-49.15c0-.78-.35-1.06-1-1.33l-41.8-19.06Zm48,69,.7-.29q20.11-9.51,40.24-19c.65-.31.69-.73.68-1.31v-49c-.45.2-.77.33-1.07.49-3.77,1.84-7.54,3.7-11.32,5.52a1.25,1.25,0,0,0-.83,1.32c0,7.23,0,14.47,0,21.7a1.23,1.23,0,0,1-.75,1.28c-3.81,2.06-7.6,4.16-11.4,6.24-.24.13-.5.23-1,.44v-24l-1.06.48c-4.44,2.18-8.87,4.37-13.32,6.53a1.37,1.37,0,0,0-.92,1.46q0,22.29,0,44.57Zm-43.22-71a2.26,2.26,0,0,0,.34.24q19.82,9,39.64,17.91a1.25,1.25,0,0,0,.91,0c4.61-2.18,9.2-4.38,13.85-6.61a1.76,1.76,0,0,0-.36-.27q-19.15-9-38.31-18a1.22,1.22,0,0,0-.9,0C417.76,492.44,412.74,494.67,407.62,496.94Zm79.71-.36c-.36-.19-.6-.34-.85-.45q-18.81-8.6-37.63-17.15a2,2,0,0,0-1.43,0c-3.3,1.46-6.58,3-9.86,4.48-.23.11-.45.26-.7.41l.15.11q19.73,8.68,39.45,17.37a1.11,1.11,0,0,0,.8,0C480.59,499.81,483.89,498.22,487.33,496.58Z"/><path class="cls-5" d="M574,194.29h-.2a7.93,7.93,0,0,0-.94-.61q-22.64-10.91-45.27-21.78a1.43,1.43,0,0,1-1-1.54q0-26.18,0-52.36a1.39,1.39,0,0,1,1-1.52q20.37-9.27,40.72-18.6c2.62-1.2,5.23-2.45,7.84-3.68h.39c.31.17.61.36.93.51q23.26,10.7,46.56,21.36a1.41,1.41,0,0,1,1,1.51q0,26.14,0,52.28a1.42,1.42,0,0,1-1,1.51q-20.65,9.4-41.28,18.84C579.8,191.55,576.89,192.93,574,194.29ZM531,119c0,.36-.06.61-.06.86q0,24.13,0,48.26a1.13,1.13,0,0,0,.74,1.19q21.12,10,42.21,20c.25.12.51.19.82.31,0-.33,0-.52,0-.71q0-24.57,0-49.15a1.28,1.28,0,0,0-1-1.33L532,119.35Zm48,69,.7-.29q20.12-9.51,40.24-19c.65-.31.69-.73.69-1.31q0-23.26,0-46.52v-2.47c-.45.2-.76.33-1.07.49-3.77,1.84-7.54,3.7-11.32,5.52a1.25,1.25,0,0,0-.83,1.32c0,7.23,0,14.47,0,21.7a1.25,1.25,0,0,1-.76,1.28c-3.81,2.06-7.6,4.16-11.39,6.24-.25.13-.51.23-1,.44v-24l-1.06.48c-4.44,2.18-8.87,4.37-13.32,6.53a1.36,1.36,0,0,0-.91,1.46q0,22.29,0,44.57Zm-43.22-71a2.94,2.94,0,0,0,.34.24q19.82,9,39.64,17.91a1.25,1.25,0,0,0,.91,0c4.61-2.18,9.21-4.38,13.85-6.61a1.76,1.76,0,0,0-.36-.27q-19.14-9-38.31-18a1.22,1.22,0,0,0-.9,0C546,112.44,541,114.67,535.82,116.94Zm79.71-.36c-.35-.19-.6-.34-.85-.45Q595.87,107.54,577.05,99a2,2,0,0,0-1.43,0c-3.3,1.46-6.58,3-9.86,4.48-.23.11-.45.26-.7.41l.15.11q19.72,8.68,39.45,17.37a1.11,1.11,0,0,0,.8,0C608.79,119.81,612.1,118.22,615.53,116.58Z"/><path class="cls-5" d="M700.18,194.29H700a7.93,7.93,0,0,0-.94-.61q-22.63-10.91-45.27-21.78a1.44,1.44,0,0,1-1-1.54q0-26.18,0-52.36a1.41,1.41,0,0,1,1-1.52q20.37-9.27,40.72-18.6c2.63-1.2,5.23-2.45,7.84-3.68h.39c.31.17.61.36.93.51q23.26,10.7,46.56,21.36a1.41,1.41,0,0,1,1,1.51q0,26.14,0,52.28a1.41,1.41,0,0,1-1,1.51q-20.66,9.4-41.28,18.84C706,191.55,703.09,192.93,700.18,194.29ZM657.2,119c0,.36-.06.61-.06.86q0,24.13,0,48.26a1.13,1.13,0,0,0,.74,1.19l42.22,20c.24.12.5.19.81.31,0-.33,0-.52,0-.71q0-24.57,0-49.15a1.28,1.28,0,0,0-1-1.33l-41.8-19.06Zm48,69,.7-.29q20.12-9.51,40.24-19c.65-.31.69-.73.69-1.31q0-23.26,0-46.52v-2.47c-.44.2-.76.33-1.07.49-3.77,1.84-7.53,3.7-11.32,5.52a1.26,1.26,0,0,0-.83,1.32c0,7.23,0,14.47,0,21.7a1.25,1.25,0,0,1-.76,1.28c-3.81,2.06-7.6,4.16-11.39,6.24-.25.13-.51.23-1,.44v-24c-.48.22-.78.34-1.06.48-4.44,2.18-8.87,4.37-13.33,6.53a1.37,1.37,0,0,0-.91,1.46q0,22.29,0,44.57Zm-43.22-71a2.18,2.18,0,0,0,.35.24q19.82,9,39.64,17.91a1.22,1.22,0,0,0,.9,0c4.61-2.18,9.21-4.38,13.86-6.61a2.55,2.55,0,0,0-.36-.27q-19.15-9-38.32-18a1.19,1.19,0,0,0-.89,0C672.17,112.44,667.15,114.67,662,116.94Zm79.71-.36c-.35-.19-.59-.34-.85-.45Q722.07,107.54,703.25,99a2,2,0,0,0-1.43,0c-3.3,1.46-6.57,3-9.85,4.48a7.56,7.56,0,0,0-.71.41l.15.11,39.45,17.37a1.13,1.13,0,0,0,.81,0C735,119.81,738.3,118.22,741.73,116.58Z"/><path class="cls-5" d="M503.71,421H378.41c.54-12,10.83-24.77,22.29-27.47a5.89,5.89,0,0,0,4.61-5.4,144.27,144.27,0,0,0,1.62-19.77c0-7.69-1.34-15.36-1.35-23a49.09,49.09,0,0,1,5-21.76c5.68-11.54,14.88-17.49,27.89-17.19,3.28.08,6.59-.18,9.81.28,10.6,1.5,18,7.5,22.38,17.11,5.22,11.49,6.1,23.54,4.3,36-1.22,8.48-1.71,17,.12,25.55a22.08,22.08,0,0,0,2.2,5.88,4.67,4.67,0,0,0,2.85,2.13c8.52,1.63,14.14,6.91,17.91,14.29C500.19,411.76,501.73,416.25,503.71,421Zm-36-71.45c-2.18,4.19-4.64,2.22-7.18.9q-14.62-7.59-29.29-15.08c-4.07-2.09-8-1.76-10.77,1.89-2.21,2.95-3.37,6.68-5,10.07-.39.82-.47,2-1.09,2.46-3.46,2.74-2.79,11,1.1,13.25a5.2,5.2,0,0,1,2.09,2.29,43.16,43.16,0,0,0,10.05,15.21c8.24,7.72,17.73,7.79,26,.16a41.57,41.57,0,0,0,10.1-15.19,5.06,5.06,0,0,1,1.39-2.31A9.77,9.77,0,0,0,467.7,349.55ZM417.77,392.2c1.75,5.65,13,11.6,22.84,11.6s21-5.92,22.88-11.68L457,385c-10.19,8.77-20.53,10.39-32.6,0C422.26,387.36,420.11,389.67,417.77,392.2Z"/><rect class="cls-6" x="40" y="641" width="815" height="13"/><polygon class="cls-6" points="182.06 234.82 172.22 246.17 192.65 264.34 233.52 215.9 217.63 215.9 193.41 245.41 182.06 234.82"/><polygon class="cls-6" points="308.26 234.82 298.42 246.17 318.86 264.34 359.72 215.9 343.83 215.9 319.61 245.41 308.26 234.82"/><polygon class="cls-6" points="434.46 234.82 424.62 246.17 445.06 264.34 485.93 215.9 470.03 215.9 445.81 245.41 434.46 234.82"/><polygon class="cls-6" points="560.66 234.82 550.82 246.17 571.26 264.34 612.13 215.9 596.23 215.9 572.01 245.41 560.66 234.82"/><polygon class="cls-6" points="686.86 234.82 677.02 246.17 697.46 264.34 738.33 215.9 722.43 215.9 698.22 245.41 686.86 234.82"/></svg>