<?xml version="1.0" encoding="utf-8"?>
<!-- Generator: Adobe Illustrator 22.1.0, SVG Export Plug-In . SVG Version: 6.00 Build 0)  -->
<svg version="1.1" id="Layer_1" xmlns="http://www.w3.org/2000/svg" xmlns:xlink="http://www.w3.org/1999/xlink" x="0px" y="0px"
	 viewBox="0 0 900 900" style="enable-background:new 0 0 900 900;" xml:space="preserve">
<style type="text/css">
	.st0{fill:#07448E;}
	.st1{fill:#F7EEC9;}
	.st2{fill:#F9C7E4;}
	.st3{enable-background:new    ;}
</style>
<title>1-developer-ci-publishing</title>
<rect class="st0" width="900" height="900"/>
<path class="st1" d="M297,135.7h-0.1c-0.2-0.1-0.4-0.3-0.6-0.4l-27.4-13.2c-0.4-0.1-0.6-0.5-0.6-0.9V89.5c0-0.4,0.2-0.8,0.6-0.9
	c8.3-3.7,16.5-7.5,24.7-11.3c1.6-0.7,3.2-1.5,4.8-2.2h0.3c0.2,0.1,0.4,0.2,0.6,0.3l28.2,12.9c0.4,0.1,0.7,0.5,0.6,0.9
	c0,10.6,0,21.1,0,31.7c0,0.4-0.2,0.8-0.6,0.9l-25,11.4C300.6,134.1,298.8,134.9,297,135.7z M271,90.1c0,0.2,0,0.4,0,0.5v29.2
	c0,0.3,0.2,0.6,0.5,0.7l25.5,12.1c0.1,0.1,0.3,0.1,0.5,0.2v-30.2c0-0.4-0.2-0.7-0.6-0.8l-25.3-11.6L271,90.1z M300.1,131.9l0.4-0.2
	l24.4-11.5c0.4-0.2,0.4-0.5,0.4-0.8V89.7l-0.6,0.3c-2.3,1.1-4.6,2.2-6.9,3.3c-0.3,0.1-0.5,0.4-0.5,0.8v13.2c0,0.3-0.2,0.6-0.5,0.8
	c-2.3,1.2-4.6,2.5-6.9,3.8c-0.1,0.1-0.3,0.1-0.6,0.3V97.6l-0.6,0.3c-2.7,1.3-5.4,2.7-8.1,4c-0.4,0.1-0.6,0.5-0.5,0.9v27L300.1,131.9
	z M273.9,88.9c0.1,0.1,0.1,0.1,0.2,0.2l24,10.8c0.2,0.1,0.4,0.1,0.5,0c2.8-1.3,5.6-2.7,8.4-4c-0.1-0.1-0.1-0.1-0.2-0.2l-23.2-10.9
	c-0.2-0.1-0.4-0.1-0.5,0C280.1,86.1,277,87.5,273.9,88.9L273.9,88.9z M322.2,88.7c-0.2-0.1-0.4-0.2-0.5-0.3
	c-7.6-3.5-15.2-7-22.8-10.4c-0.3-0.1-0.6-0.1-0.9,0c-2,0.9-4,1.8-6,2.7l-0.4,0.2l0.1,0.1l23.9,10.5c0.2,0.1,0.3,0.1,0.5,0
	C318.1,90.5,320.1,89.7,322.2,88.7L322.2,88.7z"/>
<path class="st1" d="M373.5,135.7h-0.1c-0.2-0.1-0.4-0.3-0.6-0.4l-27.4-13.2c-0.4-0.1-0.6-0.5-0.6-0.9V89.5c0-0.4,0.2-0.8,0.6-0.9
	c8.2-3.7,16.5-7.5,24.7-11.3c1.6-0.7,3.2-1.5,4.8-2.2h0.2c0.2,0.1,0.4,0.2,0.6,0.3l28.2,12.9c0.4,0.1,0.6,0.5,0.6,0.9
	c0,10.6,0,21.1,0,31.7c0,0.4-0.2,0.8-0.6,0.9l-25,11.4C377,134.1,375.3,134.9,373.5,135.7z M347.5,90.1c0,0.2,0,0.4,0,0.5v29.2
	c0,0.3,0.2,0.6,0.5,0.7l25.6,12.1c0.1,0.1,0.3,0.1,0.5,0.2v-30.2c0-0.4-0.2-0.7-0.6-0.8L348,90.3L347.5,90.1z M376.6,131.9l0.4-0.2
	l24.4-11.5c0.4-0.2,0.4-0.5,0.4-0.8V89.7l-0.6,0.3l-6.9,3.3c-0.3,0.1-0.5,0.4-0.5,0.8v13.2c0,0.3-0.1,0.7-0.5,0.8
	c-2.3,1.2-4.6,2.5-6.9,3.8c-0.1,0.1-0.3,0.1-0.6,0.3V97.6l-0.6,0.3c-2.7,1.3-5.4,2.7-8.1,4c-0.4,0.1-0.6,0.5-0.6,0.9v27L376.6,131.9
	z M350.4,88.9c0.1,0.1,0.1,0.1,0.2,0.2l24,10.8c0.2,0.1,0.4,0.1,0.5,0l8.4-4l-0.2-0.2l-23.2-10.9c-0.2-0.1-0.4-0.1-0.5,0
	C356.5,86.1,353.5,87.5,350.4,88.9L350.4,88.9z M398.7,88.7l-0.5-0.3L375.4,78c-0.3-0.1-0.6-0.1-0.9,0c-2,0.9-4,1.8-6,2.7l-0.4,0.2
	l0.1,0.1L392,91.5c0.2,0.1,0.3,0.1,0.5,0C394.5,90.5,396.5,89.7,398.7,88.7L398.7,88.7z"/>
<path class="st1" d="M450,135.7h-0.1c-0.2-0.1-0.4-0.3-0.6-0.4l-27.4-13.2c-0.4-0.1-0.6-0.5-0.6-0.9V89.5c-0.1-0.4,0.2-0.8,0.6-0.9
	c8.2-3.7,16.4-7.5,24.6-11.3c1.6-0.7,3.2-1.5,4.8-2.2h0.2c0.2,0.1,0.4,0.2,0.6,0.3l28.2,12.9c0.4,0.1,0.6,0.5,0.6,0.9
	c0,10.6,0,21.1,0,31.7c0,0.4-0.2,0.8-0.6,0.9l-25,11.4C453.5,134.1,451.7,134.9,450,135.7z M424,90.1c0,0.2,0,0.4,0,0.5v29.2
	c0,0.3,0.2,0.6,0.5,0.7l25.6,12.1c0.1,0.1,0.3,0.1,0.5,0.2v-30.2c0-0.4-0.2-0.7-0.6-0.8l-25.4-11.6L424,90.1z M453.1,131.9l0.4-0.2
	l24.4-11.5c0.4-0.2,0.4-0.5,0.4-0.8V89.7l-0.6,0.3c-2.3,1.1-4.6,2.2-6.9,3.3c-0.3,0.1-0.5,0.4-0.5,0.8v13.2c0,0.3-0.2,0.6-0.5,0.8
	c-2.3,1.2-4.6,2.5-6.9,3.8c-0.1,0.1-0.3,0.1-0.6,0.3V97.6l-0.6,0.3c-2.7,1.3-5.4,2.7-8.1,4c-0.4,0.1-0.6,0.5-0.5,0.9v27L453.1,131.9
	z M426.9,88.9c0.1,0.1,0.1,0.1,0.2,0.2l24,10.8c0.2,0.1,0.4,0.1,0.5,0c2.8-1.3,5.6-2.7,8.4-4c-0.1-0.1-0.1-0.1-0.2-0.2l-23.2-10.9
	c-0.2-0.1-0.4-0.1-0.5,0C433,86.1,430,87.5,426.9,88.9L426.9,88.9z M475.2,88.7l-0.5-0.3L451.9,78c-0.3-0.1-0.6-0.1-0.9,0
	c-2,0.9-4,1.8-6,2.7l-0.4,0.2l0.1,0.1l23.9,10.5c0.2,0.1,0.3,0.1,0.5,0C471.1,90.6,473.1,89.6,475.2,88.7L475.2,88.7z"/>
<path class="st1" d="M444.6,280.7h-0.1c-0.2-0.1-0.4-0.3-0.6-0.4l-27.4-13.2c-0.4-0.1-0.6-0.5-0.6-0.9v-31.7
	c-0.1-0.4,0.2-0.8,0.6-0.9c8.2-3.7,16.5-7.5,24.7-11.3c1.6-0.7,3.2-1.5,4.8-2.2h0.2c0.2,0.1,0.4,0.2,0.6,0.3l28.2,12.9
	c0.4,0.1,0.7,0.5,0.6,0.9c0,10.6,0,21.1,0,31.7c0,0.4-0.2,0.8-0.6,0.9c-8.3,3.8-16.7,7.6-25,11.4C448.2,279,446.4,279.9,444.6,280.7
	z M418.6,235c0,0.2,0,0.4,0,0.5v29.3c0,0.3,0.2,0.6,0.5,0.7l25.6,12.1c0.2,0.1,0.3,0.1,0.5,0.2v-30.2c0-0.4-0.2-0.7-0.6-0.8
	l-25.3-11.6L418.6,235z M447.7,276.8l0.4-0.2l24.4-11.5c0.4-0.2,0.4-0.5,0.4-0.8v-29.7l-0.6,0.3l-6.9,3.3c-0.3,0.1-0.5,0.5-0.5,0.8
	v13.1c0,0.3-0.2,0.6-0.5,0.8l-6.9,3.8c-0.1,0.1-0.3,0.1-0.6,0.3v-14.5l-0.6,0.3c-2.7,1.3-5.4,2.6-8.1,4c-0.4,0.1-0.6,0.5-0.6,0.9v27
	L447.7,276.8z M421.5,233.8c0.1,0.1,0.1,0.1,0.2,0.1l24,10.9c0.2,0.1,0.4,0.1,0.5,0l8.4-4c-0.1-0.1-0.1-0.1-0.2-0.2
	c-7.7-3.6-15.5-7.3-23.2-10.9c-0.2-0.1-0.4-0.1-0.5,0C427.7,231.1,424.6,232.4,421.5,233.8L421.5,233.8z M469.8,233.6
	c-0.2-0.1-0.4-0.2-0.5-0.3l-22.8-10.4c-0.3-0.1-0.6-0.1-0.9,0c-2,0.9-4,1.8-6,2.7c-0.1,0.1-0.3,0.2-0.4,0.2l0.1,0.1l23.9,10.5
	c0.2,0.1,0.3,0.1,0.5,0L469.8,233.6z"/>
<path class="st1" d="M526.5,135.7h-0.1c-0.2-0.1-0.4-0.3-0.6-0.4l-27.4-13.2c-0.4-0.1-0.6-0.5-0.6-0.9V89.5
	c-0.1-0.4,0.2-0.8,0.6-0.9c8.2-3.7,16.5-7.5,24.7-11.3c1.6-0.7,3.2-1.5,4.8-2.2h0.2c0.2,0.1,0.4,0.2,0.6,0.3l28.2,12.9
	c0.4,0.1,0.7,0.5,0.6,0.9c0,10.6,0,21.1,0,31.7c0,0.4-0.2,0.8-0.6,0.9l-25,11.4C530,134.1,528.2,134.9,526.5,135.7z M500.5,90.1
	c0,0.2,0,0.4,0,0.5v29.2c0,0.3,0.2,0.6,0.5,0.7l25.6,12.1c0.2,0.1,0.3,0.1,0.5,0.2v-30.2c0-0.4-0.2-0.7-0.6-0.8
	c-8.5-3.9-17-7.7-25.4-11.6L500.5,90.1z M529.6,131.9l0.4-0.2l24.4-11.5c0.4-0.2,0.4-0.5,0.4-0.8V89.7l-0.7,0.3
	c-2.3,1.1-4.6,2.2-6.9,3.3c-0.3,0.1-0.5,0.4-0.5,0.8v13.2c0,0.3-0.2,0.6-0.5,0.8c-2.3,1.2-4.6,2.5-6.9,3.8c-0.2,0.1-0.3,0.1-0.6,0.3
	V97.6l-0.6,0.3c-2.7,1.3-5.4,2.7-8.1,4c-0.4,0.1-0.6,0.5-0.6,0.9v27L529.6,131.9z M503.4,88.9l0.2,0.2l24,10.8
	c0.2,0.1,0.4,0.1,0.5,0c2.8-1.3,5.6-2.7,8.4-4c-0.1-0.1-0.1-0.1-0.2-0.2l-23.2-10.9c-0.2-0.1-0.4-0.1-0.5,0
	C509.5,86.1,506.4,87.5,503.4,88.9L503.4,88.9z M551.7,88.7c-0.2-0.1-0.4-0.2-0.5-0.3L528.3,78c-0.3-0.1-0.6-0.1-0.9,0
	c-2,0.9-4,1.8-6,2.7l-0.4,0.2l0.1,0.1L545,91.5c0.2,0.1,0.3,0.1,0.5,0C547.5,90.6,549.5,89.6,551.7,88.7L551.7,88.7z"/>
<path class="st1" d="M602.9,135.7h-0.1c-0.2-0.1-0.4-0.3-0.6-0.4l-27.4-13.2c-0.4-0.1-0.6-0.5-0.6-0.9V89.5
	c-0.1-0.4,0.2-0.8,0.6-0.9c8.2-3.7,16.5-7.5,24.7-11.3c1.6-0.7,3.2-1.5,4.8-2.2h0.2c0.2,0.1,0.4,0.2,0.6,0.3l28.2,12.9
	c0.4,0.1,0.6,0.5,0.6,0.9c0,10.6,0,21.1,0,31.7c0,0.4-0.2,0.8-0.6,0.9l-25,11.4C606.5,134.1,604.7,134.9,602.9,135.7z M576.9,90.1
	c0,0.2,0,0.4,0,0.5v29.2c0,0.3,0.1,0.6,0.5,0.7l25.6,12.1c0.2,0.1,0.3,0.1,0.5,0.2v-30.2c0-0.4-0.2-0.7-0.6-0.8l-25.4-11.6
	L576.9,90.1z M606,131.9l0.4-0.2l24.4-11.5c0.4-0.2,0.4-0.5,0.4-0.8V89.7l-0.6,0.3c-2.3,1.1-4.6,2.2-6.9,3.3
	c-0.3,0.1-0.5,0.4-0.5,0.8v13.2c0,0.3-0.2,0.6-0.5,0.8c-2.3,1.2-4.6,2.5-6.9,3.8c-0.2,0.1-0.3,0.1-0.6,0.3V97.6l-0.6,0.3
	c-2.7,1.3-5.4,2.7-8.1,4c-0.4,0.1-0.6,0.5-0.6,0.9v27L606,131.9z M579.8,88.9L580,89l24,10.8c0.2,0.1,0.4,0.1,0.5,0
	c2.8-1.3,5.6-2.7,8.4-4c-0.1-0.1-0.1-0.1-0.2-0.2l-23.2-10.9c-0.2-0.1-0.4-0.1-0.5,0C586,86.1,582.9,87.5,579.8,88.9L579.8,88.9z
	 M628.1,88.7c-0.2-0.1-0.4-0.2-0.5-0.3L604.8,78c-0.3-0.1-0.6-0.1-0.9,0c-2,0.9-4,1.8-6,2.7c-0.1,0.1-0.3,0.2-0.4,0.2l0.1,0.1
	l23.9,10.5c0.2,0.1,0.3,0.1,0.5,0C624,90.6,626,89.6,628.1,88.7L628.1,88.7z"/>
<path class="st1" d="M486,438.4h-75.9c0.3-7.3,6.6-15,13.5-16.6c1.6-0.3,2.7-1.7,2.8-3.3c0.6-4,0.9-8,1-12c0-4.6-0.8-9.3-0.8-14
	c0-4.6,1-9.1,3-13.2c3.4-7,9-10.6,16.9-10.4c2-0.1,4,0,6,0.2c6.4,0.9,10.9,4.5,13.5,10.4c3.2,7,3.7,14.3,2.6,21.8
	c-0.9,5.1-0.9,10.4,0.1,15.5c0.3,1.2,0.7,2.4,1.3,3.6c0.4,0.6,1,1.1,1.7,1.3c5.2,1,8.6,4.2,10.9,8.7
	C483.9,432.9,484.8,435.6,486,438.4z M464.2,395.1c-1.3,2.5-2.8,1.3-4.4,0.5c-5.9-3.1-11.8-6.1-17.8-9.1c-2.5-1.3-4.9-1.1-6.5,1.1
	c-1.3,1.8-2,4-3,6.1c-0.2,0.5-0.3,1.2-0.7,1.5c-2.1,1.7-1.7,6.7,0.7,8c0.6,0.3,1,0.8,1.3,1.4c1.3,3.5,3.4,6.6,6.1,9.2
	c5,4.7,10.7,4.7,15.8,0.1c2.7-2.6,4.8-5.7,6.1-9.2c0.2-0.5,0.4-1,0.8-1.4C465.4,401.5,466.1,397.9,464.2,395.1L464.2,395.1z
	 M433.9,421c1.1,3.4,7.9,7,13.9,7s12.7-3.6,13.9-7.1l-3.9-4.3c-6.2,5.3-12.5,6.3-19.8,0L433.9,421z"/>
<rect x="40" y="641" class="st2" width="815" height="13"/>
<polygon class="st2" points="289,160.3 283,167.1 295.4,178.2 320.1,148.8 310.5,148.8 295.9,166.7 "/>
<polygon class="st2" points="365.4,160.3 359.5,167.1 371.9,178.2 396.6,148.8 387,148.8 372.3,166.7 "/>
<polygon class="st2" points="441.9,160.3 436,167.1 448.3,178.2 473.1,148.8 463.5,148.8 448.8,166.7 "/>
<polygon class="st2" points="435.4,316 429.5,322.9 441.9,333.9 466.6,304.5 457,304.5 442.3,322.4 "/>
<polygon class="st2" points="518.4,160.3 512.4,167.1 524.8,178.2 549.6,148.8 539.9,148.8 525.3,166.7 "/>
<polygon class="st2" points="594.8,160.3 588.9,167.1 601.3,178.2 626,148.8 616.4,148.8 601.7,166.7 "/>
<g class="st3">
	<path class="st2" d="M51.1,695.2l-7.8,5.7v-8.2l7.8-5.7h7.8v54.1h-7.8V695.2z"/>
	<path class="st2" d="M85.3,687h11.5c4.4,0,7.8,1.2,10.1,3.7c2.3,2.5,3.5,5.9,3.5,10.3v25.3c0,5.1-1.2,8.8-3.7,11.2
		c-2.5,2.4-6,3.6-10.6,3.6H85.3V687z M93.1,733.8h3.6c2.2,0,3.7-0.5,4.6-1.6c0.9-1.1,1.4-2.8,1.4-5.1V701c0-2.1-0.4-3.8-1.3-4.9
		c-0.9-1.2-2.4-1.7-4.7-1.7h-3.6V733.8z"/>
	<path class="st2" d="M117.7,687h23.1v7.3h-15.4v15.9h13.4v7.3h-13.4v15.9h15.4v7.8h-23.1V687z"/>
	<path class="st2" d="M161,741.1h-6.8l-11-54.1h8.2l6.2,37.8h0.2l6.2-37.8h8.2L161,741.1z"/>
	<path class="st2" d="M176.8,687h23.1v7.3h-15.4v15.9h13.4v7.3h-13.4v15.9h15.4v7.8h-23.1V687z"/>
	<path class="st2" d="M204.9,687h7.8v46.4H228v7.8h-23.1V687z"/>
	<path class="st2" d="M232.5,699.8c0-2.2,0.4-4.1,1.1-5.8c0.8-1.7,1.8-3.1,3-4.1c1.2-1.1,2.6-1.9,4.2-2.5c1.5-0.6,3.1-0.8,4.7-0.8
		c1.6,0,3.1,0.3,4.7,0.8c1.5,0.6,2.9,1.4,4.2,2.5c1.2,1.1,2.2,2.5,3,4.1c0.8,1.7,1.1,3.6,1.1,5.8v28.6c0,2.2-0.4,4.2-1.1,5.8
		c-0.8,1.6-1.8,3-3,4.1c-1.2,1.1-2.6,1.9-4.2,2.5c-1.5,0.6-3.1,0.8-4.7,0.8c-1.6,0-3.1-0.3-4.7-0.8c-1.5-0.6-2.9-1.4-4.2-2.5
		c-1.2-1.1-2.2-2.5-3-4.1c-0.8-1.6-1.1-3.6-1.1-5.8V699.8z M240.3,728.3c0,1.9,0.5,3.3,1.6,4.1c1,0.9,2.3,1.3,3.7,1.3
		c1.4,0,2.6-0.4,3.7-1.3c1-0.9,1.6-2.3,1.6-4.1v-28.6c0-1.9-0.5-3.3-1.6-4.1c-1-0.9-2.3-1.3-3.7-1.3c-1.4,0-2.6,0.4-3.7,1.3
		c-1,0.9-1.6,2.3-1.6,4.1V728.3z"/>
	<path class="st2" d="M265.4,687H277c2.1,0,4,0.3,5.6,0.8c1.6,0.6,3.1,1.5,4.4,3c1.3,1.4,2.2,3.1,2.7,5c0.5,1.9,0.8,4.5,0.8,7.7
		c0,2.4-0.1,4.4-0.4,6.1c-0.3,1.7-0.9,3.3-1.8,4.8c-1.1,1.8-2.5,3.2-4.3,4.1c-1.8,1-4.1,1.5-7,1.5h-4v21.1h-7.8V687z M273.1,712.7
		h3.7c1.6,0,2.8-0.2,3.6-0.7c0.9-0.5,1.5-1.1,1.9-1.9c0.4-0.8,0.6-1.7,0.7-2.9c0.1-1.1,0.1-2.4,0.1-3.7c0-1.3,0-2.5-0.1-3.6
		c-0.1-1.1-0.3-2.1-0.7-3s-1-1.5-1.8-2c-0.8-0.5-2-0.7-3.5-0.7h-4V712.7z"/>
	<path class="st2" d="M296.3,687h23.1v7.3h-15.4v15.9h13.4v7.3h-13.4v15.9h15.4v7.8h-23.1V687z"/>
	<path class="st2" d="M324.4,687h12.5c9.1,0,13.7,5.3,13.7,15.9c0,3.1-0.5,5.8-1.5,8.1c-1,2.3-2.7,4.1-5.2,5.4l8.4,24.7H344
		l-7.2-23.1h-4.6v23.1h-7.8V687z M332.2,711.2h4.4c1.4,0,2.5-0.2,3.3-0.6c0.8-0.4,1.4-0.9,1.9-1.6c0.4-0.7,0.7-1.6,0.9-2.6
		c0.2-1,0.2-2.2,0.2-3.6s-0.1-2.6-0.2-3.6c-0.2-1-0.5-1.9-1-2.7c-0.5-0.7-1.2-1.3-2-1.6c-0.9-0.4-2-0.5-3.4-0.5h-4V711.2z"/>
	<path class="st2" d="M356.3,733.4h7.8v7.8l-7.8,5.6V733.4z"/>
	<path class="st2" d="M409.7,729c0,1.7-0.3,3.3-1,4.8c-0.6,1.5-1.5,2.8-2.6,4c-1.1,1.1-2.4,2.1-3.9,2.7c-1.5,0.7-3.1,1-4.8,1
		c-1.5,0-3-0.2-4.5-0.6c-1.5-0.4-2.9-1.1-4.1-2.1c-1.2-1-2.2-2.3-3-3.9c-0.8-1.6-1.2-3.7-1.2-6.2V699c0-1.8,0.3-3.4,0.9-4.9
		c0.6-1.5,1.5-2.8,2.6-4c1.1-1.1,2.4-2,4-2.6c1.5-0.6,3.3-1,5.1-1c1.8,0,3.4,0.3,4.9,1c1.5,0.6,2.8,1.5,4,2.7c1.1,1.1,2,2.5,2.6,4.1
		c0.6,1.6,1,3.3,1,5.2v3h-7.8v-2.6c0-1.5-0.4-2.8-1.3-4c-0.9-1.1-2-1.7-3.5-1.7c-1.9,0-3.2,0.6-3.8,1.8c-0.6,1.2-1,2.7-1,4.5v27.7
		c0,1.6,0.3,2.9,1,4c0.7,1.1,1.9,1.6,3.7,1.6c0.5,0,1.1-0.1,1.6-0.3c0.6-0.2,1.1-0.5,1.6-0.9c0.5-0.4,0.9-1,1.2-1.7
		c0.3-0.7,0.5-1.6,0.5-2.7v-2.7h7.8V729z"/>
	<path class="st2" d="M416.2,687h7.8v54.1h-7.8V687z"/>
	<path class="st2" d="M460.8,741.1H454L443,687h8.2l6.2,37.8h0.2l6.2-37.8h8.2L460.8,741.1z"/>
	<path class="st2" d="M476.6,687h23.1v7.3h-15.4v15.9h13.4v7.3h-13.4v15.9h15.4v7.8h-23.1V687z"/>
	<path class="st2" d="M504.7,687h12.5c9.1,0,13.7,5.3,13.7,15.9c0,3.1-0.5,5.8-1.5,8.1c-1,2.3-2.7,4.1-5.2,5.4l8.4,24.7h-8.2
		l-7.2-23.1h-4.6v23.1h-7.8V687z M512.4,711.2h4.4c1.4,0,2.5-0.2,3.3-0.6c0.8-0.4,1.4-0.9,1.9-1.6c0.4-0.7,0.7-1.6,0.9-2.6
		c0.2-1,0.2-2.2,0.2-3.6s-0.1-2.6-0.2-3.6c-0.2-1-0.5-1.9-0.9-2.7c-0.5-0.7-1.2-1.3-2-1.6c-0.9-0.4-2-0.5-3.4-0.5h-4V711.2z"/>
	<path class="st2" d="M537.3,687h7.8v54.1h-7.8V687z"/>
	<path class="st2" d="M552.6,687h23.1v7.3h-15.4v16.4h13.4v7.3h-13.4v23.1h-7.8V687z"/>
	<path class="st2" d="M580.9,687h7.8v54.1h-7.8V687z"/>
	<path class="st2" d="M596.2,687h23.1v7.3H604v15.9h13.4v7.3H604v15.9h15.4v7.8h-23.1V687z"/>
	<path class="st2" d="M624.3,687h11.5c4.4,0,7.8,1.2,10.1,3.7c2.3,2.5,3.5,5.9,3.5,10.3v25.3c0,5.1-1.2,8.8-3.7,11.2
		c-2.5,2.4-6,3.6-10.6,3.6h-10.8V687z M632.1,733.8h3.6c2.2,0,3.7-0.5,4.6-1.6c0.9-1.1,1.4-2.8,1.4-5.1V701c0-2.1-0.4-3.8-1.3-4.9
		c-0.9-1.2-2.4-1.7-4.7-1.7h-3.6V733.8z"/>
	<path class="st2" d="M656.2,733.4h7.8v7.8l-7.8,5.6V733.4z"/>
</g>
<g class="st3">
	<path class="st2" d="M42.9,778.2h11.5c4.4,0,7.8,1.2,10.1,3.7c2.3,2.5,3.5,5.9,3.5,10.3v25.3c0,5.1-1.2,8.8-3.7,11.2
		c-2.5,2.4-6,3.6-10.6,3.6H42.9V778.2z M50.7,825h3.6c2.2,0,3.7-0.5,4.6-1.6c0.9-1.1,1.4-2.8,1.4-5.1v-26.1c0-2.1-0.4-3.8-1.3-4.9
		c-0.9-1.2-2.4-1.7-4.7-1.7h-3.6V825z"/>
	<path class="st2" d="M75.3,778.2h23.1v7.3H83.1v15.9h13.4v7.3H83.1v15.9h15.4v7.8H75.3V778.2z"/>
	<path class="st2" d="M118.6,832.3h-6.8l-11-54.1h8.2l6.2,37.8h0.2l6.2-37.8h8.2L118.6,832.3z"/>
	<path class="st2" d="M134.4,778.2h23.1v7.3h-15.4v15.9h13.4v7.3h-13.4v15.9h15.4v7.8h-23.1V778.2z"/>
	<path class="st2" d="M162.5,778.2h7.8v46.4h15.4v7.8h-23.1V778.2z"/>
	<path class="st2" d="M190.1,791c0-2.2,0.4-4.1,1.1-5.8c0.8-1.7,1.8-3.1,3-4.1c1.2-1.1,2.6-1.9,4.2-2.5c1.5-0.6,3.1-0.8,4.7-0.8
		c1.6,0,3.1,0.3,4.7,0.8c1.5,0.6,2.9,1.4,4.2,2.5c1.2,1.1,2.2,2.5,3,4.1c0.8,1.7,1.1,3.6,1.1,5.8v28.6c0,2.2-0.4,4.2-1.1,5.8
		c-0.8,1.6-1.8,3-3,4.1c-1.2,1.1-2.6,1.9-4.2,2.5c-1.5,0.6-3.1,0.8-4.7,0.8c-1.6,0-3.1-0.3-4.7-0.8c-1.5-0.6-2.9-1.4-4.2-2.5
		c-1.2-1.1-2.2-2.5-3-4.1c-0.8-1.6-1.1-3.6-1.1-5.8V791z M197.9,819.5c0,1.9,0.5,3.3,1.6,4.1c1,0.9,2.3,1.3,3.7,1.3
		c1.4,0,2.6-0.4,3.7-1.3c1-0.9,1.6-2.3,1.6-4.1V791c0-1.9-0.5-3.3-1.6-4.1c-1-0.9-2.3-1.3-3.7-1.3c-1.4,0-2.6,0.4-3.7,1.3
		c-1,0.9-1.6,2.3-1.6,4.1V819.5z"/>
	<path class="st2" d="M223,778.2h11.6c2.1,0,4,0.3,5.6,0.8c1.6,0.6,3.1,1.5,4.4,3c1.3,1.4,2.2,3.1,2.7,5c0.5,1.9,0.8,4.5,0.8,7.7
		c0,2.4-0.1,4.4-0.4,6.1c-0.3,1.7-0.9,3.3-1.8,4.8c-1.1,1.8-2.5,3.2-4.3,4.1c-1.8,1-4.1,1.5-7,1.5h-4v21.1H223V778.2z M230.7,803.9
		h3.7c1.6,0,2.8-0.2,3.6-0.7c0.9-0.5,1.5-1.1,1.9-1.9c0.4-0.8,0.6-1.7,0.7-2.9c0.1-1.1,0.1-2.4,0.1-3.7c0-1.3,0-2.5-0.1-3.6
		c-0.1-1.1-0.3-2.1-0.7-3s-1-1.5-1.8-2c-0.8-0.5-2-0.7-3.5-0.7h-4V803.9z"/>
	<path class="st2" d="M253.9,778.2H277v7.3h-15.4v15.9H275v7.3h-13.4v15.9H277v7.8h-23.1V778.2z"/>
	<path class="st2" d="M282,778.2h12.5c9.1,0,13.7,5.3,13.7,15.9c0,3.1-0.5,5.8-1.5,8.1c-1,2.3-2.7,4.1-5.2,5.4l8.4,24.7h-8.2
		l-7.2-23.1h-4.6v23.1H282V778.2z M289.8,802.4h4.4c1.4,0,2.5-0.2,3.3-0.6c0.8-0.4,1.4-0.9,1.9-1.6c0.4-0.7,0.7-1.6,0.9-2.6
		c0.2-1,0.2-2.2,0.2-3.6s-0.1-2.6-0.2-3.6c-0.2-1-0.5-1.9-1-2.7c-0.5-0.7-1.2-1.3-2-1.6c-0.9-0.4-2-0.5-3.4-0.5h-4V802.4z"/>
	<path class="st2" d="M328.5,778.2h11.6c2.1,0,4,0.3,5.6,0.8c1.6,0.6,3.1,1.5,4.4,3c1.3,1.4,2.2,3.1,2.7,5c0.5,1.9,0.8,4.5,0.8,7.7
		c0,2.4-0.1,4.4-0.4,6.1c-0.3,1.7-0.9,3.3-1.8,4.8c-1.1,1.8-2.5,3.2-4.3,4.1c-1.8,1-4.1,1.5-7,1.5h-4v21.1h-7.8V778.2z M336.3,803.9
		h3.7c1.6,0,2.8-0.2,3.6-0.7c0.9-0.5,1.5-1.1,1.9-1.9c0.4-0.8,0.6-1.7,0.7-2.9c0.1-1.1,0.1-2.4,0.1-3.7c0-1.3,0-2.5-0.1-3.6
		c-0.1-1.1-0.3-2.1-0.7-3s-1-1.5-1.8-2c-0.8-0.5-2-0.7-3.5-0.7h-4V803.9z"/>
	<path class="st2" d="M384.5,820.1c0,1.8-0.3,3.4-1,4.9c-0.7,1.5-1.6,2.8-2.7,4c-1.1,1.1-2.5,2-4,2.7c-1.5,0.7-3.1,1-4.9,1
		c-1.7,0-3.3-0.3-4.9-1c-1.5-0.7-2.9-1.6-4-2.7c-1.1-1.1-2-2.5-2.7-4c-0.7-1.5-1-3.2-1-4.9v-42h7.8v41.2c0,1.9,0.5,3.3,1.4,4.3
		s2.1,1.4,3.4,1.4s2.5-0.5,3.4-1.4s1.4-2.3,1.4-4.3v-41.2h7.8V820.1z"/>
	<path class="st2" d="M391.8,778.2h11.3c2.5,0,4.6,0.4,6.3,1.1c1.7,0.8,3.2,1.8,4.3,3c1.1,1.3,1.9,2.7,2.4,4.4
		c0.5,1.6,0.7,3.4,0.7,5.1v2c0,1.5-0.1,2.7-0.3,3.7c-0.2,1-0.6,1.9-1,2.7c-0.5,0.8-1,1.4-1.7,2c-0.7,0.6-1.4,1.1-2.3,1.6
		c1.8,0.9,3.2,2.1,4,3.8c0.9,1.7,1.3,4,1.3,6.8v3c0,4.8-1.2,8.4-3.5,10.9c-2.3,2.5-6,3.8-11.1,3.8h-10.6V778.2z M399.6,800.4h3.5
		c2.6,0,4.3-0.6,5.2-1.9c0.9-1.3,1.3-3.2,1.3-5.7c0-2.4-0.5-4.3-1.5-5.5c-1-1.2-2.8-1.8-5.4-1.8h-3.2V800.4z M399.6,824.6h3.3
		c1.6,0,2.8-0.2,3.7-0.7c0.9-0.5,1.6-1.1,2-1.9c0.5-0.8,0.7-1.8,0.8-2.9c0.1-1.1,0.2-2.3,0.2-3.6c0-1.4-0.1-2.6-0.2-3.6
		c-0.2-1-0.5-1.9-1-2.5c-0.5-0.7-1.2-1.2-2-1.6c-0.9-0.4-2-0.5-3.4-0.5h-3.4V824.6z"/>
	<path class="st2" d="M424.2,778.2h7.8v46.4h15.4v7.8h-23.1V778.2z"/>
	<path class="st2" d="M452.6,778.2h7.8v54.1h-7.8V778.2z"/>
	<path class="st2" d="M492.9,793.8h-7.8V792c0-1.8-0.4-3.3-1.3-4.6s-2.2-1.9-4.2-1.9c-1.1,0-1.9,0.2-2.6,0.6
		c-0.7,0.4-1.2,0.9-1.6,1.6c-0.4,0.6-0.6,1.4-0.8,2.2s-0.2,1.7-0.2,2.6c0,1.1,0,2,0.1,2.7c0.1,0.7,0.3,1.4,0.6,1.9
		c0.3,0.5,0.7,1,1.3,1.4c0.6,0.4,1.4,0.8,2.4,1.2l5.9,2.4c1.7,0.7,3.1,1.4,4.2,2.3c1.1,0.9,1.9,1.9,2.5,3.1c0.6,1.2,1,2.6,1.2,4.1
		c0.2,1.5,0.3,3.3,0.3,5.3c0,2.3-0.2,4.4-0.7,6.3c-0.5,2-1.2,3.6-2.2,5c-1,1.4-2.4,2.5-4.1,3.3c-1.7,0.8-3.8,1.2-6.3,1.2
		c-1.9,0-3.6-0.3-5.2-1c-1.6-0.7-3-1.6-4.2-2.7c-1.2-1.1-2.1-2.5-2.8-4.1c-0.7-1.6-1-3.3-1-5.1V817h7.8v2.4c0,1.4,0.4,2.7,1.3,3.8
		c0.8,1.1,2.2,1.7,4.2,1.7c1.3,0,2.3-0.2,3.1-0.6c0.7-0.4,1.3-0.9,1.7-1.6c0.4-0.7,0.6-1.5,0.7-2.5c0.1-1,0.2-2.1,0.2-3.3
		c0-1.4-0.1-2.6-0.2-3.5c-0.1-0.9-0.3-1.6-0.6-2.2c-0.3-0.6-0.8-1-1.4-1.4c-0.6-0.4-1.4-0.7-2.3-1.1l-5.5-2.3
		c-3.3-1.4-5.6-3.2-6.7-5.4c-1.1-2.3-1.7-5.1-1.7-8.5c0-2,0.3-4,0.8-5.8c0.6-1.8,1.4-3.4,2.5-4.7c1.1-1.3,2.5-2.4,4.1-3.2
		c1.7-0.8,3.6-1.2,5.9-1.2c1.9,0,3.7,0.4,5.3,1.1c1.6,0.7,3,1.6,4.1,2.8c1.1,1.2,2,2.5,2.6,3.9c0.6,1.4,0.9,2.9,0.9,4.4V793.8z"/>
	<path class="st2" d="M498.7,778.2h7.8v23.2h9.6v-23.2h7.8v54.1H516v-24.1h-9.6v24.1h-7.8V778.2z"/>
	<path class="st2" d="M531.1,778.2h23.1v7.3h-15.4v15.9h13.4v7.3h-13.4v15.9h15.4v7.8h-23.1V778.2z"/>
	<path class="st2" d="M559.2,778.2h11.5c4.4,0,7.8,1.2,10.1,3.7c2.3,2.5,3.5,5.9,3.5,10.3v25.3c0,5.1-1.2,8.8-3.7,11.2
		c-2.5,2.4-6,3.6-10.6,3.6h-10.8V778.2z M566.9,825h3.6c2.2,0,3.7-0.5,4.6-1.6c0.9-1.1,1.4-2.8,1.4-5.1v-26.1c0-2.1-0.4-3.8-1.3-4.9
		c-0.9-1.2-2.4-1.7-4.7-1.7h-3.6V825z"/>
</g>
<g class="st3">
	<path class="st2" d="M158.6,497.1h-7.8v-1.7c0-1.8-0.4-3.3-1.3-4.6s-2.2-1.9-4.2-1.9c-1.1,0-1.9,0.2-2.6,0.6
		c-0.7,0.4-1.2,0.9-1.6,1.6c-0.4,0.6-0.6,1.4-0.8,2.2c-0.2,0.8-0.2,1.7-0.2,2.6c0,1.1,0,2,0.1,2.7c0.1,0.7,0.3,1.4,0.6,1.9
		c0.3,0.5,0.7,1,1.3,1.4c0.6,0.4,1.4,0.8,2.4,1.2l5.9,2.4c1.7,0.7,3.1,1.4,4.2,2.3c1.1,0.9,1.9,1.9,2.5,3.1c0.6,1.2,1,2.6,1.2,4.1
		c0.2,1.5,0.3,3.3,0.3,5.3c0,2.3-0.2,4.4-0.7,6.3c-0.5,2-1.2,3.6-2.2,5c-1,1.4-2.4,2.5-4.1,3.3c-1.7,0.8-3.8,1.2-6.3,1.2
		c-1.9,0-3.6-0.3-5.2-1c-1.6-0.7-3-1.6-4.2-2.7c-1.2-1.1-2.1-2.5-2.8-4.1c-0.7-1.6-1-3.3-1-5.1v-2.9h7.8v2.4c0,1.4,0.4,2.7,1.3,3.8
		c0.8,1.1,2.2,1.7,4.2,1.7c1.3,0,2.3-0.2,3.1-0.6c0.7-0.4,1.3-0.9,1.7-1.6c0.4-0.7,0.6-1.5,0.7-2.5c0.1-1,0.2-2.1,0.2-3.3
		c0-1.4-0.1-2.6-0.2-3.5c-0.1-0.9-0.3-1.6-0.6-2.2c-0.3-0.6-0.8-1-1.4-1.4c-0.6-0.4-1.4-0.7-2.3-1.1l-5.5-2.3
		c-3.3-1.4-5.6-3.2-6.7-5.4c-1.1-2.3-1.7-5.1-1.7-8.5c0-2,0.3-4,0.8-5.8c0.6-1.8,1.4-3.4,2.5-4.7c1.1-1.3,2.5-2.4,4.1-3.2
		c1.7-0.8,3.6-1.2,5.9-1.2c1.9,0,3.7,0.4,5.3,1.1c1.6,0.7,3,1.6,4.1,2.8c1.1,1.2,2,2.5,2.6,3.9c0.6,1.4,0.9,2.9,0.9,4.4V497.1z"/>
	<path class="st2" d="M164.4,481.5h23.1v7.3h-15.4v15.9h13.4v7.3h-13.4v15.9h15.4v7.8h-23.1V481.5z"/>
	<path class="st2" d="M192.5,481.5h7.4l10,28.7h0.2l9.9-28.7h7.5v54.1h-7.8v-32.9h-0.2l-7.7,23.3H208l-7.6-23.3h-0.2v32.9h-7.8
		V481.5z"/>
	<path class="st2" d="M250,535.7h-6.8l-11-54.1h8.2l6.2,37.8h0.2l6.2-37.8h8.2L250,535.7z"/>
	<path class="st2" d="M265.7,481.5h23.1v7.3h-15.4v15.9h13.4v7.3h-13.4v15.9h15.4v7.8h-23.1V481.5z"/>
	<path class="st2" d="M293.8,481.5h12.5c9.1,0,13.7,5.3,13.7,15.9c0,3.1-0.5,5.8-1.5,8.1c-1,2.3-2.7,4.1-5.2,5.4l8.4,24.7h-8.2
		l-7.2-23.1h-4.6v23.1h-7.8V481.5z M301.6,505.7h4.4c1.4,0,2.5-0.2,3.3-0.6c0.8-0.4,1.4-0.9,1.9-1.6c0.4-0.7,0.7-1.6,0.9-2.6
		c0.2-1,0.2-2.2,0.2-3.6s-0.1-2.6-0.2-3.6c-0.2-1-0.5-1.9-1-2.7c-0.5-0.7-1.2-1.3-2-1.6c-0.9-0.4-2-0.5-3.4-0.5h-4V505.7z"/>
	<path class="st2" d="M340.3,481.5h11.3c2.5,0,4.6,0.4,6.3,1.1c1.7,0.8,3.2,1.8,4.3,3c1.1,1.3,1.9,2.7,2.4,4.4
		c0.5,1.6,0.7,3.4,0.7,5.1v2c0,1.5-0.1,2.7-0.3,3.7c-0.2,1-0.6,1.9-1,2.7c-0.5,0.8-1,1.4-1.7,2c-0.7,0.6-1.4,1.1-2.3,1.6
		c1.8,0.9,3.2,2.1,4,3.8c0.9,1.7,1.3,4,1.3,6.8v3c0,4.8-1.2,8.4-3.5,10.9c-2.3,2.5-6,3.8-11.1,3.8h-10.6V481.5z M348.1,503.7h3.5
		c2.6,0,4.3-0.6,5.2-1.9c0.9-1.3,1.3-3.2,1.3-5.7c0-2.4-0.5-4.3-1.5-5.5c-1-1.2-2.8-1.8-5.4-1.8h-3.2V503.7z M348.1,527.9h3.3
		c1.6,0,2.8-0.2,3.7-0.7c0.9-0.5,1.6-1.1,2-1.9c0.5-0.8,0.7-1.8,0.8-2.9c0.1-1.1,0.2-2.3,0.2-3.6c0-1.4-0.1-2.6-0.2-3.6
		c-0.2-1-0.5-1.9-1-2.5c-0.5-0.7-1.2-1.2-2-1.6c-0.9-0.4-2-0.5-3.4-0.5h-3.4V527.9z"/>
	<path class="st2" d="M397.8,523.5c0,1.8-0.3,3.4-1,4.9c-0.7,1.5-1.6,2.8-2.7,4c-1.1,1.1-2.5,2-4,2.7c-1.5,0.7-3.1,1-4.9,1
		c-1.7,0-3.3-0.3-4.9-1c-1.5-0.7-2.9-1.6-4-2.7c-1.1-1.1-2-2.5-2.7-4c-0.7-1.5-1-3.2-1-4.9v-42h7.8v41.2c0,1.9,0.5,3.3,1.4,4.3
		s2.1,1.4,3.4,1.4s2.5-0.5,3.4-1.4s1.4-2.3,1.4-4.3v-41.2h7.8V523.5z"/>
	<path class="st2" d="M405.1,481.5h7.4l10,28.7h0.2l9.9-28.7h7.5v54.1h-7.8v-32.9h-0.2l-7.7,23.3h-3.9l-7.6-23.3h-0.2v32.9h-7.8
		V481.5z"/>
	<path class="st2" d="M447.3,481.5H459c2.1,0,4,0.3,5.6,0.8c1.6,0.6,3.1,1.5,4.4,3c1.3,1.4,2.2,3.1,2.7,5c0.5,1.9,0.8,4.5,0.8,7.7
		c0,2.4-0.1,4.4-0.4,6.1c-0.3,1.7-0.9,3.3-1.8,4.8c-1.1,1.8-2.5,3.2-4.3,4.1c-1.8,1-4.1,1.5-7,1.5h-4v21.1h-7.8V481.5z M455.1,507.2
		h3.7c1.6,0,2.8-0.2,3.6-0.7c0.9-0.5,1.5-1.1,1.9-1.9c0.4-0.8,0.6-1.7,0.7-2.9c0.1-1.1,0.1-2.4,0.1-3.7c0-1.3,0-2.5-0.1-3.6
		c-0.1-1.1-0.3-2.1-0.7-3s-1-1.5-1.8-2s-2-0.7-3.5-0.7h-4V507.2z"/>
	<path class="st2" d="M513,531.6c-1.5,1.5-3.1,2.7-4.8,3.4c-1.6,0.8-3.5,1.1-5.6,1.1c-1.5,0-3-0.3-4.3-0.9c-1.4-0.6-2.6-1.5-3.6-2.5
		c-1-1.1-1.8-2.4-2.4-4c-0.6-1.5-0.9-3.3-0.9-5.1c0-3,0.7-5.6,2.1-7.8c1.4-2.2,3.2-4.3,5.3-6.2c-1.4-1.9-2.5-3.9-3.4-6
		c-0.9-2.1-1.3-4.2-1.3-6.5c0-1.4,0.2-2.8,0.7-4.1c0.5-1.3,1.1-2.4,2-3.3c0.9-0.9,2-1.7,3.3-2.2s2.9-0.8,4.6-0.8
		c1.7,0,3.1,0.3,4.4,0.8s2.3,1.2,3.2,2.1c0.9,0.9,1.5,1.9,2,3.1s0.7,2.4,0.7,3.8c0,2.5-0.8,5-2.4,7.3c-1.6,2.3-3.4,4.4-5.5,6.3
		c1,1.5,2.1,3.2,3.3,5.3c1.2,2.1,2.5,4.1,3.8,6l4.2-5.7l4.8,3.3l-5.8,7.4l5.9,9.3h-7.8L513,531.6z M498.3,523.2
		c0,1.9,0.5,3.5,1.6,4.8c1.1,1.3,2.5,2,4.1,2c1.2,0,2.3-0.4,3.3-1.1c1.1-0.7,1.9-1.5,2.4-2.2l-7.4-11.9c-1.2,1.2-2.1,2.4-2.9,3.8
		C498.7,520,498.3,521.5,498.3,523.2z M501.1,497.2c0,1.2,0.3,2.4,0.8,3.8c0.6,1.3,1.3,2.7,2.1,4.1c0.5-0.5,1-1,1.5-1.6
		c0.6-0.6,1.1-1.2,1.5-1.9c0.5-0.7,0.8-1.5,1.1-2.3c0.3-0.8,0.5-1.7,0.5-2.7c0-1-0.3-1.8-1-2.7c-0.7-0.8-1.6-1.2-2.7-1.2
		c-1.2,0-2.1,0.5-2.8,1.4C501.4,495,501.1,496,501.1,497.2z"/>
	<path class="st2" d="M543.1,481.5h11.6c2.1,0,4,0.3,5.6,0.8c1.6,0.6,3.1,1.5,4.4,3c1.3,1.4,2.2,3.1,2.7,5c0.5,1.9,0.8,4.5,0.8,7.7
		c0,2.4-0.1,4.4-0.4,6.1c-0.3,1.7-0.9,3.3-1.8,4.8c-1.1,1.8-2.5,3.2-4.3,4.1c-1.8,1-4.1,1.5-7,1.5h-4v21.1h-7.8V481.5z M550.9,507.2
		h3.7c1.6,0,2.8-0.2,3.6-0.7c0.9-0.5,1.5-1.1,1.9-1.9c0.4-0.8,0.6-1.7,0.7-2.9c0.1-1.1,0.1-2.4,0.1-3.7c0-1.3,0-2.5-0.1-3.6
		c-0.1-1.1-0.3-2.1-0.7-3s-1-1.5-1.8-2c-0.8-0.5-2-0.7-3.5-0.7h-4V507.2z"/>
	<path class="st2" d="M599.1,523.5c0,1.8-0.3,3.4-1,4.9c-0.7,1.5-1.6,2.8-2.7,4c-1.1,1.1-2.5,2-4,2.7c-1.5,0.7-3.1,1-4.9,1
		c-1.7,0-3.3-0.3-4.9-1c-1.5-0.7-2.9-1.6-4-2.7c-1.1-1.1-2-2.5-2.7-4c-0.7-1.5-1-3.2-1-4.9v-42h7.8v41.2c0,1.9,0.5,3.3,1.4,4.3
		c0.9,0.9,2.1,1.4,3.4,1.4c1.4,0,2.5-0.5,3.4-1.4c0.9-0.9,1.4-2.3,1.4-4.3v-41.2h7.8V523.5z"/>
	<path class="st2" d="M606.4,481.5h11.3c2.5,0,4.6,0.4,6.3,1.1c1.7,0.8,3.2,1.8,4.3,3c1.1,1.3,1.9,2.7,2.4,4.4
		c0.5,1.6,0.7,3.4,0.7,5.1v2c0,1.5-0.1,2.7-0.3,3.7c-0.2,1-0.6,1.9-1,2.7c-0.5,0.8-1,1.4-1.7,2c-0.7,0.6-1.4,1.1-2.3,1.6
		c1.8,0.9,3.2,2.1,4,3.8c0.9,1.7,1.3,4,1.3,6.8v3c0,4.8-1.2,8.4-3.5,10.9c-2.3,2.5-6,3.8-11.1,3.8h-10.6V481.5z M614.2,503.7h3.5
		c2.6,0,4.3-0.6,5.2-1.9s1.3-3.2,1.3-5.7c0-2.4-0.5-4.3-1.5-5.5s-2.8-1.8-5.4-1.8h-3.2V503.7z M614.2,527.9h3.3
		c1.6,0,2.8-0.2,3.7-0.7c0.9-0.5,1.6-1.1,2-1.9c0.5-0.8,0.7-1.8,0.8-2.9c0.1-1.1,0.2-2.3,0.2-3.6c0-1.4-0.1-2.6-0.2-3.6
		c-0.2-1-0.5-1.9-1-2.5c-0.5-0.7-1.2-1.2-2-1.6c-0.9-0.4-2-0.5-3.4-0.5h-3.4V527.9z"/>
	<path class="st2" d="M638.8,481.5h7.8v46.4h15.4v7.8h-23.1V481.5z"/>
	<path class="st2" d="M667.1,481.5h7.8v54.1h-7.8V481.5z"/>
	<path class="st2" d="M707.5,497.1h-7.8v-1.7c0-1.8-0.4-3.3-1.3-4.6s-2.2-1.9-4.2-1.9c-1.1,0-1.9,0.2-2.6,0.6
		c-0.7,0.4-1.2,0.9-1.6,1.6c-0.4,0.6-0.6,1.4-0.8,2.2c-0.2,0.8-0.2,1.7-0.2,2.6c0,1.1,0,2,0.1,2.7c0.1,0.7,0.3,1.4,0.6,1.9
		c0.3,0.5,0.7,1,1.3,1.4c0.6,0.4,1.4,0.8,2.4,1.2l5.9,2.4c1.7,0.7,3.1,1.4,4.2,2.3c1.1,0.9,1.9,1.9,2.5,3.1c0.6,1.2,1,2.6,1.2,4.1
		c0.2,1.5,0.3,3.3,0.3,5.3c0,2.3-0.2,4.4-0.7,6.3c-0.5,2-1.2,3.6-2.2,5c-1,1.4-2.4,2.5-4.1,3.3c-1.7,0.8-3.8,1.2-6.3,1.2
		c-1.9,0-3.6-0.3-5.2-1c-1.6-0.7-3-1.6-4.2-2.7c-1.2-1.1-2.1-2.5-2.8-4.1c-0.7-1.6-1-3.3-1-5.1v-2.9h7.8v2.4c0,1.4,0.4,2.7,1.3,3.8
		c0.8,1.1,2.2,1.7,4.2,1.7c1.3,0,2.3-0.2,3.1-0.6s1.3-0.9,1.7-1.6c0.4-0.7,0.6-1.5,0.7-2.5c0.1-1,0.2-2.1,0.2-3.3
		c0-1.4-0.1-2.6-0.2-3.5c-0.1-0.9-0.3-1.6-0.6-2.2c-0.3-0.6-0.8-1-1.4-1.4c-0.6-0.4-1.4-0.7-2.3-1.1l-5.5-2.3
		c-3.3-1.4-5.6-3.2-6.7-5.4c-1.1-2.3-1.7-5.1-1.7-8.5c0-2,0.3-4,0.8-5.8c0.6-1.8,1.4-3.4,2.5-4.7c1.1-1.3,2.5-2.4,4.1-3.2
		c1.7-0.8,3.6-1.2,5.9-1.2c1.9,0,3.7,0.4,5.3,1.1c1.6,0.7,3,1.6,4.1,2.8c1.1,1.2,2,2.5,2.6,3.9c0.6,1.4,0.9,2.9,0.9,4.4V497.1z"/>
	<path class="st2" d="M713.3,481.5h7.8v23.2h9.6v-23.2h7.8v54.1h-7.8v-24.1H721v24.1h-7.8V481.5z"/>
</g>
</svg>
