<svg id="Layer_1" data-name="Layer 1" xmlns="http://www.w3.org/2000/svg" viewBox="0 0 900 900"><defs><style>.cls-1{fill:#07448e;}.cls-2{font-size:76px;font-family:DINCondensed-Bold, DIN Condensed;font-weight:700;}.cls-2,.cls-5{fill:#f9c7e4;}.cls-3{letter-spacing:-0.07em;}.cls-4{fill:#f7eec9;}</style></defs><title>1-developer-multiple-packages</title><rect class="cls-1" width="900" height="900"/><text class="cls-2" transform="translate(40 766.11)">1 DEVELOPER, MU<tspan class="cls-3" x="416.78" y="0">L</tspan><tspan x="439.27" y="0">TIPLE </tspan><tspan x="0" y="91.2">DEPENDENCIES </tspan></text><path class="cls-4" d="M106.59,198.45h-.25a12.84,12.84,0,0,0-1.26-.81q-29.89-14.4-59.81-28.77a1.93,1.93,0,0,1-1.27-2q0-34.59,0-69.18a1.86,1.86,0,0,1,1.27-2Q72.19,83.39,99.08,71.06c3.47-1.59,6.9-3.24,10.36-4.86H110c.41.23.8.48,1.23.67Q141.93,81,172.7,95.1a1.86,1.86,0,0,1,1.3,2q-.06,34.54,0,69.08a1.88,1.88,0,0,1-1.32,2q-27.27,12.42-54.53,24.89C114.28,194.83,110.44,196.65,106.59,198.45ZM49.8,98.9c0,.48-.07.81-.07,1.14q0,31.89,0,63.77a1.47,1.47,0,0,0,1,1.56q27.9,13.22,55.78,26.47c.32.15.66.26,1.07.41,0-.43,0-.68,0-.94q0-32.48,0-64.93a1.71,1.71,0,0,0-1.27-1.77Q78.67,112,51.06,99.43C50.68,99.25,50.29,99.11,49.8,98.9Zm63.48,91.19.93-.39q26.58-12.57,53.16-25.12c.87-.4.91-1,.91-1.73q0-30.73,0-61.47V98.12l-1.41.64c-5,2.44-10,4.89-15,7.3a1.66,1.66,0,0,0-1.11,1.75c0,9.55,0,19.11,0,28.67a1.68,1.68,0,0,1-1,1.7c-5,2.71-10,5.48-15.05,8.23-.32.18-.67.31-1.27.59V115.31c-.64.29-1,.45-1.4.64-5.87,2.88-11.72,5.78-17.61,8.62a1.83,1.83,0,0,0-1.21,1.94q0,29.44,0,58.89ZM56.18,96.24a3.5,3.5,0,0,0,.45.33Q82.81,108.41,109,120.22a1.59,1.59,0,0,0,1.19.06c6.09-2.88,12.17-5.79,18.31-8.73a3.29,3.29,0,0,0-.48-.36Q102.73,99.3,77.41,87.42a1.63,1.63,0,0,0-1.19,0C69.58,90.3,63,93.24,56.18,96.24Zm105.31-.47c-.46-.25-.78-.45-1.12-.6q-24.84-11.34-49.71-22.66a2.6,2.6,0,0,0-1.9,0c-4.36,1.92-8.68,3.93-13,5.92-.31.14-.6.34-.93.53l.2.15q26.05,11.47,52.12,22.95a1.47,1.47,0,0,0,1.07,0C152.59,100,157,97.94,161.49,95.77Z"/><path class="cls-4" d="M273.34,198.45h-.25a12.84,12.84,0,0,0-1.26-.81q-29.89-14.4-59.81-28.77a1.93,1.93,0,0,1-1.27-2q0-34.59,0-69.18a1.86,1.86,0,0,1,1.27-2q26.92-12.26,53.81-24.58c3.47-1.59,6.9-3.24,10.36-4.86h.51c.41.23.8.48,1.23.67Q308.68,81,339.45,95.1a1.86,1.86,0,0,1,1.3,2q-.06,34.54,0,69.08a1.88,1.88,0,0,1-1.32,2q-27.27,12.42-54.53,24.89C281,194.83,277.19,196.65,273.34,198.45ZM216.55,98.9c0,.48-.07.81-.07,1.14q0,31.89,0,63.77a1.47,1.47,0,0,0,1,1.56q27.9,13.22,55.78,26.47c.32.15.66.26,1.07.41,0-.43,0-.68,0-.94q0-32.48,0-64.93a1.71,1.71,0,0,0-1.27-1.77Q245.42,112,217.81,99.43C217.43,99.25,217,99.11,216.55,98.9ZM280,190.09l.93-.39q26.58-12.57,53.16-25.12c.87-.4.91-1,.91-1.73q0-30.73,0-61.47V98.12l-1.41.64c-5,2.44-10,4.89-14.95,7.3a1.66,1.66,0,0,0-1.11,1.75c0,9.55,0,19.11,0,28.67a1.68,1.68,0,0,1-1,1.7c-5,2.71-10,5.48-15,8.23-.32.18-.67.31-1.27.59V115.31c-.64.29-1,.45-1.4.64-5.87,2.88-11.72,5.78-17.61,8.62a1.83,1.83,0,0,0-1.21,1.94q0,29.44,0,58.89Zm-57.1-93.85a3.5,3.5,0,0,0,.45.33q26.18,11.84,52.38,23.65a1.59,1.59,0,0,0,1.19.06c6.09-2.88,12.17-5.79,18.31-8.73a3.29,3.29,0,0,0-.48-.36q-25.3-11.89-50.62-23.77a1.63,1.63,0,0,0-1.19,0C236.33,90.3,229.7,93.24,222.93,96.24Zm105.31-.47c-.46-.25-.78-.45-1.12-.6q-24.84-11.34-49.71-22.66a2.6,2.6,0,0,0-1.9,0c-4.36,1.92-8.68,3.93-13,5.92-.31.14-.6.34-.93.53l.2.15q26.06,11.47,52.12,22.95a1.47,1.47,0,0,0,1.07,0C319.34,100,323.71,97.94,328.24,95.77Z"/><path class="cls-4" d="M440.09,198.45h-.25a12.84,12.84,0,0,0-1.26-.81q-29.9-14.4-59.81-28.77a1.93,1.93,0,0,1-1.27-2q0-34.59,0-69.18a1.86,1.86,0,0,1,1.27-2q26.93-12.26,53.81-24.58c3.47-1.59,6.9-3.24,10.36-4.86h.51c.41.23.8.48,1.23.67Q475.43,81,506.2,95.1a1.86,1.86,0,0,1,1.3,2q-.06,34.54,0,69.08a1.88,1.88,0,0,1-1.32,2q-27.27,12.42-54.53,24.89C447.78,194.83,443.94,196.65,440.09,198.45ZM383.3,98.9c0,.48-.07.81-.07,1.14q0,31.89,0,63.77a1.47,1.47,0,0,0,1,1.56q27.9,13.22,55.78,26.47c.32.15.66.26,1.07.41,0-.43,0-.68,0-.94q0-32.48,0-64.93a1.71,1.71,0,0,0-1.27-1.77Q412.17,112,384.56,99.43C384.18,99.25,383.79,99.11,383.3,98.9Zm63.48,91.19.93-.39q26.58-12.57,53.16-25.12c.87-.4.91-1,.91-1.73q0-30.73,0-61.47V98.12l-1.41.64c-5,2.44-10,4.89-14.95,7.3a1.66,1.66,0,0,0-1.11,1.75c0,9.55,0,19.11,0,28.67a1.68,1.68,0,0,1-1,1.7c-5,2.71-10,5.48-15,8.23-.32.18-.67.31-1.27.59V115.31c-.64.29-1,.45-1.4.64-5.87,2.88-11.72,5.78-17.61,8.62a1.83,1.83,0,0,0-1.21,1.94q0,29.44,0,58.89Zm-57.1-93.85a3.5,3.5,0,0,0,.45.33q26.17,11.84,52.38,23.65a1.59,1.59,0,0,0,1.19.06c6.09-2.88,12.17-5.79,18.31-8.73a3.29,3.29,0,0,0-.48-.36q-25.3-11.89-50.62-23.77a1.63,1.63,0,0,0-1.19,0C403.08,90.3,396.45,93.24,389.68,96.24ZM495,95.77c-.46-.25-.78-.45-1.12-.6Q469,83.83,444.16,72.51a2.6,2.6,0,0,0-1.9,0c-4.36,1.92-8.68,3.93-13,5.92-.31.14-.6.34-.93.53l.2.15q26.06,11.47,52.12,22.95a1.47,1.47,0,0,0,1.07,0C486.09,100,490.46,97.94,495,95.77Z"/><path class="cls-4" d="M442.09,600.45h-.25a12.84,12.84,0,0,0-1.26-.81q-29.9-14.4-59.81-28.77a1.93,1.93,0,0,1-1.27-2q0-34.59,0-69.18a1.86,1.86,0,0,1,1.27-2q26.93-12.25,53.81-24.58c3.47-1.59,6.9-3.24,10.36-4.86h.51c.41.23.8.48,1.23.67Q477.43,483,508.2,497.1a1.86,1.86,0,0,1,1.3,2q-.06,34.55,0,69.08a1.88,1.88,0,0,1-1.32,2q-27.27,12.42-54.53,24.89C449.78,596.83,445.94,598.65,442.09,600.45ZM385.3,500.9c0,.48-.07.81-.07,1.14q0,31.89,0,63.77a1.47,1.47,0,0,0,1,1.56q27.9,13.21,55.78,26.47c.32.15.66.26,1.07.41,0-.43,0-.68,0-.94q0-32.47,0-64.93a1.71,1.71,0,0,0-1.27-1.77Q414.17,514,386.56,501.43C386.18,501.25,385.79,501.11,385.3,500.9Zm63.48,91.19.93-.39q26.58-12.57,53.16-25.12c.87-.4.91-1,.91-1.73q0-30.74,0-61.47v-3.26l-1.41.64c-5,2.44-10,4.89-14.95,7.3a1.66,1.66,0,0,0-1.11,1.75c0,9.55,0,19.11,0,28.67a1.68,1.68,0,0,1-1,1.7c-5,2.71-10,5.48-15,8.23-.32.18-.67.31-1.27.59V517.31c-.64.29-1,.45-1.4.64-5.87,2.88-11.72,5.78-17.61,8.62a1.83,1.83,0,0,0-1.21,1.94q0,29.44,0,58.89Zm-57.1-93.85a3.5,3.5,0,0,0,.45.33q26.17,11.83,52.38,23.65a1.59,1.59,0,0,0,1.19.06c6.09-2.88,12.17-5.79,18.31-8.73a3.29,3.29,0,0,0-.48-.36q-25.3-11.9-50.62-23.77a1.63,1.63,0,0,0-1.19,0C405.08,492.3,398.45,495.24,391.68,498.24ZM497,497.77c-.46-.25-.78-.45-1.12-.6Q471,485.83,446.16,474.51a2.6,2.6,0,0,0-1.9,0c-4.36,1.92-8.68,3.93-13,5.92-.31.14-.6.34-.93.53l.2.15q26.06,11.47,52.12,22.95a1.47,1.47,0,0,0,1.07,0C488.09,502,492.46,499.94,497,497.77Z"/><path class="cls-4" d="M606.84,198.45h-.25a12.84,12.84,0,0,0-1.26-.81q-29.9-14.4-59.81-28.77a1.93,1.93,0,0,1-1.27-2q0-34.59,0-69.18a1.86,1.86,0,0,1,1.27-2q26.93-12.26,53.81-24.58c3.47-1.59,6.9-3.24,10.36-4.86h.51c.41.23.8.48,1.23.67Q642.18,81,673,95.1a1.86,1.86,0,0,1,1.3,2q-.06,34.54,0,69.08a1.88,1.88,0,0,1-1.32,2q-27.27,12.42-54.53,24.89C614.53,194.83,610.69,196.65,606.84,198.45ZM550.05,98.9c0,.48-.07.81-.07,1.14q0,31.89,0,63.77a1.47,1.47,0,0,0,1,1.56q27.9,13.22,55.78,26.47c.32.15.66.26,1.07.41,0-.43,0-.68,0-.94q0-32.48,0-64.93a1.71,1.71,0,0,0-1.27-1.77Q578.92,112,551.31,99.43C550.93,99.25,550.54,99.11,550.05,98.9Zm63.48,91.19.93-.39q26.58-12.57,53.16-25.12c.87-.4.91-1,.91-1.73q0-30.73,0-61.47V98.12l-1.41.64c-5,2.44-10,4.89-15,7.3a1.66,1.66,0,0,0-1.11,1.75c0,9.55,0,19.11,0,28.67a1.68,1.68,0,0,1-1,1.7c-5,2.71-10,5.48-15.05,8.23-.32.18-.67.31-1.27.59V115.31c-.64.29-1,.45-1.4.64-5.87,2.88-11.72,5.78-17.61,8.62a1.83,1.83,0,0,0-1.21,1.94q0,29.44,0,58.89Zm-57.1-93.85a3.5,3.5,0,0,0,.45.33q26.18,11.84,52.38,23.65a1.59,1.59,0,0,0,1.19.06c6.09-2.88,12.17-5.79,18.31-8.73a3.29,3.29,0,0,0-.48-.36Q603,99.3,577.66,87.42a1.63,1.63,0,0,0-1.19,0C569.83,90.3,563.2,93.24,556.43,96.24Zm105.31-.47c-.46-.25-.78-.45-1.12-.6q-24.84-11.34-49.71-22.66a2.6,2.6,0,0,0-1.9,0c-4.36,1.92-8.68,3.93-13,5.92-.31.14-.6.34-.93.53l.2.15q26.06,11.47,52.12,22.95a1.47,1.47,0,0,0,1.07,0C652.84,100,657.21,97.94,661.74,95.77Z"/><path class="cls-4" d="M773.59,198.45h-.25a12.84,12.84,0,0,0-1.26-.81q-29.9-14.4-59.81-28.77a1.93,1.93,0,0,1-1.27-2q0-34.59,0-69.18a1.86,1.86,0,0,1,1.27-2q26.93-12.26,53.81-24.58c3.47-1.59,6.9-3.24,10.36-4.86H777c.41.23.8.48,1.23.67Q808.93,81,839.7,95.1a1.86,1.86,0,0,1,1.3,2q-.06,34.54,0,69.08a1.88,1.88,0,0,1-1.32,2q-27.27,12.42-54.53,24.89C781.28,194.83,777.44,196.65,773.59,198.45ZM716.8,98.9c0,.48-.07.81-.07,1.14q0,31.89,0,63.77a1.47,1.47,0,0,0,1,1.56q27.9,13.22,55.78,26.47c.32.15.66.26,1.07.41,0-.43,0-.68,0-.94q0-32.48,0-64.93a1.71,1.71,0,0,0-1.27-1.77Q745.67,112,718.06,99.43C717.68,99.25,717.29,99.11,716.8,98.9Zm63.48,91.19.93-.39q26.58-12.57,53.16-25.12c.87-.4.91-1,.91-1.73q0-30.73,0-61.47V98.12l-1.41.64c-5,2.44-10,4.89-15,7.3a1.66,1.66,0,0,0-1.11,1.75c0,9.55,0,19.11,0,28.67a1.68,1.68,0,0,1-1,1.7c-5,2.71-10,5.48-15.05,8.23-.32.18-.67.31-1.27.59V115.31c-.64.29-1,.45-1.4.64-5.87,2.88-11.72,5.78-17.61,8.62a1.83,1.83,0,0,0-1.21,1.94q0,29.44,0,58.89Zm-57.1-93.85a3.5,3.5,0,0,0,.45.33q26.18,11.84,52.38,23.65a1.59,1.59,0,0,0,1.19.06c6.09-2.88,12.17-5.79,18.31-8.73a3.29,3.29,0,0,0-.48-.36Q769.72,99.3,744.41,87.42a1.63,1.63,0,0,0-1.19,0C736.58,90.3,730,93.24,723.18,96.24Zm105.31-.47c-.46-.25-.78-.45-1.12-.6q-24.84-11.34-49.71-22.66a2.6,2.6,0,0,0-1.9,0c-4.36,1.92-8.68,3.93-13,5.92-.31.14-.6.34-.93.53l.2.15q26.06,11.47,52.12,22.95a1.47,1.47,0,0,0,1.07,0C819.59,100,824,97.94,828.49,95.77Z"/><path class="cls-4" d="M527,409H361.44c.72-15.83,14.31-32.73,29.46-36.3,4.09-1,5.66-4,6.08-7.13a192.49,192.49,0,0,0,2.15-26.13c0-10.15-1.78-20.29-1.78-30.44A64.56,64.56,0,0,1,404,280.25c7.5-15.25,19.66-23.11,36.85-22.71,4.32.1,8.71-.23,13,.37,14,2,23.79,9.91,29.56,22.6,6.91,15.18,8.06,31.11,5.69,47.53-1.61,11.21-2.26,22.54.15,33.76a29.56,29.56,0,0,0,2.91,7.78,6.24,6.24,0,0,0,3.77,2.81c11.26,2.15,18.68,9.12,23.66,18.88C522.35,396.8,524.39,402.72,527,409Zm-47.59-94.4c-2.87,5.52-6.13,2.92-9.48,1.18q-19.32-10-38.7-19.92c-5.37-2.76-10.61-2.32-14.23,2.5-2.91,3.89-4.45,8.82-6.57,13.29-.51,1.09-.61,2.61-1.43,3.26-4.58,3.63-3.69,14.55,1.44,17.51a6.85,6.85,0,0,1,2.77,3c3.16,7.55,7.26,14.46,13.28,20.1,10.89,10.2,23.42,10.29,34.4.21,6.07-5.59,10.22-12.48,13.33-20.06.45-1.1.94-2.47,1.84-3.06A12.9,12.9,0,0,0,479.41,314.6Zm-66,56.34c2.32,7.47,17.21,15.34,30.19,15.34s27.73-7.82,30.23-15.44l-8.53-9.39c-13.47,11.59-27.14,13.73-43.09,0Z"/><rect class="cls-5" x="40" y="641" width="815" height="13"/></svg>