<svg id="Layer_1" data-name="Layer 1" xmlns="http://www.w3.org/2000/svg" viewBox="0 0 900 900"><defs><style>.cls-1{fill:#07448e;}.cls-2{font-size:76px;font-family:DINCondensed-Bold, DIN Condensed;font-weight:700;}.cls-2,.cls-5{fill:#f9c7e4;}.cls-3{letter-spacing:-0.07em;}.cls-4{fill:#f7eec9;}</style></defs><title>1-developer-multiple-packages</title><rect class="cls-1" width="900" height="900"/><text class="cls-2" transform="translate(40 766.11)">1 DEVELOPER, MU<tspan class="cls-3" x="416.78" y="0">L</tspan><tspan x="439.27" y="0">TIPLE </tspan><tspan x="0" y="91.2">DEPENDENCIES </tspan></text><path class="cls-4" d="M110.59,315.45h-.25a12.84,12.84,0,0,0-1.26-.81q-29.89-14.4-59.81-28.77a1.93,1.93,0,0,1-1.27-2q0-34.59,0-69.18a1.86,1.86,0,0,1,1.27-2q26.92-12.25,53.81-24.58c3.47-1.59,6.9-3.24,10.36-4.86H114c.41.23.8.48,1.23.67Q145.93,198,176.7,212.1a1.86,1.86,0,0,1,1.3,2q-.06,34.54,0,69.08a1.88,1.88,0,0,1-1.32,2q-27.27,12.42-54.53,24.89C118.28,311.83,114.44,313.65,110.59,315.45ZM53.8,215.9c0,.48-.07.81-.07,1.14q0,31.89,0,63.77a1.47,1.47,0,0,0,1,1.56q27.9,13.22,55.78,26.47c.32.15.66.26,1.07.41,0-.43,0-.68,0-.94q0-32.47,0-64.93a1.71,1.71,0,0,0-1.27-1.77Q82.67,229,55.06,216.43C54.68,216.25,54.29,216.11,53.8,215.9Zm63.48,91.19.93-.39q26.58-12.57,53.16-25.12c.87-.4.91-1,.91-1.73q0-30.74,0-61.47v-3.26l-1.41.64c-5,2.44-10,4.89-15,7.3a1.66,1.66,0,0,0-1.11,1.75c0,9.55,0,19.11,0,28.67a1.68,1.68,0,0,1-1,1.7c-5,2.71-10,5.48-15.05,8.23-.32.18-.67.31-1.27.59V232.31c-.64.29-1,.45-1.4.64-5.87,2.88-11.72,5.78-17.61,8.62a1.83,1.83,0,0,0-1.21,1.94q0,29.44,0,58.89Zm-57.1-93.85a3.5,3.5,0,0,0,.45.33Q86.81,225.41,113,237.22a1.59,1.59,0,0,0,1.19.06c6.09-2.88,12.17-5.79,18.31-8.73a3.29,3.29,0,0,0-.48-.36q-25.31-11.9-50.62-23.77a1.63,1.63,0,0,0-1.19,0C73.58,207.3,67,210.24,60.18,213.24Zm105.31-.47c-.46-.25-.78-.45-1.12-.6q-24.84-11.34-49.71-22.66a2.6,2.6,0,0,0-1.9,0c-4.36,1.92-8.68,3.93-13,5.92-.31.14-.6.34-.93.53l.2.15q26.05,11.48,52.12,22.95a1.47,1.47,0,0,0,1.07,0C156.59,217,161,214.94,165.49,212.77Z"/><path class="cls-4" d="M277.34,315.45h-.25a12.84,12.84,0,0,0-1.26-.81q-29.89-14.4-59.81-28.77a1.93,1.93,0,0,1-1.27-2q0-34.59,0-69.18a1.86,1.86,0,0,1,1.27-2q26.92-12.25,53.81-24.58c3.47-1.59,6.9-3.24,10.36-4.86h.51c.41.23.8.48,1.23.67Q312.68,198,343.45,212.1a1.86,1.86,0,0,1,1.3,2q-.06,34.54,0,69.08a1.88,1.88,0,0,1-1.32,2q-27.27,12.42-54.53,24.89C285,311.83,281.19,313.65,277.34,315.45ZM220.55,215.9c0,.48-.07.81-.07,1.14q0,31.89,0,63.77a1.47,1.47,0,0,0,1,1.56q27.9,13.22,55.78,26.47c.32.15.66.26,1.07.41,0-.43,0-.68,0-.94q0-32.47,0-64.93a1.71,1.71,0,0,0-1.27-1.77Q249.42,229,221.81,216.43C221.43,216.25,221,216.11,220.55,215.9ZM284,307.09l.93-.39q26.58-12.57,53.16-25.12c.87-.4.91-1,.91-1.73q0-30.74,0-61.47v-3.26l-1.41.64c-5,2.44-10,4.89-14.95,7.3a1.66,1.66,0,0,0-1.11,1.75c0,9.55,0,19.11,0,28.67a1.68,1.68,0,0,1-1,1.7c-5,2.71-10,5.48-15,8.23-.32.18-.67.31-1.27.59V232.31c-.64.29-1,.45-1.4.64-5.87,2.88-11.72,5.78-17.61,8.62a1.83,1.83,0,0,0-1.21,1.94q0,29.44,0,58.89Zm-57.1-93.85a3.5,3.5,0,0,0,.45.33q26.18,11.84,52.38,23.65a1.59,1.59,0,0,0,1.19.06c6.09-2.88,12.17-5.79,18.31-8.73a3.29,3.29,0,0,0-.48-.36q-25.3-11.9-50.62-23.77a1.63,1.63,0,0,0-1.19,0C240.33,207.3,233.7,210.24,226.93,213.24Zm105.31-.47c-.46-.25-.78-.45-1.12-.6q-24.84-11.34-49.71-22.66a2.6,2.6,0,0,0-1.9,0c-4.36,1.92-8.68,3.93-13,5.92-.31.14-.6.34-.93.53l.2.15q26.06,11.48,52.12,22.95a1.47,1.47,0,0,0,1.07,0C323.34,217,327.71,214.94,332.24,212.77Z"/><path class="cls-4" d="M444.09,315.45h-.25a12.84,12.84,0,0,0-1.26-.81q-29.9-14.4-59.81-28.77a1.93,1.93,0,0,1-1.27-2q0-34.59,0-69.18a1.86,1.86,0,0,1,1.27-2q26.93-12.25,53.81-24.58c3.47-1.59,6.9-3.24,10.36-4.86h.51c.41.23.8.48,1.23.67Q479.43,198,510.2,212.1a1.86,1.86,0,0,1,1.3,2q-.06,34.54,0,69.08a1.88,1.88,0,0,1-1.32,2q-27.27,12.42-54.53,24.89C451.78,311.83,447.94,313.65,444.09,315.45ZM387.3,215.9c0,.48-.07.81-.07,1.14q0,31.89,0,63.77a1.47,1.47,0,0,0,1,1.56q27.9,13.22,55.78,26.47c.32.15.66.26,1.07.41,0-.43,0-.68,0-.94q0-32.47,0-64.93a1.71,1.71,0,0,0-1.27-1.77Q416.17,229,388.56,216.43C388.18,216.25,387.79,216.11,387.3,215.9Zm63.48,91.19.93-.39q26.58-12.57,53.16-25.12c.87-.4.91-1,.91-1.73q0-30.74,0-61.47v-3.26l-1.41.64c-5,2.44-10,4.89-14.95,7.3a1.66,1.66,0,0,0-1.11,1.75c0,9.55,0,19.11,0,28.67a1.68,1.68,0,0,1-1,1.7c-5,2.71-10,5.48-15,8.23-.32.18-.67.31-1.27.59V232.31c-.64.29-1,.45-1.4.64-5.87,2.88-11.72,5.78-17.61,8.62a1.83,1.83,0,0,0-1.21,1.94q0,29.44,0,58.89Zm-57.1-93.85a3.5,3.5,0,0,0,.45.33q26.17,11.84,52.38,23.65a1.59,1.59,0,0,0,1.19.06c6.09-2.88,12.17-5.79,18.31-8.73a3.29,3.29,0,0,0-.48-.36q-25.3-11.9-50.62-23.77a1.63,1.63,0,0,0-1.19,0C407.08,207.3,400.45,210.24,393.68,213.24ZM499,212.77c-.46-.25-.78-.45-1.12-.6Q473,200.83,448.16,189.51a2.6,2.6,0,0,0-1.9,0c-4.36,1.92-8.68,3.93-13,5.92-.31.14-.6.34-.93.53l.2.15q26.06,11.48,52.12,22.95a1.47,1.47,0,0,0,1.07,0C490.09,217,494.46,214.94,499,212.77Z"/><path class="cls-4" d="M610.84,315.45h-.25a12.84,12.84,0,0,0-1.26-.81q-29.9-14.4-59.81-28.77a1.93,1.93,0,0,1-1.27-2q0-34.59,0-69.18a1.86,1.86,0,0,1,1.27-2q26.93-12.25,53.81-24.58c3.47-1.59,6.9-3.24,10.36-4.86h.51c.41.23.8.48,1.23.67Q646.18,198,677,212.1a1.86,1.86,0,0,1,1.3,2q-.06,34.54,0,69.08a1.88,1.88,0,0,1-1.32,2q-27.27,12.42-54.53,24.89C618.53,311.83,614.69,313.65,610.84,315.45ZM554.05,215.9c0,.48-.07.81-.07,1.14q0,31.89,0,63.77a1.47,1.47,0,0,0,1,1.56q27.9,13.22,55.78,26.47c.32.15.66.26,1.07.41,0-.43,0-.68,0-.94q0-32.47,0-64.93a1.71,1.71,0,0,0-1.27-1.77Q582.92,229,555.31,216.43C554.93,216.25,554.54,216.11,554.05,215.9Zm63.48,91.19.93-.39q26.58-12.57,53.16-25.12c.87-.4.91-1,.91-1.73q0-30.74,0-61.47v-3.26l-1.41.64c-5,2.44-10,4.89-15,7.3a1.66,1.66,0,0,0-1.11,1.75c0,9.55,0,19.11,0,28.67a1.68,1.68,0,0,1-1,1.7c-5,2.71-10,5.48-15.05,8.23-.32.18-.67.31-1.27.59V232.31c-.64.29-1,.45-1.4.64-5.87,2.88-11.72,5.78-17.61,8.62a1.83,1.83,0,0,0-1.21,1.94q0,29.44,0,58.89Zm-57.1-93.85a3.5,3.5,0,0,0,.45.33q26.18,11.84,52.38,23.65a1.59,1.59,0,0,0,1.19.06c6.09-2.88,12.17-5.79,18.31-8.73a3.29,3.29,0,0,0-.48-.36Q607,216.3,581.66,204.42a1.63,1.63,0,0,0-1.19,0C573.83,207.3,567.2,210.24,560.43,213.24Zm105.31-.47c-.46-.25-.78-.45-1.12-.6q-24.84-11.34-49.71-22.66a2.6,2.6,0,0,0-1.9,0c-4.36,1.92-8.68,3.93-13,5.92-.31.14-.6.34-.93.53l.2.15q26.06,11.48,52.12,22.95a1.47,1.47,0,0,0,1.07,0C656.84,217,661.21,214.94,665.74,212.77Z"/><path class="cls-4" d="M777.59,315.45h-.25a12.84,12.84,0,0,0-1.26-.81q-29.9-14.4-59.81-28.77a1.93,1.93,0,0,1-1.27-2q0-34.59,0-69.18a1.86,1.86,0,0,1,1.27-2q26.93-12.25,53.81-24.58c3.47-1.59,6.9-3.24,10.36-4.86H781c.41.23.8.48,1.23.67Q812.93,198,843.7,212.1a1.86,1.86,0,0,1,1.3,2q-.06,34.54,0,69.08a1.88,1.88,0,0,1-1.32,2q-27.27,12.42-54.53,24.89C785.28,311.83,781.44,313.65,777.59,315.45ZM720.8,215.9c0,.48-.07.81-.07,1.14q0,31.89,0,63.77a1.47,1.47,0,0,0,1,1.56q27.9,13.22,55.78,26.47c.32.15.66.26,1.07.41,0-.43,0-.68,0-.94q0-32.47,0-64.93a1.71,1.71,0,0,0-1.27-1.77Q749.67,229,722.06,216.43C721.68,216.25,721.29,216.11,720.8,215.9Zm63.48,91.19.93-.39q26.58-12.57,53.16-25.12c.87-.4.91-1,.91-1.73q0-30.74,0-61.47v-3.26l-1.41.64c-5,2.44-10,4.89-15,7.3a1.66,1.66,0,0,0-1.11,1.75c0,9.55,0,19.11,0,28.67a1.68,1.68,0,0,1-1,1.7c-5,2.71-10,5.48-15.05,8.23-.32.18-.67.31-1.27.59V232.31c-.64.29-1,.45-1.4.64-5.87,2.88-11.72,5.78-17.61,8.62a1.83,1.83,0,0,0-1.21,1.94q0,29.44,0,58.89Zm-57.1-93.85a3.5,3.5,0,0,0,.45.33q26.18,11.84,52.38,23.65a1.59,1.59,0,0,0,1.19.06c6.09-2.88,12.17-5.79,18.31-8.73a3.29,3.29,0,0,0-.48-.36q-25.31-11.9-50.62-23.77a1.63,1.63,0,0,0-1.19,0C740.58,207.3,734,210.24,727.18,213.24Zm105.31-.47c-.46-.25-.78-.45-1.12-.6q-24.84-11.34-49.71-22.66a2.6,2.6,0,0,0-1.9,0c-4.36,1.92-8.68,3.93-13,5.92-.31.14-.6.34-.93.53l.2.15q26.06,11.48,52.12,22.95a1.47,1.47,0,0,0,1.07,0C823.59,217,828,214.94,832.49,212.77Z"/><path class="cls-4" d="M515,526H349.44c.72-15.83,14.31-32.73,29.46-36.3,4.09-1,5.66-4,6.08-7.13a192.49,192.49,0,0,0,2.15-26.13c0-10.15-1.78-20.29-1.78-30.44A64.56,64.56,0,0,1,392,397.25c7.5-15.25,19.66-23.11,36.85-22.71,4.32.1,8.71-.23,13,.37,14,2,23.79,9.91,29.56,22.6,6.91,15.18,8.06,31.11,5.69,47.53-1.61,11.21-2.26,22.54.15,33.76a29.56,29.56,0,0,0,2.91,7.78,6.24,6.24,0,0,0,3.77,2.81c11.26,2.15,18.68,9.12,23.66,18.88C510.35,513.8,512.39,519.72,515,526Zm-47.59-94.4c-2.87,5.52-6.13,2.92-9.48,1.18q-19.32-10-38.7-19.92c-5.37-2.76-10.61-2.32-14.23,2.5-2.91,3.89-4.45,8.82-6.57,13.29-.51,1.09-.61,2.61-1.43,3.26-4.58,3.63-3.69,14.55,1.44,17.51a6.85,6.85,0,0,1,2.77,3c3.16,7.55,7.26,14.46,13.28,20.1,10.89,10.2,23.42,10.29,34.4.21,6.07-5.59,10.22-12.48,13.33-20.06.45-1.1.94-2.47,1.84-3.06A12.9,12.9,0,0,0,467.41,431.6Zm-66,56.34c2.32,7.47,17.21,15.34,30.19,15.34s27.73-7.82,30.23-15.44l-8.53-9.39c-13.47,11.59-27.14,13.73-43.09,0Z"/><rect class="cls-5" x="40" y="641" width="815" height="13"/></svg>