<?xml version="1.0" encoding="utf-8"?>
<!-- Generator: Adobe Illustrator 22.1.0, SVG Export Plug-In . SVG Version: 6.00 Build 0)  -->
<svg version="1.1" id="Layer_1" xmlns="http://www.w3.org/2000/svg" xmlns:xlink="http://www.w3.org/1999/xlink" x="0px" y="0px"
	 viewBox="0 0 900 200" style="enable-background:new 0 0 900 200;" xml:space="preserve">
<style type="text/css">
	.st0{fill:#F7EEC9;}
	.st1{fill:#07448E;}
	.st2{fill:#F9C7E4;}
	.st3{enable-background:new    ;}
</style>
<title>11-implementing-ci</title>
<rect class="st0" width="900" height="200"/>
<rect x="205.8" y="30" class="st1" width="7.1" height="139.2"/>
<rect x="29.9" y="30" class="st1" width="139.2" height="139.2"/>
<path class="st2" d="M104.2,57.3l-6.6,13.7c0.9-0.1,1.8-0.1,2.7-0.1c15.7,0,28.5,12.7,28.5,28.5c0,4.3-1,8.5-2.8,12.3l0.7-0.8
	l6,15.8l14.1,4.8c17.7-25.7,11.3-60.9-14.4-78.6c-9.4-6.5-20.6-10-32.1-10c-0.9,0-1.8,0-2.8,0.1L104.2,57.3z"/>
<path class="st2" d="M61.4,120.6l15.1-5.4c-8.7-13.1-5.1-30.8,8-39.5c2.3-1.5,4.7-2.7,7.3-3.5l7.1-14.9l-6.4-13.9
	c-30.9,4.2-52.6,32.7-48.3,63.7c1.4,10.1,5.5,19.7,11.9,27.7L61.4,120.6z"/>
<path class="st2" d="M129.2,130.4l-5.6-14.6c-9,12.9-26.8,16-39.7,6.9c-1.6-1.1-3-2.4-4.3-3.7L65,124.2l-5.3,14.6
	c21.7,22.4,57.5,23,79.9,1.3c1.5-1.5,2.9-3,4.2-4.6L129.2,130.4z"/>
<g class="st3">
	<path class="st1" d="M247.9,28h7.8v54.1h-7.8V28z"/>
	<path class="st1" d="M263.2,28h7.4l10,28.7h0.2l9.9-28.7h7.5v54.1h-7.8V49.2h-0.2l-7.7,23.3h-3.9l-7.6-23.3h-0.2v32.9h-7.8V28z"/>
	<path class="st1" d="M305.4,28H317c2.1,0,4,0.3,5.6,0.8c1.6,0.6,3.1,1.5,4.4,3c1.3,1.4,2.2,3.1,2.7,5c0.5,1.9,0.8,4.5,0.8,7.7
		c0,2.4-0.1,4.4-0.4,6.1c-0.3,1.7-0.9,3.3-1.8,4.8c-1.1,1.8-2.5,3.2-4.3,4.1c-1.8,1-4.1,1.5-7,1.5h-4v21.1h-7.8V28z M313.2,53.7h3.7
		c1.6,0,2.8-0.2,3.6-0.7c0.9-0.5,1.5-1.1,1.9-1.9c0.4-0.8,0.6-1.7,0.7-2.9c0.1-1.1,0.1-2.4,0.1-3.7c0-1.3,0-2.5-0.1-3.6
		c-0.1-1.1-0.3-2.1-0.7-3s-1-1.5-1.8-2c-0.8-0.5-2-0.7-3.5-0.7h-4V53.7z"/>
	<path class="st1" d="M336.3,28h7.8v46.4h15.4v7.8h-23.1V28z"/>
	<path class="st1" d="M364.5,28h23.1v7.3h-15.4v15.9h13.4v7.3h-13.4v15.9h15.4v7.8h-23.1V28z"/>
	<path class="st1" d="M392.6,28h7.4l10,28.7h0.2L420,28h7.5v54.1h-7.8V49.2h-0.2L412,72.5h-3.9l-7.6-23.3h-0.2v32.9h-7.8V28z"/>
	<path class="st1" d="M434.8,28h23.1v7.3h-15.4v15.9H456v7.3h-13.4v15.9h15.4v7.8h-23.1V28z"/>
	<path class="st1" d="M462.7,28h7.4l11.7,32.6h0.2V28h7.8v54.1h-7.3l-11.9-32.5h-0.2v32.5h-7.8V28z"/>
	<path class="st1" d="M501.8,35.3h-9V28h25.7v7.3h-9v46.8h-7.8V35.3z"/>
	<path class="st1" d="M522.2,28h7.8v54.1h-7.8V28z"/>
	<path class="st1" d="M537.1,28h7.4l11.7,32.6h0.2V28h7.8v54.1h-7.3L545,49.6h-0.2v32.5h-7.8V28z"/>
	<path class="st1" d="M570.7,40.8c0-2.2,0.4-4.1,1.1-5.8c0.8-1.7,1.8-3.1,3-4.1c1.2-1.1,2.6-1.9,4.2-2.5c1.5-0.6,3.1-0.8,4.7-0.8
		c1.6,0,3.1,0.3,4.7,0.8c1.5,0.6,2.9,1.4,4.2,2.5c1.2,1.1,2.2,2.5,3,4.1s1.1,3.6,1.1,5.8v2.7H589v-2.7c0-1.9-0.5-3.3-1.6-4.1
		c-1-0.9-2.3-1.3-3.7-1.3c-1.4,0-2.6,0.4-3.7,1.3c-1,0.9-1.6,2.3-1.6,4.1v28.6c0,1.9,0.5,3.3,1.6,4.1c1,0.9,2.3,1.3,3.7,1.3
		c1.4,0,2.6-0.4,3.7-1.3c1-0.9,1.6-2.3,1.6-4.1V59.2h-6.2v-6.8h13.9v17c0,2.2-0.4,4.2-1.1,5.8c-0.8,1.6-1.8,3-3,4.1
		c-1.2,1.1-2.6,1.9-4.2,2.5c-1.5,0.6-3.1,0.8-4.7,0.8c-1.6,0-3.1-0.3-4.7-0.8c-1.5-0.6-2.9-1.4-4.2-2.5c-1.2-1.1-2.2-2.5-3-4.1
		c-0.8-1.6-1.1-3.6-1.1-5.8V40.8z"/>
</g>
<g class="st3">
	<path class="st1" d="M272.3,161.2c0,1.7-0.3,3.3-1,4.8c-0.6,1.5-1.5,2.8-2.6,4c-1.1,1.1-2.4,2.1-3.9,2.7c-1.5,0.7-3.1,1-4.8,1
		c-1.5,0-3-0.2-4.5-0.6c-1.5-0.4-2.9-1.1-4.1-2.1c-1.2-1-2.2-2.3-3-3.9c-0.8-1.6-1.2-3.7-1.2-6.2v-29.8c0-1.8,0.3-3.4,0.9-4.9
		c0.6-1.5,1.5-2.8,2.6-4c1.1-1.1,2.4-2,4-2.6c1.5-0.6,3.3-1,5.1-1c1.8,0,3.4,0.3,4.9,1c1.5,0.6,2.8,1.5,4,2.7c1.1,1.1,2,2.5,2.6,4.1
		c0.6,1.6,1,3.3,1,5.2v3h-7.8v-2.6c0-1.5-0.4-2.8-1.3-4c-0.9-1.1-2-1.7-3.5-1.7c-1.9,0-3.2,0.6-3.8,1.8c-0.6,1.2-1,2.7-1,4.5v27.7
		c0,1.6,0.3,2.9,1,4c0.7,1.1,1.9,1.6,3.7,1.6c0.5,0,1.1-0.1,1.6-0.3c0.6-0.2,1.1-0.5,1.6-0.9c0.5-0.4,0.9-1,1.2-1.7
		c0.3-0.7,0.5-1.6,0.5-2.7v-2.7h7.8V161.2z"/>
	<path class="st1" d="M278.8,119.2h7.8v54.1h-7.8V119.2z"/>
</g>
</svg>
