<svg id="24c89e6e-2e45-4e23-8710-db13e821b8d6" data-name="Layer 1" xmlns="http://www.w3.org/2000/svg" viewBox="0 0 900 200"><title>11-implementing-ci</title><rect width="900" height="200" style="fill:#f7eec9"/><rect x="205.8" y="30" width="7.1" height="139.2" style="fill:#07448e"/><rect x="29.9" y="30" width="139.2" height="139.2" style="fill:#07448e"/><path d="M104.2,57.3,97.6,71a24.37,24.37,0,0,1,2.7-.1,28.49,28.49,0,0,1,28.5,28.5,28.77,28.77,0,0,1-2.8,12.3l.7-.8,6,15.8,14.1,4.8a56.5,56.5,0,0,0-46.5-88.6,27.15,27.15,0,0,0-2.8.1Z" style="fill:#f9c7e4"/><path d="M61.4,120.6l15.1-5.4a28.51,28.51,0,0,1,8-39.5,28.85,28.85,0,0,1,7.3-3.5l7.1-14.9L92.5,43.4a56.56,56.56,0,0,0-36.4,91.4Z" style="fill:#f9c7e4"/><path d="M129.2,130.4l-5.6-14.6a28.41,28.41,0,0,1-39.7,6.9,31,31,0,0,1-4.3-3.7L65,124.2l-5.3,14.6a56.53,56.53,0,0,0,79.9,1.3,60.16,60.16,0,0,0,4.2-4.6Z" style="fill:#f9c7e4"/><rect x="247.9" y="28" width="7.8" height="54.1" style="fill:#07448e"/><polygon points="263.2 28 270.6 28 280.6 56.7 280.8 56.7 290.7 28 298.2 28 298.2 82.1 290.4 82.1 290.4 49.2 290.2 49.2 282.5 72.5 278.6 72.5 271 49.2 270.8 49.2 270.8 82.1 263 82.1 263 28 263.2 28" style="fill:#07448e"/><path d="M305.4,28H317a18.9,18.9,0,0,1,5.6.8,10.52,10.52,0,0,1,4.4,3,11.61,11.61,0,0,1,2.7,5,31.29,31.29,0,0,1,.8,7.7,35.9,35.9,0,0,1-.4,6.1,14,14,0,0,1-1.8,4.8,10.58,10.58,0,0,1-4.3,4.1,14.25,14.25,0,0,1-7,1.5h-4V82.1h-7.8V28Zm7.8,25.7h3.7a7,7,0,0,0,3.6-.7,4.35,4.35,0,0,0,1.9-1.9,7.72,7.72,0,0,0,.7-2.9c.1-1.1.1-2.4.1-3.7s0-2.5-.1-3.6a9.42,9.42,0,0,0-.7-3,4.38,4.38,0,0,0-1.8-2,6.78,6.78,0,0,0-3.5-.7h-4V53.7Z" style="fill:#07448e"/><polygon points="336.3 28 344.1 28 344.1 74.4 359.5 74.4 359.5 82.2 336.4 82.2 336.4 28 336.3 28" style="fill:#07448e"/><polygon points="364.5 28 387.6 28 387.6 35.3 372.2 35.3 372.2 51.2 385.6 51.2 385.6 58.5 372.2 58.5 372.2 74.4 387.6 74.4 387.6 82.2 364.5 82.2 364.5 28" style="fill:#07448e"/><polygon points="392.6 28 400 28 410 56.7 410.2 56.7 420 28 427.5 28 427.5 82.1 419.7 82.1 419.7 49.2 419.5 49.2 412 72.5 408.1 72.5 400.5 49.2 400.3 49.2 400.3 82.1 392.5 82.1 392.5 28 392.6 28" style="fill:#07448e"/><polygon points="434.8 28 457.9 28 457.9 35.3 442.5 35.3 442.5 51.2 456 51.2 456 58.5 442.6 58.5 442.6 74.4 458 74.4 458 82.2 434.9 82.2 434.9 28 434.8 28" style="fill:#07448e"/><polygon points="462.7 28 470.1 28 481.8 60.6 482 60.6 482 28 489.8 28 489.8 82.1 482.5 82.1 470.6 49.6 470.4 49.6 470.4 82.1 462.6 82.1 462.6 28 462.7 28" style="fill:#07448e"/><polygon points="501.8 35.3 492.8 35.3 492.8 28 518.5 28 518.5 35.3 509.5 35.3 509.5 82.1 501.7 82.1 501.7 35.3 501.8 35.3" style="fill:#07448e"/><rect x="522.2" y="28" width="7.8" height="54.1" style="fill:#07448e"/><polygon points="537.1 28 544.5 28 556.2 60.6 556.4 60.6 556.4 28 564.2 28 564.2 82.1 556.9 82.1 545 49.6 544.8 49.6 544.8 82.1 537 82.1 537 28 537.1 28" style="fill:#07448e"/><path d="M570.7,40.8a15,15,0,0,1,1.1-5.8,11.8,11.8,0,0,1,3-4.1,13.18,13.18,0,0,1,8.9-3.3,15.46,15.46,0,0,1,4.7.8,15.07,15.07,0,0,1,4.2,2.5,14,14,0,0,1,3,4.1,13.07,13.07,0,0,1,1.1,5.8v2.7H589V40.8c0-1.9-.5-3.3-1.6-4.1a5.41,5.41,0,0,0-3.7-1.3,5.58,5.58,0,0,0-3.7,1.3,5.33,5.33,0,0,0-1.6,4.1V69.4c0,1.9.5,3.3,1.6,4.1a5.41,5.41,0,0,0,3.7,1.3,5.58,5.58,0,0,0,3.7-1.3,5.33,5.33,0,0,0,1.6-4.1V59.2h-6.2V52.4h13.9v17a14.63,14.63,0,0,1-1.1,5.8,14,14,0,0,1-3,4.1,13.18,13.18,0,0,1-8.9,3.3,15.46,15.46,0,0,1-4.7-.8,15.07,15.07,0,0,1-4.2-2.5,14,14,0,0,1-3-4.1,13.07,13.07,0,0,1-1.1-5.8Z" style="fill:#07448e"/><path d="M272.3,161.2a11.17,11.17,0,0,1-1,4.8,13.13,13.13,0,0,1-2.6,4,11.86,11.86,0,0,1-3.9,2.7,11.17,11.17,0,0,1-4.8,1,17.4,17.4,0,0,1-4.5-.6,10.67,10.67,0,0,1-4.1-2.1,11.93,11.93,0,0,1-3-3.9,14,14,0,0,1-1.2-6.2V131.1a13,13,0,0,1,.9-4.9,13.13,13.13,0,0,1,2.6-4,11.09,11.09,0,0,1,4-2.6,14,14,0,0,1,5.1-1,11.31,11.31,0,0,1,4.9,1,11.79,11.79,0,0,1,4,2.7,11.51,11.51,0,0,1,2.6,4.1,14.58,14.58,0,0,1,1,5.2v3h-7.8V132a6.39,6.39,0,0,0-1.3-4,4.27,4.27,0,0,0-3.5-1.7c-1.9,0-3.2.6-3.8,1.8a10,10,0,0,0-1,4.5v27.7a7.21,7.21,0,0,0,1,4c.7,1.1,1.9,1.6,3.7,1.6a4.53,4.53,0,0,0,1.6-.3,5.07,5.07,0,0,0,1.6-.9A4.34,4.34,0,0,0,264,163a6.84,6.84,0,0,0,.5-2.7v-2.7h7.8Z" style="fill:#07448e"/><rect x="278.8" y="119.2" width="7.8" height="54.1" style="fill:#07448e"/></svg>