<svg data-name="Layer 1" xmlns="http://www.w3.org/2000/svg" viewBox="0 0 900 200"><path style="fill:#f7eec9" d="M0 0h900v200H0z"/><path style="fill:#07448e" d="M205.8 30h7.1v139.2h-7.1zM29.9 30h139.2v139.2H29.9z"/><path d="M104.2 57.3 97.6 71a24.37 24.37 0 0 1 2.7-.1 28.49 28.49 0 0 1 28.5 28.5 28.77 28.77 0 0 1-2.8 12.3l.7-.8 6 15.8 14.1 4.8a56.5 56.5 0 0 0-46.5-88.6 27.15 27.15 0 0 0-2.8.1Z" style="fill:#f9c7e4"/><path d="m61.4 120.6 15.1-5.4a28.51 28.51 0 0 1 8-39.5 28.85 28.85 0 0 1 7.3-3.5l7.1-14.9-6.4-13.9a56.56 56.56 0 0 0-36.4 91.4Z" style="fill:#f9c7e4"/><path d="m129.2 130.4-5.6-14.6a28.41 28.41 0 0 1-39.7 6.9 31 31 0 0 1-4.3-3.7L65 124.2l-5.3 14.6a56.53 56.53 0 0 0 79.9 1.3 60.16 60.16 0 0 0 4.2-4.6Z" style="fill:#f9c7e4"/><path style="fill:#07448e" d="M247.9 28h7.8v54.1h-7.8zm15.3 0h7.4l10 28.7h.2l9.9-28.7h7.5v54.1h-7.8V49.2h-.2l-7.7 23.3h-3.9L271 49.2h-.2v32.9H263V28h.2zm42.2 0H317a18.9 18.9 0 0 1 5.6.8 10.52 10.52 0 0 1 4.4 3 11.61 11.61 0 0 1 2.7 5 31.29 31.29 0 0 1 .8 7.7 35.9 35.9 0 0 1-.4 6.1 14 14 0 0 1-1.8 4.8 10.58 10.58 0 0 1-4.3 4.1 14.25 14.25 0 0 1-7 1.5h-4v21.1h-7.8V28Zm7.8 25.7h3.7a7 7 0 0 0 3.6-.7 4.35 4.35 0 0 0 1.9-1.9 7.72 7.72 0 0 0 .7-2.9c.1-1.1.1-2.4.1-3.7s0-2.5-.1-3.6a9.42 9.42 0 0 0-.7-3 4.38 4.38 0 0 0-1.8-2 6.78 6.78 0 0 0-3.5-.7h-4v18.5ZM336.3 28h7.8v46.4h15.4v7.8h-23.1V28h-.1zm28.2 0h23.1v7.3h-15.4v15.9h13.4v7.3h-13.4v15.9h15.4v7.8h-23.1V28zm28.1 0h7.4l10 28.7h.2L420 28h7.5v54.1h-7.8V49.2h-.2L412 72.5h-3.9l-7.6-23.3h-.2v32.9h-7.8V28h.1zm42.2 0h23.1v7.3h-15.4v15.9H456v7.3h-13.4v15.9H458v7.8h-23.1V28h-.1zm27.9 0h7.4l11.7 32.6h.2V28h7.8v54.1h-7.3l-11.9-32.5h-.2v32.5h-7.8V28h.1zm39.1 7.3h-9V28h25.7v7.3h-9v46.8h-7.8V35.3h.1zm20.4-7.3h7.8v54.1h-7.8zm14.9 0h7.4l11.7 32.6h.2V28h7.8v54.1h-7.3L545 49.6h-.2v32.5H537V28h.1zm33.6 12.8a15 15 0 0 1 1.1-5.8 11.8 11.8 0 0 1 3-4.1 13.18 13.18 0 0 1 8.9-3.3 15.46 15.46 0 0 1 4.7.8 15.07 15.07 0 0 1 4.2 2.5 14 14 0 0 1 3 4.1 13.07 13.07 0 0 1 1.1 5.8v2.7H589v-2.7c0-1.9-.5-3.3-1.6-4.1a5.41 5.41 0 0 0-3.7-1.3 5.58 5.58 0 0 0-3.7 1.3 5.33 5.33 0 0 0-1.6 4.1v28.6c0 1.9.5 3.3 1.6 4.1a5.41 5.41 0 0 0 3.7 1.3 5.58 5.58 0 0 0 3.7-1.3 5.33 5.33 0 0 0 1.6-4.1V59.2h-6.2v-6.8h13.9v17a14.63 14.63 0 0 1-1.1 5.8 14 14 0 0 1-3 4.1 13.18 13.18 0 0 1-8.9 3.3 15.46 15.46 0 0 1-4.7-.8 15.07 15.07 0 0 1-4.2-2.5 14 14 0 0 1-3-4.1 13.07 13.07 0 0 1-1.1-5.8ZM272.3 161.2a11.17 11.17 0 0 1-1 4.8 13.13 13.13 0 0 1-2.6 4 11.86 11.86 0 0 1-3.9 2.7 11.17 11.17 0 0 1-4.8 1 17.4 17.4 0 0 1-4.5-.6 10.67 10.67 0 0 1-4.1-2.1 11.93 11.93 0 0 1-3-3.9 14 14 0 0 1-1.2-6.2v-29.8a13 13 0 0 1 .9-4.9 13.13 13.13 0 0 1 2.6-4 11.09 11.09 0 0 1 4-2.6 14 14 0 0 1 5.1-1 11.31 11.31 0 0 1 4.9 1 11.79 11.79 0 0 1 4 2.7 11.51 11.51 0 0 1 2.6 4.1 14.58 14.58 0 0 1 1 5.2v3h-7.8V132a6.39 6.39 0 0 0-1.3-4 4.27 4.27 0 0 0-3.5-1.7c-1.9 0-3.2.6-3.8 1.8a10 10 0 0 0-1 4.5v27.7a7.21 7.21 0 0 0 1 4c.7 1.1 1.9 1.6 3.7 1.6a4.53 4.53 0 0 0 1.6-.3 5.07 5.07 0 0 0 1.6-.9 4.34 4.34 0 0 0 1.2-1.7 6.84 6.84 0 0 0 .5-2.7v-2.7h7.8Zm6.5-42h7.8v54.1h-7.8z"/></svg>