<svg id="6fc9722c-3c3e-419a-93d6-8297da2fa363" data-name="Layer 1" xmlns="http://www.w3.org/2000/svg" viewBox="0 0 900 200"><title>12-dependency-updates</title><rect width="900" height="200" style="fill:#f7eec9"/><rect x="205.8" y="30" width="7.1" height="139.2" style="fill:#07448e"/><rect x="29.9" y="30" width="139.2" height="139.2" style="fill:#07448e"/><path d="M104.2,57.3,97.6,71a24.37,24.37,0,0,1,2.7-.1,28.49,28.49,0,0,1,28.5,28.5,28.77,28.77,0,0,1-2.8,12.3l.7-.8,6,15.8,14.1,4.8a56.5,56.5,0,0,0-46.5-88.6,27.15,27.15,0,0,0-2.8.1Z" style="fill:#f9c7e4"/><path d="M61.4,120.6l15.1-5.4a28.51,28.51,0,0,1,8-39.5,28.85,28.85,0,0,1,7.3-3.5l7.1-14.9L92.5,43.4a56.56,56.56,0,0,0-36.4,91.4Z" style="fill:#f9c7e4"/><path d="M129.2,130.4l-5.6-14.6a28.41,28.41,0,0,1-39.7,6.9,31,31,0,0,1-4.3-3.7L65,124.2l-5.3,14.6a56.53,56.53,0,0,0,79.9,1.3,60.16,60.16,0,0,0,4.2-4.6Z" style="fill:#f9c7e4"/><path d="M247.6,28h11.5c4.4,0,7.8,1.2,10.1,3.7s3.5,5.9,3.5,10.3V67.3c0,5.1-1.2,8.8-3.7,11.2s-6,3.6-10.6,3.6H247.6Zm7.8,46.8H259c2.2,0,3.7-.5,4.6-1.6a8,8,0,0,0,1.4-5.1V42a7.73,7.73,0,0,0-1.3-4.9c-.9-1.2-2.4-1.7-4.7-1.7h-3.6Z" style="fill:#07448e"/><polygon points="280 28 303.1 28 303.1 35.3 287.7 35.3 287.7 51.2 301.1 51.2 301.1 58.5 287.7 58.5 287.7 74.4 303.1 74.4 303.1 82.2 280 82.2 280 28" style="fill:#07448e"/><path d="M308.1,28h11.6a18.9,18.9,0,0,1,5.6.8,10.52,10.52,0,0,1,4.4,3,11.61,11.61,0,0,1,2.7,5,31.29,31.29,0,0,1,.8,7.7,35.9,35.9,0,0,1-.4,6.1,14,14,0,0,1-1.8,4.8,10.58,10.58,0,0,1-4.3,4.1,14.25,14.25,0,0,1-7,1.5h-4V82.1h-7.8V28Zm7.8,25.7h3.7a7,7,0,0,0,3.6-.7,4.35,4.35,0,0,0,1.9-1.9,7.72,7.72,0,0,0,.7-2.9c.1-1.1.1-2.4.1-3.7s0-2.5-.1-3.6a9.42,9.42,0,0,0-.7-3,4.38,4.38,0,0,0-1.8-2,6.78,6.78,0,0,0-3.5-.7h-4V53.7Z" style="fill:#07448e"/><polygon points="339.1 28 362.2 28 362.2 35.3 346.8 35.3 346.8 51.2 360.2 51.2 360.2 58.5 346.8 58.5 346.8 74.4 362.2 74.4 362.2 82.2 339.1 82.2 339.1 28" style="fill:#07448e"/><polygon points="366.9 28 374.3 28 386 60.6 386.2 60.6 386.2 28 394 28 394 82.1 386.7 82.1 374.8 49.6 374.6 49.6 374.6 82.1 366.8 82.1 366.8 28 366.9 28" style="fill:#07448e"/><path d="M400.9,28h11.5c4.4,0,7.8,1.2,10.1,3.7S426,37.6,426,42V67.3c0,5.1-1.2,8.8-3.7,11.2s-6,3.6-10.6,3.6H400.9Zm7.8,46.8h3.6c2.2,0,3.7-.5,4.6-1.6a8,8,0,0,0,1.4-5.1V42a7.73,7.73,0,0,0-1.3-4.9c-.9-1.2-2.4-1.7-4.7-1.7h-3.6Z" style="fill:#07448e"/><polygon points="433.3 28 456.4 28 456.4 35.3 441 35.3 441 51.2 454.4 51.2 454.4 58.5 441 58.5 441 74.4 456.4 74.4 456.4 82.2 433.3 82.2 433.3 28" style="fill:#07448e"/><polygon points="461.1 28 468.5 28 480.2 60.6 480.4 60.6 480.4 28 488.2 28 488.2 82.1 480.9 82.1 469 49.6 468.8 49.6 468.8 82.1 461 82.1 461 28 461.1 28" style="fill:#07448e"/><path d="M519.8,70a11.17,11.17,0,0,1-1,4.8,13.13,13.13,0,0,1-2.6,4,11.86,11.86,0,0,1-3.9,2.7,11.17,11.17,0,0,1-4.8,1,17.4,17.4,0,0,1-4.5-.6,10.67,10.67,0,0,1-4.1-2.1,11.93,11.93,0,0,1-3-3.9,14,14,0,0,1-1.2-6.2V40a13,13,0,0,1,.9-4.9,13.13,13.13,0,0,1,2.6-4,11.09,11.09,0,0,1,4-2.6,14,14,0,0,1,5.1-1,11.31,11.31,0,0,1,4.9,1,11.79,11.79,0,0,1,4,2.7,11.51,11.51,0,0,1,2.6,4.1,14.58,14.58,0,0,1,1,5.2v3H512V40.9a6.39,6.39,0,0,0-1.3-4,4.27,4.27,0,0,0-3.5-1.7c-1.9,0-3.2.6-3.8,1.8a10,10,0,0,0-1,4.5V69.2a7.21,7.21,0,0,0,1,4c.7,1.1,1.9,1.6,3.7,1.6a4.53,4.53,0,0,0,1.6-.3,5.07,5.07,0,0,0,1.6-.9,4.34,4.34,0,0,0,1.2-1.7,6.84,6.84,0,0,0,.5-2.7V66.5h7.8Z" style="fill:#07448e"/><polygon points="533.3 59.2 522.7 28 530.9 28 537.1 49.5 537.3 49.5 543.5 28 551.7 28 541.1 59.2 541.1 82.1 533.3 82.1 533.3 59.2" style="fill:#07448e"/><path d="M272.7,161.1a11.31,11.31,0,0,1-1,4.9,15.64,15.64,0,0,1-2.7,4,14.08,14.08,0,0,1-4,2.7,11.31,11.31,0,0,1-4.9,1,11.94,11.94,0,0,1-4.9-1,12.67,12.67,0,0,1-6.7-6.7,11.62,11.62,0,0,1-1-4.9v-42h7.8v41.2a6.17,6.17,0,0,0,1.4,4.3,4.39,4.39,0,0,0,3.4,1.4,4.76,4.76,0,0,0,3.4-1.4,5.84,5.84,0,0,0,1.4-4.3V119.1h7.8Z" style="fill:#07448e"/><path d="M280,119.2h11.6a18.9,18.9,0,0,1,5.6.8,10.52,10.52,0,0,1,4.4,3,11.61,11.61,0,0,1,2.7,5,31.29,31.29,0,0,1,.8,7.7,35.9,35.9,0,0,1-.4,6.1,14,14,0,0,1-1.8,4.8,10.58,10.58,0,0,1-4.3,4.1,14.25,14.25,0,0,1-7,1.5h-4v21.1H280Zm7.8,25.7h3.7a7,7,0,0,0,3.6-.7,4.35,4.35,0,0,0,1.9-1.9,7.72,7.72,0,0,0,.7-2.9c.1-1.1.1-2.4.1-3.7s0-2.5-.1-3.6a9.42,9.42,0,0,0-.7-3,4.38,4.38,0,0,0-1.8-2,6.78,6.78,0,0,0-3.5-.7h-4v18.5Z" style="fill:#07448e"/><path d="M311,119.2h11.5c4.4,0,7.8,1.2,10.1,3.7s3.5,5.9,3.5,10.3v25.3c0,5.1-1.2,8.8-3.7,11.2s-6,3.6-10.6,3.6H311Zm7.7,46.8h3.6c2.2,0,3.7-.5,4.6-1.6a8,8,0,0,0,1.4-5.1V133.2a7.73,7.73,0,0,0-1.3-4.9c-.9-1.2-2.4-1.7-4.7-1.7h-3.6Z" style="fill:#07448e"/><path d="M351,119.2h6.5l12.1,54.1h-7.8l-2.3-11.6H349l-2.3,11.6h-7.8Zm3.3,15.6h-.2l-3.8,19.6h7.8Z" style="fill:#07448e"/><polygon points="374.3 126.5 365.3 126.5 365.3 119.2 391 119.2 391 126.5 382 126.5 382 173.3 374.2 173.3 374.2 126.5 374.3 126.5" style="fill:#07448e"/><polygon points="394.4 119.2 417.5 119.2 417.5 126.5 402.1 126.5 402.1 142.4 415.5 142.4 415.5 149.7 402.1 149.7 402.1 165.6 417.5 165.6 417.5 173.4 394.4 173.4 394.4 119.2" style="fill:#07448e"/><path d="M447.6,134.8h-7.8V133a7.78,7.78,0,0,0-1.3-4.6,4.61,4.61,0,0,0-4.2-1.9,5,5,0,0,0-2.6.6,4.1,4.1,0,0,0-1.6,1.6,7.16,7.16,0,0,0-.8,2.2,11,11,0,0,0-.2,2.6,21,21,0,0,0,.1,2.7,5.31,5.31,0,0,0,.6,1.9,4.27,4.27,0,0,0,1.3,1.4,13.32,13.32,0,0,0,2.4,1.2l5.9,2.4a16.5,16.5,0,0,1,4.2,2.3,9.26,9.26,0,0,1,2.5,3.1,13.07,13.07,0,0,1,1.2,4.1,41.06,41.06,0,0,1,.3,5.3,24.81,24.81,0,0,1-.7,6.3,14.32,14.32,0,0,1-2.2,5,10.35,10.35,0,0,1-4.1,3.3,14.75,14.75,0,0,1-6.3,1.2,12.69,12.69,0,0,1-5.2-1,15.13,15.13,0,0,1-4.2-2.7,12,12,0,0,1-2.8-4.1,12.55,12.55,0,0,1-1-5.1V158h7.8v2.4a5.85,5.85,0,0,0,1.3,3.8c.8,1.1,2.2,1.7,4.2,1.7a6.84,6.84,0,0,0,3.1-.6,4.36,4.36,0,0,0,1.7-1.6,6.12,6.12,0,0,0,.7-2.5,32.51,32.51,0,0,0,.2-3.3,31.58,31.58,0,0,0-.2-3.5,6.39,6.39,0,0,0-.6-2.2,3.76,3.76,0,0,0-1.4-1.4,16.66,16.66,0,0,0-2.3-1.1l-5.5-2.3c-3.3-1.4-5.6-3.2-6.7-5.4a19.49,19.49,0,0,1-1.7-8.5,22,22,0,0,1,.8-5.8A14.08,14.08,0,0,1,425,123a13,13,0,0,1,4.1-3.2,13.51,13.51,0,0,1,5.9-1.2,13.22,13.22,0,0,1,5.3,1.1,12,12,0,0,1,4.1,2.8,14,14,0,0,1,2.6,3.9,11.17,11.17,0,0,1,.9,4.4v4Z" style="fill:#07448e"/></svg>