<?xml version="1.0" encoding="utf-8"?>
<!-- Generator: Adobe Illustrator 22.1.0, SVG Export Plug-In . SVG Version: 6.00 Build 0)  -->
<svg version="1.1" id="Layer_1" xmlns="http://www.w3.org/2000/svg" xmlns:xlink="http://www.w3.org/1999/xlink" x="0px" y="0px"
	 viewBox="0 0 900 200" style="enable-background:new 0 0 900 200;" xml:space="preserve">
<style type="text/css">
	.st0{fill:#F7EEC9;}
	.st1{fill:#07448E;}
	.st2{fill:#F9C7E4;}
	.st3{enable-background:new    ;}
</style>
<title>13-publshing-repositories</title>
<rect class="st0" width="900" height="200"/>
<rect x="205.8" y="30" class="st1" width="7.1" height="139.2"/>
<rect x="29.9" y="30" class="st1" width="139.2" height="139.2"/>
<path class="st2" d="M104.2,57.3l-6.6,13.7c0.9-0.1,1.8-0.1,2.7-0.1c15.7,0,28.5,12.7,28.5,28.5c0,4.3-1,8.5-2.8,12.3l0.7-0.8
	l6,15.8l14.1,4.8c17.7-25.7,11.3-60.9-14.4-78.6c-9.4-6.5-20.6-10-32.1-10c-0.9,0-1.8,0-2.8,0.1L104.2,57.3z"/>
<path class="st2" d="M61.4,120.6l15.1-5.4c-8.7-13.1-5.1-30.8,8-39.5c2.3-1.5,4.7-2.7,7.3-3.5l7.1-14.9l-6.4-13.9
	c-30.9,4.2-52.6,32.7-48.3,63.7c1.4,10.1,5.5,19.7,11.9,27.7L61.4,120.6z"/>
<path class="st2" d="M129.2,130.4l-5.6-14.6c-9,12.9-26.8,16-39.7,6.9c-1.6-1.1-3-2.4-4.3-3.7L65,124.2l-5.3,14.6
	c21.7,22.4,57.5,23,79.9,1.3c1.5-1.5,2.9-3,4.2-4.6L129.2,130.4z"/>
<g class="st3">
	<path class="st1" d="M247.6,28h11.6c2.1,0,4,0.3,5.6,0.8c1.6,0.6,3.1,1.5,4.4,3c1.3,1.4,2.2,3.1,2.7,5c0.5,1.9,0.8,4.5,0.8,7.7
		c0,2.4-0.1,4.4-0.4,6.1c-0.3,1.7-0.9,3.3-1.8,4.8c-1.1,1.8-2.5,3.2-4.3,4.1c-1.8,1-4.1,1.5-7,1.5h-4v21.1h-7.8V28z M255.4,53.7h3.7
		c1.6,0,2.8-0.2,3.6-0.7c0.9-0.5,1.5-1.1,1.9-1.9c0.4-0.8,0.6-1.7,0.7-2.9c0.1-1.1,0.1-2.4,0.1-3.7c0-1.3,0-2.5-0.1-3.6
		c-0.1-1.1-0.3-2.1-0.7-3s-1-1.5-1.8-2c-0.8-0.5-2-0.7-3.5-0.7h-4V53.7z"/>
	<path class="st1" d="M303.7,69.9c0,1.8-0.3,3.4-1,4.9c-0.7,1.5-1.6,2.8-2.7,4c-1.1,1.1-2.5,2-4,2.7c-1.5,0.7-3.1,1-4.9,1
		c-1.7,0-3.3-0.3-4.9-1c-1.5-0.7-2.9-1.6-4-2.7c-1.1-1.1-2-2.5-2.7-4c-0.7-1.5-1-3.2-1-4.9V28h7.8v41.2c0,1.9,0.5,3.3,1.4,4.3
		s2.1,1.4,3.4,1.4s2.5-0.5,3.4-1.4s1.4-2.3,1.4-4.3V28h7.8V69.9z"/>
	<path class="st1" d="M311,28h11.3c2.5,0,4.6,0.4,6.3,1.1c1.7,0.8,3.2,1.8,4.3,3c1.1,1.3,1.9,2.7,2.4,4.4c0.5,1.6,0.7,3.4,0.7,5.1v2
		c0,1.5-0.1,2.7-0.3,3.7c-0.2,1-0.6,1.9-1,2.7c-0.5,0.8-1,1.4-1.7,2c-0.7,0.6-1.4,1.1-2.3,1.6c1.8,0.9,3.2,2.1,4,3.8
		c0.9,1.7,1.3,4,1.3,6.8v3c0,4.8-1.2,8.4-3.5,10.9c-2.3,2.5-6,3.8-11.1,3.8H311V28z M318.7,50.2h3.5c2.6,0,4.3-0.6,5.2-1.9
		c0.9-1.3,1.3-3.2,1.3-5.7c0-2.4-0.5-4.3-1.5-5.5c-1-1.2-2.8-1.8-5.4-1.8h-3.2V50.2z M318.7,74.4h3.3c1.6,0,2.8-0.2,3.7-0.7
		c0.9-0.5,1.6-1.1,2-1.9c0.5-0.8,0.7-1.8,0.8-2.9c0.1-1.1,0.2-2.3,0.2-3.6c0-1.4-0.1-2.6-0.2-3.6c-0.2-1-0.5-1.9-1-2.5
		c-0.5-0.7-1.2-1.2-2-1.6c-0.9-0.4-2-0.5-3.4-0.5h-3.4V74.4z"/>
	<path class="st1" d="M343.3,28h7.8v46.4h15.4v7.8h-23.1V28z"/>
	<path class="st1" d="M371.7,28h7.8v54.1h-7.8V28z"/>
	<path class="st1" d="M412,43.6h-7.8v-1.7c0-1.8-0.4-3.3-1.3-4.6s-2.2-1.9-4.2-1.9c-1.1,0-1.9,0.2-2.6,0.6c-0.7,0.4-1.2,0.9-1.6,1.6
		c-0.4,0.6-0.6,1.4-0.8,2.2c-0.2,0.8-0.2,1.7-0.2,2.6c0,1.1,0,2,0.1,2.7c0.1,0.7,0.3,1.4,0.6,1.9c0.3,0.5,0.7,1,1.3,1.4
		c0.6,0.4,1.4,0.8,2.4,1.2l5.9,2.4c1.7,0.7,3.1,1.4,4.2,2.3c1.1,0.9,1.9,1.9,2.5,3.1c0.6,1.2,1,2.6,1.2,4.1c0.2,1.5,0.3,3.3,0.3,5.3
		c0,2.3-0.2,4.4-0.7,6.3c-0.5,2-1.2,3.6-2.2,5c-1,1.4-2.4,2.5-4.1,3.3c-1.7,0.8-3.8,1.2-6.3,1.2c-1.9,0-3.6-0.3-5.2-1
		c-1.6-0.7-3-1.6-4.2-2.7c-1.2-1.1-2.1-2.5-2.8-4.1c-0.7-1.6-1-3.3-1-5.1v-2.9h7.8v2.4c0,1.4,0.4,2.7,1.3,3.8
		c0.8,1.1,2.2,1.7,4.2,1.7c1.3,0,2.3-0.2,3.1-0.6c0.7-0.4,1.3-0.9,1.7-1.6c0.4-0.7,0.6-1.5,0.7-2.5c0.1-1,0.2-2.1,0.2-3.3
		c0-1.4-0.1-2.6-0.2-3.5c-0.1-0.9-0.3-1.6-0.6-2.2c-0.3-0.6-0.8-1-1.4-1.4c-0.6-0.4-1.4-0.7-2.3-1.1l-5.5-2.3
		c-3.3-1.4-5.6-3.2-6.7-5.4c-1.1-2.3-1.7-5.1-1.7-8.5c0-2,0.3-4,0.8-5.8c0.6-1.8,1.4-3.4,2.5-4.7c1.1-1.3,2.5-2.4,4.1-3.2
		c1.7-0.8,3.6-1.2,5.9-1.2c1.9,0,3.7,0.4,5.3,1.1c1.6,0.7,3,1.6,4.1,2.8c1.1,1.2,2,2.5,2.6,3.9c0.6,1.4,0.9,2.9,0.9,4.4V43.6z"/>
	<path class="st1" d="M417.8,28h7.8v23.2h9.6V28h7.8v54.1h-7.8V58h-9.6v24.1h-7.8V28z"/>
	<path class="st1" d="M450.4,28h7.8v54.1h-7.8V28z"/>
	<path class="st1" d="M465.4,28h7.4l11.7,32.6h0.2V28h7.8v54.1h-7.3l-11.9-32.5h-0.2v32.5h-7.8V28z"/>
	<path class="st1" d="M499,40.8c0-2.2,0.4-4.1,1.1-5.8s1.8-3.1,3-4.1c1.2-1.1,2.6-1.9,4.2-2.5c1.5-0.6,3.1-0.8,4.7-0.8
		c1.6,0,3.1,0.3,4.7,0.8c1.5,0.6,2.9,1.4,4.2,2.5c1.2,1.1,2.2,2.5,3,4.1s1.1,3.6,1.1,5.8v2.7h-7.8v-2.7c0-1.9-0.5-3.3-1.6-4.1
		c-1-0.9-2.3-1.3-3.7-1.3c-1.4,0-2.6,0.4-3.7,1.3c-1,0.9-1.6,2.3-1.6,4.1v28.6c0,1.9,0.5,3.3,1.6,4.1c1,0.9,2.3,1.3,3.7,1.3
		c1.4,0,2.6-0.4,3.7-1.3c1-0.9,1.6-2.3,1.6-4.1V59.2h-6.2v-6.8H525v17c0,2.2-0.4,4.2-1.1,5.8c-0.8,1.6-1.8,3-3,4.1
		c-1.2,1.1-2.6,1.9-4.2,2.5c-1.5,0.6-3.1,0.8-4.7,0.8c-1.6,0-3.1-0.3-4.7-0.8c-1.5-0.6-2.9-1.4-4.2-2.5c-1.2-1.1-2.2-2.5-3-4.1
		c-0.8-1.6-1.1-3.6-1.1-5.8V40.8z"/>
</g>
<g class="st3">
	<path class="st1" d="M247.6,119.2h12.5c9.1,0,13.7,5.3,13.7,15.9c0,3.1-0.5,5.8-1.5,8.1c-1,2.3-2.7,4.1-5.2,5.4l8.4,24.7h-8.2
		l-7.2-23.1h-4.6v23.1h-7.8V119.2z M255.4,143.4h4.4c1.4,0,2.5-0.2,3.3-0.6c0.8-0.4,1.4-0.9,1.9-1.6c0.4-0.7,0.7-1.6,0.9-2.6
		c0.2-1,0.2-2.2,0.2-3.6s-0.1-2.6-0.2-3.6c-0.2-1-0.5-1.9-1-2.7c-0.5-0.7-1.2-1.3-2-1.6c-0.9-0.4-2-0.5-3.4-0.5h-4V143.4z"/>
	<path class="st1" d="M280,119.2h23.1v7.3h-15.4v15.9h13.4v7.3h-13.4v15.9h15.4v7.8H280V119.2z"/>
	<path class="st1" d="M308.1,119.2h11.6c2.1,0,4,0.3,5.6,0.8c1.6,0.6,3.1,1.5,4.4,3c1.3,1.4,2.2,3.1,2.7,5c0.5,1.9,0.8,4.5,0.8,7.7
		c0,2.4-0.1,4.4-0.4,6.1c-0.3,1.7-0.9,3.3-1.8,4.8c-1.1,1.8-2.5,3.2-4.3,4.1c-1.8,1-4.1,1.5-7,1.5h-4v21.1h-7.8V119.2z M315.9,144.9
		h3.7c1.6,0,2.8-0.2,3.6-0.7c0.9-0.5,1.5-1.1,1.9-1.9c0.4-0.8,0.6-1.7,0.7-2.9c0.1-1.1,0.1-2.4,0.1-3.7c0-1.3,0-2.5-0.1-3.6
		c-0.1-1.1-0.3-2.1-0.7-3s-1-1.5-1.8-2c-0.8-0.5-2-0.7-3.5-0.7h-4V144.9z"/>
	<path class="st1" d="M338.6,132c0-2.2,0.4-4.1,1.1-5.8c0.8-1.7,1.8-3.1,3-4.1c1.2-1.1,2.6-1.9,4.2-2.5c1.5-0.6,3.1-0.8,4.7-0.8
		c1.6,0,3.1,0.3,4.7,0.8c1.5,0.6,2.9,1.4,4.2,2.5c1.2,1.1,2.2,2.5,3,4.1c0.8,1.7,1.1,3.6,1.1,5.8v28.6c0,2.2-0.4,4.2-1.1,5.8
		c-0.8,1.6-1.8,3-3,4.1c-1.2,1.1-2.6,1.9-4.2,2.5c-1.5,0.6-3.1,0.8-4.7,0.8c-1.6,0-3.1-0.3-4.7-0.8c-1.5-0.6-2.9-1.4-4.2-2.5
		c-1.2-1.1-2.2-2.5-3-4.1c-0.8-1.6-1.1-3.6-1.1-5.8V132z M346.4,160.5c0,1.9,0.5,3.3,1.6,4.1c1,0.9,2.3,1.3,3.7,1.3
		c1.4,0,2.6-0.4,3.7-1.3c1-0.9,1.6-2.3,1.6-4.1V132c0-1.9-0.5-3.3-1.6-4.1c-1-0.9-2.3-1.3-3.7-1.3c-1.4,0-2.6,0.4-3.7,1.3
		c-1,0.9-1.6,2.3-1.6,4.1V160.5z"/>
	<path class="st1" d="M396.5,134.8h-7.8V133c0-1.8-0.4-3.3-1.3-4.6s-2.2-1.9-4.2-1.9c-1.1,0-1.9,0.2-2.6,0.6
		c-0.7,0.4-1.2,0.9-1.6,1.6c-0.4,0.6-0.6,1.4-0.8,2.2c-0.2,0.8-0.2,1.7-0.2,2.6c0,1.1,0,2,0.1,2.7c0.1,0.7,0.3,1.4,0.6,1.9
		c0.3,0.5,0.7,1,1.3,1.4c0.6,0.4,1.4,0.8,2.4,1.2l5.9,2.4c1.7,0.7,3.1,1.4,4.2,2.3c1.1,0.9,1.9,1.9,2.5,3.1c0.6,1.2,1,2.6,1.2,4.1
		c0.2,1.5,0.3,3.3,0.3,5.3c0,2.3-0.2,4.4-0.7,6.3c-0.5,2-1.2,3.6-2.2,5c-1,1.4-2.4,2.5-4.1,3.3c-1.7,0.8-3.8,1.2-6.3,1.2
		c-1.9,0-3.6-0.3-5.2-1c-1.6-0.7-3-1.6-4.2-2.7c-1.2-1.1-2.1-2.5-2.8-4.1c-0.7-1.6-1-3.3-1-5.1V158h7.8v2.4c0,1.4,0.4,2.7,1.3,3.8
		c0.8,1.1,2.2,1.7,4.2,1.7c1.3,0,2.3-0.2,3.1-0.6c0.7-0.4,1.3-0.9,1.7-1.6c0.4-0.7,0.6-1.5,0.7-2.5c0.1-1,0.2-2.1,0.2-3.3
		c0-1.4-0.1-2.6-0.2-3.5c-0.1-0.9-0.3-1.6-0.6-2.2c-0.3-0.6-0.8-1-1.4-1.4c-0.6-0.4-1.4-0.7-2.3-1.1l-5.5-2.3
		c-3.3-1.4-5.6-3.2-6.7-5.4c-1.1-2.3-1.7-5.1-1.7-8.5c0-2,0.3-4,0.8-5.8c0.6-1.8,1.4-3.4,2.5-4.7c1.1-1.3,2.5-2.4,4.1-3.2
		c1.7-0.8,3.6-1.2,5.9-1.2c1.9,0,3.7,0.4,5.3,1.1c1.6,0.7,3,1.6,4.1,2.8c1.1,1.2,2,2.5,2.6,3.9c0.6,1.4,0.9,2.9,0.9,4.4V134.8z"/>
	<path class="st1" d="M402.5,119.2h7.8v54.1h-7.8V119.2z"/>
</g>
<g class="st3">
	<path class="st1" d="M422.9,126.5h-9v-7.3h25.7v7.3h-9v46.8h-7.8V126.5z"/>
</g>
<g class="st3">
	<path class="st1" d="M441.7,132c0-2.2,0.4-4.1,1.1-5.8c0.8-1.7,1.8-3.1,3-4.1c1.2-1.1,2.6-1.9,4.2-2.5c1.5-0.6,3.1-0.8,4.7-0.8
		c1.6,0,3.1,0.3,4.7,0.8c1.5,0.6,2.9,1.4,4.2,2.5c1.2,1.1,2.2,2.5,3,4.1c0.8,1.7,1.1,3.6,1.1,5.8v28.6c0,2.2-0.4,4.2-1.1,5.8
		c-0.8,1.6-1.8,3-3,4.1c-1.2,1.1-2.6,1.9-4.2,2.5c-1.5,0.6-3.1,0.8-4.7,0.8c-1.6,0-3.1-0.3-4.7-0.8c-1.5-0.6-2.9-1.4-4.2-2.5
		c-1.2-1.1-2.2-2.5-3-4.1c-0.8-1.6-1.1-3.6-1.1-5.8V132z M449.4,160.5c0,1.9,0.5,3.3,1.6,4.1c1,0.9,2.3,1.3,3.7,1.3
		c1.4,0,2.6-0.4,3.7-1.3c1-0.9,1.6-2.3,1.6-4.1V132c0-1.9-0.5-3.3-1.6-4.1c-1-0.9-2.3-1.3-3.7-1.3c-1.4,0-2.6,0.4-3.7,1.3
		c-1,0.9-1.6,2.3-1.6,4.1V160.5z"/>
	<path class="st1" d="M474.5,119.2H487c9.1,0,13.7,5.3,13.7,15.9c0,3.1-0.5,5.8-1.5,8.1c-1,2.3-2.7,4.1-5.2,5.4l8.4,24.7h-8.2
		l-7.2-23.1h-4.6v23.1h-7.8V119.2z M482.3,143.4h4.4c1.4,0,2.5-0.2,3.3-0.6c0.8-0.4,1.4-0.9,1.9-1.6c0.4-0.7,0.7-1.6,0.9-2.6
		c0.2-1,0.2-2.2,0.2-3.6s-0.1-2.6-0.2-3.6c-0.2-1-0.5-1.9-1-2.7c-0.5-0.7-1.2-1.3-2-1.6c-0.9-0.4-2-0.5-3.4-0.5h-4V143.4z"/>
	<path class="st1" d="M507.1,119.2h7.8v54.1h-7.8V119.2z"/>
	<path class="st1" d="M522.4,119.2h23.1v7.3h-15.4v15.9h13.4v7.3h-13.4v15.9h15.4v7.8h-23.1V119.2z"/>
	<path class="st1" d="M575.6,134.8h-7.8V133c0-1.8-0.4-3.3-1.3-4.6s-2.2-1.9-4.2-1.9c-1.1,0-1.9,0.2-2.6,0.6
		c-0.7,0.4-1.2,0.9-1.6,1.6c-0.4,0.6-0.6,1.4-0.8,2.2c-0.2,0.8-0.2,1.7-0.2,2.6c0,1.1,0,2,0.1,2.7c0.1,0.7,0.3,1.4,0.6,1.9
		c0.3,0.5,0.7,1,1.3,1.4c0.6,0.4,1.4,0.8,2.4,1.2l5.9,2.4c1.7,0.7,3.1,1.4,4.2,2.3c1.1,0.9,1.9,1.9,2.5,3.1c0.6,1.2,1,2.6,1.2,4.1
		c0.2,1.5,0.3,3.3,0.3,5.3c0,2.3-0.2,4.4-0.7,6.3c-0.5,2-1.2,3.6-2.2,5c-1,1.4-2.4,2.5-4.1,3.3c-1.7,0.8-3.8,1.2-6.3,1.2
		c-1.9,0-3.6-0.3-5.2-1c-1.6-0.7-3-1.6-4.2-2.7c-1.2-1.1-2.1-2.5-2.8-4.1c-0.7-1.6-1-3.3-1-5.1V158h7.8v2.4c0,1.4,0.4,2.7,1.3,3.8
		c0.8,1.1,2.2,1.7,4.2,1.7c1.3,0,2.3-0.2,3.1-0.6c0.7-0.4,1.3-0.9,1.7-1.6c0.4-0.7,0.6-1.5,0.7-2.5c0.1-1,0.2-2.1,0.2-3.3
		c0-1.4-0.1-2.6-0.2-3.5c-0.1-0.9-0.3-1.6-0.6-2.2c-0.3-0.6-0.8-1-1.4-1.4c-0.6-0.4-1.4-0.7-2.3-1.1l-5.5-2.3
		c-3.3-1.4-5.6-3.2-6.7-5.4c-1.1-2.3-1.7-5.1-1.7-8.5c0-2,0.3-4,0.8-5.8c0.6-1.8,1.4-3.4,2.5-4.7c1.1-1.3,2.5-2.4,4.1-3.2
		c1.7-0.8,3.6-1.2,5.9-1.2c1.9,0,3.7,0.4,5.3,1.1c1.6,0.7,3,1.6,4.1,2.8c1.1,1.2,2,2.5,2.6,3.9c0.6,1.4,0.9,2.9,0.9,4.4V134.8z"/>
</g>
</svg>
