<svg id="32620f24-731d-4c2c-bbf3-9086bf6510eb" data-name="Layer 1" xmlns="http://www.w3.org/2000/svg" viewBox="0 0 900 200"><title>13-publshing-repositories</title><rect width="900" height="200" style="fill:#f7eec9"/><rect x="205.8" y="30" width="7.1" height="139.2" style="fill:#07448e"/><rect x="29.9" y="30" width="139.2" height="139.2" style="fill:#07448e"/><path d="M104.2,57.3,97.6,71a24.37,24.37,0,0,1,2.7-.1,28.49,28.49,0,0,1,28.5,28.5,28.77,28.77,0,0,1-2.8,12.3l.7-.8,6,15.8,14.1,4.8a56.5,56.5,0,0,0-46.5-88.6,27.15,27.15,0,0,0-2.8.1Z" style="fill:#f9c7e4"/><path d="M61.4,120.6l15.1-5.4a28.51,28.51,0,0,1,8-39.5,28.85,28.85,0,0,1,7.3-3.5l7.1-14.9L92.5,43.4a56.56,56.56,0,0,0-36.4,91.4Z" style="fill:#f9c7e4"/><path d="M129.2,130.4l-5.6-14.6a28.41,28.41,0,0,1-39.7,6.9,31,31,0,0,1-4.3-3.7L65,124.2l-5.3,14.6a56.53,56.53,0,0,0,79.9,1.3,60.16,60.16,0,0,0,4.2-4.6Z" style="fill:#f9c7e4"/><path d="M247.6,28h11.6a18.9,18.9,0,0,1,5.6.8,10.52,10.52,0,0,1,4.4,3,11.61,11.61,0,0,1,2.7,5,31.29,31.29,0,0,1,.8,7.7,35.9,35.9,0,0,1-.4,6.1,14,14,0,0,1-1.8,4.8,10.58,10.58,0,0,1-4.3,4.1,14.25,14.25,0,0,1-7,1.5h-4V82.1h-7.8V28Zm7.8,25.7h3.7a7,7,0,0,0,3.6-.7,4.35,4.35,0,0,0,1.9-1.9,7.72,7.72,0,0,0,.7-2.9c.1-1.1.1-2.4.1-3.7s0-2.5-.1-3.6a9.42,9.42,0,0,0-.7-3,4.38,4.38,0,0,0-1.8-2,6.78,6.78,0,0,0-3.5-.7h-4V53.7Z" style="fill:#07448e"/><path d="M303.7,69.9a11.31,11.31,0,0,1-1,4.9,15.64,15.64,0,0,1-2.7,4,14.08,14.08,0,0,1-4,2.7,11.31,11.31,0,0,1-4.9,1,11.94,11.94,0,0,1-4.9-1,12.67,12.67,0,0,1-6.7-6.7,11.62,11.62,0,0,1-1-4.9V28h7.8V69.2a6.17,6.17,0,0,0,1.4,4.3,4.39,4.39,0,0,0,3.4,1.4,4.76,4.76,0,0,0,3.4-1.4,5.84,5.84,0,0,0,1.4-4.3V28h7.8Z" style="fill:#07448e"/><path d="M311,28h11.3a16.54,16.54,0,0,1,6.3,1.1,13.76,13.76,0,0,1,4.3,3,11.79,11.79,0,0,1,2.4,4.4,17.45,17.45,0,0,1,.7,5.1v2a19,19,0,0,1-.3,3.7,10.79,10.79,0,0,1-1,2.7,8.2,8.2,0,0,1-1.7,2,13.36,13.36,0,0,1-2.3,1.6,8.23,8.23,0,0,1,4,3.8,14.72,14.72,0,0,1,1.3,6.8v3c0,4.8-1.2,8.4-3.5,10.9s-6,3.8-11.1,3.8H311Zm7.7,22.2h3.5c2.6,0,4.3-.6,5.2-1.9a10,10,0,0,0,1.3-5.7,8.59,8.59,0,0,0-1.5-5.5q-1.5-1.8-5.4-1.8h-3.2V50.2Zm0,24.2H322a7.62,7.62,0,0,0,3.7-.7,4.61,4.61,0,0,0,2-1.9,6.56,6.56,0,0,0,.8-2.9c.1-1.1.2-2.3.2-3.6a35.29,35.29,0,0,0-.2-3.6,5.71,5.71,0,0,0-1-2.5,5.26,5.26,0,0,0-2-1.6,8.42,8.42,0,0,0-3.4-.5h-3.4Z" style="fill:#07448e"/><polygon points="343.3 28 351.1 28 351.1 74.4 366.5 74.4 366.5 82.2 343.4 82.2 343.4 28 343.3 28" style="fill:#07448e"/><rect x="371.7" y="28" width="7.8" height="54.1" style="fill:#07448e"/><path d="M412,43.6h-7.8V41.9a7.78,7.78,0,0,0-1.3-4.6,4.61,4.61,0,0,0-4.2-1.9,5,5,0,0,0-2.6.6,4.1,4.1,0,0,0-1.6,1.6,7.16,7.16,0,0,0-.8,2.2,11,11,0,0,0-.2,2.6,21,21,0,0,0,.1,2.7,5.31,5.31,0,0,0,.6,1.9,4.27,4.27,0,0,0,1.3,1.4,13.32,13.32,0,0,0,2.4,1.2l5.9,2.4a16.5,16.5,0,0,1,4.2,2.3,9.26,9.26,0,0,1,2.5,3.1,13.07,13.07,0,0,1,1.2,4.1,41.06,41.06,0,0,1,.3,5.3,24.81,24.81,0,0,1-.7,6.3,14.32,14.32,0,0,1-2.2,5,10.35,10.35,0,0,1-4.1,3.3,14.75,14.75,0,0,1-6.3,1.2,12.69,12.69,0,0,1-5.2-1,15.13,15.13,0,0,1-4.2-2.7,12,12,0,0,1-2.8-4.1,12.55,12.55,0,0,1-1-5.1V66.8h7.8v2.4a5.85,5.85,0,0,0,1.3,3.8c.8,1.1,2.2,1.7,4.2,1.7a6.84,6.84,0,0,0,3.1-.6,4.36,4.36,0,0,0,1.7-1.6,6.12,6.12,0,0,0,.7-2.5,32.51,32.51,0,0,0,.2-3.3,31.58,31.58,0,0,0-.2-3.5,6.39,6.39,0,0,0-.6-2.2,3.76,3.76,0,0,0-1.4-1.4,16.66,16.66,0,0,0-2.3-1.1l-5.5-2.3c-3.3-1.4-5.6-3.2-6.7-5.4a19.49,19.49,0,0,1-1.7-8.5,22,22,0,0,1,.8-5.8,14.08,14.08,0,0,1,2.5-4.7,13,13,0,0,1,4.1-3.2,13.51,13.51,0,0,1,5.9-1.2,13.22,13.22,0,0,1,5.3,1.1,12,12,0,0,1,4.1,2.8,14,14,0,0,1,2.6,3.9,11.17,11.17,0,0,1,.9,4.4v4Z" style="fill:#07448e"/><polygon points="417.8 28 425.6 28 425.6 51.2 435.2 51.2 435.2 28 443 28 443 82.1 435.2 82.1 435.2 58 425.6 58 425.6 82.1 417.8 82.1 417.8 28" style="fill:#07448e"/><rect x="450.4" y="28" width="7.8" height="54.1" style="fill:#07448e"/><polygon points="465.4 28 472.8 28 484.5 60.6 484.7 60.6 484.7 28 492.5 28 492.5 82.1 485.2 82.1 473.3 49.6 473.1 49.6 473.1 82.1 465.3 82.1 465.3 28 465.4 28" style="fill:#07448e"/><path d="M499,40.8a15,15,0,0,1,1.1-5.8,10.67,10.67,0,0,1,3-4.1,13.18,13.18,0,0,1,8.9-3.3,15.46,15.46,0,0,1,4.7.8,15.07,15.07,0,0,1,4.2,2.5,14,14,0,0,1,3,4.1,13.07,13.07,0,0,1,1.1,5.8v2.7h-7.8V40.8c0-1.9-.5-3.3-1.6-4.1a5.41,5.41,0,0,0-3.7-1.3,5.58,5.58,0,0,0-3.7,1.3,5.33,5.33,0,0,0-1.6,4.1V69.4c0,1.9.5,3.3,1.6,4.1a5.41,5.41,0,0,0,3.7,1.3,5.58,5.58,0,0,0,3.7-1.3,5.33,5.33,0,0,0,1.6-4.1V59.2H511V52.4h14v17a14.63,14.63,0,0,1-1.1,5.8,14,14,0,0,1-3,4.1,13.18,13.18,0,0,1-8.9,3.3,15.46,15.46,0,0,1-4.7-.8,15.07,15.07,0,0,1-4.2-2.5,14,14,0,0,1-3-4.1,13.07,13.07,0,0,1-1.1-5.8Z" style="fill:#07448e"/><path d="M247.6,119.2h12.5c9.1,0,13.7,5.3,13.7,15.9a20.19,20.19,0,0,1-1.5,8.1,10.88,10.88,0,0,1-5.2,5.4l8.4,24.7h-8.2l-7.2-23.1h-4.6v23.1h-7.8V119.2Zm7.8,24.2h4.4a7.48,7.48,0,0,0,3.3-.6,4.94,4.94,0,0,0,1.9-1.6,8.81,8.81,0,0,0,.9-2.6,19.44,19.44,0,0,0,.2-3.6,35.29,35.29,0,0,0-.2-3.6,7.94,7.94,0,0,0-1-2.7,4.47,4.47,0,0,0-2-1.6,8.42,8.42,0,0,0-3.4-.5h-4v16.8Z" style="fill:#07448e"/><polygon points="280 119.2 303.1 119.2 303.1 126.5 287.7 126.5 287.7 142.4 301.1 142.4 301.1 149.7 287.7 149.7 287.7 165.6 303.1 165.6 303.1 173.4 280 173.4 280 119.2" style="fill:#07448e"/><path d="M308.1,119.2h11.6a18.9,18.9,0,0,1,5.6.8,10.52,10.52,0,0,1,4.4,3,11.61,11.61,0,0,1,2.7,5,31.29,31.29,0,0,1,.8,7.7,35.9,35.9,0,0,1-.4,6.1,14,14,0,0,1-1.8,4.8,10.58,10.58,0,0,1-4.3,4.1,14.25,14.25,0,0,1-7,1.5h-4v21.1h-7.8V119.2Zm7.8,25.7h3.7a7,7,0,0,0,3.6-.7,4.35,4.35,0,0,0,1.9-1.9,7.72,7.72,0,0,0,.7-2.9c.1-1.1.1-2.4.1-3.7s0-2.5-.1-3.6a9.42,9.42,0,0,0-.7-3,4.38,4.38,0,0,0-1.8-2,6.78,6.78,0,0,0-3.5-.7h-4v18.5Z" style="fill:#07448e"/><path d="M338.6,132a15,15,0,0,1,1.1-5.8,11.8,11.8,0,0,1,3-4.1,13.18,13.18,0,0,1,8.9-3.3,15.46,15.46,0,0,1,4.7.8,15.07,15.07,0,0,1,4.2,2.5,14,14,0,0,1,3,4.1,13.35,13.35,0,0,1,1.1,5.8v28.6a14.63,14.63,0,0,1-1.1,5.8,14,14,0,0,1-3,4.1,13.18,13.18,0,0,1-8.9,3.3,15.46,15.46,0,0,1-4.7-.8,15.07,15.07,0,0,1-4.2-2.5,14,14,0,0,1-3-4.1,13.07,13.07,0,0,1-1.1-5.8Zm7.8,28.5c0,1.9.5,3.3,1.6,4.1a5.41,5.41,0,0,0,3.7,1.3,5.58,5.58,0,0,0,3.7-1.3,5.33,5.33,0,0,0,1.6-4.1V132c0-1.9-.5-3.3-1.6-4.1a5.41,5.41,0,0,0-3.7-1.3,5.58,5.58,0,0,0-3.7,1.3,5.33,5.33,0,0,0-1.6,4.1Z" style="fill:#07448e"/><path d="M396.5,134.8h-7.8V133a7.78,7.78,0,0,0-1.3-4.6,4.61,4.61,0,0,0-4.2-1.9,5,5,0,0,0-2.6.6,4.1,4.1,0,0,0-1.6,1.6,7.16,7.16,0,0,0-.8,2.2,11,11,0,0,0-.2,2.6,21,21,0,0,0,.1,2.7,5.31,5.31,0,0,0,.6,1.9,4.27,4.27,0,0,0,1.3,1.4,13.32,13.32,0,0,0,2.4,1.2l5.9,2.4a16.5,16.5,0,0,1,4.2,2.3,9.26,9.26,0,0,1,2.5,3.1,13.07,13.07,0,0,1,1.2,4.1,41.06,41.06,0,0,1,.3,5.3,24.81,24.81,0,0,1-.7,6.3,14.32,14.32,0,0,1-2.2,5,10.35,10.35,0,0,1-4.1,3.3,14.75,14.75,0,0,1-6.3,1.2,12.69,12.69,0,0,1-5.2-1,15.13,15.13,0,0,1-4.2-2.7,12,12,0,0,1-2.8-4.1,12.55,12.55,0,0,1-1-5.1V158h7.8v2.4a5.85,5.85,0,0,0,1.3,3.8c.8,1.1,2.2,1.7,4.2,1.7a6.84,6.84,0,0,0,3.1-.6,4.36,4.36,0,0,0,1.7-1.6,6.12,6.12,0,0,0,.7-2.5,32.51,32.51,0,0,0,.2-3.3,31.58,31.58,0,0,0-.2-3.5,6.39,6.39,0,0,0-.6-2.2,3.76,3.76,0,0,0-1.4-1.4,16.66,16.66,0,0,0-2.3-1.1l-5.5-2.3c-3.3-1.4-5.6-3.2-6.7-5.4a19.49,19.49,0,0,1-1.7-8.5,22,22,0,0,1,.8-5.8,14.08,14.08,0,0,1,2.5-4.7,13,13,0,0,1,4.1-3.2,13.51,13.51,0,0,1,5.9-1.2,13.22,13.22,0,0,1,5.3,1.1,12,12,0,0,1,4.1,2.8,14,14,0,0,1,2.6,3.9,11.17,11.17,0,0,1,.9,4.4v4Z" style="fill:#07448e"/><rect x="402.5" y="119.2" width="7.8" height="54.1" style="fill:#07448e"/><polygon points="422.9 126.5 413.9 126.5 413.9 119.2 439.6 119.2 439.6 126.5 430.6 126.5 430.6 173.3 422.8 173.3 422.8 126.5 422.9 126.5" style="fill:#07448e"/><path d="M441.7,132a15,15,0,0,1,1.1-5.8,11.8,11.8,0,0,1,3-4.1,13.18,13.18,0,0,1,8.9-3.3,15.46,15.46,0,0,1,4.7.8,15.07,15.07,0,0,1,4.2,2.5,14,14,0,0,1,3,4.1,13.35,13.35,0,0,1,1.1,5.8v28.6a14.63,14.63,0,0,1-1.1,5.8,14,14,0,0,1-3,4.1,13.18,13.18,0,0,1-8.9,3.3,15.46,15.46,0,0,1-4.7-.8,15.07,15.07,0,0,1-4.2-2.5,14,14,0,0,1-3-4.1,13.07,13.07,0,0,1-1.1-5.8Zm7.7,28.5c0,1.9.5,3.3,1.6,4.1a5.41,5.41,0,0,0,3.7,1.3,5.58,5.58,0,0,0,3.7-1.3,5.33,5.33,0,0,0,1.6-4.1V132c0-1.9-.5-3.3-1.6-4.1a5.41,5.41,0,0,0-3.7-1.3,5.58,5.58,0,0,0-3.7,1.3,5.33,5.33,0,0,0-1.6,4.1Z" style="fill:#07448e"/><path d="M474.5,119.2H487c9.1,0,13.7,5.3,13.7,15.9a20.19,20.19,0,0,1-1.5,8.1,10.88,10.88,0,0,1-5.2,5.4l8.4,24.7h-8.2L487,150.2h-4.6v23.1h-7.8V119.2Zm7.8,24.2h4.4a7.48,7.48,0,0,0,3.3-.6,4.94,4.94,0,0,0,1.9-1.6,8.81,8.81,0,0,0,.9-2.6,19.44,19.44,0,0,0,.2-3.6,35.29,35.29,0,0,0-.2-3.6,7.94,7.94,0,0,0-1-2.7,4.47,4.47,0,0,0-2-1.6,8.42,8.42,0,0,0-3.4-.5h-4v16.8Z" style="fill:#07448e"/><rect x="507.1" y="119.2" width="7.8" height="54.1" style="fill:#07448e"/><polygon points="522.4 119.2 545.5 119.2 545.5 126.5 530.1 126.5 530.1 142.4 543.5 142.4 543.5 149.7 530.1 149.7 530.1 165.6 545.5 165.6 545.5 173.4 522.4 173.4 522.4 119.2" style="fill:#07448e"/><path d="M575.6,134.8h-7.8V133a7.78,7.78,0,0,0-1.3-4.6,4.61,4.61,0,0,0-4.2-1.9,5,5,0,0,0-2.6.6,4.1,4.1,0,0,0-1.6,1.6,7.16,7.16,0,0,0-.8,2.2,11,11,0,0,0-.2,2.6,21,21,0,0,0,.1,2.7,5.31,5.31,0,0,0,.6,1.9,4.27,4.27,0,0,0,1.3,1.4,13.32,13.32,0,0,0,2.4,1.2l5.9,2.4a16.5,16.5,0,0,1,4.2,2.3,9.26,9.26,0,0,1,2.5,3.1,13.07,13.07,0,0,1,1.2,4.1,41.06,41.06,0,0,1,.3,5.3,24.81,24.81,0,0,1-.7,6.3,14.32,14.32,0,0,1-2.2,5,10.35,10.35,0,0,1-4.1,3.3,14.75,14.75,0,0,1-6.3,1.2,12.69,12.69,0,0,1-5.2-1,15.13,15.13,0,0,1-4.2-2.7,12,12,0,0,1-2.8-4.1,12.55,12.55,0,0,1-1-5.1V158h7.8v2.4a5.85,5.85,0,0,0,1.3,3.8c.8,1.1,2.2,1.7,4.2,1.7a6.84,6.84,0,0,0,3.1-.6,4.36,4.36,0,0,0,1.7-1.6,6.12,6.12,0,0,0,.7-2.5,32.51,32.51,0,0,0,.2-3.3,31.58,31.58,0,0,0-.2-3.5,6.39,6.39,0,0,0-.6-2.2,3.76,3.76,0,0,0-1.4-1.4,16.66,16.66,0,0,0-2.3-1.1l-5.5-2.3c-3.3-1.4-5.6-3.2-6.7-5.4a19.49,19.49,0,0,1-1.7-8.5,22,22,0,0,1,.8-5.8A14.08,14.08,0,0,1,553,123a13,13,0,0,1,4.1-3.2,13.51,13.51,0,0,1,5.9-1.2,13.22,13.22,0,0,1,5.3,1.1,12,12,0,0,1,4.1,2.8,14,14,0,0,1,2.6,3.9,11.17,11.17,0,0,1,.9,4.4v4Z" style="fill:#07448e"/></svg>