<svg id="8c8b6fa8-d2bc-4b2a-829c-6049bfc17527" data-name="Layer 1" xmlns="http://www.w3.org/2000/svg" viewBox="0 0 900 200"><title>14-ci-benefits</title><rect width="900" height="200" style="fill:#f7eec9"/><rect x="205.8" y="30" width="7.1" height="139.2" style="fill:#07448e"/><rect x="29.9" y="30" width="139.2" height="139.2" style="fill:#07448e"/><path d="M104.2,57.3,97.6,71a24.37,24.37,0,0,1,2.7-.1,28.49,28.49,0,0,1,28.5,28.5,28.77,28.77,0,0,1-2.8,12.3l.7-.8,6,15.8,14.1,4.8a56.5,56.5,0,0,0-46.5-88.6,27.15,27.15,0,0,0-2.8.1Z" style="fill:#f9c7e4"/><path d="M61.4,120.6l15.1-5.4a28.51,28.51,0,0,1,8-39.5,28.85,28.85,0,0,1,7.3-3.5l7.1-14.9L92.5,43.4a56.56,56.56,0,0,0-36.4,91.4Z" style="fill:#f9c7e4"/><path d="M129.2,130.4l-5.6-14.6a28.41,28.41,0,0,1-39.7,6.9,31,31,0,0,1-4.3-3.7L65,124.2l-5.3,14.6a56.53,56.53,0,0,0,79.9,1.3,60.16,60.16,0,0,0,4.2-4.6Z" style="fill:#f9c7e4"/><path d="M272.3,70a11.17,11.17,0,0,1-1,4.8,13.13,13.13,0,0,1-2.6,4,11.86,11.86,0,0,1-3.9,2.7,11.17,11.17,0,0,1-4.8,1,17.4,17.4,0,0,1-4.5-.6,10.67,10.67,0,0,1-4.1-2.1,11.93,11.93,0,0,1-3-3.9,14,14,0,0,1-1.2-6.2V40a13,13,0,0,1,.9-4.9,13.13,13.13,0,0,1,2.6-4,11.09,11.09,0,0,1,4-2.6,14,14,0,0,1,5.1-1,11.31,11.31,0,0,1,4.9,1,11.79,11.79,0,0,1,4,2.7,11.51,11.51,0,0,1,2.6,4.1,14.58,14.58,0,0,1,1,5.2v3h-7.8V40.9a6.39,6.39,0,0,0-1.3-4,4.27,4.27,0,0,0-3.5-1.7c-1.9,0-3.2.6-3.8,1.8a10,10,0,0,0-1,4.5V69.2a7.21,7.21,0,0,0,1,4c.7,1.1,1.9,1.6,3.7,1.6a4.53,4.53,0,0,0,1.6-.3,5.07,5.07,0,0,0,1.6-.9,4.34,4.34,0,0,0,1.2-1.7,6.84,6.84,0,0,0,.5-2.7V66.5h7.8Z" style="fill:#07448e"/><rect x="278.8" y="28" width="7.8" height="54.1" style="fill:#07448e"/><path d="M247.6,119.2H259a16.54,16.54,0,0,1,6.3,1.1,13.76,13.76,0,0,1,4.3,3,11.79,11.79,0,0,1,2.4,4.4,17.45,17.45,0,0,1,.7,5.1v2a19,19,0,0,1-.3,3.7,10.79,10.79,0,0,1-1,2.7,8.2,8.2,0,0,1-1.7,2,13.36,13.36,0,0,1-2.3,1.6,8.23,8.23,0,0,1,4,3.8,14.72,14.72,0,0,1,1.3,6.8v3c0,4.8-1.2,8.4-3.5,10.9s-6,3.8-11.1,3.8H247.5V119.2Zm7.8,22.2h3.5c2.6,0,4.3-.6,5.2-1.9a10,10,0,0,0,1.3-5.7,8.59,8.59,0,0,0-1.5-5.5q-1.5-1.8-5.4-1.8h-3.2v14.9Zm0,24.2h3.3a7.62,7.62,0,0,0,3.7-.7,4.61,4.61,0,0,0,2-1.9,6.56,6.56,0,0,0,.8-2.9c.1-1.1.2-2.3.2-3.6a35.29,35.29,0,0,0-.2-3.6,5.71,5.71,0,0,0-1-2.5,5.26,5.26,0,0,0-2-1.6,8.42,8.42,0,0,0-3.4-.5h-3.4Z" style="fill:#07448e"/><polygon points="280 119.2 303.1 119.2 303.1 126.5 287.7 126.5 287.7 142.4 301.1 142.4 301.1 149.7 287.7 149.7 287.7 165.6 303.1 165.6 303.1 173.4 280 173.4 280 119.2" style="fill:#07448e"/><polygon points="307.8 119.2 315.2 119.2 326.9 151.8 327.1 151.8 327.1 119.2 334.9 119.2 334.9 173.3 327.6 173.3 315.7 140.8 315.5 140.8 315.5 173.3 307.7 173.3 307.7 119.2 307.8 119.2" style="fill:#07448e"/><polygon points="341.9 119.2 365 119.2 365 126.5 349.6 126.5 349.6 142.4 363 142.4 363 149.7 349.6 149.7 349.6 165.6 365 165.6 365 173.4 341.9 173.4 341.9 119.2" style="fill:#07448e"/><polygon points="370 119.2 393.1 119.2 393.1 126.5 377.7 126.5 377.7 142.9 391.1 142.9 391.1 150.2 377.7 150.2 377.7 173.3 370 173.3 370 119.2" style="fill:#07448e"/><rect x="398.4" y="119.2" width="7.8" height="54.1" style="fill:#07448e"/><polygon points="418.7 126.5 409.7 126.5 409.7 119.2 435.4 119.2 435.4 126.5 426.4 126.5 426.4 173.3 418.6 173.3 418.6 126.5 418.7 126.5" style="fill:#07448e"/><path d="M463.9,134.8h-7.8V133a7.78,7.78,0,0,0-1.3-4.6,4.61,4.61,0,0,0-4.2-1.9,5,5,0,0,0-2.6.6,4.1,4.1,0,0,0-1.6,1.6,7.16,7.16,0,0,0-.8,2.2,11,11,0,0,0-.2,2.6,21,21,0,0,0,.1,2.7,5.31,5.31,0,0,0,.6,1.9,4.27,4.27,0,0,0,1.3,1.4,13.32,13.32,0,0,0,2.4,1.2l5.9,2.4a16.5,16.5,0,0,1,4.2,2.3,9.26,9.26,0,0,1,2.5,3.1,13.07,13.07,0,0,1,1.2,4.1,41.06,41.06,0,0,1,.3,5.3,24.81,24.81,0,0,1-.7,6.3,14.32,14.32,0,0,1-2.2,5,10.35,10.35,0,0,1-4.1,3.3,14.75,14.75,0,0,1-6.3,1.2,12.69,12.69,0,0,1-5.2-1,15.13,15.13,0,0,1-4.2-2.7,12,12,0,0,1-2.8-4.1,12.55,12.55,0,0,1-1-5.1V158h7.8v2.4a5.85,5.85,0,0,0,1.3,3.8c.8,1.1,2.2,1.7,4.2,1.7a6.84,6.84,0,0,0,3.1-.6,4.36,4.36,0,0,0,1.7-1.6,6.12,6.12,0,0,0,.7-2.5,32.51,32.51,0,0,0,.2-3.3,31.58,31.58,0,0,0-.2-3.5,6.39,6.39,0,0,0-.6-2.2,3.76,3.76,0,0,0-1.4-1.4,16.66,16.66,0,0,0-2.3-1.1l-5.5-2.3c-3.3-1.4-5.6-3.2-6.7-5.4a19.49,19.49,0,0,1-1.7-8.5,22,22,0,0,1,.8-5.8,14.08,14.08,0,0,1,2.5-4.7,13,13,0,0,1,4.1-3.2,13.51,13.51,0,0,1,5.9-1.2,13.22,13.22,0,0,1,5.3,1.1,12,12,0,0,1,4.1,2.8,14,14,0,0,1,2.6,3.9,11.17,11.17,0,0,1,.9,4.4v4Z" style="fill:#07448e"/></svg>