<svg id="a09cfd8b-58c1-4746-b27f-0b08f4204e66" data-name="Layer 1" xmlns="http://www.w3.org/2000/svg" viewBox="0 0 900 200"><title>15-optimizations</title><rect width="900" height="200" style="fill:#f7eec9"/><rect x="205.8" y="30" width="7.1" height="139.2" style="fill:#07448e"/><rect x="29.9" y="30" width="139.2" height="139.2" style="fill:#07448e"/><path d="M104.2,57.3,97.6,71a24.37,24.37,0,0,1,2.7-.1,28.49,28.49,0,0,1,28.5,28.5,28.77,28.77,0,0,1-2.8,12.3l.7-.8,6,15.8,14.1,4.8a56.5,56.5,0,0,0-46.5-88.6,27.15,27.15,0,0,0-2.8.1Z" style="fill:#f9c7e4"/><path d="M61.4,120.6l15.1-5.4a28.51,28.51,0,0,1,8-39.5,28.85,28.85,0,0,1,7.3-3.5l7.1-14.9L92.5,43.4a56.56,56.56,0,0,0-36.4,91.4Z" style="fill:#f9c7e4"/><path d="M129.2,130.4l-5.6-14.6a28.41,28.41,0,0,1-39.7,6.9,31,31,0,0,1-4.3-3.7L65,124.2l-5.3,14.6a56.53,56.53,0,0,0,79.9,1.3,60.16,60.16,0,0,0,4.2-4.6Z" style="fill:#f9c7e4"/><path d="M272.3,70a11.17,11.17,0,0,1-1,4.8,13.13,13.13,0,0,1-2.6,4,11.86,11.86,0,0,1-3.9,2.7,11.17,11.17,0,0,1-4.8,1,17.4,17.4,0,0,1-4.5-.6,10.67,10.67,0,0,1-4.1-2.1,11.93,11.93,0,0,1-3-3.9,14,14,0,0,1-1.2-6.2V40a13,13,0,0,1,.9-4.9,13.13,13.13,0,0,1,2.6-4,11.09,11.09,0,0,1,4-2.6,14,14,0,0,1,5.1-1,11.31,11.31,0,0,1,4.9,1,11.79,11.79,0,0,1,4,2.7,11.51,11.51,0,0,1,2.6,4.1,14.58,14.58,0,0,1,1,5.2v3h-7.8V40.9a6.39,6.39,0,0,0-1.3-4,4.27,4.27,0,0,0-3.5-1.7c-1.9,0-3.2.6-3.8,1.8a10,10,0,0,0-1,4.5V69.2a7.21,7.21,0,0,0,1,4c.7,1.1,1.9,1.6,3.7,1.6a4.53,4.53,0,0,0,1.6-.3,5.07,5.07,0,0,0,1.6-.9,4.34,4.34,0,0,0,1.2-1.7,6.84,6.84,0,0,0,.5-2.7V66.5h7.8Z" style="fill:#07448e"/><rect x="278.8" y="28" width="7.8" height="54.1" style="fill:#07448e"/><path d="M247.2,132a15,15,0,0,1,1.1-5.8,11.8,11.8,0,0,1,3-4.1,13.18,13.18,0,0,1,8.9-3.3,15.46,15.46,0,0,1,4.7.8,15.07,15.07,0,0,1,4.2,2.5,14,14,0,0,1,3,4.1,13.35,13.35,0,0,1,1.1,5.8v28.6a14.63,14.63,0,0,1-1.1,5.8,14,14,0,0,1-3,4.1,13.18,13.18,0,0,1-8.9,3.3,15.46,15.46,0,0,1-4.7-.8,15.07,15.07,0,0,1-4.2-2.5,14,14,0,0,1-3-4.1,13.07,13.07,0,0,1-1.1-5.8Zm7.7,28.5c0,1.9.5,3.3,1.6,4.1a5.41,5.41,0,0,0,3.7,1.3,5.58,5.58,0,0,0,3.7-1.3,5.33,5.33,0,0,0,1.6-4.1V132c0-1.9-.5-3.3-1.6-4.1a5.41,5.41,0,0,0-3.7-1.3,5.58,5.58,0,0,0-3.7,1.3,5.33,5.33,0,0,0-1.6,4.1Z" style="fill:#07448e"/><path d="M280,119.2h11.6a18.9,18.9,0,0,1,5.6.8,10.52,10.52,0,0,1,4.4,3,11.61,11.61,0,0,1,2.7,5,31.29,31.29,0,0,1,.8,7.7,35.9,35.9,0,0,1-.4,6.1,14,14,0,0,1-1.8,4.8,10.58,10.58,0,0,1-4.3,4.1,14.25,14.25,0,0,1-7,1.5h-4v21.1H280Zm7.8,25.7h3.7a7,7,0,0,0,3.6-.7,4.35,4.35,0,0,0,1.9-1.9,7.72,7.72,0,0,0,.7-2.9c.1-1.1.1-2.4.1-3.7s0-2.5-.1-3.6a9.42,9.42,0,0,0-.7-3,4.38,4.38,0,0,0-1.8-2,6.78,6.78,0,0,0-3.5-.7h-4v18.5Z" style="fill:#07448e"/><polygon points="316 126.5 307 126.5 307 119.2 332.7 119.2 332.7 126.5 323.7 126.5 323.7 173.3 316 173.3 316 126.5" style="fill:#07448e"/><rect x="336.4" y="119.2" width="7.8" height="54.1" style="fill:#07448e"/><polygon points="351.7 119.2 359.1 119.2 369.1 147.9 369.3 147.9 379.2 119.2 386.7 119.2 386.7 173.3 378.9 173.3 378.9 140.4 378.7 140.4 371 163.7 367.1 163.7 359.5 140.4 359.3 140.4 359.3 173.3 351.5 173.3 351.5 119.2 351.7 119.2" style="fill:#07448e"/><rect x="394.2" y="119.2" width="7.8" height="54.1" style="fill:#07448e"/><polygon points="406.9 166.5 421.5 126.5 407.7 126.5 407.7 119.2 430 119.2 430 125.4 415.1 166 430 166 430 173.3 407 173.3 407 166.5 406.9 166.5" style="fill:#07448e"/><path d="M443.3,119.2h6.5l12.1,54.1h-7.8l-2.3-11.6H441.2l-2.3,11.6h-7.8Zm3.3,15.6h-.2l-3.8,19.6h7.8Z" style="fill:#07448e"/><polygon points="466.6 126.5 457.6 126.5 457.6 119.2 483.3 119.2 483.3 126.5 474.3 126.5 474.3 173.3 466.5 173.3 466.5 126.5 466.6 126.5" style="fill:#07448e"/><rect x="487" y="119.2" width="7.8" height="54.1" style="fill:#07448e"/><path d="M501.8,132a15,15,0,0,1,1.1-5.8,11.8,11.8,0,0,1,3-4.1,13.18,13.18,0,0,1,8.9-3.3,15.46,15.46,0,0,1,4.7.8,15.07,15.07,0,0,1,4.2,2.5,14,14,0,0,1,3,4.1,13.07,13.07,0,0,1,1.1,5.8v28.6a14.63,14.63,0,0,1-1.1,5.8,14,14,0,0,1-3,4.1,13.18,13.18,0,0,1-8.9,3.3,15.46,15.46,0,0,1-4.7-.8,15.07,15.07,0,0,1-4.2-2.5,14,14,0,0,1-3-4.1,13.07,13.07,0,0,1-1.1-5.8Zm7.7,28.5c0,1.9.5,3.3,1.6,4.1a5.41,5.41,0,0,0,3.7,1.3,5.58,5.58,0,0,0,3.7-1.3,5.33,5.33,0,0,0,1.6-4.1V132c0-1.9-.5-3.3-1.6-4.1a5.41,5.41,0,0,0-3.7-1.3,5.58,5.58,0,0,0-3.7,1.3,5.33,5.33,0,0,0-1.6,4.1Z" style="fill:#07448e"/><polygon points="534.3 119.2 541.7 119.2 553.4 151.8 553.6 151.8 553.6 119.2 561.4 119.2 561.4 173.3 554.1 173.3 542.2 140.8 542 140.8 542 173.3 534.2 173.3 534.2 119.2 534.3 119.2" style="fill:#07448e"/><path d="M593.4,134.8h-7.8V133a7.78,7.78,0,0,0-1.3-4.6,4.61,4.61,0,0,0-4.2-1.9,5,5,0,0,0-2.6.6,4.1,4.1,0,0,0-1.6,1.6,7.16,7.16,0,0,0-.8,2.2,11,11,0,0,0-.2,2.6,21,21,0,0,0,.1,2.7,5.31,5.31,0,0,0,.6,1.9,4.27,4.27,0,0,0,1.3,1.4,13.32,13.32,0,0,0,2.4,1.2l5.9,2.4a16.5,16.5,0,0,1,4.2,2.3,9.26,9.26,0,0,1,2.5,3.1,13.07,13.07,0,0,1,1.2,4.1,41.06,41.06,0,0,1,.3,5.3,24.81,24.81,0,0,1-.7,6.3,14.32,14.32,0,0,1-2.2,5,10.35,10.35,0,0,1-4.1,3.3,14.75,14.75,0,0,1-6.3,1.2,12.69,12.69,0,0,1-5.2-1,15.13,15.13,0,0,1-4.2-2.7,12,12,0,0,1-2.8-4.1,12.55,12.55,0,0,1-1-5.1V158h7.8v2.4a5.85,5.85,0,0,0,1.3,3.8c.8,1.1,2.2,1.7,4.2,1.7a6.84,6.84,0,0,0,3.1-.6,4.36,4.36,0,0,0,1.7-1.6,6.12,6.12,0,0,0,.7-2.5,32.51,32.51,0,0,0,.2-3.3,31.58,31.58,0,0,0-.2-3.5,6.39,6.39,0,0,0-.6-2.2,3.76,3.76,0,0,0-1.4-1.4,16.66,16.66,0,0,0-2.3-1.1l-5.5-2.3c-3.3-1.4-5.6-3.2-6.7-5.4a19.49,19.49,0,0,1-1.7-8.5,22,22,0,0,1,.8-5.8,14.08,14.08,0,0,1,2.5-4.7,13,13,0,0,1,4.1-3.2,13.51,13.51,0,0,1,5.9-1.2,13.22,13.22,0,0,1,5.3,1.1,12,12,0,0,1,4.1,2.8,14,14,0,0,1,2.6,3.9,11.17,11.17,0,0,1,.9,4.4v4Z" style="fill:#07448e"/></svg>