<svg id="707071ae-3106-4a4e-b148-dbe23590cd6d" data-name="Layer 1" xmlns="http://www.w3.org/2000/svg" viewBox="0 0 900 200"><title>16-talk-summation</title><rect width="900" height="200" style="fill:#f7eec9"/><rect x="205.8" y="30" width="7.1" height="139.2" style="fill:#07448e"/><rect x="29.9" y="30" width="139.2" height="139.2" style="fill:#07448e"/><path d="M104.2,57.3,97.6,71a24.37,24.37,0,0,1,2.7-.1,28.49,28.49,0,0,1,28.5,28.5,28.77,28.77,0,0,1-2.8,12.3l.7-.8,6,15.8,14.1,4.8a56.5,56.5,0,0,0-46.5-88.6,27.15,27.15,0,0,0-2.8.1Z" style="fill:#f9c7e4"/><path d="M61.4,120.6l15.1-5.4a28.51,28.51,0,0,1,8-39.5,28.85,28.85,0,0,1,7.3-3.5l7.1-14.9L92.5,43.4a56.56,56.56,0,0,0-36.4,91.4Z" style="fill:#f9c7e4"/><path d="M129.2,130.4l-5.6-14.6a28.41,28.41,0,0,1-39.7,6.9,31,31,0,0,1-4.3-3.7L65,124.2l-5.3,14.6a56.53,56.53,0,0,0,79.9,1.3,60.16,60.16,0,0,0,4.2-4.6Z" style="fill:#f9c7e4"/><polygon points="252.7 35.3 243.7 35.3 243.7 28 269.4 28 269.4 35.3 260.4 35.3 260.4 82.1 252.6 82.1 252.6 35.3 252.7 35.3" style="fill:#07448e"/><path d="M277.3,28h6.5l12.1,54.1h-7.8l-2.3-11.6H275.2L273,82.1h-7.8Zm3.3,15.6h-.2l-3.8,19.6h7.8Z" style="fill:#07448e"/><polygon points="299.6 28 307.4 28 307.4 74.4 322.8 74.4 322.8 82.2 299.7 82.2 299.7 28 299.6 28" style="fill:#07448e"/><polygon points="327.7 28 335.5 28 335.5 52.7 335.7 52.7 347 28 354.8 28 344.2 49.7 356.7 82.2 348.5 82.2 339.7 58.2 335.5 66 335.5 82.2 327.7 82.2 327.7 28" style="fill:#07448e"/><path d="M272.7,134.8H265V133a7.78,7.78,0,0,0-1.3-4.6,4.61,4.61,0,0,0-4.2-1.9,5,5,0,0,0-2.6.6,4.1,4.1,0,0,0-1.6,1.6,7.16,7.16,0,0,0-.8,2.2,11,11,0,0,0-.2,2.6,21,21,0,0,0,.1,2.7,5.31,5.31,0,0,0,.6,1.9,4.27,4.27,0,0,0,1.3,1.4,13.32,13.32,0,0,0,2.4,1.2l5.9,2.4a16.5,16.5,0,0,1,4.2,2.3,9.26,9.26,0,0,1,2.5,3.1,13.07,13.07,0,0,1,1.2,4.1,41.06,41.06,0,0,1,.3,5.3,24.81,24.81,0,0,1-.7,6.3,14.32,14.32,0,0,1-2.2,5,10.35,10.35,0,0,1-4.1,3.3,14.75,14.75,0,0,1-6.3,1.2,12.69,12.69,0,0,1-5.2-1,15.13,15.13,0,0,1-4.2-2.7,12,12,0,0,1-2.8-4.1,12.55,12.55,0,0,1-1-5.1V158h7.8v2.4a5.85,5.85,0,0,0,1.3,3.8c.8,1.1,2.2,1.7,4.2,1.7a6.84,6.84,0,0,0,3.1-.6,4.36,4.36,0,0,0,1.7-1.6,6.12,6.12,0,0,0,.7-2.5,32.51,32.51,0,0,0,.2-3.3,31.58,31.58,0,0,0-.2-3.5,6.39,6.39,0,0,0-.6-2.2,3.76,3.76,0,0,0-1.4-1.4,16.66,16.66,0,0,0-2.3-1.1l-5.5-2.3c-3.3-1.4-5.6-3.2-6.7-5.4a19.49,19.49,0,0,1-1.7-8.5,22,22,0,0,1,.8-5.8,14.08,14.08,0,0,1,2.5-4.7,13,13,0,0,1,4.1-3.2,13.51,13.51,0,0,1,5.9-1.2,13.22,13.22,0,0,1,5.3,1.1,12,12,0,0,1,4.1,2.8,14,14,0,0,1,2.6,3.9,11.17,11.17,0,0,1,.9,4.4v4Z" style="fill:#07448e"/><path d="M303.6,161.1a11.31,11.31,0,0,1-1,4.9,15.64,15.64,0,0,1-2.7,4,14.08,14.08,0,0,1-4,2.7,11.31,11.31,0,0,1-4.9,1,11.94,11.94,0,0,1-4.9-1,12.67,12.67,0,0,1-6.7-6.7,11.62,11.62,0,0,1-1-4.9v-42h7.8v41.2a6.17,6.17,0,0,0,1.4,4.3A4.39,4.39,0,0,0,291,166a4.76,4.76,0,0,0,3.4-1.4,5.84,5.84,0,0,0,1.4-4.3V119.1h7.8Z" style="fill:#07448e"/><polygon points="310.9 119.2 318.3 119.2 328.3 147.9 328.5 147.9 338.4 119.2 345.9 119.2 345.9 173.3 338.1 173.3 338.1 140.4 337.9 140.4 330.2 163.7 326.3 163.7 318.7 140.4 318.5 140.4 318.5 173.3 310.7 173.3 310.7 119.2 310.9 119.2" style="fill:#07448e"/><polygon points="353.1 119.2 360.5 119.2 370.5 147.9 370.7 147.9 380.6 119.2 388.1 119.2 388.1 173.3 380.3 173.3 380.3 140.4 380.1 140.4 372.4 163.7 368.5 163.7 360.9 140.4 360.7 140.4 360.7 173.3 352.9 173.3 352.9 119.2 353.1 119.2" style="fill:#07448e"/><path d="M404,119.2h6.5l12.1,54.1h-7.8l-2.3-11.6H401.9l-2.3,11.6h-7.8Zm3.2,15.6H407l-3.8,19.6H411Z" style="fill:#07448e"/><polygon points="427.2 126.5 418.2 126.5 418.2 119.2 444 119.2 444 126.5 435 126.5 435 173.3 427.2 173.3 427.2 126.5" style="fill:#07448e"/><rect x="447.6" y="119.2" width="7.8" height="54.1" style="fill:#07448e"/><path d="M462.4,132a15,15,0,0,1,1.1-5.8,10.67,10.67,0,0,1,3-4.1,13.18,13.18,0,0,1,8.9-3.3,15.46,15.46,0,0,1,4.7.8,15.07,15.07,0,0,1,4.2,2.5,14,14,0,0,1,3,4.1,13.35,13.35,0,0,1,1.1,5.8v28.6a14.63,14.63,0,0,1-1.1,5.8,14,14,0,0,1-3,4.1,12.67,12.67,0,0,1-4.2,2.5,12.92,12.92,0,0,1-4.7.8,15.46,15.46,0,0,1-4.7-.8,15.07,15.07,0,0,1-4.2-2.5,14,14,0,0,1-3-4.1,13.07,13.07,0,0,1-1.1-5.8Zm7.8,28.5c0,1.9.5,3.3,1.6,4.1a5.41,5.41,0,0,0,3.7,1.3,5.58,5.58,0,0,0,3.7-1.3,5.33,5.33,0,0,0,1.6-4.1V132c0-1.9-.5-3.3-1.6-4.1a5.41,5.41,0,0,0-3.7-1.3,5.58,5.58,0,0,0-3.7,1.3,5.33,5.33,0,0,0-1.6,4.1Z" style="fill:#07448e"/><polygon points="495 119.2 502.4 119.2 514.1 151.8 514.3 151.8 514.3 119.2 522.1 119.2 522.1 173.3 514.8 173.3 502.9 140.8 502.7 140.8 502.7 173.3 495 173.3 495 119.2" style="fill:#07448e"/></svg>