<svg id="Layer_1" data-name="Layer 1" xmlns="http://www.w3.org/2000/svg" viewBox="0 0 900 200"><defs><style>.cls-1{fill:#f7eec9;}.cls-2,.cls-4{fill:#07448e;}.cls-3{fill:#f9c7e4;}.cls-4{font-size:76px;font-family:DINCondensed-Bold, DIN Condensed;font-weight:700;}.cls-5{letter-spacing:-0.05em;}.cls-6{letter-spacing:0em;}</style></defs><title>16-talk-summation</title><rect class="cls-1" width="900" height="200"/><rect class="cls-2" x="205.8" y="30.01" width="7.06" height="139.17"/><rect class="cls-2" x="29.94" y="30.01" width="139.17" height="139.17"/><path class="cls-3" d="M104.17,57.35,97.6,71.07c.9-.08,1.8-.13,2.71-.13A28.48,28.48,0,0,1,126,111.74l.74-.77,6,15.76,14.08,4.8A56.53,56.53,0,0,0,100.31,42.9c-.93,0-1.85,0-2.77.07Z"/><path class="cls-3" d="M61.43,120.55l15.14-5.41A28.49,28.49,0,0,1,91.94,72.19l7.12-14.88-6.4-13.89a56.52,56.52,0,0,0-36.43,91.36Z"/><path class="cls-3" d="M129.2,130.41l-5.58-14.63a28.48,28.48,0,0,1-44,3.19L65,124.17l-5.32,14.56a56.53,56.53,0,0,0,84.18-3.32Z"/><text class="cls-4" transform="translate(244 82.11)"><tspan class="cls-5">T</tspan><tspan x="21.05" y="0">ALK</tspan><tspan x="0" y="91.2">SUMM</tspan><tspan class="cls-5" x="147.74" y="91.2">A</tspan><tspan class="cls-6" x="174.5" y="91.2">TION</tspan></text></svg>