<svg data-name="Layer 1" xmlns="http://www.w3.org/2000/svg" viewBox="0 0 900 200"><path style="fill:#f7eec9" d="M0 0h900v200H0z"/><path d="M245.92 32.06h10.67q6.15 0 9.39 3.42t3.25 9.58v23.52q0 7.07-3.42 10.42T256 82.36h-10Zm7.21 43.51h3.32c2 0 3.46-.5 4.31-1.51a7.47 7.47 0 0 0 1.24-4.77V45.06a7.64 7.64 0 0 0-1.2-4.6q-1.2-1.62-4.38-1.62h-3.32ZM276 32.06h21.47v6.78h-14.25V53.6h12.43v6.79h-12.43v14.76h14.27v7.21H276v-50.3zm40.28 50.3h-6.36l-10.24-50.3h7.63L313 67.17h.14L319 32.06h7.63l-10.35 50.3zm14.62-50.3h21.48v6.78h-14.27V53.6h12.43v6.79h-12.43v14.76h14.27v7.21H330.9v-50.3zm26.1 0h7.21v43.09h14.27v7.21H357v-50.3zm25.76 11.87a12.69 12.69 0 0 1 1.06-5.37 11 11 0 0 1 2.79-3.85 12.2 12.2 0 0 1 3.88-2.3 12.49 12.49 0 0 1 8.69 0 12.24 12.24 0 0 1 3.89 2.3 11.21 11.21 0 0 1 2.79 3.85 13 13 0 0 1 1.06 5.37v26.56a12.83 12.83 0 0 1-1.06 5.4 11.32 11.32 0 0 1-2.79 3.82 12 12 0 0 1-3.89 2.29 12.49 12.49 0 0 1-8.69 0 12 12 0 0 1-3.88-2.29 11.23 11.23 0 0 1-2.79-3.82 12.67 12.67 0 0 1-1.06-5.4ZM390 70.49a4.78 4.78 0 0 0 1.45 3.85 5.38 5.38 0 0 0 6.85 0 4.78 4.78 0 0 0 1.45-3.85V43.93a4.75 4.75 0 0 0-1.45-3.85 5.36 5.36 0 0 0-6.85 0 4.78 4.78 0 0 0-1.45 3.85Zm23.27-38.43h10.81a16 16 0 0 1 5.23.78 10.12 10.12 0 0 1 4.1 2.75 10.7 10.7 0 0 1 2.59 4.63 28.81 28.81 0 0 1 .71 7.17 36 36 0 0 1-.39 5.68 12.1 12.1 0 0 1-1.66 4.42 10.49 10.49 0 0 1-4 3.85 13.28 13.28 0 0 1-6.5 1.38h-3.67v19.64h-7.21Zm7.21 23.88h3.46a7.33 7.33 0 0 0 3.39-.64 4.05 4.05 0 0 0 1.77-1.73 6.78 6.78 0 0 0 .67-2.65c.07-1 .11-2.19.11-3.46a32.2 32.2 0 0 0-.11-3.36 7.67 7.67 0 0 0-.64-2.75 4 4 0 0 0-1.66-1.84 6.33 6.33 0 0 0-3.25-.67h-3.74ZM442 32.06h21.5v6.78h-14.27V53.6h12.44v6.79h-12.44v14.76h14.27v7.21H442v-50.3zm26.16 0h11.59q12.72 0 12.72 14.76a18.68 18.68 0 0 1-1.38 7.53 10.67 10.67 0 0 1-4.84 5l7.77 23h-7.63l-6.71-21.48h-4.31v21.49h-7.21Zm7.21 22.46h4.1a7.16 7.16 0 0 0 3-.53 3.89 3.89 0 0 0 1.74-1.52A6.35 6.35 0 0 0 485 50a26.91 26.91 0 0 0 0-6.71 6 6 0 0 0-.89-2.48 4 4 0 0 0-1.87-1.52 8.61 8.61 0 0 0-3.18-.49h-3.74ZM268.81 155.9a11.32 11.32 0 0 1-.88 4.45 11.78 11.78 0 0 1-2.44 3.71 12.3 12.3 0 0 1-3.64 2.54 10.81 10.81 0 0 1-4.48 1 16.3 16.3 0 0 1-4.17-.56 10.08 10.08 0 0 1-3.82-2 10.43 10.43 0 0 1-2.79-3.63 13.1 13.1 0 0 1-1.09-5.73V128a12 12 0 0 1 .85-4.59 10.57 10.57 0 0 1 2.4-3.67 10.93 10.93 0 0 1 3.71-2.44 12.49 12.49 0 0 1 4.76-.88 11.7 11.7 0 0 1 4.6.88 11.05 11.05 0 0 1 3.67 2.47 11.49 11.49 0 0 1 2.44 3.82 12.93 12.93 0 0 1 .88 4.84v2.82h-7.21v-2.4a5.8 5.8 0 0 0-1.2-3.67 3.88 3.88 0 0 0-3.25-1.56c-1.79 0-3 .56-3.56 1.66a8.9 8.9 0 0 0-.89 4.21v25.71a6.59 6.59 0 0 0 1 3.67 3.74 3.74 0 0 0 3.42 1.49 5.2 5.2 0 0 0 1.52-.25 4.24 4.24 0 0 0 1.49-.81 4.16 4.16 0 0 0 1.09-1.56 6.33 6.33 0 0 0 .42-2.47v-2.47h7.21Zm6.08-39.07h7.2v50.3h-7.2zm27.33 0h10.53a14.69 14.69 0 0 1 5.9 1.06 11.19 11.19 0 0 1 4 2.83 10.55 10.55 0 0 1 2.22 4.06 17.13 17.13 0 0 1 .68 4.77v1.83a16.1 16.1 0 0 1-.32 3.46 8.3 8.3 0 0 1-2.55 4.35 14.38 14.38 0 0 1-2.12 1.52 7.77 7.77 0 0 1 3.74 3.57 14 14 0 0 1 1.21 6.32v2.82q0 6.65-3.22 10.18T312 167.13h-9.82Zm7.21 20.63h3.25q3.6 0 4.84-1.8a9.35 9.35 0 0 0 1.23-5.27 8 8 0 0 0-1.37-5.08c-.92-1.13-2.59-1.69-5-1.7h-3Zm0 22.46h3.11a7.6 7.6 0 0 0 3.42-.63 4.46 4.46 0 0 0 1.88-1.77 6.63 6.63 0 0 0 .77-2.68c.1-1 .14-2.17.14-3.39a23 23 0 0 0-.21-3.32 5.34 5.34 0 0 0-.88-2.37 4.18 4.18 0 0 0-1.87-1.45 8.61 8.61 0 0 0-3.18-.49h-3.18Zm22.89-43.09h21.47v6.78h-14.27v14.77H352v6.78h-12.48v14.76h14.27v7.21h-21.47v-50.3zm25.85 0h6.93l10.9 30.31h.15v-30.31h7.2v50.3h-6.78l-11-30.24h-.14v30.24h-7.21l-.05-50.3zm31.65 0h21.48v6.78H397v14.77h12.44v6.78H397v14.76h14.3v7.21h-21.48v-50.3zm26.18 0h21.47v6.78h-14.31v15.26h12.44v6.78h-12.44v21.48H416v-50.3zm26.31 0h7.2v50.3h-7.2zm18.93 6.78h-8.34v-6.78h23.88v6.78h-8.34v43.52h-7.2v-43.52zm42.03 7.7h-7.2v-1.62a7.7 7.7 0 0 0-1.17-4.28 4.32 4.32 0 0 0-3.92-1.8 4.72 4.72 0 0 0-2.44.57 4.11 4.11 0 0 0-1.48 1.45 6.18 6.18 0 0 0-.74 2 13.34 13.34 0 0 0-.22 2.44 23.3 23.3 0 0 0 .11 2.51 4.43 4.43 0 0 0 .53 1.77 4 4 0 0 0 1.24 1.3 10.79 10.79 0 0 0 2.22 1.13l5.51 2.19a13.49 13.49 0 0 1 3.89 2.16 8.71 8.71 0 0 1 2.29 2.89 12.49 12.49 0 0 1 1.1 3.82 38.39 38.39 0 0 1 .28 4.91 26.65 26.65 0 0 1-.63 5.9 12.51 12.51 0 0 1-2.09 4.66 9.87 9.87 0 0 1-3.85 3.07 13.59 13.59 0 0 1-5.86 1.13 12.75 12.75 0 0 1-4.88-.92 11.73 11.73 0 0 1-7.41-11v-2.68h7.2v2.26a5.88 5.88 0 0 0 1.17 3.57 4.51 4.51 0 0 0 3.92 1.59 6.39 6.39 0 0 0 2.86-.53 3.71 3.71 0 0 0 1.55-1.49 5.77 5.77 0 0 0 .67-2.36c.1-1 .15-2.07.15-3.11a29.34 29.34 0 0 0-.15-3.25 4.91 4.91 0 0 0-.6-2 3.68 3.68 0 0 0-1.27-1.27 17.15 17.15 0 0 0-2.15-1.06l-5.16-2.12c-3.11-1.27-5.2-3-6.25-5a17.42 17.42 0 0 1-1.59-7.88 18.08 18.08 0 0 1 .78-5.37 12.34 12.34 0 0 1 2.29-4.38 11 11 0 0 1 3.85-2.93 12.73 12.73 0 0 1 5.44-1.09 11.86 11.86 0 0 1 4.91 1A12.46 12.46 0 0 1 500 120a11.45 11.45 0 0 1 2.43 3.64 10.46 10.46 0 0 1 .85 4.13ZM205.8 30.01h7.06v139.17h-7.06zm-175.86 0h139.17v139.17H29.94z" style="fill:#07448e"/><path d="M104.17 57.35 97.6 71.07c.9-.08 1.8-.13 2.71-.13a28.48 28.48 0 0 1 25.69 40.8l.74-.77 6 15.76 14.08 4.8a56.53 56.53 0 0 0-46.51-88.63c-.93 0-1.85 0-2.77.07Z" style="fill:#f9c7e4"/><path d="m61.43 120.55 15.14-5.41a28.5 28.5 0 0 1 15.37-42.95l7.12-14.88-6.4-13.89a56.52 56.52 0 0 0-36.43 91.36Z" style="fill:#f9c7e4"/><path d="m129.2 130.41-5.58-14.63a28.47 28.47 0 0 1-44 3.19L65 124.17l-5.32 14.56a56.52 56.52 0 0 0 79.94 1.27 57.61 57.61 0 0 0 4.24-4.59Z" style="fill:#f9c7e4"/></svg>