<svg id="Layer_1" data-name="Layer 1" xmlns="http://www.w3.org/2000/svg" viewBox="0 0 900 200"><defs><style>.cls-1{fill:#f7eec9;}.cls-2{fill:#07448e;}.cls-3{fill:#f9c7e4;}</style></defs><title>banner</title><rect class="cls-1" width="900" height="200"/><path class="cls-2" d="M245.92,32.06h10.67q6.15,0,9.39,3.42t3.25,9.58V68.58q0,7.07-3.42,10.42T256,82.36h-10Zm7.21,43.51h3.32c2,0,3.46-.5,4.31-1.51A7.43,7.43,0,0,0,262,69.29V45.06a7.65,7.65,0,0,0-1.2-4.6q-1.2-1.62-4.38-1.62h-3.32Z"/><path class="cls-2" d="M276,32.06h21.47v6.78H283.22V53.6h12.43v6.79H283.22V75.15h14.27v7.21H276Z"/><path class="cls-2" d="M316.28,82.36h-6.36l-10.24-50.3h7.63L313,67.17h.14L319,32.06h7.63Z"/><path class="cls-2" d="M330.9,32.06h21.48v6.78H338.11V53.6h12.43v6.79H338.11V75.15h14.27v7.21H330.9Z"/><path class="cls-2" d="M357,32.06h7.21V75.15h14.27v7.21H357Z"/><path class="cls-2" d="M382.76,43.93a12.77,12.77,0,0,1,1.06-5.37,11,11,0,0,1,2.79-3.85,12.12,12.12,0,0,1,3.88-2.3,12.49,12.49,0,0,1,8.69,0,12.17,12.17,0,0,1,3.89,2.3,11.22,11.22,0,0,1,2.79,3.85,12.93,12.93,0,0,1,1.06,5.37V70.49a12.88,12.88,0,0,1-1.06,5.4,11.38,11.38,0,0,1-2.79,3.82A12,12,0,0,1,399.18,82a12.49,12.49,0,0,1-8.69,0,11.92,11.92,0,0,1-3.88-2.29,11.12,11.12,0,0,1-2.79-3.82,12.72,12.72,0,0,1-1.06-5.4ZM390,70.49a4.77,4.77,0,0,0,1.45,3.85,5.38,5.38,0,0,0,6.85,0,4.77,4.77,0,0,0,1.45-3.85V43.93a4.76,4.76,0,0,0-1.45-3.85,5.35,5.35,0,0,0-6.85,0A4.76,4.76,0,0,0,390,43.93Z"/><path class="cls-2" d="M413.27,32.06h10.81a16,16,0,0,1,5.23.78,10,10,0,0,1,4.1,2.75A10.8,10.8,0,0,1,436,40.22a28.89,28.89,0,0,1,.71,7.17,35.45,35.45,0,0,1-.39,5.68,12,12,0,0,1-1.66,4.42,10.52,10.52,0,0,1-4,3.85,13.29,13.29,0,0,1-6.5,1.38h-3.67V82.36h-7.21Zm7.21,23.88h3.46a7.4,7.4,0,0,0,3.39-.64,4.06,4.06,0,0,0,1.77-1.73,6.66,6.66,0,0,0,.67-2.65c.07-1,.11-2.19.11-3.46s0-2.3-.11-3.36a7.67,7.67,0,0,0-.64-2.75,4,4,0,0,0-1.66-1.84,6.38,6.38,0,0,0-3.25-.67h-3.74Z"/><path class="cls-2" d="M442,32.06H463.5v6.78H449.23V53.6h12.44v6.79H449.23V75.15H463.5v7.21H442Z"/><path class="cls-2" d="M468.16,32.06h11.59q12.72,0,12.72,14.76a18.68,18.68,0,0,1-1.38,7.53,10.66,10.66,0,0,1-4.84,5l7.77,23h-7.63l-6.71-21.48h-4.31V82.36h-7.21Zm7.21,22.46h4.1a7.1,7.1,0,0,0,3-.53,3.92,3.92,0,0,0,1.74-1.52,6.45,6.45,0,0,0,.81-2.43,23.77,23.77,0,0,0,.21-3.36,23.53,23.53,0,0,0-.21-3.35,6.05,6.05,0,0,0-.89-2.48,4,4,0,0,0-1.87-1.52,8.7,8.7,0,0,0-3.18-.49h-3.74Z"/><path class="cls-2" d="M268.81,155.9a11.47,11.47,0,0,1-.88,4.45,11.67,11.67,0,0,1-2.44,3.71,12.16,12.16,0,0,1-3.64,2.54,10.72,10.72,0,0,1-4.48,1,16.39,16.39,0,0,1-4.17-.56,10.12,10.12,0,0,1-3.82-2,10.44,10.44,0,0,1-2.79-3.63,13.16,13.16,0,0,1-1.09-5.73V128a12.13,12.13,0,0,1,.85-4.59,10.63,10.63,0,0,1,2.4-3.67,11,11,0,0,1,3.71-2.44,12.38,12.38,0,0,1,4.76-.88,11.85,11.85,0,0,1,4.6.88,11,11,0,0,1,3.67,2.47,11.32,11.32,0,0,1,2.44,3.82,12.94,12.94,0,0,1,.88,4.84v2.82H261.6v-2.4a5.82,5.82,0,0,0-1.2-3.67,3.88,3.88,0,0,0-3.25-1.56c-1.79,0-3,.56-3.56,1.66a8.9,8.9,0,0,0-.89,4.21v25.71a6.62,6.62,0,0,0,1,3.67,3.74,3.74,0,0,0,3.42,1.49,5.08,5.08,0,0,0,1.52-.25,4.26,4.26,0,0,0,1.49-.81,4.18,4.18,0,0,0,1.09-1.56,6.33,6.33,0,0,0,.42-2.47v-2.47h7.21Z"/><path class="cls-2" d="M274.89,116.83h7.2v50.3h-7.2Z"/><path class="cls-2" d="M302.22,116.83h10.53a14.71,14.71,0,0,1,5.9,1.06,11.22,11.22,0,0,1,4,2.83,10.47,10.47,0,0,1,2.22,4.06,16.82,16.82,0,0,1,.68,4.77v1.83a16.1,16.1,0,0,1-.32,3.46,8.12,8.12,0,0,1-1,2.48,8,8,0,0,1-1.55,1.87,13.55,13.55,0,0,1-2.12,1.52,7.74,7.74,0,0,1,3.74,3.57,14,14,0,0,1,1.21,6.32v2.82q0,6.65-3.22,10.18T312,167.13h-9.82Zm7.21,20.63h3.25q3.6,0,4.84-1.8a9.35,9.35,0,0,0,1.23-5.27,8,8,0,0,0-1.37-5.08q-1.38-1.69-5-1.7h-3Zm0,22.46h3.11a7.61,7.61,0,0,0,3.42-.63,4.41,4.41,0,0,0,1.88-1.77,6.63,6.63,0,0,0,.77-2.68c.1-1,.14-2.17.14-3.39a22.79,22.79,0,0,0-.21-3.32,5.36,5.36,0,0,0-.88-2.37,4.15,4.15,0,0,0-1.87-1.45,8.49,8.49,0,0,0-3.18-.49h-3.18Z"/><path class="cls-2" d="M332.32,116.83h21.47v6.78H339.52v14.77H352v6.78H339.52v14.76h14.27v7.21H332.32Z"/><path class="cls-2" d="M358.17,116.83h6.93L376,147.14h.15V116.83h7.2v50.3h-6.78l-11-30.24h-.14v30.24h-7.21Z"/><path class="cls-2" d="M389.82,116.83H411.3v6.78H397v14.77h12.44v6.78H397v14.76H411.3v7.21H389.82Z"/><path class="cls-2" d="M416,116.83h21.47v6.78H423.16v15.26H435.6v6.78H423.16v21.48H416Z"/><path class="cls-2" d="M442.31,116.83h7.2v50.3h-7.2Z"/><path class="cls-2" d="M461.24,123.61H452.9v-6.78h23.88v6.78h-8.34v43.52h-7.2Z"/><path class="cls-2" d="M503.27,131.31h-7.2v-1.62a7.69,7.69,0,0,0-1.17-4.28,4.31,4.31,0,0,0-3.92-1.8,4.71,4.71,0,0,0-2.44.57,4.2,4.2,0,0,0-1.48,1.45,6,6,0,0,0-.74,2,13.75,13.75,0,0,0-.22,2.44,25,25,0,0,0,.11,2.51,4.54,4.54,0,0,0,.53,1.77,3.91,3.91,0,0,0,1.24,1.3,10.78,10.78,0,0,0,2.22,1.13l5.51,2.19a13.77,13.77,0,0,1,3.89,2.16,8.7,8.7,0,0,1,2.29,2.89,12.38,12.38,0,0,1,1.1,3.82,37.85,37.85,0,0,1,.28,4.91,26.17,26.17,0,0,1-.63,5.9,12.51,12.51,0,0,1-2.09,4.66,9.9,9.9,0,0,1-3.85,3.07,13.61,13.61,0,0,1-5.86,1.13,12.69,12.69,0,0,1-4.88-.92,11.58,11.58,0,0,1-6.46-6.28,11.67,11.67,0,0,1-.95-4.74v-2.68h7.2v2.26a5.88,5.88,0,0,0,1.17,3.57,4.53,4.53,0,0,0,3.92,1.59,6.37,6.37,0,0,0,2.86-.53,3.66,3.66,0,0,0,1.55-1.49,5.86,5.86,0,0,0,.67-2.36,29.6,29.6,0,0,0,.15-3.11,28.71,28.71,0,0,0-.15-3.25,5,5,0,0,0-.6-2.05,3.59,3.59,0,0,0-1.27-1.27,17.25,17.25,0,0,0-2.15-1.06l-5.16-2.12q-4.67-1.91-6.25-5.05a17.38,17.38,0,0,1-1.59-7.88,18.26,18.26,0,0,1,.78-5.37,12.52,12.52,0,0,1,2.29-4.38,11,11,0,0,1,3.85-2.93,12.7,12.7,0,0,1,5.44-1.09,11.93,11.93,0,0,1,4.91,1A12.33,12.33,0,0,1,500,120a11.5,11.5,0,0,1,2.43,3.64,10.46,10.46,0,0,1,.85,4.13Z"/><rect class="cls-2" x="205.8" y="30.01" width="7.06" height="139.17"/><rect class="cls-2" x="29.94" y="30.01" width="139.17" height="139.17"/><path class="cls-3" d="M104.17,57.35,97.6,71.07c.9-.08,1.8-.13,2.71-.13A28.48,28.48,0,0,1,126,111.74l.74-.77,6,15.76,14.08,4.8A56.53,56.53,0,0,0,100.31,42.9c-.93,0-1.85,0-2.77.07Z"/><path class="cls-3" d="M61.43,120.55l15.14-5.41A28.49,28.49,0,0,1,91.94,72.19l7.12-14.88-6.4-13.89a56.52,56.52,0,0,0-36.43,91.36Z"/><path class="cls-3" d="M129.2,130.41l-5.58-14.63a28.48,28.48,0,0,1-44,3.19L65,124.17l-5.32,14.56a56.53,56.53,0,0,0,84.18-3.32Z"/></svg>