<svg data-name="Layer 1" xmlns="http://www.w3.org/2000/svg" viewBox="0 0 900 900"><path style="fill:#07448e" d="M0 0h900v900H0z"/><path d="M294.28 214h-.11c-.19-.13-.38-.26-.58-.37l-27.43-13.19a.89.89 0 0 1-.58-.92v-31.7a.84.84 0 0 1 .58-.91q12.34-5.62 24.68-11.28c1.59-.73 3.16-1.48 4.75-2.23h.25a6.28 6.28 0 0 0 .57.31q14.07 6.47 28.19 12.92a.86.86 0 0 1 .59.92v31.68a.85.85 0 0 1-.6.92l-25 11.41c-1.78.81-3.54 1.65-5.31 2.44Zm-26-45.65v29.77a.66.66 0 0 0 .45.71L294.24 211c.15.07.31.12.49.19V181a.76.76 0 0 0-.58-.81q-12.67-5.79-25.34-11.55Zm29.11 41.82.43-.18 24.37-11.52a.71.71 0 0 0 .42-.79V168l-.65.29c-2.29 1.12-4.58 2.25-6.87 3.35a.76.76 0 0 0-.51.8v13.15a.78.78 0 0 1-.46.78c-2.29 1.24-4.59 2.51-6.9 3.78-.15.08-.31.14-.59.27V175.9l-.64.3c-2.69 1.32-5.37 2.65-8.07 4a.85.85 0 0 0-.56.89v27Zm-26.19-43 .21.15 24 10.84a.72.72 0 0 0 .54 0l8.4-4-.22-.17-23.22-10.9a.72.72 0 0 0-.54 0c-3.06 1.34-6.08 2.69-9.21 4.07Zm48.3-.22c-.21-.11-.36-.2-.52-.27l-22.79-10.39a1.19 1.19 0 0 0-.87 0c-2 .88-4 1.8-6 2.71-.14.06-.27.16-.42.24l.09.07 23.9 10.53a.69.69 0 0 0 .49 0c2-.96 4.02-1.9 6.08-2.9ZM370.75 214h-.11c-.19-.13-.38-.26-.58-.37l-27.43-13.19a.89.89 0 0 1-.58-.92v-31.7a.84.84 0 0 1 .58-.91q12.35-5.62 24.68-11.28c1.59-.73 3.16-1.48 4.75-2.23h.23a6.28 6.28 0 0 0 .57.31l28.21 12.92a.87.87 0 0 1 .6.92v31.68a.87.87 0 0 1-.61.92l-25 11.41c-1.8.81-3.54 1.65-5.31 2.44Zm-26-45.65v29.77a.66.66 0 0 0 .45.71L370.72 211a5.07 5.07 0 0 0 .49.19V181a.78.78 0 0 0-.59-.81l-25.33-11.55Zm29.1 41.82.42-.18 24.38-11.52a.71.71 0 0 0 .42-.79V168l-.65.29c-2.29 1.12-4.58 2.25-6.85 3.35a.76.76 0 0 0-.51.8v13.15a.78.78 0 0 1-.46.78c-2.29 1.24-4.59 2.51-6.88 3.78-.15.08-.31.14-.58.27V175.9l-.64.3c-2.7 1.32-5.38 2.65-8.08 4a.85.85 0 0 0-.56.89v29.11Zm-26.19-43 .21.15 24 10.84a.72.72 0 0 0 .54 0c2.8-1.32 5.58-2.65 8.4-4l-.22-.17-23.21-10.9a.75.75 0 0 0-.55 0c-3 1.32-6.07 2.67-9.18 4Zm48.3-.22c-.22-.11-.36-.2-.52-.27q-11.38-5.21-22.8-10.39a1.19 1.19 0 0 0-.87 0c-2 .88-4 1.8-6 2.71-.14.06-.27.16-.43.24l.1.07 23.9 10.53a.69.69 0 0 0 .49 0c2-1 4-1.89 6.1-2.89ZM447.22 214h-.11c-.19-.13-.38-.26-.58-.37l-27.43-13.16a.89.89 0 0 1-.58-.92v-31.73a.84.84 0 0 1 .58-.91q12.34-5.62 24.68-11.28c1.59-.73 3.16-1.48 4.75-2.23h.23a6.28 6.28 0 0 0 .57.31l28.21 12.92a.86.86 0 0 1 .6.92v31.68a.87.87 0 0 1-.61.92l-25 11.41c-1.78.81-3.53 1.65-5.31 2.44Zm-26-45.65v29.77a.66.66 0 0 0 .46.71L447.19 211a5.07 5.07 0 0 0 .49.19V181a.78.78 0 0 0-.59-.81l-25.33-11.55Zm29.11 41.82.43-.18q12.18-5.76 24.38-11.52c.4-.19.41-.46.41-.79V168l-.64.29-6.91 3.37a.76.76 0 0 0-.51.8v13.15a.77.77 0 0 1-.46.78c-2.29 1.24-4.58 2.51-6.88 3.78-.14.08-.3.14-.58.27V175.9l-.64.3c-2.69 1.32-5.37 2.65-8.08 4a.83.83 0 0 0-.55.89v27Zm-26.19-43 .21.15 24 10.84a.75.75 0 0 0 .55 0l8.4-4-.23-.17-23.21-10.9a.72.72 0 0 0-.54 0c-3.07 1.34-6.11 2.69-9.22 4.07Zm48.3-.22c-.21-.11-.35-.2-.51-.27l-22.8-10.39a1.19 1.19 0 0 0-.87 0c-2 .88-4 1.8-6 2.71a4.63 4.63 0 0 0-.43.24l.09.07 23.9 10.53a.69.69 0 0 0 .49 0c2.01-.96 4.01-1.9 6.09-2.9Zm-26.2 187.64h-.11a5.15 5.15 0 0 0-.58-.37q-13.71-6.62-27.43-13.2a.87.87 0 0 1-.58-.91v-31.73a.86.86 0 0 1 .58-.92q12.35-5.61 24.68-11.27c1.59-.73 3.16-1.48 4.75-2.23h.23a6.28 6.28 0 0 0 .57.31l28.21 12.92a.86.86 0 0 1 .6.92v31.68a.87.87 0 0 1-.61.92q-12.51 5.69-25 11.41c-1.78.81-3.55 1.64-5.31 2.47Zm-26-45.65v29.76a.67.67 0 0 0 .45.72l25.58 12.14c.15.07.31.12.5.19v-30.21a.78.78 0 0 0-.59-.81l-25.33-11.55Zm29.11 41.82.43-.18q12.18-5.77 24.38-11.52c.39-.19.41-.46.41-.8v-29.68l-.64.29-6.93 3.35a.75.75 0 0 0-.51.8v13.15a.77.77 0 0 1-.46.78c-2.29 1.24-4.58 2.51-6.88 3.77a4.17 4.17 0 0 1-.58.27v-14.53l-.64.29c-2.69 1.33-5.38 2.66-8.08 4a.83.83 0 0 0-.55.89v27Zm-26.19-43 .21.15 24 10.84a.75.75 0 0 0 .55 0q4.19-2 8.39-4l-.22-.17-23.21-10.9a.75.75 0 0 0-.55 0c-3.06 1.32-6.1 2.66-9.21 4.04Zm48.3-.22a5.3 5.3 0 0 0-.51-.27l-22.8-10.4a1.19 1.19 0 0 0-.87 0c-2 .88-4 1.81-6 2.72a3.7 3.7 0 0 0-.42.24l.09.07 23.9 10.52a.6.6 0 0 0 .49 0c2-.98 4-1.92 6.08-2.92ZM448.2 495.23h-.11a5.15 5.15 0 0 0-.58-.37l-27.43-13.2a.87.87 0 0 1-.58-.91V449a.85.85 0 0 1 .58-.92q12.36-5.61 24.68-11.27c1.59-.73 3.16-1.48 4.75-2.23h.24a5 5 0 0 0 .56.31l28.21 12.92a.85.85 0 0 1 .6.92v31.68a.87.87 0 0 1-.61.92q-12.5 5.68-25 11.41c-1.78.83-3.51 1.66-5.31 2.49Zm-26-45.65v29.76a.67.67 0 0 0 .46.72l25.58 12.14a5.07 5.07 0 0 0 .49.19v-30.21a.78.78 0 0 0-.58-.81l-25.34-11.55Zm29.11 41.82.43-.18q12.19-5.78 24.38-11.52c.4-.19.42-.46.42-.8v-29.68l-.65.29-6.89 3.35a.77.77 0 0 0-.51.8v13.15a.76.76 0 0 1-.45.78c-2.3 1.24-4.59 2.51-6.88 3.77a5.12 5.12 0 0 1-.59.27V457.1l-.64.29c-2.69 1.33-5.37 2.66-8.07 4a.85.85 0 0 0-.56.89v27Zm-26.18-43 .2.15 24 10.84a.75.75 0 0 0 .55 0l8.4-4-.22-.17-23.22-10.9a.72.72 0 0 0-.54 0c-3.07 1.31-6.11 2.68-9.21 4.04Zm48.3-.22c-.22-.11-.36-.21-.52-.27l-22.8-10.4a1.19 1.19 0 0 0-.87 0c-2 .88-4 1.81-6 2.72a3.79 3.79 0 0 0-.43.24l.09.07L466.8 451a.62.62 0 0 0 .5 0c2-.92 4-1.86 6.09-2.86ZM523.69 214h-.11c-.19-.13-.38-.26-.58-.37l-27.43-13.19a.89.89 0 0 1-.58-.92v-31.7a.84.84 0 0 1 .58-.91q12.36-5.62 24.68-11.28c1.59-.73 3.16-1.48 4.75-2.23h.23a6.28 6.28 0 0 0 .57.31l28.2 12.92a.86.86 0 0 1 .6.92v31.68a.87.87 0 0 1-.6.92l-25 11.41c-1.78.81-3.54 1.65-5.31 2.44Zm-26-45.65v29.77a.66.66 0 0 0 .46.71L523.66 211a5.07 5.07 0 0 0 .49.19V181a.78.78 0 0 0-.58-.81l-25.34-11.55Zm29.11 41.82.43-.18q12.18-5.76 24.38-11.52c.4-.19.41-.46.41-.79V168l-.64.29c-2.3 1.12-4.59 2.25-6.88 3.35a.76.76 0 0 0-.51.8v13.15a.77.77 0 0 1-.46.78c-2.29 1.24-4.58 2.51-6.9 3.78-.15.08-.31.14-.58.27V175.9l-.64.3c-2.7 1.32-5.38 2.65-8.08 4a.85.85 0 0 0-.56.89v27Zm-26.18-43 .2.15 24 10.84a.75.75 0 0 0 .55 0l8.4-4-.22-.17-23.22-10.9a.72.72 0 0 0-.54 0c-3.07 1.34-6.11 2.69-9.21 4.07Zm48.29-.22-.51-.27-22.8-10.39a1.19 1.19 0 0 0-.87 0c-2 .88-4 1.8-6 2.71a4.63 4.63 0 0 0-.43.24l.09.07 23.9 10.53a.72.72 0 0 0 .5 0c2-.96 4-1.9 6.08-2.9ZM600.17 214h-.12a5.72 5.72 0 0 0-.58-.37L572 200.47a.89.89 0 0 1-.58-.92v-31.73a.85.85 0 0 1 .58-.91q12.36-5.62 24.68-11.28c1.59-.73 3.16-1.48 4.75-2.23h.26c.19.11.37.22.56.31l28.19 12.92a.86.86 0 0 1 .6.92v31.68a.87.87 0 0 1-.61.92l-25 11.41c-1.74.81-3.5 1.65-5.26 2.44Zm-26-45.65v29.77a.67.67 0 0 0 .46.71l25.5 12.17c.15.07.3.12.49.19V181a.78.78 0 0 0-.58-.81l-25.34-11.57Zm29.11 41.82.43-.18q12.2-5.76 24.38-11.52a.71.71 0 0 0 .42-.79V168l-.65.29c-2.29 1.12-4.59 2.25-6.88 3.35a.76.76 0 0 0-.51.8v13.15a.77.77 0 0 1-.46.78c-2.29 1.24-4.58 2.51-6.9 3.78-.15.08-.31.14-.58.27V175.9l-.64.3c-2.7 1.32-5.38 2.65-8.08 4a.83.83 0 0 0-.55.89v27Zm-26.18-43 .2.15 24 10.84a.75.75 0 0 0 .55 0l8.4-4-.25-.16-23.22-10.9a.72.72 0 0 0-.54 0c-3.05 1.33-6.07 2.68-9.19 4.06Zm48.29-.22-.51-.27-22.88-10.4a1.19 1.19 0 0 0-.87 0c-2 .88-4 1.8-6 2.71-.14.06-.28.16-.43.24l.09.07 23.91 10.53a.69.69 0 0 0 .49 0c2.07-.95 4.09-1.89 6.15-2.89Z" style="fill:#f7eec9"/><path style="fill:#f9c7e4" d="M40 641h815v13H40zm246.21-402.41-5.96 6.88 12.38 11 24.77-29.35h-9.63l-14.68 17.89-6.88-6.42zm76.48 0-5.97 6.88 12.39 11 24.76-29.35h-9.63l-14.68 17.89-6.87-6.42zm76.47 0-5.97 6.88 12.39 11 24.76-29.35h-9.63l-14.67 17.89-6.88-6.42zm-2.12 151.3-5.96 6.87 12.38 11.01 24.76-29.35h-9.63l-14.67 17.89-6.88-6.42zm78.59-151.3-5.96 6.88 12.38 11 24.76-29.35h-9.63l-14.67 17.89-6.88-6.42zm76.47 0-5.96 6.88 12.38 11 24.76-29.35h-9.63l-14.67 17.89-6.88-6.42zM67.55 729a12.26 12.26 0 0 1-1 4.79 12.41 12.41 0 0 1-2.62 4 12.71 12.71 0 0 1-3.91 2.74 11.57 11.57 0 0 1-4.83 1 17.56 17.56 0 0 1-4.48-.61 11 11 0 0 1-4.11-2.09 11.29 11.29 0 0 1-3-3.91 14.1 14.1 0 0 1-1.18-6.16V699a13.31 13.31 0 0 1 .91-4.94 11.54 11.54 0 0 1 2.59-4 12 12 0 0 1 4-2.63 13.43 13.43 0 0 1 5.13-1 12.79 12.79 0 0 1 4.94 1 11.86 11.86 0 0 1 4.01 2.72 12.26 12.26 0 0 1 2.62 4.11 13.82 13.82 0 0 1 1 5.2v3H59.8v-2.58a6.27 6.27 0 0 0-1.29-3.88 4.18 4.18 0 0 0-3.5-1.68c-1.92 0-3.2.6-3.84 1.79a9.61 9.61 0 0 0-1 4.52v27.67a7.18 7.18 0 0 0 1 4c.68 1.06 1.91 1.6 3.69 1.6a5.55 5.55 0 0 0 1.63-.27 4.72 4.72 0 0 0 1.6-.87 4.43 4.43 0 0 0 1.25-1.76 6.65 6.65 0 0 0 .46-2.66v-2.66h7.75Zm6.54-42h7.75v54.11h-7.75zm44.61 54.11h-6.84L100.84 687h8.21l6.15 37.77h.15l6.24-37.77h8.2l-11.09 54.11zM134.43 687h23.1v7.29h-15.35v15.89h13.38v7.3h-13.38v15.88h15.35v7.75h-23.1V687zm28.12 0H175q13.68 0 13.68 15.88a20.07 20.07 0 0 1-1.48 8.1 11.48 11.48 0 0 1-5.2 5.43l8.36 24.7h-8.21L174.94 718h-4.64v23.1h-7.75Zm7.75 24.17h4.41a7.8 7.8 0 0 0 3.27-.57 4.2 4.2 0 0 0 1.86-1.64 6.92 6.92 0 0 0 .87-2.62 28.45 28.45 0 0 0 0-7.22 6.52 6.52 0 0 0-1-2.66 4.28 4.28 0 0 0-2-1.63 9 9 0 0 0-3.42-.54h-4ZM195.15 687h7.75v54.11h-7.75zm15.28 0h23.1v7.29h-15.35v16.42h13.38v7.3h-13.38v23.1h-7.75V687zm35.34 31.24L235.13 687h8.21l6.23 21.51h.15l6.23-21.51h8.21l-10.64 31.24v22.87h-7.75v-22.87zM268.26 687h7.75v54.11h-7.75zm14.97 0h7.45l11.71 32.6h.15V687h7.75v54.11h-7.3l-11.85-32.53h-.15v32.53h-7.76V687zm33.6 12.77A14 14 0 0 1 318 694a12 12 0 0 1 3-4.14 12.91 12.91 0 0 1 4.18-2.47 13.43 13.43 0 0 1 9.35 0 13 13 0 0 1 4.17 2.47 12 12 0 0 1 3 4.14 13.83 13.83 0 0 1 1.14 5.78v2.73h-7.75v-2.73a5.2 5.2 0 0 0-1.56-4.15 5.78 5.78 0 0 0-7.38 0 5.19 5.19 0 0 0-1.55 4.15v28.57a5.19 5.19 0 0 0 1.55 4.15 5.78 5.78 0 0 0 7.38 0 5.2 5.2 0 0 0 1.56-4.15v-10.19h-6.16v-6.84h13.91v17a13.8 13.8 0 0 1-1.14 5.82 12.1 12.1 0 0 1-3 4.1 13 13 0 0 1-4.17 2.47 13.43 13.43 0 0 1-9.35 0 12.91 12.91 0 0 1-4.18-2.47 12.1 12.1 0 0 1-3-4.1 14 14 0 0 1-1.13-5.82ZM363.79 687h11.63a17.17 17.17 0 0 1 5.62.84 10.66 10.66 0 0 1 4.41 3 11.62 11.62 0 0 1 2.74 5 31.44 31.44 0 0 1 .76 7.71 38.3 38.3 0 0 1-.42 6.12 12.76 12.76 0 0 1-1.79 4.75 11.33 11.33 0 0 1-4.25 4.14 14.33 14.33 0 0 1-7 1.48h-4v21.13h-7.75Zm7.75 25.69h3.73a7.9 7.9 0 0 0 3.65-.69 4.33 4.33 0 0 0 1.9-1.86 7.36 7.36 0 0 0 .72-2.85c.07-1.11.11-2.35.11-3.72s0-2.47-.11-3.61a8.65 8.65 0 0 0-.69-3 4.35 4.35 0 0 0-1.78-2 6.94 6.94 0 0 0-3.5-.73h-4ZM400.5 687h6.5l12 54.11h-7.75L409 729.48h-10.55l-2.28 11.63h-7.75Zm3.27 15.58h-.15l-3.8 19.61h7.75Zm43.7 26.42a12.44 12.44 0 0 1-1 4.79 12.58 12.58 0 0 1-2.62 4 12.76 12.76 0 0 1-3.92 2.74 11.49 11.49 0 0 1-4.82 1 17.63 17.63 0 0 1-4.49-.61 10.86 10.86 0 0 1-4.1-2.09 11.18 11.18 0 0 1-3-3.91 14.1 14.1 0 0 1-1.18-6.16V699a13.11 13.11 0 0 1 .91-4.94 11.66 11.66 0 0 1 2.58-4 12.16 12.16 0 0 1 4-2.63 13.5 13.5 0 0 1 5.13-1 12.75 12.75 0 0 1 4.94 1 12 12 0 0 1 4 2.66 12.42 12.42 0 0 1 2.62 4.11 14 14 0 0 1 1 5.2v3h-7.75v-2.58a6.21 6.21 0 0 0-1.3-3.95 4.16 4.16 0 0 0-3.49-1.68c-1.93 0-3.21.6-3.84 1.79a9.61 9.61 0 0 0-.95 4.52v27.67a7.1 7.1 0 0 0 1 4 4 4 0 0 0 3.68 1.6 5.61 5.61 0 0 0 1.64-.27 4.59 4.59 0 0 0 1.59-.87 4.44 4.44 0 0 0 1.18-1.68 6.82 6.82 0 0 0 .46-2.66v-2.66h7.75Zm6.3-42h7.76v24.7h.15L473 687h7.76l-10.57 21.66 12.54 32.45h-8.21l-8.81-24.01-4.18 7.82v16.19h-7.76V687z"/><path d="M494.74 687h6.46l12.08 54.11h-7.75l-2.28-11.63h-10.56l-2.28 11.63h-7.75Zm3.26 15.58h-.15l-3.81 19.61h7.76Zm18.63-2.81a13.83 13.83 0 0 1 1.14-5.78 12.08 12.08 0 0 1 3-4.14 12.91 12.91 0 0 1 4.18-2.47 13.43 13.43 0 0 1 9.35 0 13.13 13.13 0 0 1 4.18 2.47 12.08 12.08 0 0 1 3 4.14 13.83 13.83 0 0 1 1.14 5.78v2.73h-7.75v-2.73a5.16 5.16 0 0 0-1.56-4.15 5.77 5.77 0 0 0-7.37 0 5.16 5.16 0 0 0-1.56 4.15v28.57a5.16 5.16 0 0 0 1.56 4.15 5.77 5.77 0 0 0 7.37 0 5.16 5.16 0 0 0 1.56-4.15v-10.18h-6.16v-6.84h13.91v17a13.8 13.8 0 0 1-1.14 5.82 12.21 12.21 0 0 1-3 4.1 13.13 13.13 0 0 1-4.18 2.47 13.43 13.43 0 0 1-9.35 0 12.91 12.91 0 0 1-4.18-2.47 12.21 12.21 0 0 1-3-4.1 13.8 13.8 0 0 1-1.14-5.82ZM549.46 687h23.1v7.29h-15.35v15.89h13.38v7.3h-13.38v15.88h15.35v7.75h-23.1V687zm53.2 15.58h-7.75v-1.75a8.28 8.28 0 0 0-1.26-4.6 4.64 4.64 0 0 0-4.22-1.94 5.16 5.16 0 0 0-2.62.61 4.57 4.57 0 0 0-1.59 1.56 6.52 6.52 0 0 0-.8 2.21 14.76 14.76 0 0 0-.23 2.62c0 1.06 0 2 .11 2.7a4.88 4.88 0 0 0 .57 1.89 4.33 4.33 0 0 0 1.33 1.41 12.3 12.3 0 0 0 2.4 1.22l5.93 2.35a14.77 14.77 0 0 1 4.18 2.32 9.62 9.62 0 0 1 2.47 3.12 13.2 13.2 0 0 1 1.17 4.1 39.72 39.72 0 0 1 .31 5.28A27.65 27.65 0 0 1 602 732a13.21 13.21 0 0 1-2.24 5 10.74 10.74 0 0 1-4.14 3.31 14.76 14.76 0 0 1-6.31 1.22 13.77 13.77 0 0 1-5.24-1 12.61 12.61 0 0 1-8-11.86v-2.88h7.75v2.43a6.39 6.39 0 0 0 1.25 3.84c.84 1.14 2.25 1.71 4.22 1.71a7 7 0 0 0 3.08-.57 4 4 0 0 0 1.67-1.6 6.55 6.55 0 0 0 .72-2.55c.1-1 .16-2.13.16-3.34a33 33 0 0 0-.16-3.5 5.51 5.51 0 0 0-.64-2.2 4 4 0 0 0-1.37-1.37 19.38 19.38 0 0 0-2.32-1.14l-5.55-2.28q-5-2.06-6.72-5.43a18.72 18.72 0 0 1-1.71-8.48 19.88 19.88 0 0 1 .83-5.77 13.38 13.38 0 0 1 2.47-4.71 11.78 11.78 0 0 1 4.15-3.16 13.69 13.69 0 0 1 5.85-1.18 13 13 0 0 1 9.38 3.88 12.64 12.64 0 0 1 2.63 3.91 11.54 11.54 0 0 1 .91 4.45Zm52.06 38.53h-7.3L641.49 706h-.15l-5.85 35.11h-7.3L620.14 687h8.21l3.87 34.35h.15l6.08-34.35h5.93l6.31 35.19h.15l3.72-35.19h8.21l-8.05 54.11zM667.86 687h7.75v54.11h-7.75zm20.37 7.29h-8.97V687h25.69v7.29h-8.97v46.82h-7.75v-46.82zm20.14-7.29h7.75v23.18h9.58V687h7.75v54.11h-7.75v-24.09h-9.58v24.09h-7.75V687zm71.13 42a12.56 12.56 0 0 1-3.57 8.77 12.71 12.71 0 0 1-3.91 2.74 11.57 11.57 0 0 1-4.83 1 17.56 17.56 0 0 1-4.48-.61 11 11 0 0 1-4.11-2.09 11.42 11.42 0 0 1-3-3.91 14.24 14.24 0 0 1-1.18-6.16V699a13.12 13.12 0 0 1 .92-4.94 11.51 11.51 0 0 1 2.58-4 12 12 0 0 1 4-2.63 13.5 13.5 0 0 1 5.13-1 12.79 12.79 0 0 1 4.94 1 11.86 11.86 0 0 1 3.95 2.66 12.11 12.11 0 0 1 2.62 4.11 13.82 13.82 0 0 1 1 5.2v3h-7.75v-2.58a6.27 6.27 0 0 0-1.29-3.95 4.18 4.18 0 0 0-3.5-1.68c-1.92 0-3.2.6-3.83 1.79a9.49 9.49 0 0 0-1 4.52v27.67a7.18 7.18 0 0 0 1 4 4.06 4.06 0 0 0 3.69 1.6 5.55 5.55 0 0 0 1.63-.27 4.63 4.63 0 0 0 1.6-.87 4.56 4.56 0 0 0 1.19-1.63 6.84 6.84 0 0 0 .45-2.66v-2.66h7.75Zm6.54-42h7.75v54.11h-7.75zM51.52 778.2H58l12.08 54.11h-7.77L60 820.68H49.46l-2.28 11.63h-7.75Zm3.26 15.58h-.15l-3.8 19.61h7.75Zm18.78-15.58H81l11.71 32.6h.15v-32.6h7.75v54.11h-7.3l-11.85-32.53h-.15v32.53h-7.75V778.2zm34.04 0h11.48q6.61 0 10.11 3.69c2.33 2.45 3.49 5.89 3.49 10.29v25.31q0 7.6-3.68 11.21t-10.61 3.61H107.6Zm7.75 46.8h3.58c2.17 0 3.72-.55 4.63-1.64s1.37-2.8 1.37-5.13v-26.05a8.22 8.22 0 0 0-1.29-4.94q-1.29-1.74-4.71-1.74h-3.58Zm43.86-39.5h-8.97v-7.3h25.69v7.3h-8.97v46.81h-7.75V785.5zm20.13-7.3h7.76v23.18h9.57V778.2h7.75v54.11h-7.75v-24.09h-9.57v24.09h-7.76V778.2zm32.38 0h23.1v7.3h-15.35v15.88h13.38v7.3h-13.38v15.88h15.35v7.75h-23.1V778.2zm27.81 0h7.45l11.71 32.6h.15v-32.6h7.75v54.11h-7.29l-11.86-32.53h-.15v32.53h-7.76V778.2zm72.81 42.03a12.4 12.4 0 0 1-.95 4.79 12.57 12.57 0 0 1-2.62 4 13 13 0 0 1-3.91 2.73 11.41 11.41 0 0 1-4.83 1 17.69 17.69 0 0 1-4.49-.61 11 11 0 0 1-4.1-2.09 11.18 11.18 0 0 1-3-3.91 14.07 14.07 0 0 1-1.18-6.16v-29.77a13.31 13.31 0 0 1 .91-4.94 11.54 11.54 0 0 1 2.59-3.95 12 12 0 0 1 4-2.63 13.43 13.43 0 0 1 5.13-1 12.79 12.79 0 0 1 4.94 1 12 12 0 0 1 3.95 2.66 12.26 12.26 0 0 1 2.62 4.11 14 14 0 0 1 .95 5.2v3h-7.75v-2.58a6.27 6.27 0 0 0-1.29-4 4.19 4.19 0 0 0-3.5-1.67c-1.92 0-3.2.59-3.84 1.78a9.61 9.61 0 0 0-.95 4.52v27.67a7.18 7.18 0 0 0 1 3.95 4 4 0 0 0 3.68 1.6 5.56 5.56 0 0 0 1.64-.27 4.72 4.72 0 0 0 1.6-.87 4.43 4.43 0 0 0 1.17-1.68 6.65 6.65 0 0 0 .46-2.66v-2.66h7.75Zm6.54-42.03h7.75v54.11h-7.75zm29.41 0h11.63a17.21 17.21 0 0 1 5.62.84 10.73 10.73 0 0 1 4.41 3 11.6 11.6 0 0 1 2.73 5 31 31 0 0 1 .76 7.71 39.63 39.63 0 0 1-.41 6.12 12.93 12.93 0 0 1-1.79 4.75 11.28 11.28 0 0 1-4.24 4.08 14.28 14.28 0 0 1-7 1.48h-4v21.13h-7.75Zm7.71 25.69h3.72a7.87 7.87 0 0 0 3.65-.69 4.28 4.28 0 0 0 1.9-1.86 7 7 0 0 0 .72-2.85q.12-1.66.12-3.72c0-1.27 0-2.47-.12-3.61a8.43 8.43 0 0 0-.68-3 4.37 4.37 0 0 0-1.79-2 6.91 6.91 0 0 0-3.49-.72h-4Zm48.3 16.26a12.25 12.25 0 0 1-1 4.94 12.72 12.72 0 0 1-6.69 6.69 12.42 12.42 0 0 1-9.72 0 12.72 12.72 0 0 1-6.69-6.69 12.25 12.25 0 0 1-1-4.94V778.2h7.8v41.19a5.81 5.81 0 0 0 1.37 4.26 5 5 0 0 0 6.84 0 5.81 5.81 0 0 0 1.37-4.26V778.2h7.75Zm7.29-41.95h11.33a15.83 15.83 0 0 1 6.34 1.14 12 12 0 0 1 4.3 3 11.39 11.39 0 0 1 2.39 4.37 18.27 18.27 0 0 1 .72 5.13v2a17.09 17.09 0 0 1-.34 3.72 9.21 9.21 0 0 1-1 2.66 8.56 8.56 0 0 1-1.68 2 13.61 13.61 0 0 1-2.28 1.64 8.32 8.32 0 0 1 4 3.84 15.11 15.11 0 0 1 1.29 6.8v3q0 7.14-3.45 10.94t-11.06 3.8h-10.56Zm7.76 22.19h3.49c2.59 0 4.32-.64 5.21-1.94a10 10 0 0 0 1.33-5.66 8.6 8.6 0 0 0-1.48-5.47c-1-1.22-2.78-1.82-5.36-1.82h-3.19Zm0 24.17h3.34a8.29 8.29 0 0 0 3.69-.68 4.8 4.8 0 0 0 2-1.9 7.25 7.25 0 0 0 .84-2.89c.1-1.12.15-2.33.15-3.65a24.58 24.58 0 0 0-.23-3.57 5.88 5.88 0 0 0-.95-2.55 4.53 4.53 0 0 0-2-1.56 9.3 9.3 0 0 0-3.42-.53h-3.42Zm24.62-46.36h7.75v46.36h15.35v7.75h-23.1V778.2zm28.35 0h7.75v54.11h-7.75zm40.35 15.58h-7.75V792a8.36 8.36 0 0 0-1.25-4.6 4.65 4.65 0 0 0-4.22-1.93 5.11 5.11 0 0 0-2.62.6 4.52 4.52 0 0 0-1.6 1.56 6.44 6.44 0 0 0-.8 2.21 14.78 14.78 0 0 0-.22 2.62 26 26 0 0 0 .11 2.7 4.81 4.81 0 0 0 .57 1.9 4.3 4.3 0 0 0 1.33 1.4 12.17 12.17 0 0 0 2.39 1.22l5.93 2.35a14.88 14.88 0 0 1 4.18 2.32 9.36 9.36 0 0 1 2.47 3.12 13.2 13.2 0 0 1 1.18 4.1 41.61 41.61 0 0 1 .3 5.28 27.67 27.67 0 0 1-.68 6.35 13.49 13.49 0 0 1-2.24 5 10.81 10.81 0 0 1-4.14 3.3 14.79 14.79 0 0 1-6.31 1.22 13.78 13.78 0 0 1-5.25-1 12.87 12.87 0 0 1-4.18-2.7 12.75 12.75 0 0 1-3.8-9.16V817h7.76v2.43a6.31 6.31 0 0 0 1.25 3.84c.84 1.14 2.24 1.71 4.22 1.71a6.85 6.85 0 0 0 3.08-.57 4 4 0 0 0 1.67-1.6 6.5 6.5 0 0 0 .72-2.55c.1-1 .15-2.12.15-3.34a33.36 33.36 0 0 0-.15-3.5 5.5 5.5 0 0 0-.65-2.2 3.91 3.91 0 0 0-1.37-1.37 19.14 19.14 0 0 0-2.31-1.14l-5.55-2.28q-5-2.06-6.73-5.43a18.72 18.72 0 0 1-1.71-8.48 19.54 19.54 0 0 1 .84-5.77 13.38 13.38 0 0 1 2.47-4.71 11.83 11.83 0 0 1 4.14-3.16 13.69 13.69 0 0 1 5.85-1.18 12.89 12.89 0 0 1 5.29 1.07 13.28 13.28 0 0 1 4.1 2.81 12.61 12.61 0 0 1 2.62 3.91 11.36 11.36 0 0 1 .91 4.45Zm5.78-15.58h7.75v23.18h9.58V778.2h7.75v54.11h-7.75v-24.09h-9.58v24.09h-7.75V778.2zm32.6 0h7.75v54.11h-7.75zm14.97 0h7.45l11.71 32.6h.15v-32.6h7.75v54.11h-7.3l-11.85-32.53h-.16v32.53h-7.75V778.2zm33.59 12.8a13.83 13.83 0 0 1 1.14-5.78 12 12 0 0 1 3-4.14 12.91 12.91 0 0 1 4.18-2.47 13.4 13.4 0 0 1 9.34 0 12.91 12.91 0 0 1 4.18 2.47 12 12 0 0 1 3 4.14 13.83 13.83 0 0 1 1.14 5.78v2.73h-7.76V791a5.16 5.16 0 0 0-1.55-4.14 5.78 5.78 0 0 0-7.38 0 5.12 5.12 0 0 0-1.55 4.14v28.57a5.16 5.16 0 0 0 1.55 4.15 5.78 5.78 0 0 0 7.38 0 5.19 5.19 0 0 0 1.55-4.15v-10.21h-6.13v-6.84h13.91v17a13.8 13.8 0 0 1-1.14 5.82 12.1 12.1 0 0 1-3 4.1 12.74 12.74 0 0 1-4.18 2.47 13.4 13.4 0 0 1-9.34 0 12.74 12.74 0 0 1-4.18-2.47 12.1 12.1 0 0 1-3-4.1 13.8 13.8 0 0 1-1.14-5.82Z" style="fill:#f9c7e4"/></svg>