<svg id="Layer_1" data-name="Layer 1" xmlns="http://www.w3.org/2000/svg" viewBox="0 0 900 900"><defs><style>.cls-1{fill:#07448e;}.cls-2{fill:#f7eec9;}.cls-3,.cls-4{fill:#f9c7e4;}.cls-4{font-size:76px;font-family:DINCondensed-Bold, DIN Condensed;font-weight:700;}.cls-5{letter-spacing:-0.04em;}</style></defs><title>ci-ci-ing</title><rect class="cls-1" width="900" height="900"/><path class="cls-2" d="M294.28,214h-.11c-.19-.13-.38-.26-.58-.37l-27.43-13.19a.89.89,0,0,1-.58-.92V167.82a.84.84,0,0,1,.58-.91q12.34-5.62,24.68-11.28c1.59-.73,3.16-1.48,4.75-2.23h.25a6.28,6.28,0,0,0,.57.31q14.07,6.47,28.19,12.92a.86.86,0,0,1,.59.92q0,15.84,0,31.68a.85.85,0,0,1-.6.92l-25,11.41C297.81,212.37,296.05,213.21,294.28,214Zm-26-45.65c0,.22,0,.37,0,.52v29.25a.68.68,0,0,0,.46.71L294.24,211c.15.07.31.12.49.19V181a.76.76,0,0,0-.58-.81q-12.67-5.79-25.34-11.55Zm29.11,41.82.43-.18,24.37-11.52c.4-.19.42-.46.42-.8V168l-.65.29c-2.29,1.12-4.58,2.25-6.87,3.35a.76.76,0,0,0-.51.8v13.15a.78.78,0,0,1-.46.78c-2.29,1.24-4.59,2.51-6.9,3.78-.15.08-.31.14-.59.27V175.9l-.64.3c-2.69,1.32-5.37,2.65-8.07,4a.85.85,0,0,0-.56.89v27Zm-26.19-43,.21.15,24,10.84a.72.72,0,0,0,.54,0l8.4-4a1.84,1.84,0,0,0-.22-.17l-23.22-10.9a.72.72,0,0,0-.54,0C277.31,164.43,274.29,165.78,271.16,167.16Zm48.3-.22c-.21-.11-.36-.2-.52-.27l-22.79-10.39a1.19,1.19,0,0,0-.87,0c-2,.88-4,1.8-6,2.71-.14.06-.27.16-.42.24l.09.07,23.9,10.53a.69.69,0,0,0,.49,0c2-1,4-1.89,6.09-2.89Z"/><path class="cls-2" d="M370.75,214h-.11c-.19-.13-.38-.26-.58-.37l-27.43-13.19a.89.89,0,0,1-.58-.92V167.82a.84.84,0,0,1,.58-.91q12.35-5.62,24.68-11.28c1.59-.73,3.16-1.48,4.75-2.23h.23a6.28,6.28,0,0,0,.57.31l28.21,12.92a.87.87,0,0,1,.6.92q0,15.84,0,31.68a.87.87,0,0,1-.61.92l-25,11.41C374.26,212.37,372.52,213.21,370.75,214Zm-26-45.65c0,.22,0,.37,0,.52v29.25a.66.66,0,0,0,.45.71L370.72,211a5.07,5.07,0,0,0,.49.19V181a.78.78,0,0,0-.59-.81l-25.33-11.55Zm29.1,41.82.42-.18,24.38-11.52c.4-.19.42-.46.42-.8V168l-.65.29c-2.29,1.12-4.58,2.25-6.85,3.35a.76.76,0,0,0-.51.8v13.15a.78.78,0,0,1-.46.78c-2.29,1.24-4.59,2.51-6.88,3.78-.15.08-.31.14-.58.27V175.9l-.64.3c-2.7,1.32-5.38,2.65-8.08,4a.85.85,0,0,0-.56.89V210.2Zm-26.19-43,.21.15,24,10.84a.72.72,0,0,0,.54,0c2.8-1.32,5.58-2.65,8.4-4a1.84,1.84,0,0,0-.22-.17l-23.21-10.9a.75.75,0,0,0-.55,0c-3,1.32-6.07,2.67-9.18,4Zm48.3-.22c-.22-.11-.36-.2-.52-.27q-11.38-5.21-22.8-10.39a1.19,1.19,0,0,0-.87,0c-2,.88-4,1.8-6,2.71-.14.06-.27.16-.43.24l.1.07,23.9,10.53a.69.69,0,0,0,.49,0c2-1,4-1.89,6.1-2.89Z"/><path class="cls-2" d="M447.22,214h-.11c-.19-.13-.38-.26-.58-.37L419.1,200.47a.89.89,0,0,1-.58-.92V167.82a.84.84,0,0,1,.58-.91q12.36-5.62,24.68-11.28c1.59-.73,3.16-1.48,4.75-2.23h.23a6.28,6.28,0,0,0,.57.31l28.21,12.92a.86.86,0,0,1,.6.92q0,15.84,0,31.68a.87.87,0,0,1-.61.92l-25,11.41C450.75,212.37,449,213.21,447.22,214Zm-26-45.65c0,.22,0,.37,0,.52v29.25a.66.66,0,0,0,.46.71L447.19,211a5.07,5.07,0,0,0,.49.19V181a.78.78,0,0,0-.59-.81l-25.33-11.55Zm29.11,41.82.43-.18L475.1,198.5c.4-.19.41-.46.41-.8V168l-.64.29L468,171.66a.76.76,0,0,0-.51.8v13.15a.77.77,0,0,1-.46.78c-2.29,1.24-4.58,2.51-6.88,3.78-.14.08-.3.14-.58.27V175.9l-.64.3c-2.69,1.32-5.37,2.65-8.08,4a.83.83,0,0,0-.55.89v27Zm-26.19-43,.21.15,24,10.84a.75.75,0,0,0,.55,0l8.4-4-.22-.17-23.22-10.9a.72.72,0,0,0-.54,0C430.25,164.43,427.21,165.78,424.1,167.16Zm48.3-.22c-.21-.11-.35-.2-.51-.27l-22.8-10.39a1.19,1.19,0,0,0-.87,0c-2,.88-4,1.8-6,2.71a4.63,4.63,0,0,0-.43.24l.09.07,23.9,10.53a.69.69,0,0,0,.49,0C468.32,168.88,470.32,167.94,472.4,166.94Z"/><path class="cls-2" d="M446.24,354.59h-.11a5.15,5.15,0,0,0-.58-.37L418.12,341a.87.87,0,0,1-.58-.91V308.38a.86.86,0,0,1,.58-.92q12.35-5.61,24.68-11.27c1.59-.73,3.16-1.48,4.75-2.23h.23a6.28,6.28,0,0,0,.57.31l28.21,12.92a.87.87,0,0,1,.6.92q0,15.84,0,31.68a.87.87,0,0,1-.61.92q-12.51,5.69-25,11.41C449.77,352.93,448,353.76,446.24,354.59Zm-26-45.65c0,.22,0,.37,0,.52V338.7a.67.67,0,0,0,.45.72l25.58,12.14c.15.07.31.12.5.19V321.54a.78.78,0,0,0-.59-.81l-25.33-11.55Zm29.11,41.82.43-.18q12.18-5.77,24.37-11.52c.4-.19.42-.46.42-.8V308.58l-.64.29L467,312.22a.76.76,0,0,0-.51.8v13.15a.77.77,0,0,1-.46.78c-2.29,1.24-4.58,2.51-6.88,3.77a4.17,4.17,0,0,1-.58.27V316.46l-.64.29c-2.69,1.33-5.38,2.66-8.08,4a.83.83,0,0,0-.55.89v27Zm-26.19-43,.21.15,24,10.84a.75.75,0,0,0,.55,0q4.19-2,8.39-4a1.28,1.28,0,0,0-.22-.17l-23.21-10.9a.75.75,0,0,0-.55,0C429.27,305,426.23,306.34,423.12,307.72Zm48.3-.22a5.3,5.3,0,0,0-.51-.27l-22.8-10.4a1.19,1.19,0,0,0-.87,0c-2,.88-4,1.81-6,2.72a3.7,3.7,0,0,0-.42.24l.09.07,23.9,10.52a.6.6,0,0,0,.49,0C467.34,309.44,469.34,308.5,471.42,307.5Z"/><path class="cls-2" d="M448.2,495.23h-.11a5.15,5.15,0,0,0-.58-.37q-13.71-6.62-27.43-13.2a.87.87,0,0,1-.58-.91V449a.85.85,0,0,1,.58-.92q12.36-5.61,24.68-11.27c1.59-.73,3.16-1.48,4.75-2.23h.24a5,5,0,0,0,.56.31l28.21,12.92a.85.85,0,0,1,.6.92q0,15.84,0,31.68a.87.87,0,0,1-.61.92q-12.5,5.68-25,11.41C451.73,493.57,450,494.4,448.2,495.23Zm-26-45.65c0,.22,0,.37,0,.52v29.24a.67.67,0,0,0,.46.72l25.58,12.14a5.07,5.07,0,0,0,.49.19V462.18a.78.78,0,0,0-.58-.81l-25.34-11.55Zm29.11,41.82.43-.18q12.19-5.78,24.38-11.52c.4-.19.42-.46.42-.8V449.22l-.65.29L469,452.86a.76.76,0,0,0-.51.8v13.15a.75.75,0,0,1-.46.78c-2.29,1.24-4.58,2.51-6.87,3.77a5.12,5.12,0,0,1-.59.27V457.1l-.64.29c-2.69,1.33-5.37,2.66-8.07,4a.84.84,0,0,0-.56.89v27Zm-26.18-43,.2.15,24,10.84a.75.75,0,0,0,.55,0l8.4-4-.22-.17-23.22-10.9a.72.72,0,0,0-.54,0C431.23,445.63,428.19,447,425.09,448.36Zm48.3-.22c-.22-.11-.36-.21-.52-.27l-22.8-10.4a1.19,1.19,0,0,0-.87,0c-2,.88-4,1.81-6,2.72a3.79,3.79,0,0,0-.43.24l.09.07L466.81,451a.6.6,0,0,0,.49,0C469.3,450.08,471.3,449.14,473.39,448.14Z"/><path class="cls-2" d="M523.69,214h-.11c-.19-.13-.38-.26-.58-.37l-27.43-13.19a.89.89,0,0,1-.58-.92V167.82a.84.84,0,0,1,.58-.91q12.36-5.62,24.68-11.28c1.59-.73,3.16-1.48,4.75-2.23h.23a6.28,6.28,0,0,0,.57.31L554,166.63a.86.86,0,0,1,.6.92q0,15.84,0,31.68a.86.86,0,0,1-.6.92l-25,11.41C527.22,212.37,525.46,213.21,523.69,214Zm-26-45.65c0,.22,0,.37,0,.52v29.25a.66.66,0,0,0,.46.71L523.66,211a5.07,5.07,0,0,0,.49.19V181a.78.78,0,0,0-.58-.81l-25.34-11.55Zm29.11,41.82.43-.18,24.38-11.52c.4-.19.41-.46.41-.8V168l-.64.29c-2.29,1.12-4.59,2.25-6.88,3.35a.76.76,0,0,0-.51.8v13.15a.77.77,0,0,1-.46.78c-2.29,1.24-4.58,2.51-6.9,3.78-.15.08-.31.14-.58.27V175.9l-.64.3c-2.7,1.32-5.38,2.65-8.08,4a.85.85,0,0,0-.56.89v27Zm-26.18-43,.2.15,24,10.84a.75.75,0,0,0,.55,0l8.4-4-.22-.17-23.22-10.9a.72.72,0,0,0-.54,0C506.72,164.43,503.68,165.78,500.58,167.16Zm48.29-.22-.51-.27-22.8-10.39a1.19,1.19,0,0,0-.87,0c-2,.88-4,1.8-6,2.71-.14.06-.28.16-.43.24l.09.07,23.9,10.53a.72.72,0,0,0,.5,0C544.79,168.88,546.79,167.94,548.87,166.94Z"/><path class="cls-2" d="M600.16,214h-.11a5.72,5.72,0,0,0-.58-.37L572,200.47a.89.89,0,0,1-.58-.92V167.82a.84.84,0,0,1,.58-.91q12.36-5.62,24.68-11.28c1.59-.73,3.17-1.48,4.75-2.23h.26c.19.11.37.22.56.31l28.19,12.92a.86.86,0,0,1,.6.92q0,15.84,0,31.68a.87.87,0,0,1-.61.92l-25,11.41C603.69,212.37,601.93,213.21,600.16,214Zm-26-45.65c0,.22,0,.37,0,.52v29.25a.66.66,0,0,0,.46.71L600.13,211a5.07,5.07,0,0,0,.49.19V181a.78.78,0,0,0-.58-.81L574.7,168.62Zm29.11,41.82.43-.18L628,198.5c.4-.19.42-.46.42-.8V168l-.65.29c-2.29,1.12-4.59,2.25-6.88,3.35a.76.76,0,0,0-.51.8v13.15a.77.77,0,0,1-.46.78c-2.29,1.24-4.58,2.51-6.9,3.78-.15.08-.31.14-.58.27V175.9l-.64.3c-2.7,1.32-5.38,2.65-8.08,4a.83.83,0,0,0-.55.89v27Zm-26.18-43,.2.15,24,10.84a.75.75,0,0,0,.55,0l8.4-4A1.84,1.84,0,0,0,610,174l-23.22-10.9a.72.72,0,0,0-.54,0C583.19,164.43,580.17,165.78,577.05,167.16Zm48.29-.22-.51-.27L602,156.28a1.19,1.19,0,0,0-.87,0c-2,.88-4,1.8-6,2.71-.14.06-.28.16-.43.24l.09.07,23.91,10.53a.69.69,0,0,0,.49,0C621.26,168.88,623.28,167.94,625.34,166.94Z"/><rect class="cls-3" x="40" y="641" width="815" height="13"/><polygon class="cls-3" points="286.21 238.59 280.25 245.47 292.63 256.47 317.4 227.12 307.77 227.12 293.09 245.01 286.21 238.59"/><polygon class="cls-3" points="362.69 238.59 356.72 245.47 369.11 256.47 393.87 227.12 384.24 227.12 369.56 245.01 362.69 238.59"/><polygon class="cls-3" points="439.16 238.59 433.19 245.47 445.58 256.47 470.34 227.12 460.71 227.12 446.04 245.01 439.16 238.59"/><polygon class="cls-3" points="437.04 389.89 431.08 396.76 443.46 407.77 468.22 378.42 458.59 378.42 443.92 396.31 437.04 389.89"/><polygon class="cls-3" points="515.63 238.59 509.67 245.47 522.05 256.47 546.81 227.12 537.18 227.12 522.51 245.01 515.63 238.59"/><polygon class="cls-3" points="592.1 238.59 586.14 245.47 598.52 256.47 623.28 227.12 613.65 227.12 598.98 245.01 592.1 238.59"/><text class="cls-4" transform="translate(39.28 741.11)">CI VERIFYING <tspan class="cls-5" x="320.86" y="0">P</tspan><tspan x="348.98" y="0">ACKAGES WITH CI </tspan><tspan x="0" y="91.2">AND THEN CI PUBLISHING</tspan></text></svg>