<svg id="d2546621-785e-40d6-873f-278d1edfe9e2" data-name="Layer 1" xmlns="http://www.w3.org/2000/svg" viewBox="0 0 900 900"><title>ci-publishing</title><rect width="900" height="900" style="fill:#07448e"/><path d="M297,135.71h-.12a5.72,5.72,0,0,0-.58-.37l-27.42-13.19a.89.89,0,0,1-.59-.92V89.5a.85.85,0,0,1,.59-.91Q281.27,83,293.59,77.31c1.59-.73,3.17-1.48,4.75-2.22h.26a6.19,6.19,0,0,0,.57.3l28.18,12.93a.84.84,0,0,1,.6.91q0,15.84,0,31.68a.86.86,0,0,1-.6.92l-25,11.41C300.56,134.05,298.8,134.89,297,135.71ZM271,90.06c0,.22,0,.37,0,.52v29.25a.68.68,0,0,0,.46.71L297,132.68c.15.07.3.12.49.19V102.66a.78.78,0,0,0-.58-.81L271.57,90.3Zm29.11,41.82.43-.18,24.38-11.52c.4-.18.42-.46.42-.79V89.7l-.65.29c-2.29,1.12-4.58,2.25-6.88,3.35a.77.77,0,0,0-.51.8v13.15a.75.75,0,0,1-.46.78c-2.29,1.24-4.58,2.52-6.9,3.78-.14.08-.3.14-.58.27V97.58l-.64.3c-2.69,1.32-5.38,2.65-8.08,4a.83.83,0,0,0-.55.89v27Zm-26.18-43,.21.15,24,10.85a.7.7,0,0,0,.55,0q4.19-2,8.39-4l-.22-.17-23.21-10.9a.86.86,0,0,0-.55,0C280.06,86.11,277.05,87.46,273.92,88.84Zm48.29-.22c-.21-.11-.35-.2-.51-.27Q310.32,83.15,298.9,78a1.19,1.19,0,0,0-.87,0c-2,.88-4,1.8-6,2.71l-.43.24.1.07,23.9,10.53a.69.69,0,0,0,.49,0C318.13,90.56,320.15,89.62,322.21,88.62Z" style="fill:#f7eec9"/><path d="M373.51,135.71h-.12a5.57,5.57,0,0,0-.57-.37l-27.43-13.19a.91.91,0,0,1-.59-.92V89.5a.85.85,0,0,1,.59-.91Q357.74,83,370.06,77.31c1.6-.73,3.17-1.48,4.75-2.22h.24c.19.1.37.22.56.3l28.22,12.93a.84.84,0,0,1,.59.91q0,15.84,0,31.68a.86.86,0,0,1-.6.92l-25,11.41C377,134.05,375.27,134.89,373.51,135.71ZM347.46,90.06c0,.22,0,.37,0,.52v29.25a.68.68,0,0,0,.46.71l25.58,12.14c.15.07.3.12.49.19V102.66a.78.78,0,0,0-.58-.81L348,90.3Zm29.1,41.82.43-.18,24.38-11.52c.4-.18.42-.46.42-.79V89.7l-.65.29-6.86,3.35a.77.77,0,0,0-.51.8v13.15a.75.75,0,0,1-.46.78c-2.29,1.24-4.58,2.52-6.87,3.78-.15.08-.31.14-.59.27V97.58l-.64.3c-2.69,1.32-5.37,2.65-8.07,4a.84.84,0,0,0-.56.89v27Zm-26.18-43,.2.15,24,10.85a.7.7,0,0,0,.55,0l8.4-4-.22-.17-23.22-10.9a.83.83,0,0,0-.54,0c-3,1.32-6.08,2.67-9.18,4Zm48.29-.22-.51-.27L375.36,78a1.19,1.19,0,0,0-.87,0c-2,.88-4,1.8-6,2.71l-.43.24.09.07,23.9,10.53a.72.72,0,0,0,.5,0c2-1,4-1.89,6.1-2.89Z" style="fill:#f7eec9"/><path d="M450,135.71h-.12a5.57,5.57,0,0,0-.57-.37l-27.43-13.19a.89.89,0,0,1-.58-.92V89.5a.83.83,0,0,1,.58-.91Q434.2,83,446.54,77.31c1.59-.73,3.16-1.48,4.75-2.22h.23c.19.1.37.22.56.3L480.3,88.32a.84.84,0,0,1,.59.91q0,15.84,0,31.68a.86.86,0,0,1-.6.92l-25,11.41C453.51,134.05,451.74,134.89,450,135.71Zm-26-45.65c0,.22,0,.37,0,.52v29.25a.68.68,0,0,0,.46.71l25.58,12.14c.15.07.31.12.49.19V102.66a.78.78,0,0,0-.58-.81L424.51,90.3Zm29.11,41.82.42-.18,24.38-11.52c.4-.18.42-.46.42-.79V89.7l-.65.29c-2.29,1.12-4.58,2.25-6.85,3.35a.76.76,0,0,0-.51.8v13.15a.78.78,0,0,1-.46.78c-2.29,1.24-4.59,2.52-6.88,3.78-.15.08-.31.14-.58.27V97.58l-.64.3c-2.7,1.32-5.38,2.65-8.08,4a.83.83,0,0,0-.55.89v27Zm-26.19-43,.21.15,24,10.85a.68.68,0,0,0,.54,0c2.8-1.32,5.59-2.65,8.4-4l-.22-.17L436.6,84.79a.86.86,0,0,0-.55,0C433,86.11,430,87.46,426.86,88.84Zm48.3-.22-.51-.27L451.85,78a1.21,1.21,0,0,0-.88,0c-2,.88-4,1.8-6,2.71l-.42.24.09.07,23.9,10.53a.69.69,0,0,0,.49,0C471.07,90.56,473.08,89.62,475.16,88.62Z" style="fill:#f7eec9"/><path d="M446.59,433.08h-.11a5.15,5.15,0,0,0-.58-.37q-13.71-6.61-27.43-13.2a.87.87,0,0,1-.58-.91V386.87a.85.85,0,0,1,.58-.92q12.34-5.62,24.68-11.27c1.59-.73,3.16-1.49,4.75-2.23h.23a6.28,6.28,0,0,0,.57.31l28.21,12.92a.87.87,0,0,1,.6.92q0,15.84,0,31.68a.87.87,0,0,1-.61.92q-12.51,5.69-25,11.41C450.12,431.42,448.36,432.25,446.59,433.08Zm-26-45.66c0,.23,0,.38,0,.53v29.24a.67.67,0,0,0,.45.72l25.58,12.14a4.1,4.1,0,0,0,.5.18V400a.78.78,0,0,0-.59-.81l-25.33-11.55Zm29.11,41.82.43-.17q12.18-5.77,24.37-11.52c.4-.19.42-.46.42-.8V387.07l-.64.29-6.86,3.35a.75.75,0,0,0-.51.8v13.15a.77.77,0,0,1-.46.78c-2.29,1.24-4.58,2.51-6.88,3.77a5.81,5.81,0,0,1-.58.27V395l-.64.29c-2.69,1.32-5.38,2.65-8.08,4a.83.83,0,0,0-.55.89v27Zm-26.19-43,.21.15,24,10.84a.75.75,0,0,0,.55,0q4.19-2,8.39-4l-.22-.17-23.21-10.9a.75.75,0,0,0-.55,0C429.62,383.48,426.58,384.83,423.47,386.21Zm48.3-.22c-.21-.11-.35-.21-.51-.28l-22.8-10.39a1.19,1.19,0,0,0-.87,0c-2,.88-4,1.8-6,2.72a3.7,3.7,0,0,0-.42.24l.09.07,23.9,10.52a.6.6,0,0,0,.49,0C467.69,387.93,469.69,387,471.77,386Z" style="fill:#f7eec9"/><path d="M448.55,573.72h-.11a5.15,5.15,0,0,0-.58-.37q-13.71-6.61-27.43-13.2a.87.87,0,0,1-.58-.91V527.51a.85.85,0,0,1,.58-.92q12.36-5.62,24.68-11.27c1.59-.73,3.16-1.49,4.75-2.23h.24a5,5,0,0,0,.56.31l28.21,12.92a.85.85,0,0,1,.6.92q0,15.84,0,31.68a.87.87,0,0,1-.61.92q-12.5,5.68-25,11.41C452.08,572.06,450.32,572.89,448.55,573.72Zm-26-45.66c0,.23,0,.38,0,.53v29.24a.67.67,0,0,0,.46.72l25.58,12.14a5.07,5.07,0,0,0,.49.19V540.67a.78.78,0,0,0-.58-.81l-25.34-11.55Zm29.11,41.82.43-.17q12.19-5.78,24.38-11.52c.4-.19.42-.46.42-.8V527.71l-.65.29-6.86,3.35a.76.76,0,0,0-.51.8V545.3a.76.76,0,0,1-.45.78c-2.3,1.24-4.59,2.51-6.88,3.77a5.12,5.12,0,0,1-.59.27V535.59l-.64.29c-2.69,1.33-5.37,2.65-8.07,4a.84.84,0,0,0-.56.89v27Zm-26.18-43,.2.16,24,10.84a.75.75,0,0,0,.55,0l8.4-4-.22-.17-23.22-10.9a.72.72,0,0,0-.54,0C431.58,524.12,428.54,525.47,425.44,526.84Zm48.3-.21a5.68,5.68,0,0,0-.52-.28L450.42,516a1.19,1.19,0,0,0-.87,0c-2,.88-4,1.8-6,2.72a3.79,3.79,0,0,0-.43.24l.09.07,23.91,10.52a.6.6,0,0,0,.49,0Z" style="fill:#f7eec9"/><path d="M526.45,135.71h-.12a5.57,5.57,0,0,0-.57-.37l-27.43-13.19a.89.89,0,0,1-.58-.92V89.5a.84.84,0,0,1,.58-.91Q510.68,83,523,77.31c1.59-.73,3.16-1.48,4.75-2.22H528c.19.1.37.22.56.3l28.24,12.93a.84.84,0,0,1,.6.91q0,15.84,0,31.68a.87.87,0,0,1-.61.92l-25,11.41C530,134.05,528.22,134.89,526.45,135.71Zm-26-45.65c0,.22,0,.37,0,.52v29.25a.68.68,0,0,0,.46.71l25.58,12.14c.15.07.31.12.49.19V102.66a.77.77,0,0,0-.58-.81Q513.65,96.06,501,90.3Zm29.11,41.82.42-.18,24.38-11.52c.4-.18.42-.46.42-.79V89.7l-.65.29c-2.29,1.12-4.58,2.25-6.88,3.35a.76.76,0,0,0-.5.8v13.15a.78.78,0,0,1-.46.78c-2.29,1.24-4.59,2.52-6.9,3.78-.15.08-.31.14-.59.27V97.58l-.64.3c-2.69,1.32-5.37,2.65-8.07,4a.83.83,0,0,0-.56.89v27Zm-26.19-43,.21.15,24,10.85a.7.7,0,0,0,.55,0q4.18-2,8.39-4l-.22-.17-23.21-10.9a.86.86,0,0,0-.55,0C509.48,86.11,506.44,87.46,503.33,88.84Zm48.3-.22c-.21-.11-.36-.2-.52-.27L528.32,78a1.19,1.19,0,0,0-.87,0c-2,.88-4,1.8-6,2.71l-.42.24.09.07,23.9,10.53a.69.69,0,0,0,.49,0C547.55,90.56,549.55,89.62,551.63,88.62Z" style="fill:#f7eec9"/><path d="M602.92,135.71h-.11c-.19-.13-.38-.26-.58-.37L574.8,122.15a.89.89,0,0,1-.58-.92V89.5a.84.84,0,0,1,.58-.91Q587.15,83,599.48,77.31c1.59-.73,3.16-1.48,4.75-2.22h.26a5,5,0,0,0,.56.3l28.19,12.93a.84.84,0,0,1,.59.91q0,15.84,0,31.68a.86.86,0,0,1-.6.92l-25,11.41C606.45,134.05,604.69,134.89,602.92,135.71Zm-26-45.65c0,.22,0,.37,0,.52v29.25a.66.66,0,0,0,.45.71l25.58,12.14c.15.07.31.12.5.19V102.66a.79.79,0,0,0-.59-.81L577.46,90.3ZM606,131.88l.43-.18,24.37-11.52c.4-.18.42-.46.42-.79V89.7l-.64.29c-2.3,1.12-4.59,2.25-6.88,3.35a.76.76,0,0,0-.51.8v13.15a.78.78,0,0,1-.46.78c-2.29,1.24-4.59,2.52-6.9,3.78-.15.08-.31.14-.59.27V97.58l-.64.3c-2.69,1.32-5.37,2.65-8.07,4a.85.85,0,0,0-.56.89v27Zm-26.19-43L580,89l24,10.85a.7.7,0,0,0,.55,0q4.18-2,8.39-4l-.22-.17-23.21-10.9a.86.86,0,0,0-.55,0C586,86.11,582.93,87.46,579.8,88.84Zm48.3-.22c-.21-.11-.36-.2-.52-.27L604.79,78a1.19,1.19,0,0,0-.87,0c-2,.88-4,1.8-6,2.71-.14.07-.27.16-.42.24l.09.07,23.9,10.53a.69.69,0,0,0,.49,0C624,90.56,626,89.62,628.1,88.62Z" style="fill:#f7eec9"/><path d="M488,289.07H412c.33-7.26,6.56-15,13.51-16.64a3.59,3.59,0,0,0,2.79-3.27,87.46,87.46,0,0,0,1-12c0-4.65-.81-9.3-.81-14A29.4,29.4,0,0,1,431.56,230c3.43-7,9-10.6,16.89-10.42a54,54,0,0,1,6,.17c6.42.92,10.91,4.55,13.55,10.37,3.17,7,3.7,14.27,2.61,21.79a43.58,43.58,0,0,0,.07,15.49A14,14,0,0,0,472,271a2.82,2.82,0,0,0,1.72,1.28c5.17,1,8.57,4.19,10.85,8.66C485.83,283.48,486.77,286.19,488,289.07Zm-21.82-43.29c-1.32,2.53-2.81,1.34-4.35.54q-8.87-4.57-17.75-9.13c-2.46-1.27-4.86-1.07-6.52,1.14-1.34,1.79-2,4-3,6.1-.23.5-.28,1.2-.65,1.49-2.1,1.67-1.69,6.68.66,8a3.14,3.14,0,0,1,1.27,1.38,26.18,26.18,0,0,0,6.09,9.22c5,4.68,10.74,4.72,15.77.09a25.1,25.1,0,0,0,6.12-9.2,3,3,0,0,1,.84-1.4,5.93,5.93,0,0,0,1.57-8.22Zm-30.27,25.84c1.06,3.42,7.89,7,13.85,7s12.71-3.58,13.86-7.08l-3.91-4.3c-6.18,5.31-12.45,6.29-19.76,0Z" style="fill:#f7eec9"/><rect x="40" y="641" width="815" height="13" style="fill:#f9c7e4"/><polygon points="288.97 160.27 283.01 167.15 295.39 178.16 320.15 148.81 310.52 148.81 295.85 166.69 288.97 160.27" style="fill:#f9c7e4"/><polygon points="365.44 160.27 359.48 167.15 371.86 178.16 396.63 148.81 387 148.81 372.32 166.69 365.44 160.27" style="fill:#f9c7e4"/><polygon points="441.91 160.27 435.95 167.15 448.33 178.16 473.1 148.81 463.47 148.81 448.79 166.69 441.91 160.27" style="fill:#f9c7e4"/><polygon points="437.39 468.38 431.43 475.25 443.81 486.26 468.57 456.91 458.94 456.91 444.27 474.8 437.39 468.38" style="fill:#f9c7e4"/><polygon points="435.08 327.58 429.12 334.46 441.5 345.46 466.27 316.12 456.64 316.12 441.96 334 435.08 327.58" style="fill:#f9c7e4"/><polygon points="518.38 160.27 512.42 167.15 524.8 178.16 549.57 148.81 539.94 148.81 525.26 166.69 518.38 160.27" style="fill:#f9c7e4"/><polygon points="594.85 160.27 588.89 167.15 601.27 178.16 626.04 148.81 616.41 148.81 601.73 166.69 594.85 160.27" style="fill:#f9c7e4"/><path d="M42.93,687H54.4q6.62,0,10.11,3.69c2.33,2.45,3.5,5.89,3.5,10.29v25.31q0,7.61-3.69,11.21t-10.6,3.61H42.93Zm7.75,46.82h3.57q3.27,0,4.64-1.64t1.37-5.13V701A8.15,8.15,0,0,0,59,696c-.86-1.16-2.43-1.75-4.71-1.75H50.68Z" style="fill:#f9c7e4"/><polygon points="75.3 687 98.41 687 98.41 694.29 83.06 694.29 83.06 710.18 96.43 710.18 96.43 717.48 83.06 717.48 83.06 733.36 98.41 733.36 98.41 741.11 75.3 741.11 75.3 687" style="fill:#f9c7e4"/><polygon points="118.62 741.11 111.78 741.11 100.76 687 108.97 687 115.13 724.77 115.28 724.77 121.51 687 129.72 687 118.62 741.11" style="fill:#f9c7e4"/><path d="M173.57,729a12.25,12.25,0,0,1-1,4.94,12.72,12.72,0,0,1-6.69,6.69,12.42,12.42,0,0,1-9.72,0,12.72,12.72,0,0,1-6.69-6.69,12.25,12.25,0,0,1-1-4.94V687h7.75v41.19a5.81,5.81,0,0,0,1.37,4.26,5,5,0,0,0,6.84,0,5.81,5.81,0,0,0,1.37-4.26V687h7.75Z" style="fill:#f9c7e4"/><path d="M206,702.58h-7.76v-1.75a8.28,8.28,0,0,0-1.25-4.6,4.65,4.65,0,0,0-4.22-1.94,5.13,5.13,0,0,0-2.62.61,4.6,4.6,0,0,0-1.6,1.56,6.51,6.51,0,0,0-.79,2.21,13.88,13.88,0,0,0-.23,2.62c0,1.06,0,2,.11,2.7a4.88,4.88,0,0,0,.57,1.89,4.33,4.33,0,0,0,1.33,1.41,12,12,0,0,0,2.4,1.22l5.92,2.35a14.5,14.5,0,0,1,4.18,2.32,9.36,9.36,0,0,1,2.47,3.12,13.2,13.2,0,0,1,1.18,4.1,41.48,41.48,0,0,1,.31,5.28,27.65,27.65,0,0,1-.69,6.35,13.21,13.21,0,0,1-2.24,5,10.74,10.74,0,0,1-4.14,3.31,14.79,14.79,0,0,1-6.31,1.22,13.73,13.73,0,0,1-5.24-1,12.61,12.61,0,0,1-8-11.86v-2.88h7.75v2.43a6.39,6.39,0,0,0,1.25,3.84c.84,1.14,2.24,1.71,4.22,1.71a7,7,0,0,0,3.08-.57,4,4,0,0,0,1.67-1.6,6.55,6.55,0,0,0,.72-2.55c.1-1,.15-2.13.15-3.34a33.36,33.36,0,0,0-.15-3.5,5.68,5.68,0,0,0-.64-2.2,4,4,0,0,0-1.37-1.37,20.17,20.17,0,0,0-2.32-1.14l-5.55-2.28q-5-2.06-6.72-5.43a18.72,18.72,0,0,1-1.71-8.48,19.54,19.54,0,0,1,.83-5.77,13.38,13.38,0,0,1,2.47-4.71,11.83,11.83,0,0,1,4.14-3.16,13.74,13.74,0,0,1,5.86-1.18,12.87,12.87,0,0,1,5.28,1.07,13.11,13.11,0,0,1,4.1,2.81,12.44,12.44,0,0,1,2.62,3.91,11.37,11.37,0,0,1,.92,4.45Z" style="fill:#f9c7e4"/><rect x="211.95" y="687" width="7.75" height="54.11" style="fill:#f9c7e4"/><polygon points="226.92 687 234.37 687 246.07 719.6 246.22 719.6 246.22 687 253.98 687 253.98 741.11 246.68 741.11 234.82 708.58 234.67 708.58 234.67 741.11 226.92 741.11 226.92 687" style="fill:#f9c7e4"/><path d="M260.51,699.77a13.83,13.83,0,0,1,1.14-5.78,12.08,12.08,0,0,1,3-4.14,13,13,0,0,1,4.18-2.47,13.43,13.43,0,0,1,9.35,0,12.91,12.91,0,0,1,4.18,2.47,12.08,12.08,0,0,1,3,4.14,13.83,13.83,0,0,1,1.14,5.78v2.73h-7.75v-2.73a5.16,5.16,0,0,0-1.56-4.15,5.77,5.77,0,0,0-7.37,0,5.16,5.16,0,0,0-1.56,4.15v28.57a5.16,5.16,0,0,0,1.56,4.15,5.77,5.77,0,0,0,7.37,0,5.16,5.16,0,0,0,1.56-4.15V718.16h-6.16v-6.84H286.5v17a13.8,13.8,0,0,1-1.14,5.82,12.21,12.21,0,0,1-3,4.1,12.91,12.91,0,0,1-4.18,2.47,13.43,13.43,0,0,1-9.35,0,13,13,0,0,1-4.18-2.47,12.21,12.21,0,0,1-3-4.1,13.8,13.8,0,0,1-1.14-5.82Z" style="fill:#f9c7e4"/><path d="M332.1,729a12.26,12.26,0,0,1-1,4.79,12.41,12.41,0,0,1-2.62,4,12.71,12.71,0,0,1-3.91,2.74,11.57,11.57,0,0,1-4.83,1,17.56,17.56,0,0,1-4.48-.61,11,11,0,0,1-4.11-2.09,11.29,11.29,0,0,1-3-3.91A14.1,14.1,0,0,1,307,728.8V699a13.31,13.31,0,0,1,.91-4.94,11.54,11.54,0,0,1,2.59-4,12,12,0,0,1,4-2.63,13.43,13.43,0,0,1,5.13-1,12.79,12.79,0,0,1,4.94,1,11.86,11.86,0,0,1,3.95,2.66,12.26,12.26,0,0,1,2.62,4.11,13.82,13.82,0,0,1,1,5.2v3h-7.75v-2.58a6.27,6.27,0,0,0-1.29-3.95,4.18,4.18,0,0,0-3.5-1.68c-1.92,0-3.2.6-3.84,1.79a9.61,9.61,0,0,0-1,4.52v27.67a7.18,7.18,0,0,0,1,4c.68,1.06,1.91,1.6,3.69,1.6a5.55,5.55,0,0,0,1.63-.27,4.72,4.72,0,0,0,1.6-.87,4.43,4.43,0,0,0,1.17-1.68,6.65,6.65,0,0,0,.46-2.66v-2.66h7.75Z" style="fill:#f9c7e4"/><rect x="338.64" y="687" width="7.75" height="54.11" style="fill:#f9c7e4"/><polygon points="383.25 741.11 376.41 741.11 365.39 687 373.6 687 379.75 724.77 379.9 724.77 386.14 687 394.34 687 383.25 741.11" style="fill:#f9c7e4"/><polygon points="398.98 687 422.08 687 422.08 694.29 406.73 694.29 406.73 710.18 420.11 710.18 420.11 717.48 406.73 717.48 406.73 733.36 422.08 733.36 422.08 741.11 398.98 741.11 398.98 687" style="fill:#f9c7e4"/><path d="M427.1,687h12.46q13.68,0,13.68,15.88a20.07,20.07,0,0,1-1.48,8.1,11.48,11.48,0,0,1-5.2,5.43l8.36,24.7h-8.21L439.49,718h-4.64v23.1H427.1Zm7.75,24.17h4.41a7.8,7.8,0,0,0,3.27-.57,4.2,4.2,0,0,0,1.86-1.64,6.92,6.92,0,0,0,.87-2.62,28.45,28.45,0,0,0,0-7.22,6.52,6.52,0,0,0-.95-2.66,4.28,4.28,0,0,0-2-1.63,9,9,0,0,0-3.42-.54h-4Z" style="fill:#f9c7e4"/><rect x="459.7" y="687" width="7.75" height="54.11" style="fill:#f9c7e4"/><polygon points="474.98 687 498.08 687 498.08 694.29 482.73 694.29 482.73 710.71 496.11 710.71 496.11 718.01 482.73 718.01 482.73 741.11 474.98 741.11 474.98 687" style="fill:#f9c7e4"/><rect x="503.33" y="687" width="7.75" height="54.11" style="fill:#f9c7e4"/><polygon points="518.6 687 541.71 687 541.71 694.29 526.35 694.29 526.35 710.18 539.73 710.18 539.73 717.48 526.35 717.48 526.35 733.36 541.71 733.36 541.71 741.11 518.6 741.11 518.6 687" style="fill:#f9c7e4"/><path d="M546.72,687H558.2q6.62,0,10.1,3.69c2.33,2.45,3.5,5.89,3.5,10.29v25.31q0,7.61-3.68,11.21t-10.61,3.61H546.72Zm7.75,46.82H558q3.27,0,4.64-1.64t1.37-5.13V701a8.22,8.22,0,0,0-1.29-4.94c-.87-1.16-2.43-1.75-4.72-1.75h-3.57Z" style="fill:#f9c7e4"/><path d="M593.23,687h11.63a17.17,17.17,0,0,1,5.62.84,10.73,10.73,0,0,1,4.41,3,11.62,11.62,0,0,1,2.74,5,31.44,31.44,0,0,1,.76,7.71,38.3,38.3,0,0,1-.42,6.12,12.76,12.76,0,0,1-1.79,4.75,11.33,11.33,0,0,1-4.25,4.14,14.33,14.33,0,0,1-7,1.48h-4v21.13h-7.75ZM601,712.69h3.73a7.9,7.9,0,0,0,3.65-.69,4.33,4.33,0,0,0,1.9-1.86,7.36,7.36,0,0,0,.72-2.85c.07-1.11.11-2.35.11-3.72s0-2.47-.11-3.61a8.65,8.65,0,0,0-.69-3,4.35,4.35,0,0,0-1.78-2,6.94,6.94,0,0,0-3.5-.73h-4Z" style="fill:#f9c7e4"/><polygon points="624.16 687 631.91 687 631.91 711.7 632.07 711.7 643.39 687 651.14 687 640.58 708.66 653.12 741.11 644.91 741.11 636.1 717.1 631.91 724.92 631.91 741.11 624.16 741.11 624.16 687" style="fill:#f9c7e4"/><path d="M656.08,699.77a13.83,13.83,0,0,1,1.14-5.78,12.08,12.08,0,0,1,3-4.14,13.06,13.06,0,0,1,4.19-2.47,13.4,13.4,0,0,1,9.34,0,12.91,12.91,0,0,1,4.18,2.47,12.08,12.08,0,0,1,3,4.14,13.68,13.68,0,0,1,1.15,5.78v2.73h-7.76v-2.73a5.16,5.16,0,0,0-1.56-4.15,5.77,5.77,0,0,0-7.37,0,5.16,5.16,0,0,0-1.56,4.15v28.57a5.16,5.16,0,0,0,1.56,4.15,5.77,5.77,0,0,0,7.37,0,5.16,5.16,0,0,0,1.56-4.15V718.16h-6.15v-6.84h13.91v17a13.64,13.64,0,0,1-1.15,5.82,12.21,12.21,0,0,1-3,4.1,12.91,12.91,0,0,1-4.18,2.47,13.4,13.4,0,0,1-9.34,0,13.06,13.06,0,0,1-4.19-2.47,12.21,12.21,0,0,1-3-4.1,13.8,13.8,0,0,1-1.14-5.82Z" style="fill:#f9c7e4"/><path d="M714,702.58h-7.75v-1.75a8.36,8.36,0,0,0-1.25-4.6,4.65,4.65,0,0,0-4.22-1.94,5.13,5.13,0,0,0-2.62.61,4.52,4.52,0,0,0-1.6,1.56,6.74,6.74,0,0,0-.8,2.21,14.78,14.78,0,0,0-.22,2.62,26,26,0,0,0,.11,2.7,4.88,4.88,0,0,0,.57,1.89,4.23,4.23,0,0,0,1.33,1.41,12.17,12.17,0,0,0,2.39,1.22l5.93,2.35a14.63,14.63,0,0,1,4.18,2.32,9.36,9.36,0,0,1,2.47,3.12,13.2,13.2,0,0,1,1.18,4.1,41.61,41.61,0,0,1,.3,5.28,27.67,27.67,0,0,1-.68,6.35,13.37,13.37,0,0,1-2.24,5,10.74,10.74,0,0,1-4.14,3.31,14.79,14.79,0,0,1-6.31,1.22,13.82,13.82,0,0,1-5.25-1,12.87,12.87,0,0,1-4.18-2.7,12.75,12.75,0,0,1-3.8-9.16v-2.88h7.76v2.43a6.33,6.33,0,0,0,1.25,3.84c.84,1.14,2.24,1.71,4.22,1.71a7,7,0,0,0,3.08-.57,4,4,0,0,0,1.67-1.6,6.55,6.55,0,0,0,.72-2.55c.1-1,.15-2.13.15-3.34a33.36,33.36,0,0,0-.15-3.5,5.5,5.5,0,0,0-.65-2.2,4,4,0,0,0-1.36-1.37,20.17,20.17,0,0,0-2.32-1.14l-5.55-2.28q-5-2.06-6.73-5.43a18.72,18.72,0,0,1-1.71-8.48,19.54,19.54,0,0,1,.84-5.77,13.38,13.38,0,0,1,2.47-4.71,11.83,11.83,0,0,1,4.14-3.16,13.69,13.69,0,0,1,5.85-1.18,12.89,12.89,0,0,1,5.29,1.07,13.11,13.11,0,0,1,4.1,2.81,12.61,12.61,0,0,1,2.62,3.91,11.36,11.36,0,0,1,.91,4.45Z" style="fill:#f9c7e4"/><path d="M67.55,820.23a12.22,12.22,0,0,1-1,4.79A12.57,12.57,0,0,1,64,829a12.86,12.86,0,0,1-3.91,2.73,11.41,11.41,0,0,1-4.83,1,17.56,17.56,0,0,1-4.48-.61,11,11,0,0,1-4.11-2.09,11.29,11.29,0,0,1-3-3.91A14.07,14.07,0,0,1,42.47,820V790.21a13.31,13.31,0,0,1,.91-4.94A11.54,11.54,0,0,1,46,781.32a12,12,0,0,1,4-2.63,13.43,13.43,0,0,1,5.13-1,12.79,12.79,0,0,1,4.94,1A11.86,11.86,0,0,1,64,781.35a12.26,12.26,0,0,1,2.62,4.11,13.82,13.82,0,0,1,1,5.2v3H59.8v-2.58a6.27,6.27,0,0,0-1.29-4A4.17,4.17,0,0,0,55,785.5c-1.92,0-3.2.59-3.84,1.78a9.61,9.61,0,0,0-1,4.52v27.67a7.18,7.18,0,0,0,1,3.95c.68,1.06,1.91,1.6,3.69,1.6a5.55,5.55,0,0,0,1.63-.27,4.72,4.72,0,0,0,1.6-.87,4.43,4.43,0,0,0,1.17-1.68,6.65,6.65,0,0,0,.46-2.66v-2.66h7.75Z" style="fill:#f9c7e4"/><rect x="74.09" y="778.2" width="7.75" height="54.11" style="fill:#f9c7e4"/><path d="M103.5,778.2h11.63a17.21,17.21,0,0,1,5.62.84,10.73,10.73,0,0,1,4.41,3,11.5,11.5,0,0,1,2.73,5,31,31,0,0,1,.76,7.71,39.63,39.63,0,0,1-.41,6.12,12.93,12.93,0,0,1-1.79,4.75,11.28,11.28,0,0,1-4.26,4.14,14.28,14.28,0,0,1-7,1.48h-4v21.13H103.5Zm7.75,25.69H115a7.87,7.87,0,0,0,3.65-.69,4.28,4.28,0,0,0,1.9-1.86,7,7,0,0,0,.72-2.85q.12-1.66.12-3.72c0-1.27,0-2.47-.12-3.61a8.43,8.43,0,0,0-.68-3,4.37,4.37,0,0,0-1.79-2,6.91,6.91,0,0,0-3.49-.72h-4Z" style="fill:#f9c7e4"/><path d="M159.51,820.15a12.25,12.25,0,0,1-1,4.94,12.72,12.72,0,0,1-6.69,6.69,12.42,12.42,0,0,1-9.72,0,12.72,12.72,0,0,1-6.69-6.69,12.25,12.25,0,0,1-1-4.94V778.2h7.75v41.19a5.81,5.81,0,0,0,1.37,4.26,5,5,0,0,0,6.84,0,5.81,5.81,0,0,0,1.37-4.26V778.2h7.75Z" style="fill:#f9c7e4"/><path d="M166.81,778.2h11.32a15.91,15.91,0,0,1,6.35,1.14,12,12,0,0,1,4.29,3,11.39,11.39,0,0,1,2.39,4.37,18.28,18.28,0,0,1,.73,5.13v2a17,17,0,0,1-.35,3.72,8.93,8.93,0,0,1-1,2.66,8.76,8.76,0,0,1-1.67,2,14.49,14.49,0,0,1-2.28,1.64,8.34,8.34,0,0,1,4,3.84,15.1,15.1,0,0,1,1.3,6.8v3q0,7.14-3.46,10.94t-11.06,3.8H166.81Zm7.75,22.19h3.49c2.59,0,4.32-.64,5.21-1.94a10,10,0,0,0,1.33-5.66,8.54,8.54,0,0,0-1.48-5.47c-1-1.22-2.78-1.82-5.36-1.82h-3.19Zm0,24.17h3.34a8.29,8.29,0,0,0,3.69-.68,4.74,4.74,0,0,0,2-1.9,7.25,7.25,0,0,0,.84-2.89c.1-1.12.15-2.33.15-3.65a24.58,24.58,0,0,0-.23-3.57,5.88,5.88,0,0,0-1-2.55,4.53,4.53,0,0,0-2-1.56,9.22,9.22,0,0,0-3.42-.53h-3.42Z" style="fill:#f9c7e4"/><polygon points="199.18 778.2 206.93 778.2 206.93 824.56 222.28 824.56 222.28 832.31 199.18 832.31 199.18 778.2" style="fill:#f9c7e4"/><rect x="227.53" y="778.2" width="7.75" height="54.11" style="fill:#f9c7e4"/><path d="M267.88,793.78h-7.75V792a8.36,8.36,0,0,0-1.25-4.6,4.64,4.64,0,0,0-4.22-1.93,5.13,5.13,0,0,0-2.62.6,4.52,4.52,0,0,0-1.6,1.56,6.66,6.66,0,0,0-.8,2.21,14.78,14.78,0,0,0-.22,2.62,26,26,0,0,0,.11,2.7,5,5,0,0,0,.57,1.9,4.3,4.3,0,0,0,1.33,1.4,12.17,12.17,0,0,0,2.39,1.22l5.93,2.35a14.88,14.88,0,0,1,4.18,2.32,9.36,9.36,0,0,1,2.47,3.12,13.2,13.2,0,0,1,1.18,4.1,41.61,41.61,0,0,1,.3,5.28,27.67,27.67,0,0,1-.68,6.35,13.49,13.49,0,0,1-2.24,5,10.81,10.81,0,0,1-4.14,3.3,14.79,14.79,0,0,1-6.31,1.22,13.78,13.78,0,0,1-5.25-1,12.87,12.87,0,0,1-4.18-2.7,12.75,12.75,0,0,1-3.8-9.16V817H249v2.43a6.31,6.31,0,0,0,1.25,3.84c.84,1.14,2.24,1.71,4.22,1.71a6.82,6.82,0,0,0,3.08-.57,4,4,0,0,0,1.67-1.6,6.5,6.5,0,0,0,.72-2.55c.1-1,.15-2.12.15-3.34a33.36,33.36,0,0,0-.15-3.5,5.5,5.5,0,0,0-.65-2.2,4,4,0,0,0-1.36-1.37,20.17,20.17,0,0,0-2.32-1.14l-5.55-2.28q-5-2.06-6.73-5.43a18.72,18.72,0,0,1-1.71-8.48,19.54,19.54,0,0,1,.84-5.77,13.38,13.38,0,0,1,2.47-4.71,11.83,11.83,0,0,1,4.14-3.16,13.69,13.69,0,0,1,5.85-1.18,12.89,12.89,0,0,1,5.29,1.07,13.28,13.28,0,0,1,4.1,2.81,12.61,12.61,0,0,1,2.62,3.91,11.36,11.36,0,0,1,.91,4.45Z" style="fill:#f9c7e4"/><polygon points="273.66 778.2 281.41 778.2 281.41 801.38 290.99 801.38 290.99 778.2 298.74 778.2 298.74 832.31 290.99 832.31 290.99 808.22 281.41 808.22 281.41 832.31 273.66 832.31 273.66 778.2" style="fill:#f9c7e4"/><rect x="306.26" y="778.2" width="7.75" height="54.11" style="fill:#f9c7e4"/><polygon points="321.23 778.2 328.68 778.2 340.39 810.8 340.54 810.8 340.54 778.2 348.29 778.2 348.29 832.31 340.99 832.31 329.14 799.78 328.99 799.78 328.99 832.31 321.23 832.31 321.23 778.2" style="fill:#f9c7e4"/><path d="M354.83,791a14,14,0,0,1,1.13-5.78,12,12,0,0,1,3-4.14,12.91,12.91,0,0,1,4.18-2.47,13.43,13.43,0,0,1,9.35,0,13,13,0,0,1,4.17,2.47,12,12,0,0,1,3,4.14,13.83,13.83,0,0,1,1.14,5.78v2.73h-7.75V791a5.16,5.16,0,0,0-1.56-4.14,5.78,5.78,0,0,0-7.38,0,5.16,5.16,0,0,0-1.55,4.14v28.57a5.19,5.19,0,0,0,1.55,4.15,5.78,5.78,0,0,0,7.38,0,5.2,5.2,0,0,0,1.56-4.15V809.36h-6.16v-6.84h13.91v17a13.8,13.8,0,0,1-1.14,5.82,12.1,12.1,0,0,1-3,4.1,12.8,12.8,0,0,1-4.17,2.47,13.43,13.43,0,0,1-9.35,0,12.74,12.74,0,0,1-4.18-2.47,12.1,12.1,0,0,1-3-4.1,14,14,0,0,1-1.13-5.82Z" style="fill:#f9c7e4"/></svg>