<svg data-name="Layer 1" xmlns="http://www.w3.org/2000/svg" viewBox="0 0 900 900"><path style="fill:#07448e" d="M0 0h900v900H0z"/><path d="M138.63 112H131l-6.24-37h-.16l-6.16 37h-7.68l-8.48-57h8.64L115 91.16h.16L121.51 55h6.24l6.64 37h.16l3.92-37h8.64Zm13.84-57h8.16v57h-8.16Zm16.07 0h8.17v48.8h16.16v8.2h-24.33Zm29.6 0h8.16v48.8h16.16v8.2h-24.32ZM248 62.68h-9.44V55h27v7.68h-9.44V112H248ZM269.18 55h8.16v24.4h10.08V55h8.16v57h-8.16V86.6h-10.08V112h-8.16Zm34.32 0h8.16v57h-8.16ZM346 71.4h-8.16v-1.84a8.7 8.7 0 0 0-1.32-4.84 4.88 4.88 0 0 0-4.44-2 5.32 5.32 0 0 0-2.76.64 4.72 4.72 0 0 0-1.7 1.64 6.88 6.88 0 0 0-.84 2.32 15.41 15.41 0 0 0-.24 2.76 28.22 28.22 0 0 0 .12 2.84 5.05 5.05 0 0 0 .6 2 4.66 4.66 0 0 0 1.4 1.48 12.67 12.67 0 0 0 2.52 1.28l6.24 2.48a15.52 15.52 0 0 1 4.4 2.44 9.87 9.87 0 0 1 2.6 3.28 13.83 13.83 0 0 1 1.24 4.32 43.79 43.79 0 0 1 .32 5.56 29.3 29.3 0 0 1-.72 6.68 14.18 14.18 0 0 1-2.36 5.28 11.28 11.28 0 0 1-4.36 3.48 15.57 15.57 0 0 1-6.64 1.28 14.61 14.61 0 0 1-5.52-1A13.31 13.31 0 0 1 318 98.92v-3h8.16v2.56a6.67 6.67 0 0 0 1.32 4q1.32 1.8 4.44 1.8a7.14 7.14 0 0 0 3.24-.6 4.14 4.14 0 0 0 1.74-1.68 6.94 6.94 0 0 0 .76-2.68 34.61 34.61 0 0 0 .16-3.52 33.66 33.66 0 0 0-.16-3.68 5.84 5.84 0 0 0-.66-2.32 4.14 4.14 0 0 0-1.44-1.44 19.88 19.88 0 0 0-2.44-1.2l-5.84-2.4Q322 82.6 320.18 79a19.68 19.68 0 0 1-1.8-8.92 20.6 20.6 0 0 1 .88-6.08 14.22 14.22 0 0 1 2.6-5 12.43 12.43 0 0 1 4.36-3.32 14.29 14.29 0 0 1 6.16-1.24 13.47 13.47 0 0 1 5.56 1.12 13.82 13.82 0 0 1 4.32 3 13.2 13.2 0 0 1 2.74 4.16 12 12 0 0 1 1 4.68Zm54.78 40.6h-7.68l-6.24-37h-.16l-6.16 37h-7.68l-8.48-57H373l4.08 36.16h.16L383.66 55h6.24l6.64 37h.16l3.92-37h8.64Zm12.16-43.56a14.56 14.56 0 0 1 1.2-6.08A12.67 12.67 0 0 1 417.3 58a13.62 13.62 0 0 1 4.4-2.6 14.19 14.19 0 0 1 9.84 0 13.62 13.62 0 0 1 4.4 2.6 12.67 12.67 0 0 1 3.16 4.36 14.56 14.56 0 0 1 1.2 6.08v30.08a14.46 14.46 0 0 1-1.2 6.12 12.8 12.8 0 0 1-3.16 4.32 13.62 13.62 0 0 1-4.4 2.6 14.19 14.19 0 0 1-9.84 0 13.62 13.62 0 0 1-4.4-2.6 12.8 12.8 0 0 1-3.16-4.32 14.46 14.46 0 0 1-1.2-6.12Zm8.16 30.08a5.43 5.43 0 0 0 1.64 4.36 6.08 6.08 0 0 0 7.76 0 5.43 5.43 0 0 0 1.64-4.36V68.44a5.43 5.43 0 0 0-1.64-4.36 6.08 6.08 0 0 0-7.76 0 5.43 5.43 0 0 0-1.64 4.36ZM447.5 55h13.12Q475 55 475 71.72a21.11 21.11 0 0 1-1.56 8.52A12.09 12.09 0 0 1 468 86l8.8 26h-8.64l-7.6-24.32h-4.88V112h-8.18Zm8.16 25.44h4.64a8.23 8.23 0 0 0 3.44-.6 4.4 4.4 0 0 0 2-1.72 7.42 7.42 0 0 0 .92-2.76 30.2 30.2 0 0 0 0-7.6 7 7 0 0 0-1-2.8 4.57 4.57 0 0 0-2.12-1.72 9.71 9.71 0 0 0-3.6-.56h-4.24ZM481.58 55h8.16v26h.16l11.92-26H510l-11.14 22.8 13.2 34.2h-8.64l-9.28-25.28-4.4 8.24v17h-8.16Zm32.8 11.68a12.06 12.06 0 0 1 3.6-8.6 12.71 12.71 0 0 1 3.92-2.6 12.62 12.62 0 0 1 10.2.24 11.07 11.07 0 0 1 4 3.36 21.69 21.69 0 0 1 1.32 2.08 11.5 11.5 0 0 1 .84 2 12.67 12.67 0 0 1 .44 2.44c.08.91.12 2 .12 3.2v3.48a22.26 22.26 0 0 1-.2 2.44 12.86 12.86 0 0 1-.4 1.8 6.38 6.38 0 0 1-.64 1.4l-5.52 9.44a13.15 13.15 0 0 0-1 2 5.59 5.59 0 0 0-.4 2.12v6.4h-8.16v-7.44a10 10 0 0 1 .56-3.36 17.54 17.54 0 0 1 1.48-3.08l5.12-8.32a6.4 6.4 0 0 0 .84-2.24 15 15 0 0 0 .2-2.4v-4.28a4 4 0 0 0-1.16-2.88 3.81 3.81 0 0 0-2.84-1.2 4.57 4.57 0 0 0-2.8 1 3.58 3.58 0 0 0-1.36 3v4.72h-8.16Zm8.16 37.12h8.16v8.2h-8.16Zm37.6-48.8h12.24a18.12 18.12 0 0 1 5.92.88 11.49 11.49 0 0 1 4.64 3.12 12.32 12.32 0 0 1 2.88 5.24 33 33 0 0 1 .8 8.12 40.84 40.84 0 0 1-.44 6.44 13.68 13.68 0 0 1-1.88 5 11.93 11.93 0 0 1-4.48 4.36 15.09 15.09 0 0 1-7.36 1.56h-4.16V112h-8.16Zm8.16 27h3.92a8.36 8.36 0 0 0 3.84-.72 4.62 4.62 0 0 0 2-2 7.78 7.78 0 0 0 .76-3c.08-1.17.12-2.48.12-3.92s0-2.6-.12-3.8a9 9 0 0 0-.72-3.12 4.61 4.61 0 0 0-1.88-2.08 7.26 7.26 0 0 0-3.68-.76h-4.24Zm24.4-27h13.12q14.4 0 14.4 16.72a21.11 21.11 0 0 1-1.56 8.52 12.09 12.09 0 0 1-5.48 5.76l8.8 26h-8.64l-7.6-24.32h-4.88V112h-8.16Zm8.16 25.44h4.64a8.23 8.23 0 0 0 3.44-.6 4.45 4.45 0 0 0 2-1.72 7.42 7.42 0 0 0 .92-2.76 30.2 30.2 0 0 0 0-7.6 7 7 0 0 0-1-2.8 4.57 4.57 0 0 0-2.12-1.72 9.71 9.71 0 0 0-3.6-.56h-4.24Zm25.43-12a14.56 14.56 0 0 1 1.21-6.08 12.54 12.54 0 0 1 3.16-4.36 13.52 13.52 0 0 1 4.4-2.6 14.19 14.19 0 0 1 9.84 0 13.58 13.58 0 0 1 4.39 2.6 12.7 12.7 0 0 1 3.17 4.36 14.56 14.56 0 0 1 1.2 6.08v30.08a14.46 14.46 0 0 1-1.2 6.12 12.82 12.82 0 0 1-3.17 4.32 13.58 13.58 0 0 1-4.39 2.6 14.19 14.19 0 0 1-9.84 0 13.52 13.52 0 0 1-4.4-2.6 12.67 12.67 0 0 1-3.16-4.32 14.46 14.46 0 0 1-1.21-6.12Zm8.17 30.08a5.4 5.4 0 0 0 1.64 4.36 6.08 6.08 0 0 0 7.76 0 5.43 5.43 0 0 0 1.64-4.36V68.44a5.43 5.43 0 0 0-1.64-4.36 6.08 6.08 0 0 0-7.76 0 5.4 5.4 0 0 0-1.64 4.36ZM660.86 55h11.92a16.72 16.72 0 0 1 6.68 1.2 12.66 12.66 0 0 1 4.54 3.2 11.93 11.93 0 0 1 2.5 4.6 19.36 19.36 0 0 1 .76 5.4v2.08a18.11 18.11 0 0 1-.37 3.92 9.13 9.13 0 0 1-1.08 2.8 8.76 8.76 0 0 1-1.76 2.12 15.43 15.43 0 0 1-2.39 1.68 8.75 8.75 0 0 1 4.23 4 15.87 15.87 0 0 1 1.37 7.16v3.2q0 7.52-3.64 11.52T672 112h-11.14ZM669 78.36h3.68c2.72 0 4.54-.68 5.48-2a10.56 10.56 0 0 0 1.4-6A9.06 9.06 0 0 0 678 64.6c-1-1.28-2.92-1.92-5.64-1.92H669Zm0 25.44h3.52a8.63 8.63 0 0 0 3.88-.72 5.06 5.06 0 0 0 2.12-2 7.58 7.58 0 0 0 .88-3c.1-1.17.16-2.45.16-3.84a24.29 24.29 0 0 0-.25-3.76 6 6 0 0 0-1-2.68 4.63 4.63 0 0 0-2.12-1.64 9.61 9.61 0 0 0-3.59-.56H669ZM703 55h6.8l12.72 57h-8.16L712 99.72h-11.14l-2.4 12.28h-8.17Zm3.44 16.4h-.17l-4 20.64h8.17Zm20.1-16.4h11.92a16.67 16.67 0 0 1 6.67 1.2 12.74 12.74 0 0 1 4.53 3.2 12 12 0 0 1 2.52 4.6 19.36 19.36 0 0 1 .76 5.4v2.08a18.18 18.18 0 0 1-.36 3.92 9.67 9.67 0 0 1-1.08 2.8 9 9 0 0 1-1.76 2.12 16 16 0 0 1-2.4 1.72 8.82 8.82 0 0 1 4.24 4 16 16 0 0 1 1.36 7.16v3.2q0 7.52-3.65 11.52t-11.63 4h-11.12Zm8.16 23.36h3.68c2.72 0 4.54-.68 5.48-2a10.56 10.56 0 0 0 1.4-6q0-3.84-1.56-5.76t-5.65-1.92h-3.35Zm0 25.44h3.51a8.65 8.65 0 0 0 3.89-.72 4.92 4.92 0 0 0 2.11-2 7.43 7.43 0 0 0 .89-3c.1-1.17.16-2.45.16-3.84a25.72 25.72 0 0 0-.24-3.76 6.25 6.25 0 0 0-1-2.68 4.74 4.74 0 0 0-2.12-1.64 9.73 9.73 0 0 0-3.61-.56h-3.59ZM760.62 55h8.16v48.8h16.16v8.2h-24.32Zm29.84 32.88L779.25 55h8.64l6.57 22.64h.16L801.17 55h8.64l-11.19 32.88V112h-8.16ZM78.48 708h4.25l8 35.6h-5.1l-1.55-7.6h-7l-1.5 7.65h-5.1Zm2.15 10.25h-.1L78 731.15h5.1ZM93 708h4.9l7.7 21.45h.1V708h5.1v35.6H106l-7.8-21.4h-.1v21.4H93Zm22.38 0h7.55q4.35 0 6.65 2.42a9.44 9.44 0 0 1 2.3 6.78v16.65q0 5-2.42 7.37c-1.62 1.59-3.94 2.38-7 2.38h-7.1Zm5.1 30.8h2.35a3.76 3.76 0 0 0 3-1.08 5.18 5.18 0 0 0 .9-3.37V717.2a5.37 5.37 0 0 0-.85-3.25 3.61 3.61 0 0 0-3.1-1.15h-2.35Zm46.65 4.8h-4.8l-3.9-23.1h-.1l-3.85 23.1h-4.8l-5.3-35.6h5.4l2.55 22.6h.1l4-22.6h3.9l4.15 23.15h.1L167 708h5.4Zm8.65-35.6h5.1v35.6h-5.1Zm13.4 4.8h-5.9V708h16.9v4.8h-5.9v30.8h-5.1Zm13.25-4.8h5.1v15.25h6.3V708h5.1v35.6h-5.1v-15.85h-6.3v15.85h-5.1Zm46.8 27.65a8.05 8.05 0 0 1-.63 3.15 8.17 8.17 0 0 1-1.72 2.62 8.43 8.43 0 0 1-2.58 1.8 7.52 7.52 0 0 1-3.17.68 11.26 11.26 0 0 1-2.95-.4 7.22 7.22 0 0 1-2.7-1.38 7.42 7.42 0 0 1-2-2.57 9.41 9.41 0 0 1-.77-4V715.9a8.66 8.66 0 0 1 .6-3.25 7.67 7.67 0 0 1 1.7-2.6 8 8 0 0 1 2.62-1.73 9 9 0 0 1 3.38-.62 8.47 8.47 0 0 1 3.25.62 7.79 7.79 0 0 1 2.6 1.75 8 8 0 0 1 1.72 2.7 9.18 9.18 0 0 1 .63 3.43v2h-5.1v-1.7a4.1 4.1 0 0 0-.85-2.6 2.76 2.76 0 0 0-2.3-1.1 2.6 2.6 0 0 0-2.53 1.17 6.42 6.42 0 0 0-.62 3v18.2a4.72 4.72 0 0 0 .67 2.6 2.66 2.66 0 0 0 2.43 1 3.58 3.58 0 0 0 1.07-.18 2.69 2.69 0 0 0 1.05-.57 2.87 2.87 0 0 0 .78-1.1 4.47 4.47 0 0 0 .3-1.75v-1.75h5.1Zm4.3-27.65h5.1v35.6h-5.1Zm9.75 30.5h5.1v5.1l-5.1 3.7Zm19.05-30.5h5.1v35.6h-5.1Zm10.05 0h15.2v4.8h-10.1v10.8h8.8v4.8h-8.8v15.2h-5.1Zm44.3 10.25h-5.1v-1.15a5.46 5.46 0 0 0-.83-3 3 3 0 0 0-2.75-1.3 3.33 3.33 0 0 0-1.73.4 3 3 0 0 0-1.05 1 4.3 4.3 0 0 0-.52 1.45 9.69 9.69 0 0 0-.15 1.73 17.69 17.69 0 0 0 .07 1.77 3.11 3.11 0 0 0 .38 1.25 2.94 2.94 0 0 0 .87.93 7.91 7.91 0 0 0 1.58.8l3.9 1.55a9.71 9.71 0 0 1 2.75 1.52 6.24 6.24 0 0 1 1.62 2 9.07 9.07 0 0 1 .78 2.7 27.7 27.7 0 0 1 .2 3.48 18.26 18.26 0 0 1-.45 4.17 8.76 8.76 0 0 1-1.48 3.3 7 7 0 0 1-2.77 2.25 9.78 9.78 0 0 1-4.15.8 9.09 9.09 0 0 1-3.45-.65 8.26 8.26 0 0 1-2.75-1.78 8.3 8.3 0 0 1-2.5-6v-1.9h5.1v1.6a4.15 4.15 0 0 0 .82 2.52 3.23 3.23 0 0 0 2.78 1.13 4.45 4.45 0 0 0 2-.38 2.63 2.63 0 0 0 1.1-1 4.43 4.43 0 0 0 .48-1.68c.06-.67.1-1.4.1-2.2s0-1.7-.1-2.3a3.66 3.66 0 0 0-.43-1.45 2.59 2.59 0 0 0-.9-.9 12.68 12.68 0 0 0-1.52-.75L325 726.6a8.08 8.08 0 0 1-4.43-3.58 12.28 12.28 0 0 1-1.12-5.57 12.84 12.84 0 0 1 .55-3.8 8.72 8.72 0 0 1 1.62-3.1 7.81 7.81 0 0 1 2.73-2.08 9.06 9.06 0 0 1 3.85-.77 8.41 8.41 0 0 1 3.47.7 8.64 8.64 0 0 1 2.7 1.85 8.37 8.37 0 0 1 1.73 2.57 7.49 7.49 0 0 1 .6 2.93Zm3.5-1.85a9.11 9.11 0 0 1 .75-3.8 7.79 7.79 0 0 1 2-2.72 8.53 8.53 0 0 1 2.75-1.63 8.87 8.87 0 0 1 6.15 0 8.53 8.53 0 0 1 2.75 1.63 7.81 7.81 0 0 1 2 2.72 9.11 9.11 0 0 1 .75 3.8v18.8a9 9 0 0 1-.75 3.82 7.83 7.83 0 0 1-2 2.7 8.53 8.53 0 0 1-2.75 1.63 8.87 8.87 0 0 1-6.15 0 8.53 8.53 0 0 1-2.75-1.63 7.8 7.8 0 0 1-2-2.7 9 9 0 0 1-.75-3.82Zm5.1 18.8a3.39 3.39 0 0 0 1 2.72 3.78 3.78 0 0 0 4.85 0 3.39 3.39 0 0 0 1-2.72v-18.8a3.43 3.43 0 0 0-1-2.73 3.81 3.81 0 0 0-4.85 0 3.42 3.42 0 0 0-1 2.73Zm16.5-27.2h4.9l6.55 18.85h.1l6.5-18.85h4.95v35.6h-5.1V722h-.1l-5.05 15.3H372l-5-15.3h-.1v21.6h-5.1Zm27.8 0h15.2v4.8h-10.1v10.45h8.8v4.8h-8.8v10.45h10.1v5.1h-15.2Zm21.85 4.8h-5.9V708h16.9v4.8h-5.9v30.8h-5.1Zm13.24-4.8h5.1v15.25h6.3V708h5.1v35.6h-5.1v-15.85h-6.3v15.85h-5.1Zm21.45 0h5.1v35.6h-5.1Zm9.88 0h4.91l7.69 21.45h.1V708h5.1v35.6H469l-7.8-21.4h-.1v21.4H456Zm22.07 8.4a9.11 9.11 0 0 1 .75-3.8 7.81 7.81 0 0 1 2-2.72 8.53 8.53 0 0 1 2.75-1.63 8.87 8.87 0 0 1 6.15 0 8.63 8.63 0 0 1 2.75 1.63 7.79 7.79 0 0 1 2 2.72 9.11 9.11 0 0 1 .75 3.8v1.8h-5.1v-1.8a3.42 3.42 0 0 0-1-2.73 3.81 3.81 0 0 0-4.85 0 3.43 3.43 0 0 0-1 2.73v18.8a3.39 3.39 0 0 0 1 2.72 3.78 3.78 0 0 0 4.85 0 3.39 3.39 0 0 0 1-2.72v-6.7H486V724h9.15v11.2a9 9 0 0 1-.75 3.82 7.8 7.8 0 0 1-2 2.7 8.63 8.63 0 0 1-2.75 1.63 8.87 8.87 0 0 1-6.15 0 8.53 8.53 0 0 1-2.75-1.63 7.83 7.83 0 0 1-2-2.7 9 9 0 0 1-.75-3.82ZM509 708h7.55q4.35 0 6.65 2.42a9.44 9.44 0 0 1 2.3 6.78v16.65q0 5-2.42 7.37c-1.62 1.59-3.94 2.38-7 2.38H509Zm5.1 30.8h2.35a3.76 3.76 0 0 0 3.05-1.08 5.18 5.18 0 0 0 .9-3.37V717.2a5.37 5.37 0 0 0-.85-3.25 3.61 3.61 0 0 0-3.1-1.15h-2.35Zm15.9-22.4a9.11 9.11 0 0 1 .75-3.8 7.81 7.81 0 0 1 2-2.72 8.42 8.42 0 0 1 2.75-1.63 8.89 8.89 0 0 1 3.07-.55 9 9 0 0 1 3.08.55 8.63 8.63 0 0 1 2.75 1.63 7.92 7.92 0 0 1 2 2.72 9.11 9.11 0 0 1 .75 3.8v18.8a9 9 0 0 1-.75 3.82 7.93 7.93 0 0 1-2 2.7 8.63 8.63 0 0 1-2.75 1.63 9 9 0 0 1-3.08.55 8.89 8.89 0 0 1-3.07-.55 8.42 8.42 0 0 1-2.75-1.63 7.83 7.83 0 0 1-2-2.7 9 9 0 0 1-.75-3.82Zm5.1 18.8a3.36 3.36 0 0 0 1 2.72 3.78 3.78 0 0 0 4.85 0 3.39 3.39 0 0 0 1-2.72v-18.8a3.42 3.42 0 0 0-1-2.73 3.81 3.81 0 0 0-4.85 0 3.4 3.4 0 0 0-1 2.73Zm16.47-27.2h15.2v4.8h-10.1v10.45h8.8v4.8h-8.8v10.45h10.1v5.1h-15.2Zm35 10.25h-5.1v-1.15a5.45 5.45 0 0 0-.82-3 3.06 3.06 0 0 0-2.78-1.27 3.29 3.29 0 0 0-1.72.4 3 3 0 0 0-1 1 4.31 4.31 0 0 0-.53 1.45 9.69 9.69 0 0 0-.15 1.73 17.34 17.34 0 0 0 .08 1.77 3.11 3.11 0 0 0 .37 1.25 2.86 2.86 0 0 0 .88.93 7.79 7.79 0 0 0 1.57.8l3.9 1.55a9.71 9.71 0 0 1 2.75 1.52 6.4 6.4 0 0 1 1.63 2 8.78 8.78 0 0 1 .77 2.7 27.7 27.7 0 0 1 .2 3.48 18.26 18.26 0 0 1-.45 4.17 8.75 8.75 0 0 1-1.47 3.3 7.13 7.13 0 0 1-2.73 2.18 9.75 9.75 0 0 1-4.15.8 9.17 9.17 0 0 1-3.45-.65 8.34 8.34 0 0 1-5.25-7.8v-1.9h5.1v1.6a4.16 4.16 0 0 0 .83 2.52 3.21 3.21 0 0 0 2.77 1.13 4.5 4.5 0 0 0 2-.38 2.63 2.63 0 0 0 1.1-1 4.44 4.44 0 0 0 .47-1.68 21.29 21.29 0 0 0 .1-2.2 20.74 20.74 0 0 0-.1-2.3 3.83 3.83 0 0 0-.42-1.45 2.59 2.59 0 0 0-.9-.9 13.75 13.75 0 0 0-1.53-.75l-3.65-1.5a8 8 0 0 1-4.42-3.58 12.27 12.27 0 0 1-1.13-5.57 12.84 12.84 0 0 1 .55-3.8 8.9 8.9 0 0 1 1.63-3.1 7.68 7.68 0 0 1 2.72-2.08 9.06 9.06 0 0 1 3.85-.77 8.42 8.42 0 0 1 3.48.7 8.64 8.64 0 0 1 2.7 1.85 8.34 8.34 0 0 1 1.72 2.57 7.49 7.49 0 0 1 .6 2.93Zm13.1-10.25h15.2v4.8h-10.1v10.8h8.8v4.8h-8.8v15.2h-5.1Zm21.65 0h4.25l7.95 35.6h-5.1l-1.5-7.65H620l-1.5 7.65h-5.1Zm2.15 10.25h-.1l-2.5 12.9H626Zm12.7-10.25h5.1v35.6h-5.1Zm10.05 0h5.1v30.5h10.1v5.1h-15.2Zm18.2 30.5h5.1v5.1l-5.1 3.7Zm22.25-25.7h-5.9V708h16.9v4.8h-5.9v30.8h-5.1Zm13.25-4.8H705v15.25h6.3V708h5.1v35.6h-5.1v-15.85H705v15.85h-5.1Zm21.3 0h15.2v4.8h-10.1v10.45h8.8v4.8h-8.8v10.45h10.1v5.1h-15.2Zm18.5 0h8.2q9 0 9 10.45a13.16 13.16 0 0 1-1 5.32 7.52 7.52 0 0 1-3.42 3.58l5.5 16.25h-5.4l-4.75-15.2h-3v15.2h-5.1Zm5.1 15.9h2.9a5.15 5.15 0 0 0 2.15-.38 2.72 2.72 0 0 0 1.22-1.07 4.47 4.47 0 0 0 .58-1.73 16.48 16.48 0 0 0 .15-2.37 16.73 16.73 0 0 0-.15-2.38 4.29 4.29 0 0 0-.63-1.75 2.8 2.8 0 0 0-1.32-1.07 6.1 6.1 0 0 0-2.25-.35h-2.65ZM761 708h15.2v4.8h-10.1v10.45h8.8v4.8h-8.8v10.45h10.1v5.1H761Zm28 0h5.1v35.6H789Zm26.52 10.25h-5.1v-1.15a5.46 5.46 0 0 0-.83-3 3 3 0 0 0-2.77-1.27 3.33 3.33 0 0 0-1.73.4 3 3 0 0 0-1.05 1 4.3 4.3 0 0 0-.52 1.45 9.69 9.69 0 0 0-.15 1.73 17.69 17.69 0 0 0 .07 1.77 3.11 3.11 0 0 0 .38 1.25 2.94 2.94 0 0 0 .87.93 7.91 7.91 0 0 0 1.58.8l3.9 1.55a9.71 9.71 0 0 1 2.75 1.52 6.24 6.24 0 0 1 1.62 2 9.07 9.07 0 0 1 .78 2.7 27.7 27.7 0 0 1 .2 3.48 18.26 18.26 0 0 1-.45 4.17 8.76 8.76 0 0 1-1.48 3.3 7 7 0 0 1-2.72 2.18 9.78 9.78 0 0 1-4.15.8 9.09 9.09 0 0 1-3.45-.65 8.26 8.26 0 0 1-2.75-1.78 8.3 8.3 0 0 1-2.5-6v-1.9h5.1v1.6a4.15 4.15 0 0 0 .82 2.52 3.23 3.23 0 0 0 2.78 1.13 4.45 4.45 0 0 0 2-.38 2.63 2.63 0 0 0 1.1-1 4.43 4.43 0 0 0 .48-1.68c.06-.67.1-1.4.1-2.2s0-1.7-.1-2.3a3.66 3.66 0 0 0-.43-1.45 2.5 2.5 0 0 0-.9-.9 12.68 12.68 0 0 0-1.52-.75l-3.65-1.5a8.08 8.08 0 0 1-4.43-3.58 12.28 12.28 0 0 1-1.12-5.57 12.84 12.84 0 0 1 .55-3.8 8.72 8.72 0 0 1 1.62-3.1 7.81 7.81 0 0 1 2.73-2.08 9.06 9.06 0 0 1 3.85-.77 8.41 8.41 0 0 1 3.47.7 8.64 8.64 0 0 1 2.7 1.85 8.37 8.37 0 0 1 1.73 2.57 7.49 7.49 0 0 1 .6 2.93ZM834.27 708h4.25l7.94 35.6h-5.09l-1.5-7.65h-7l-1.5 7.65h-5.1Zm2.15 10.25h-.1l-2.5 12.9h5.1ZM186.85 768H192v15.25h6.29V768h5.1v35.6h-5.1v-15.85H192v15.85h-5.11Zm21.45 0h5.1v35.6h-5.1Zm9.75 8.4a9.11 9.11 0 0 1 .75-3.8 7.81 7.81 0 0 1 2-2.72 8.53 8.53 0 0 1 2.75-1.63 8.87 8.87 0 0 1 6.15 0 8.53 8.53 0 0 1 2.75 1.63 7.79 7.79 0 0 1 2 2.72 9.11 9.11 0 0 1 .75 3.8v1.8h-5.1v-1.8a3.42 3.42 0 0 0-1-2.73 3.81 3.81 0 0 0-4.85 0 3.43 3.43 0 0 0-1 2.73v18.8a3.39 3.39 0 0 0 1 2.72 3.78 3.78 0 0 0 4.85 0 3.39 3.39 0 0 0 1-2.72v-6.7H226V784h9.15v11.2a9 9 0 0 1-.75 3.82 7.8 7.8 0 0 1-2 2.7 8.53 8.53 0 0 1-2.75 1.63 8.87 8.87 0 0 1-6.15 0 8.53 8.53 0 0 1-2.75-1.63 7.83 7.83 0 0 1-2-2.7 9 9 0 0 1-.75-3.82Zm21.6-8.4h5.1v15.25h6.3V768h5.1v35.6h-5.1v-15.85h-6.3v15.85h-5.1Zm21.35 0h15.2v4.8h-10.1v10.45h8.8v4.8h-8.8v10.45h10.1v5.1H261Zm18.45 0h8.2q9 0 9 10.45a13.17 13.17 0 0 1-1 5.32 7.5 7.5 0 0 1-3.43 3.58l5.5 16.25h-5.4l-4.75-15.2h-3.05v15.2h-5.1Zm5.1 15.9h2.9a5.11 5.11 0 0 0 2.15-.38 2.74 2.74 0 0 0 1.23-1.07 4.64 4.64 0 0 0 .57-1.73 16.48 16.48 0 0 0 .15-2.37 16.73 16.73 0 0 0-.15-2.38 4.29 4.29 0 0 0-.62-1.75 2.83 2.83 0 0 0-1.33-1.07 6 6 0 0 0-2.25-.35h-2.65Zm41.7 11.75a8.21 8.21 0 0 1-2.35 5.77 8.51 8.51 0 0 1-2.57 1.8 7.56 7.56 0 0 1-3.18.68 11.31 11.31 0 0 1-2.95-.4 7.12 7.12 0 0 1-4.67-4 9.25 9.25 0 0 1-.78-4v-19.6a8.66 8.66 0 0 1 .6-3.25 7.67 7.67 0 0 1 1.7-2.6 8.08 8.08 0 0 1 2.63-1.73 8.91 8.91 0 0 1 3.37-.62 8.47 8.47 0 0 1 3.25.62 7.79 7.79 0 0 1 2.6 1.75 8 8 0 0 1 1.73 2.7 9.38 9.38 0 0 1 .62 3.43v2h-5.1v-1.7a4.1 4.1 0 0 0-.85-2.6 2.75 2.75 0 0 0-2.3-1.1 2.59 2.59 0 0 0-2.52 1.17 6.29 6.29 0 0 0-.63 3v18.2a4.72 4.72 0 0 0 .68 2.6 2.66 2.66 0 0 0 2.42 1 3.64 3.64 0 0 0 1.08-.18 2.84 2.84 0 0 0 1.05-.57 3 3 0 0 0 .77-1.1 4.47 4.47 0 0 0 .3-1.75v-1.75h5.1ZM330.4 768h5.1v15.25h6.3V768h5.1v35.6h-5.1v-15.85h-6.3v15.85h-5.1Zm26.95 0h4.25l7.95 35.6h-5.1L363 796h-7l-1.5 7.65h-5.1Zm2.15 10.25h-.1l-2.5 12.9h5.1ZM371.85 768h4.9l7.7 21.45h.1V768h5.1v35.6h-4.8l-7.8-21.4H377v21.4h-5.1Zm38.6 27.65a8.23 8.23 0 0 1-.62 3.15 8.36 8.36 0 0 1-1.73 2.62 8.51 8.51 0 0 1-2.57 1.8 7.6 7.6 0 0 1-3.18.68 11.26 11.26 0 0 1-3-.4 7.12 7.12 0 0 1-4.67-4 9.25 9.25 0 0 1-.78-4v-19.6a8.66 8.66 0 0 1 .6-3.25 7.67 7.67 0 0 1 1.7-2.6 8 8 0 0 1 2.63-1.73 8.91 8.91 0 0 1 3.37-.62 8.47 8.47 0 0 1 3.25.62 7.79 7.79 0 0 1 2.6 1.75 8.18 8.18 0 0 1 1.73 2.7 9.38 9.38 0 0 1 .62 3.43v2h-5.1v-1.7a4.1 4.1 0 0 0-.85-2.6 2.75 2.75 0 0 0-2.3-1.1 2.59 2.59 0 0 0-2.52 1.17 6.29 6.29 0 0 0-.63 3v18.2a4.72 4.72 0 0 0 .68 2.6 2.65 2.65 0 0 0 2.42 1 3.69 3.69 0 0 0 1.08-.18 2.84 2.84 0 0 0 1-.57 3 3 0 0 0 .77-1.1 4.47 4.47 0 0 0 .3-1.75v-1.75h5.1ZM414.6 768h15.2v4.8h-10.1v10.45h8.8v4.8h-8.8v10.45h10.1v5.1h-15.2Zm27.95 0h5.1v35.6h-5.1Zm13.45 4.8h-5.9V768H467v4.8h-5.9v30.8H456Zm43.65 30.8h-4.8L491 780.5h-.1l-3.9 23.1h-4.8l-5.3-35.6h5.4l2.55 22.6h.1l4-22.6h3.9l4.15 23.15h.1l2.45-23.15H505Zm8.65-35.6h5.1v35.6h-5.1Zm10.05 0h5.1v30.5h10.1v5.1h-15.2Zm18.5 0H542v30.5h10.1v5.1h-15.2Zm27.8 0h7.45a10.43 10.43 0 0 1 4.17.75 8 8 0 0 1 2.83 2 7.39 7.39 0 0 1 1.57 2.87 11.9 11.9 0 0 1 .48 3.38v1.3a11.33 11.33 0 0 1-.23 2.45 5.85 5.85 0 0 1-.67 1.75 5.6 5.6 0 0 1-1.1 1.32 9.6 9.6 0 0 1-1.5 1.08 5.55 5.55 0 0 1 2.65 2.52 10.07 10.07 0 0 1 .85 4.48v2q0 4.7-2.28 7.2c-1.51 1.67-3.94 2.5-7.27 2.5h-7Zm5.1 14.6h2.3c1.7 0 2.84-.43 3.42-1.28a6.59 6.59 0 0 0 .88-3.72 5.62 5.62 0 0 0-1-3.6c-.65-.8-1.82-1.2-3.52-1.2h-2.1Zm0 15.9H572a5.35 5.35 0 0 0 2.42-.45 3.1 3.1 0 0 0 1.33-1.25 4.76 4.76 0 0 0 .55-1.9c.06-.73.1-1.53.1-2.4a16.09 16.09 0 0 0-.15-2.35 3.83 3.83 0 0 0-.63-1.68 2.9 2.9 0 0 0-1.32-1 6.1 6.1 0 0 0-2.25-.35h-2.25ZM586 768h15.2v4.8h-10.1v10.45h8.8v4.8h-8.8v10.45h10.1v5.1H586Zm44 27.65a8.05 8.05 0 0 1-.63 3.15 8.33 8.33 0 0 1-1.72 2.62 8.68 8.68 0 0 1-2.58 1.8 7.52 7.52 0 0 1-3.17.68 11.26 11.26 0 0 1-3-.4 7.22 7.22 0 0 1-2.7-1.38 7.42 7.42 0 0 1-2-2.57 9.26 9.26 0 0 1-.77-4V775.9a8.66 8.66 0 0 1 .6-3.25 7.52 7.52 0 0 1 1.7-2.6 7.93 7.93 0 0 1 2.62-1.73 9 9 0 0 1 3.38-.62 8.51 8.51 0 0 1 3.25.62 7.89 7.89 0 0 1 2.6 1.75 8.16 8.16 0 0 1 1.72 2.7 9.18 9.18 0 0 1 .63 3.43v2h-5.1v-1.7a4.16 4.16 0 0 0-.85-2.6 2.78 2.78 0 0 0-2.3-1.1 2.6 2.6 0 0 0-2.53 1.17 6.3 6.3 0 0 0-.62 3v18.2a4.72 4.72 0 0 0 .67 2.6 2.66 2.66 0 0 0 2.43 1 3.58 3.58 0 0 0 1.07-.18 2.81 2.81 0 0 0 1.83-1.67 4.47 4.47 0 0 0 .3-1.75v-1.75H630Zm9.75-27.65H644l8 35.6h-5.1l-1.5-7.65h-7l-1.5 7.65h-5.1Zm2.15 10.25h-.1l-2.5 12.9h5.1ZM671 795.6a8.13 8.13 0 0 1-.65 3.25 8.5 8.5 0 0 1-1.78 2.62 8.33 8.33 0 0 1-2.62 1.78 8.2 8.2 0 0 1-6.4 0 8.35 8.35 0 0 1-4.4-4.4 8 8 0 0 1-.65-3.25V768h5.1v27.1a3.81 3.81 0 0 0 .9 2.8 3.26 3.26 0 0 0 4.5 0 3.81 3.81 0 0 0 .9-2.8V768h5.1Zm4.45-19.2a9.11 9.11 0 0 1 .75-3.8 7.79 7.79 0 0 1 2-2.72 8.53 8.53 0 0 1 2.75-1.63 8.87 8.87 0 0 1 6.15 0 8.53 8.53 0 0 1 2.75 1.63 7.81 7.81 0 0 1 2 2.72 9.11 9.11 0 0 1 .75 3.8v1.8h-5.1v-1.8a3.43 3.43 0 0 0-1-2.73 3.81 3.81 0 0 0-4.85 0 3.42 3.42 0 0 0-1 2.73v18.8a3.39 3.39 0 0 0 1 2.72 3.78 3.78 0 0 0 4.85 0 3.39 3.39 0 0 0 1-2.72v-6.7h-4.1V784h9.15v11.2a9 9 0 0 1-.75 3.82 7.83 7.83 0 0 1-2 2.7 8.53 8.53 0 0 1-2.75 1.63 8.87 8.87 0 0 1-6.15 0 8.53 8.53 0 0 1-2.75-1.63 7.8 7.8 0 0 1-2-2.7 9 9 0 0 1-.75-3.82Zm21.6-8.4h5.1v15.25h6.3V768h5.1v35.6h-5.1v-15.85h-6.3v15.85h-5.1Zm24.65 4.8h-5.9V768h16.9v4.8h-5.9v30.8h-5.1Z" style="fill:#f9c7e4"/><path d="M453.25 665.81h-.16a6.25 6.25 0 0 0-.77-.49q-18.37-8.87-36.76-17.69a1.18 1.18 0 0 1-.78-1.25v-42.53a1.14 1.14 0 0 1 .78-1.23q16.54-7.53 33.07-15.11c2.13-1 4.24-2 6.37-3h.31c.25.13.5.29.76.41q18.9 8.68 37.81 17.35a1.14 1.14 0 0 1 .8 1.22v42.46a1.15 1.15 0 0 1-.81 1.23q-16.77 7.63-33.52 15.3c-2.35 1.1-4.73 2.22-7.1 3.33Zm-34.91-61.19v39.9a.91.91 0 0 0 .6 1l34.29 16.27c.19.09.41.16.65.25v-40.49a1 1 0 0 0-.78-1.08L419.12 605Zm39 56c.28-.12.43-.17.57-.24q16.33-7.73 32.68-15.43c.53-.25.56-.6.56-1.07V604.1l-.87.39c-3.06 1.5-6.12 3-9.19 4.48a1 1 0 0 0-.68 1.08v17.62a1 1 0 0 1-.62 1c-3.09 1.67-6.17 3.37-9.25 5.06l-.78.36v-19.38l-.86.39c-3.61 1.77-7.21 3.55-10.82 5.3a1.13 1.13 0 0 0-.75 1.19v36.2ZM422.26 603a2 2 0 0 0 .28.2l32.19 14.54a1 1 0 0 0 .74 0c3.74-1.77 7.47-3.57 11.25-5.37a1.84 1.84 0 0 0-.29-.22q-15.56-7.32-31.12-14.61a1 1 0 0 0-.73 0c-4.08 1.8-8.16 3.61-12.32 5.46Zm64.74-.3c-.28-.15-.48-.27-.69-.37q-15.27-7-30.55-13.92a1.58 1.58 0 0 0-1.17 0c-2.68 1.18-5.34 2.42-8 3.64a4.88 4.88 0 0 0-.57.33l.12.09q16 7 32 14.1a.89.89 0 0 0 .66 0c2.72-1.24 5.41-2.57 8.2-3.87Z" style="fill:#f7eec9"/><path transform="rotate(-57.35 329.484 473.057)" style="fill:#f9c7e4" d="M322.97 393.37h13v159.36h-13z"/><path style="fill:#f9c7e4" d="m362.86 520.62 30.46-6.66-6.68-30.45 15.76 10.09 6.67 30.45-30.45 6.67-15.76-10.1z"/><path style="fill:#07448e" d="M203.96 421.72h498.05v27.23H203.96z"/><path transform="rotate(-47.14 201.26 249.422)" style="fill:#f9c7e4" d="M198.84 195.88h4.83v107.08h-4.83z"/><path style="fill:#f9c7e4" d="m227.87 285.3 11.58-.43-.43-11.58 5.1 4.73.43 11.58-11.58.43-5.1-4.73z"/><path transform="rotate(-89.87 266.02 250.158)" style="fill:#f9c7e4" d="M231.3 247.74h69.47v4.83H231.3z"/><path style="fill:#f9c7e4" d="m257.78 275.25 8.18 8.22 8.21-8.18-.02 6.95-8.21 8.18-8.18-8.22.02-6.95z"/><path transform="rotate(-43.29 330.427 250.523)" style="fill:#f9c7e4" d="M275.7 248.11h109.42v4.83H275.7z"/><path style="fill:#f9c7e4" d="m291.98 275.48-.35 11.58 11.58.34-5.06 4.78-11.58-.35.34-11.58 5.07-4.77z"/><path style="fill:#07448e" d="M126.5 210.96h264v8.92h-264z"/><path d="M170.68 340.62h-.08a2.64 2.64 0 0 0-.35-.23l-16.88-8.12a.53.53 0 0 1-.35-.57v-19.52a.52.52 0 0 1 .35-.57q7.6-3.45 15.19-6.93l2.92-1.37h.14l.35.19 17.36 8a.52.52 0 0 1 .36.56v19.5a.53.53 0 0 1-.37.56l-15.38 7Zm-16-28.09v18.33a.42.42 0 0 0 .28.44q7.88 3.72 15.74 7.47l.3.11V320.3a.48.48 0 0 0-.36-.5L155 312.68Zm17.91 25.73.26-.11 15-7.08c.25-.12.26-.28.26-.49v-18.27l-.4.19c-1.41.68-2.81 1.38-4.22 2.05a.47.47 0 0 0-.31.5v8.09a.47.47 0 0 1-.28.48c-1.42.76-2.83 1.54-4.25 2.32l-.36.17v-8.95l-.39.18-5 2.44a.51.51 0 0 0-.34.54v16.62Zm-16.11-26.48.13.1 14.78 6.67a.47.47 0 0 0 .33 0l5.17-2.47a.94.94 0 0 0-.14-.1l-14.28-6.7a.38.38 0 0 0-.33 0Zm29.72-.13-.32-.17q-7-3.19-14-6.39a.7.7 0 0 0-.53 0c-1.23.54-2.45 1.11-3.68 1.67l-.26.15h.06l14.7 6.48a.39.39 0 0 0 .3 0c1.18-.53 2.42-1.13 3.7-1.74Zm31.52 28.97h-.07a3.5 3.5 0 0 0-.35-.23l-16.88-8.12a.53.53 0 0 1-.36-.57v-19.52a.53.53 0 0 1 .36-.57q7.61-3.45 15.18-6.93l2.93-1.37h.14l.35.19 17.35 8a.52.52 0 0 1 .37.56v19.5a.53.53 0 0 1-.37.56l-15.39 7Zm-16-28.09v18.33a.42.42 0 0 0 .28.44q7.88 3.72 15.73 7.47l.31.11V320.3a.48.48 0 0 0-.36-.5l-15.59-7.11Zm17.91 25.73.26-.11 15-7.08c.25-.12.26-.28.26-.49v-18.27l-.4.19c-1.41.68-2.81 1.38-4.22 2.05a.47.47 0 0 0-.31.5v8.09a.48.48 0 0 1-.29.48c-1.42.76-2.83 1.54-4.24 2.32l-.36.17v-8.95l-.4.18-5 2.44a.51.51 0 0 0-.34.54v16.62Zm-16.13-26.48a1.57 1.57 0 0 0 .13.1l14.77 6.67a.5.5 0 0 0 .34 0l5.17-2.47-.14-.1-14.28-6.7a.4.4 0 0 0-.34 0Zm29.71-.13-.31-.17q-7-3.19-14-6.39a.7.7 0 0 0-.53 0c-1.24.54-2.46 1.11-3.68 1.67-.09 0-.17.1-.26.15s0 0 .06 0l14.7 6.48a.39.39 0 0 0 .3 0c1.21-.53 2.44-1.13 3.72-1.74Zm31.56 28.97h-.07a2.74 2.74 0 0 0-.36-.23l-16.87-8.12a.53.53 0 0 1-.36-.57v-19.52a.53.53 0 0 1 .36-.57l15.18-6.93 2.92-1.37h.15l.34.19 17.36 8a.52.52 0 0 1 .37.56v19.5a.53.53 0 0 1-.37.56l-15.39 7Zm-16-28.09v18.33a.42.42 0 0 0 .27.44q7.88 3.72 15.74 7.47l.3.11V320.3a.48.48 0 0 0-.36-.5l-15.59-7.11Zm17.91 25.73.26-.11 15-7.08a.45.45 0 0 0 .26-.49v-18.27l-.4.19c-1.4.68-2.8 1.38-4.21 2.05a.48.48 0 0 0-.32.5v8.09a.48.48 0 0 1-.29.48c-1.42.76-2.83 1.54-4.24 2.32l-.36.17v-8.95l-.4.18-5 2.44a.51.51 0 0 0-.35.54v16.62Zm-16.11-26.48.12.1 14.78 6.67a.5.5 0 0 0 .34 0l5.19-2.45a.91.91 0 0 0-.13-.1l-14.28-6.7a.4.4 0 0 0-.34 0Zm29.71-.13-.32-.17q-7-3.19-14-6.39a.72.72 0 0 0-.54 0c-1.23.54-2.45 1.11-3.67 1.67-.09 0-.17.1-.26.15h.05l14.71 6.48a.39.39 0 0 0 .3 0c1.2-.53 2.45-1.13 3.71-1.74Zm31.54 28.97h-.07a2.74 2.74 0 0 0-.36-.23l-16.87-8.12a.52.52 0 0 1-.36-.57v-19.52a.52.52 0 0 1 .36-.57l15.18-6.93 2.92-1.37h.15l.34.19 17.36 8a.52.52 0 0 1 .37.56v19.5a.53.53 0 0 1-.37.56q-7.71 3.5-15.39 7Zm-16-28.09v18.33a.42.42 0 0 0 .27.44q7.88 3.72 15.74 7.47l.3.11v-18.59a.48.48 0 0 0-.36-.5l-15.58-7.11Zm17.91 25.73.26-.11 15-7.08c.24-.12.25-.28.25-.49v-18.27l-.4.19c-1.4.68-2.81 1.38-4.22 2.05a.48.48 0 0 0-.31.5v8.09a.47.47 0 0 1-.28.48c-1.42.76-2.83 1.54-4.25 2.32l-.36.17v-8.95c-.17.09-.28.13-.39.18l-5 2.44a.51.51 0 0 0-.34.54v16.62Zm-16.12-26.48.13.1 14.78 6.67a.5.5 0 0 0 .34 0l5.14-2.45c-.06 0-.09-.08-.13-.1l-14.29-6.7a.38.38 0 0 0-.33 0Zm29.72-.13-.32-.17q-7-3.19-14-6.39a.7.7 0 0 0-.53 0c-1.23.54-2.45 1.11-3.67 1.67l-.27.15h.06l14.71 6.48a.39.39 0 0 0 .3 0c1.19-.53 2.39-1.13 3.7-1.74Zm31.54 28.97h-.08a2.12 2.12 0 0 0-.35-.23l-16.88-8.12a.53.53 0 0 1-.35-.57v-19.52a.53.53 0 0 1 .35-.57q7.6-3.45 15.19-6.93l2.92-1.37h.14l.35.19 17.36 8a.52.52 0 0 1 .36.56v19.5a.52.52 0 0 1-.37.56l-15.38 7Zm-16-28.09v18.33a.42.42 0 0 0 .28.44q7.88 3.72 15.74 7.47l.3.11V320.3a.48.48 0 0 0-.36-.5l-15.58-7.11Zm17.91 25.73.26-.11 15-7.08c.25-.12.26-.28.26-.49v-18.27l-.4.19c-1.41.68-2.81 1.38-4.22 2.05a.48.48 0 0 0-.31.5v8.09a.47.47 0 0 1-.28.48c-1.42.76-2.83 1.54-4.25 2.32l-.36.17v-8.95l-.39.18-5 2.44a.51.51 0 0 0-.34.54v16.62Zm-16.11-26.48.13.1 14.78 6.67a.47.47 0 0 0 .33 0l5.17-2.47a.94.94 0 0 0-.14-.1l-14.28-6.7a.38.38 0 0 0-.33 0Zm29.72-.13-.32-.17q-7-3.19-14-6.39a.7.7 0 0 0-.53 0c-1.23.54-2.45 1.11-3.68 1.67l-.26.15h.06l14.7 6.48a.39.39 0 0 0 .3 0c1.18-.53 2.42-1.13 3.7-1.74Zm-88.74 119.73h-46.71c.21-4.47 4-9.24 8.31-10.24a2.2 2.2 0 0 0 1.72-2 53.88 53.88 0 0 0 .61-7.38c0-2.86-.5-5.72-.51-8.59a18.2 18.2 0 0 1 1.88-8.11c2.11-4.3 5.54-6.52 10.39-6.41a31.83 31.83 0 0 1 3.66.11 10.37 10.37 0 0 1 8.34 6.38 23.58 23.58 0 0 1 1.66 13.4 26.72 26.72 0 0 0 0 9.52 8.15 8.15 0 0 0 .82 2.19 1.77 1.77 0 0 0 1.06.8 9.24 9.24 0 0 1 6.68 5.33c.78 1.55 1.36 3.23 2.09 5Zm-13.42-26.64c-.81 1.56-1.73.83-2.68.34q-5.44-2.83-10.91-5.62c-1.52-.78-3-.66-4 .7a21.09 21.09 0 0 0-1.85 3.75c-.15.31-.18.74-.41.92-1.29 1-1 4.11.41 4.94a2 2 0 0 1 .78.85 16.13 16.13 0 0 0 3.75 5.68c3.07 2.87 6.6 2.9 9.7.05a15.23 15.23 0 0 0 3.76-5.66 2 2 0 0 1 .52-.86 3.64 3.64 0 0 0 .93-5.09Zm-18.61 15.9c.65 2.11 4.85 4.33 8.51 4.33s7.83-2.21 8.53-4.36l-2.41-2.61c-3.8 3.27-7.65 3.87-12.15 0Zm-83.1-207.1h-16.79a4.27 4.27 0 0 1 3-3.69.78.78 0 0 0 .61-.72 18.22 18.22 0 0 0 .22-2.65c0-1-.18-2.06-.18-3.09a6.61 6.61 0 0 1 .67-2.92 3.81 3.81 0 0 1 3.74-2.3 11.57 11.57 0 0 1 1.32 0 3.72 3.72 0 0 1 3 2.29 8.46 8.46 0 0 1 .57 4.82 9.64 9.64 0 0 0 0 3.43 3.26 3.26 0 0 0 .29.79.62.62 0 0 0 .39.28 3.35 3.35 0 0 1 2.4 1.92c.29.6.5 1.2.76 1.84ZM165.7 204c-.29.56-.62.3-1 .12l-3.93-2a1 1 0 0 0-1.44.25 7.38 7.38 0 0 0-.67 1.35c0 .11-.06.27-.15.33a1.27 1.27 0 0 0 .15 1.78.63.63 0 0 1 .28.3 5.73 5.73 0 0 0 1.35 2 2.35 2.35 0 0 0 3.49 0 5.6 5.6 0 0 0 1.35-2 .74.74 0 0 1 .19-.31 1.32 1.32 0 0 0 .38-1.82Zm-6.7 5.72c.24.75 1.75 1.55 3.07 1.55s2.81-.79 3.06-1.57l-.86-.95a3 3 0 0 1-4.37 0Zm219.66 3.82h-16.79a4.27 4.27 0 0 1 3-3.69.8.8 0 0 0 .62-.72 19.71 19.71 0 0 0 .21-2.65c0-1-.18-2.06-.18-3.09a6.48 6.48 0 0 1 .68-2.92 3.79 3.79 0 0 1 3.73-2.3 11.57 11.57 0 0 1 1.32 0 3.72 3.72 0 0 1 3 2.29 8.46 8.46 0 0 1 .57 4.82 9.64 9.64 0 0 0 0 3.43 3.26 3.26 0 0 0 .29.79.65.65 0 0 0 .39.28 3.35 3.35 0 0 1 2.4 1.92c.29.6.5 1.2.76 1.84Zm-4.82-9.54c-.29.56-.62.3-1 .12l-3.93-2a1 1 0 0 0-1.44.25 7.38 7.38 0 0 0-.67 1.35c0 .11-.06.27-.15.33a1.27 1.27 0 0 0 .15 1.78.63.63 0 0 1 .28.3 5.73 5.73 0 0 0 1.35 2 2.35 2.35 0 0 0 3.49 0 5.48 5.48 0 0 0 1.35-2 .74.74 0 0 1 .19-.31 1.32 1.32 0 0 0 .38-1.82Zm-6.69 5.72c.23.75 1.74 1.55 3.06 1.55s2.81-.79 3.06-1.57l-.86-.95a3 3 0 0 1-4.37 0Zm-92.56 3.82H257.8a4.27 4.27 0 0 1 3-3.69.78.78 0 0 0 .61-.72 18.22 18.22 0 0 0 .22-2.65c0-1-.18-2.06-.18-3.09a6.61 6.61 0 0 1 .67-2.92 3.81 3.81 0 0 1 3.74-2.3 11.57 11.57 0 0 1 1.32 0 3.72 3.72 0 0 1 3 2.29 8.46 8.46 0 0 1 .57 4.82 9.64 9.64 0 0 0 0 3.43 3.26 3.26 0 0 0 .29.79.65.65 0 0 0 .39.28 3.35 3.35 0 0 1 2.4 1.92c.29.6.5 1.2.76 1.84Zm-4.82-9.54c-.29.56-.62.3-1 .12l-3.93-2a1 1 0 0 0-1.44.25 7.38 7.38 0 0 0-.67 1.35c0 .11-.06.27-.15.33a1.27 1.27 0 0 0 .15 1.78.63.63 0 0 1 .28.3 5.73 5.73 0 0 0 1.35 2 2.35 2.35 0 0 0 3.49 0 5.6 5.6 0 0 0 1.35-2 .74.74 0 0 1 .19-.31 1.32 1.32 0 0 0 .38-1.82Zm-6.7 5.72c.24.75 1.75 1.55 3.07 1.55s2.81-.79 3.06-1.57l-.86-.95a3 3 0 0 1-4.37 0ZM124.38 176l-.13-.09-6.22-3a.2.2 0 0 1-.13-.21v-7.19a.2.2 0 0 1 .13-.21c1.87-.84 3.73-1.7 5.59-2.55l1.08-.5.13.07 6.39 2.93a.19.19 0 0 1 .14.2v7.18a.19.19 0 0 1-.14.21l-5.67 2.59Zm-5.9-10.35v6.75a.16.16 0 0 0 .1.16l5.8 2.75h.11v-6.84a.18.18 0 0 0-.13-.19l-5.74-2.61Zm6.6 9.48h.09l5.53-2.61c.09 0 .09-.1.09-.18v-6.73l-.15.07-1.55.76a.17.17 0 0 0-.11.18v3a.17.17 0 0 1-.1.17l-1.57.86-.13.06v-3.29l-.15.06-1.82.9a.18.18 0 0 0-.13.2v6.61Zm-5.94-9.75 5.44 2.46a.19.19 0 0 0 .13 0l1.9-.9-5.26-2.47a.13.13 0 0 0-.12 0Zm11 0a.45.45 0 0 0-.12-.06l-5.16-2.36a.34.34 0 0 0-.2 0l-1.35.62a.31.31 0 0 0-.1.05l5.41 2.38h.12ZM141.71 176a.6.6 0 0 0-.13-.09l-6.21-3a.2.2 0 0 1-.14-.21v-7.19a.2.2 0 0 1 .14-.21l5.59-2.55 1.07-.5h.06l.12.07 6.4 2.93a.18.18 0 0 1 .13.2v7.18a.19.19 0 0 1-.14.21l-5.66 2.59Zm-5.9-10.35a.57.57 0 0 0 0 .12v6.63a.15.15 0 0 0 .1.16l5.79 2.75h.12v-6.84a.19.19 0 0 0-.13-.19l-5.74-2.61Zm6.59 9.48h.1l5.52-2.61a.16.16 0 0 0 .1-.18v-6.73l-.15.07-1.55.76a.16.16 0 0 0-.12.18v3a.16.16 0 0 1-.11.17l-1.56.86-.13.06v-3.29l-.15.06-1.83.9a.19.19 0 0 0-.12.2v6.12Zm-5.93-9.75h.05l5.44 2.46a.17.17 0 0 0 .12 0c.64-.29 1.27-.6 1.91-.9h-.05l-5.26-2.47a.15.15 0 0 0-.13 0Zm10.94 0-.11-.06-5.17-2.36a.34.34 0 0 0-.2 0l-1.35.62-.1.05 5.42 2.38h.1ZM159 176l-.13-.09-6.22-3a.2.2 0 0 1-.13-.21v-7.19a.2.2 0 0 1 .13-.21c1.87-.84 3.73-1.7 5.59-2.55l1.08-.5.13.07 6.39 2.93a.19.19 0 0 1 .14.2v7.18a.19.19 0 0 1-.14.21l-5.67 2.59Zm-5.9-10.35v6.75a.16.16 0 0 0 .1.16l5.8 2.75h.11v-6.84a.18.18 0 0 0-.13-.19l-5.74-2.61Zm6.6 9.48h.09l5.53-2.61c.09 0 .09-.1.09-.18v-6.73l-.15.07-1.55.76a.17.17 0 0 0-.11.18v3a.17.17 0 0 1-.1.17l-1.57.86-.13.06v-3.29l-.14.06-1.83.9a.18.18 0 0 0-.13.2v6.61Zm-5.93-9.75 5.44 2.46a.19.19 0 0 0 .13 0l1.9-.9h-.05l-5.19-2.48a.13.13 0 0 0-.12 0Zm10.94 0a.45.45 0 0 0-.12-.06l-5.16-2.36a.34.34 0 0 0-.2 0l-1.35.62a.31.31 0 0 0-.1.05l5.42 2.38h.11ZM176.36 176a.6.6 0 0 0-.13-.09l-6.21-3a.2.2 0 0 1-.13-.21v-7.19a.2.2 0 0 1 .13-.21l5.59-2.55 1.07-.5h.06l.12.07 6.4 2.93a.18.18 0 0 1 .13.2v7.18a.19.19 0 0 1-.13.21l-5.67 2.59Zm-5.9-10.35a.57.57 0 0 0 0 .12v6.63a.15.15 0 0 0 .1.16l5.79 2.75h.12v-6.84a.19.19 0 0 0-.13-.19l-5.74-2.61Zm6.59 9.48h.1l5.52-2.61a.16.16 0 0 0 .1-.18v-6.73l-.15.07-1.55.76a.16.16 0 0 0-.12.18v3a.16.16 0 0 1-.11.17l-1.56.86-.13.06v-3.29l-.15.06-1.83.9a.19.19 0 0 0-.12.2v6.12Zm-5.93-9.75 5.44 2.46a.17.17 0 0 0 .12 0c.64-.29 1.27-.6 1.91-.9l-5.26-2.47a.15.15 0 0 0-.13 0Zm10.94 0-.11-.06-5.17-2.36a.34.34 0 0 0-.2 0l-1.35.62-.1.05 5.41 2.38h.11ZM193.68 176l-.13-.09-6.22-3a.2.2 0 0 1-.13-.21v-7.19a.2.2 0 0 1 .13-.21c1.87-.84 3.73-1.7 5.59-2.55l1.08-.5.13.07 6.39 2.93a.19.19 0 0 1 .14.2v7.18a.19.19 0 0 1-.14.21l-5.67 2.59Zm-5.9-10.35v6.75a.16.16 0 0 0 .1.16l5.8 2.75h.11v-6.84c0-.11 0-.15-.14-.19l-5.74-2.61Zm6.6 9.48h.1l5.52-2.61c.09 0 .09-.1.09-.18v-6.73l-.14.07-1.56.76a.17.17 0 0 0-.11.18v3a.17.17 0 0 1-.1.17l-1.57.86-.13.06v-3.29l-.14.06-1.83.9a.18.18 0 0 0-.13.2v6.61Zm-5.93-9.75 5.44 2.46a.19.19 0 0 0 .13 0l1.9-.9h-.05l-5.26-2.47a.13.13 0 0 0-.12 0Zm10.94 0a.45.45 0 0 0-.12-.06l-5.16-2.36a.34.34 0 0 0-.2 0l-1.35.62a.31.31 0 0 0-.1.05l5.44 2.37h.1ZM337.56 176a.6.6 0 0 0-.13-.09l-6.21-3a.2.2 0 0 1-.13-.21v-7.19a.2.2 0 0 1 .13-.21l5.59-2.55 1.08-.5h.05l.13.07 6.39 2.93a.18.18 0 0 1 .13.2v7.18a.19.19 0 0 1-.13.21l-5.67 2.59Zm-5.9-10.35v6.75a.16.16 0 0 0 .1.16l5.8 2.75h.11v-6.84a.19.19 0 0 0-.13-.19l-5.74-2.61Zm6.6 9.48h.09c1.84-.87 3.68-1.75 5.53-2.61.09 0 .09-.1.09-.18v-6.73l-.15.07-1.55.76a.17.17 0 0 0-.12.18v3a.16.16 0 0 1-.11.17l-1.56.86-.13.06v-3.29l-.15.06-1.83.9a.19.19 0 0 0-.12.2v6.61Zm-5.94-9.75h.05l5.44 2.46a.19.19 0 0 0 .13 0l1.9-.9-5.26-2.47a.13.13 0 0 0-.12 0Zm10.95 0-.12-.06-5.15-2.41a.31.31 0 0 0-.19 0l-1.36.62-.09.05 5.41 2.38h.11ZM354.89 176a.6.6 0 0 0-.13-.09l-6.22-3a.2.2 0 0 1-.13-.21v-7.19a.2.2 0 0 1 .13-.21c1.87-.84 3.73-1.7 5.6-2.55l1.07-.5h.06l.12.07 6.39 2.93a.19.19 0 0 1 .14.2v7.18a.19.19 0 0 1-.14.21l-5.66 2.59ZM349 165.65a.57.57 0 0 0 0 .12v6.63a.15.15 0 0 0 .1.16l5.79 2.75h.11a.38.38 0 0 0 0-.1v-6.74a.19.19 0 0 0-.13-.19l-5.74-2.61Zm6.59 9.48h.1l5.52-2.61a.16.16 0 0 0 .1-.18v-6.73l-.14.07-1.56.76a.17.17 0 0 0-.11.18v3a.16.16 0 0 1-.1.17l-1.56.86-.14.06v-3.29l-.14.06-1.83.9a.2.2 0 0 0-.13.2v6.12Zm-5.93-9.75 5.45 2.46a.17.17 0 0 0 .12 0l1.9-.9h-.05l-5.26-2.47a.13.13 0 0 0-.12 0Zm10.94 0-.12-.06-5.16-2.36a.34.34 0 0 0-.2 0l-1.35.62-.1.05 5.43 2.37h.11ZM372.21 176a.6.6 0 0 0-.13-.09l-6.21-3a.2.2 0 0 1-.13-.21v-7.19a.2.2 0 0 1 .13-.21l5.59-2.55 1.08-.5h.05l.13.07 6.39 2.93a.18.18 0 0 1 .13.2v7.18a.2.2 0 0 1-.14.21l-5.67 2.59Zm-5.9-10.35v6.75a.16.16 0 0 0 .1.16l5.8 2.75h.11v-6.84a.19.19 0 0 0-.13-.19l-5.74-2.61Zm6.6 9.48h.09c1.84-.87 3.68-1.75 5.53-2.61.09 0 .09-.1.09-.18v-6.73l-.15.07-1.55.76a.17.17 0 0 0-.12.18v3a.16.16 0 0 1-.11.17l-1.56.86-.13.06v-3.29l-.15.06-1.83.9a.19.19 0 0 0-.12.2v6.61Zm-5.91-9.75 5.44 2.46a.19.19 0 0 0 .13 0l1.9-.9h-.05l-5.26-2.47a.13.13 0 0 0-.12 0Zm10.95 0-.12-.06-5.17-2.36a.31.31 0 0 0-.19 0l-1.36.62-.09.05 5.41 2.38h.11ZM389.54 176a.6.6 0 0 0-.13-.09l-6.21-3a.2.2 0 0 1-.14-.21v-7.19a.19.19 0 0 1 .14-.21l5.59-2.55 1.07-.5h.06l.12.07 6.39 2.93a.19.19 0 0 1 .14.2v7.18a.19.19 0 0 1-.14.21l-5.66 2.59Zm-5.9-10.35a.57.57 0 0 0 0 .12v6.63a.15.15 0 0 0 .1.16l5.79 2.75h.11a.38.38 0 0 0 0-.1v-6.74a.19.19 0 0 0-.13-.19l-5.74-2.61Zm6.59 9.48h.1l5.52-2.61a.16.16 0 0 0 .1-.18v-6.73l-.15.07-1.56.76a.17.17 0 0 0-.11.18v3a.16.16 0 0 1-.1.17l-1.56.86-.14.06v-3.29l-.14.06-1.83.9a.2.2 0 0 0-.13.2v6.12Zm-5.93-9.75h.05l5.44 2.46a.17.17 0 0 0 .12 0l1.9-.9h-.05l-5.26-2.47a.13.13 0 0 0-.12 0Zm10.94 0a.45.45 0 0 0-.12-.06l-5.12-2.41a.34.34 0 0 0-.2 0l-1.35.62-.1.05 5.42 2.38h.11ZM406.86 176a1.1 1.1 0 0 0-.14-.09l-6.21-3a.2.2 0 0 1-.13-.21v-7.19a.2.2 0 0 1 .13-.21c1.87-.84 3.73-1.7 5.59-2.55l1.08-.5.13.07 6.39 2.93a.19.19 0 0 1 .14.2v7.18a.19.19 0 0 1-.14.21l-5.67 2.59ZM401 165.65v6.75a.16.16 0 0 0 .1.16l5.8 2.75h.11v-6.84a.18.18 0 0 0-.13-.19l-5.74-2.61Zm6.6 9.48h.09c1.84-.87 3.68-1.75 5.53-2.61.09 0 .09-.1.09-.18v-6.73l-.15.07-1.55.76a.16.16 0 0 0-.11.18v3a.17.17 0 0 1-.1.17l-1.57.86-.13.06v-3.29l-.15.06-1.83.9a.19.19 0 0 0-.12.2v6.61Zm-5.94-9.75h.05l5.44 2.46a.19.19 0 0 0 .13 0l1.9-.9h-.05l-5.26-2.47a.13.13 0 0 0-.12 0Zm10.95 0-.12-.06-5.17-2.36a.31.31 0 0 0-.19 0l-1.36.62-.09.05 5.41 2.38h.11ZM231 176a1.1 1.1 0 0 0-.14-.09l-6.21-3a.2.2 0 0 1-.13-.21v-7.19a.2.2 0 0 1 .13-.21c1.87-.84 3.73-1.7 5.59-2.55l1.08-.5.13.07 6.39 2.93a.17.17 0 0 1 .13.2v7.18a.19.19 0 0 1-.14.21l-5.67 2.59Zm-5.9-10.35v6.75a.16.16 0 0 0 .1.16l5.8 2.75h.11v-6.84a.18.18 0 0 0-.13-.19l-5.74-2.61Zm6.6 9.48h.09c1.84-.87 3.68-1.75 5.53-2.61.09 0 .09-.1.09-.18v-6.73l-.15.07-1.55.76a.16.16 0 0 0-.11.18v3a.17.17 0 0 1-.1.17l-1.57.86-.13.06v-3.29l-.15.06-1.83.9a.19.19 0 0 0-.12.2v6.61Zm-5.94-9.75h.05l5.44 2.46a.19.19 0 0 0 .13 0l1.9-.9h-.05l-5.26-2.47a.13.13 0 0 0-.12 0Zm11 0-.12-.06-5.17-2.36a.31.31 0 0 0-.19 0l-1.36.62-.09.05 5.41 2.38h.11ZM248.3 176a.6.6 0 0 0-.13-.09l-6.21-3a.2.2 0 0 1-.14-.21v-7.19a.2.2 0 0 1 .14-.21l5.59-2.55 1.07-.5h.06l.12.07 6.4 2.93a.19.19 0 0 1 .13.2v7.18a.19.19 0 0 1-.14.21l-5.66 2.59Zm-5.9-10.35a.57.57 0 0 0 0 .12v6.63a.15.15 0 0 0 .1.16l5.79 2.75h.11a.38.38 0 0 0 0-.1v-6.74a.19.19 0 0 0-.13-.19l-5.74-2.61Zm6.59 9.48h.1l5.52-2.61a.16.16 0 0 0 .1-.18v-6.73l-.15.07-1.55.76a.16.16 0 0 0-.12.18v3a.16.16 0 0 1-.1.17l-1.56.86-.14.06v-3.29l-.14.06-1.83.9a.2.2 0 0 0-.13.2v6.12Zm-5.93-9.75h.05l5.44 2.46a.17.17 0 0 0 .12 0l1.9-.9-5.26-2.47a.13.13 0 0 0-.12 0Zm10.94 0a.45.45 0 0 0-.12-.06l-5.16-2.36a.34.34 0 0 0-.2 0l-1.35.62-.1.05 5.42 2.38h.11ZM265.62 176l-.13-.09-6.22-3a.2.2 0 0 1-.13-.21v-7.19a.2.2 0 0 1 .13-.21c1.87-.84 3.73-1.7 5.59-2.55l1.08-.5h.06l.13.07 6.39 2.93a.19.19 0 0 1 .14.2v7.18a.19.19 0 0 1-.14.21l-5.67 2.59Zm-5.9-10.35v6.75a.16.16 0 0 0 .1.16l5.8 2.75h.11v-6.84a.18.18 0 0 0-.13-.19l-5.74-2.61Zm6.6 9.48h.09l5.53-2.61c.09 0 .09-.1.09-.18v-6.73l-.15.07-1.55.76a.17.17 0 0 0-.11.18v3a.17.17 0 0 1-.1.17l-1.57.86-.13.06v-3.29l-.15.06-1.82.9a.18.18 0 0 0-.13.2v6.61Zm-5.94-9.75h.05l5.44 2.46a.19.19 0 0 0 .13 0l1.9-.9-5.26-2.47a.13.13 0 0 0-.12 0Zm10.95 0a.45.45 0 0 0-.12-.06l-5.21-2.41a.31.31 0 0 0-.19 0l-1.36.62-.09.05 5.41 2.38h.11ZM283 176a.6.6 0 0 0-.13-.09l-6.21-3a.2.2 0 0 1-.14-.21v-7.19a.2.2 0 0 1 .14-.21l5.59-2.55 1.07-.5h.06l.12.07 6.4 2.93a.18.18 0 0 1 .13.2v7.18a.19.19 0 0 1-.14.21l-5.66 2.59Zm-5.9-10.35a.57.57 0 0 0 0 .12v6.63a.15.15 0 0 0 .1.16l5.79 2.75h.11a.38.38 0 0 0 0-.1v-6.74a.19.19 0 0 0-.13-.19l-5.74-2.61Zm6.59 9.48h.1l5.52-2.61a.16.16 0 0 0 .1-.18v-6.73l-.15.07-1.55.76a.16.16 0 0 0-.12.18v3a.15.15 0 0 1-.1.17l-1.56.86-.14.06v-3.29l-.14.06-1.83.9a.2.2 0 0 0-.13.2v6.12Zm-5.93-9.75h.05l5.44 2.46a.17.17 0 0 0 .12 0c.64-.29 1.27-.6 1.9-.9l-5.26-2.47a.15.15 0 0 0-.13 0Zm10.94 0a.45.45 0 0 0-.12-.06l-5.16-2.36a.34.34 0 0 0-.2 0l-1.35.62-.1.05 5.42 2.38h.11ZM300.27 176l-.13-.09-6.22-3a.2.2 0 0 1-.13-.21v-7.19a.2.2 0 0 1 .13-.21c1.87-.84 3.73-1.7 5.59-2.55l1.08-.5h.05l.13.07 6.39 2.93a.19.19 0 0 1 .14.2v7.18a.19.19 0 0 1-.14.21l-5.67 2.59Zm-5.9-10.35v6.75a.16.16 0 0 0 .1.16l5.8 2.75h.11v-6.84a.18.18 0 0 0-.13-.19l-5.74-2.61Zm6.6 9.48h.09l5.53-2.61c.09 0 .09-.1.09-.18v-6.73l-.15.07-1.55.76a.17.17 0 0 0-.11.18v3a.17.17 0 0 1-.1.17l-1.57.86-.13.06v-3.29l-.15.06-1.82.9a.18.18 0 0 0-.13.2v6.61Zm-5.97-9.75h.05l5.44 2.46a.19.19 0 0 0 .13 0l1.9-.9h-.05l-5.26-2.47a.13.13 0 0 0-.12 0Zm11 0-.12-.06-5.17-2.36a.31.31 0 0 0-.19 0l-1.35.62-.1.05 5.41 2.38h.12Z" style="fill:#f7eec9"/><path transform="rotate(-32.65 580.925 475.689)" style="fill:#f9c7e4" d="M501.22 469.18h159.36v13H501.22z"/><path style="fill:#f9c7e4" d="m523.72 486.14-6.68 30.46 30.46 6.65-15.75 10.1-30.45-6.67 6.67-30.44 15.75-10.1z"/><path transform="rotate(-180 457.38 437.965)" style="fill:#07448e" d="M208.35 424.35H706.4v27.23H208.35z"/><path transform="rotate(-42.86 709.096 252.063)" style="fill:#f9c7e4" d="M655.57 249.64h107.08v4.83H655.57z"/><path style="fill:#f9c7e4" d="m682.5 287.94-11.59-.43.44-11.59-5.1 4.74-.43 11.58 11.58.43 5.1-4.73z"/><path transform="rotate(-.13 660.81 260.785)" style="fill:#f9c7e4" d="M641.91 218.06h4.83v69.47h-4.83z"/><path style="fill:#f9c7e4" d="m652.58 277.88-8.17 8.22-8.21-8.18.01 6.96 8.21 8.17 8.18-8.21-.02-6.96z"/><path transform="rotate(-46.71 579.92 253.16)" style="fill:#f9c7e4" d="M577.54 198.45h4.83v109.42h-4.83z"/><path style="fill:#f9c7e4" d="m618.39 278.11.35 11.59-11.59.34 5.07 4.77 11.58-.34-.34-11.59-5.07-4.77z"/><path transform="rotate(-180 651.87 218.06)" style="fill:#07448e" d="M519.87 213.6h264v8.92h-264z"/><path d="m736.43 341.74-15.39-7a.53.53 0 0 1-.37-.56v-19.49a.52.52 0 0 1 .37-.56l17.36-8a2.27 2.27 0 0 0 .34-.19h.15c1 .46 1.94.93 2.92 1.37l15.19 6.94a.52.52 0 0 1 .36.57v19.52a.54.54 0 0 1-.36.57L740.12 343a2.74 2.74 0 0 0-.36.23h-.07c-1.09-.48-2.17-1-3.26-1.49Zm18.93-26.42-15.59 7.1c-.22.11-.36.21-.36.5v18.59c.11-.05.21-.07.3-.12l15.74-7.47a.41.41 0 0 0 .27-.44v-18.32Zm-17.56 24.25v-16.61a.52.52 0 0 0-.34-.55c-1.66-.8-3.32-1.62-5-2.43l-.4-.18v8.94l-.35-.17-4.25-2.32a.46.46 0 0 1-.28-.48v-8.09a.47.47 0 0 0-.31-.49l-4.22-2.06-.4-.18v18.26c0 .22 0 .38.26.49l15 7.09.26.11Zm10.46-27.65a.5.5 0 0 0-.34 0l-14.28 6.71a.76.76 0 0 0-.13.1l5.16 2.46a.5.5 0 0 0 .34 0l14.78-6.68a.51.51 0 0 0 .12-.09ZM728 316.07a.39.39 0 0 0 .3 0l14.7-6.48h.06l-.27-.15c-1.22-.57-2.44-1.13-3.67-1.67a.77.77 0 0 0-.54 0l-14 6.4a3.5 3.5 0 0 0-.32.17Zm-38.62 25.67-15.38-7a.52.52 0 0 1-.38-.56v-19.49a.51.51 0 0 1 .36-.56l17.36-8a2.27 2.27 0 0 0 .34-.19h.15c1 .46 1.94.93 2.92 1.37l15.18 6.94a.52.52 0 0 1 .36.57v19.52a.53.53 0 0 1-.36.57L693.07 343a2.12 2.12 0 0 0-.35.23h-.08c-1.08-.48-2.17-1-3.26-1.49Zm18.93-26.42-15.58 7.1c-.23.11-.36.21-.36.5v18.59c.11-.05.21-.07.3-.12l15.74-7.47a.41.41 0 0 0 .27-.44v-18.32Zm-17.55 24.25v-16.61a.52.52 0 0 0-.34-.55c-1.66-.8-3.31-1.62-5-2.43l-.39-.18v8.94l-.36-.17-4.25-2.32a.46.46 0 0 1-.28-.48v-8.09a.47.47 0 0 0-.31-.49l-4.22-2.06-.4-.18v18.26c0 .22 0 .38.25.49l15 7.09.27.11Zm10.45-27.65a.47.47 0 0 0-.33 0l-14.29 6.71a.76.76 0 0 0-.13.1l5.16 2.46a.5.5 0 0 0 .34 0l14.78-6.68a.77.77 0 0 0 .13-.09c-1.87-.85-3.78-1.68-5.66-2.5Zm-20.31 4.15a.42.42 0 0 0 .31 0l14.7-6.47h.06l-.27-.15c-1.22-.57-2.44-1.13-3.67-1.67a.75.75 0 0 0-.53 0l-14 6.4a3.5 3.5 0 0 0-.32.17Zm-38.56 25.67-15.39-7a.53.53 0 0 1-.37-.56v-19.49a.52.52 0 0 1 .36-.56l17.36-8a3 3 0 0 0 .35-.19h.14c1 .46 2 .93 2.93 1.37q7.57 3.48 15.18 6.94a.53.53 0 0 1 .36.57v19.52a.54.54 0 0 1-.36.57L646 343a3.5 3.5 0 0 0-.35.23h-.08c-1.06-.48-2.14-1-3.23-1.49Zm18.92-26.42-15.58 7.1c-.23.11-.36.21-.36.5v18.59a3.11 3.11 0 0 0 .3-.12l15.74-7.47a.41.41 0 0 0 .28-.44v-18.32Zm-17.55 24.25v-16.61a.52.52 0 0 0-.34-.55c-1.66-.8-3.31-1.62-5-2.43l-.39-.18v8.94l-.36-.17-4.25-2.32a.46.46 0 0 1-.28-.48v-8.09a.46.46 0 0 0-.31-.49l-4.22-2.06c-.11-.06-.23-.1-.4-.18v18.26c0 .22 0 .38.26.49l15 7.09.26.11Zm10.45-27.65a.47.47 0 0 0-.33 0l-14.28 6.71a.53.53 0 0 0-.14.1l5.17 2.46a.47.47 0 0 0 .33 0l14.78-6.68a.77.77 0 0 0 .13-.09c-1.91-.85-3.82-1.68-5.66-2.5Zm-20.3 4.15a.39.39 0 0 0 .3 0l14.7-6.47h.06l-.26-.15c-1.23-.57-2.45-1.13-3.68-1.67a.75.75 0 0 0-.53 0l-14 6.4-.31.17Zm-38.57 25.67-15.39-7a.53.53 0 0 1-.37-.56v-19.49a.52.52 0 0 1 .37-.56l17.35-8a3 3 0 0 0 .35-.19h.15c1 .46 1.94.93 2.92 1.37l15.18 6.94a.53.53 0 0 1 .36.57v19.52a.54.54 0 0 1-.36.57L599 343a3.5 3.5 0 0 0-.35.23h-.07c-1.12-.48-2.2-1-3.29-1.49Zm18.93-26.42-15.59 7.1c-.23.11-.36.21-.36.5v18.59c.12-.05.22-.07.31-.12l15.73-7.47a.41.41 0 0 0 .28-.44v-18.32Zm-17.56 24.25v-16.61a.52.52 0 0 0-.34-.55c-1.66-.8-3.31-1.62-5-2.43l-.4-.18v8.94l-.36-.17-4.24-2.32a.47.47 0 0 1-.29-.48v-8.09a.46.46 0 0 0-.31-.49l-4.22-2.06c-.11-.06-.23-.1-.4-.18v18.26c0 .22 0 .38.26.49l15 7.09.26.11Zm10.46-27.65a.5.5 0 0 0-.34 0l-14.28 6.71-.14.1 5.17 2.46a.5.5 0 0 0 .34 0l14.77-6.68s.06 0 .13-.09Zm-20.31 4.15a.39.39 0 0 0 .3 0l14.71-6.47a1.74 1.74 0 0 0-.26-.15c-1.22-.57-2.44-1.13-3.67-1.67a.77.77 0 0 0-.54 0l-14 6.4-.31.17Zm-38.57 25.67-15.39-7a.53.53 0 0 1-.37-.56v-19.49a.52.52 0 0 1 .37-.56l17.36-8a2.27 2.27 0 0 0 .34-.19h.15c1 .46 1.94.93 2.92 1.37l15.18 6.94a.53.53 0 0 1 .36.57v19.52a.54.54 0 0 1-.36.57L551.93 343a2.74 2.74 0 0 0-.36.23h-.07c-1.09-.48-2.17-1-3.26-1.49Zm18.93-26.42-15.59 7.1c-.22.11-.36.21-.36.5v18.59c.11-.05.21-.07.3-.12l15.74-7.47a.41.41 0 0 0 .27-.44v-18.32Zm-17.56 24.25v-16.61a.52.52 0 0 0-.34-.55c-1.66-.8-3.32-1.62-5-2.43l-.4-.18v8.94l-.35-.17-4.25-2.32a.45.45 0 0 1-.28-.48v-8.09a.47.47 0 0 0-.32-.49l-4.21-2.06-.4-.18v18.26c0 .22 0 .38.26.49l15 7.09.26.11Zm10.46-27.65a.5.5 0 0 0-.34 0l-14.28 6.71a.5.5 0 0 0-.13.1l5.16 2.46a.5.5 0 0 0 .34 0l14.78-6.68a.51.51 0 0 0 .12-.09Zm-20.31 4.15a.39.39 0 0 0 .3 0l14.71-6.47h.05a1.74 1.74 0 0 0-.26-.15c-1.22-.57-2.44-1.13-3.67-1.67a.77.77 0 0 0-.54 0l-14 6.4a3.5 3.5 0 0 0-.32.17ZM626.82 429a9.27 9.27 0 0 1 6.67-5.33 1.74 1.74 0 0 0 1.07-.79 8.64 8.64 0 0 0 .82-2.19 26.77 26.77 0 0 0 0-9.53 23.5 23.5 0 0 1 1.62-13.4 10.35 10.35 0 0 1 8.34-6.38 31.66 31.66 0 0 1 3.65-.1c4.85-.11 8.28 2.1 10.4 6.41a18.19 18.19 0 0 1 1.87 8.11c0 2.86-.49 5.72-.5 8.59a53.6 53.6 0 0 0 .61 7.37 2.18 2.18 0 0 0 1.71 2c4.27 1 8.11 5.78 8.31 10.24h-46.68c.74-1.76 1.29-3.43 2.11-5Zm12.26-16.54a1.81 1.81 0 0 1 .52.86 15.56 15.56 0 0 0 3.76 5.66c3.1 2.84 6.64 2.82 9.71-.06a16.14 16.14 0 0 0 3.75-5.67 1.89 1.89 0 0 1 .78-.85c1.44-.84 1.69-3.92.4-4.94-.23-.19-.26-.62-.4-.92a21.1 21.1 0 0 0-1.85-3.75 2.94 2.94 0 0 0-4-.71l-10.92 5.62c-.94.49-1.86 1.23-2.67-.33a3.64 3.64 0 0 0 .92 5.1Zm15.19 8.13c-4.5 3.87-8.36 3.27-12.16 0l-2.4 2.65c.7 2.14 4.87 4.35 8.52 4.35s7.87-2.22 8.52-4.33Zm86.33-206.22a3.3 3.3 0 0 1 2.4-1.91.65.65 0 0 0 .38-.29 2.69 2.69 0 0 0 .3-.79 9.59 9.59 0 0 0 0-3.42 8.46 8.46 0 0 1 .58-4.82 3.72 3.72 0 0 1 3-2.3 11.41 11.41 0 0 1 1.31 0 3.78 3.78 0 0 1 3.74 2.3A6.47 6.47 0 0 1 753 206c0 1-.17 2.06-.18 3.08a19.74 19.74 0 0 0 .22 2.66.79.79 0 0 0 .62.72 4.29 4.29 0 0 1 3 3.68h-16.8c.25-.61.45-1.21.74-1.77Zm4.41-6a.74.74 0 0 1 .19.31 5.48 5.48 0 0 0 1.35 2 2.36 2.36 0 0 0 3.49 0 5.87 5.87 0 0 0 1.35-2 .7.7 0 0 1 .28-.31 1.25 1.25 0 0 0 .14-1.77c-.08-.07-.09-.22-.14-.33A7.38 7.38 0 0 0 751 205a1.05 1.05 0 0 0-1.44-.26l-3.93 2c-.34.18-.67.45-1-.12a1.3 1.3 0 0 0 .37 1.8Zm5.46 2.93a3 3 0 0 1-4.37 0l-.87 1c.26.77 1.76 1.57 3.07 1.57s2.83-.8 3.06-1.56Zm-218.01 3.07a3.3 3.3 0 0 1 2.4-1.91.65.65 0 0 0 .38-.29 3 3 0 0 0 .3-.79 9.59 9.59 0 0 0 0-3.42 8.46 8.46 0 0 1 .58-4.82 3.72 3.72 0 0 1 3-2.3 11.41 11.41 0 0 1 1.31 0 3.78 3.78 0 0 1 3.74 2.3 6.61 6.61 0 0 1 .67 2.92c0 1-.17 2.06-.18 3.08a19.74 19.74 0 0 0 .22 2.66.79.79 0 0 0 .62.72 4.29 4.29 0 0 1 3 3.68h-16.8c.3-.67.47-1.27.76-1.83Zm4.41-6a.74.74 0 0 1 .19.31 5.48 5.48 0 0 0 1.35 2 2.36 2.36 0 0 0 3.49 0 5.7 5.7 0 0 0 1.34-2 .78.78 0 0 1 .29-.31 1.25 1.25 0 0 0 .14-1.77c-.08-.07-.09-.22-.14-.33a7.38 7.38 0 0 0-.67-1.35 1.05 1.05 0 0 0-1.44-.26l-3.93 2c-.34.18-.67.45-1-.12a1.3 1.3 0 0 0 .38 1.88Zm5.46 2.93a3 3 0 0 1-4.37 0l-.87 1c.25.77 1.76 1.57 3.07 1.57s2.83-.8 3.06-1.56Zm94.2 3.07a3.3 3.3 0 0 1 2.4-1.91.65.65 0 0 0 .38-.29 3 3 0 0 0 .3-.79 9.59 9.59 0 0 0 0-3.42 8.46 8.46 0 0 1 .58-4.82 3.72 3.72 0 0 1 3-2.3 11.41 11.41 0 0 1 1.31 0 3.78 3.78 0 0 1 3.74 2.3 6.61 6.61 0 0 1 .67 2.92c0 1-.17 2.06-.18 3.08a19.74 19.74 0 0 0 .22 2.66.79.79 0 0 0 .62.72 4.29 4.29 0 0 1 3 3.68h-16.8c.23-.67.47-1.27.76-1.83Zm4.41-6a.74.74 0 0 1 .19.31 5.48 5.48 0 0 0 1.35 2 2.36 2.36 0 0 0 3.49 0 5.7 5.7 0 0 0 1.34-2 .78.78 0 0 1 .29-.31 1.25 1.25 0 0 0 .14-1.77c-.08-.07-.09-.22-.14-.33a7.38 7.38 0 0 0-.67-1.35 1.05 1.05 0 0 0-1.44-.26l-3.93 2c-.34.18-.67.45-1-.12a1.3 1.3 0 0 0 .38 1.88Zm5.46 2.93a3 3 0 0 1-4.37 0l-.87 1c.26.77 1.76 1.57 3.07 1.57s2.83-.8 3.06-1.56Zm138.38-38.5-5.66-2.59a.19.19 0 0 1-.14-.2v-7.18a.2.2 0 0 1 .14-.21l6.39-2.93.12-.07h.06l1.07.51 5.59 2.55a.2.2 0 0 1 .14.21v7.19a.21.21 0 0 1-.14.21l-6.21 3a.57.57 0 0 0-.13.08Zm7-9.73-5.78 2.62c-.08 0-.13.08-.13.18v6.75a.41.41 0 0 0 0 .1l.11-.05 5.79-2.75a.14.14 0 0 0 .1-.16v-6.62a.53.53 0 0 0 0-.12Zm-6.49 8.93v-6.11a.21.21 0 0 0-.13-.21l-1.83-.89-.14-.07V168l-.14-.07-1.56-.85a.17.17 0 0 1-.1-.18v-3a.17.17 0 0 0-.12-.18l-1.55-.76-.15-.06v6.72a.16.16 0 0 0 .1.18l5.52 2.61h.1Zm3.85-10.18a.16.16 0 0 0-.12 0l-5.26 2.46 1.9.91a.17.17 0 0 0 .12 0l5.44-2.45h.05Zm-7.48 1.53h.11l5.42-2.39-.1-.06-1.35-.61a.23.23 0 0 0-.2 0l-5.16 2.35-.12.06Zm-14.2 14.72-5.67-2.58a.2.2 0 0 1-.14-.21v-7.18a.2.2 0 0 1 .14-.21l6.39-2.93.13-.07h.05l1.08.51L775 168a.2.2 0 0 1 .13.21v7.19a.2.2 0 0 1-.13.21l-6.22 3-.13.08Zm7-9.73-5.77 2.66c-.09 0-.13.08-.13.18V178l.11-.05 5.8-2.75a.15.15 0 0 0 .1-.16v-6.74Zm-6.46 8.93v-6.11a.18.18 0 0 0-.13-.2l-1.82-.9-.15-.07v3.3l-.13-.07-1.57-.85a.18.18 0 0 1-.1-.18v-3a.17.17 0 0 0-.1-.19l-1.55-.76-.15-.06v6.72c0 .08 0 .14.09.18l5.53 2.61h.09Zm3.85-10.18a.17.17 0 0 0-.12 0l-5.26 2.46 1.9.91a.15.15 0 0 0 .13 0l5.44-2.45Zm-7.47 1.53h.11l5.41-2.39-.09-.06-1.36-.61a.21.21 0 0 0-.19 0l-5.17 2.35-.09.09Zm-14.25 9.45-5.66-2.58a.2.2 0 0 1-.14-.21v-7.18a.21.21 0 0 1 .13-.21l6.4-2.93.12-.07h.02l1.07.51 5.63 2.6a.2.2 0 0 1 .14.21v7.19a.2.2 0 0 1-.14.21l-6.21 3a.57.57 0 0 0-.13.08Zm7-9.73-5.77 2.66c-.08 0-.13.08-.13.18v6.75a.41.41 0 0 0 0 .1l.11-.05 5.79-2.75c.08 0 .1-.07.1-.16v-6.62a.53.53 0 0 0 0-.12Zm-6.46 8.93v-6.11a.19.19 0 0 0-.13-.2l-1.83-.9-.14-.07v3.3l-.14-.07-1.56-.85a.16.16 0 0 1-.1-.18v-3a.17.17 0 0 0-.12-.18l-1.55-.76-.15-.06v6.72a.16.16 0 0 0 .1.18l5.52 2.61h.1Zm3.85-10.18a.2.2 0 0 0-.13 0l-5.26 2.46 1.9.91a.13.13 0 0 0 .12 0l5.44-2.45h.05Zm-7.52 1.53h.11l5.42-2.39-.1-.06-1.35-.61a.23.23 0 0 0-.2 0l-5.16 2.35-.12.06c.5.22.95.44 1.4.65Zm-14.19 9.45-5.67-2.58a.2.2 0 0 1-.14-.21v-7.18a.2.2 0 0 1 .14-.21l6.39-2.93.13-.07h.05l1.08.51 5.59 2.55a.2.2 0 0 1 .13.21v7.19a.2.2 0 0 1-.13.21l-6.22 3-.13.08Zm7-9.73L734 171c-.09 0-.13.08-.13.18V178l.11-.05 5.8-2.75a.15.15 0 0 0 .1-.16v-6.74Zm-6.47 8.93v-6.11a.18.18 0 0 0-.13-.2l-1.82-.9-.15-.07v3.3l-.13-.07-1.57-.85a.18.18 0 0 1-.1-.18v-3a.17.17 0 0 0-.11-.18l-1.55-.76-.15-.06v6.72c0 .08 0 .14.09.18l5.53 2.61h.09Zm3.85-10.18a.17.17 0 0 0-.12 0l-5.26 2.46 1.9.91a.15.15 0 0 0 .13 0l5.44-2.45Zm-7.48 1.53h.12l5.41-2.39-.1-.06-1.35-.61a.21.21 0 0 0-.19 0l-5.17 2.35-.12.06Zm-14.23 9.45-5.66-2.58a.2.2 0 0 1-.14-.21v-7.18a.2.2 0 0 1 .13-.21l6.4-2.93.12-.07h.06l1.07.51 5.59 2.55a.2.2 0 0 1 .14.21v7.19a.2.2 0 0 1-.14.21l-6.21 3a.57.57 0 0 0-.13.08Zm7-9.73-5.77 2.66c-.08 0-.13.08-.13.18V178l.12-.05 5.79-2.75c.08 0 .1-.07.1-.16v-6.62a.53.53 0 0 0 0-.12Zm-6.48 8.93v-6.11a.17.17 0 0 0-.12-.2l-1.83-.9-.15-.07v3.3l-.13-.07-1.56-.85a.17.17 0 0 1-.11-.18v-3a.17.17 0 0 0-.1-.19l-1.55-.76-.15-.06v6.72a.16.16 0 0 0 .1.18l5.52 2.61h.1Zm3.85-10.18a.2.2 0 0 0-.13 0l-5.26 2.46h-.05l1.91.91a.13.13 0 0 0 .12 0l5.44-2.45Zm-7.48 1.53h.11l5.42-2.39-.1-.06-1.35-.61a.23.23 0 0 0-.2 0l-5.17 2.35-.08.09c.45.19.9.41 1.36.62Zm-140.77 9.45-5.66-2.58a.2.2 0 0 1-.14-.21v-7.18a.2.2 0 0 1 .14-.21l6.39-2.93.13-.07 1.08.51 5.59 2.55a.2.2 0 0 1 .13.21v7.19a.2.2 0 0 1-.13.21l-6.22 3-.13.08c-.38-.2-.78-.39-1.18-.57Zm7-9.73-5.76 2.66c-.09 0-.14.08-.14.18v6.85l.11-.05 5.79-2.75a.14.14 0 0 0 .11-.16v-6.74Zm-6.46 8.93v-6.11a.19.19 0 0 0-.13-.2l-1.83-.9-.18-.06v3.3l-.13-.07-1.57-.85a.17.17 0 0 1-.1-.18v-3a.17.17 0 0 0-.11-.18l-1.56-.76-.14-.06v6.72c0 .08 0 .14.09.18l5.52 2.61h.1Zm3.86-10.18a.17.17 0 0 0-.12 0l-5.26 2.46h-.05l1.9.91a.13.13 0 0 0 .12 0l5.45-2.45Zm-7.48 1.53h.11l5.42-2.39-.1-.06-1.35-.61a.23.23 0 0 0-.2 0l-5.16 2.35-.12.06Zm-14.24 9.45-5.67-2.58a.21.21 0 0 1-.13-.21v-7.18a.2.2 0 0 1 .13-.21L555 165l.13-.07 1.08.51 5.59 2.55a.2.2 0 0 1 .13.21v7.19a.2.2 0 0 1-.13.21l-6.21 3a.57.57 0 0 0-.13.08Zm7-9.73-5.77 2.66c-.08 0-.13.08-.13.18V178l.11-.05 5.8-2.75c.08 0 .1-.07.1-.16v-6.74Zm-6.47 8.93v-6.11a.18.18 0 0 0-.12-.2l-1.83-.9-.15-.07v3.3l-.13-.07-1.56-.85a.17.17 0 0 1-.11-.18v-3a.18.18 0 0 0-.12-.18l-1.55-.76-.15-.06v6.72c0 .08 0 .14.09.18l5.53 2.61h.09Zm3.86-10.18a.2.2 0 0 0-.13 0l-5.26 2.46 1.9.91a.15.15 0 0 0 .13 0l5.44-2.45h.05Zm-7.48 1.53h.11l5.41-2.39-.09-.06-1.36-.61a.21.21 0 0 0-.19 0l-5.17 2.35-.11.06ZM537 178.07l-5.66-2.58a.2.2 0 0 1-.14-.21v-7.18a.2.2 0 0 1 .14-.21l6.39-2.93.13-.07h.05l1.08.51 5.59 2.55a.2.2 0 0 1 .13.21v7.19a.2.2 0 0 1-.13.21l-6.22 3-.13.08c-.48-.2-.87-.39-1.23-.57Zm7-9.73-5.81 2.66c-.09 0-.14.08-.14.18v6.85l.11-.05 5.79-2.75a.14.14 0 0 0 .11-.16v-6.62a.53.53 0 0 0 0-.12Zm-6.46 8.93v-6.11a.19.19 0 0 0-.13-.2l-1.83-.9-.14-.07v3.3l-.14-.07-1.56-.85a.17.17 0 0 1-.1-.18v-3a.17.17 0 0 0-.11-.18l-1.56-.76-.14-.06v6.72c0 .08 0 .14.09.18l5.52 2.61h.1Zm3.85-10.18a.17.17 0 0 0-.12 0l-5.26 2.46 1.9.91a.13.13 0 0 0 .12 0l5.45-2.45Zm-7.48 1.53h.11l5.42-2.39-.1-.06-1.35-.61a.23.23 0 0 0-.2 0l-5.16 2.35-.12.06Zm-14.28 9.45-5.63-2.58a.21.21 0 0 1-.13-.21v-7.18a.2.2 0 0 1 .13-.21l6.39-2.93.13-.07 1.08.51 5.6 2.6a.2.2 0 0 1 .13.21v7.19a.2.2 0 0 1-.13.21l-6.21 3a.57.57 0 0 0-.13.08Zm7-9.73-5.77 2.66c-.08 0-.13.08-.13.18V178l.11-.05 5.8-2.75a.15.15 0 0 0 .1-.16v-6.74Zm-6.47 8.93v-6.11a.18.18 0 0 0-.12-.2l-1.83-.9-.21-.06v3.3l-.13-.07-1.56-.85a.17.17 0 0 1-.11-.18v-3a.18.18 0 0 0-.12-.18l-1.55-.76-.15-.06v6.72c0 .08 0 .14.09.18l5.53 2.61h.09Zm3.84-10.18a.17.17 0 0 0-.12 0l-5.26 2.46h-.05l1.9.91a.15.15 0 0 0 .13 0l5.44-2.45h.05Zm-7.47 1.53h.11l5.41-2.39-.09-.06-1.36-.61a.21.21 0 0 0-.19 0l-5.17 2.35-.12.06Zm-14.23 9.45-5.66-2.58a.2.2 0 0 1-.14-.21v-7.18a.2.2 0 0 1 .14-.21L503 165l.13-.07 1.07.51 5.59 2.55a.19.19 0 0 1 .14.21v7.19a.2.2 0 0 1-.13.21l-6.22 3a.57.57 0 0 0-.13.08c-.35-.24-.74-.43-1.15-.61Zm7-9.73-5.77 2.66c-.08 0-.13.08-.13.18v6.75a.41.41 0 0 0 0 .1l.11-.05 5.79-2.75c.08 0 .1-.07.1-.16v-6.62a.53.53 0 0 0 0-.12Zm-6.46 8.93v-6.11a.19.19 0 0 0-.13-.2l-1.83-.9-.14-.07v3.3l-.14-.07-1.56-.85a.17.17 0 0 1-.1-.18v-3a.17.17 0 0 0-.11-.18l-1.56-.76-.14-.06v6.72a.16.16 0 0 0 .1.18l5.52 2.61h.1Zm3.85-10.18a.16.16 0 0 0-.12 0l-5.26 2.46 1.9.91a.13.13 0 0 0 .12 0l5.45-2.45Zm-7.48 1.53h.11l5.42-2.39-.1-.06-1.35-.61a.23.23 0 0 0-.2 0l-5.16 2.35-.12.06Zm178.98 9.45-5.66-2.58a.2.2 0 0 1-.14-.21v-7.18a.2.2 0 0 1 .14-.21l6.39-2.93.12-.07h.06l1.07.51 5.6 2.55a.2.2 0 0 1 .13.21v7.19a.2.2 0 0 1-.13.21l-6.22 3a.57.57 0 0 0-.13.08Zm7-9.73-5.77 2.66c-.08 0-.13.08-.13.18v6.75a.41.41 0 0 0 0 .1l.11-.05 5.79-2.75c.08 0 .1-.07.1-.16v-6.62a.53.53 0 0 0 0-.12Zm-6.46 8.93v-6.11a.19.19 0 0 0-.13-.2l-1.83-.9-.14-.07v3.3l-.14-.07-1.56-.85a.17.17 0 0 1-.1-.18v-3a.17.17 0 0 0-.11-.18l-1.56-.76-.14-.06v6.72a.16.16 0 0 0 .1.18l5.52 2.61h.1Zm3.85-10.18a.16.16 0 0 0-.12 0l-5.26 2.46 1.9.91a.13.13 0 0 0 .12 0l5.45-2.45Zm-7.48 1.53h.11l5.42-2.39-.1-.06-1.35-.61a.23.23 0 0 0-.2 0l-5.16 2.35-.12.06Zm-14.23 9.45-5.67-2.58a.2.2 0 0 1-.13-.21v-7.18a.2.2 0 0 1 .13-.21l6.39-2.93.13-.07 1.08.51 5.59 2.55a.2.2 0 0 1 .13.21v7.19a.2.2 0 0 1-.13.21l-6.21 3a.57.57 0 0 0-.13.08Zm7-9.73L662.1 171c-.08 0-.13.08-.13.18V178l.11-.05 5.8-2.75a.15.15 0 0 0 .1-.16v-6.74Zm-6.47 8.93v-6.11a.18.18 0 0 0-.12-.2l-1.83-.9-.15-.07v3.3l-.13-.07-1.56-.85a.17.17 0 0 1-.11-.18v-3a.18.18 0 0 0-.12-.18l-1.55-.76-.15-.06v6.72c0 .08 0 .14.09.18l5.53 2.61h.09Zm3.85-10.18a.17.17 0 0 0-.12 0l-5.26 2.46h-.05l1.9.91a.15.15 0 0 0 .13 0l5.44-2.45Zm-7.47 1.53h.11l5.41-2.39-.09-.06-1.36-.61a.21.21 0 0 0-.19 0l-5.17 2.35-.12.06Zm-14.24 9.45-5.66-2.58a.2.2 0 0 1-.14-.21v-7.18a.2.2 0 0 1 .14-.21l6.39-2.93.12-.07h.06l1.07.51 5.59 2.55a.19.19 0 0 1 .14.21v7.19a.2.2 0 0 1-.14.21l-6.21 3a.57.57 0 0 0-.13.08Zm7-9.73-5.77 2.66c-.08 0-.13.08-.13.18v6.75a.41.41 0 0 0 0 .1l.11-.05 5.79-2.75c.08 0 .1-.07.1-.16v-6.62a.53.53 0 0 0 0-.12Zm-6.46 8.93v-6.11a.19.19 0 0 0-.13-.2l-1.83-.9-.12-.06v3.3l-.14-.07-1.56-.85a.17.17 0 0 1-.1-.18v-3a.17.17 0 0 0-.2-.2l-1.56-.76-.15-.06v6.72a.16.16 0 0 0 .1.18l5.52 2.61h.1Zm3.85-10.18a.16.16 0 0 0-.12 0l-5.26 2.46 1.9.91a.13.13 0 0 0 .12 0l5.44-2.45h.05Zm-7.48 1.53h.11l5.42-2.39-.1-.06-1.35-.61a.23.23 0 0 0-.2 0l-5.16 2.35-.17.09Zm-14.23 9.45-5.67-2.58a.2.2 0 0 1-.14-.21v-7.18a.2.2 0 0 1 .13-.21l6.39-2.93.13-.07 1.08.51 5.59 2.55a.2.2 0 0 1 .13.21v7.19a.2.2 0 0 1-.13.21l-6.21 3a.57.57 0 0 0-.13.08Zm7-9.73-5.77 2.66c-.08 0-.13.08-.13.18V178l.11-.05 5.8-2.75a.15.15 0 0 0 .1-.16v-6.74Zm-6.47 8.93v-6.11a.18.18 0 0 0-.12-.2l-1.83-.9-.15-.07v3.3l-.13-.07-1.56-.85a.17.17 0 0 1-.11-.18v-3a.16.16 0 0 0-.11-.18l-1.55-.76-.15-.06v6.72c0 .08 0 .14.09.18l5.53 2.61h.09Zm3.85-10.18a.17.17 0 0 0-.12 0l-5.26 2.46h-.05l1.9.91a.15.15 0 0 0 .13 0l5.44-2.45Zm-7.47 1.53h.11l5.41-2.39-.09-.06-1.36-.61a.21.21 0 0 0-.19 0l-5.17 2.35-.12.06Zm-14.24 9.45-5.66-2.58a.2.2 0 0 1-.14-.21v-7.18a.21.21 0 0 1 .13-.21l6.4-2.93.12-.07h.06l1.07.51 5.59 2.55a.2.2 0 0 1 .14.21v7.19a.2.2 0 0 1-.14.21l-6.21 3a.57.57 0 0 0-.13.08Zm7-9.73-5.77 2.66c-.08 0-.13.08-.13.18v6.75a.41.41 0 0 0 0 .1l.11-.05 5.79-2.75c.08 0 .1-.07.1-.16v-6.62a.53.53 0 0 0 0-.12Zm-6.46 8.93v-6.11a.19.19 0 0 0-.13-.2l-1.83-.9-.14-.07v3.3l-.14-.07-1.56-.85a.17.17 0 0 1-.1-.18v-3a.17.17 0 0 0-.12-.18l-1.55-.76-.15-.06v6.72a.16.16 0 0 0 .1.18l5.52 2.61h.1Zm3.85-10.18a.16.16 0 0 0-.12 0l-5.26 2.46 1.9.91a.13.13 0 0 0 .12 0l5.44-2.45h.05Zm-7.48 1.53h.11l5.42-2.39-.1-.06-1.35-.61a.23.23 0 0 0-.2 0l-5.16 2.35-.12.06c.46.22.91.44 1.37.65Z" style="fill:#f7eec9"/><path style="fill:#f9c7e4" d="m434.95 538.47-9.1 10.5 18.9 16.8 37.8-44.8h-14.7l-22.4 27.3-10.5-9.8zm-274.93-175.2-5.24 6.04 10.88 9.67 21.75-25.78h-8.46l-12.89 15.71-6.04-5.64zm47.65 0-5.24 6.04 10.88 9.67 21.75-25.78h-8.46l-12.89 15.71-6.04-5.64zm47.65 0-5.23 6.04 10.87 9.67 21.75-25.78h-8.46l-12.89 15.71-6.04-5.64zm47.66 0-5.24 6.04 10.88 9.67 21.75-25.78h-8.46l-12.89 15.71-6.04-5.64zm47.65 0-5.24 6.04 10.88 9.67 21.75-25.78h-8.46l-12.89 15.71-6.04-5.64zm-231.6-174.84-2.02 2.33 4.19 3.73 8.39-9.94h-3.26l-4.97 6.06-2.33-2.18zm18.37 0-2.02 2.33 4.2 3.73 8.38-9.94h-3.26l-4.97 6.06-2.33-2.18zm18.38 0-2.02 2.33 4.19 3.73 8.39-9.94h-3.27l-4.97 6.06-2.32-2.18zm18.37 0-2.02 2.33 4.19 3.73 8.39-9.94h-3.26l-4.97 6.06-2.33-2.18zm18.37 0-2.02 2.33 4.2 3.73 8.38-9.94h-3.26l-4.97 6.06-2.33-2.18zm32.79 0-2.02 2.33 4.2 3.73 8.39-9.94h-3.27l-4.97 6.06-2.33-2.18zm18.38 0-2.02 2.33 4.19 3.73 8.39-9.94h-3.26l-4.97 6.06-2.33-2.18zm18.37 0-2.02 2.33 4.2 3.73 8.38-9.94h-3.26l-4.97 6.06-2.33-2.18zm18.37 0-2.01 2.33 4.19 3.73 8.39-9.94h-3.27l-4.97 6.06-2.33-2.18zm18.38 0-2.02 2.33 4.19 3.73 8.39-9.94h-3.26l-4.97 6.06-2.33-2.18zm33.67 0-2.02 2.33 4.19 3.73 8.39-9.94h-3.26l-4.97 6.06-2.33-2.18zm18.37 0-2.02 2.33 4.2 3.73 8.38-9.94h-3.26l-4.97 6.06-2.33-2.18zm18.38 0-2.02 2.33 4.19 3.73 8.39-9.94h-3.27l-4.97 6.06-2.32-2.18zm18.37 0-2.02 2.33 4.19 3.73 8.39-9.94h-3.26l-4.97 6.06-2.33-2.18zm18.37 0-2.02 2.33 4.2 3.73 8.38-9.94h-3.26l-4.97 6.06-2.33-2.18zm92.52 0-2.01 2.33 4.19 3.73 8.39-9.94h-3.27l-4.97 6.06-2.33-2.18zm18.38 0-2.02 2.33 4.19 3.73 8.39-9.94h-3.26l-4.97 6.06-2.33-2.18zm18.37 0-2.02 2.33 4.2 3.73 8.38-9.94h-3.26l-4.97 6.06-2.33-2.18zm18.38 0-2.02 2.33 4.19 3.73 8.39-9.94h-3.27l-4.96 6.06-2.33-2.18zm18.37 0-2.02 2.33 4.19 3.73 8.39-9.94h-3.26l-4.97 6.06-2.33-2.18zm32.79 0-2.02 2.33 4.19 3.73 8.39-9.94h-3.26l-4.97 6.06-2.33-2.18zm18.37 0-2.02 2.33 4.2 3.73 8.39-9.94h-3.27l-4.97 6.06-2.33-2.18zm18.38 0-2.02 2.33 4.19 3.73 8.39-9.94h-3.26l-4.97 6.06-2.33-2.18zm18.37 0-2.02 2.33 4.2 3.73 8.38-9.94h-3.26l-4.97 6.06-2.33-2.18zm18.37 0-2.02 2.33 4.2 3.73 8.39-9.94h-3.27l-4.97 6.06-2.33-2.18zm33.67 0-2.02 2.33 4.2 3.73 8.39-9.94h-3.27l-4.97 6.06-2.33-2.18zm18.38 0-2.02 2.33 4.19 3.73 8.39-9.94h-3.26l-4.97 6.06-2.33-2.18zm18.37 0-2.02 2.33 4.2 3.73 8.38-9.94h-3.26l-4.97 6.06-2.33-2.18zm18.38 0-2.02 2.33 4.19 3.73 8.39-9.94h-3.26l-4.98 6.06-2.32-2.18zm18.37 0-2.02 2.33 4.19 3.73 8.39-9.94h-3.26l-4.97 6.06-2.33-2.18zM538.6 364.15l-5.23 6.04 10.87 9.67L566 354.08h-8.46l-12.89 15.71-6.05-5.64zm47.66 0-5.24 6.04 10.88 9.67 21.75-25.78h-8.46l-12.89 15.71-6.04-5.64zm47.65 0-5.24 6.04 10.88 9.67 21.75-25.78h-8.46l-12.89 15.71-6.04-5.64zm47.65 0-5.23 6.04 10.87 9.67 21.76-25.78h-8.46l-12.89 15.71-6.05-5.64zm47.66 0-5.24 6.04 10.88 9.67 21.75-25.78h-8.46l-12.89 15.71-6.04-5.64zM205.7 844a37.3 37.3 0 0 0-1.2 6.4c-.22 2.22-.33 4.42-.33 6.62a41.35 41.35 0 0 0 .4 5.88 45.1 45.1 0 0 0 1.13 5.46h-1a16.69 16.69 0 0 1-1.58-2.82 22.3 22.3 0 0 1-1.11-3.12 25.6 25.6 0 0 1-.66-3.2 21.08 21.08 0 0 1 0-6.21 23.49 23.49 0 0 1 1.83-6.28 18.77 18.77 0 0 1 1.5-2.73Zm4.02 2.88h-3.54V844h10.14v2.88h-3.54v18.48h-3.06Zm7.77-2.88h3.06v7.62h.06a4.31 4.31 0 0 1 1.15-1.18 2.92 2.92 0 0 1 1.73-.47 3.51 3.51 0 0 1 1.14.2 2.51 2.51 0 0 1 1 .64 3.32 3.32 0 0 1 .72 1.15 4.91 4.91 0 0 1 .27 1.73v11.67h-3.06v-10.53a2 2 0 0 0-.39-1.32 1.35 1.35 0 0 0-1.11-.48 1.29 1.29 0 0 0-1.2.54 3 3 0 0 0-.33 1.56v10.23h-3.06ZM232 858.91V861a1.47 1.47 0 0 0 .4 1.11 1.52 1.52 0 0 0 1.1.39 1.2 1.2 0 0 0 1.15-.51 2.76 2.76 0 0 0 .35-1h3a5.09 5.09 0 0 1-.32 1.8 4 4 0 0 1-.91 1.44 4.3 4.3 0 0 1-1.44 1 5.19 5.19 0 0 1-4.32-.24 4.11 4.11 0 0 1-1.56-1.59 4.15 4.15 0 0 1-.45-1.4 11.28 11.28 0 0 1-.12-1.71v-5a11.28 11.28 0 0 1 .12-1.71 4.15 4.15 0 0 1 .45-1.38 4.11 4.11 0 0 1 1.56-1.59 4.71 4.71 0 0 1 2.43-.6 4.84 4.84 0 0 1 1.9.36 4 4 0 0 1 1.44 1 4.64 4.64 0 0 1 .9 1.52 5.42 5.42 0 0 1 .32 1.86v4.2Zm0-2.4h3v-1.74a1.87 1.87 0 0 0-.41-1.31 1.45 1.45 0 0 0-1.09-.43 1.47 1.47 0 0 0-1.1.43 1.87 1.87 0 0 0-.4 1.31ZM279.31 844h3.06v3.06l-3.06 2.22Zm9.48 10.41a1.52 1.52 0 0 0-.49-1.17 1.62 1.62 0 0 0-1.07-.39 1.36 1.36 0 0 0-1.11.46 1.62 1.62 0 0 0-.39 1.07 1.79 1.79 0 0 0 .21.83 2 2 0 0 0 1.08.73l1.8.72a4.38 4.38 0 0 1 2.36 1.8 5 5 0 0 1 .64 2.49 4.52 4.52 0 0 1-.34 1.78 4.66 4.66 0 0 1-1 1.46 4.3 4.3 0 0 1-1.44 1 4.6 4.6 0 0 1-1.83.36 4.88 4.88 0 0 1-1.71-.3 4.22 4.22 0 0 1-1.42-.87 4.51 4.51 0 0 1-1-1.42 5.12 5.12 0 0 1-.42-2h2.88a2.92 2.92 0 0 0 .44 1.17 1.32 1.32 0 0 0 1.21.54 1.77 1.77 0 0 0 1.19-.44 1.46 1.46 0 0 0 .52-1.21 1.78 1.78 0 0 0-.33-1.08 2.6 2.6 0 0 0-1.2-.78l-1.47-.54a5 5 0 0 1-2.26-1.61 4.1 4.1 0 0 1-.83-2.59 4.47 4.47 0 0 1 .36-1.79 4.35 4.35 0 0 1 2.4-2.32 4.57 4.57 0 0 1 1.74-.33 4.31 4.31 0 0 1 1.73.34 4.15 4.15 0 0 1 2.26 2.34 4.74 4.74 0 0 1 .33 1.76Zm16.38 9.39h-.06a5.63 5.63 0 0 1-1.21 1.29 2.89 2.89 0 0 1-1.73.45 4.38 4.38 0 0 1-1.11-.16 2.9 2.9 0 0 1-1.06-.6 3.11 3.11 0 0 1-.81-1.24 5.58 5.58 0 0 1-.32-2 11 11 0 0 1 .21-2.27 3.61 3.61 0 0 1 .77-1.61 3.31 3.31 0 0 1 1.48-1 7.83 7.83 0 0 1 2.37-.31h.66l.81.06v-1.59a2.33 2.33 0 0 0-.33-1.29 1.32 1.32 0 0 0-1.2-.51 1.71 1.71 0 0 0-1.09.39 1.86 1.86 0 0 0-.65 1.14h-3a5 5 0 0 1 1.38-3.3 4.35 4.35 0 0 1 1.44-1 4.93 4.93 0 0 1 1.89-.34 5.31 5.31 0 0 1 1.8.3 4 4 0 0 1 1.46.9 4.27 4.27 0 0 1 1 1.5 5.63 5.63 0 0 1 .36 2.1v10.59h-3.06Zm0-5a5 5 0 0 0-.84-.09 2.92 2.92 0 0 0-1.69.47 1.87 1.87 0 0 0-.71 1.69 2.23 2.23 0 0 0 .42 1.41 1.4 1.4 0 0 0 1.17.54 1.52 1.52 0 0 0 1.22-.51 2.15 2.15 0 0 0 .43-1.44Zm5.31-8.65h3.06v1.47h.06a4.35 4.35 0 0 1 1.16-1.18 2.89 2.89 0 0 1 1.72-.47 3.51 3.51 0 0 1 1.14.2 2.51 2.51 0 0 1 1 .64 3.32 3.32 0 0 1 .72 1.15 4.91 4.91 0 0 1 .27 1.73v11.67h-3.06v-10.53a2 2 0 0 0-.39-1.32 1.35 1.35 0 0 0-1.11-.48 1.29 1.29 0 0 0-1.2.54 3 3 0 0 0-.33 1.56v10.23h-3.06ZM328.24 864l-.57.61a2.86 2.86 0 0 1-1.35.83 3.63 3.63 0 0 1-1 .12 2.78 2.78 0 0 1-2.67-1.44 4.07 4.07 0 0 1-.39-1.26 13.31 13.31 0 0 1-.12-2V855a23.45 23.45 0 0 1 .09-2.43 3 3 0 0 1 .39-1.26 3.29 3.29 0 0 1 1-1 3.66 3.66 0 0 1 3.33 0 3.57 3.57 0 0 1 1.21 1.15h.06V844h3.06v21.36h-3.06Zm-3-3.57a2.78 2.78 0 0 0 .36 1.5 1.25 1.25 0 0 0 1.14.57 1.38 1.38 0 0 0 1.11-.52 2.13 2.13 0 0 0 .42-1.37v-5.91a1.67 1.67 0 0 0-.43-1.19 1.48 1.48 0 0 0-1.1-.46 1.24 1.24 0 0 0-1.18.54 2.46 2.46 0 0 0-.32 1.26Zm50.7-11.15h-3.06v-3.06l3.06-2.22Zm8.06 5.13a1.52 1.52 0 0 0-.5-1.17 1.6 1.6 0 0 0-1.06-.39 1.36 1.36 0 0 0-1.11.46 1.62 1.62 0 0 0-.39 1.07 1.79 1.79 0 0 0 .21.83 2 2 0 0 0 1.08.73l1.8.72a4.35 4.35 0 0 1 2.35 1.8A5 5 0 0 1 387 861a4.52 4.52 0 0 1-.35 1.78 4.64 4.64 0 0 1-.94 1.46 4.3 4.3 0 0 1-1.44 1 4.6 4.6 0 0 1-1.83.36 4.88 4.88 0 0 1-1.71-.3 4.26 4.26 0 0 1-1.43-.87 4.48 4.48 0 0 1-1-1.42 5.12 5.12 0 0 1-.42-2h2.88a2.91 2.91 0 0 0 .43 1.17 1.34 1.34 0 0 0 1.22.54 1.75 1.75 0 0 0 1.18-.44 1.47 1.47 0 0 0 .53-1.21 1.78 1.78 0 0 0-.33-1.08 2.6 2.6 0 0 0-1.2-.78l-1.47-.54a5 5 0 0 1-2.27-1.61 4.09 4.09 0 0 1-.82-2.59 4.41 4.41 0 0 1 1.33-3.2 4.6 4.6 0 0 1 3.17-1.24 4.26 4.26 0 0 1 1.72.34 4.42 4.42 0 0 1 1.37.93 4.37 4.37 0 0 1 .9 1.41 4.74 4.74 0 0 1 .33 1.76Zm16.18-4.26h3.06v1.62a9.29 9.29 0 0 1 1.83-1.32 4.67 4.67 0 0 1 2.22-.48v3.24a2.48 2.48 0 0 0-.93-.18 3.37 3.37 0 0 0-1 .17 2.68 2.68 0 0 0-1 .55 3 3 0 0 0-.76 1 3.62 3.62 0 0 0-.3 1.56v9h-3.06Zm11.13 8.76V861a1.47 1.47 0 0 0 .4 1.11 1.52 1.52 0 0 0 1.1.39 1.2 1.2 0 0 0 1.19-.5 2.76 2.76 0 0 0 .35-1h3.06a5.09 5.09 0 0 1-.32 1.8 4 4 0 0 1-.91 1.44 4.3 4.3 0 0 1-1.44 1 5.19 5.19 0 0 1-4.32-.24 4.11 4.11 0 0 1-1.56-1.59 4.15 4.15 0 0 1-.45-1.38 11.28 11.28 0 0 1-.12-1.71v-5a11.28 11.28 0 0 1 .12-1.71 4.15 4.15 0 0 1 .45-1.38 4.11 4.11 0 0 1 1.56-1.59 4.71 4.71 0 0 1 2.43-.6 4.84 4.84 0 0 1 1.9.36 4 4 0 0 1 1.44 1 4.64 4.64 0 0 1 .9 1.52 5.42 5.42 0 0 1 .32 1.86v4.2Zm0-2.4h3v-1.74a1.87 1.87 0 0 0-.41-1.31 1.45 1.45 0 0 0-1.09-.43 1.47 1.47 0 0 0-1.1.43 1.87 1.87 0 0 0-.4 1.31Zm8.31-6.36h3.06v1.38a7.53 7.53 0 0 1 1.17-1.11 2.87 2.87 0 0 1 1.74-.45 2.78 2.78 0 0 1 2.67 1.44 4.07 4.07 0 0 1 .39 1.26 13.31 13.31 0 0 1 .12 2v5.79a23.45 23.45 0 0 1-.09 2.43 3 3 0 0 1-.39 1.26 3.29 3.29 0 0 1-1 1 3.66 3.66 0 0 1-3.33 0 3.57 3.57 0 0 1-1.21-1.15h-.06v7.53h-3.06Zm6.09 5a2.78 2.78 0 0 0-.36-1.5 1.25 1.25 0 0 0-1.14-.57 1.38 1.38 0 0 0-1.11.52 2.13 2.13 0 0 0-.42 1.37v5.91a1.63 1.63 0 0 0 .43 1.18 1.42 1.42 0 0 0 1.1.47 1.24 1.24 0 0 0 1.18-.54 2.46 2.46 0 0 0 .32-1.26Zm5.58-5h3.06v1.62a9.29 9.29 0 0 1 1.83-1.32 4.67 4.67 0 0 1 2.22-.48v3.24a2.48 2.48 0 0 0-.93-.18 3.37 3.37 0 0 0-1 .17 2.68 2.68 0 0 0-1 .55 3 3 0 0 0-.76 1 3.62 3.62 0 0 0-.3 1.56v9h-3.06Zm11.13 8.76V861a1.47 1.47 0 0 0 .4 1.11 1.52 1.52 0 0 0 1.1.39 1.2 1.2 0 0 0 1.15-.51 2.76 2.76 0 0 0 .35-1h3.06a5.09 5.09 0 0 1-.32 1.8 4 4 0 0 1-.91 1.44 4.3 4.3 0 0 1-1.44 1 5.19 5.19 0 0 1-4.32-.24 4.11 4.11 0 0 1-1.56-1.59 4.15 4.15 0 0 1-.45-1.38 11.28 11.28 0 0 1-.12-1.71v-5a11.28 11.28 0 0 1 .12-1.71 4.15 4.15 0 0 1 .45-1.38 4.11 4.11 0 0 1 1.56-1.59 4.71 4.71 0 0 1 2.43-.6 4.84 4.84 0 0 1 1.9.36 4 4 0 0 1 1.44 1 4.64 4.64 0 0 1 .9 1.52 5.42 5.42 0 0 1 .32 1.86v4.2Zm0-2.4h3v-1.74a1.87 1.87 0 0 0-.41-1.31 1.45 1.45 0 0 0-1.09-.43 1.47 1.47 0 0 0-1.1.43 1.87 1.87 0 0 0-.4 1.31Zm13.86-2.1a1.52 1.52 0 0 0-.5-1.17 1.6 1.6 0 0 0-1.06-.39 1.36 1.36 0 0 0-1.11.46 1.62 1.62 0 0 0-.39 1.07 1.79 1.79 0 0 0 .21.83 2 2 0 0 0 1.08.73l1.8.72a4.35 4.35 0 0 1 2.35 1.8 5 5 0 0 1 .65 2.49 4.52 4.52 0 0 1-.35 1.78 4.64 4.64 0 0 1-.94 1.46 4.3 4.3 0 0 1-1.44 1 4.6 4.6 0 0 1-1.83.36 4.88 4.88 0 0 1-1.71-.3 4.26 4.26 0 0 1-1.43-.87 4.48 4.48 0 0 1-1-1.42 5.12 5.12 0 0 1-.42-2h2.88a2.91 2.91 0 0 0 .43 1.17 1.34 1.34 0 0 0 1.22.54 1.75 1.75 0 0 0 1.18-.44 1.47 1.47 0 0 0 .53-1.21 1.78 1.78 0 0 0-.33-1.08 2.6 2.6 0 0 0-1.2-.78l-1.47-.54a5 5 0 0 1-2.27-1.61 4.09 4.09 0 0 1-.82-2.59 4.41 4.41 0 0 1 1.33-3.2 4.6 4.6 0 0 1 3.17-1.24 4.26 4.26 0 0 1 1.72.34 4.42 4.42 0 0 1 1.37.93 4.37 4.37 0 0 1 .9 1.41 4.74 4.74 0 0 1 .33 1.76Zm7.8 4.5V861a1.47 1.47 0 0 0 .4 1.11 1.52 1.52 0 0 0 1.1.39 1.2 1.2 0 0 0 1.15-.51 2.76 2.76 0 0 0 .35-1h3.06a5.09 5.09 0 0 1-.32 1.8 4 4 0 0 1-.91 1.44 4.3 4.3 0 0 1-1.44 1 5.19 5.19 0 0 1-4.32-.24 4.11 4.11 0 0 1-1.56-1.59 3.93 3.93 0 0 1-.45-1.38 11.28 11.28 0 0 1-.12-1.71v-5a11.28 11.28 0 0 1 .12-1.71 3.93 3.93 0 0 1 .45-1.38 4.11 4.11 0 0 1 1.56-1.59 4.71 4.71 0 0 1 2.43-.6 4.84 4.84 0 0 1 1.9.36 4 4 0 0 1 1.44 1 4.64 4.64 0 0 1 .9 1.52 5.42 5.42 0 0 1 .32 1.86v4.2Zm0-2.4h3v-1.74a1.87 1.87 0 0 0-.41-1.31 1.45 1.45 0 0 0-1.09-.43 1.47 1.47 0 0 0-1.1.43 1.87 1.87 0 0 0-.4 1.31Zm8.3-6.36h3.07v1.47h.06a4.31 4.31 0 0 1 1.15-1.18 2.91 2.91 0 0 1 1.72-.47 3.52 3.52 0 0 1 1.15.2 2.42 2.42 0 0 1 1 .64 3.2 3.2 0 0 1 .73 1.15 4.91 4.91 0 0 1 .27 1.73v11.67h-3.06v-10.53a2 2 0 0 0-.39-1.32A1.35 1.35 0 0 0 477 853a1.28 1.28 0 0 0-1.2.54 2.92 2.92 0 0 0-.33 1.56v10.23h-3.07Zm11.67-4.62h3.07v4.62H489v2.4h-1.89V861a2.67 2.67 0 0 0 .1.84.86.86 0 0 0 .33.45 1.24 1.24 0 0 0 .58.18h.88v2.88h-1.26A4.13 4.13 0 0 1 486 865a3.06 3.06 0 0 1-1.12-.84 3.22 3.22 0 0 1-.62-1.15 4.34 4.34 0 0 1-.2-1.25v-9.24h-1.52v-2.4h1.52Zm11.7 0h3.06v4.62h1.9v2.4h-1.9V861a2.62 2.62 0 0 0 .11.84.86.86 0 0 0 .33.45 1.21 1.21 0 0 0 .58.18h.88v2.88h-1.26a4.13 4.13 0 0 1-1.76-.33 3.19 3.19 0 0 1-1.13-.84A3.35 3.35 0 0 1 496 863a4.34 4.34 0 0 1-.2-1.25v-9.24h-1.53v-2.4h1.53Zm8.91 13.38V861a1.47 1.47 0 0 0 .41 1.11 1.5 1.5 0 0 0 1.09.39 1.21 1.21 0 0 0 1.16-.51 2.73 2.73 0 0 0 .34-1h3.06a5.08 5.08 0 0 1-.31 1.8 4 4 0 0 1-.92 1.44 4.3 4.3 0 0 1-1.44 1 5.19 5.19 0 0 1-4.32-.24 4.11 4.11 0 0 1-1.56-1.59 4.15 4.15 0 0 1-.45-1.38 11.28 11.28 0 0 1-.12-1.71v-5a11.28 11.28 0 0 1 .12-1.71 4.15 4.15 0 0 1 .45-1.38 4.11 4.11 0 0 1 1.56-1.59 4.71 4.71 0 0 1 2.43-.6 4.89 4.89 0 0 1 1.91.36 4 4 0 0 1 1.44 1 4.64 4.64 0 0 1 .9 1.52 5.42 5.42 0 0 1 .31 1.86v4.2Zm0-2.4h3v-1.74a1.87 1.87 0 0 0-.4-1.31 1.47 1.47 0 0 0-1.1-.43 1.45 1.45 0 0 0-1.09.43 1.87 1.87 0 0 0-.41 1.31Zm13.86-2.1a1.52 1.52 0 0 0-.49-1.17 1.62 1.62 0 0 0-1.07-.39 1.36 1.36 0 0 0-1.11.46 1.62 1.62 0 0 0-.39 1.07 1.79 1.79 0 0 0 .21.83 2 2 0 0 0 1.08.73l1.8.72a4.38 4.38 0 0 1 2.36 1.8 5 5 0 0 1 .64 2.49 4.52 4.52 0 0 1-.34 1.78 4.66 4.66 0 0 1-1 1.46 4.3 4.3 0 0 1-1.44 1 4.6 4.6 0 0 1-1.83.36 4.88 4.88 0 0 1-1.71-.3 4.22 4.22 0 0 1-1.42-.87 4.51 4.51 0 0 1-1-1.42 5.12 5.12 0 0 1-.42-2h2.88a3.08 3.08 0 0 0 .44 1.17 1.32 1.32 0 0 0 1.21.54 1.77 1.77 0 0 0 1.19-.44 1.46 1.46 0 0 0 .52-1.21 1.78 1.78 0 0 0-.33-1.08 2.6 2.6 0 0 0-1.2-.78l-1.47-.54a5 5 0 0 1-2.26-1.61 4.1 4.1 0 0 1-.83-2.59 4.65 4.65 0 0 1 .36-1.79 4.35 4.35 0 0 1 2.4-2.32 4.57 4.57 0 0 1 1.74-.33 4.31 4.31 0 0 1 1.73.34 4.15 4.15 0 0 1 2.26 2.34 4.74 4.74 0 0 1 .33 1.76Zm5.01-8.88h3.06v4.62h1.89v2.4h-1.89V861a2.62 2.62 0 0 0 .11.84.86.86 0 0 0 .33.45 1.21 1.21 0 0 0 .58.18h.87v2.88h-1.26a4.11 4.11 0 0 1-1.75-.33 3.19 3.19 0 0 1-1.13-.84 3.35 3.35 0 0 1-.61-1.15 4.34 4.34 0 0 1-.2-1.25v-9.24H522v-2.4h1.53Zm8.91 13.38V861a1.47 1.47 0 0 0 .41 1.11 1.5 1.5 0 0 0 1.09.39 1.21 1.21 0 0 0 1.16-.51 2.73 2.73 0 0 0 .34-1h3.06a5.08 5.08 0 0 1-.31 1.8 4 4 0 0 1-.92 1.44 4.3 4.3 0 0 1-1.44 1 5.19 5.19 0 0 1-4.32-.24 4.11 4.11 0 0 1-1.56-1.59 4.15 4.15 0 0 1-.45-1.38 11.28 11.28 0 0 1-.12-1.71v-5a11.28 11.28 0 0 1 .12-1.71 4.15 4.15 0 0 1 .45-1.38 4.11 4.11 0 0 1 1.56-1.59 4.71 4.71 0 0 1 2.43-.6 4.89 4.89 0 0 1 1.91.36 4 4 0 0 1 1.44 1 4.64 4.64 0 0 1 .9 1.52 5.42 5.42 0 0 1 .31 1.86v4.2Zm0-2.4h3v-1.74a1.87 1.87 0 0 0-.4-1.31 1.47 1.47 0 0 0-1.1-.43 1.45 1.45 0 0 0-1.09.43 1.87 1.87 0 0 0-.41 1.31Zm14.4 7.49-.57.61a2.86 2.86 0 0 1-1.35.83 3.63 3.63 0 0 1-1 .12 2.78 2.78 0 0 1-2.67-1.44 4.07 4.07 0 0 1-.39-1.26 13.31 13.31 0 0 1-.12-2V855a23.45 23.45 0 0 1 .09-2.43 3 3 0 0 1 .39-1.26 3.29 3.29 0 0 1 1-1 3.66 3.66 0 0 1 3.33 0 3.57 3.57 0 0 1 1.21 1.15h.06V844h3.06v21.36h-3.06Zm-3-3.57a2.78 2.78 0 0 0 .36 1.5 1.25 1.25 0 0 0 1.14.57 1.38 1.38 0 0 0 1.11-.52 2.13 2.13 0 0 0 .42-1.37v-5.91a1.67 1.67 0 0 0-.43-1.19 1.48 1.48 0 0 0-1.1-.46 1.24 1.24 0 0 0-1.18.54 2.46 2.46 0 0 0-.32 1.26Zm17.4.57a1.47 1.47 0 0 0 .41 1.11 1.5 1.5 0 0 0 1.09.39 1.21 1.21 0 0 0 1.16-.51 2.73 2.73 0 0 0 .34-1h3.06a5.08 5.08 0 0 1-.31 1.8 4 4 0 0 1-.92 1.44 4.3 4.3 0 0 1-1.44 1 5.19 5.19 0 0 1-4.32-.24 4.11 4.11 0 0 1-1.56-1.59 4.15 4.15 0 0 1-.45-1.38 11.28 11.28 0 0 1-.12-1.71v-5a11.28 11.28 0 0 1 .12-1.71 4.15 4.15 0 0 1 .45-1.38 4.11 4.11 0 0 1 1.56-1.59 4.71 4.71 0 0 1 2.43-.6 4.89 4.89 0 0 1 1.91.36 4 4 0 0 1 1.44 1 4.58 4.58 0 0 1 .9 1.55 5.86 5.86 0 0 1 .31 2h-3.06a2 2 0 0 0-.4-1.37 1.47 1.47 0 0 0-1.1-.43 1.45 1.45 0 0 0-1.09.43 1.87 1.87 0 0 0-.41 1.31Zm7.59-5.75a11.28 11.28 0 0 1 .12-1.71 4.15 4.15 0 0 1 .45-1.38 4.11 4.11 0 0 1 1.56-1.59 5.22 5.22 0 0 1 4.86 0 4.11 4.11 0 0 1 1.56 1.59 4.15 4.15 0 0 1 .45 1.38 11.28 11.28 0 0 1 .12 1.71v5a11.28 11.28 0 0 1-.12 1.71 4.15 4.15 0 0 1-.45 1.38 4.11 4.11 0 0 1-1.56 1.59 5.22 5.22 0 0 1-4.86 0 4.11 4.11 0 0 1-1.56-1.59 4.15 4.15 0 0 1-.4-1.34 11.28 11.28 0 0 1-.12-1.71Zm3.06 5.49a1.83 1.83 0 0 0 .41 1.3 1.42 1.42 0 0 0 1.09.44 1.44 1.44 0 0 0 1.1-.44 1.82 1.82 0 0 0 .4-1.3v-6a1.87 1.87 0 0 0-.4-1.31 1.47 1.47 0 0 0-1.1-.43 1.45 1.45 0 0 0-1.09.43 1.87 1.87 0 0 0-.41 1.31Zm14.4 3.26-.57.61a2.86 2.86 0 0 1-1.35.83 3.63 3.63 0 0 1-1 .12 2.78 2.78 0 0 1-2.67-1.44 4.07 4.07 0 0 1-.39-1.26 13.31 13.31 0 0 1-.12-2V855a23.45 23.45 0 0 1 .09-2.43 3 3 0 0 1 .39-1.26 3.29 3.29 0 0 1 1-1 3.66 3.66 0 0 1 3.33 0 3.57 3.57 0 0 1 1.21 1.15h.06V844h3.06v21.36h-3.06Zm-3-3.57a2.78 2.78 0 0 0 .36 1.5 1.25 1.25 0 0 0 1.14.57 1.38 1.38 0 0 0 1.11-.52 2.13 2.13 0 0 0 .42-1.37v-5.91a1.67 1.67 0 0 0-.43-1.19 1.48 1.48 0 0 0-1.1-.46 1.24 1.24 0 0 0-1.18.54 2.46 2.46 0 0 0-.32 1.26Zm11.37-1.52V861a1.47 1.47 0 0 0 .41 1.11 1.5 1.5 0 0 0 1.09.39 1.21 1.21 0 0 0 1.16-.51 2.73 2.73 0 0 0 .34-1h3.06a5.08 5.08 0 0 1-.31 1.8 4 4 0 0 1-.92 1.44 4.3 4.3 0 0 1-1.44 1 5.19 5.19 0 0 1-4.32-.24 4.11 4.11 0 0 1-1.56-1.59 4.15 4.15 0 0 1-.45-1.38 11.28 11.28 0 0 1-.12-1.71v-5a11.28 11.28 0 0 1 .12-1.71 4.15 4.15 0 0 1 .45-1.38 4.11 4.11 0 0 1 1.56-1.59 4.71 4.71 0 0 1 2.43-.6 4.89 4.89 0 0 1 1.91.36 4 4 0 0 1 1.44 1 4.64 4.64 0 0 1 .9 1.52 5.42 5.42 0 0 1 .31 1.86v4.2Zm0-2.4h3v-1.74a1.87 1.87 0 0 0-.4-1.31 1.47 1.47 0 0 0-1.1-.43 1.45 1.45 0 0 0-1.09.43 1.87 1.87 0 0 0-.41 1.31Zm13.89-6.36h3.06v1.47h.06a4.35 4.35 0 0 1 1.16-1.18 2.89 2.89 0 0 1 1.72-.47 2.73 2.73 0 0 1 1.65.48 4.92 4.92 0 0 1 1.08 1 6.44 6.44 0 0 1 1.26-1.08 3.5 3.5 0 0 1 1.92-.45 3.78 3.78 0 0 1 1.17.2 2.72 2.72 0 0 1 1.08.64 3.43 3.43 0 0 1 .78 1.15 4.47 4.47 0 0 1 .3 1.73v11.67h-3.06v-10.48a2 2 0 0 0-.39-1.32 1.35 1.35 0 0 0-1.11-.48 1.29 1.29 0 0 0-1.2.54 3 3 0 0 0-.33 1.56v10.23h-3.06v-10.53a2 2 0 0 0-.39-1.32 1.35 1.35 0 0 0-1.11-.48 1.29 1.29 0 0 0-1.2.54 3 3 0 0 0-.33 1.56v10.23h-3.06Zm17.45 5.1a11.28 11.28 0 0 1 .12-1.71 4.15 4.15 0 0 1 .45-1.38 4.11 4.11 0 0 1 1.56-1.59 5.22 5.22 0 0 1 4.86 0 4.11 4.11 0 0 1 1.56 1.59 4.15 4.15 0 0 1 .45 1.38 11.28 11.28 0 0 1 .12 1.71v5A11.28 11.28 0 0 1 635 862a4.15 4.15 0 0 1-.45 1.38 4.11 4.11 0 0 1-1.56 1.59 5.22 5.22 0 0 1-4.86 0 4.11 4.11 0 0 1-1.56-1.59 4.15 4.15 0 0 1-.45-1.38 11.28 11.28 0 0 1-.12-1.71Zm3.06 5.49a1.83 1.83 0 0 0 .41 1.3 1.42 1.42 0 0 0 1.09.44 1.44 1.44 0 0 0 1.1-.44 1.82 1.82 0 0 0 .4-1.3v-6a1.87 1.87 0 0 0-.4-1.31 1.47 1.47 0 0 0-1.1-.43 1.45 1.45 0 0 0-1.09.43 1.87 1.87 0 0 0-.41 1.31ZM643.5 864l-.57.61a2.86 2.86 0 0 1-1.35.83 3.63 3.63 0 0 1-1 .12 2.78 2.78 0 0 1-2.67-1.44 4.07 4.07 0 0 1-.39-1.26 13.31 13.31 0 0 1-.12-2V855a23.45 23.45 0 0 1 .09-2.43 3 3 0 0 1 .39-1.26 3.29 3.29 0 0 1 1-1 3.66 3.66 0 0 1 3.33 0 3.57 3.57 0 0 1 1.21 1.15h.06V844h3.06v21.36h-3.04Zm-3-3.57a2.78 2.78 0 0 0 .36 1.5 1.25 1.25 0 0 0 1.14.57 1.38 1.38 0 0 0 1.11-.52 2.13 2.13 0 0 0 .42-1.37v-5.91a1.67 1.67 0 0 0-.43-1.19 1.48 1.48 0 0 0-1.1-.51 1.24 1.24 0 0 0-1.18.54 2.46 2.46 0 0 0-.32 1.26Zm17.73 4.93h-3.06v-1.47h-.06a4.18 4.18 0 0 1-1.15 1.18 3 3 0 0 1-1.73.47 3.51 3.51 0 0 1-1.14-.2 2.63 2.63 0 0 1-1-.64 3.19 3.19 0 0 1-.72-1.16 4.78 4.78 0 0 1-.27-1.72v-11.67h3.06v10.53a2 2 0 0 0 .39 1.32 1.35 1.35 0 0 0 1.11.48 1.29 1.29 0 0 0 1.2-.54 3 3 0 0 0 .33-1.56v-10.23h3.06Zm2.34-21.36h3.06v17.07a1.67 1.67 0 0 0 .32 1.18 2 2 0 0 0 1.18.41v2.88a11 11 0 0 1-1.9-.16 3.28 3.28 0 0 1-1.44-.64 2.86 2.86 0 0 1-.9-1.3 6.23 6.23 0 0 1-.32-2.16Zm8.55 14.91V861a1.47 1.47 0 0 0 .41 1.11 1.5 1.5 0 0 0 1.09.39 1.21 1.21 0 0 0 1.16-.51 2.73 2.73 0 0 0 .34-1h3.06a5.08 5.08 0 0 1-.31 1.8 4 4 0 0 1-.92 1.44 4.3 4.3 0 0 1-1.44 1 5.19 5.19 0 0 1-4.32-.24 4.11 4.11 0 0 1-1.56-1.59 4.15 4.15 0 0 1-.45-1.38 11.28 11.28 0 0 1-.12-1.71v-5a11.28 11.28 0 0 1 .12-1.71 4.15 4.15 0 0 1 .45-1.38 4.11 4.11 0 0 1 1.56-1.59 4.71 4.71 0 0 1 2.43-.6 4.89 4.89 0 0 1 1.91.36 4 4 0 0 1 1.44 1 4.64 4.64 0 0 1 .9 1.52 5.42 5.42 0 0 1 .31 1.86v4.2Zm0-2.4h3v-1.74a1.87 1.87 0 0 0-.4-1.31 1.47 1.47 0 0 0-1.1-.43 1.45 1.45 0 0 0-1.09.43 1.87 1.87 0 0 0-.41 1.31Zm13.88-2.1a1.52 1.52 0 0 0-.49-1.17 1.62 1.62 0 0 0-1.07-.39 1.36 1.36 0 0 0-1.11.46 1.62 1.62 0 0 0-.39 1.07 1.79 1.79 0 0 0 .21.83 2 2 0 0 0 1.08.73l1.8.72a4.38 4.38 0 0 1 2.36 1.8A5 5 0 0 1 686 861a4.52 4.52 0 0 1-.34 1.78 4.66 4.66 0 0 1-.95 1.46 4.3 4.3 0 0 1-1.44 1 4.6 4.6 0 0 1-1.83.36 4.88 4.88 0 0 1-1.71-.3 4.22 4.22 0 0 1-1.42-.87 4.51 4.51 0 0 1-1-1.42 5.12 5.12 0 0 1-.42-2h2.88a2.92 2.92 0 0 0 .44 1.17 1.32 1.32 0 0 0 1.21.54 1.77 1.77 0 0 0 1.19-.44 1.46 1.46 0 0 0 .52-1.21 1.78 1.78 0 0 0-.33-1.08 2.6 2.6 0 0 0-1.2-.78l-1.47-.54a5 5 0 0 1-2.26-1.61 4.1 4.1 0 0 1-.83-2.59 4.47 4.47 0 0 1 .36-1.79 4.35 4.35 0 0 1 2.4-2.32 4.57 4.57 0 0 1 1.74-.33 4.31 4.31 0 0 1 1.73.34 4.15 4.15 0 0 1 2.26 2.34 4.74 4.74 0 0 1 .33 1.76Zm4.3 13.95a37.12 37.12 0 0 0 1.2-6.4q.33-3.32.33-6.62a41.35 41.35 0 0 0-.4-5.88 45.1 45.1 0 0 0-1.13-5.46h1a18.52 18.52 0 0 1 1.58 2.83 22.18 22.18 0 0 1 1.11 3.11 27.37 27.37 0 0 1 .66 3.19 22.11 22.11 0 0 1 .22 3 21.73 21.73 0 0 1-.24 3.16 23.42 23.42 0 0 1-1.83 6.29 18.77 18.77 0 0 1-1.5 2.73Zm-435.93-14.67-4.52 5.21 9.38 8.34L275 845h-7.3l-11.12 13.55-5.21-4.86z"/><path d="M355 870.82a1.92 1.92 0 0 0-.26-.17l-12.43-6a.39.39 0 0 1-.26-.42v-14.37a.39.39 0 0 1 .26-.42c3.73-1.69 7.46-3.4 11.18-5.1l2.15-1h.11a2 2 0 0 0 .25.14l12.78 5.86a.39.39 0 0 1 .27.42v14.34a.4.4 0 0 1-.27.42l-11.38 5.18c-.8.36-1.6.74-2.4 1.12Zm-11.79-20.68v13.48a.32.32 0 0 0 .21.33l11.58 5.49a1.45 1.45 0 0 0 .22.09 1.56 1.56 0 0 0 0-.2v-13.48c0-.22-.09-.29-.26-.37l-11.47-5.23Zm13.18 18.94.19-.08 11-5.22c.18-.08.19-.2.19-.36V850l-.29.13-3.11 1.52a.35.35 0 0 0-.23.36v6a.34.34 0 0 1-.21.35l-3.07 1.64-.27.12v-6.58l-.29.13-3.65 1.79a.38.38 0 0 0-.26.41v12.23Zm-11.86-19.49.09.07 10.88 4.91a.36.36 0 0 0 .25 0l3.8-1.81-.1-.08-10.51-4.93a.31.31 0 0 0-.25 0c-1.38.6-2.75 1.25-4.16 1.84Zm21.87-.1-.23-.12c-3.44-1.57-6.88-3.15-10.33-4.71a.53.53 0 0 0-.39 0c-.91.4-1.8.82-2.7 1.23l-.2.11 10.83 4.77a.28.28 0 0 0 .22 0Z" style="fill:#f7eec9"/></svg>