<svg id="c493bab1-5c02-42be-a6df-1ce80c06a208" data-name="Layer 1" xmlns="http://www.w3.org/2000/svg" viewBox="0 0 900 900"><title>ci-will-work-flat</title><rect width="900" height="900" style="fill:#07448e"/><path d="M138.63,112H131l-6.24-37h-.16l-6.16,37h-7.68l-8.48-57h8.64L115,91.16h.16L121.51,55h6.24l6.64,37h.16l3.92-37h8.64Z" style="fill:#f9c7e4"/><path d="M152.47,55h8.16v57h-8.16Z" style="fill:#f9c7e4"/><path d="M168.54,55h8.17v48.8h16.16V112H168.54Z" style="fill:#f9c7e4"/><path d="M198.14,55h8.16v48.8h16.16V112H198.14Z" style="fill:#f9c7e4"/><path d="M248,62.68h-9.44V55h27v7.68h-9.44V112H248Z" style="fill:#f9c7e4"/><path d="M269.18,55h8.16V79.4h10.08V55h8.16v57h-8.16V86.6H277.34V112h-8.16Z" style="fill:#f9c7e4"/><path d="M303.5,55h8.16v57H303.5Z" style="fill:#f9c7e4"/><path d="M346,71.4h-8.16V69.56a8.7,8.7,0,0,0-1.32-4.84,4.88,4.88,0,0,0-4.44-2,5.32,5.32,0,0,0-2.76.64A4.72,4.72,0,0,0,327.62,65a6.88,6.88,0,0,0-.84,2.32,15.41,15.41,0,0,0-.24,2.76,28.22,28.22,0,0,0,.12,2.84,5.05,5.05,0,0,0,.6,2,4.66,4.66,0,0,0,1.4,1.48,12.67,12.67,0,0,0,2.52,1.28l6.24,2.48a15.52,15.52,0,0,1,4.4,2.44,9.87,9.87,0,0,1,2.6,3.28,13.83,13.83,0,0,1,1.24,4.32,43.79,43.79,0,0,1,.32,5.56,29.3,29.3,0,0,1-.72,6.68,14.18,14.18,0,0,1-2.36,5.28,11.28,11.28,0,0,1-4.36,3.48,15.57,15.57,0,0,1-6.64,1.28,14.61,14.61,0,0,1-5.52-1A13.31,13.31,0,0,1,318,98.92v-3h8.16v2.56a6.67,6.67,0,0,0,1.32,4q1.32,1.8,4.44,1.8a7.14,7.14,0,0,0,3.24-.6A4.14,4.14,0,0,0,336.9,102a6.94,6.94,0,0,0,.76-2.68,34.61,34.61,0,0,0,.16-3.52,33.66,33.66,0,0,0-.16-3.68A5.84,5.84,0,0,0,337,89.8a4.14,4.14,0,0,0-1.44-1.44,19.88,19.88,0,0,0-2.44-1.2l-5.84-2.4Q322,82.6,320.18,79a19.68,19.68,0,0,1-1.8-8.92,20.6,20.6,0,0,1,.88-6.08,14.22,14.22,0,0,1,2.6-5,12.43,12.43,0,0,1,4.36-3.32,14.29,14.29,0,0,1,6.16-1.24,13.47,13.47,0,0,1,5.56,1.12,13.82,13.82,0,0,1,4.32,3A13.2,13.2,0,0,1,345,62.72a12,12,0,0,1,1,4.68Z" style="fill:#f9c7e4"/><path d="M400.78,112H393.1l-6.24-37h-.16l-6.16,37h-7.68l-8.48-57H373l4.08,36.16h.16L383.66,55h6.24l6.64,37h.16l3.92-37h8.64Z" style="fill:#f9c7e4"/><path d="M412.94,68.44a14.56,14.56,0,0,1,1.2-6.08A12.67,12.67,0,0,1,417.3,58a13.62,13.62,0,0,1,4.4-2.6,14.19,14.19,0,0,1,9.84,0,13.62,13.62,0,0,1,4.4,2.6,12.67,12.67,0,0,1,3.16,4.36,14.56,14.56,0,0,1,1.2,6.08V98.52a14.46,14.46,0,0,1-1.2,6.12,12.8,12.8,0,0,1-3.16,4.32,13.62,13.62,0,0,1-4.4,2.6,14.19,14.19,0,0,1-9.84,0,13.62,13.62,0,0,1-4.4-2.6,12.8,12.8,0,0,1-3.16-4.32,14.46,14.46,0,0,1-1.2-6.12Zm8.16,30.08a5.43,5.43,0,0,0,1.64,4.36,6.08,6.08,0,0,0,7.76,0,5.43,5.43,0,0,0,1.64-4.36V68.44a5.43,5.43,0,0,0-1.64-4.36,6.08,6.08,0,0,0-7.76,0,5.43,5.43,0,0,0-1.64,4.36Z" style="fill:#f9c7e4"/><path d="M447.5,55h13.12Q475,55,475,71.72a21.11,21.11,0,0,1-1.56,8.52A12.09,12.09,0,0,1,468,86l8.8,26h-8.64l-7.6-24.32h-4.88V112H447.5Zm8.16,25.44h4.64a8.23,8.23,0,0,0,3.44-.6,4.4,4.4,0,0,0,2-1.72,7.42,7.42,0,0,0,.92-2.76,30.2,30.2,0,0,0,0-7.6,7,7,0,0,0-1-2.8,4.57,4.57,0,0,0-2.12-1.72,9.71,9.71,0,0,0-3.6-.56h-4.24Z" style="fill:#f9c7e4"/><path d="M481.58,55h8.16V81h.16l11.92-26H510L498.86,77.8,512.06,112h-8.64l-9.28-25.28-4.4,8.24v17h-8.16Z" style="fill:#f9c7e4"/><path d="M514.38,66.68a12.06,12.06,0,0,1,3.6-8.6,12.71,12.71,0,0,1,3.92-2.6,12.62,12.62,0,0,1,10.2.24,11.07,11.07,0,0,1,4,3.36,21.69,21.69,0,0,1,1.32,2.08,11.5,11.5,0,0,1,.84,2,12.67,12.67,0,0,1,.44,2.44c.08.91.12,2,.12,3.2,0,1.39,0,2.55,0,3.48a22.26,22.26,0,0,1-.2,2.44,12.86,12.86,0,0,1-.4,1.8,6.38,6.38,0,0,1-.64,1.4l-5.52,9.44a13.15,13.15,0,0,0-1,2,5.59,5.59,0,0,0-.4,2.12v6.4h-8.16V90.44a10,10,0,0,1,.56-3.36A17.54,17.54,0,0,1,524.54,84l5.12-8.32a6.4,6.4,0,0,0,.84-2.24,15,15,0,0,0,.2-2.4V66.76a4,4,0,0,0-1.16-2.88,3.81,3.81,0,0,0-2.84-1.2,4.57,4.57,0,0,0-2.8,1,3.58,3.58,0,0,0-1.36,3V71.4h-8.16Zm8.16,37.12h8.16V112h-8.16Z" style="fill:#f9c7e4"/><path d="M560.14,55h12.24a18.12,18.12,0,0,1,5.92.88A11.49,11.49,0,0,1,582.94,59a12.32,12.32,0,0,1,2.88,5.24,33,33,0,0,1,.8,8.12,40.84,40.84,0,0,1-.44,6.44,13.68,13.68,0,0,1-1.88,5,11.93,11.93,0,0,1-4.48,4.36,15.09,15.09,0,0,1-7.36,1.56H568.3V112h-8.16Zm8.16,27h3.92a8.36,8.36,0,0,0,3.84-.72,4.62,4.62,0,0,0,2-2,7.78,7.78,0,0,0,.76-3c.08-1.17.12-2.48.12-3.92s0-2.6-.12-3.8a9,9,0,0,0-.72-3.12,4.61,4.61,0,0,0-1.88-2.08,7.26,7.26,0,0,0-3.68-.76H568.3Z" style="fill:#f9c7e4"/><path d="M592.7,55h13.12q14.4,0,14.4,16.72a21.11,21.11,0,0,1-1.56,8.52A12.09,12.09,0,0,1,613.18,86l8.8,26h-8.64l-7.6-24.32h-4.88V112H592.7Zm8.16,25.44h4.64a8.23,8.23,0,0,0,3.44-.6,4.45,4.45,0,0,0,2-1.72,7.42,7.42,0,0,0,.92-2.76,30.2,30.2,0,0,0,0-7.6,7,7,0,0,0-1-2.8,4.57,4.57,0,0,0-2.12-1.72,9.71,9.71,0,0,0-3.6-.56h-4.24Z" style="fill:#f9c7e4"/><path d="M626.29,68.44a14.56,14.56,0,0,1,1.21-6.08A12.54,12.54,0,0,1,630.66,58a13.52,13.52,0,0,1,4.4-2.6,14.19,14.19,0,0,1,9.84,0,13.58,13.58,0,0,1,4.39,2.6,12.7,12.7,0,0,1,3.17,4.36,14.56,14.56,0,0,1,1.2,6.08V98.52a14.46,14.46,0,0,1-1.2,6.12,12.82,12.82,0,0,1-3.17,4.32,13.58,13.58,0,0,1-4.39,2.6,14.19,14.19,0,0,1-9.84,0,13.52,13.52,0,0,1-4.4-2.6,12.67,12.67,0,0,1-3.16-4.32,14.46,14.46,0,0,1-1.21-6.12Zm8.17,30.08a5.4,5.4,0,0,0,1.64,4.36,6.08,6.08,0,0,0,7.76,0,5.43,5.43,0,0,0,1.64-4.36V68.44a5.43,5.43,0,0,0-1.64-4.36,6.08,6.08,0,0,0-7.76,0,5.4,5.4,0,0,0-1.64,4.36Z" style="fill:#f9c7e4"/><path d="M660.86,55h11.92a16.72,16.72,0,0,1,6.68,1.2A12.66,12.66,0,0,1,684,59.4,11.93,11.93,0,0,1,686.5,64a19.36,19.36,0,0,1,.76,5.4v2.08a18.11,18.11,0,0,1-.37,3.92,9.13,9.13,0,0,1-1.08,2.8,8.76,8.76,0,0,1-1.76,2.12A15.43,15.43,0,0,1,681.66,82a8.75,8.75,0,0,1,4.23,4,15.87,15.87,0,0,1,1.37,7.16v3.2q0,7.52-3.64,11.52T672,112H660.86ZM669,78.36h3.68c2.72,0,4.54-.68,5.48-2a10.56,10.56,0,0,0,1.4-6A9.06,9.06,0,0,0,678,64.6c-1-1.28-2.92-1.92-5.64-1.92H669Zm0,25.44h3.52a8.63,8.63,0,0,0,3.88-.72,5.06,5.06,0,0,0,2.12-2,7.58,7.58,0,0,0,.88-3c.1-1.17.16-2.45.16-3.84a24.29,24.29,0,0,0-.25-3.76,6,6,0,0,0-1-2.68,4.63,4.63,0,0,0-2.12-1.64,9.61,9.61,0,0,0-3.59-.56H669Z" style="fill:#f9c7e4"/><path d="M703,55h6.8l12.72,57h-8.16L712,99.72H700.86L698.46,112h-8.17Zm3.44,16.4h-.17l-4,20.64h8.17Z" style="fill:#f9c7e4"/><path d="M726.54,55h11.92a16.67,16.67,0,0,1,6.67,1.2,12.74,12.74,0,0,1,4.53,3.2,12,12,0,0,1,2.52,4.6,19.36,19.36,0,0,1,.76,5.4v2.08a18.18,18.18,0,0,1-.36,3.92,9.67,9.67,0,0,1-1.08,2.8,9,9,0,0,1-1.76,2.12,16,16,0,0,1-2.4,1.72,8.82,8.82,0,0,1,4.24,4,16,16,0,0,1,1.36,7.16v3.2q0,7.52-3.65,11.52t-11.63,4H726.54Zm8.16,23.36h3.68c2.72,0,4.54-.68,5.48-2a10.56,10.56,0,0,0,1.4-6q0-3.84-1.56-5.76t-5.65-1.92H734.7Zm0,25.44h3.51a8.65,8.65,0,0,0,3.89-.72,4.92,4.92,0,0,0,2.11-2,7.43,7.43,0,0,0,.89-3c.1-1.17.16-2.45.16-3.84a25.72,25.72,0,0,0-.24-3.76,6.25,6.25,0,0,0-1-2.68,4.74,4.74,0,0,0-2.12-1.64,9.73,9.73,0,0,0-3.61-.56H734.7Z" style="fill:#f9c7e4"/><path d="M760.62,55h8.16v48.8h16.16V112H760.62Z" style="fill:#f9c7e4"/><path d="M790.46,87.88,779.25,55h8.64l6.57,22.64h.16L801.17,55h8.64L798.62,87.88V112h-8.16Z" style="fill:#f9c7e4"/><path d="M78.48,708h4.25l8,35.6h-5.1L84.08,736h-7l-1.5,7.65h-5.1Zm2.15,10.25h-.1L78,731.15h5.1Z" style="fill:#f9c7e4"/><path d="M93,708h4.9l7.7,21.45h.1V708h5.1v35.6H106l-7.8-21.4h-.1v21.4H93Z" style="fill:#f9c7e4"/><path d="M115.38,708h7.55q4.35,0,6.65,2.42a9.44,9.44,0,0,1,2.3,6.78v16.65q0,5-2.42,7.37c-1.62,1.59-3.94,2.38-7,2.38h-7.1Zm5.1,30.8h2.35a3.76,3.76,0,0,0,3-1.08,5.18,5.18,0,0,0,.9-3.37V717.2a5.37,5.37,0,0,0-.85-3.25,3.61,3.61,0,0,0-3.1-1.15h-2.35Z" style="fill:#f9c7e4"/><path d="M167.13,743.6h-4.8l-3.9-23.1h-.1l-3.85,23.1h-4.8l-5.3-35.6h5.4l2.55,22.6h.1l4-22.6h3.9l4.15,23.15h.1L167,708h5.4Z" style="fill:#f9c7e4"/><path d="M175.78,708h5.1v35.6h-5.1Z" style="fill:#f9c7e4"/><path d="M189.18,712.8h-5.9V708h16.9v4.8h-5.9v30.8h-5.1Z" style="fill:#f9c7e4"/><path d="M202.43,708h5.1v15.25h6.3V708h5.1v35.6h-5.1V727.75h-6.3V743.6h-5.1Z" style="fill:#f9c7e4"/><path d="M249.23,735.65a8.05,8.05,0,0,1-.63,3.15,8.17,8.17,0,0,1-1.72,2.62,8.43,8.43,0,0,1-2.58,1.8,7.52,7.52,0,0,1-3.17.68,11.26,11.26,0,0,1-2.95-.4,7.22,7.22,0,0,1-2.7-1.38,7.42,7.42,0,0,1-2-2.57,9.41,9.41,0,0,1-.77-4V715.9a8.66,8.66,0,0,1,.6-3.25,7.67,7.67,0,0,1,1.7-2.6,8,8,0,0,1,2.62-1.73,9,9,0,0,1,3.38-.62,8.47,8.47,0,0,1,3.25.62,7.79,7.79,0,0,1,2.6,1.75,8,8,0,0,1,1.72,2.7,9.18,9.18,0,0,1,.63,3.43v2h-5.1v-1.7a4.1,4.1,0,0,0-.85-2.6,2.76,2.76,0,0,0-2.3-1.1,2.6,2.6,0,0,0-2.53,1.17,6.42,6.42,0,0,0-.62,3v18.2a4.72,4.72,0,0,0,.67,2.6,2.66,2.66,0,0,0,2.43,1,3.58,3.58,0,0,0,1.07-.18,2.69,2.69,0,0,0,1.05-.57,2.87,2.87,0,0,0,.78-1.1,4.47,4.47,0,0,0,.3-1.75v-1.75h5.1Z" style="fill:#f9c7e4"/><path d="M253.53,708h5.1v35.6h-5.1Z" style="fill:#f9c7e4"/><path d="M263.28,738.5h5.1v5.1l-5.1,3.7Z" style="fill:#f9c7e4"/><path d="M282.33,708h5.1v35.6h-5.1Z" style="fill:#f9c7e4"/><path d="M292.38,708h15.2v4.8h-10.1v10.8h8.8v4.8h-8.8v15.2h-5.1Z" style="fill:#f9c7e4"/><path d="M336.68,718.25h-5.1V717.1a5.46,5.46,0,0,0-.83-3A3,3,0,0,0,328,712.8a3.33,3.33,0,0,0-1.73.4,3,3,0,0,0-1.05,1,4.3,4.3,0,0,0-.52,1.45,9.69,9.69,0,0,0-.15,1.73,17.69,17.69,0,0,0,.07,1.77,3.11,3.11,0,0,0,.38,1.25,2.94,2.94,0,0,0,.87.93,7.91,7.91,0,0,0,1.58.8l3.9,1.55a9.71,9.71,0,0,1,2.75,1.52,6.24,6.24,0,0,1,1.62,2,9.07,9.07,0,0,1,.78,2.7,27.7,27.7,0,0,1,.2,3.48,18.26,18.26,0,0,1-.45,4.17,8.76,8.76,0,0,1-1.48,3.3A7,7,0,0,1,332,743.1a9.78,9.78,0,0,1-4.15.8,9.09,9.09,0,0,1-3.45-.65,8.26,8.26,0,0,1-2.75-1.78,8.3,8.3,0,0,1-2.5-6v-1.9h5.1v1.6a4.15,4.15,0,0,0,.82,2.52,3.23,3.23,0,0,0,2.78,1.13,4.45,4.45,0,0,0,2-.38,2.63,2.63,0,0,0,1.1-1,4.43,4.43,0,0,0,.48-1.68c.06-.67.1-1.4.1-2.2s0-1.7-.1-2.3a3.66,3.66,0,0,0-.43-1.45,2.59,2.59,0,0,0-.9-.9,12.68,12.68,0,0,0-1.52-.75L325,726.6a8.08,8.08,0,0,1-4.43-3.58,12.28,12.28,0,0,1-1.12-5.57,12.84,12.84,0,0,1,.55-3.8,8.72,8.72,0,0,1,1.62-3.1,7.81,7.81,0,0,1,2.73-2.08,9.06,9.06,0,0,1,3.85-.77,8.41,8.41,0,0,1,3.47.7,8.64,8.64,0,0,1,2.7,1.85,8.37,8.37,0,0,1,1.73,2.57,7.49,7.49,0,0,1,.6,2.93Z" style="fill:#f9c7e4"/><path d="M340.18,716.4a9.11,9.11,0,0,1,.75-3.8,7.79,7.79,0,0,1,2-2.72,8.53,8.53,0,0,1,2.75-1.63,8.87,8.87,0,0,1,6.15,0,8.53,8.53,0,0,1,2.75,1.63,7.81,7.81,0,0,1,2,2.72,9.11,9.11,0,0,1,.75,3.8v18.8a9,9,0,0,1-.75,3.82,7.83,7.83,0,0,1-2,2.7,8.53,8.53,0,0,1-2.75,1.63,8.87,8.87,0,0,1-6.15,0,8.53,8.53,0,0,1-2.75-1.63,7.8,7.8,0,0,1-2-2.7,9,9,0,0,1-.75-3.82Zm5.1,18.8a3.39,3.39,0,0,0,1,2.72,3.78,3.78,0,0,0,4.85,0,3.39,3.39,0,0,0,1-2.72V716.4a3.43,3.43,0,0,0-1-2.73,3.81,3.81,0,0,0-4.85,0,3.42,3.42,0,0,0-1,2.73Z" style="fill:#f9c7e4"/><path d="M361.78,708h4.9l6.55,18.85h.1l6.5-18.85h4.95v35.6h-5.1V722h-.1l-5.05,15.3H372L367,722h-.1V743.6h-5.1Z" style="fill:#f9c7e4"/><path d="M389.58,708h15.2v4.8h-10.1v10.45h8.8v4.8h-8.8V738.5h10.1v5.1h-15.2Z" style="fill:#f9c7e4"/><path d="M411.43,712.8h-5.9V708h16.9v4.8h-5.9v30.8h-5.1Z" style="fill:#f9c7e4"/><path d="M424.67,708h5.1v15.25h6.3V708h5.1v35.6h-5.1V727.75h-6.3V743.6h-5.1Z" style="fill:#f9c7e4"/><path d="M446.12,708h5.1v35.6h-5.1Z" style="fill:#f9c7e4"/><path d="M456,708h4.91l7.69,21.45h.1V708h5.1v35.6H469l-7.8-21.4h-.1v21.4H456Z" style="fill:#f9c7e4"/><path d="M478.07,716.4a9.11,9.11,0,0,1,.75-3.8,7.81,7.81,0,0,1,2-2.72,8.53,8.53,0,0,1,2.75-1.63,8.87,8.87,0,0,1,6.15,0,8.63,8.63,0,0,1,2.75,1.63,7.79,7.79,0,0,1,2,2.72,9.11,9.11,0,0,1,.75,3.8v1.8h-5.1v-1.8a3.42,3.42,0,0,0-1-2.73,3.81,3.81,0,0,0-4.85,0,3.43,3.43,0,0,0-1,2.73v18.8a3.39,3.39,0,0,0,1,2.72,3.78,3.78,0,0,0,4.85,0,3.39,3.39,0,0,0,1-2.72v-6.7H486V724h9.15v11.2a9,9,0,0,1-.75,3.82,7.8,7.8,0,0,1-2,2.7,8.63,8.63,0,0,1-2.75,1.63,8.87,8.87,0,0,1-6.15,0,8.53,8.53,0,0,1-2.75-1.63,7.83,7.83,0,0,1-2-2.7,9,9,0,0,1-.75-3.82Z" style="fill:#f9c7e4"/><path d="M509,708h7.55q4.35,0,6.65,2.42a9.44,9.44,0,0,1,2.3,6.78v16.65q0,5-2.42,7.37c-1.62,1.59-3.94,2.38-7,2.38H509Zm5.1,30.8h2.35a3.76,3.76,0,0,0,3.05-1.08,5.18,5.18,0,0,0,.9-3.37V717.2a5.37,5.37,0,0,0-.85-3.25,3.61,3.61,0,0,0-3.1-1.15h-2.35Z" style="fill:#f9c7e4"/><path d="M530,716.4a9.11,9.11,0,0,1,.75-3.8,7.81,7.81,0,0,1,2-2.72,8.42,8.42,0,0,1,2.75-1.63,8.89,8.89,0,0,1,3.07-.55,9,9,0,0,1,3.08.55,8.63,8.63,0,0,1,2.75,1.63,7.92,7.92,0,0,1,2,2.72,9.11,9.11,0,0,1,.75,3.8v18.8a9,9,0,0,1-.75,3.82,7.93,7.93,0,0,1-2,2.7,8.63,8.63,0,0,1-2.75,1.63,9,9,0,0,1-3.08.55,8.89,8.89,0,0,1-3.07-.55,8.42,8.42,0,0,1-2.75-1.63,7.83,7.83,0,0,1-2-2.7,9,9,0,0,1-.75-3.82Zm5.1,18.8a3.36,3.36,0,0,0,1,2.72,3.78,3.78,0,0,0,4.85,0,3.39,3.39,0,0,0,1-2.72V716.4a3.42,3.42,0,0,0-1-2.73,3.81,3.81,0,0,0-4.85,0,3.4,3.4,0,0,0-1,2.73Z" style="fill:#f9c7e4"/><path d="M551.57,708h15.2v4.8h-10.1v10.45h8.8v4.8h-8.8V738.5h10.1v5.1h-15.2Z" style="fill:#f9c7e4"/><path d="M586.57,718.25h-5.1V717.1a5.45,5.45,0,0,0-.82-3,3.06,3.06,0,0,0-2.78-1.27,3.29,3.29,0,0,0-1.72.4,3,3,0,0,0-1,1,4.31,4.31,0,0,0-.53,1.45,9.69,9.69,0,0,0-.15,1.73,17.34,17.34,0,0,0,.08,1.77,3.11,3.11,0,0,0,.37,1.25,2.86,2.86,0,0,0,.88.93,7.79,7.79,0,0,0,1.57.8l3.9,1.55a9.71,9.71,0,0,1,2.75,1.52,6.4,6.4,0,0,1,1.63,2,8.78,8.78,0,0,1,.77,2.7,27.7,27.7,0,0,1,.2,3.48,18.26,18.26,0,0,1-.45,4.17,8.75,8.75,0,0,1-1.47,3.3,7.13,7.13,0,0,1-2.73,2.18,9.75,9.75,0,0,1-4.15.8,9.17,9.17,0,0,1-3.45-.65,8.34,8.34,0,0,1-5.25-7.8v-1.9h5.1v1.6a4.16,4.16,0,0,0,.83,2.52,3.21,3.21,0,0,0,2.77,1.13,4.5,4.5,0,0,0,2-.38,2.63,2.63,0,0,0,1.1-1,4.44,4.44,0,0,0,.47-1.68,21.29,21.29,0,0,0,.1-2.2,20.74,20.74,0,0,0-.1-2.3,3.83,3.83,0,0,0-.42-1.45,2.59,2.59,0,0,0-.9-.9,13.75,13.75,0,0,0-1.53-.75l-3.65-1.5a8,8,0,0,1-4.42-3.58,12.27,12.27,0,0,1-1.13-5.57,12.84,12.84,0,0,1,.55-3.8,8.9,8.9,0,0,1,1.63-3.1,7.68,7.68,0,0,1,2.72-2.08,9.06,9.06,0,0,1,3.85-.77,8.42,8.42,0,0,1,3.48.7,8.64,8.64,0,0,1,2.7,1.85,8.34,8.34,0,0,1,1.72,2.57,7.49,7.49,0,0,1,.6,2.93Z" style="fill:#f9c7e4"/><path d="M599.67,708h15.2v4.8h-10.1v10.8h8.8v4.8h-8.8v15.2h-5.1Z" style="fill:#f9c7e4"/><path d="M621.32,708h4.25l7.95,35.6h-5.1l-1.5-7.65H620l-1.5,7.65h-5.1Zm2.15,10.25h-.1l-2.5,12.9H626Z" style="fill:#f9c7e4"/><path d="M636.17,708h5.1v35.6h-5.1Z" style="fill:#f9c7e4"/><path d="M646.22,708h5.1v30.5h10.1v5.1h-15.2Z" style="fill:#f9c7e4"/><path d="M664.42,738.5h5.1v5.1l-5.1,3.7Z" style="fill:#f9c7e4"/><path d="M686.67,712.8h-5.9V708h16.9v4.8h-5.9v30.8h-5.1Z" style="fill:#f9c7e4"/><path d="M699.92,708H705v15.25h6.3V708h5.1v35.6h-5.1V727.75H705V743.6h-5.1Z" style="fill:#f9c7e4"/><path d="M721.22,708h15.2v4.8h-10.1v10.45h8.8v4.8h-8.8V738.5h10.1v5.1h-15.2Z" style="fill:#f9c7e4"/><path d="M739.72,708h8.2q9,0,9,10.45a13.16,13.16,0,0,1-1,5.32,7.52,7.52,0,0,1-3.42,3.58L758,743.6h-5.4l-4.75-15.2h-3v15.2h-5.1Zm5.1,15.9h2.9a5.15,5.15,0,0,0,2.15-.38,2.72,2.72,0,0,0,1.22-1.07,4.47,4.47,0,0,0,.58-1.73,16.48,16.48,0,0,0,.15-2.37,16.73,16.73,0,0,0-.15-2.38,4.29,4.29,0,0,0-.63-1.75,2.8,2.8,0,0,0-1.32-1.07,6.1,6.1,0,0,0-2.25-.35h-2.65Z" style="fill:#f9c7e4"/><path d="M761,708h15.2v4.8h-10.1v10.45h8.8v4.8h-8.8V738.5h10.1v5.1H761Z" style="fill:#f9c7e4"/><path d="M789,708h5.1v35.6H789Z" style="fill:#f9c7e4"/><path d="M815.52,718.25h-5.1V717.1a5.46,5.46,0,0,0-.83-3,3,3,0,0,0-2.77-1.27,3.33,3.33,0,0,0-1.73.4,3,3,0,0,0-1.05,1,4.3,4.3,0,0,0-.52,1.45,9.69,9.69,0,0,0-.15,1.73,17.69,17.69,0,0,0,.07,1.77,3.11,3.11,0,0,0,.38,1.25,2.94,2.94,0,0,0,.87.93,7.91,7.91,0,0,0,1.58.8l3.9,1.55a9.71,9.71,0,0,1,2.75,1.52,6.24,6.24,0,0,1,1.62,2,9.07,9.07,0,0,1,.78,2.7,27.7,27.7,0,0,1,.2,3.48,18.26,18.26,0,0,1-.45,4.17,8.76,8.76,0,0,1-1.48,3.3,7,7,0,0,1-2.72,2.18,9.78,9.78,0,0,1-4.15.8,9.09,9.09,0,0,1-3.45-.65,8.26,8.26,0,0,1-2.75-1.78,8.3,8.3,0,0,1-2.5-6v-1.9h5.1v1.6a4.15,4.15,0,0,0,.82,2.52,3.23,3.23,0,0,0,2.78,1.13,4.45,4.45,0,0,0,2-.38,2.63,2.63,0,0,0,1.1-1,4.43,4.43,0,0,0,.48-1.68c.06-.67.1-1.4.1-2.2s0-1.7-.1-2.3a3.66,3.66,0,0,0-.43-1.45,2.5,2.5,0,0,0-.9-.9,12.68,12.68,0,0,0-1.52-.75l-3.65-1.5a8.08,8.08,0,0,1-4.43-3.58,12.28,12.28,0,0,1-1.12-5.57,12.84,12.84,0,0,1,.55-3.8,8.72,8.72,0,0,1,1.62-3.1,7.81,7.81,0,0,1,2.73-2.08,9.06,9.06,0,0,1,3.85-.77,8.41,8.41,0,0,1,3.47.7,8.64,8.64,0,0,1,2.7,1.85,8.37,8.37,0,0,1,1.73,2.57,7.49,7.49,0,0,1,.6,2.93Z" style="fill:#f9c7e4"/><path d="M834.27,708h4.25l7.94,35.6h-5.09l-1.5-7.65h-7l-1.5,7.65h-5.1Zm2.15,10.25h-.1l-2.5,12.9h5.1Z" style="fill:#f9c7e4"/><path d="M186.85,768H192v15.25h6.29V768h5.1v35.6h-5.1V787.75H192V803.6h-5.11Z" style="fill:#f9c7e4"/><path d="M208.3,768h5.1v35.6h-5.1Z" style="fill:#f9c7e4"/><path d="M218.05,776.4a9.11,9.11,0,0,1,.75-3.8,7.81,7.81,0,0,1,2-2.72,8.53,8.53,0,0,1,2.75-1.63,8.87,8.87,0,0,1,6.15,0,8.53,8.53,0,0,1,2.75,1.63,7.79,7.79,0,0,1,2,2.72,9.11,9.11,0,0,1,.75,3.8v1.8h-5.1v-1.8a3.42,3.42,0,0,0-1-2.73,3.81,3.81,0,0,0-4.85,0,3.43,3.43,0,0,0-1,2.73v18.8a3.39,3.39,0,0,0,1,2.72,3.78,3.78,0,0,0,4.85,0,3.39,3.39,0,0,0,1-2.72v-6.7H226V784h9.15v11.2a9,9,0,0,1-.75,3.82,7.8,7.8,0,0,1-2,2.7,8.53,8.53,0,0,1-2.75,1.63,8.87,8.87,0,0,1-6.15,0,8.53,8.53,0,0,1-2.75-1.63,7.83,7.83,0,0,1-2-2.7,9,9,0,0,1-.75-3.82Z" style="fill:#f9c7e4"/><path d="M239.65,768h5.1v15.25h6.3V768h5.1v35.6h-5.1V787.75h-6.3V803.6h-5.1Z" style="fill:#f9c7e4"/><path d="M261,768h15.2v4.8h-10.1v10.45h8.8v4.8h-8.8V798.5h10.1v5.1H261Z" style="fill:#f9c7e4"/><path d="M279.45,768h8.2q9,0,9,10.45a13.17,13.17,0,0,1-1,5.32,7.5,7.5,0,0,1-3.43,3.58l5.5,16.25h-5.4l-4.75-15.2h-3.05v15.2h-5.1Zm5.1,15.9h2.9a5.11,5.11,0,0,0,2.15-.38,2.74,2.74,0,0,0,1.23-1.07,4.64,4.64,0,0,0,.57-1.73,16.48,16.48,0,0,0,.15-2.37,16.73,16.73,0,0,0-.15-2.38,4.29,4.29,0,0,0-.62-1.75,2.83,2.83,0,0,0-1.33-1.07,6,6,0,0,0-2.25-.35h-2.65Z" style="fill:#f9c7e4"/><path d="M326.25,795.65a8.21,8.21,0,0,1-2.35,5.77,8.51,8.51,0,0,1-2.57,1.8,7.56,7.56,0,0,1-3.18.68,11.31,11.31,0,0,1-2.95-.4,7.12,7.12,0,0,1-4.67-4,9.25,9.25,0,0,1-.78-4V775.9a8.66,8.66,0,0,1,.6-3.25,7.67,7.67,0,0,1,1.7-2.6,8.08,8.08,0,0,1,2.63-1.73,8.91,8.91,0,0,1,3.37-.62,8.47,8.47,0,0,1,3.25.62,7.79,7.79,0,0,1,2.6,1.75,8,8,0,0,1,1.73,2.7,9.38,9.38,0,0,1,.62,3.43v2h-5.1v-1.7a4.1,4.1,0,0,0-.85-2.6,2.75,2.75,0,0,0-2.3-1.1,2.59,2.59,0,0,0-2.52,1.17,6.29,6.29,0,0,0-.63,3v18.2a4.72,4.72,0,0,0,.68,2.6,2.66,2.66,0,0,0,2.42,1,3.64,3.64,0,0,0,1.08-.18,2.84,2.84,0,0,0,1.05-.57,3,3,0,0,0,.77-1.1,4.47,4.47,0,0,0,.3-1.75v-1.75h5.1Z" style="fill:#f9c7e4"/><path d="M330.4,768h5.1v15.25h6.3V768h5.1v35.6h-5.1V787.75h-6.3V803.6h-5.1Z" style="fill:#f9c7e4"/><path d="M357.35,768h4.25l7.95,35.6h-5.1L363,796H356l-1.5,7.65h-5.1Zm2.15,10.25h-.1l-2.5,12.9H362Z" style="fill:#f9c7e4"/><path d="M371.85,768h4.9l7.7,21.45h.1V768h5.1v35.6h-4.8l-7.8-21.4H377v21.4h-5.1Z" style="fill:#f9c7e4"/><path d="M410.45,795.65a8.23,8.23,0,0,1-.62,3.15,8.36,8.36,0,0,1-1.73,2.62,8.51,8.51,0,0,1-2.57,1.8,7.6,7.6,0,0,1-3.18.68,11.26,11.26,0,0,1-3-.4,7.12,7.12,0,0,1-4.67-4,9.25,9.25,0,0,1-.78-4V775.9a8.66,8.66,0,0,1,.6-3.25,7.67,7.67,0,0,1,1.7-2.6,8,8,0,0,1,2.63-1.73,8.91,8.91,0,0,1,3.37-.62,8.47,8.47,0,0,1,3.25.62,7.79,7.79,0,0,1,2.6,1.75,8.18,8.18,0,0,1,1.73,2.7,9.38,9.38,0,0,1,.62,3.43v2h-5.1v-1.7a4.1,4.1,0,0,0-.85-2.6,2.75,2.75,0,0,0-2.3-1.1,2.59,2.59,0,0,0-2.52,1.17,6.29,6.29,0,0,0-.63,3v18.2a4.72,4.72,0,0,0,.68,2.6,2.65,2.65,0,0,0,2.42,1,3.69,3.69,0,0,0,1.08-.18,2.84,2.84,0,0,0,1-.57,3,3,0,0,0,.77-1.1,4.47,4.47,0,0,0,.3-1.75v-1.75h5.1Z" style="fill:#f9c7e4"/><path d="M414.6,768h15.2v4.8H419.7v10.45h8.8v4.8h-8.8V798.5h10.1v5.1H414.6Z" style="fill:#f9c7e4"/><path d="M442.55,768h5.1v35.6h-5.1Z" style="fill:#f9c7e4"/><path d="M456,772.8h-5.9V768H467v4.8h-5.9v30.8H456Z" style="fill:#f9c7e4"/><path d="M499.65,803.6h-4.8L491,780.5h-.1L487,803.6h-4.8L476.9,768h5.4l2.55,22.6h.1l4-22.6h3.9L497,791.15h.1L499.55,768H505Z" style="fill:#f9c7e4"/><path d="M508.3,768h5.1v35.6h-5.1Z" style="fill:#f9c7e4"/><path d="M518.35,768h5.1v30.5h10.1v5.1h-15.2Z" style="fill:#f9c7e4"/><path d="M536.85,768H542v30.5h10.1v5.1h-15.2Z" style="fill:#f9c7e4"/><path d="M564.65,768h7.45a10.43,10.43,0,0,1,4.17.75,8,8,0,0,1,2.83,2,7.39,7.39,0,0,1,1.57,2.87,11.9,11.9,0,0,1,.48,3.38v1.3a11.33,11.33,0,0,1-.23,2.45,5.85,5.85,0,0,1-.67,1.75,5.6,5.6,0,0,1-1.1,1.32,9.6,9.6,0,0,1-1.5,1.08,5.55,5.55,0,0,1,2.65,2.52,10.07,10.07,0,0,1,.85,4.48v2q0,4.7-2.28,7.2c-1.51,1.67-3.94,2.5-7.27,2.5h-7Zm5.1,14.6h2.3c1.7,0,2.84-.43,3.42-1.28a6.59,6.59,0,0,0,.88-3.72,5.62,5.62,0,0,0-1-3.6c-.65-.8-1.82-1.2-3.52-1.2h-2.1Zm0,15.9H572a5.35,5.35,0,0,0,2.42-.45,3.1,3.1,0,0,0,1.33-1.25,4.76,4.76,0,0,0,.55-1.9c.06-.73.1-1.53.1-2.4a16.09,16.09,0,0,0-.15-2.35,3.83,3.83,0,0,0-.63-1.68,2.9,2.9,0,0,0-1.32-1,6.1,6.1,0,0,0-2.25-.35h-2.25Z" style="fill:#f9c7e4"/><path d="M586,768h15.2v4.8h-10.1v10.45h8.8v4.8h-8.8V798.5h10.1v5.1H586Z" style="fill:#f9c7e4"/><path d="M630,795.65a8.05,8.05,0,0,1-.63,3.15,8.33,8.33,0,0,1-1.72,2.62,8.68,8.68,0,0,1-2.58,1.8,7.52,7.52,0,0,1-3.17.68,11.26,11.26,0,0,1-3-.4,7.22,7.22,0,0,1-2.7-1.38,7.42,7.42,0,0,1-2-2.57,9.26,9.26,0,0,1-.77-4V775.9a8.66,8.66,0,0,1,.6-3.25,7.52,7.52,0,0,1,1.7-2.6,7.93,7.93,0,0,1,2.62-1.73,9,9,0,0,1,3.38-.62,8.51,8.51,0,0,1,3.25.62,7.89,7.89,0,0,1,2.6,1.75,8.16,8.16,0,0,1,1.72,2.7,9.18,9.18,0,0,1,.63,3.43v2h-5.1v-1.7a4.16,4.16,0,0,0-.85-2.6,2.78,2.78,0,0,0-2.3-1.1,2.6,2.6,0,0,0-2.53,1.17,6.3,6.3,0,0,0-.62,3v18.2a4.72,4.72,0,0,0,.67,2.6,2.66,2.66,0,0,0,2.43,1,3.58,3.58,0,0,0,1.07-.18,2.81,2.81,0,0,0,1.83-1.67,4.47,4.47,0,0,0,.3-1.75v-1.75H630Z" style="fill:#f9c7e4"/><path d="M639.75,768H644l8,35.6h-5.1l-1.5-7.65h-7l-1.5,7.65h-5.1Zm2.15,10.25h-.1l-2.5,12.9h5.1Z" style="fill:#f9c7e4"/><path d="M671,795.6a8.13,8.13,0,0,1-.65,3.25,8.5,8.5,0,0,1-1.78,2.62,8.33,8.33,0,0,1-2.62,1.78,8.2,8.2,0,0,1-6.4,0,8.35,8.35,0,0,1-4.4-4.4,8,8,0,0,1-.65-3.25V768h5.1v27.1a3.81,3.81,0,0,0,.9,2.8,3.26,3.26,0,0,0,4.5,0,3.81,3.81,0,0,0,.9-2.8V768H671Z" style="fill:#f9c7e4"/><path d="M675.45,776.4a9.11,9.11,0,0,1,.75-3.8,7.79,7.79,0,0,1,2-2.72,8.53,8.53,0,0,1,2.75-1.63,8.87,8.87,0,0,1,6.15,0,8.53,8.53,0,0,1,2.75,1.63,7.81,7.81,0,0,1,2,2.72,9.11,9.11,0,0,1,.75,3.8v1.8h-5.1v-1.8a3.43,3.43,0,0,0-1-2.73,3.81,3.81,0,0,0-4.85,0,3.42,3.42,0,0,0-1,2.73v18.8a3.39,3.39,0,0,0,1,2.72,3.78,3.78,0,0,0,4.85,0,3.39,3.39,0,0,0,1-2.72v-6.7H683.4V784h9.15v11.2a9,9,0,0,1-.75,3.82,7.83,7.83,0,0,1-2,2.7,8.53,8.53,0,0,1-2.75,1.63,8.87,8.87,0,0,1-6.15,0,8.53,8.53,0,0,1-2.75-1.63,7.8,7.8,0,0,1-2-2.7,9,9,0,0,1-.75-3.82Z" style="fill:#f9c7e4"/><path d="M697.05,768h5.1v15.25h6.3V768h5.1v35.6h-5.1V787.75h-6.3V803.6h-5.1Z" style="fill:#f9c7e4"/><path d="M721.7,772.8h-5.9V768h16.9v4.8h-5.9v30.8h-5.1Z" style="fill:#f9c7e4"/><path d="M453.25,665.81h-.16a6.25,6.25,0,0,0-.77-.49q-18.37-8.87-36.76-17.69a1.18,1.18,0,0,1-.78-1.25q0-21.27,0-42.53a1.14,1.14,0,0,1,.78-1.23q16.54-7.53,33.07-15.11c2.13-1,4.24-2,6.37-3h.31c.25.13.5.29.76.41q18.9,8.68,37.81,17.35a1.14,1.14,0,0,1,.8,1.22q0,21.24,0,42.46a1.15,1.15,0,0,1-.81,1.23q-16.77,7.63-33.52,15.3C458,663.58,455.62,664.7,453.25,665.81Zm-34.91-61.19c0,.3,0,.5,0,.7q0,19.6,0,39.2a.91.91,0,0,0,.6,1l34.29,16.27c.19.09.41.16.65.25,0-.26,0-.42,0-.58q0-19.95,0-39.91a1,1,0,0,0-.78-1.08L419.12,605Zm39,56c.28-.12.43-.17.57-.24q16.33-7.73,32.68-15.43c.53-.25.56-.6.56-1.07q0-18.88,0-37.78v-2l-.87.39c-3.06,1.5-6.12,3-9.19,4.48a1,1,0,0,0-.68,1.08c0,5.87,0,11.75,0,17.62a1,1,0,0,1-.62,1c-3.09,1.67-6.17,3.37-9.25,5.06l-.78.36V614.71l-.86.39c-3.61,1.77-7.21,3.55-10.82,5.3a1.13,1.13,0,0,0-.75,1.19q0,18.1,0,36.2ZM422.26,603a2,2,0,0,0,.28.2l32.19,14.54a1,1,0,0,0,.74,0c3.74-1.77,7.47-3.57,11.25-5.37a1.84,1.84,0,0,0-.29-.22q-15.56-7.32-31.12-14.61a1,1,0,0,0-.73,0C430.5,599.34,426.42,601.15,422.26,603ZM487,602.7c-.28-.15-.48-.27-.69-.37q-15.27-7-30.55-13.92a1.58,1.58,0,0,0-1.17,0c-2.68,1.18-5.34,2.42-8,3.64a4.88,4.88,0,0,0-.57.33l.12.09q16,7,32,14.1a.89.89,0,0,0,.66,0C481.52,605.33,484.21,604,487,602.7Z" style="fill:#f7eec9"/><rect x="322.97" y="393.37" width="13" height="159.36" transform="translate(-246.58 495.26) rotate(-57.35)" style="fill:#f9c7e4"/><polygon points="362.86 520.62 393.32 513.96 386.64 483.51 402.4 493.6 409.07 524.05 378.62 530.72 362.86 520.62" style="fill:#f9c7e4"/><rect x="203.96" y="421.72" width="498.05" height="27.23" style="fill:#07448e"/><rect x="198.84" y="195.88" width="4.83" height="107.08" transform="translate(-118.47 227.29) rotate(-47.14)" style="fill:#f9c7e4"/><polygon points="227.87 285.3 239.45 284.87 239.02 273.29 244.12 278.02 244.55 289.6 232.97 290.03 227.87 285.3" style="fill:#f9c7e4"/><rect x="231.3" y="247.74" width="69.47" height="4.83" transform="translate(15.26 515.61) rotate(-89.87)" style="fill:#f9c7e4"/><polygon points="257.78 275.25 265.96 283.47 274.17 275.29 274.15 282.24 265.94 290.42 257.76 282.2 257.78 275.25" style="fill:#f9c7e4"/><rect x="275.7" y="248.11" width="109.42" height="4.83" transform="translate(-81.87 294.74) rotate(-43.29)" style="fill:#f9c7e4"/><polygon points="291.98 275.48 291.63 287.06 303.21 287.4 298.15 292.18 286.57 291.83 286.91 280.25 291.98 275.48" style="fill:#f9c7e4"/><rect x="126.5" y="210.96" width="264" height="8.92" style="fill:#07448e"/><path d="M170.68,340.62h-.08a2.64,2.64,0,0,0-.35-.23l-16.88-8.12a.53.53,0,0,1-.35-.57V312.18a.52.52,0,0,1,.35-.57q7.6-3.45,15.19-6.93l2.92-1.37h.14l.35.19,17.36,8a.52.52,0,0,1,.36.56q0,9.75,0,19.5a.53.53,0,0,1-.37.56q-7.69,3.5-15.38,7Zm-16-28.09c0,.14,0,.23,0,.33q0,9,0,18a.42.42,0,0,0,.28.44q7.88,3.72,15.74,7.47l.3.11c0-.12,0-.19,0-.26q0-9.17,0-18.32a.48.48,0,0,0-.36-.5L155,312.68Zm17.91,25.73.26-.11,15-7.08c.25-.12.26-.28.26-.49V312.31l-.4.19c-1.41.68-2.81,1.38-4.22,2.05a.47.47,0,0,0-.31.5c0,2.69,0,5.39,0,8.09a.47.47,0,0,1-.28.48c-1.42.76-2.83,1.54-4.25,2.32l-.36.17v-8.95l-.39.18-5,2.44a.51.51,0,0,0-.34.54q0,8.31,0,16.62Zm-16.11-26.48.13.1,14.78,6.67a.47.47,0,0,0,.33,0l5.17-2.47a.94.94,0,0,0-.14-.1l-14.28-6.7a.38.38,0,0,0-.33,0Zm29.72-.13-.32-.17q-7-3.19-14-6.39a.7.7,0,0,0-.53,0c-1.23.54-2.45,1.11-3.68,1.67l-.26.15.06,0,14.7,6.48a.39.39,0,0,0,.3,0C183.65,312.86,184.89,312.26,186.17,311.65Z" style="fill:#f7eec9"/><path d="M217.72,340.62h-.07a3.5,3.5,0,0,0-.35-.23l-16.88-8.12a.53.53,0,0,1-.36-.57q0-9.76,0-19.52a.53.53,0,0,1,.36-.57q7.61-3.45,15.18-6.93l2.93-1.37h.14l.35.19,17.35,8a.52.52,0,0,1,.37.56q0,9.75,0,19.5a.53.53,0,0,1-.37.56l-15.39,7Zm-16-28.09c0,.14,0,.23,0,.33q0,9,0,18a.42.42,0,0,0,.28.44q7.88,3.72,15.73,7.47l.31.11c0-.12,0-.19,0-.26q0-9.17,0-18.32a.48.48,0,0,0-.36-.5l-15.59-7.11Zm17.91,25.73.26-.11,15-7.08c.25-.12.26-.28.26-.49V312.31l-.4.19c-1.41.68-2.81,1.38-4.22,2.05a.47.47,0,0,0-.31.5c0,2.69,0,5.39,0,8.09a.48.48,0,0,1-.29.48c-1.42.76-2.83,1.54-4.24,2.32l-.36.17v-8.95l-.4.18-5,2.44a.51.51,0,0,0-.34.54q0,8.31,0,16.62ZM203.5,311.78a1.57,1.57,0,0,0,.13.1l14.77,6.67a.5.5,0,0,0,.34,0l5.17-2.47-.14-.1-14.28-6.7a.4.4,0,0,0-.34,0Zm29.71-.13-.31-.17q-7-3.19-14-6.39a.7.7,0,0,0-.53,0c-1.24.54-2.46,1.11-3.68,1.67-.09,0-.17.1-.26.15s0,0,.06,0l14.7,6.48a.39.39,0,0,0,.3,0C230.7,312.86,231.93,312.26,233.21,311.65Z" style="fill:#f7eec9"/><path d="M264.77,340.62h-.07a2.74,2.74,0,0,0-.36-.23l-16.87-8.12a.53.53,0,0,1-.36-.57q0-9.76,0-19.52a.53.53,0,0,1,.36-.57l15.18-6.93,2.92-1.37h.15l.34.19,17.36,8a.52.52,0,0,1,.37.56q0,9.75,0,19.5a.53.53,0,0,1-.37.56l-15.39,7Zm-16-28.09c0,.14,0,.23,0,.33q0,9,0,18a.42.42,0,0,0,.27.44q7.88,3.72,15.74,7.47l.3.11c0-.12,0-.19,0-.26q0-9.17,0-18.32a.48.48,0,0,0-.36-.5l-15.59-7.11Zm17.91,25.73.26-.11,15-7.08a.45.45,0,0,0,.26-.49q0-8.67,0-17.35v-.92l-.4.19c-1.4.68-2.8,1.38-4.21,2.05a.48.48,0,0,0-.32.5c0,2.69,0,5.39,0,8.09a.48.48,0,0,1-.29.48c-1.42.76-2.83,1.54-4.24,2.32l-.36.17v-8.95l-.4.18-5,2.44a.51.51,0,0,0-.35.54c0,5.54,0,11.08,0,16.62Zm-16.11-26.48.12.1,14.78,6.67a.5.5,0,0,0,.34,0L271,316.1a.91.91,0,0,0-.13-.1l-14.28-6.7a.4.4,0,0,0-.34,0Zm29.71-.13-.32-.17q-7-3.19-14-6.39a.72.72,0,0,0-.54,0c-1.23.54-2.45,1.11-3.67,1.67-.09,0-.17.1-.26.15l.05,0,14.71,6.48a.39.39,0,0,0,.3,0C277.75,312.86,279,312.26,280.26,311.65Z" style="fill:#f7eec9"/><path d="M311.82,340.62h-.07a2.74,2.74,0,0,0-.36-.23l-16.87-8.12a.52.52,0,0,1-.36-.57q0-9.76,0-19.52a.52.52,0,0,1,.36-.57l15.18-6.93,2.92-1.37h.15l.34.19,17.36,8a.52.52,0,0,1,.37.56q0,9.75,0,19.5a.53.53,0,0,1-.37.56q-7.71,3.5-15.39,7Zm-16-28.09c0,.14,0,.23,0,.33v18a.42.42,0,0,0,.27.44q7.88,3.72,15.74,7.47l.3.11c0-.12,0-.19,0-.26V320.29a.48.48,0,0,0-.36-.5l-15.58-7.11Zm17.91,25.73.26-.11q7.5-3.54,15-7.08c.24-.12.25-.28.25-.49V312.31l-.4.19c-1.4.68-2.81,1.38-4.22,2.05a.48.48,0,0,0-.31.5c0,2.69,0,5.39,0,8.09a.47.47,0,0,1-.28.48c-1.42.76-2.83,1.54-4.25,2.32l-.36.17v-8.95c-.17.09-.28.13-.39.18l-5,2.44a.51.51,0,0,0-.34.54c0,5.54,0,11.08,0,16.62Zm-16.12-26.48.13.1,14.78,6.67a.5.5,0,0,0,.34,0L318,316.1c-.06,0-.09-.08-.13-.1l-14.29-6.7a.38.38,0,0,0-.33,0Zm29.72-.13-.32-.17q-7-3.19-14-6.39a.7.7,0,0,0-.53,0c-1.23.54-2.45,1.11-3.67,1.67l-.27.15.06,0,14.71,6.48a.39.39,0,0,0,.3,0C324.8,312.86,326,312.26,327.31,311.65Z" style="fill:#f7eec9"/><path d="M358.87,340.62h-.08a2.12,2.12,0,0,0-.35-.23l-16.88-8.12a.53.53,0,0,1-.35-.57V312.18a.53.53,0,0,1,.35-.57q7.6-3.45,15.19-6.93l2.92-1.37h.14l.35.19,17.36,8a.52.52,0,0,1,.36.56q0,9.75,0,19.5a.52.52,0,0,1-.37.56q-7.69,3.5-15.38,7Zm-16-28.09c0,.14,0,.23,0,.33q0,9,0,18a.42.42,0,0,0,.28.44q7.88,3.72,15.74,7.47l.3.11c0-.12,0-.19,0-.26q0-9.17,0-18.32a.48.48,0,0,0-.36-.5l-15.58-7.11Zm17.91,25.73.26-.11,15-7.08c.25-.12.26-.28.26-.49V312.31l-.4.19c-1.41.68-2.81,1.38-4.22,2.05a.48.48,0,0,0-.31.5c0,2.69,0,5.39,0,8.09a.47.47,0,0,1-.28.48c-1.42.76-2.83,1.54-4.25,2.32l-.36.17v-8.95l-.39.18-5,2.44a.51.51,0,0,0-.34.54q0,8.31,0,16.62Zm-16.11-26.48.13.1,14.78,6.67a.47.47,0,0,0,.33,0l5.17-2.47a.94.94,0,0,0-.14-.1l-14.28-6.7a.38.38,0,0,0-.33,0Zm29.72-.13-.32-.17q-7-3.19-14-6.39a.7.7,0,0,0-.53,0c-1.23.54-2.45,1.11-3.68,1.67l-.26.15.06,0,14.7,6.48a.39.39,0,0,0,.3,0C371.84,312.86,373.08,312.26,374.36,311.65Z" style="fill:#f7eec9"/><path d="M285.65,431.38H238.94c.21-4.47,4-9.24,8.31-10.24a2.2,2.2,0,0,0,1.72-2,53.88,53.88,0,0,0,.61-7.38c0-2.86-.5-5.72-.51-8.59a18.2,18.2,0,0,1,1.88-8.11c2.11-4.3,5.54-6.52,10.39-6.41a31.83,31.83,0,0,1,3.66.11,10.37,10.37,0,0,1,8.34,6.38A23.58,23.58,0,0,1,275,408.54a26.72,26.72,0,0,0,0,9.52,8.15,8.15,0,0,0,.82,2.19,1.77,1.77,0,0,0,1.06.8,9.24,9.24,0,0,1,6.68,5.33C284.34,427.93,284.92,429.61,285.65,431.38Zm-13.42-26.64c-.81,1.56-1.73.83-2.68.34q-5.44-2.83-10.91-5.62c-1.52-.78-3-.66-4,.7a21.09,21.09,0,0,0-1.85,3.75c-.15.31-.18.74-.41.92-1.29,1-1,4.11.41,4.94a2,2,0,0,1,.78.85,16.13,16.13,0,0,0,3.75,5.68c3.07,2.87,6.6,2.9,9.7.05a15.23,15.23,0,0,0,3.76-5.66,2,2,0,0,1,.52-.86A3.64,3.64,0,0,0,272.23,404.74Zm-18.61,15.9c.65,2.11,4.85,4.33,8.51,4.33s7.83-2.21,8.53-4.36L268.25,418c-3.8,3.27-7.65,3.87-12.15,0Z" style="fill:#f7eec9"/><path d="M170.52,213.54H153.73a4.27,4.27,0,0,1,3-3.69.78.78,0,0,0,.61-.72,18.22,18.22,0,0,0,.22-2.65c0-1-.18-2.06-.18-3.09a6.61,6.61,0,0,1,.67-2.92,3.81,3.81,0,0,1,3.74-2.3,11.57,11.57,0,0,1,1.32,0,3.72,3.72,0,0,1,3,2.29,8.46,8.46,0,0,1,.57,4.82,9.64,9.64,0,0,0,0,3.43,3.26,3.26,0,0,0,.29.79.62.62,0,0,0,.39.28,3.35,3.35,0,0,1,2.4,1.92C170.05,212.3,170.26,212.9,170.52,213.54ZM165.7,204c-.29.56-.62.3-1,.12l-3.93-2a1,1,0,0,0-1.44.25,7.38,7.38,0,0,0-.67,1.35c0,.11-.06.27-.15.33a1.27,1.27,0,0,0,.15,1.78.63.63,0,0,1,.28.3,5.73,5.73,0,0,0,1.35,2,2.35,2.35,0,0,0,3.49,0,5.6,5.6,0,0,0,1.35-2,.74.74,0,0,1,.19-.31A1.32,1.32,0,0,0,165.7,204Zm-6.7,5.72c.24.75,1.75,1.55,3.07,1.55s2.81-.79,3.06-1.57l-.86-.95a3,3,0,0,1-4.37,0Z" style="fill:#f7eec9"/><path d="M378.66,213.54H361.87a4.27,4.27,0,0,1,3-3.69.8.8,0,0,0,.62-.72,19.71,19.71,0,0,0,.21-2.65c0-1-.18-2.06-.18-3.09a6.48,6.48,0,0,1,.68-2.92,3.79,3.79,0,0,1,3.73-2.3,11.57,11.57,0,0,1,1.32,0,3.72,3.72,0,0,1,3,2.29,8.46,8.46,0,0,1,.57,4.82,9.64,9.64,0,0,0,0,3.43,3.26,3.26,0,0,0,.29.79.65.65,0,0,0,.39.28,3.35,3.35,0,0,1,2.4,1.92C378.19,212.3,378.4,212.9,378.66,213.54ZM373.84,204c-.29.56-.62.3-1,.12l-3.93-2a1,1,0,0,0-1.44.25,7.38,7.38,0,0,0-.67,1.35c0,.11-.06.27-.15.33a1.27,1.27,0,0,0,.15,1.78.63.63,0,0,1,.28.3,5.73,5.73,0,0,0,1.35,2,2.35,2.35,0,0,0,3.49,0,5.48,5.48,0,0,0,1.35-2,.74.74,0,0,1,.19-.31A1.32,1.32,0,0,0,373.84,204Zm-6.69,5.72c.23.75,1.74,1.55,3.06,1.55s2.81-.79,3.06-1.57l-.86-.95a3,3,0,0,1-4.37,0Z" style="fill:#f7eec9"/><path d="M274.59,213.54H257.8a4.27,4.27,0,0,1,3-3.69.78.78,0,0,0,.61-.72,18.22,18.22,0,0,0,.22-2.65c0-1-.18-2.06-.18-3.09a6.61,6.61,0,0,1,.67-2.92,3.81,3.81,0,0,1,3.74-2.3,11.57,11.57,0,0,1,1.32,0,3.72,3.72,0,0,1,3,2.29,8.46,8.46,0,0,1,.57,4.82,9.64,9.64,0,0,0,0,3.43,3.26,3.26,0,0,0,.29.79.65.65,0,0,0,.39.28,3.35,3.35,0,0,1,2.4,1.92C274.12,212.3,274.33,212.9,274.59,213.54ZM269.77,204c-.29.56-.62.3-1,.12l-3.93-2a1,1,0,0,0-1.44.25,7.38,7.38,0,0,0-.67,1.35c0,.11-.06.27-.15.33a1.27,1.27,0,0,0,.15,1.78.63.63,0,0,1,.28.3,5.73,5.73,0,0,0,1.35,2,2.35,2.35,0,0,0,3.49,0,5.6,5.6,0,0,0,1.35-2,.74.74,0,0,1,.19-.31A1.32,1.32,0,0,0,269.77,204Zm-6.7,5.72c.24.75,1.75,1.55,3.07,1.55s2.81-.79,3.06-1.57l-.86-.95a3,3,0,0,1-4.37,0Z" style="fill:#f7eec9"/><path d="M124.38,176h0l-.13-.09-6.22-3a.2.2,0,0,1-.13-.21v-7.19a.2.2,0,0,1,.13-.21c1.87-.84,3.73-1.7,5.59-2.55l1.08-.5h0l.13.07,6.39,2.93a.19.19,0,0,1,.14.2q0,3.6,0,7.18a.19.19,0,0,1-.14.21l-5.67,2.59Zm-5.9-10.35s0,.09,0,.12v6.63a.16.16,0,0,0,.1.16l5.8,2.75.11,0v-6.84a.18.18,0,0,0-.13-.19l-5.74-2.61Zm6.6,9.48.09,0,5.53-2.61c.09,0,.09-.1.09-.18v-6.73l-.15.07-1.55.76a.17.17,0,0,0-.11.18v3a.17.17,0,0,1-.1.17l-1.57.86-.13.06v-3.29l-.15.06-1.82.9a.18.18,0,0,0-.13.2v6.61Zm-5.94-9.75,0,0,5.44,2.46a.19.19,0,0,0,.13,0l1.9-.9,0,0-5.26-2.47a.13.13,0,0,0-.12,0Zm11,0a.45.45,0,0,0-.12-.06l-5.16-2.36a.34.34,0,0,0-.2,0l-1.35.62a.31.31,0,0,0-.1.05l0,0,5.41,2.38h.12Z" style="fill:#f7eec9"/><path d="M141.71,176h0a.6.6,0,0,0-.13-.09l-6.21-3a.2.2,0,0,1-.14-.21c0-2.4,0-4.79,0-7.19a.2.2,0,0,1,.14-.21l5.59-2.55,1.07-.5h.06l.12.07,6.4,2.93a.18.18,0,0,1,.13.2v7.18a.19.19,0,0,1-.14.21l-5.66,2.59Zm-5.9-10.35a.57.57,0,0,0,0,.12v6.63a.15.15,0,0,0,.1.16l5.79,2.75.12,0v-6.84a.19.19,0,0,0-.13-.19l-5.74-2.61Zm6.59,9.48.1,0,5.52-2.61a.16.16,0,0,0,.1-.18v-6.73l-.15.07-1.55.76a.16.16,0,0,0-.12.18c0,1,0,2,0,3a.16.16,0,0,1-.11.17l-1.56.86-.13.06v-3.29l-.15.06-1.83.9a.19.19,0,0,0-.12.2c0,2,0,4.08,0,6.12Zm-5.93-9.75.05,0,5.44,2.46a.17.17,0,0,0,.12,0c.64-.29,1.27-.6,1.91-.9l-.05,0-5.26-2.47a.15.15,0,0,0-.13,0Zm10.94,0-.11-.06-5.17-2.36a.34.34,0,0,0-.2,0l-1.35.62-.1.05,0,0,5.42,2.38H146Z" style="fill:#f7eec9"/><path d="M159,176h0l-.13-.09-6.22-3a.2.2,0,0,1-.13-.21v-7.19a.2.2,0,0,1,.13-.21c1.87-.84,3.73-1.7,5.59-2.55l1.08-.5h0l.13.07,6.39,2.93a.19.19,0,0,1,.14.2q0,3.6,0,7.18a.19.19,0,0,1-.14.21l-5.67,2.59Zm-5.9-10.35v.12q0,3.31,0,6.63a.16.16,0,0,0,.1.16l5.8,2.75.11,0v-6.84a.18.18,0,0,0-.13-.19l-5.74-2.61Zm6.6,9.48.09,0,5.53-2.61c.09,0,.09-.1.09-.18v-6.73l-.15.07-1.55.76a.17.17,0,0,0-.11.18v3a.17.17,0,0,1-.1.17l-1.57.86-.13.06v-3.29l-.14.06-1.83.9a.18.18,0,0,0-.13.2v6.61Zm-5.93-9.75,0,0,5.44,2.46a.19.19,0,0,0,.13,0l1.9-.9-.05,0L156,164.46a.13.13,0,0,0-.12,0Zm10.94,0a.45.45,0,0,0-.12-.06l-5.16-2.36a.34.34,0,0,0-.2,0l-1.35.62a.31.31,0,0,0-.1.05l0,0,5.42,2.38h.11Z" style="fill:#f7eec9"/><path d="M176.36,176h0a.6.6,0,0,0-.13-.09l-6.21-3a.2.2,0,0,1-.13-.21v-7.19a.2.2,0,0,1,.13-.21l5.59-2.55,1.07-.5h.06l.12.07,6.4,2.93a.18.18,0,0,1,.13.2v7.18a.19.19,0,0,1-.13.21l-5.67,2.59Zm-5.9-10.35a.57.57,0,0,0,0,.12v6.63a.15.15,0,0,0,.1.16l5.79,2.75.12,0v-6.84a.19.19,0,0,0-.13-.19l-5.74-2.61Zm6.59,9.48.1,0,5.52-2.61a.16.16,0,0,0,.1-.18v-6.73l-.15.07-1.55.76a.16.16,0,0,0-.12.18c0,1,0,2,0,3a.16.16,0,0,1-.11.17l-1.56.86-.13.06v-3.29l-.15.06-1.83.9a.19.19,0,0,0-.12.2q0,3.06,0,6.12Zm-5.93-9.75,0,0,5.44,2.46a.17.17,0,0,0,.12,0c.64-.29,1.27-.6,1.91-.9l0,0-5.26-2.47a.15.15,0,0,0-.13,0Zm10.94,0-.11-.06-5.17-2.36a.34.34,0,0,0-.2,0l-1.35.62-.1.05,0,0,5.41,2.38h.11Z" style="fill:#f7eec9"/><path d="M193.68,176h0l-.13-.09-6.22-3a.2.2,0,0,1-.13-.21v-7.19a.2.2,0,0,1,.13-.21c1.87-.84,3.73-1.7,5.59-2.55l1.08-.5H194l.13.07,6.39,2.93a.19.19,0,0,1,.14.2q0,3.6,0,7.18a.19.19,0,0,1-.14.21l-5.67,2.59Zm-5.9-10.35v.12q0,3.31,0,6.63a.16.16,0,0,0,.1.16l5.8,2.75.11,0s0-.07,0-.1q0-3.36,0-6.74c0-.11,0-.15-.14-.19l-5.74-2.61Zm6.6,9.48.1,0,5.52-2.61c.09,0,.09-.1.09-.18v-6.73l-.14.07-1.56.76a.17.17,0,0,0-.11.18v3a.17.17,0,0,1-.1.17l-1.57.86-.13.06v-3.29l-.14.06-1.83.9a.18.18,0,0,0-.13.2v6.61Zm-5.93-9.75,0,0,5.44,2.46a.19.19,0,0,0,.13,0l1.9-.9-.05,0-5.26-2.47a.13.13,0,0,0-.12,0Zm10.94,0a.45.45,0,0,0-.12-.06l-5.16-2.36a.34.34,0,0,0-.2,0l-1.35.62a.31.31,0,0,0-.1.05l0,0L197.9,166H198Z" style="fill:#f7eec9"/><path d="M337.56,176h0a.6.6,0,0,0-.13-.09l-6.21-3a.2.2,0,0,1-.13-.21v-7.19a.2.2,0,0,1,.13-.21l5.59-2.55,1.08-.5h.05l.13.07,6.39,2.93a.18.18,0,0,1,.13.2v7.18a.19.19,0,0,1-.13.21l-5.67,2.59Zm-5.9-10.35s0,.09,0,.12v6.63a.16.16,0,0,0,.1.16l5.8,2.75.11,0v-6.84a.19.19,0,0,0-.13-.19l-5.74-2.61Zm6.6,9.48.09,0c1.84-.87,3.68-1.75,5.53-2.61.09,0,.09-.1.09-.18v-6.73l-.15.07-1.55.76a.17.17,0,0,0-.12.18c0,1,0,2,0,3a.16.16,0,0,1-.11.17l-1.56.86-.13.06v-3.29l-.15.06-1.83.9a.19.19,0,0,0-.12.2v6.61Zm-5.94-9.75.05,0,5.44,2.46a.19.19,0,0,0,.13,0l1.9-.9,0,0-5.26-2.47a.13.13,0,0,0-.12,0Zm10.95,0-.12-.06L338,162.91a.31.31,0,0,0-.19,0l-1.36.62-.09.05,0,0,5.41,2.38h.11Z" style="fill:#f7eec9"/><path d="M354.89,176h0a.6.6,0,0,0-.13-.09l-6.22-3a.2.2,0,0,1-.13-.21c0-2.4,0-4.79,0-7.19a.2.2,0,0,1,.13-.21c1.87-.84,3.73-1.7,5.6-2.55l1.07-.5h.06l.12.07,6.39,2.93a.19.19,0,0,1,.14.2v7.18a.19.19,0,0,1-.14.21l-5.66,2.59ZM349,165.65a.57.57,0,0,0,0,.12v6.63a.15.15,0,0,0,.1.16l5.79,2.75.11,0a.38.38,0,0,0,0-.1c0-2.24,0-4.49,0-6.74a.19.19,0,0,0-.13-.19l-5.74-2.61Zm6.59,9.48.1,0,5.52-2.61a.16.16,0,0,0,.1-.18q0-3.2,0-6.39v-.34l-.14.07-1.56.76a.17.17,0,0,0-.11.18v3a.16.16,0,0,1-.1.17l-1.56.86-.14.06v-3.29l-.14.06-1.83.9a.2.2,0,0,0-.13.2c0,2,0,4.08,0,6.12Zm-5.93-9.75,0,0,5.45,2.46a.17.17,0,0,0,.12,0l1.9-.9-.05,0-5.26-2.47a.13.13,0,0,0-.12,0Zm10.94,0-.12-.06-5.16-2.36a.34.34,0,0,0-.2,0l-1.35.62-.1.05,0,0L359.1,166h.11Z" style="fill:#f7eec9"/><path d="M372.21,176h0a.6.6,0,0,0-.13-.09l-6.21-3a.2.2,0,0,1-.13-.21v-7.19a.2.2,0,0,1,.13-.21l5.59-2.55,1.08-.5h.05l.13.07,6.39,2.93a.18.18,0,0,1,.13.2q0,3.6,0,7.18a.2.2,0,0,1-.14.21l-5.67,2.59Zm-5.9-10.35s0,.09,0,.12v6.63a.16.16,0,0,0,.1.16l5.8,2.75.11,0v-6.84a.19.19,0,0,0-.13-.19l-5.74-2.61Zm6.6,9.48.09,0c1.84-.87,3.68-1.75,5.53-2.61.09,0,.09-.1.09-.18v-6.73l-.15.07-1.55.76a.17.17,0,0,0-.12.18c0,1,0,2,0,3a.16.16,0,0,1-.11.17l-1.56.86-.13.06v-3.29l-.15.06-1.83.9a.19.19,0,0,0-.12.2v6.61ZM367,165.38l0,0,5.44,2.46a.19.19,0,0,0,.13,0l1.9-.9-.05,0-5.26-2.47a.13.13,0,0,0-.12,0Zm10.95,0-.12-.06-5.17-2.36a.31.31,0,0,0-.19,0l-1.36.62-.09.05,0,0,5.41,2.38h.11Z" style="fill:#f7eec9"/><path d="M389.54,176h0a.6.6,0,0,0-.13-.09l-6.21-3a.2.2,0,0,1-.14-.21c0-2.4,0-4.79,0-7.19a.19.19,0,0,1,.14-.21l5.59-2.55,1.07-.5h.06l.12.07,6.39,2.93a.19.19,0,0,1,.14.2v7.18a.19.19,0,0,1-.14.21l-5.66,2.59Zm-5.9-10.35a.57.57,0,0,0,0,.12v6.63a.15.15,0,0,0,.1.16l5.79,2.75.11,0a.38.38,0,0,0,0-.1v-6.74a.19.19,0,0,0-.13-.19l-5.74-2.61Zm6.59,9.48.1,0,5.52-2.61a.16.16,0,0,0,.1-.18v-6.73l-.15.07-1.56.76a.17.17,0,0,0-.11.18v3a.16.16,0,0,1-.1.17l-1.56.86-.14.06v-3.29l-.14.06-1.83.9a.2.2,0,0,0-.13.2c0,2,0,4.08,0,6.12Zm-5.93-9.75.05,0,5.44,2.46a.17.17,0,0,0,.12,0l1.9-.9-.05,0-5.26-2.47a.13.13,0,0,0-.12,0Zm10.94,0a.45.45,0,0,0-.12-.06L390,162.91a.34.34,0,0,0-.2,0l-1.35.62-.1.05,0,0,5.42,2.38h.11Z" style="fill:#f7eec9"/><path d="M406.86,176h0a1.1,1.1,0,0,0-.14-.09l-6.21-3a.2.2,0,0,1-.13-.21v-7.19a.2.2,0,0,1,.13-.21c1.87-.84,3.73-1.7,5.59-2.55l1.08-.5h0l.13.07,6.39,2.93a.19.19,0,0,1,.14.2q0,3.6,0,7.18a.19.19,0,0,1-.14.21l-5.67,2.59ZM401,165.65s0,.09,0,.12v6.63a.16.16,0,0,0,.1.16l5.8,2.75.11,0v-6.84a.18.18,0,0,0-.13-.19l-5.74-2.61Zm6.6,9.48.09,0c1.84-.87,3.68-1.75,5.53-2.61.09,0,.09-.1.09-.18v-6.73l-.15.07-1.55.76a.16.16,0,0,0-.11.18v3a.17.17,0,0,1-.1.17l-1.57.86-.13.06v-3.29l-.15.06-1.83.9a.19.19,0,0,0-.12.2v6.61Zm-5.94-9.75.05,0,5.44,2.46a.19.19,0,0,0,.13,0l1.9-.9-.05,0-5.26-2.47a.13.13,0,0,0-.12,0Zm10.95,0-.12-.06-5.17-2.36a.31.31,0,0,0-.19,0l-1.36.62-.09.05,0,0,5.41,2.38h.11Z" style="fill:#f7eec9"/><path d="M231,176h0a1.1,1.1,0,0,0-.14-.09l-6.21-3a.2.2,0,0,1-.13-.21v-7.19a.2.2,0,0,1,.13-.21c1.87-.84,3.73-1.7,5.59-2.55l1.08-.5h0l.13.07,6.39,2.93a.17.17,0,0,1,.13.2q0,3.6,0,7.18a.19.19,0,0,1-.14.21l-5.67,2.59Zm-5.9-10.35s0,.09,0,.12v6.63a.16.16,0,0,0,.1.16l5.8,2.75.11,0v-6.84a.18.18,0,0,0-.13-.19l-5.74-2.61Zm6.6,9.48.09,0c1.84-.87,3.68-1.75,5.53-2.61.09,0,.09-.1.09-.18v-6.73l-.15.07-1.55.76a.16.16,0,0,0-.11.18v3a.17.17,0,0,1-.1.17l-1.57.86-.13.06v-3.29l-.15.06-1.83.9a.19.19,0,0,0-.12.2v6.61Zm-5.94-9.75.05,0,5.44,2.46a.19.19,0,0,0,.13,0l1.9-.9-.05,0-5.26-2.47a.13.13,0,0,0-.12,0Zm11,0-.12-.06-5.17-2.36a.31.31,0,0,0-.19,0l-1.36.62-.09.05,0,0,5.41,2.38h.11Z" style="fill:#f7eec9"/><path d="M248.3,176h0a.6.6,0,0,0-.13-.09l-6.21-3a.2.2,0,0,1-.14-.21c0-2.4,0-4.79,0-7.19a.2.2,0,0,1,.14-.21l5.59-2.55,1.07-.5h.06l.12.07,6.4,2.93a.19.19,0,0,1,.13.2v7.18a.19.19,0,0,1-.14.21l-5.66,2.59Zm-5.9-10.35a.57.57,0,0,0,0,.12v6.63a.15.15,0,0,0,.1.16l5.79,2.75.11,0a.38.38,0,0,0,0-.1v-6.74a.19.19,0,0,0-.13-.19l-5.74-2.61Zm6.59,9.48.1,0,5.52-2.61a.16.16,0,0,0,.1-.18v-6.73l-.15.07-1.55.76a.16.16,0,0,0-.12.18v3a.16.16,0,0,1-.1.17l-1.56.86-.14.06v-3.29l-.14.06-1.83.9a.2.2,0,0,0-.13.2c0,2,0,4.08,0,6.12Zm-5.93-9.75.05,0,5.44,2.46a.17.17,0,0,0,.12,0l1.9-.9,0,0-5.26-2.47a.13.13,0,0,0-.12,0Zm10.94,0a.45.45,0,0,0-.12-.06l-5.16-2.36a.34.34,0,0,0-.2,0l-1.35.62-.1.05,0,0,5.42,2.38h.11Z" style="fill:#f7eec9"/><path d="M265.62,176h0l-.13-.09-6.22-3a.2.2,0,0,1-.13-.21v-7.19a.2.2,0,0,1,.13-.21c1.87-.84,3.73-1.7,5.59-2.55l1.08-.5H266l.13.07,6.39,2.93a.19.19,0,0,1,.14.2q0,3.6,0,7.18a.19.19,0,0,1-.14.21l-5.67,2.59Zm-5.9-10.35s0,.09,0,.12v6.63a.16.16,0,0,0,.1.16l5.8,2.75.11,0v-6.84a.18.18,0,0,0-.13-.19l-5.74-2.61Zm6.6,9.48.09,0,5.53-2.61c.09,0,.09-.1.09-.18v-6.73l-.15.07-1.55.76a.17.17,0,0,0-.11.18v3a.17.17,0,0,1-.1.17l-1.57.86-.13.06v-3.29l-.15.06-1.82.9a.18.18,0,0,0-.13.2v6.61Zm-5.94-9.75.05,0,5.44,2.46a.19.19,0,0,0,.13,0l1.9-.9,0,0-5.26-2.47a.13.13,0,0,0-.12,0Zm10.95,0a.45.45,0,0,0-.12-.06L266,162.91a.31.31,0,0,0-.19,0l-1.36.62-.09.05,0,0,5.41,2.38h.11Z" style="fill:#f7eec9"/><path d="M283,176h0a.6.6,0,0,0-.13-.09l-6.21-3a.2.2,0,0,1-.14-.21c0-2.4,0-4.79,0-7.19a.2.2,0,0,1,.14-.21l5.59-2.55,1.07-.5h.06l.12.07,6.4,2.93a.18.18,0,0,1,.13.2v7.18a.19.19,0,0,1-.14.21l-5.66,2.59Zm-5.9-10.35a.57.57,0,0,0,0,.12v6.63a.15.15,0,0,0,.1.16l5.79,2.75.11,0a.38.38,0,0,0,0-.1v-6.74a.19.19,0,0,0-.13-.19l-5.74-2.61Zm6.59,9.48.1,0,5.52-2.61a.16.16,0,0,0,.1-.18v-6.73l-.15.07-1.55.76a.16.16,0,0,0-.12.18v3a.15.15,0,0,1-.1.17l-1.56.86-.14.06v-3.29l-.14.06-1.83.9a.2.2,0,0,0-.13.2c0,2,0,4.08,0,6.12Zm-5.93-9.75.05,0,5.44,2.46a.17.17,0,0,0,.12,0c.64-.29,1.27-.6,1.9-.9l0,0-5.26-2.47a.15.15,0,0,0-.13,0Zm10.94,0a.45.45,0,0,0-.12-.06l-5.16-2.36a.34.34,0,0,0-.2,0l-1.35.62-.1.05,0,0,5.42,2.38h.11Z" style="fill:#f7eec9"/><path d="M300.27,176h0l-.13-.09-6.22-3a.2.2,0,0,1-.13-.21v-7.19a.2.2,0,0,1,.13-.21c1.87-.84,3.73-1.7,5.59-2.55l1.08-.5h.05l.13.07,6.39,2.93a.19.19,0,0,1,.14.2q0,3.6,0,7.18a.19.19,0,0,1-.14.21l-5.67,2.59Zm-5.9-10.35s0,.09,0,.12v6.63a.16.16,0,0,0,.1.16l5.8,2.75.11,0v-6.84a.18.18,0,0,0-.13-.19l-5.74-2.61Zm6.6,9.48.09,0,5.53-2.61c.09,0,.09-.1.09-.18v-6.73l-.15.07-1.55.76a.17.17,0,0,0-.11.18v3a.17.17,0,0,1-.1.17l-1.57.86-.13.06v-3.29l-.15.06-1.82.9a.18.18,0,0,0-.13.2v6.61ZM295,165.38l.05,0,5.44,2.46a.19.19,0,0,0,.13,0l1.9-.9-.05,0-5.26-2.47a.13.13,0,0,0-.12,0Zm11,0-.12-.06-5.17-2.36a.31.31,0,0,0-.19,0l-1.35.62-.1.05,0,0,5.41,2.38h.12Z" style="fill:#f7eec9"/><rect x="501.22" y="469.18" width="159.36" height="13" transform="translate(-164.84 388.58) rotate(-32.65)" style="fill:#f9c7e4"/><polygon points="523.72 486.14 517.04 516.6 547.5 523.25 531.75 533.35 501.3 526.68 507.97 496.24 523.72 486.14" style="fill:#f9c7e4"/><rect x="208.35" y="424.35" width="498.05" height="27.23" transform="translate(914.76 875.93) rotate(-180)" style="fill:#07448e"/><rect x="655.57" y="249.64" width="107.08" height="4.83" transform="translate(17.86 549.63) rotate(-42.86)" style="fill:#f9c7e4"/><polygon points="682.5 287.94 670.91 287.51 671.35 275.92 666.25 280.66 665.82 292.24 677.4 292.67 682.5 287.94" style="fill:#f9c7e4"/><rect x="641.91" y="218.06" width="4.83" height="69.47" transform="translate(-0.59 1.5) rotate(-0.13)" style="fill:#f9c7e4"/><polygon points="652.58 277.88 644.41 286.1 636.2 277.92 636.21 284.88 644.42 293.05 652.6 284.84 652.58 277.88" style="fill:#f9c7e4"/><rect x="577.54" y="198.45" width="4.83" height="109.42" transform="translate(-2 501.69) rotate(-46.71)" style="fill:#f9c7e4"/><polygon points="618.39 278.11 618.74 289.7 607.15 290.04 612.22 294.81 623.8 294.47 623.46 282.88 618.39 278.11" style="fill:#f9c7e4"/><rect x="519.87" y="213.6" width="264" height="8.92" transform="translate(1303.74 436.12) rotate(-180)" style="fill:#07448e"/><path d="M736.43,341.74l-15.39-7a.53.53,0,0,1-.37-.56q0-9.75,0-19.49a.52.52,0,0,1,.37-.56l17.36-8a2.27,2.27,0,0,0,.34-.19h.15c1,.46,1.94.93,2.92,1.37L757,314.25a.52.52,0,0,1,.36.57q0,9.75,0,19.52a.54.54,0,0,1-.36.57L740.12,343a2.74,2.74,0,0,0-.36.23h-.07C738.6,342.75,737.52,342.23,736.43,341.74Zm18.93-26.42-15.59,7.1c-.22.11-.36.21-.36.5q0,9.16,0,18.32c0,.07,0,.15,0,.27.11-.05.21-.07.3-.12l15.74-7.47a.41.41,0,0,0,.27-.44q0-9,0-18c0-.09,0-.19,0-.32ZM737.8,339.57c0-5.53,0-11.07,0-16.61a.52.52,0,0,0-.34-.55c-1.66-.8-3.32-1.62-5-2.43l-.4-.18v8.94l-.35-.17-4.25-2.32a.46.46,0,0,1-.28-.48q0-4,0-8.09a.47.47,0,0,0-.31-.49l-4.22-2.06-.4-.18v.92q0,8.67,0,17.34c0,.22,0,.38.26.49l15,7.09.26.11Zm10.46-27.65a.5.5,0,0,0-.34,0l-14.28,6.71a.76.76,0,0,0-.13.1l5.16,2.46a.5.5,0,0,0,.34,0l14.78-6.68a.51.51,0,0,0,.12-.09ZM728,316.07a.39.39,0,0,0,.3,0L743,309.59l.06,0-.27-.15c-1.22-.57-2.44-1.13-3.67-1.67a.77.77,0,0,0-.54,0l-14,6.4a3.5,3.5,0,0,0-.32.17Z" style="fill:#f7eec9"/><path d="M689.38,341.74l-15.38-7a.52.52,0,0,1-.38-.56c0-6.5,0-13,0-19.49a.51.51,0,0,1,.36-.56l17.36-8a2.27,2.27,0,0,0,.34-.19h.15c1,.46,1.94.93,2.92,1.37l15.18,6.94a.52.52,0,0,1,.36.57q0,9.75,0,19.52a.53.53,0,0,1-.36.57L693.07,343a2.12,2.12,0,0,0-.35.23h-.08C691.56,342.75,690.47,342.23,689.38,341.74Zm18.93-26.42-15.58,7.1c-.23.11-.36.21-.36.5v18.32c0,.07,0,.15,0,.27.11-.05.21-.07.3-.12l15.74-7.47a.41.41,0,0,0,.27-.44v-18c0-.09,0-.19,0-.32Zm-17.55,24.25q0-8.29,0-16.61a.52.52,0,0,0-.34-.55c-1.66-.8-3.31-1.62-5-2.43l-.39-.18v8.94l-.36-.17-4.25-2.32a.46.46,0,0,1-.28-.48c0-2.69,0-5.39,0-8.09a.47.47,0,0,0-.31-.49l-4.22-2.06-.4-.18v18.26c0,.22,0,.38.25.49l15,7.09.27.11Zm10.45-27.65a.47.47,0,0,0-.33,0l-14.29,6.71a.76.76,0,0,0-.13.1l5.16,2.46a.5.5,0,0,0,.34,0l14.78-6.68a.77.77,0,0,0,.13-.09C705,313.57,703.09,312.74,701.21,311.92Zm-20.31,4.15a.42.42,0,0,0,.31,0l14.7-6.47.06,0-.27-.15c-1.22-.57-2.44-1.13-3.67-1.67a.75.75,0,0,0-.53,0l-14,6.4a3.5,3.5,0,0,0-.32.17Z" style="fill:#f7eec9"/><path d="M642.34,341.74l-15.39-7a.53.53,0,0,1-.37-.56q0-9.75,0-19.49a.52.52,0,0,1,.36-.56l17.36-8a3,3,0,0,0,.35-.19h.14c1,.46,2,.93,2.93,1.37q7.57,3.48,15.18,6.94a.53.53,0,0,1,.36.57q0,9.75,0,19.52a.54.54,0,0,1-.36.57L646,343a3.5,3.5,0,0,0-.35.23h-.08C644.51,342.75,643.43,342.23,642.34,341.74Zm18.92-26.42-15.58,7.1c-.23.11-.36.21-.36.5q0,9.16,0,18.32c0,.07,0,.15,0,.27a3.11,3.11,0,0,0,.3-.12l15.74-7.47a.41.41,0,0,0,.28-.44q0-9,0-18c0-.09,0-.19,0-.32Zm-17.55,24.25q0-8.29,0-16.61a.52.52,0,0,0-.34-.55c-1.66-.8-3.31-1.62-5-2.43l-.39-.18v8.94l-.36-.17-4.25-2.32a.46.46,0,0,1-.28-.48c0-2.69,0-5.39,0-8.09a.46.46,0,0,0-.31-.49l-4.22-2.06c-.11-.06-.23-.1-.4-.18v18.26c0,.22,0,.38.26.49l15,7.09.26.11Zm10.45-27.65a.47.47,0,0,0-.33,0l-14.28,6.71a.53.53,0,0,0-.14.1l5.17,2.46a.47.47,0,0,0,.33,0l14.78-6.68a.77.77,0,0,0,.13-.09C657.91,313.57,656,312.74,654.16,311.92Zm-20.3,4.15a.39.39,0,0,0,.3,0l14.7-6.47.06,0-.26-.15c-1.23-.57-2.45-1.13-3.68-1.67a.75.75,0,0,0-.53,0l-14,6.4-.31.17Z" style="fill:#f7eec9"/><path d="M595.29,341.74l-15.39-7a.53.53,0,0,1-.37-.56q0-9.75,0-19.49a.52.52,0,0,1,.37-.56l17.35-8a3,3,0,0,0,.35-.19h.15c1,.46,1.94.93,2.92,1.37l15.18,6.94a.53.53,0,0,1,.36.57q0,9.75,0,19.52a.54.54,0,0,1-.36.57L599,343a3.5,3.5,0,0,0-.35.23h-.07C597.46,342.75,596.38,342.23,595.29,341.74Zm18.93-26.42-15.59,7.1c-.23.11-.36.21-.36.5q0,9.16,0,18.32c0,.07,0,.15,0,.27.12-.05.22-.07.31-.12l15.73-7.47a.41.41,0,0,0,.28-.44q0-9,0-18c0-.09,0-.19,0-.32Zm-17.56,24.25q0-8.29,0-16.61a.52.52,0,0,0-.34-.55c-1.66-.8-3.31-1.62-5-2.43l-.4-.18v8.94l-.36-.17-4.24-2.32a.47.47,0,0,1-.29-.48c0-2.69,0-5.39,0-8.09a.46.46,0,0,0-.31-.49l-4.22-2.06c-.11-.06-.23-.1-.4-.18v.92c0,5.78,0,11.56,0,17.34,0,.22,0,.38.26.49l15,7.09.26.11Zm10.46-27.65a.5.5,0,0,0-.34,0l-14.28,6.71-.14.1,5.17,2.46a.5.5,0,0,0,.34,0l14.77-6.68s.06,0,.13-.09Zm-20.31,4.15a.39.39,0,0,0,.3,0l14.71-6.47,0,0a1.74,1.74,0,0,0-.26-.15c-1.22-.57-2.44-1.13-3.67-1.67a.77.77,0,0,0-.54,0l-14,6.4-.31.17Z" style="fill:#f7eec9"/><path d="M548.24,341.74l-15.39-7a.53.53,0,0,1-.37-.56q0-9.75,0-19.49a.52.52,0,0,1,.37-.56l17.36-8a2.27,2.27,0,0,0,.34-.19h.15c1,.46,1.94.93,2.92,1.37l15.18,6.94a.53.53,0,0,1,.36.57q0,9.75,0,19.52a.54.54,0,0,1-.36.57L551.93,343a2.74,2.74,0,0,0-.36.23h-.07C550.41,342.75,549.33,342.23,548.24,341.74Zm18.93-26.42-15.59,7.1c-.22.11-.36.21-.36.5q0,9.16,0,18.32c0,.07,0,.15,0,.27.11-.05.21-.07.3-.12l15.74-7.47a.41.41,0,0,0,.27-.44c0-6,0-12,0-18,0-.09,0-.19,0-.32Zm-17.56,24.25c0-5.53,0-11.07,0-16.61a.52.52,0,0,0-.34-.55c-1.66-.8-3.32-1.62-5-2.43l-.4-.18v8.94l-.35-.17-4.25-2.32a.45.45,0,0,1-.28-.48q0-4,0-8.09a.47.47,0,0,0-.32-.49l-4.21-2.06-.4-.18v.92q0,8.67,0,17.34c0,.22,0,.38.26.49l15,7.09.26.11Zm10.46-27.65a.5.5,0,0,0-.34,0l-14.28,6.71a.5.5,0,0,0-.13.1l5.16,2.46a.5.5,0,0,0,.34,0l14.78-6.68a.51.51,0,0,0,.12-.09Zm-20.31,4.15a.39.39,0,0,0,.3,0l14.71-6.47.05,0a1.74,1.74,0,0,0-.26-.15c-1.22-.57-2.44-1.13-3.67-1.67a.77.77,0,0,0-.54,0l-14,6.4a3.5,3.5,0,0,0-.32.17Z" style="fill:#f7eec9"/><path d="M626.82,429a9.27,9.27,0,0,1,6.67-5.33,1.74,1.74,0,0,0,1.07-.79,8.64,8.64,0,0,0,.82-2.19,26.77,26.77,0,0,0,0-9.53A23.5,23.5,0,0,1,637,397.76a10.35,10.35,0,0,1,8.34-6.38,31.66,31.66,0,0,1,3.65-.1c4.85-.11,8.28,2.1,10.4,6.41a18.19,18.19,0,0,1,1.87,8.11c0,2.86-.49,5.72-.5,8.59a53.6,53.6,0,0,0,.61,7.37,2.18,2.18,0,0,0,1.71,2c4.27,1,8.11,5.78,8.31,10.24H624.71C625.45,432.24,626,430.57,626.82,429Zm12.26-16.54a1.81,1.81,0,0,1,.52.86,15.56,15.56,0,0,0,3.76,5.66c3.1,2.84,6.64,2.82,9.71-.06a16.14,16.14,0,0,0,3.75-5.67,1.89,1.89,0,0,1,.78-.85c1.44-.84,1.69-3.92.4-4.94-.23-.19-.26-.62-.4-.92a21.1,21.1,0,0,0-1.85-3.75,2.94,2.94,0,0,0-4-.71l-10.92,5.62c-.94.49-1.86,1.23-2.67-.33A3.64,3.64,0,0,0,639.08,412.47Zm15.19,8.13c-4.5,3.87-8.36,3.27-12.16,0l-2.4,2.65c.7,2.14,4.87,4.35,8.52,4.35s7.87-2.22,8.52-4.33Z" style="fill:#f7eec9"/><path d="M740.6,214.37a3.3,3.3,0,0,1,2.4-1.91.65.65,0,0,0,.38-.29,2.69,2.69,0,0,0,.3-.79,9.59,9.59,0,0,0,0-3.42,8.46,8.46,0,0,1,.58-4.82,3.72,3.72,0,0,1,3-2.3,11.41,11.41,0,0,1,1.31,0,3.78,3.78,0,0,1,3.74,2.3A6.47,6.47,0,0,1,753,206c0,1-.17,2.06-.18,3.08a19.74,19.74,0,0,0,.22,2.66.79.79,0,0,0,.62.72,4.29,4.29,0,0,1,3,3.68h-16.8C740.11,215.53,740.31,214.93,740.6,214.37Zm4.41-6a.74.74,0,0,1,.19.31,5.48,5.48,0,0,0,1.35,2,2.36,2.36,0,0,0,3.49,0,5.87,5.87,0,0,0,1.35-2,.7.7,0,0,1,.28-.31,1.25,1.25,0,0,0,.14-1.77c-.08-.07-.09-.22-.14-.33A7.38,7.38,0,0,0,751,205a1.05,1.05,0,0,0-1.44-.26l-3.93,2c-.34.18-.67.45-1-.12A1.3,1.3,0,0,0,745,208.42Zm5.46,2.93a3,3,0,0,1-4.37,0l-.87,1c.26.77,1.76,1.57,3.07,1.57s2.83-.8,3.06-1.56Z" style="fill:#f7eec9"/><path d="M532.46,214.37a3.3,3.3,0,0,1,2.4-1.91.65.65,0,0,0,.38-.29,3,3,0,0,0,.3-.79,9.59,9.59,0,0,0,0-3.42,8.46,8.46,0,0,1,.58-4.82,3.72,3.72,0,0,1,3-2.3,11.41,11.41,0,0,1,1.31,0,3.78,3.78,0,0,1,3.74,2.3,6.61,6.61,0,0,1,.67,2.92c0,1-.17,2.06-.18,3.08a19.74,19.74,0,0,0,.22,2.66.79.79,0,0,0,.62.72,4.29,4.29,0,0,1,3,3.68H531.7C532,215.53,532.17,214.93,532.46,214.37Zm4.41-6a.74.74,0,0,1,.19.31,5.48,5.48,0,0,0,1.35,2,2.36,2.36,0,0,0,3.49,0,5.7,5.7,0,0,0,1.34-2,.78.78,0,0,1,.29-.31,1.25,1.25,0,0,0,.14-1.77c-.08-.07-.09-.22-.14-.33a7.38,7.38,0,0,0-.67-1.35,1.05,1.05,0,0,0-1.44-.26l-3.93,2c-.34.18-.67.45-1-.12A1.3,1.3,0,0,0,536.87,208.42Zm5.46,2.93a3,3,0,0,1-4.37,0l-.87,1c.25.77,1.76,1.57,3.07,1.57s2.83-.8,3.06-1.56Z" style="fill:#f7eec9"/><path d="M636.53,214.37a3.3,3.3,0,0,1,2.4-1.91.65.65,0,0,0,.38-.29,3,3,0,0,0,.3-.79,9.59,9.59,0,0,0,0-3.42,8.46,8.46,0,0,1,.58-4.82,3.72,3.72,0,0,1,3-2.3,11.41,11.41,0,0,1,1.31,0,3.78,3.78,0,0,1,3.74,2.3,6.61,6.61,0,0,1,.67,2.92c0,1-.17,2.06-.18,3.08a19.74,19.74,0,0,0,.22,2.66.79.79,0,0,0,.62.72,4.29,4.29,0,0,1,3,3.68h-16.8C636,215.53,636.24,214.93,636.53,214.37Zm4.41-6a.74.74,0,0,1,.19.31,5.48,5.48,0,0,0,1.35,2,2.36,2.36,0,0,0,3.49,0,5.7,5.7,0,0,0,1.34-2,.78.78,0,0,1,.29-.31,1.25,1.25,0,0,0,.14-1.77c-.08-.07-.09-.22-.14-.33a7.38,7.38,0,0,0-.67-1.35,1.05,1.05,0,0,0-1.44-.26l-3.93,2c-.34.18-.67.45-1-.12A1.3,1.3,0,0,0,640.94,208.42Zm5.46,2.93a3,3,0,0,1-4.37,0l-.87,1c.26.77,1.76,1.57,3.07,1.57s2.83-.8,3.06-1.56Z" style="fill:#f7eec9"/><path d="M784.78,172.8l-5.66-2.59a.19.19,0,0,1-.14-.2v-7.18a.2.2,0,0,1,.14-.21l6.39-2.93.12-.07h.06l1.07.51,5.59,2.55a.2.2,0,0,1,.14.21q0,3.59,0,7.19a.21.21,0,0,1-.14.21l-6.21,3a.57.57,0,0,0-.13.08h0Zm7-9.73L786,165.69c-.08,0-.13.08-.13.18v6.75a.41.41,0,0,0,0,.1l.11-.05,5.79-2.75a.14.14,0,0,0,.1-.16v-6.62a.53.53,0,0,0,0-.12ZM785.29,172c0-2,0-4.07,0-6.11a.21.21,0,0,0-.13-.21l-1.83-.89-.14-.07V168l-.14-.07-1.56-.85a.17.17,0,0,1-.1-.18v-3a.17.17,0,0,0-.12-.18l-1.55-.76-.15-.06v6.72a.16.16,0,0,0,.1.18l5.52,2.61.1,0Zm3.85-10.18a.16.16,0,0,0-.12,0l-5.26,2.46,0,0,1.9.91a.17.17,0,0,0,.12,0l5.44-2.45.05,0Zm-7.48,1.53h.11l5.42-2.39h0l-.1-.06-1.35-.61a.23.23,0,0,0-.2,0l-5.16,2.35-.12.06Z" style="fill:#f7eec9"/><path d="M767.46,178.07l-5.67-2.58a.2.2,0,0,1-.14-.21c0-2.39,0-4.79,0-7.18a.2.2,0,0,1,.14-.21l6.39-2.93.13-.07h.05l1.08.51L775,168a.2.2,0,0,1,.13.21v7.19a.2.2,0,0,1-.13.21l-6.22,3-.13.08h0Zm7-9.73L768.69,171c-.09,0-.13.08-.13.18V178l.11-.05,5.8-2.75a.15.15,0,0,0,.1-.16v-6.62s0-.07,0-.12ZM768,177.27v-6.11a.18.18,0,0,0-.13-.2l-1.82-.9-.15-.07v3.3l-.13-.07-1.57-.85a.18.18,0,0,1-.1-.18v-3A.17.17,0,0,0,764,169l-1.55-.76-.15-.06v6.72c0,.08,0,.14.09.18l5.53,2.61.09,0Zm3.85-10.18a.17.17,0,0,0-.12,0l-5.26,2.46,0,0,1.9.91a.15.15,0,0,0,.13,0l5.44-2.45,0,0Zm-7.47,1.53h.11l5.41-2.39h0l-.09-.06-1.36-.61a.21.21,0,0,0-.19,0l-5.17,2.35L763,168Z" style="fill:#f7eec9"/><path d="M750.13,178.07l-5.66-2.58a.2.2,0,0,1-.14-.21V168.1a.21.21,0,0,1,.13-.21l6.4-2.93.12-.07H751l1.07.51L757.7,168a.2.2,0,0,1,.14.21q0,3.59,0,7.19a.2.2,0,0,1-.14.21l-6.21,3a.57.57,0,0,0-.13.08h0Zm7-9.73L751.36,171c-.08,0-.13.08-.13.18v6.75a.41.41,0,0,0,0,.1l.11-.05,5.79-2.75c.08,0,.1-.07.1-.16v-6.62a.53.53,0,0,0,0-.12Zm-6.46,8.93c0-2,0-4.07,0-6.11a.19.19,0,0,0-.13-.2l-1.83-.9-.14-.07v3.3l-.14-.07-1.56-.85a.16.16,0,0,1-.1-.18v-3a.17.17,0,0,0-.12-.18l-1.55-.76-.15-.06v6.72a.16.16,0,0,0,.1.18l5.52,2.61.1,0Zm3.85-10.18a.2.2,0,0,0-.13,0l-5.26,2.46,0,0,1.9.91a.13.13,0,0,0,.12,0l5.44-2.45.05,0ZM747,168.62h.11l5.42-2.39h0l-.1-.06-1.35-.61a.23.23,0,0,0-.2,0l-5.16,2.35-.12.06C746.1,168.19,746.55,168.41,747,168.62Z" style="fill:#f7eec9"/><path d="M732.81,178.07l-5.67-2.58a.2.2,0,0,1-.14-.21c0-2.39,0-4.79,0-7.18a.2.2,0,0,1,.14-.21l6.39-2.93.13-.07h.05l1.08.51,5.59,2.55a.2.2,0,0,1,.13.21v7.19a.2.2,0,0,1-.13.21l-6.22,3-.13.08h0Zm7-9.73L734,171c-.09,0-.13.08-.13.18V178l.11-.05,5.8-2.75a.15.15,0,0,0,.1-.16v-6.62s0-.07,0-.12Zm-6.47,8.93v-6.11a.18.18,0,0,0-.13-.2l-1.82-.9-.15-.07v3.3l-.13-.07-1.57-.85a.18.18,0,0,1-.1-.18v-3a.17.17,0,0,0-.11-.18l-1.55-.76-.15-.06v6.72c0,.08,0,.14.09.18l5.53,2.61.09,0Zm3.85-10.18a.17.17,0,0,0-.12,0l-5.26,2.46,0,0,1.9.91a.15.15,0,0,0,.13,0l5.44-2.45,0,0Zm-7.48,1.53h.12l5.41-2.39h0l-.1-.06-1.35-.61a.21.21,0,0,0-.19,0l-5.17,2.35-.12.06Z" style="fill:#f7eec9"/><path d="M715.48,178.07l-5.66-2.58a.2.2,0,0,1-.14-.21V168.1a.2.2,0,0,1,.13-.21l6.4-2.93.12-.07h.06l1.07.51,5.59,2.55a.2.2,0,0,1,.14.21q0,3.59,0,7.19a.2.2,0,0,1-.14.21l-6.21,3a.57.57,0,0,0-.13.08h0Zm7-9.73L716.71,171c-.08,0-.13.08-.13.18V178l.12-.05,5.79-2.75c.08,0,.1-.07.1-.16v-6.62a.53.53,0,0,0,0-.12ZM716,177.27c0-2,0-4.07,0-6.11a.17.17,0,0,0-.12-.2l-1.83-.9-.15-.07v3.3l-.13-.07-1.56-.85a.17.17,0,0,1-.11-.18c0-1,0-2,0-3A.17.17,0,0,0,712,169l-1.55-.76-.15-.06v6.72a.16.16,0,0,0,.1.18l5.52,2.61.1,0Zm3.85-10.18a.2.2,0,0,0-.13,0l-5.26,2.46-.05,0,1.91.91a.13.13,0,0,0,.12,0l5.44-2.45,0,0Zm-7.48,1.53h.11l5.42-2.39h0l-.1-.06-1.35-.61a.23.23,0,0,0-.2,0l-5.17,2.35L711,168C711.45,168.19,711.9,168.41,712.36,168.62Z" style="fill:#f7eec9"/><path d="M571.6,178.07l-5.66-2.58a.2.2,0,0,1-.14-.21c0-2.39,0-4.79,0-7.18a.2.2,0,0,1,.14-.21l6.39-2.93.13-.07h0l1.08.51,5.59,2.55a.2.2,0,0,1,.13.21v7.19a.2.2,0,0,1-.13.21l-6.22,3-.13.08h0C572.4,178.44,572,178.25,571.6,178.07Zm7-9.73L572.84,171c-.09,0-.14.08-.14.18,0,2.25,0,4.5,0,6.75,0,0,0,.05,0,.1l.11-.05,5.79-2.75a.14.14,0,0,0,.11-.16q0-3.32,0-6.62v-.12Zm-6.46,8.93v-6.11a.19.19,0,0,0-.13-.2l-1.83-.9L570,170v3.3l-.13-.07-1.57-.85a.17.17,0,0,1-.1-.18v-3a.17.17,0,0,0-.11-.18l-1.56-.76-.14-.06v6.72c0,.08,0,.14.09.18l5.52,2.61.1,0ZM576,167.09a.17.17,0,0,0-.12,0l-5.26,2.46-.05,0,1.9.91a.13.13,0,0,0,.12,0l5.45-2.45,0,0Zm-7.48,1.53h.11l5.42-2.39h0l-.1-.06-1.35-.61a.23.23,0,0,0-.2,0l-5.16,2.35-.12.06Z" style="fill:#f7eec9"/><path d="M554.28,178.07l-5.67-2.58a.21.21,0,0,1-.13-.21V168.1a.2.2,0,0,1,.13-.21L555,165l.13-.07h0l1.08.51,5.59,2.55a.2.2,0,0,1,.13.21v7.19a.2.2,0,0,1-.13.21l-6.21,3a.57.57,0,0,0-.13.08h0Zm7-9.73L555.51,171c-.08,0-.13.08-.13.18V178l.11-.05,5.8-2.75c.08,0,.1-.07.1-.16v-6.62s0-.07,0-.12Zm-6.47,8.93v-6.11a.18.18,0,0,0-.12-.2l-1.83-.9-.15-.07v3.3l-.13-.07-1.56-.85a.17.17,0,0,1-.11-.18c0-1,0-2,0-3a.18.18,0,0,0-.12-.18l-1.55-.76-.15-.06v6.72c0,.08,0,.14.09.18l5.53,2.61.09,0Zm3.86-10.18a.2.2,0,0,0-.13,0l-5.26,2.46,0,0,1.9.91a.15.15,0,0,0,.13,0l5.44-2.45.05,0Zm-7.48,1.53h.11l5.41-2.39h0l-.09-.06-1.36-.61a.21.21,0,0,0-.19,0l-5.17,2.35-.11.06Z" style="fill:#f7eec9"/><path d="M537,178.07l-5.66-2.58a.2.2,0,0,1-.14-.21V168.1a.2.2,0,0,1,.14-.21l6.39-2.93.13-.07h.05l1.08.51,5.59,2.55a.2.2,0,0,1,.13.21q0,3.59,0,7.19a.2.2,0,0,1-.13.21l-6.22,3-.13.08h0C537.75,178.44,537.36,178.25,537,178.07Zm7-9.73L538.19,171c-.09,0-.14.08-.14.18,0,2.25,0,4.5,0,6.75,0,0,0,.05,0,.1l.11-.05,5.79-2.75a.14.14,0,0,0,.11-.16q0-3.32,0-6.62a.53.53,0,0,0,0-.12Zm-6.46,8.93v-6.11a.19.19,0,0,0-.13-.2l-1.83-.9-.14-.07v3.3l-.14-.07-1.56-.85a.17.17,0,0,1-.1-.18v-3a.17.17,0,0,0-.11-.18l-1.56-.76-.14-.06v6.72c0,.08,0,.14.09.18l5.52,2.61.1,0Zm3.85-10.18a.17.17,0,0,0-.12,0l-5.26,2.46,0,0,1.9.91a.13.13,0,0,0,.12,0l5.45-2.45,0,0Zm-7.48,1.53h.11l5.42-2.39h0l-.1-.06-1.35-.61a.23.23,0,0,0-.2,0l-5.16,2.35-.12.06Z" style="fill:#f7eec9"/><path d="M519.63,178.07,514,175.49a.21.21,0,0,1-.13-.21V168.1a.2.2,0,0,1,.13-.21l6.39-2.93.13-.07h0l1.08.51L527.2,168a.2.2,0,0,1,.13.21v7.19a.2.2,0,0,1-.13.21l-6.21,3a.57.57,0,0,0-.13.08h0Zm7-9.73L520.86,171c-.08,0-.13.08-.13.18V178l.11-.05,5.8-2.75a.15.15,0,0,0,.1-.16v-6.62s0-.07,0-.12Zm-6.47,8.93v-6.11a.18.18,0,0,0-.12-.2l-1.83-.9L518,170v3.3l-.13-.07-1.56-.85a.17.17,0,0,1-.11-.18c0-1,0-2,0-3a.18.18,0,0,0-.12-.18l-1.55-.76-.15-.06v6.72c0,.08,0,.14.09.18l5.53,2.61.09,0ZM524,167.09a.17.17,0,0,0-.12,0l-5.26,2.46-.05,0,1.9.91a.15.15,0,0,0,.13,0l5.44-2.45.05,0Zm-7.47,1.53h.11l5.41-2.39h0l-.09-.06-1.36-.61a.21.21,0,0,0-.19,0l-5.17,2.35-.12.06Z" style="fill:#f7eec9"/><path d="M502.3,178.07l-5.66-2.58a.2.2,0,0,1-.14-.21V168.1a.2.2,0,0,1,.14-.21L503,165l.13-.07h0l1.07.51,5.59,2.55a.19.19,0,0,1,.14.21q0,3.59,0,7.19a.2.2,0,0,1-.13.21l-6.22,3a.57.57,0,0,0-.13.08h0C503.1,178.44,502.71,178.25,502.3,178.07Zm7-9.73L503.53,171c-.08,0-.13.08-.13.18,0,2.25,0,4.5,0,6.75a.41.41,0,0,0,0,.1l.11-.05,5.79-2.75c.08,0,.1-.07.1-.16v-6.62a.53.53,0,0,0,0-.12Zm-6.46,8.93c0-2,0-4.07,0-6.11a.19.19,0,0,0-.13-.2l-1.83-.9-.14-.07v3.3l-.14-.07-1.56-.85a.17.17,0,0,1-.1-.18v-3a.17.17,0,0,0-.11-.18l-1.56-.76-.14-.06v.34q0,3.18,0,6.38a.16.16,0,0,0,.1.18l5.52,2.61.1,0Zm3.85-10.18a.16.16,0,0,0-.12,0l-5.26,2.46,0,0,1.9.91a.13.13,0,0,0,.12,0l5.45-2.45,0,0Zm-7.48,1.53h.11l5.42-2.39h0l-.1-.06-1.35-.61a.23.23,0,0,0-.2,0l-5.16,2.35-.12.06Z" style="fill:#f7eec9"/><path d="M678.19,178.07l-5.66-2.58a.2.2,0,0,1-.14-.21V168.1a.2.2,0,0,1,.14-.21l6.39-2.93.12-.07h.06l1.07.51,5.6,2.55a.2.2,0,0,1,.13.21q0,3.59,0,7.19a.2.2,0,0,1-.13.21l-6.22,3a.57.57,0,0,0-.13.08h0Zm7-9.73L679.42,171c-.08,0-.13.08-.13.18,0,2.25,0,4.5,0,6.75a.41.41,0,0,0,0,.1l.11-.05,5.79-2.75c.08,0,.1-.07.1-.16v-6.62a.53.53,0,0,0,0-.12Zm-6.46,8.93c0-2,0-4.07,0-6.11a.19.19,0,0,0-.13-.2l-1.83-.9-.14-.07v3.3l-.14-.07-1.56-.85a.17.17,0,0,1-.1-.18v-3a.17.17,0,0,0-.11-.18l-1.56-.76-.14-.06v.34q0,3.18,0,6.38a.16.16,0,0,0,.1.18l5.52,2.61.1,0Zm3.85-10.18a.16.16,0,0,0-.12,0l-5.26,2.46,0,0,1.9.91a.13.13,0,0,0,.12,0l5.45-2.45,0,0Zm-7.48,1.53h.11l5.42-2.39h0l-.1-.06-1.35-.61a.23.23,0,0,0-.2,0l-5.16,2.35-.12.06Z" style="fill:#f7eec9"/><path d="M660.87,178.07l-5.67-2.58a.2.2,0,0,1-.13-.21V168.1a.2.2,0,0,1,.13-.21l6.39-2.93.13-.07h0l1.08.51,5.59,2.55a.2.2,0,0,1,.13.21v7.19a.2.2,0,0,1-.13.21l-6.21,3a.57.57,0,0,0-.13.08h0Zm7-9.73L662.1,171c-.08,0-.13.08-.13.18V178l.11-.05,5.8-2.75a.15.15,0,0,0,.1-.16v-6.62s0-.07,0-.12Zm-6.47,8.93v-6.11a.18.18,0,0,0-.12-.2l-1.83-.9-.15-.07v3.3l-.13-.07-1.56-.85a.17.17,0,0,1-.11-.18c0-1,0-2,0-3a.18.18,0,0,0-.12-.18l-1.55-.76-.15-.06v6.72c0,.08,0,.14.09.18l5.53,2.61.09,0Zm3.85-10.18a.17.17,0,0,0-.12,0l-5.26,2.46-.05,0,1.9.91a.15.15,0,0,0,.13,0l5.44-2.45,0,0Zm-7.47,1.53h.11l5.41-2.39h0l-.09-.06-1.36-.61a.21.21,0,0,0-.19,0l-5.17,2.35-.12.06Z" style="fill:#f7eec9"/><path d="M643.54,178.07l-5.66-2.58a.2.2,0,0,1-.14-.21V168.1a.2.2,0,0,1,.14-.21l6.39-2.93.12-.07h.06l1.07.51,5.59,2.55a.19.19,0,0,1,.14.21q0,3.59,0,7.19a.2.2,0,0,1-.14.21l-6.21,3a.57.57,0,0,0-.13.08h0Zm7-9.73L644.77,171c-.08,0-.13.08-.13.18v6.75a.41.41,0,0,0,0,.1l.11-.05,5.79-2.75c.08,0,.1-.07.1-.16v-6.62a.53.53,0,0,0,0-.12Zm-6.46,8.93c0-2,0-4.07,0-6.11a.19.19,0,0,0-.13-.2l-1.83-.9L642,170v3.3l-.14-.07-1.56-.85a.17.17,0,0,1-.1-.18v-3A.17.17,0,0,0,640,169l-1.56-.76-.15-.06v6.72a.16.16,0,0,0,.1.18l5.52,2.61.1,0Zm3.85-10.18a.16.16,0,0,0-.12,0l-5.26,2.46,0,0,1.9.91a.13.13,0,0,0,.12,0l5.44-2.45.05,0Zm-7.48,1.53h.11l5.42-2.39h0l-.1-.06-1.35-.61a.23.23,0,0,0-.2,0l-5.16,2.35L639,168Z" style="fill:#f7eec9"/><path d="M626.22,178.07l-5.67-2.58a.2.2,0,0,1-.14-.21c0-2.39,0-4.79,0-7.18a.2.2,0,0,1,.13-.21l6.39-2.93.13-.07h0l1.08.51,5.59,2.55a.2.2,0,0,1,.13.21v7.19a.2.2,0,0,1-.13.21l-6.21,3a.57.57,0,0,0-.13.08h0Zm7-9.73L627.45,171c-.08,0-.13.08-.13.18V178l.11-.05,5.8-2.75a.15.15,0,0,0,.1-.16v-6.62s0-.07,0-.12Zm-6.47,8.93v-6.11a.18.18,0,0,0-.12-.2l-1.83-.9-.15-.07v3.3l-.13-.07-1.56-.85a.17.17,0,0,1-.11-.18v-3a.16.16,0,0,0-.11-.18l-1.55-.76-.15-.06v6.72c0,.08,0,.14.09.18l5.53,2.61.09,0Zm3.85-10.18a.17.17,0,0,0-.12,0l-5.26,2.46-.05,0,1.9.91a.15.15,0,0,0,.13,0l5.44-2.45,0,0Zm-7.47,1.53h.11l5.41-2.39h0l-.09-.06-1.36-.61a.21.21,0,0,0-.19,0l-5.17,2.35-.12.06Z" style="fill:#f7eec9"/><path d="M608.89,178.07l-5.66-2.58a.2.2,0,0,1-.14-.21V168.1a.21.21,0,0,1,.13-.21l6.4-2.93.12-.07h.06l1.07.51,5.59,2.55a.2.2,0,0,1,.14.21q0,3.59,0,7.19a.2.2,0,0,1-.14.21l-6.21,3a.57.57,0,0,0-.13.08h0Zm7-9.73L610.12,171c-.08,0-.13.08-.13.18v6.75a.41.41,0,0,0,0,.1l.11-.05,5.79-2.75c.08,0,.1-.07.1-.16v-6.62a.53.53,0,0,0,0-.12Zm-6.46,8.93c0-2,0-4.07,0-6.11a.19.19,0,0,0-.13-.2l-1.83-.9-.14-.07v3.3l-.14-.07-1.56-.85a.17.17,0,0,1-.1-.18v-3a.17.17,0,0,0-.12-.18l-1.55-.76-.15-.06v6.72a.16.16,0,0,0,.1.18l5.52,2.61.1,0Zm3.85-10.18a.16.16,0,0,0-.12,0l-5.26,2.46,0,0,1.9.91a.13.13,0,0,0,.12,0l5.44-2.45.05,0Zm-7.48,1.53h.11l5.42-2.39h0l-.1-.06-1.35-.61a.23.23,0,0,0-.2,0l-5.16,2.35-.12.06C604.86,168.19,605.31,168.41,605.77,168.62Z" style="fill:#f7eec9"/><polygon points="434.95 538.47 425.85 548.97 444.75 565.77 482.55 520.97 467.85 520.97 445.45 548.27 434.95 538.47" style="fill:#f9c7e4"/><polygon points="160.02 363.27 154.78 369.31 165.66 378.98 187.41 353.2 178.95 353.2 166.06 368.91 160.02 363.27" style="fill:#f9c7e4"/><polygon points="207.67 363.27 202.43 369.31 213.31 378.98 235.06 353.2 226.6 353.2 213.71 368.91 207.67 363.27" style="fill:#f9c7e4"/><polygon points="255.32 363.27 250.09 369.31 260.96 378.98 282.71 353.2 274.25 353.2 261.36 368.91 255.32 363.27" style="fill:#f9c7e4"/><polygon points="302.98 363.27 297.74 369.31 308.62 378.98 330.37 353.2 321.91 353.2 309.02 368.91 302.98 363.27" style="fill:#f9c7e4"/><polygon points="350.63 363.27 345.39 369.31 356.27 378.98 378.02 353.2 369.56 353.2 356.67 368.91 350.63 363.27" style="fill:#f9c7e4"/><polygon points="119.03 188.43 117.01 190.76 121.2 194.49 129.59 184.55 126.33 184.55 121.36 190.61 119.03 188.43" style="fill:#f9c7e4"/><polygon points="137.4 188.43 135.38 190.76 139.58 194.49 147.96 184.55 144.7 184.55 139.73 190.61 137.4 188.43" style="fill:#f9c7e4"/><polygon points="155.78 188.43 153.76 190.76 157.95 194.49 166.34 184.55 163.07 184.55 158.1 190.61 155.78 188.43" style="fill:#f9c7e4"/><polygon points="174.15 188.43 172.13 190.76 176.32 194.49 184.71 184.55 181.45 184.55 176.48 190.61 174.15 188.43" style="fill:#f9c7e4"/><polygon points="192.52 188.43 190.5 190.76 194.7 194.49 203.08 184.55 199.82 184.55 194.85 190.61 192.52 188.43" style="fill:#f9c7e4"/><polygon points="225.31 188.43 223.29 190.76 227.49 194.49 235.88 184.55 232.61 184.55 227.64 190.61 225.31 188.43" style="fill:#f9c7e4"/><polygon points="243.69 188.43 241.67 190.76 245.86 194.49 254.25 184.55 250.99 184.55 246.02 190.61 243.69 188.43" style="fill:#f9c7e4"/><polygon points="262.06 188.43 260.04 190.76 264.24 194.49 272.62 184.55 269.36 184.55 264.39 190.61 262.06 188.43" style="fill:#f9c7e4"/><polygon points="280.43 188.43 278.42 190.76 282.61 194.49 291 184.55 287.73 184.55 282.76 190.61 280.43 188.43" style="fill:#f9c7e4"/><polygon points="298.81 188.43 296.79 190.76 300.98 194.49 309.37 184.55 306.11 184.55 301.14 190.61 298.81 188.43" style="fill:#f9c7e4"/><polygon points="332.48 188.43 330.46 190.76 334.65 194.49 343.04 184.55 339.78 184.55 334.81 190.61 332.48 188.43" style="fill:#f9c7e4"/><polygon points="350.85 188.43 348.83 190.76 353.03 194.49 361.41 184.55 358.15 184.55 353.18 190.61 350.85 188.43" style="fill:#f9c7e4"/><polygon points="369.23 188.43 367.21 190.76 371.4 194.49 379.79 184.55 376.52 184.55 371.55 190.61 369.23 188.43" style="fill:#f9c7e4"/><polygon points="387.6 188.43 385.58 190.76 389.77 194.49 398.16 184.55 394.9 184.55 389.93 190.61 387.6 188.43" style="fill:#f9c7e4"/><polygon points="405.97 188.43 403.95 190.76 408.15 194.49 416.53 184.55 413.27 184.55 408.3 190.61 405.97 188.43" style="fill:#f9c7e4"/><polygon points="498.49 188.43 496.48 190.76 500.67 194.49 509.06 184.55 505.79 184.55 500.82 190.61 498.49 188.43" style="fill:#f9c7e4"/><polygon points="516.87 188.43 514.85 190.76 519.04 194.49 527.43 184.55 524.17 184.55 519.2 190.61 516.87 188.43" style="fill:#f9c7e4"/><polygon points="535.24 188.43 533.22 190.76 537.42 194.49 545.8 184.55 542.54 184.55 537.57 190.61 535.24 188.43" style="fill:#f9c7e4"/><polygon points="553.62 188.43 551.6 190.76 555.79 194.49 564.18 184.55 560.91 184.55 555.95 190.61 553.62 188.43" style="fill:#f9c7e4"/><polygon points="571.99 188.43 569.97 190.76 574.16 194.49 582.55 184.55 579.29 184.55 574.32 190.61 571.99 188.43" style="fill:#f9c7e4"/><polygon points="604.78 188.43 602.76 190.76 606.95 194.49 615.34 184.55 612.08 184.55 607.11 190.61 604.78 188.43" style="fill:#f9c7e4"/><polygon points="623.15 188.43 621.13 190.76 625.33 194.49 633.72 184.55 630.45 184.55 625.48 190.61 623.15 188.43" style="fill:#f9c7e4"/><polygon points="641.53 188.43 639.51 190.76 643.7 194.49 652.09 184.55 648.83 184.55 643.86 190.61 641.53 188.43" style="fill:#f9c7e4"/><polygon points="659.9 188.43 657.88 190.76 662.08 194.49 670.46 184.55 667.2 184.55 662.23 190.61 659.9 188.43" style="fill:#f9c7e4"/><polygon points="678.27 188.43 676.25 190.76 680.45 194.49 688.84 184.55 685.57 184.55 680.6 190.61 678.27 188.43" style="fill:#f9c7e4"/><polygon points="711.94 188.43 709.92 190.76 714.12 194.49 722.51 184.55 719.24 184.55 714.27 190.61 711.94 188.43" style="fill:#f9c7e4"/><polygon points="730.32 188.43 728.3 190.76 732.49 194.49 740.88 184.55 737.62 184.55 732.65 190.61 730.32 188.43" style="fill:#f9c7e4"/><polygon points="748.69 188.43 746.67 190.76 750.87 194.49 759.25 184.55 755.99 184.55 751.02 190.61 748.69 188.43" style="fill:#f9c7e4"/><polygon points="767.07 188.43 765.05 190.76 769.24 194.49 777.63 184.55 774.37 184.55 769.39 190.61 767.07 188.43" style="fill:#f9c7e4"/><polygon points="785.44 188.43 783.42 190.76 787.61 194.49 796 184.55 792.74 184.55 787.77 190.61 785.44 188.43" style="fill:#f9c7e4"/><polygon points="538.6 364.15 533.37 370.19 544.24 379.86 566 354.08 557.54 354.08 544.65 369.79 538.6 364.15" style="fill:#f9c7e4"/><polygon points="586.26 364.15 581.02 370.19 591.9 379.86 613.65 354.08 605.19 354.08 592.3 369.79 586.26 364.15" style="fill:#f9c7e4"/><polygon points="633.91 364.15 628.67 370.19 639.55 379.86 661.3 354.08 652.84 354.08 639.95 369.79 633.91 364.15" style="fill:#f9c7e4"/><polygon points="681.56 364.15 676.33 370.19 687.2 379.86 708.96 354.08 700.5 354.08 687.61 369.79 681.56 364.15" style="fill:#f9c7e4"/><polygon points="729.22 364.15 723.98 370.19 734.86 379.86 756.61 354.08 748.15 354.08 735.26 369.79 729.22 364.15" style="fill:#f9c7e4"/><path d="M205.7,844a37.3,37.3,0,0,0-1.2,6.4c-.22,2.22-.33,4.42-.33,6.62a41.35,41.35,0,0,0,.4,5.88,45.1,45.1,0,0,0,1.13,5.46h-1a16.69,16.69,0,0,1-1.58-2.82,22.3,22.3,0,0,1-1.11-3.12,25.6,25.6,0,0,1-.66-3.2,21.08,21.08,0,0,1,0-6.21,23.49,23.49,0,0,1,1.83-6.28,18.77,18.77,0,0,1,1.5-2.73Z" style="fill:#f9c7e4"/><path d="M209.72,846.88h-3.54V844h10.14v2.88h-3.54v18.48h-3.06Z" style="fill:#f9c7e4"/><path d="M217.49,844h3.06v7.62h.06a4.31,4.31,0,0,1,1.15-1.18,2.92,2.92,0,0,1,1.73-.47,3.51,3.51,0,0,1,1.14.2,2.51,2.51,0,0,1,1,.64,3.32,3.32,0,0,1,.72,1.15,4.91,4.91,0,0,1,.27,1.73v11.67h-3.06V854.83a2,2,0,0,0-.39-1.32,1.35,1.35,0,0,0-1.11-.48,1.29,1.29,0,0,0-1.2.54,3,3,0,0,0-.33,1.56v10.23h-3.06Z" style="fill:#f9c7e4"/><path d="M232,858.91V861a1.47,1.47,0,0,0,.4,1.11,1.52,1.52,0,0,0,1.1.39,1.2,1.2,0,0,0,1.15-.51,2.76,2.76,0,0,0,.35-1H238a5.09,5.09,0,0,1-.32,1.8,4,4,0,0,1-.91,1.44,4.3,4.3,0,0,1-1.44,1,5.19,5.19,0,0,1-4.32-.24,4.11,4.11,0,0,1-1.56-1.59A4.15,4.15,0,0,1,229,862a11.28,11.28,0,0,1-.12-1.71v-5a11.28,11.28,0,0,1,.12-1.71,4.15,4.15,0,0,1,.45-1.38,4.11,4.11,0,0,1,1.56-1.59,4.71,4.71,0,0,1,2.43-.6,4.84,4.84,0,0,1,1.9.36,4,4,0,0,1,1.44,1,4.64,4.64,0,0,1,.9,1.52,5.42,5.42,0,0,1,.32,1.86v4.2Zm0-2.4h3v-1.74a1.87,1.87,0,0,0-.41-1.31,1.45,1.45,0,0,0-1.09-.43,1.47,1.47,0,0,0-1.1.43,1.87,1.87,0,0,0-.4,1.31Z" style="fill:#f9c7e4"/><path d="M279.31,844h3.06v3.06l-3.06,2.22Z" style="fill:#f9c7e4"/><path d="M288.79,854.41a1.52,1.52,0,0,0-.49-1.17,1.62,1.62,0,0,0-1.07-.39,1.36,1.36,0,0,0-1.11.46,1.62,1.62,0,0,0-.39,1.07,1.79,1.79,0,0,0,.21.83,2,2,0,0,0,1.08.73l1.8.72a4.38,4.38,0,0,1,2.36,1.8,5,5,0,0,1,.64,2.49,4.52,4.52,0,0,1-.34,1.78,4.66,4.66,0,0,1-1,1.46,4.3,4.3,0,0,1-1.44,1,4.6,4.6,0,0,1-1.83.36,4.88,4.88,0,0,1-1.71-.3,4.22,4.22,0,0,1-1.42-.87,4.51,4.51,0,0,1-1-1.42,5.12,5.12,0,0,1-.42-2h2.88a2.92,2.92,0,0,0,.44,1.17,1.32,1.32,0,0,0,1.21.54,1.77,1.77,0,0,0,1.19-.44,1.46,1.46,0,0,0,.52-1.21,1.78,1.78,0,0,0-.33-1.08,2.6,2.6,0,0,0-1.2-.78l-1.47-.54a5,5,0,0,1-2.26-1.61,4.1,4.1,0,0,1-.83-2.59,4.47,4.47,0,0,1,.36-1.79,4.35,4.35,0,0,1,2.4-2.32,4.57,4.57,0,0,1,1.74-.33,4.31,4.31,0,0,1,1.73.34,4.15,4.15,0,0,1,2.26,2.34,4.74,4.74,0,0,1,.33,1.76Z" style="fill:#f9c7e4"/><path d="M305.17,863.8h-.06a5.63,5.63,0,0,1-1.21,1.29,2.89,2.89,0,0,1-1.73.45,4.38,4.38,0,0,1-1.11-.16,2.9,2.9,0,0,1-1.06-.6,3.11,3.11,0,0,1-.81-1.24,5.58,5.58,0,0,1-.32-2,11,11,0,0,1,.21-2.27,3.61,3.61,0,0,1,.77-1.61,3.31,3.31,0,0,1,1.48-1,7.83,7.83,0,0,1,2.37-.31l.66,0,.81.06v-1.59a2.33,2.33,0,0,0-.33-1.29,1.32,1.32,0,0,0-1.2-.51,1.71,1.71,0,0,0-1.09.39,1.86,1.86,0,0,0-.65,1.14h-3a5,5,0,0,1,1.38-3.3,4.35,4.35,0,0,1,1.44-1,4.93,4.93,0,0,1,1.89-.34,5.31,5.31,0,0,1,1.8.3,4,4,0,0,1,1.46.9,4.27,4.27,0,0,1,1,1.5,5.63,5.63,0,0,1,.36,2.1v10.59h-3.06Zm0-5a5,5,0,0,0-.84-.09,2.92,2.92,0,0,0-1.69.47,1.87,1.87,0,0,0-.71,1.69,2.23,2.23,0,0,0,.42,1.41,1.4,1.4,0,0,0,1.17.54,1.52,1.52,0,0,0,1.22-.51,2.15,2.15,0,0,0,.43-1.44Z" style="fill:#f9c7e4"/><path d="M310.48,850.15h3.06v1.47h.06a4.35,4.35,0,0,1,1.16-1.18,2.89,2.89,0,0,1,1.72-.47,3.51,3.51,0,0,1,1.14.2,2.51,2.51,0,0,1,1,.64,3.32,3.32,0,0,1,.72,1.15,4.91,4.91,0,0,1,.27,1.73v11.67h-3.06V854.83a2,2,0,0,0-.39-1.32,1.35,1.35,0,0,0-1.11-.48,1.29,1.29,0,0,0-1.2.54,3,3,0,0,0-.33,1.56v10.23h-3.06Z" style="fill:#f9c7e4"/><path d="M328.24,864l-.57.61a2.86,2.86,0,0,1-1.35.83,3.63,3.63,0,0,1-1,.12,2.78,2.78,0,0,1-2.67-1.44,4.07,4.07,0,0,1-.39-1.26,13.31,13.31,0,0,1-.12-2V855a23.45,23.45,0,0,1,.09-2.43,3,3,0,0,1,.39-1.26,3.29,3.29,0,0,1,1-1,3.66,3.66,0,0,1,3.33,0,3.57,3.57,0,0,1,1.21,1.15h.06V844h3.06v21.36h-3.06Zm-3-3.57a2.78,2.78,0,0,0,.36,1.5,1.25,1.25,0,0,0,1.14.57,1.38,1.38,0,0,0,1.11-.52,2.13,2.13,0,0,0,.42-1.37v-5.91a1.67,1.67,0,0,0-.43-1.19,1.48,1.48,0,0,0-1.1-.46,1.24,1.24,0,0,0-1.18.54,2.46,2.46,0,0,0-.32,1.26Z" style="fill:#f9c7e4"/><path d="M375.94,849.28h-3.06v-3.06l3.06-2.22Z" style="fill:#f9c7e4"/><path d="M384,854.41a1.52,1.52,0,0,0-.5-1.17,1.6,1.6,0,0,0-1.06-.39,1.36,1.36,0,0,0-1.11.46,1.62,1.62,0,0,0-.39,1.07,1.79,1.79,0,0,0,.21.83,2,2,0,0,0,1.08.73l1.8.72a4.35,4.35,0,0,1,2.35,1.8A5,5,0,0,1,387,861a4.52,4.52,0,0,1-.35,1.78,4.64,4.64,0,0,1-.94,1.46,4.3,4.3,0,0,1-1.44,1,4.6,4.6,0,0,1-1.83.36,4.88,4.88,0,0,1-1.71-.3,4.26,4.26,0,0,1-1.43-.87,4.48,4.48,0,0,1-1-1.42,5.12,5.12,0,0,1-.42-2h2.88a2.91,2.91,0,0,0,.43,1.17,1.34,1.34,0,0,0,1.22.54,1.75,1.75,0,0,0,1.18-.44,1.47,1.47,0,0,0,.53-1.21,1.78,1.78,0,0,0-.33-1.08,2.6,2.6,0,0,0-1.2-.78l-1.47-.54a5,5,0,0,1-2.27-1.61,4.09,4.09,0,0,1-.82-2.59,4.41,4.41,0,0,1,1.33-3.2,4.6,4.6,0,0,1,3.17-1.24,4.26,4.26,0,0,1,1.72.34,4.42,4.42,0,0,1,1.37.93,4.37,4.37,0,0,1,.9,1.41,4.74,4.74,0,0,1,.33,1.76Z" style="fill:#f9c7e4"/><path d="M400.18,850.15h3.06v1.62a9.29,9.29,0,0,1,1.83-1.32,4.67,4.67,0,0,1,2.22-.48v3.24a2.48,2.48,0,0,0-.93-.18,3.37,3.37,0,0,0-1,.17,2.68,2.68,0,0,0-1,.55,3,3,0,0,0-.76,1,3.62,3.62,0,0,0-.3,1.56v9h-3.06Z" style="fill:#f9c7e4"/><path d="M411.31,858.91V861a1.47,1.47,0,0,0,.4,1.11,1.52,1.52,0,0,0,1.1.39A1.2,1.2,0,0,0,414,862a2.76,2.76,0,0,0,.35-1h3.06a5.09,5.09,0,0,1-.32,1.8,4,4,0,0,1-.91,1.44,4.3,4.3,0,0,1-1.44,1,5.19,5.19,0,0,1-4.32-.24,4.11,4.11,0,0,1-1.56-1.59,4.15,4.15,0,0,1-.45-1.38,11.28,11.28,0,0,1-.12-1.71v-5a11.28,11.28,0,0,1,.12-1.71,4.15,4.15,0,0,1,.45-1.38,4.11,4.11,0,0,1,1.56-1.59,4.71,4.71,0,0,1,2.43-.6,4.84,4.84,0,0,1,1.9.36,4,4,0,0,1,1.44,1,4.64,4.64,0,0,1,.9,1.52,5.42,5.42,0,0,1,.32,1.86v4.2Zm0-2.4h3v-1.74a1.87,1.87,0,0,0-.41-1.31,1.45,1.45,0,0,0-1.09-.43,1.47,1.47,0,0,0-1.1.43,1.87,1.87,0,0,0-.4,1.31Z" style="fill:#f9c7e4"/><path d="M419.62,850.15h3.06v1.38a7.53,7.53,0,0,1,1.17-1.11,2.87,2.87,0,0,1,1.74-.45,2.78,2.78,0,0,1,2.67,1.44,4.07,4.07,0,0,1,.39,1.26,13.31,13.31,0,0,1,.12,2v5.79a23.45,23.45,0,0,1-.09,2.43,3,3,0,0,1-.39,1.26,3.29,3.29,0,0,1-1,1,3.66,3.66,0,0,1-3.33,0,3.57,3.57,0,0,1-1.21-1.15h-.06v7.53h-3.06Zm6.09,5a2.78,2.78,0,0,0-.36-1.5,1.25,1.25,0,0,0-1.14-.57,1.38,1.38,0,0,0-1.11.52,2.13,2.13,0,0,0-.42,1.37v5.91a1.63,1.63,0,0,0,.43,1.18,1.42,1.42,0,0,0,1.1.47,1.24,1.24,0,0,0,1.18-.54,2.46,2.46,0,0,0,.32-1.26Z" style="fill:#f9c7e4"/><path d="M431.29,850.15h3.06v1.62a9.29,9.29,0,0,1,1.83-1.32,4.67,4.67,0,0,1,2.22-.48v3.24a2.48,2.48,0,0,0-.93-.18,3.37,3.37,0,0,0-1,.17,2.68,2.68,0,0,0-1,.55,3,3,0,0,0-.76,1,3.62,3.62,0,0,0-.3,1.56v9h-3.06Z" style="fill:#f9c7e4"/><path d="M442.42,858.91V861a1.47,1.47,0,0,0,.4,1.11,1.52,1.52,0,0,0,1.1.39,1.2,1.2,0,0,0,1.15-.51,2.76,2.76,0,0,0,.35-1h3.06a5.09,5.09,0,0,1-.32,1.8,4,4,0,0,1-.91,1.44,4.3,4.3,0,0,1-1.44,1,5.19,5.19,0,0,1-4.32-.24,4.11,4.11,0,0,1-1.56-1.59,4.15,4.15,0,0,1-.45-1.38,11.28,11.28,0,0,1-.12-1.71v-5a11.28,11.28,0,0,1,.12-1.71,4.15,4.15,0,0,1,.45-1.38,4.11,4.11,0,0,1,1.56-1.59,4.71,4.71,0,0,1,2.43-.6,4.84,4.84,0,0,1,1.9.36,4,4,0,0,1,1.44,1,4.64,4.64,0,0,1,.9,1.52,5.42,5.42,0,0,1,.32,1.86v4.2Zm0-2.4h3v-1.74a1.87,1.87,0,0,0-.41-1.31,1.45,1.45,0,0,0-1.09-.43,1.47,1.47,0,0,0-1.1.43,1.87,1.87,0,0,0-.4,1.31Z" style="fill:#f9c7e4"/><path d="M456.28,854.41a1.52,1.52,0,0,0-.5-1.17,1.6,1.6,0,0,0-1.06-.39,1.36,1.36,0,0,0-1.11.46,1.62,1.62,0,0,0-.39,1.07,1.79,1.79,0,0,0,.21.83,2,2,0,0,0,1.08.73l1.8.72a4.35,4.35,0,0,1,2.35,1.8,5,5,0,0,1,.65,2.49,4.52,4.52,0,0,1-.35,1.78,4.64,4.64,0,0,1-.94,1.46,4.3,4.3,0,0,1-1.44,1,4.6,4.6,0,0,1-1.83.36,4.88,4.88,0,0,1-1.71-.3,4.26,4.26,0,0,1-1.43-.87,4.48,4.48,0,0,1-1-1.42,5.12,5.12,0,0,1-.42-2h2.88a2.91,2.91,0,0,0,.43,1.17,1.34,1.34,0,0,0,1.22.54,1.75,1.75,0,0,0,1.18-.44,1.47,1.47,0,0,0,.53-1.21,1.78,1.78,0,0,0-.33-1.08,2.6,2.6,0,0,0-1.2-.78l-1.47-.54a5,5,0,0,1-2.27-1.61,4.09,4.09,0,0,1-.82-2.59,4.41,4.41,0,0,1,1.33-3.2,4.6,4.6,0,0,1,3.17-1.24,4.26,4.26,0,0,1,1.72.34,4.42,4.42,0,0,1,1.37.93,4.37,4.37,0,0,1,.9,1.41,4.74,4.74,0,0,1,.33,1.76Z" style="fill:#f9c7e4"/><path d="M464.08,858.91V861a1.47,1.47,0,0,0,.4,1.11,1.52,1.52,0,0,0,1.1.39,1.2,1.2,0,0,0,1.15-.51,2.76,2.76,0,0,0,.35-1h3.06a5.09,5.09,0,0,1-.32,1.8,4,4,0,0,1-.91,1.44,4.3,4.3,0,0,1-1.44,1,5.19,5.19,0,0,1-4.32-.24,4.11,4.11,0,0,1-1.56-1.59,3.93,3.93,0,0,1-.45-1.38,11.28,11.28,0,0,1-.12-1.71v-5a11.28,11.28,0,0,1,.12-1.71,3.93,3.93,0,0,1,.45-1.38,4.11,4.11,0,0,1,1.56-1.59,4.71,4.71,0,0,1,2.43-.6,4.84,4.84,0,0,1,1.9.36,4,4,0,0,1,1.44,1,4.64,4.64,0,0,1,.9,1.52,5.42,5.42,0,0,1,.32,1.86v4.2Zm0-2.4h3v-1.74a1.87,1.87,0,0,0-.41-1.31,1.45,1.45,0,0,0-1.09-.43,1.47,1.47,0,0,0-1.1.43,1.87,1.87,0,0,0-.4,1.31Z" style="fill:#f9c7e4"/><path d="M472.38,850.15h3.07v1.47h.06a4.31,4.31,0,0,1,1.15-1.18,2.91,2.91,0,0,1,1.72-.47,3.52,3.52,0,0,1,1.15.2,2.42,2.42,0,0,1,1,.64,3.2,3.2,0,0,1,.73,1.15,4.91,4.91,0,0,1,.27,1.73v11.67h-3.06V854.83a2,2,0,0,0-.39-1.32A1.35,1.35,0,0,0,477,853a1.28,1.28,0,0,0-1.2.54,2.92,2.92,0,0,0-.33,1.56v10.23h-3.07Z" style="fill:#f9c7e4"/><path d="M484.05,845.53h3.07v4.62H489v2.4h-1.89V861a2.67,2.67,0,0,0,.1.84.86.86,0,0,0,.33.45,1.24,1.24,0,0,0,.58.18c.25,0,.54,0,.88,0v2.88h-1.26A4.13,4.13,0,0,1,486,865a3.06,3.06,0,0,1-1.12-.84,3.22,3.22,0,0,1-.62-1.15,4.34,4.34,0,0,1-.2-1.25v-9.24h-1.52v-2.4h1.52Z" style="fill:#f9c7e4"/><path d="M495.75,845.53h3.06v4.62h1.9v2.4h-1.9V861a2.62,2.62,0,0,0,.11.84.86.86,0,0,0,.33.45,1.21,1.21,0,0,0,.58.18c.24,0,.53,0,.88,0v2.88h-1.26a4.13,4.13,0,0,1-1.76-.33,3.19,3.19,0,0,1-1.13-.84A3.35,3.35,0,0,1,496,863a4.34,4.34,0,0,1-.2-1.25v-9.24h-1.53v-2.4h1.53Z" style="fill:#f9c7e4"/><path d="M504.66,858.91V861a1.47,1.47,0,0,0,.41,1.11,1.5,1.5,0,0,0,1.09.39,1.21,1.21,0,0,0,1.16-.51,2.73,2.73,0,0,0,.34-1h3.06a5.08,5.08,0,0,1-.31,1.8,4,4,0,0,1-.92,1.44,4.3,4.3,0,0,1-1.44,1,5.19,5.19,0,0,1-4.32-.24,4.11,4.11,0,0,1-1.56-1.59,4.15,4.15,0,0,1-.45-1.38,11.28,11.28,0,0,1-.12-1.71v-5a11.28,11.28,0,0,1,.12-1.71,4.15,4.15,0,0,1,.45-1.38,4.11,4.11,0,0,1,1.56-1.59,4.71,4.71,0,0,1,2.43-.6,4.89,4.89,0,0,1,1.91.36,4,4,0,0,1,1.44,1,4.64,4.64,0,0,1,.9,1.52,5.42,5.42,0,0,1,.31,1.86v4.2Zm0-2.4h3v-1.74a1.87,1.87,0,0,0-.4-1.31,1.47,1.47,0,0,0-1.1-.43,1.45,1.45,0,0,0-1.09.43,1.87,1.87,0,0,0-.41,1.31Z" style="fill:#f9c7e4"/><path d="M518.52,854.41a1.52,1.52,0,0,0-.49-1.17,1.62,1.62,0,0,0-1.07-.39,1.36,1.36,0,0,0-1.11.46,1.62,1.62,0,0,0-.39,1.07,1.79,1.79,0,0,0,.21.83,2,2,0,0,0,1.08.73l1.8.72a4.38,4.38,0,0,1,2.36,1.8,5,5,0,0,1,.64,2.49,4.52,4.52,0,0,1-.34,1.78,4.66,4.66,0,0,1-1,1.46,4.3,4.3,0,0,1-1.44,1,4.6,4.6,0,0,1-1.83.36,4.88,4.88,0,0,1-1.71-.3,4.22,4.22,0,0,1-1.42-.87,4.51,4.51,0,0,1-1-1.42,5.12,5.12,0,0,1-.42-2h2.88a3.08,3.08,0,0,0,.44,1.17,1.32,1.32,0,0,0,1.21.54,1.77,1.77,0,0,0,1.19-.44,1.46,1.46,0,0,0,.52-1.21,1.78,1.78,0,0,0-.33-1.08,2.6,2.6,0,0,0-1.2-.78l-1.47-.54a5,5,0,0,1-2.26-1.61,4.1,4.1,0,0,1-.83-2.59,4.65,4.65,0,0,1,.36-1.79,4.35,4.35,0,0,1,2.4-2.32,4.57,4.57,0,0,1,1.74-.33,4.31,4.31,0,0,1,1.73.34,4.15,4.15,0,0,1,2.26,2.34,4.74,4.74,0,0,1,.33,1.76Z" style="fill:#f9c7e4"/><path d="M523.53,845.53h3.06v4.62h1.89v2.4h-1.89V861a2.62,2.62,0,0,0,.11.84.86.86,0,0,0,.33.45,1.21,1.21,0,0,0,.58.18q.36,0,.87,0v2.88h-1.26a4.11,4.11,0,0,1-1.75-.33,3.19,3.19,0,0,1-1.13-.84,3.35,3.35,0,0,1-.61-1.15,4.34,4.34,0,0,1-.2-1.25v-9.24H522v-2.4h1.53Z" style="fill:#f9c7e4"/><path d="M532.44,858.91V861a1.47,1.47,0,0,0,.41,1.11,1.5,1.5,0,0,0,1.09.39,1.21,1.21,0,0,0,1.16-.51,2.73,2.73,0,0,0,.34-1h3.06a5.08,5.08,0,0,1-.31,1.8,4,4,0,0,1-.92,1.44,4.3,4.3,0,0,1-1.44,1,5.19,5.19,0,0,1-4.32-.24,4.11,4.11,0,0,1-1.56-1.59,4.15,4.15,0,0,1-.45-1.38,11.28,11.28,0,0,1-.12-1.71v-5a11.28,11.28,0,0,1,.12-1.71,4.15,4.15,0,0,1,.45-1.38,4.11,4.11,0,0,1,1.56-1.59,4.71,4.71,0,0,1,2.43-.6,4.89,4.89,0,0,1,1.91.36,4,4,0,0,1,1.44,1,4.64,4.64,0,0,1,.9,1.52,5.42,5.42,0,0,1,.31,1.86v4.2Zm0-2.4h3v-1.74a1.87,1.87,0,0,0-.4-1.31,1.47,1.47,0,0,0-1.1-.43,1.45,1.45,0,0,0-1.09.43,1.87,1.87,0,0,0-.41,1.31Z" style="fill:#f9c7e4"/><path d="M546.84,864l-.57.61a2.86,2.86,0,0,1-1.35.83,3.63,3.63,0,0,1-1,.12,2.78,2.78,0,0,1-2.67-1.44,4.07,4.07,0,0,1-.39-1.26,13.31,13.31,0,0,1-.12-2V855a23.45,23.45,0,0,1,.09-2.43,3,3,0,0,1,.39-1.26,3.29,3.29,0,0,1,1-1,3.66,3.66,0,0,1,3.33,0,3.57,3.57,0,0,1,1.21,1.15h.06V844h3.06v21.36h-3.06Zm-3-3.57a2.78,2.78,0,0,0,.36,1.5,1.25,1.25,0,0,0,1.14.57,1.38,1.38,0,0,0,1.11-.52,2.13,2.13,0,0,0,.42-1.37v-5.91a1.67,1.67,0,0,0-.43-1.19,1.48,1.48,0,0,0-1.1-.46,1.24,1.24,0,0,0-1.18.54,2.46,2.46,0,0,0-.32,1.26Z" style="fill:#f9c7e4"/><path d="M561.24,861a1.47,1.47,0,0,0,.41,1.11,1.5,1.5,0,0,0,1.09.39,1.21,1.21,0,0,0,1.16-.51,2.73,2.73,0,0,0,.34-1h3.06a5.08,5.08,0,0,1-.31,1.8,4,4,0,0,1-.92,1.44,4.3,4.3,0,0,1-1.44,1,5.19,5.19,0,0,1-4.32-.24,4.11,4.11,0,0,1-1.56-1.59,4.15,4.15,0,0,1-.45-1.38,11.28,11.28,0,0,1-.12-1.71v-5a11.28,11.28,0,0,1,.12-1.71,4.15,4.15,0,0,1,.45-1.38,4.11,4.11,0,0,1,1.56-1.59,4.71,4.71,0,0,1,2.43-.6,4.89,4.89,0,0,1,1.91.36,4,4,0,0,1,1.44,1,4.58,4.58,0,0,1,.9,1.55,5.86,5.86,0,0,1,.31,2h-3.06a2,2,0,0,0-.4-1.37,1.47,1.47,0,0,0-1.1-.43,1.45,1.45,0,0,0-1.09.43,1.87,1.87,0,0,0-.41,1.31Z" style="fill:#f9c7e4"/><path d="M568.83,855.25a11.28,11.28,0,0,1,.12-1.71,4.15,4.15,0,0,1,.45-1.38,4.11,4.11,0,0,1,1.56-1.59,5.22,5.22,0,0,1,4.86,0,4.11,4.11,0,0,1,1.56,1.59,4.15,4.15,0,0,1,.45,1.38,11.28,11.28,0,0,1,.12,1.71v5a11.28,11.28,0,0,1-.12,1.71,4.15,4.15,0,0,1-.45,1.38,4.11,4.11,0,0,1-1.56,1.59,5.22,5.22,0,0,1-4.86,0,4.11,4.11,0,0,1-1.56-1.59A4.15,4.15,0,0,1,569,862a11.28,11.28,0,0,1-.12-1.71Zm3.06,5.49a1.83,1.83,0,0,0,.41,1.3,1.42,1.42,0,0,0,1.09.44,1.44,1.44,0,0,0,1.1-.44,1.82,1.82,0,0,0,.4-1.3v-6a1.87,1.87,0,0,0-.4-1.31,1.47,1.47,0,0,0-1.1-.43,1.45,1.45,0,0,0-1.09.43,1.87,1.87,0,0,0-.41,1.31Z" style="fill:#f9c7e4"/><path d="M586.29,864l-.57.61a2.86,2.86,0,0,1-1.35.83,3.63,3.63,0,0,1-1,.12,2.78,2.78,0,0,1-2.67-1.44,4.07,4.07,0,0,1-.39-1.26,13.31,13.31,0,0,1-.12-2V855a23.45,23.45,0,0,1,.09-2.43,3,3,0,0,1,.39-1.26,3.29,3.29,0,0,1,1-1,3.66,3.66,0,0,1,3.33,0,3.57,3.57,0,0,1,1.21,1.15h.06V844h3.06v21.36h-3.06Zm-3-3.57a2.78,2.78,0,0,0,.36,1.5,1.25,1.25,0,0,0,1.14.57,1.38,1.38,0,0,0,1.11-.52,2.13,2.13,0,0,0,.42-1.37v-5.91a1.67,1.67,0,0,0-.43-1.19,1.48,1.48,0,0,0-1.1-.46,1.24,1.24,0,0,0-1.18.54,2.46,2.46,0,0,0-.32,1.26Z" style="fill:#f9c7e4"/><path d="M594.66,858.91V861a1.47,1.47,0,0,0,.41,1.11,1.5,1.5,0,0,0,1.09.39,1.21,1.21,0,0,0,1.16-.51,2.73,2.73,0,0,0,.34-1h3.06a5.08,5.08,0,0,1-.31,1.8,4,4,0,0,1-.92,1.44,4.3,4.3,0,0,1-1.44,1,5.19,5.19,0,0,1-4.32-.24,4.11,4.11,0,0,1-1.56-1.59,4.15,4.15,0,0,1-.45-1.38,11.28,11.28,0,0,1-.12-1.71v-5a11.28,11.28,0,0,1,.12-1.71,4.15,4.15,0,0,1,.45-1.38,4.11,4.11,0,0,1,1.56-1.59,4.71,4.71,0,0,1,2.43-.6,4.89,4.89,0,0,1,1.91.36,4,4,0,0,1,1.44,1,4.64,4.64,0,0,1,.9,1.52,5.42,5.42,0,0,1,.31,1.86v4.2Zm0-2.4h3v-1.74a1.87,1.87,0,0,0-.4-1.31,1.47,1.47,0,0,0-1.1-.43,1.45,1.45,0,0,0-1.09.43,1.87,1.87,0,0,0-.41,1.31Z" style="fill:#f9c7e4"/><path d="M608.55,850.15h3.06v1.47h.06a4.35,4.35,0,0,1,1.16-1.18,2.89,2.89,0,0,1,1.72-.47,2.73,2.73,0,0,1,1.65.48,4.92,4.92,0,0,1,1.08,1,6.44,6.44,0,0,1,1.26-1.08,3.5,3.5,0,0,1,1.92-.45,3.78,3.78,0,0,1,1.17.2,2.72,2.72,0,0,1,1.08.64,3.43,3.43,0,0,1,.78,1.15,4.47,4.47,0,0,1,.3,1.73v11.67h-3.06V854.83a2,2,0,0,0-.39-1.32,1.35,1.35,0,0,0-1.11-.48,1.29,1.29,0,0,0-1.2.54,3,3,0,0,0-.33,1.56v10.23h-3.06V854.83a2,2,0,0,0-.39-1.32,1.35,1.35,0,0,0-1.11-.48,1.29,1.29,0,0,0-1.2.54,3,3,0,0,0-.33,1.56v10.23h-3.06Z" style="fill:#f9c7e4"/><path d="M626,855.25a11.28,11.28,0,0,1,.12-1.71,4.15,4.15,0,0,1,.45-1.38,4.11,4.11,0,0,1,1.56-1.59,5.22,5.22,0,0,1,4.86,0,4.11,4.11,0,0,1,1.56,1.59,4.15,4.15,0,0,1,.45,1.38,11.28,11.28,0,0,1,.12,1.71v5A11.28,11.28,0,0,1,635,862a4.15,4.15,0,0,1-.45,1.38,4.11,4.11,0,0,1-1.56,1.59,5.22,5.22,0,0,1-4.86,0,4.11,4.11,0,0,1-1.56-1.59,4.15,4.15,0,0,1-.45-1.38,11.28,11.28,0,0,1-.12-1.71Zm3.06,5.49a1.83,1.83,0,0,0,.41,1.3,1.42,1.42,0,0,0,1.09.44,1.44,1.44,0,0,0,1.1-.44,1.82,1.82,0,0,0,.4-1.3v-6a1.87,1.87,0,0,0-.4-1.31,1.47,1.47,0,0,0-1.1-.43,1.45,1.45,0,0,0-1.09.43,1.87,1.87,0,0,0-.41,1.31Z" style="fill:#f9c7e4"/><path d="M643.5,864l-.57.61a2.86,2.86,0,0,1-1.35.83,3.63,3.63,0,0,1-1,.12,2.78,2.78,0,0,1-2.67-1.44,4.07,4.07,0,0,1-.39-1.26,13.31,13.31,0,0,1-.12-2V855a23.45,23.45,0,0,1,.09-2.43,3,3,0,0,1,.39-1.26,3.29,3.29,0,0,1,1-1,3.66,3.66,0,0,1,3.33,0,3.57,3.57,0,0,1,1.21,1.15h.06V844h3.06v21.36H643.5Zm-3-3.57a2.78,2.78,0,0,0,.36,1.5,1.25,1.25,0,0,0,1.14.57,1.38,1.38,0,0,0,1.11-.52,2.13,2.13,0,0,0,.42-1.37v-5.91a1.67,1.67,0,0,0-.43-1.19A1.48,1.48,0,0,0,642,853a1.24,1.24,0,0,0-1.18.54,2.46,2.46,0,0,0-.32,1.26Z" style="fill:#f9c7e4"/><path d="M658.23,865.36h-3.06v-1.47h-.06a4.18,4.18,0,0,1-1.15,1.18,3,3,0,0,1-1.73.47,3.51,3.51,0,0,1-1.14-.2,2.63,2.63,0,0,1-1-.64,3.19,3.19,0,0,1-.72-1.16,4.78,4.78,0,0,1-.27-1.72V850.15h3.06v10.53a2,2,0,0,0,.39,1.32,1.35,1.35,0,0,0,1.11.48,1.29,1.29,0,0,0,1.2-.54,3,3,0,0,0,.33-1.56V850.15h3.06Z" style="fill:#f9c7e4"/><path d="M660.57,844h3.06v17.07a1.67,1.67,0,0,0,.32,1.18,2,2,0,0,0,1.18.41v2.88a11,11,0,0,1-1.9-.16,3.28,3.28,0,0,1-1.44-.64,2.86,2.86,0,0,1-.9-1.3,6.23,6.23,0,0,1-.32-2.16Z" style="fill:#f9c7e4"/><path d="M669.12,858.91V861a1.47,1.47,0,0,0,.41,1.11,1.5,1.5,0,0,0,1.09.39,1.21,1.21,0,0,0,1.16-.51,2.73,2.73,0,0,0,.34-1h3.06a5.08,5.08,0,0,1-.31,1.8,4,4,0,0,1-.92,1.44,4.3,4.3,0,0,1-1.44,1,5.19,5.19,0,0,1-4.32-.24,4.11,4.11,0,0,1-1.56-1.59,4.15,4.15,0,0,1-.45-1.38,11.28,11.28,0,0,1-.12-1.71v-5a11.28,11.28,0,0,1,.12-1.71,4.15,4.15,0,0,1,.45-1.38,4.11,4.11,0,0,1,1.56-1.59,4.71,4.71,0,0,1,2.43-.6,4.89,4.89,0,0,1,1.91.36,4,4,0,0,1,1.44,1,4.64,4.64,0,0,1,.9,1.52,5.42,5.42,0,0,1,.31,1.86v4.2Zm0-2.4h3v-1.74a1.87,1.87,0,0,0-.4-1.31,1.47,1.47,0,0,0-1.1-.43,1.45,1.45,0,0,0-1.09.43,1.87,1.87,0,0,0-.41,1.31Z" style="fill:#f9c7e4"/><path d="M683,854.41a1.52,1.52,0,0,0-.49-1.17,1.62,1.62,0,0,0-1.07-.39,1.36,1.36,0,0,0-1.11.46,1.62,1.62,0,0,0-.39,1.07,1.79,1.79,0,0,0,.21.83,2,2,0,0,0,1.08.73l1.8.72a4.38,4.38,0,0,1,2.36,1.8A5,5,0,0,1,686,861a4.52,4.52,0,0,1-.34,1.78,4.66,4.66,0,0,1-.95,1.46,4.3,4.3,0,0,1-1.44,1,4.6,4.6,0,0,1-1.83.36,4.88,4.88,0,0,1-1.71-.3,4.22,4.22,0,0,1-1.42-.87,4.51,4.51,0,0,1-1-1.42,5.12,5.12,0,0,1-.42-2h2.88a2.92,2.92,0,0,0,.44,1.17,1.32,1.32,0,0,0,1.21.54,1.77,1.77,0,0,0,1.19-.44,1.46,1.46,0,0,0,.52-1.21,1.78,1.78,0,0,0-.33-1.08,2.6,2.6,0,0,0-1.2-.78l-1.47-.54a5,5,0,0,1-2.26-1.61,4.1,4.1,0,0,1-.83-2.59,4.47,4.47,0,0,1,.36-1.79,4.35,4.35,0,0,1,2.4-2.32,4.57,4.57,0,0,1,1.74-.33,4.31,4.31,0,0,1,1.73.34,4.15,4.15,0,0,1,2.26,2.34,4.74,4.74,0,0,1,.33,1.76Z" style="fill:#f9c7e4"/><path d="M687.3,868.36a37.12,37.12,0,0,0,1.2-6.4q.33-3.32.33-6.62a41.35,41.35,0,0,0-.4-5.88A45.1,45.1,0,0,0,687.3,844h1a18.52,18.52,0,0,1,1.58,2.83,22.18,22.18,0,0,1,1.11,3.11,27.37,27.37,0,0,1,.66,3.19,22.11,22.11,0,0,1,.22,3,21.73,21.73,0,0,1-.24,3.16,23.42,23.42,0,0,1-1.83,6.29,18.77,18.77,0,0,1-1.5,2.73Z" style="fill:#f9c7e4"/><polygon points="251.37 853.69 246.85 858.9 256.23 867.24 275 845 267.7 845 256.58 858.55 251.37 853.69" style="fill:#f9c7e4"/><path d="M355,870.82H355a1.92,1.92,0,0,0-.26-.17l-12.43-6a.39.39,0,0,1-.26-.42q0-7.18,0-14.37a.39.39,0,0,1,.26-.42c3.73-1.69,7.46-3.4,11.18-5.1l2.15-1h.11a2,2,0,0,0,.25.14l12.78,5.86a.39.39,0,0,1,.27.42q0,7.17,0,14.34a.4.4,0,0,1-.27.42L357.4,869.7C356.6,870.06,355.8,870.44,355,870.82Zm-11.79-20.68c0,.1,0,.17,0,.24q0,6.61,0,13.24a.32.32,0,0,0,.21.33L355,869.44a1.45,1.45,0,0,0,.22.09,1.56,1.56,0,0,0,0-.2V855.85c0-.22-.09-.29-.26-.37l-11.47-5.23Zm13.18,18.94.19-.08,11-5.22c.18-.08.19-.2.19-.36V850l-.29.13-3.11,1.52a.35.35,0,0,0-.23.36c0,2,0,4,0,6a.34.34,0,0,1-.21.35L360.86,860l-.27.12v-6.58l-.29.13-3.65,1.79a.38.38,0,0,0-.26.41c0,4.07,0,8.15,0,12.23Zm-11.86-19.49.09.07,10.88,4.91a.36.36,0,0,0,.25,0l3.8-1.81-.1-.08-10.51-4.93a.31.31,0,0,0-.25,0C347.31,848.35,345.94,849,344.53,849.59Zm21.87-.1-.23-.12c-3.44-1.57-6.88-3.15-10.33-4.71a.53.53,0,0,0-.39,0c-.91.4-1.8.82-2.7,1.23l-.2.11,0,0,10.83,4.77a.28.28,0,0,0,.22,0Z" style="fill:#f7eec9"/></svg>