<svg id="Layer_1" data-name="Layer 1" xmlns="http://www.w3.org/2000/svg" viewBox="0 0 1161 1362"><defs><style>.cls-1{fill:#07448e;}.cls-2{fill:#f7eec9;}.cls-3,.cls-4{fill:#f9c7e4;}.cls-4{font-size:76px;font-family:DINCondensed-Bold, DIN Condensed;font-weight:700;}.cls-5{letter-spacing:-0.04em;}</style></defs><title>integration-problem</title><rect class="cls-1" width="900" height="900"/><rect class="cls-2" x="261" y="1162" width="900" height="200"/><rect class="cls-1" x="466.8" y="1192.01" width="7.06" height="139.17"/><rect class="cls-1" x="290.94" y="1192.01" width="139.17" height="139.17"/><path class="cls-3" d="M365.17,1219.35l-6.57,13.72c.9-.08,1.8-.13,2.71-.13a28.48,28.48,0,0,1,25.68,40.8l.74-.77,6,15.76,14.08,4.8a56.53,56.53,0,0,0-46.52-88.63c-.93,0-1.85,0-2.77.07Z"/><path class="cls-3" d="M322.43,1282.55l15.14-5.41a28.49,28.49,0,0,1,15.37-43l7.12-14.88-6.4-13.89a56.52,56.52,0,0,0-36.43,91.36Z"/><path class="cls-3" d="M390.2,1292.41l-5.58-14.63a28.48,28.48,0,0,1-44,3.19l-14.58,5.2-5.32,14.56a56.53,56.53,0,0,0,84.18-3.32Z"/><text class="cls-4" transform="translate(40 855.11)">UNITS OF MEASURE</text><text class="cls-4" transform="translate(90.77 381.11)">DEVELOPER</text><text class="cls-4" transform="translate(115.85 660.11)">CI CHECK</text><text class="cls-4" transform="translate(571.04 412.11)"><tspan class="cls-5">P</tspan><tspan x="28.12" y="0">ACKAGE,</tspan><tspan x="9.08" y="91.2">MODULE,</tspan><tspan x="-45.75" y="182.4">UNIT OF CODE</tspan></text><path class="cls-2" d="M667.28,311.89h-.45a20.37,20.37,0,0,0-2.19-1.41q-52.18-25.16-104.42-50.24a3.34,3.34,0,0,1-2.22-3.55q.07-60.39,0-120.79a3.24,3.24,0,0,1,2.22-3.5q47-21.39,93.94-42.91c6.05-2.78,12.06-5.66,18.08-8.49h.91c.71.39,1.39.84,2.13,1.18Q729,106.84,782.69,131.45a3.25,3.25,0,0,1,2.27,3.48q-.09,60.31,0,120.61a3.25,3.25,0,0,1-2.29,3.48Q735,280.71,687.45,302.48C680.71,305.57,674,308.75,667.28,311.89Zm-99.15-173.8c0,.84-.13,1.41-.13,2q0,55.66,0,111.33a2.59,2.59,0,0,0,1.7,2.74q48.71,23.07,97.38,46.21c.56.26,1.17.44,1.87.71,0-.75.08-1.2.08-1.65q0-56.67,0-113.36c0-1.8-.8-2.44-2.22-3.08q-48.22-22-96.43-44C569.67,138.71,569,138.45,568.13,138.09ZM679,297.29c.81-.34,1.22-.49,1.62-.68q46.39-21.94,92.81-43.84c1.51-.71,1.59-1.69,1.59-3q0-53.67,0-107.32v-5.7c-1,.47-1.76.78-2.48,1.12-8.69,4.26-17.37,8.54-26.1,12.74a2.89,2.89,0,0,0-1.92,3c.06,16.69,0,33.37.06,50.06a2.87,2.87,0,0,1-1.75,3c-8.78,4.75-17.52,9.58-26.27,14.38-.57.3-1.17.54-2.22,1V166.75c-1.11.49-1.79.78-2.45,1.1-10.24,5-20.46,10.09-30.73,15.06a3.19,3.19,0,0,0-2.12,3.38q.06,51.41,0,102.81Zm-99.7-163.84a6.8,6.8,0,0,0,.79.57q45.71,20.67,91.44,41.3a2.81,2.81,0,0,0,2.09.1c10.64-5,21.24-10.12,32-15.25a7,7,0,0,0-.83-.63q-44.18-20.76-88.38-41.49a2.85,2.85,0,0,0-2.07-.06C602.66,123.07,591.08,128.22,579.26,133.45Zm183.87-.82c-.81-.44-1.37-.78-2-1Q717.79,111.77,674.37,92a4.53,4.53,0,0,0-3.3,0c-7.62,3.36-15.17,6.86-22.74,10.33-.54.25-1,.6-1.62.94a2.55,2.55,0,0,0,.35.25q45.5,20.06,91,40.08a2.58,2.58,0,0,0,1.87.06C747.58,140.08,755.21,136.41,763.13,132.63Z"/><path class="cls-2" d="M319,272H112.44c.9-19.74,17.86-40.84,36.75-45.28,5.11-1.21,7.07-5,7.59-8.9,1.45-10.8,2.72-21.73,2.68-32.6,0-12.67-2.21-25.32-2.22-38a80.85,80.85,0,0,1,8.27-35.88c9.36-19,24.53-28.82,46-28.33,5.39.13,10.86-.29,16.17.46,17.47,2.47,29.68,12.37,36.88,28.21,8.62,18.94,10.06,38.8,7.1,59.29-2,14-2.82,28.12.19,42.12a36.38,36.38,0,0,0,3.63,9.7,7.78,7.78,0,0,0,4.7,3.52c14,2.67,23.31,11.37,29.52,23.55C313.2,256.78,315.74,264.17,319,272ZM259.63,154.22c-3.58,6.89-7.65,3.65-11.83,1.48q-24.11-12.51-48.28-24.86c-6.71-3.44-13.24-2.9-17.76,3.12-3.64,4.85-5.55,11-8.2,16.59-.64,1.35-.76,3.25-1.78,4.06-5.71,4.52-4.6,18.15,1.8,21.85a8.58,8.58,0,0,1,3.45,3.76c3.95,9.43,9.06,18.05,16.57,25.08,13.59,12.72,29.22,12.84,42.91.26,7.59-7,12.76-15.57,16.64-25,.56-1.37,1.17-3.08,2.3-3.81A16.1,16.1,0,0,0,259.63,154.22Zm-82.31,70.3c2.89,9.31,21.47,19.13,37.67,19.13s34.6-9.76,37.71-19.26l-10.65-11.71c-16.8,14.46-33.85,17.12-53.75,0Z"/><rect class="cls-3" x="40" y="730" width="815" height="13"/><polygon class="cls-2" points="190.96 487.13 168.01 513.61 215.67 555.98 311 443 273.93 443 217.44 511.85 190.96 487.13"/></svg>