<svg id="902f5a72-44b7-482e-a9a1-a3ae1ac808ce" data-name="Layer 1" xmlns="http://www.w3.org/2000/svg" viewBox="0 0 900 900"><title>integration-problem</title><rect width="900" height="900" style="fill:#07448e"/><path d="M69.73,843a12.25,12.25,0,0,1-1,4.94,12.72,12.72,0,0,1-6.69,6.69,12.45,12.45,0,0,1-9.73,0,12.79,12.79,0,0,1-4-2.7,12.59,12.59,0,0,1-2.69-4,12.25,12.25,0,0,1-1-4.94V801H52.4v41.19a5.81,5.81,0,0,0,1.37,4.26,5,5,0,0,0,6.84,0A5.81,5.81,0,0,0,62,842.19V801h7.75Z" transform="translate(-1)" style="fill:#f9c7e4"/><polygon points="75.72 801 83.17 801 94.87 833.6 95.02 833.6 95.02 801 102.78 801 102.78 855.11 95.48 855.11 83.62 822.58 83.47 822.58 83.47 855.11 75.72 855.11 75.72 801" style="fill:#f9c7e4"/><rect x="109.99" y="801" width="7.75" height="54.11" style="fill:#f9c7e4"/><polygon points="130.36 808.29 121.39 808.29 121.39 801 147.08 801 147.08 808.29 138.11 808.29 138.11 855.11 130.36 855.11 130.36 808.29" style="fill:#f9c7e4"/><path d="M176.58,816.58h-7.75v-1.75a8.28,8.28,0,0,0-1.26-4.6,4.63,4.63,0,0,0-4.21-1.94,5.17,5.17,0,0,0-2.63.61,4.57,4.57,0,0,0-1.59,1.56,6.52,6.52,0,0,0-.8,2.21,14.76,14.76,0,0,0-.23,2.62,25.69,25.69,0,0,0,.12,2.7,4.56,4.56,0,0,0,.57,1.89,4.13,4.13,0,0,0,1.33,1.41,12.17,12.17,0,0,0,2.39,1.22l5.93,2.35a14.77,14.77,0,0,1,4.18,2.32,9.49,9.49,0,0,1,2.47,3.12,13.48,13.48,0,0,1,1.18,4.1,41.61,41.61,0,0,1,.3,5.28,28.23,28.23,0,0,1-.68,6.35,13.38,13.38,0,0,1-2.25,5,10.66,10.66,0,0,1-4.14,3.31,14.73,14.73,0,0,1-6.31,1.22,13.77,13.77,0,0,1-5.24-1,12.87,12.87,0,0,1-4.18-2.7,12.75,12.75,0,0,1-3.8-9.16v-2.88h7.75v2.43a6.34,6.34,0,0,0,1.26,3.84c.83,1.14,2.24,1.71,4.21,1.71a6.93,6.93,0,0,0,3.08-.57,3.92,3.92,0,0,0,1.67-1.6,6.73,6.73,0,0,0,.73-2.55c.1-1,.15-2.13.15-3.34a33.36,33.36,0,0,0-.15-3.5,5.67,5.67,0,0,0-.65-2.2,4,4,0,0,0-1.37-1.37,18.65,18.65,0,0,0-2.32-1.14l-5.54-2.28q-5-2.06-6.73-5.43a18.72,18.72,0,0,1-1.71-8.48,19.54,19.54,0,0,1,.84-5.77,13.22,13.22,0,0,1,2.47-4.71,11.83,11.83,0,0,1,4.14-3.16,13.69,13.69,0,0,1,5.85-1.18,12.81,12.81,0,0,1,5.28,1.07,13,13,0,0,1,4.11,2.81,12.61,12.61,0,0,1,2.62,3.91,11.36,11.36,0,0,1,.91,4.45Z" transform="translate(-1)" style="fill:#f9c7e4"/><path d="M196,813.77a13.83,13.83,0,0,1,1.14-5.78,12.08,12.08,0,0,1,3-4.14,12.91,12.91,0,0,1,4.18-2.47,13.43,13.43,0,0,1,9.35,0,13.13,13.13,0,0,1,4.18,2.47,12.08,12.08,0,0,1,3,4.14,13.83,13.83,0,0,1,1.14,5.78v28.57a13.8,13.8,0,0,1-1.14,5.82,12.21,12.21,0,0,1-3,4.1,13.13,13.13,0,0,1-4.18,2.47,13.43,13.43,0,0,1-9.35,0,12.91,12.91,0,0,1-4.18-2.47,12.21,12.21,0,0,1-3-4.1,13.8,13.8,0,0,1-1.14-5.82Zm7.75,28.57a5.16,5.16,0,0,0,1.56,4.15,5.77,5.77,0,0,0,7.37,0,5.16,5.16,0,0,0,1.56-4.15V813.77a5.16,5.16,0,0,0-1.56-4.15,5.77,5.77,0,0,0-7.37,0,5.16,5.16,0,0,0-1.56,4.15Z" transform="translate(-1)" style="fill:#f9c7e4"/><polygon points="227.87 801 250.97 801 250.97 808.29 235.62 808.29 235.62 824.71 249 824.71 249 832.01 235.62 832.01 235.62 855.11 227.87 855.11 227.87 801" style="fill:#f9c7e4"/><polygon points="270.12 801 277.57 801 287.52 829.65 287.68 829.65 297.56 801 305.08 801 305.08 855.11 297.33 855.11 297.33 822.2 297.18 822.2 289.5 845.46 285.63 845.46 278.02 822.2 277.87 822.2 277.87 855.11 270.12 855.11 270.12 801" style="fill:#f9c7e4"/><polygon points="312.38 801 335.48 801 335.48 808.29 320.13 808.29 320.13 824.18 333.5 824.18 333.5 831.48 320.13 831.48 320.13 847.36 335.48 847.36 335.48 855.11 312.38 855.11 312.38 801" style="fill:#f9c7e4"/><path d="M350.08,801h6.46l12.09,54.11h-7.75l-2.28-11.63H348l-2.28,11.63H338Zm3.27,15.58h-.15l-3.8,19.61h7.75Z" transform="translate(-1)" style="fill:#f9c7e4"/><path d="M397.51,816.58h-7.75v-1.75a8.28,8.28,0,0,0-1.26-4.6,4.64,4.64,0,0,0-4.22-1.94,5.16,5.16,0,0,0-2.62.61,4.57,4.57,0,0,0-1.59,1.56,6.52,6.52,0,0,0-.8,2.21,14.76,14.76,0,0,0-.23,2.62c0,1.06,0,2,.11,2.7a4.88,4.88,0,0,0,.57,1.89,4.33,4.33,0,0,0,1.33,1.41,12.3,12.3,0,0,0,2.4,1.22l5.93,2.35a14.77,14.77,0,0,1,4.18,2.32A9.62,9.62,0,0,1,396,830.3a13.2,13.2,0,0,1,1.17,4.1,39.72,39.72,0,0,1,.31,5.28,27.65,27.65,0,0,1-.69,6.35,13.21,13.21,0,0,1-2.24,5,10.74,10.74,0,0,1-4.14,3.31,14.76,14.76,0,0,1-6.31,1.22,13.77,13.77,0,0,1-5.24-1,12.61,12.61,0,0,1-8-11.86v-2.88h7.75v2.43a6.39,6.39,0,0,0,1.25,3.84c.84,1.14,2.25,1.71,4.22,1.71a6.93,6.93,0,0,0,3.08-.57,4,4,0,0,0,1.67-1.6,6.55,6.55,0,0,0,.72-2.55,31.17,31.17,0,0,0,.16-3.34,30.51,30.51,0,0,0-.16-3.5,5.51,5.51,0,0,0-.64-2.2,4,4,0,0,0-1.37-1.37,19.38,19.38,0,0,0-2.32-1.14l-5.55-2.28q-5-2.06-6.72-5.43a18.72,18.72,0,0,1-1.71-8.48,19.88,19.88,0,0,1,.83-5.77,13.38,13.38,0,0,1,2.47-4.71,11.78,11.78,0,0,1,4.15-3.16,13.69,13.69,0,0,1,5.85-1.18,13,13,0,0,1,9.38,3.88,12.64,12.64,0,0,1,2.63,3.91,11.54,11.54,0,0,1,.91,4.45Z" transform="translate(-1)" style="fill:#f9c7e4"/><path d="M428.36,843a12.41,12.41,0,0,1-1,4.94,12.72,12.72,0,0,1-6.69,6.69,12.45,12.45,0,0,1-9.73,0,12.72,12.72,0,0,1-6.69-6.69,12.25,12.25,0,0,1-1-4.94V801H411v41.19a5.81,5.81,0,0,0,1.36,4.26,5,5,0,0,0,6.84,0,5.77,5.77,0,0,0,1.37-4.26V801h7.75Z" transform="translate(-1)" style="fill:#f9c7e4"/><path d="M435.66,801h12.46q13.68,0,13.68,15.88a20.07,20.07,0,0,1-1.48,8.1,11.48,11.48,0,0,1-5.2,5.43l8.36,24.7h-8.21L448.05,832h-4.64v23.1h-7.75Zm7.75,24.17h4.41a7.8,7.8,0,0,0,3.27-.57A4.2,4.2,0,0,0,453,823a6.92,6.92,0,0,0,.87-2.62,28.45,28.45,0,0,0,0-7.22,6.52,6.52,0,0,0-.95-2.66,4.28,4.28,0,0,0-2-1.63,9,9,0,0,0-3.42-.54h-4Z" transform="translate(-1)" style="fill:#f9c7e4"/><polygon points="467.04 801 490.14 801 490.14 808.29 474.79 808.29 474.79 824.18 488.16 824.18 488.16 831.48 474.79 831.48 474.79 847.36 490.14 847.36 490.14 855.11 467.04 855.11 467.04 801" style="fill:#f9c7e4"/><path d="M123.6,219h7.55q4.35,0,6.65,2.42a9.49,9.49,0,0,1,2.3,6.78v16.65q0,5-2.42,7.37t-7,2.38h-7.1Zm5.1,30.8h2.35a3.78,3.78,0,0,0,3-1.08,5.18,5.18,0,0,0,.9-3.37V228.2a5.37,5.37,0,0,0-.85-3.25,3.62,3.62,0,0,0-3.1-1.15H128.7Z" transform="translate(-1)" style="fill:#f9c7e4"/><polygon points="143.9 219 159.1 219 159.1 223.8 149 223.8 149 234.25 157.8 234.25 157.8 239.05 149 239.05 149 249.5 159.1 249.5 159.1 254.6 143.9 254.6 143.9 219" style="fill:#f9c7e4"/><polygon points="172.4 254.6 167.9 254.6 160.65 219 166.05 219 170.1 243.85 170.2 243.85 174.3 219 179.7 219 172.4 254.6" style="fill:#f9c7e4"/><polygon points="182.75 219 197.95 219 197.95 223.8 187.85 223.8 187.85 234.25 196.65 234.25 196.65 239.05 187.85 239.05 187.85 249.5 197.95 249.5 197.95 254.6 182.75 254.6 182.75 219" style="fill:#f9c7e4"/><polygon points="201.25 219 206.35 219 206.35 249.5 216.45 249.5 216.45 254.6 201.25 254.6 201.25 219" style="fill:#f9c7e4"/><path d="M220.45,227.4a9.11,9.11,0,0,1,.75-3.8,8,8,0,0,1,2-2.73,8.57,8.57,0,0,1,2.75-1.62,8.89,8.89,0,0,1,3.07-.55,9,9,0,0,1,3.08.55,8.79,8.79,0,0,1,2.75,1.62,8.06,8.06,0,0,1,2,2.73,9.11,9.11,0,0,1,.75,3.8v18.8a9,9,0,0,1-.75,3.82,7.93,7.93,0,0,1-2,2.7,8.63,8.63,0,0,1-2.75,1.63,9,9,0,0,1-3.08.55,8.89,8.89,0,0,1-3.07-.55,8.42,8.42,0,0,1-2.75-1.63,7.83,7.83,0,0,1-2-2.7,9,9,0,0,1-.75-3.82Zm5.1,18.8a3.36,3.36,0,0,0,1,2.72,3.57,3.57,0,0,0,2.42.88,3.62,3.62,0,0,0,2.43-.88,3.39,3.39,0,0,0,1-2.72V227.4a3.42,3.42,0,0,0-1-2.73,3.66,3.66,0,0,0-2.43-.87,3.61,3.61,0,0,0-2.42.87,3.4,3.4,0,0,0-1,2.73Z" transform="translate(-1)" style="fill:#f9c7e4"/><path d="M242.05,219h7.65a11.3,11.3,0,0,1,3.7.55,7.16,7.16,0,0,1,2.9,1.95,7.52,7.52,0,0,1,1.8,3.27,20.71,20.71,0,0,1,.5,5.08,25.58,25.58,0,0,1-.27,4,8.63,8.63,0,0,1-1.18,3.13,7.38,7.38,0,0,1-2.8,2.72,9.43,9.43,0,0,1-4.6,1h-2.6v13.9h-5.1Zm5.1,16.9h2.45a5.23,5.23,0,0,0,2.4-.45,2.86,2.86,0,0,0,1.25-1.23,4.67,4.67,0,0,0,.48-1.87c.05-.73.07-1.55.07-2.45s0-1.63-.07-2.38a5.59,5.59,0,0,0-.45-2,2.91,2.91,0,0,0-1.18-1.3,4.62,4.62,0,0,0-2.3-.47h-2.65Z" transform="translate(-1)" style="fill:#f9c7e4"/><polygon points="261.4 219 276.6 219 276.6 223.8 266.5 223.8 266.5 234.25 275.3 234.25 275.3 239.05 266.5 239.05 266.5 249.5 276.6 249.5 276.6 254.6 261.4 254.6 261.4 219" style="fill:#f9c7e4"/><path d="M280.9,219h8.2q9,0,9,10.45a13.16,13.16,0,0,1-1,5.32,7.47,7.47,0,0,1-3.42,3.58l5.5,16.25h-5.4l-4.75-15.2H286v15.2h-5.1Zm5.1,15.9h2.9a5.11,5.11,0,0,0,2.15-.38,2.72,2.72,0,0,0,1.22-1.07,4.47,4.47,0,0,0,.58-1.73,16.48,16.48,0,0,0,.15-2.37,16.73,16.73,0,0,0-.15-2.38,4.44,4.44,0,0,0-.62-1.75,2.83,2.83,0,0,0-1.33-1.07,6.1,6.1,0,0,0-2.25-.35H286Z" transform="translate(-1)" style="fill:#f9c7e4"/><path d="M633.9,219.65a8.21,8.21,0,0,1-2.35,5.77,8.51,8.51,0,0,1-2.57,1.8,7.6,7.6,0,0,1-3.18.68,11.26,11.26,0,0,1-2.95-.4,7.12,7.12,0,0,1-4.67-3.95,9.25,9.25,0,0,1-.78-4.05V199.9a8.66,8.66,0,0,1,.6-3.25,7.67,7.67,0,0,1,1.7-2.6,8,8,0,0,1,2.63-1.73,8.91,8.91,0,0,1,3.37-.62,8.47,8.47,0,0,1,3.25.62,7.79,7.79,0,0,1,2.6,1.75,8,8,0,0,1,1.73,2.7,9.38,9.38,0,0,1,.62,3.43v2h-5.1v-1.7a4.1,4.1,0,0,0-.85-2.6,2.76,2.76,0,0,0-2.3-1.1,2.58,2.58,0,0,0-2.52,1.17,6.29,6.29,0,0,0-.63,3v18.2a4.72,4.72,0,0,0,.68,2.6,2.65,2.65,0,0,0,2.42,1.05,3.69,3.69,0,0,0,1.08-.18,2.84,2.84,0,0,0,1.05-.57,3,3,0,0,0,.77-1.1,4.47,4.47,0,0,0,.3-1.75v-1.75h5.1Z" transform="translate(-1)" style="fill:#f9c7e4"/><rect x="637.2" y="192" width="5.1" height="35.6" style="fill:#f9c7e4"/><path d="M673.75,219.65a8.23,8.23,0,0,1-.62,3.15,8.36,8.36,0,0,1-1.73,2.62,8.51,8.51,0,0,1-2.57,1.8,7.6,7.6,0,0,1-3.18.68,11.26,11.26,0,0,1-2.95-.4,7.12,7.12,0,0,1-4.67-3.95,9.25,9.25,0,0,1-.78-4.05V199.9a8.66,8.66,0,0,1,.6-3.25,7.67,7.67,0,0,1,1.7-2.6,8,8,0,0,1,2.63-1.73,8.91,8.91,0,0,1,3.37-.62,8.47,8.47,0,0,1,3.25.62,7.79,7.79,0,0,1,2.6,1.75,8.18,8.18,0,0,1,1.73,2.7,9.38,9.38,0,0,1,.62,3.43v2h-5.1v-1.7a4.1,4.1,0,0,0-.85-2.6,2.76,2.76,0,0,0-2.3-1.1A2.58,2.58,0,0,0,663,198a6.29,6.29,0,0,0-.63,3v18.2a4.72,4.72,0,0,0,.68,2.6,2.65,2.65,0,0,0,2.42,1.05,3.69,3.69,0,0,0,1.08-.18,2.84,2.84,0,0,0,1.05-.57,3,3,0,0,0,.77-1.1,4.47,4.47,0,0,0,.3-1.75v-1.75h5.1Z" transform="translate(-1)" style="fill:#f9c7e4"/><polygon points="676.9 192 682 192 682 207.25 688.3 207.25 688.3 192 693.4 192 693.4 227.6 688.3 227.6 688.3 211.75 682 211.75 682 227.6 676.9 227.6 676.9 192" style="fill:#f9c7e4"/><polygon points="698.2 192 713.4 192 713.4 196.8 703.3 196.8 703.3 207.25 712.1 207.25 712.1 212.05 703.3 212.05 703.3 222.5 713.4 222.5 713.4 227.6 698.2 227.6 698.2 192" style="fill:#f9c7e4"/><path d="M733.9,219.65a8.23,8.23,0,0,1-.62,3.15,8.36,8.36,0,0,1-1.73,2.62,8.51,8.51,0,0,1-2.57,1.8,7.6,7.6,0,0,1-3.18.68,11.26,11.26,0,0,1-2.95-.4,7.12,7.12,0,0,1-4.67-3.95,9.25,9.25,0,0,1-.78-4.05V199.9a8.66,8.66,0,0,1,.6-3.25,7.67,7.67,0,0,1,1.7-2.6,8,8,0,0,1,2.63-1.73,8.91,8.91,0,0,1,3.37-.62,8.47,8.47,0,0,1,3.25.62,7.79,7.79,0,0,1,2.6,1.75,8.18,8.18,0,0,1,1.73,2.7,9.38,9.38,0,0,1,.62,3.43v2h-5.1v-1.7a4.1,4.1,0,0,0-.85-2.6,2.76,2.76,0,0,0-2.3-1.1,2.58,2.58,0,0,0-2.52,1.17,6.29,6.29,0,0,0-.63,3v18.2a4.72,4.72,0,0,0,.68,2.6,2.65,2.65,0,0,0,2.42,1.05,3.69,3.69,0,0,0,1.08-.18,2.84,2.84,0,0,0,1.05-.57,3,3,0,0,0,.77-1.1,4.47,4.47,0,0,0,.3-1.75v-1.75h5.1Z" transform="translate(-1)" style="fill:#f9c7e4"/><polygon points="737.05 192 742.15 192 742.15 208.25 742.25 208.25 749.7 192 754.8 192 747.85 206.25 756.1 227.6 750.7 227.6 744.9 211.8 742.15 216.95 742.15 227.6 737.05 227.6 737.05 192" style="fill:#f9c7e4"/><path d="M613.55,492h7.65a11.3,11.3,0,0,1,3.7.55,7.16,7.16,0,0,1,2.9,1.95,7.52,7.52,0,0,1,1.8,3.27,20.71,20.71,0,0,1,.5,5.08,25.8,25.8,0,0,1-.27,4,8.65,8.65,0,0,1-1.18,3.12,7.38,7.38,0,0,1-2.8,2.72,9.32,9.32,0,0,1-4.6,1h-2.6v13.9h-5.1Zm5.1,16.9h2.45a5.23,5.23,0,0,0,2.4-.45,2.86,2.86,0,0,0,1.25-1.23,4.67,4.67,0,0,0,.48-1.87c0-.73.07-1.55.07-2.45s0-1.63-.07-2.38a5.59,5.59,0,0,0-.45-1.95,2.91,2.91,0,0,0-1.18-1.3,4.62,4.62,0,0,0-2.3-.47h-2.65Z" transform="translate(-1)" style="fill:#f9c7e4"/><path d="M637.7,492H642l7.95,35.6h-5.1L643.3,520h-6.95l-1.5,7.65h-5.1Zm2.15,10.25h-.1l-2.5,12.9h5.1Z" transform="translate(-1)" style="fill:#f9c7e4"/><path d="M668.6,519.65a8.23,8.23,0,0,1-.62,3.15,8.36,8.36,0,0,1-1.73,2.62,8.51,8.51,0,0,1-2.57,1.8,7.6,7.6,0,0,1-3.18.68,11.31,11.31,0,0,1-3-.4,7.12,7.12,0,0,1-4.67-4,9.25,9.25,0,0,1-.78-4V499.9a8.66,8.66,0,0,1,.6-3.25,7.67,7.67,0,0,1,1.7-2.6,8,8,0,0,1,2.63-1.73,8.91,8.91,0,0,1,3.37-.62,8.47,8.47,0,0,1,3.25.62,7.79,7.79,0,0,1,2.6,1.75,8.18,8.18,0,0,1,1.73,2.7,9.38,9.38,0,0,1,.62,3.43v2h-5.1v-1.7a4.1,4.1,0,0,0-.85-2.6,2.76,2.76,0,0,0-2.3-1.1,2.58,2.58,0,0,0-2.52,1.17,6.29,6.29,0,0,0-.63,3v18.2a4.72,4.72,0,0,0,.68,2.6,2.65,2.65,0,0,0,2.42,1,3.69,3.69,0,0,0,1.08-.18,2.84,2.84,0,0,0,1-.57,3,3,0,0,0,.77-1.1,4.47,4.47,0,0,0,.3-1.75v-1.75h5.1Z" transform="translate(-1)" style="fill:#f9c7e4"/><polygon points="671.75 492 676.85 492 676.85 508.25 676.95 508.25 684.4 492 689.5 492 682.55 506.25 690.8 527.6 685.4 527.6 679.6 511.8 676.85 516.95 676.85 527.6 671.75 527.6 671.75 492" style="fill:#f9c7e4"/><path d="M699.7,492H704l7.95,35.6h-5.1L705.3,520h-6.95l-1.5,7.65h-5.1Zm2.15,10.25h-.1l-2.5,12.9h5.1Z" transform="translate(-1)" style="fill:#f9c7e4"/><path d="M714.1,500.4a9.11,9.11,0,0,1,.75-3.8,7.81,7.81,0,0,1,2-2.72,8.42,8.42,0,0,1,2.75-1.63,8.89,8.89,0,0,1,3.07-.55,9,9,0,0,1,3.08.55,8.63,8.63,0,0,1,2.75,1.63,7.92,7.92,0,0,1,2,2.72,9.11,9.11,0,0,1,.75,3.8v1.8h-5.1v-1.8a3.42,3.42,0,0,0-1-2.73,3.66,3.66,0,0,0-2.43-.87,3.61,3.61,0,0,0-2.42.87,3.4,3.4,0,0,0-1,2.73v18.8a3.36,3.36,0,0,0,1,2.72,3.57,3.57,0,0,0,2.42.88,3.62,3.62,0,0,0,2.43-.88,3.39,3.39,0,0,0,1-2.72v-6.7h-4.05V508h9.15v11.2a9,9,0,0,1-.75,3.82,7.93,7.93,0,0,1-2,2.7,8.63,8.63,0,0,1-2.75,1.63,9,9,0,0,1-3.08.55,8.89,8.89,0,0,1-3.07-.55,8.42,8.42,0,0,1-2.75-1.63,7.83,7.83,0,0,1-2-2.7,9,9,0,0,1-.75-3.82Z" transform="translate(-1)" style="fill:#f9c7e4"/><polygon points="734.7 492 749.9 492 749.9 496.8 739.8 496.8 739.8 507.25 748.6 507.25 748.6 512.05 739.8 512.05 739.8 522.5 749.9 522.5 749.9 527.6 734.7 527.6 734.7 492" style="fill:#f9c7e4"/><polygon points="752.9 522.5 758 522.5 758 527.6 752.9 531.3 752.9 522.5" style="fill:#f9c7e4"/><polygon points="618.53 552 623.43 552 629.98 570.85 630.08 570.85 636.58 552 641.53 552 641.53 587.6 636.43 587.6 636.43 565.95 636.33 565.95 631.28 581.25 628.73 581.25 623.73 565.95 623.63 565.95 623.63 587.6 618.53 587.6 618.53 552" style="fill:#f9c7e4"/><path d="M647,560.4a9.11,9.11,0,0,1,.75-3.8,7.79,7.79,0,0,1,2-2.72,8.53,8.53,0,0,1,2.75-1.63,8.87,8.87,0,0,1,6.15,0,8.53,8.53,0,0,1,2.75,1.63,7.81,7.81,0,0,1,2,2.72,9.11,9.11,0,0,1,.75,3.8v18.8a9,9,0,0,1-.75,3.82,7.83,7.83,0,0,1-2,2.7,8.53,8.53,0,0,1-2.75,1.63,8.87,8.87,0,0,1-6.15,0,8.53,8.53,0,0,1-2.75-1.63,7.8,7.8,0,0,1-2-2.7,9,9,0,0,1-.75-3.82Zm5.1,18.8a3.39,3.39,0,0,0,1,2.72,3.78,3.78,0,0,0,4.85,0,3.39,3.39,0,0,0,1-2.72V560.4a3.43,3.43,0,0,0-1-2.73,3.81,3.81,0,0,0-4.85,0,3.42,3.42,0,0,0-1,2.73Z" transform="translate(-1)" style="fill:#f9c7e4"/><path d="M668.63,552h7.55c2.9,0,5.11.81,6.65,2.42a9.49,9.49,0,0,1,2.3,6.78v16.65q0,5-2.43,7.37t-7,2.38h-7.1Zm5.1,30.8h2.35a3.78,3.78,0,0,0,3-1.08,5.18,5.18,0,0,0,.9-3.37V561.2a5.44,5.44,0,0,0-.85-3.25,3.62,3.62,0,0,0-3.1-1.15h-2.35Z" transform="translate(-1)" style="fill:#f9c7e4"/><path d="M706.43,579.6a8.13,8.13,0,0,1-.65,3.25,8.5,8.5,0,0,1-1.78,2.62,8.33,8.33,0,0,1-2.62,1.78,8.2,8.2,0,0,1-6.4,0,8.35,8.35,0,0,1-4.4-4.4,8,8,0,0,1-.65-3.25V552H695v27.1a3.81,3.81,0,0,0,.9,2.8,3.26,3.26,0,0,0,4.5,0,3.81,3.81,0,0,0,.9-2.8V552h5.1Z" transform="translate(-1)" style="fill:#f9c7e4"/><polygon points="710.23 552 715.33 552 715.33 582.5 725.43 582.5 725.43 587.6 710.23 587.6 710.23 552" style="fill:#f9c7e4"/><polygon points="728.73 552 743.93 552 743.93 556.8 733.83 556.8 733.83 567.25 742.63 567.25 742.63 572.05 733.83 572.05 733.83 582.5 743.93 582.5 743.93 587.6 728.73 587.6 728.73 552" style="fill:#f9c7e4"/><polygon points="746.93 582.5 752.03 582.5 752.03 587.6 746.93 591.3 746.93 582.5" style="fill:#f9c7e4"/><path d="M600,639.6a8,8,0,0,1-.65,3.25,8.35,8.35,0,0,1-4.4,4.4,8.2,8.2,0,0,1-6.4,0,8.33,8.33,0,0,1-2.62-1.78,8.5,8.5,0,0,1-1.78-2.62,8.13,8.13,0,0,1-.65-3.25V612h5.1v27.1a3.81,3.81,0,0,0,.9,2.8,3.26,3.26,0,0,0,4.5,0,3.81,3.81,0,0,0,.9-2.8V612H600Z" transform="translate(-1)" style="fill:#f9c7e4"/><polygon points="603.55 612 608.45 612 616.15 633.45 616.25 633.45 616.25 612 621.35 612 621.35 647.6 616.55 647.6 608.75 626.2 608.65 626.2 608.65 647.6 603.55 647.6 603.55 612" style="fill:#f9c7e4"/><rect x="626.1" y="612" width="5.1" height="35.6" style="fill:#f9c7e4"/><polygon points="639.5 616.8 633.6 616.8 633.6 612 650.5 612 650.5 616.8 644.6 616.8 644.6 647.6 639.5 647.6 639.5 616.8" style="fill:#f9c7e4"/><path d="M662.75,620.4a9.11,9.11,0,0,1,.75-3.8,7.81,7.81,0,0,1,2-2.72,8.42,8.42,0,0,1,2.75-1.63,8.89,8.89,0,0,1,3.07-.55,9,9,0,0,1,3.08.55,8.48,8.48,0,0,1,2.74,1.63,7.81,7.81,0,0,1,2,2.72,9.11,9.11,0,0,1,.75,3.8v18.8a9,9,0,0,1-.75,3.82,7.83,7.83,0,0,1-2,2.7,8.48,8.48,0,0,1-2.74,1.63,9,9,0,0,1-3.08.55,8.89,8.89,0,0,1-3.07-.55,8.42,8.42,0,0,1-2.75-1.63,7.83,7.83,0,0,1-2-2.7,9,9,0,0,1-.75-3.82Zm5.1,18.8a3.36,3.36,0,0,0,1,2.72,3.57,3.57,0,0,0,2.42.88,3.62,3.62,0,0,0,2.43-.88,3.39,3.39,0,0,0,1-2.72V620.4a3.42,3.42,0,0,0-1-2.73,3.66,3.66,0,0,0-2.43-.87,3.61,3.61,0,0,0-2.42.87,3.4,3.4,0,0,0-1,2.73Z" transform="translate(-1)" style="fill:#f9c7e4"/><polygon points="683.35 612 698.55 612 698.55 616.8 688.45 616.8 688.45 627.6 697.25 627.6 697.25 632.4 688.45 632.4 688.45 647.6 683.35 647.6 683.35 612" style="fill:#f9c7e4"/><path d="M728.35,639.65a8.05,8.05,0,0,1-.63,3.15,8.17,8.17,0,0,1-1.72,2.62,8.43,8.43,0,0,1-2.58,1.8,7.52,7.52,0,0,1-3.17.68,11.26,11.26,0,0,1-3-.4,7.22,7.22,0,0,1-2.7-1.38,7.42,7.42,0,0,1-2-2.57,9.41,9.41,0,0,1-.77-4V619.9a8.66,8.66,0,0,1,.6-3.25,7.67,7.67,0,0,1,1.7-2.6,8,8,0,0,1,2.62-1.73,9,9,0,0,1,3.38-.62,8.47,8.47,0,0,1,3.25.62,7.79,7.79,0,0,1,2.6,1.75,8,8,0,0,1,1.72,2.7,9.18,9.18,0,0,1,.63,3.43v2h-5.1v-1.7a4.1,4.1,0,0,0-.85-2.6,2.76,2.76,0,0,0-2.3-1.1,2.6,2.6,0,0,0-2.53,1.17,6.42,6.42,0,0,0-.62,3v18.2a4.72,4.72,0,0,0,.67,2.6,2.66,2.66,0,0,0,2.43,1,3.58,3.58,0,0,0,1.07-.18,2.69,2.69,0,0,0,1-.57A2.87,2.87,0,0,0,723,641a4.47,4.47,0,0,0,.3-1.75v-1.75h5.1Z" transform="translate(-1)" style="fill:#f9c7e4"/><path d="M732.2,620.4a9.11,9.11,0,0,1,.75-3.8,7.92,7.92,0,0,1,2-2.72,8.63,8.63,0,0,1,2.75-1.63,9,9,0,0,1,3.08-.55,8.89,8.89,0,0,1,3.07.55,8.42,8.42,0,0,1,2.75,1.63,7.81,7.81,0,0,1,2,2.72,9.11,9.11,0,0,1,.75,3.8v18.8a9,9,0,0,1-.75,3.82,7.83,7.83,0,0,1-2,2.7,8.42,8.42,0,0,1-2.75,1.63,8.89,8.89,0,0,1-3.07.55,9,9,0,0,1-3.08-.55,8.63,8.63,0,0,1-2.75-1.63,7.93,7.93,0,0,1-2-2.7,9,9,0,0,1-.75-3.82Zm5.1,18.8a3.39,3.39,0,0,0,1,2.72,3.62,3.62,0,0,0,2.43.88,3.57,3.57,0,0,0,2.42-.88,3.36,3.36,0,0,0,1-2.72V620.4a3.4,3.4,0,0,0-1-2.73,3.61,3.61,0,0,0-2.42-.87,3.66,3.66,0,0,0-2.43.87,3.42,3.42,0,0,0-1,2.73Z" transform="translate(-1)" style="fill:#f9c7e4"/><path d="M753.8,612h7.55q4.35,0,6.65,2.42a9.49,9.49,0,0,1,2.3,6.78v16.65q0,5-2.42,7.37t-7,2.38h-7.1Zm5.1,30.8h2.35a3.78,3.78,0,0,0,3-1.08,5.18,5.18,0,0,0,.9-3.37V621.2a5.37,5.37,0,0,0-.85-3.25,3.62,3.62,0,0,0-3.1-1.15H758.9Z" transform="translate(-1)" style="fill:#f9c7e4"/><polygon points="774.1 612 789.3 612 789.3 616.8 779.2 616.8 779.2 627.25 788 627.25 788 632.05 779.2 632.05 779.2 642.5 789.3 642.5 789.3 647.6 774.1 647.6 774.1 612" style="fill:#f9c7e4"/><path d="M683,454.92h-.34a14.8,14.8,0,0,0-1.62-1q-38.88-18.74-77.76-37.42a2.48,2.48,0,0,1-1.65-2.64q.06-45,0-89.94a2.41,2.41,0,0,1,1.65-2.61q35-15.93,70-31.95c4.51-2.07,9-4.21,13.46-6.32h.67c.53.29,1,.62,1.6.88q40,18.36,80,36.69a2.42,2.42,0,0,1,1.69,2.59q-.06,44.91,0,89.81a2.44,2.44,0,0,1-1.72,2.59Q733.45,431.7,698,447.92C693,450.22,688,452.58,683,454.92ZM609.17,325.51c0,.62-.1,1.05-.1,1.48q0,41.44,0,82.9a1.93,1.93,0,0,0,1.27,2q36.27,17.18,72.51,34.4c.42.2.87.34,1.39.53,0-.55.06-.88.06-1.22q0-42.21,0-84.41a2.23,2.23,0,0,0-1.66-2.3Q646.7,342.58,610.8,326.2C610.31,326,609.81,325.78,609.17,325.51Zm82.52,118.54c.6-.25.91-.37,1.21-.51Q727.45,427.2,762,410.9c1.12-.53,1.18-1.25,1.18-2.25q0-40,0-79.91V324.5c-.76.35-1.31.57-1.84.83-6.48,3.17-12.94,6.36-19.43,9.49a2.16,2.16,0,0,0-1.44,2.27c0,12.42,0,24.85,0,37.27a2.15,2.15,0,0,1-1.3,2.21c-6.55,3.53-13.05,7.13-19.57,10.7-.42.23-.87.41-1.65.77V346.85c-.82.37-1.33.58-1.82.82-7.63,3.74-15.24,7.52-22.89,11.21a2.38,2.38,0,0,0-1.57,2.52q0,38.28,0,76.55Zm-74.23-122a5.39,5.39,0,0,0,.58.42q34.05,15.39,68.09,30.75a2.17,2.17,0,0,0,1.56.08c7.92-3.75,15.81-7.54,23.8-11.36a6.35,6.35,0,0,0-.62-.47Q678,326,645.06,310.59a2.06,2.06,0,0,0-1.54,0C634.88,314.33,626.26,318.16,617.46,322.06Zm136.91-.62c-.61-.32-1-.58-1.46-.78q-32.31-14.75-64.63-29.45a3.37,3.37,0,0,0-2.46,0c-5.67,2.51-11.3,5.11-16.93,7.7-.4.18-.78.44-1.21.69a1.65,1.65,0,0,0,.26.19q33.87,14.94,67.76,29.84a1.84,1.84,0,0,0,1.38.05C742.79,327,748.47,324.26,754.37,321.44Z" transform="translate(-1)" style="fill:#f7eec9"/><polygon points="128.23 529.6 123.44 529.6 119.53 506.5 119.44 506.5 115.58 529.6 110.78 529.6 105.48 494 110.89 494 113.44 516.6 113.53 516.6 117.53 494 121.44 494 125.58 517.15 125.69 517.15 128.13 494 133.53 494 128.23 529.6" style="fill:#f9c7e4"/><polygon points="136.73 494 141.83 494 141.83 509.25 148.13 509.25 148.13 494 153.23 494 153.23 529.6 148.13 529.6 148.13 513.75 141.83 513.75 141.83 529.6 136.73 529.6 136.73 494" style="fill:#f9c7e4"/><polygon points="158.03 494 173.23 494 173.23 498.8 163.13 498.8 163.13 509.25 171.93 509.25 171.93 514.05 163.13 514.05 163.13 524.5 173.23 524.5 173.23 529.6 158.03 529.6 158.03 494" style="fill:#f9c7e4"/><polygon points="179.88 498.8 173.98 498.8 173.98 494 190.88 494 190.88 498.8 184.98 498.8 184.98 529.6 179.88 529.6 179.88 498.8" style="fill:#f9c7e4"/><polygon points="193.13 494 198.23 494 198.23 509.25 204.53 509.25 204.53 494 209.63 494 209.63 529.6 204.53 529.6 204.53 513.75 198.23 513.75 198.23 529.6 193.13 529.6 193.13 494" style="fill:#f9c7e4"/><polygon points="214.43 494 229.63 494 229.63 498.8 219.53 498.8 219.53 509.25 228.33 509.25 228.33 514.05 219.53 514.05 219.53 524.5 229.63 524.5 229.63 529.6 214.43 529.6 214.43 494" style="fill:#f9c7e4"/><path d="M233.93,494h8.2q9,0,9,10.45a13.17,13.17,0,0,1-1,5.32,7.54,7.54,0,0,1-3.43,3.58l5.5,16.25h-5.4l-4.75-15.2H239v15.2h-5.1Zm5.1,15.9h2.9a5.11,5.11,0,0,0,2.15-.38,2.8,2.8,0,0,0,1.23-1.07,4.64,4.64,0,0,0,.57-1.73,16.48,16.48,0,0,0,.15-2.37,16.73,16.73,0,0,0-.15-2.38,4.44,4.44,0,0,0-.62-1.75,2.83,2.83,0,0,0-1.33-1.07,6.1,6.1,0,0,0-2.25-.35H239Z" transform="translate(-1)" style="fill:#f9c7e4"/><rect x="263.68" y="494" width="5.1" height="35.6" style="fill:#f9c7e4"/><polygon points="277.08 498.8 271.18 498.8 271.18 494 288.08 494 288.08 498.8 282.18 498.8 282.18 529.6 277.08 529.6 277.08 498.8" style="fill:#f9c7e4"/><rect x="299.78" y="494" width="5.1" height="35.6" style="fill:#f9c7e4"/><path d="M327.33,504.25h-5.1V503.1a5.46,5.46,0,0,0-.83-3,3,3,0,0,0-2.77-1.27,3.33,3.33,0,0,0-1.73.4,3,3,0,0,0-1,1,4.3,4.3,0,0,0-.52,1.45,9.69,9.69,0,0,0-.15,1.73,17.69,17.69,0,0,0,.07,1.77,3.11,3.11,0,0,0,.38,1.25,2.94,2.94,0,0,0,.87.93,8.2,8.2,0,0,0,1.58.8l3.9,1.55a9.71,9.71,0,0,1,2.75,1.52,6.24,6.24,0,0,1,1.62,2,8.52,8.52,0,0,1,.78,2.7,27.7,27.7,0,0,1,.2,3.48,18.26,18.26,0,0,1-.45,4.17,8.61,8.61,0,0,1-1.48,3.3,7,7,0,0,1-2.72,2.18,9.78,9.78,0,0,1-4.15.8,9.09,9.09,0,0,1-3.45-.65,8.26,8.26,0,0,1-2.75-1.78,8.3,8.3,0,0,1-2.5-6v-1.9h5.1v1.6a4.15,4.15,0,0,0,.82,2.52,3.23,3.23,0,0,0,2.78,1.13,4.45,4.45,0,0,0,2-.38,2.58,2.58,0,0,0,1.1-1,4.43,4.43,0,0,0,.48-1.68,21.29,21.29,0,0,0,.1-2.2,20.74,20.74,0,0,0-.1-2.3,3.66,3.66,0,0,0-.43-1.45,2.43,2.43,0,0,0-.9-.9,12.68,12.68,0,0,0-1.52-.75l-3.65-1.5A8.08,8.08,0,0,1,311.2,509a12.28,12.28,0,0,1-1.12-5.57,12.84,12.84,0,0,1,.55-3.8,9.06,9.06,0,0,1,1.62-3.1,7.81,7.81,0,0,1,2.73-2.08,9.06,9.06,0,0,1,3.85-.77,8.41,8.41,0,0,1,3.47.7,8.64,8.64,0,0,1,2.7,1.85,8.37,8.37,0,0,1,1.73,2.57,7.49,7.49,0,0,1,.6,2.93Z" transform="translate(-1)" style="fill:#f9c7e4"/><path d="M88.76,564.25h-5.1V563.1a5.46,5.46,0,0,0-.83-3,3,3,0,0,0-2.77-1.27,3.33,3.33,0,0,0-1.73.4,3,3,0,0,0-1,1,4.3,4.3,0,0,0-.52,1.45,9.69,9.69,0,0,0-.15,1.73,17.69,17.69,0,0,0,.07,1.77,3.11,3.11,0,0,0,.38,1.25,2.94,2.94,0,0,0,.87.93,8.2,8.2,0,0,0,1.58.8l3.9,1.55a9.71,9.71,0,0,1,2.75,1.52,6.24,6.24,0,0,1,1.62,2,8.52,8.52,0,0,1,.78,2.7,27.7,27.7,0,0,1,.2,3.48,18.26,18.26,0,0,1-.45,4.17,8.61,8.61,0,0,1-1.48,3.3,7,7,0,0,1-2.72,2.18,9.75,9.75,0,0,1-4.15.8,9.17,9.17,0,0,1-3.45-.65,8.3,8.3,0,0,1-5.25-7.8v-1.9h5.1v1.6a4.15,4.15,0,0,0,.82,2.52A3.23,3.23,0,0,0,80,584.8a4.43,4.43,0,0,0,2-.38,2.58,2.58,0,0,0,1.1-1,4.43,4.43,0,0,0,.48-1.68,21.29,21.29,0,0,0,.1-2.2,20.74,20.74,0,0,0-.1-2.3,3.66,3.66,0,0,0-.43-1.45,2.43,2.43,0,0,0-.9-.9,12.68,12.68,0,0,0-1.52-.75l-3.65-1.5A8.08,8.08,0,0,1,72.63,569a12.28,12.28,0,0,1-1.12-5.57,12.84,12.84,0,0,1,.55-3.8,9.06,9.06,0,0,1,1.62-3.1,7.81,7.81,0,0,1,2.73-2.08,9.06,9.06,0,0,1,3.85-.77,8.37,8.37,0,0,1,3.47.7,8.64,8.64,0,0,1,2.7,1.85,8.37,8.37,0,0,1,1.73,2.57,7.49,7.49,0,0,1,.6,2.93Z" transform="translate(-1)" style="fill:#f9c7e4"/><polygon points="91.56 554 106.76 554 106.76 558.8 96.66 558.8 96.66 569.25 105.46 569.25 105.46 574.05 96.66 574.05 96.66 584.5 106.76 584.5 106.76 589.6 91.56 589.6 91.56 554" style="fill:#f9c7e4"/><path d="M127.26,581.65a8.05,8.05,0,0,1-.63,3.15,8.17,8.17,0,0,1-1.72,2.62,8.55,8.55,0,0,1-2.58,1.8,7.52,7.52,0,0,1-3.17.68,11.26,11.26,0,0,1-3-.4,7.22,7.22,0,0,1-2.7-1.38,7.42,7.42,0,0,1-2-2.57,9.41,9.41,0,0,1-.77-4V561.9a8.66,8.66,0,0,1,.6-3.25,7.67,7.67,0,0,1,1.7-2.6,8,8,0,0,1,2.62-1.73,9,9,0,0,1,3.38-.62,8.51,8.51,0,0,1,3.25.62,7.89,7.89,0,0,1,2.6,1.75,8,8,0,0,1,1.72,2.7,9.18,9.18,0,0,1,.63,3.43v2h-5.1v-1.7a4.1,4.1,0,0,0-.85-2.6,2.78,2.78,0,0,0-2.3-1.1,2.6,2.6,0,0,0-2.53,1.17,6.42,6.42,0,0,0-.62,3v18.2a4.72,4.72,0,0,0,.67,2.6,2.66,2.66,0,0,0,2.43,1,3.58,3.58,0,0,0,1.07-.18,2.69,2.69,0,0,0,1-.57,2.87,2.87,0,0,0,.78-1.1,4.47,4.47,0,0,0,.3-1.75v-1.75h5.1Z" transform="translate(-1)" style="fill:#f9c7e4"/><path d="M147.91,581.6a8.13,8.13,0,0,1-.65,3.25,8.45,8.45,0,0,1-4.4,4.4,8.2,8.2,0,0,1-6.4,0,8.35,8.35,0,0,1-4.4-4.4,8,8,0,0,1-.65-3.25V554h5.1v27.1a3.81,3.81,0,0,0,.9,2.8,3.26,3.26,0,0,0,4.5,0,3.81,3.81,0,0,0,.9-2.8V554h5.1Z" transform="translate(-1)" style="fill:#f9c7e4"/><path d="M152.71,554h8.2q9,0,9,10.45a13.16,13.16,0,0,1-1,5.32,7.52,7.52,0,0,1-3.42,3.58L171,589.6h-5.4l-4.75-15.2h-3.05v15.2h-5.1Zm5.1,15.9h2.9a5.11,5.11,0,0,0,2.15-.38,2.72,2.72,0,0,0,1.22-1.07,4.47,4.47,0,0,0,.58-1.73,16.48,16.48,0,0,0,.15-2.37,16.73,16.73,0,0,0-.15-2.38,4.29,4.29,0,0,0-.63-1.75,2.8,2.8,0,0,0-1.32-1.07,6.1,6.1,0,0,0-2.25-.35h-2.65Z" transform="translate(-1)" style="fill:#f9c7e4"/><polygon points="173.01 554 188.21 554 188.21 558.8 178.11 558.8 178.11 569.25 186.91 569.25 186.91 574.05 178.11 574.05 178.11 584.5 188.21 584.5 188.21 589.6 173.01 589.6 173.01 554" style="fill:#f9c7e4"/><path d="M201.51,562.4a9.11,9.11,0,0,1,.75-3.8,7.92,7.92,0,0,1,2-2.72,8.53,8.53,0,0,1,2.75-1.63,8.87,8.87,0,0,1,6.15,0,8.53,8.53,0,0,1,2.75,1.63,7.81,7.81,0,0,1,2,2.72,9.11,9.11,0,0,1,.75,3.8v18.8a9,9,0,0,1-.75,3.82,7.83,7.83,0,0,1-2,2.7,8.53,8.53,0,0,1-2.75,1.63,8.87,8.87,0,0,1-6.15,0,8.53,8.53,0,0,1-2.75-1.63,7.93,7.93,0,0,1-2-2.7,9,9,0,0,1-.75-3.82Zm5.1,18.8a3.39,3.39,0,0,0,1,2.72,3.78,3.78,0,0,0,4.85,0,3.36,3.36,0,0,0,1-2.72V562.4a3.4,3.4,0,0,0-1-2.73,3.81,3.81,0,0,0-4.85,0,3.42,3.42,0,0,0-1,2.73Z" transform="translate(-1)" style="fill:#f9c7e4"/><path d="M223.11,554h8.2q9,0,9,10.45a13.16,13.16,0,0,1-1,5.32,7.52,7.52,0,0,1-3.42,3.58l5.5,16.25H236l-4.75-15.2h-3v15.2h-5.1Zm5.1,15.9h2.9a5.15,5.15,0,0,0,2.15-.38,2.72,2.72,0,0,0,1.22-1.07,4.64,4.64,0,0,0,.58-1.73,16.48,16.48,0,0,0,.15-2.37,16.73,16.73,0,0,0-.15-2.38,4.29,4.29,0,0,0-.63-1.75,2.85,2.85,0,0,0-1.32-1.07,6.1,6.1,0,0,0-2.25-.35h-2.65Z" transform="translate(-1)" style="fill:#f9c7e4"/><polygon points="273.86 589.6 269.06 589.6 265.16 566.5 265.06 566.5 261.21 589.6 256.41 589.6 251.1 554 256.51 554 259.06 576.6 259.16 576.6 263.16 554 267.06 554 271.21 577.15 271.31 577.15 273.76 554 279.16 554 273.86 589.6" style="fill:#f9c7e4"/><path d="M282.46,562.4a9.11,9.11,0,0,1,.75-3.8,7.79,7.79,0,0,1,2-2.72,8.53,8.53,0,0,1,2.75-1.63,8.87,8.87,0,0,1,6.15,0,8.53,8.53,0,0,1,2.75,1.63,7.81,7.81,0,0,1,2,2.72,9.11,9.11,0,0,1,.75,3.8v18.8a9,9,0,0,1-.75,3.82,7.83,7.83,0,0,1-2,2.7,8.53,8.53,0,0,1-2.75,1.63,8.87,8.87,0,0,1-6.15,0,8.53,8.53,0,0,1-2.75-1.63,7.8,7.8,0,0,1-2-2.7,9,9,0,0,1-.75-3.82Zm5.1,18.8a3.39,3.39,0,0,0,1,2.72,3.78,3.78,0,0,0,4.85,0,3.39,3.39,0,0,0,1-2.72V562.4a3.43,3.43,0,0,0-1-2.73,3.81,3.81,0,0,0-4.85,0,3.42,3.42,0,0,0-1,2.73Z" transform="translate(-1)" style="fill:#f9c7e4"/><path d="M304.06,554h8.2q9,0,9,10.45a13.16,13.16,0,0,1-1,5.32,7.52,7.52,0,0,1-3.42,3.58l5.5,16.25H317l-4.75-15.2h-3v15.2h-5.1Zm5.1,15.9h2.9a5.15,5.15,0,0,0,2.15-.38,2.72,2.72,0,0,0,1.22-1.07,4.64,4.64,0,0,0,.58-1.73,16.48,16.48,0,0,0,.15-2.37A16.73,16.73,0,0,0,316,562a4.29,4.29,0,0,0-.63-1.75,2.85,2.85,0,0,0-1.32-1.07,6.1,6.1,0,0,0-2.25-.35h-2.65Z" transform="translate(-1)" style="fill:#f9c7e4"/><polygon points="324.36 554 329.45 554 329.45 570.25 329.56 570.25 337 554 342.11 554 335.15 568.25 343.4 589.6 338 589.6 332.2 573.8 329.45 578.95 329.45 589.6 324.36 589.6 324.36 554" style="fill:#f9c7e4"/><path d="M363.16,564.25h-5.11V563.1a5.45,5.45,0,0,0-.82-3,3.05,3.05,0,0,0-2.77-1.27,3.31,3.31,0,0,0-1.73.4,3,3,0,0,0-1.05,1,4.1,4.1,0,0,0-.52,1.45,8.83,8.83,0,0,0-.16,1.73,17.34,17.34,0,0,0,.08,1.77,2.85,2.85,0,0,0,1.25,2.18,7.91,7.91,0,0,0,1.58.8l3.89,1.55a9.44,9.44,0,0,1,2.75,1.52,6.27,6.27,0,0,1,1.63,2A9.07,9.07,0,0,1,363,576a27.7,27.7,0,0,1,.2,3.48,18.84,18.84,0,0,1-.45,4.17,8.76,8.76,0,0,1-1.48,3.3,7,7,0,0,1-2.73,2.18,9.7,9.7,0,0,1-4.14.8,9.09,9.09,0,0,1-3.45-.65,8.26,8.26,0,0,1-2.75-1.78,8.3,8.3,0,0,1-2.5-6v-1.9h5.09v1.6a4.16,4.16,0,0,0,.83,2.52,3.21,3.21,0,0,0,2.78,1.13,4.45,4.45,0,0,0,2-.38,2.63,2.63,0,0,0,1.1-1,4.43,4.43,0,0,0,.48-1.68c.06-.67.09-1.4.09-2.2s0-1.7-.09-2.3a3.66,3.66,0,0,0-.43-1.45,2.59,2.59,0,0,0-.9-.9,12.68,12.68,0,0,0-1.52-.75l-3.65-1.5A8,8,0,0,1,347,569a12.28,12.28,0,0,1-1.12-5.57,12.84,12.84,0,0,1,.55-3.8,8.72,8.72,0,0,1,1.62-3.1,7.87,7.87,0,0,1,2.72-2.08,9.14,9.14,0,0,1,3.86-.77,8.41,8.41,0,0,1,3.47.7,8.64,8.64,0,0,1,2.7,1.85,8.17,8.17,0,0,1,1.72,2.57,7.33,7.33,0,0,1,.61,2.93Z" transform="translate(-1)" style="fill:#f9c7e4"/><rect x="119.08" y="614" width="5.1" height="35.6" style="fill:#f9c7e4"/><path d="M146.63,624.25h-5.1V623.1a5.45,5.45,0,0,0-.82-3,3.06,3.06,0,0,0-2.78-1.27,3.29,3.29,0,0,0-1.72.4,3,3,0,0,0-1.05,1,4.31,4.31,0,0,0-.53,1.45,9.69,9.69,0,0,0-.15,1.73,17.34,17.34,0,0,0,.08,1.77,3.11,3.11,0,0,0,.37,1.25,2.86,2.86,0,0,0,.88.93,8.07,8.07,0,0,0,1.57.8l3.9,1.55a9.58,9.58,0,0,1,2.75,1.52,6.27,6.27,0,0,1,1.63,2,8.78,8.78,0,0,1,.77,2.7,25.93,25.93,0,0,1,.2,3.48,18.26,18.26,0,0,1-.45,4.17,8.75,8.75,0,0,1-1.47,3.3A7,7,0,0,1,142,649.1a9.72,9.72,0,0,1-4.15.8,9.17,9.17,0,0,1-3.45-.65,8.23,8.23,0,0,1-4.57-4.45,8.29,8.29,0,0,1-.68-3.35v-1.9h5.1v1.6a4.16,4.16,0,0,0,.83,2.52,3.21,3.21,0,0,0,2.77,1.13,4.47,4.47,0,0,0,2-.38,2.63,2.63,0,0,0,1.1-1,4.26,4.26,0,0,0,.47-1.68,21.29,21.29,0,0,0,.1-2.2,20.74,20.74,0,0,0-.1-2.3,3.66,3.66,0,0,0-.42-1.45,2.59,2.59,0,0,0-.9-.9,12.92,12.92,0,0,0-1.53-.75l-3.65-1.5a8,8,0,0,1-4.42-3.58,12.27,12.27,0,0,1-1.13-5.57,13.17,13.17,0,0,1,.55-3.8,8.9,8.9,0,0,1,1.63-3.1,7.77,7.77,0,0,1,2.72-2.08,9.09,9.09,0,0,1,3.85-.77,8.42,8.42,0,0,1,3.48.7,8.64,8.64,0,0,1,2.7,1.85,8.34,8.34,0,0,1,1.72,2.57,7.49,7.49,0,0,1,.6,2.93Z" transform="translate(-1)" style="fill:#f9c7e4"/><path d="M176.23,641.6a8.13,8.13,0,0,1-.65,3.25,8.35,8.35,0,0,1-4.4,4.4,8.2,8.2,0,0,1-6.4,0,8.33,8.33,0,0,1-2.62-1.78,8.5,8.5,0,0,1-1.78-2.62,8.13,8.13,0,0,1-.65-3.25V614h5.1v27.1a3.81,3.81,0,0,0,.9,2.8,3.26,3.26,0,0,0,4.5,0,3.81,3.81,0,0,0,.9-2.8V614h5.1Z" transform="translate(-1)" style="fill:#f9c7e4"/><polygon points="179.83 614 184.73 614 192.43 635.45 192.53 635.45 192.53 614 197.63 614 197.63 649.6 192.83 649.6 185.03 628.2 184.93 628.2 184.93 649.6 179.83 649.6 179.83 614" style="fill:#f9c7e4"/><polygon points="202.23 614 207.33 614 207.33 630.25 207.43 630.25 214.88 614 219.98 614 213.03 628.25 221.28 649.6 215.88 649.6 210.08 633.8 207.33 638.95 207.33 649.6 202.23 649.6 202.23 614" style="fill:#f9c7e4"/><polygon points="223.33 614 228.23 614 235.93 635.45 236.03 635.45 236.03 614 241.13 614 241.13 649.6 236.33 649.6 228.53 628.2 228.43 628.2 228.43 649.6 223.33 649.6 223.33 614" style="fill:#f9c7e4"/><path d="M246.43,622.4a9.11,9.11,0,0,1,.75-3.8,7.81,7.81,0,0,1,2-2.72,8.42,8.42,0,0,1,2.75-1.63,8.89,8.89,0,0,1,3.07-.55,9,9,0,0,1,3.08.55,8.63,8.63,0,0,1,2.75,1.63,7.92,7.92,0,0,1,2,2.72,9.11,9.11,0,0,1,.75,3.8v18.8a9,9,0,0,1-.75,3.82,7.93,7.93,0,0,1-2,2.7,8.63,8.63,0,0,1-2.75,1.63,9,9,0,0,1-3.08.55,8.89,8.89,0,0,1-3.07-.55,8.42,8.42,0,0,1-2.75-1.63,7.83,7.83,0,0,1-2-2.7,9,9,0,0,1-.75-3.82Zm5.1,18.8a3.36,3.36,0,0,0,1,2.72,3.57,3.57,0,0,0,2.42.88,3.62,3.62,0,0,0,2.43-.88,3.39,3.39,0,0,0,1-2.72V622.4a3.42,3.42,0,0,0-1-2.73,3.66,3.66,0,0,0-2.43-.87,3.61,3.61,0,0,0-2.42.87,3.4,3.4,0,0,0-1,2.73Z" transform="translate(-1)" style="fill:#f9c7e4"/><polygon points="287.58 649.6 282.78 649.6 278.88 626.5 278.78 626.5 274.93 649.6 270.13 649.6 264.83 614 270.23 614 272.78 636.6 272.88 636.6 276.88 614 280.78 614 284.93 637.15 285.03 637.15 287.48 614 292.88 614 287.58 649.6" style="fill:#f9c7e4"/><polygon points="295.88 614 300.78 614 308.48 635.45 308.58 635.45 308.58 614 313.68 614 313.68 649.6 308.88 649.6 301.08 628.2 300.98 628.2 300.98 649.6 295.88 649.6 295.88 614" style="fill:#f9c7e4"/><path d="M229.39,413.05H204q-.1-5.49-.1-6.68,0-12.37,4.09-20.36t16.36-18q12.27-10,14.67-13.07a17.48,17.48,0,0,0,3.69-10.77,18.17,18.17,0,0,0-6.53-14q-6.54-5.83-17.61-5.84-10.68,0-17.86,6.09T190.78,349L165,345.8q1.1-17.85,15.21-30.33T217.32,303q24.15,0,38.41,12.62T270,345a32.31,32.31,0,0,1-5.24,17.56q-5.24,8.29-22.4,22.55-8.88,7.39-11,11.88T229.39,413.05ZM204,450.77v-28h28v28Z" transform="translate(-1)" style="fill:#f7eec9"/><path d="M288,182.62H147.44c.61-13.44,12.15-27.79,25-30.82,3.48-.82,4.81-3.43,5.16-6.05a163.69,163.69,0,0,0,1.83-22.19c0-8.62-1.51-17.23-1.52-25.84a55,55,0,0,1,5.63-24.41c6.37-13,16.7-19.62,31.29-19.28,3.67.08,7.39-.2,11,.31,11.89,1.68,20.2,8.42,25.1,19.19,5.86,12.89,6.85,26.41,4.84,40.35-1.38,9.52-1.93,19.14.12,28.66a25.09,25.09,0,0,0,2.47,6.61,5.28,5.28,0,0,0,3.2,2.39c9.56,1.82,15.86,7.74,20.09,16C284.05,172.26,285.78,177.29,288,182.62Zm-40.4-80.15c-2.44,4.69-5.2,2.48-8,1Q223.16,95,206.7,86.56c-4.57-2.34-9-2-12.09,2.12C192.14,92,190.83,96.17,189,100c-.43.92-.52,2.21-1.21,2.77-3.89,3.07-3.13,12.34,1.22,14.86a5.81,5.81,0,0,1,2.35,2.56c2.69,6.42,6.17,12.28,11.28,17.07,9.24,8.66,19.88,8.74,29.2.17a46.43,46.43,0,0,0,11.32-17,5.66,5.66,0,0,1,1.56-2.59A11,11,0,0,0,247.6,102.47Zm-56,47.83c2,6.34,14.61,13,25.63,13s23.55-6.64,25.66-13.1l-7.24-8c-11.43,9.84-23,11.65-36.58,0Z" transform="translate(-1)" style="fill:#f7eec9"/><rect x="40" y="730" width="815" height="13" style="fill:#f9c7e4"/><polygon points="646.76 99.87 628.63 120.8 666.29 154.28 741.62 65 712.33 65 667.69 119.4 646.76 99.87" style="fill:#f7eec9"/></svg>