<svg id="Layer_1" data-name="Layer 1" xmlns="http://www.w3.org/2000/svg" viewBox="0 0 900 900"><defs><style>.cls-2{fill:#f9c7e4}</style></defs><path style="fill:#07448e" d="M0 0h900v900H0z"/><path class="cls-2" d="m481 176.79-42.47 88.76q8.64-.82 17.52-.84c101.7 0 184.14 82.45 184.14 184.15a183.46 183.46 0 0 1-18.08 79.68l4.78-5 38.91 101.97 91.07 31a363.81 363.81 0 0 0 64.68-207.64c0-201.87-163.63-365.49-365.48-365.49q-9 0-17.92.43Z" transform="translate(.07)"/><path class="cls-2" d="m204.58 585.49 98-34.93a184.2 184.2 0 0 1 99.39-277.75L448 176.55l-41.44-89.84c-178.44 24.16-316 177.09-316 362.15A364 364 0 0 0 171 677.58Z" transform="translate(.07)"/><path class="cls-2" d="m642.87 649.29-36.09-94.61a184.16 184.16 0 0 1-284.59 20.61l-94.34 33.65-34.35 94.15a364.42 364.42 0 0 0 262.57 111.25c113.41 0 214.75-51.66 281.79-132.72Z" transform="translate(.07)"/></svg>