<svg id="Layer_1" data-name="Layer 1" xmlns="http://www.w3.org/2000/svg" viewBox="0 0 900 900"><defs><style>.cls-1{fill:#07448e;}.cls-2{fill:#f9c7e4;}</style></defs><title>logo</title><rect class="cls-1" width="900" height="900"/><path class="cls-2" d="M481,176.79l-42.47,88.76q8.64-.82,17.52-.84c101.7,0,184.14,82.45,184.14,184.15a183.46,183.46,0,0,1-18.08,79.68l4.78-5L665.8,625.51l91.07,31a363.81,363.81,0,0,0,64.68-207.64C821.55,247,657.92,83.38,456.07,83.38q-9,0-17.92.43Z" transform="translate(0.07)"/><path class="cls-2" d="M204.58,585.49l98-34.93a184.2,184.2,0,0,1,99.39-277.75L448,176.55,406.56,86.71c-178.44,24.16-316,177.09-316,362.15A364,364,0,0,0,171,677.58Z" transform="translate(0.07)"/><path class="cls-2" d="M642.87,649.29l-36.09-94.61a184.16,184.16,0,0,1-284.59,20.61l-94.34,33.65L193.5,703.09A364.42,364.42,0,0,0,456.07,814.34c113.41,0,214.75-51.66,281.79-132.72Z" transform="translate(0.07)"/></svg>