<svg id="08b579ed-9227-49f8-8af9-41ec5a29496d" data-name="Layer 1" xmlns="http://www.w3.org/2000/svg" viewBox="0 0 900 900"><title>multiple-developers-multiple-packages</title><rect width="900" height="900" style="fill:#07448e"/><text transform="translate(40 766.11)" style="font-size:76px;fill:#f9c7e4;font-family:DINCondensed-Bold, DIN Condensed;font-weight:700">MU<tspan x="74.63" y="0" style="letter-spacing:-0.07301089638157894em">L</tspan><tspan x="97.2" y="0" style="letter-spacing:0.000012849506578947368em">TIPLE DEVELOPERS, </tspan></text><text transform="translate(40 857.31)" style="font-size:76px;fill:#f9c7e4;font-family:DINCondensed-Bold, DIN Condensed;font-weight:700">MERGING <tspan x="230.88" y="0" style="letter-spacing:-0.010986328125em">T</tspan><tspan x="255.28" y="0" style="letter-spacing:-0.000012849506578947368em">O 1 </tspan><tspan x="344.2" y="0" style="letter-spacing:-0.03599146792763158em">P</tspan><tspan x="372.39" y="0">ACKAGE </tspan></text><rect x="40" y="641" width="815" height="13" style="fill:#f9c7e4"/><path d="M441.8,605.89h-.18a8.25,8.25,0,0,0-.88-.57q-20.91-10.08-41.85-20.13a1.35,1.35,0,0,1-.89-1.42q0-24.21,0-48.42a1.3,1.3,0,0,1,.89-1.4q18.84-8.58,37.65-17.2c2.43-1.11,4.83-2.27,7.25-3.4h.36c.28.16.56.34.85.47q21.53,9.88,43.05,19.75A1.31,1.31,0,0,1,489,535q0,24.16,0,48.33a1.31,1.31,0,0,1-.92,1.4q-19.08,8.68-38.16,17.42C447.18,603.35,444.49,604.63,441.8,605.89Zm-39.74-69.66c0,.34-.05.57-.05.8q0,22.31,0,44.62a1,1,0,0,0,.68,1.09l39,18.52c.23.11.47.18.75.29,0-.3,0-.48,0-.66q0-22.71,0-45.43a1.2,1.2,0,0,0-.89-1.24L402.94,536.6C402.68,536.48,402.4,536.38,402.06,536.23ZM446.48,600c.32-.14.49-.2.65-.28q18.58-8.79,37.2-17.57c.6-.28.63-.67.63-1.21V535.69c-.41.18-.71.31-1,.45-3.49,1.7-7,3.42-10.46,5.1a1.17,1.17,0,0,0-.78,1.22c0,6.69,0,13.38,0,20.07a1.15,1.15,0,0,1-.7,1.18c-3.52,1.91-7,3.84-10.53,5.76-.23.13-.47.22-.89.42V547.72c-.45.2-.72.31-1,.44-4.11,2-8.2,4-12.32,6a1.3,1.3,0,0,0-.85,1.36q0,20.6,0,41.2Zm-40-65.67a2.38,2.38,0,0,0,.32.23l36.65,16.55a1.09,1.09,0,0,0,.83,0c4.27-2,8.52-4.05,12.81-6.11a2.38,2.38,0,0,0-.33-.25q-17.7-8.33-35.42-16.63a1.14,1.14,0,0,0-.83,0C415.9,530.21,411.26,532.27,406.52,534.37Zm73.69-.33c-.32-.17-.55-.31-.78-.42q-17.39-7.93-34.79-15.85a1.82,1.82,0,0,0-1.32,0c-3.06,1.35-6.08,2.75-9.11,4.14-.22.1-.42.24-.66.38a1.41,1.41,0,0,1,.14.1q18.24,8,36.47,16.06a1,1,0,0,0,.75,0C474,537,477,535.56,480.21,534Z" style="fill:#f7eec9"/><line x1="168.5" y1="179.5" x2="379.61" y2="375.39" style="fill:none;stroke:#f9c7e4;stroke-miterlimit:10;stroke-width:13px"/><polygon points="345.64 373.94 376.79 372.78 375.62 341.63 389.34 354.35 390.5 385.5 359.35 386.67 345.64 373.94" style="fill:#f9c7e4"/><line x1="448.5" y1="186" x2="448.06" y2="372.84" style="fill:none;stroke:#f9c7e4;stroke-miterlimit:10;stroke-width:13px"/><polygon points="426.08 346.89 448.07 369 470.16 347 470.12 365.71 448.03 387.7 426.04 365.61 426.08 346.89" style="fill:#f9c7e4"/><line x1="728.5" y1="179.5" x2="514.31" y2="381.31" style="fill:none;stroke:#f9c7e4;stroke-miterlimit:10;stroke-width:13px"/><polygon points="518.05 347.51 517.11 378.68 548.27 379.59 534.65 392.43 503.5 391.5 504.43 360.35 518.05 347.51" style="fill:#f9c7e4"/><rect x="73" y="174" width="710" height="24" style="fill:#07448e"/><path d="M191.41,186.15H146.24c.2-4.32,3.91-8.93,8-9.91a2.12,2.12,0,0,0,1.66-1.94,51.67,51.67,0,0,0,.58-7.13c0-2.77-.48-5.54-.48-8.31a17.57,17.57,0,0,1,1.81-7.84,10.21,10.21,0,0,1,10.05-6.2,32.06,32.06,0,0,1,3.54.1,10,10,0,0,1,8.06,6.17,22.76,22.76,0,0,1,1.56,13,25.68,25.68,0,0,0,0,9.21,7.75,7.75,0,0,0,.79,2.12,1.7,1.7,0,0,0,1,.77,8.92,8.92,0,0,1,6.45,5.15C190.14,182.82,190.7,184.43,191.41,186.15Zm-13-25.76c-.79,1.51-1.67.8-2.59.32q-5.26-2.73-10.56-5.43a2.84,2.84,0,0,0-3.88.68,20.42,20.42,0,0,0-1.79,3.63c-.14.29-.17.71-.39.89-1.25,1-1,4,.39,4.77a1.9,1.9,0,0,1,.76.83,15.51,15.51,0,0,0,3.62,5.48c3,2.78,6.39,2.81,9.38.06a15,15,0,0,0,3.64-5.48,1.82,1.82,0,0,1,.5-.83A3.52,3.52,0,0,0,178.43,160.39Zm-18,15.37c.63,2,4.69,4.19,8.24,4.19s7.56-2.14,8.24-4.22c-.82-.89-1.57-1.72-2.33-2.56-3.67,3.16-7.4,3.75-11.75,0Z" style="fill:#f7eec9"/><path d="M751.19,186.15H706c.2-4.32,3.91-8.93,8-9.91a2.11,2.11,0,0,0,1.66-1.94,53.28,53.28,0,0,0,.59-7.13c0-2.77-.49-5.54-.49-8.31a17.7,17.7,0,0,1,1.81-7.84c2-4.16,5.36-6.3,10-6.2a32.06,32.06,0,0,1,3.54.1,10,10,0,0,1,8.07,6.17,22.85,22.85,0,0,1,1.55,13,25.91,25.91,0,0,0,0,9.21,8.09,8.09,0,0,0,.79,2.12,1.73,1.73,0,0,0,1,.77,9,9,0,0,1,6.46,5.15C749.93,182.82,750.48,184.43,751.19,186.15Zm-13-25.76c-.78,1.51-1.67.8-2.59.32q-5.26-2.73-10.55-5.43a2.85,2.85,0,0,0-3.89.68,21.12,21.12,0,0,0-1.79,3.63c-.14.29-.17.71-.39.89-1.25,1-1,4,.39,4.77a1.9,1.9,0,0,1,.76.83,15.51,15.51,0,0,0,3.62,5.48c3,2.78,6.39,2.81,9.39.06a15,15,0,0,0,3.63-5.48,1.83,1.83,0,0,1,.51-.83A3.52,3.52,0,0,0,738.21,160.39Zm-18,15.37c.63,2,4.7,4.19,8.24,4.19s7.56-2.14,8.24-4.22c-.81-.89-1.57-1.72-2.32-2.56-3.68,3.16-7.41,3.75-11.76,0Z" style="fill:#f7eec9"/><path d="M81.08,92.7H81c-.12-.07-.22-.16-.34-.22L64.35,84.63a.52.52,0,0,1-.35-.55q0-9.45,0-18.88a.5.5,0,0,1,.35-.55L79,58l2.82-1.33H82a3.65,3.65,0,0,0,.34.18l16.78,7.7a.52.52,0,0,1,.36.55q0,9.42,0,18.85a.52.52,0,0,1-.36.54L84.23,91.23C83.18,91.71,82.13,92.21,81.08,92.7ZM65.58,65.54c0,.13,0,.22,0,.31v17.4a.4.4,0,0,0,.26.43L81,90.9l.29.11c0-.12,0-.19,0-.26V73a.46.46,0,0,0-.34-.48L65.93,65.69ZM82.9,90.42l.25-.11,14.51-6.85c.24-.11.25-.26.25-.47V65.33l-.39.17-4.08,2a.44.44,0,0,0-.3.47c0,2.61,0,5.22,0,7.82a.46.46,0,0,1-.27.47c-1.38.74-2.74,1.49-4.11,2.24l-.35.17V70l-.38.17-4.8,2.36a.48.48,0,0,0-.33.52q0,8,0,16.07ZM67.32,64.82l.13.09,14.29,6.45a.44.44,0,0,0,.32,0l5-2.39-.13-.1L73.11,62.41a.44.44,0,0,0-.32,0Zm28.74-.13-.31-.17L82.19,58.34a.77.77,0,0,0-.52,0c-1.19.53-2.37,1.08-3.55,1.62l-.26.14.06,0,14.22,6.27h.29Z" style="fill:#f7eec9"/><path d="M126.57,92.7h-.07a4,4,0,0,0-.34-.22l-16.32-7.85a.53.53,0,0,1-.35-.55q0-9.45,0-18.88a.51.51,0,0,1,.35-.55L124.52,58l2.83-1.33h.14c.11.06.22.13.33.18l16.79,7.7a.51.51,0,0,1,.35.55q0,9.42,0,18.85a.51.51,0,0,1-.36.54l-14.88,6.79C128.67,91.71,127.62,92.21,126.57,92.7ZM111.08,65.54c0,.13,0,.22,0,.31q0,8.7,0,17.4a.41.41,0,0,0,.27.43l15.21,7.22.3.11c0-.12,0-.19,0-.26,0-5.9,0-11.81,0-17.71,0-.28-.13-.38-.35-.48l-15.07-6.87ZM128.4,90.42l.25-.11,14.5-6.85c.24-.11.25-.26.25-.47V65.33l-.39.17c-1.36.67-2.71,1.34-4.08,2a.45.45,0,0,0-.3.47q0,3.91,0,7.82a.46.46,0,0,1-.27.47l-4.11,2.24c-.08,0-.18.09-.34.17V70l-.39.17c-1.6.79-3.19,1.58-4.8,2.36a.49.49,0,0,0-.33.52c0,5.36,0,10.71,0,16.07Zm-15.58-25.6.12.09,14.29,6.45a.47.47,0,0,0,.33,0l5-2.39-.13-.1-13.81-6.48a.44.44,0,0,0-.32,0Zm28.73-.13-.31-.17-13.56-6.18a.77.77,0,0,0-.52,0c-1.19.53-2.37,1.08-3.55,1.62l-.25.14,0,0,14.22,6.27h.29Z" style="fill:#f7eec9"/><path d="M172.07,92.7H172c-.12-.07-.23-.16-.35-.22l-16.31-7.85a.52.52,0,0,1-.35-.55q0-9.45,0-18.88a.5.5,0,0,1,.35-.55L170,58l2.82-1.33H173a3.65,3.65,0,0,0,.34.18l16.78,7.7a.52.52,0,0,1,.36.55q0,9.42,0,18.85a.52.52,0,0,1-.36.54l-14.88,6.79C174.16,91.71,173.12,92.21,172.07,92.7Zm-15.5-27.16c0,.13,0,.22,0,.31q0,8.7,0,17.4a.41.41,0,0,0,.27.43L172,90.9l.29.11c0-.12,0-.19,0-.26V73c0-.28-.12-.38-.35-.48l-15.07-6.87Zm17.32,24.88.25-.11,14.51-6.85c.23-.11.25-.26.25-.47q0-8.38,0-16.77v-.89l-.38.17-4.08,2a.44.44,0,0,0-.3.47c0,2.61,0,5.22,0,7.82a.45.45,0,0,1-.28.47l-4.1,2.24-.35.17V70l-.38.17-4.8,2.36a.48.48,0,0,0-.33.52q0,8,0,16.07Zm-15.58-25.6.12.09,14.29,6.45a.47.47,0,0,0,.33,0L178,69l-.12-.1L164.1,62.41a.44.44,0,0,0-.32,0ZM187,64.69l-.3-.17-13.57-6.18a.74.74,0,0,0-.51,0c-1.19.53-2.37,1.08-3.56,1.62l-.25.14.06,0,14.22,6.27h.29Z" style="fill:#f7eec9"/><path d="M217.56,92.7h-.07a4,4,0,0,0-.34-.22l-16.32-7.85a.53.53,0,0,1-.35-.55q0-9.45,0-18.88a.51.51,0,0,1,.35-.55L215.51,58l2.83-1.33h.14c.11.06.22.13.33.18l16.78,7.7a.51.51,0,0,1,.36.55q0,9.42,0,18.85a.52.52,0,0,1-.36.54l-14.88,6.79C219.66,91.71,218.61,92.21,217.56,92.7ZM202.07,65.54c0,.13,0,.22,0,.31q0,8.7,0,17.4a.41.41,0,0,0,.27.43l15.21,7.22.3.11c0-.12,0-.19,0-.26q0-8.85,0-17.71c0-.28-.13-.38-.35-.48l-15.07-6.87Zm17.31,24.88.26-.11,14.5-6.85c.24-.11.25-.26.25-.47V65.33l-.39.17c-1.36.67-2.71,1.34-4.08,2a.44.44,0,0,0-.3.47c0,2.61,0,5.22,0,7.82a.46.46,0,0,1-.27.47l-4.11,2.24-.34.17V70l-.39.17c-1.6.79-3.19,1.58-4.8,2.36a.49.49,0,0,0-.33.52q0,8,0,16.07Zm-15.57-25.6.12.09,14.29,6.45a.45.45,0,0,0,.32,0l5-2.39-.13-.1L209.6,62.41a.47.47,0,0,0-.33,0Zm28.73-.13-.31-.17-13.56-6.18a.77.77,0,0,0-.52,0c-1.19.53-2.37,1.08-3.55,1.62l-.26.14.06,0,14.22,6.27h.29Z" style="fill:#f7eec9"/><path d="M263.05,92.7H263a4,4,0,0,0-.34-.22q-8.16-3.93-16.32-7.85a.52.52,0,0,1-.34-.55q0-9.45,0-18.88a.51.51,0,0,1,.34-.55L261,58l2.83-1.33H264c.11.06.22.13.33.18l16.79,7.7a.51.51,0,0,1,.35.55q0,9.42,0,18.85a.5.5,0,0,1-.35.54q-7.45,3.39-14.88,6.79C265.15,91.71,264.1,92.21,263.05,92.7ZM247.56,65.54c0,.13,0,.22,0,.31q0,8.7,0,17.4a.41.41,0,0,0,.27.43L263,90.9l.29.11c0-.12,0-.19,0-.26,0-5.9,0-11.81,0-17.71,0-.28-.13-.38-.35-.48L247.9,65.69Zm17.32,24.88.25-.11,14.51-6.85a.41.41,0,0,0,.24-.47V65.33l-.38.17-4.08,2a.44.44,0,0,0-.3.47c0,2.61,0,5.22,0,7.82a.45.45,0,0,1-.28.47l-4.1,2.24-.35.17V70l-.38.17-4.8,2.36a.49.49,0,0,0-.34.52c0,5.36,0,10.71,0,16.07ZM249.3,64.82l.12.09,14.29,6.45a.47.47,0,0,0,.33,0L269,69l-.13-.1-13.81-6.48a.44.44,0,0,0-.32,0ZM278,64.69l-.3-.17-13.57-6.18a.75.75,0,0,0-.51,0c-1.19.53-2.37,1.08-3.56,1.62l-.25.14.05,0,14.22,6.27h.29Z" style="fill:#f7eec9"/><path d="M640.86,92.7h-.07a4,4,0,0,0-.34-.22l-16.32-7.85a.53.53,0,0,1-.35-.55q0-9.45,0-18.88a.51.51,0,0,1,.35-.55L638.81,58l2.83-1.33h.14c.11.06.22.13.33.18l16.78,7.7a.51.51,0,0,1,.36.55q0,9.42,0,18.85a.52.52,0,0,1-.36.54L644,91.23ZM625.37,65.54c0,.13,0,.22,0,.31q0,8.7,0,17.4a.41.41,0,0,0,.27.43l15.21,7.22.3.11c0-.12,0-.19,0-.26q0-8.85,0-17.71c0-.28-.13-.38-.35-.48l-15.07-6.87Zm17.31,24.88.26-.11,14.5-6.85c.24-.11.25-.26.25-.47V65.33l-.39.17c-1.36.67-2.71,1.34-4.08,2a.44.44,0,0,0-.3.47c0,2.61,0,5.22,0,7.82a.46.46,0,0,1-.27.47l-4.11,2.24-.34.17V70l-.39.17c-1.6.79-3.19,1.58-4.8,2.36a.49.49,0,0,0-.33.52q0,8,0,16.07Zm-15.57-25.6.12.09,14.29,6.45a.45.45,0,0,0,.32,0l5-2.39-.13-.1L632.9,62.41a.47.47,0,0,0-.33,0Zm28.73-.13-.31-.17L642,58.34a.77.77,0,0,0-.52,0c-1.19.53-2.37,1.08-3.55,1.62l-.26.14.06,0,14.22,6.27h.29Z" style="fill:#f7eec9"/><path d="M686.35,92.7h-.07a4,4,0,0,0-.34-.22q-8.16-3.93-16.32-7.85a.52.52,0,0,1-.34-.55q0-9.45,0-18.88a.51.51,0,0,1,.34-.55L684.3,58l2.83-1.33h.14c.11.06.22.13.33.18l16.79,7.7a.51.51,0,0,1,.35.55q0,9.42,0,18.85a.5.5,0,0,1-.35.54q-7.46,3.39-14.88,6.79C688.45,91.71,687.41,92.21,686.35,92.7ZM670.86,65.54c0,.13,0,.22,0,.31q0,8.7,0,17.4a.41.41,0,0,0,.27.43l15.22,7.22.29.11c0-.12,0-.19,0-.26,0-5.9,0-11.81,0-17.71,0-.28-.13-.38-.35-.48L671.2,65.69Zm17.32,24.88.25-.11,14.51-6.85c.23-.11.24-.26.24-.47V65.33l-.38.17-4.08,2a.44.44,0,0,0-.3.47c0,2.61,0,5.22,0,7.82a.45.45,0,0,1-.28.47l-4.1,2.24-.35.17V70l-.38.17-4.81,2.36a.49.49,0,0,0-.33.52c0,5.36,0,10.71,0,16.07ZM672.6,64.82l.12.09L687,71.36a.47.47,0,0,0,.33,0l5-2.39-.13-.1-13.81-6.48a.44.44,0,0,0-.32,0Zm28.73-.13-.3-.17-13.57-6.18a.75.75,0,0,0-.51,0c-1.19.53-2.37,1.08-3.56,1.62l-.25.14.05,0,14.22,6.27h.3Z" style="fill:#f7eec9"/><path d="M731.85,92.7h-.07a4,4,0,0,0-.34-.22l-16.32-7.85a.53.53,0,0,1-.35-.55q0-9.45,0-18.88a.5.5,0,0,1,.35-.55L729.8,58l2.82-1.33h.14c.12.06.22.13.34.18l16.78,7.7a.52.52,0,0,1,.36.55q0,9.42,0,18.85a.52.52,0,0,1-.36.54L735,91.23Zm-15.5-27.16c0,.13,0,.22,0,.31v17.4a.4.4,0,0,0,.26.43l15.22,7.22.29.11c0-.12,0-.19,0-.26q0-8.85,0-17.71c0-.28-.12-.38-.34-.48L716.7,65.69Zm17.32,24.88.26-.11,14.5-6.85c.24-.11.25-.26.25-.47V65.33l-.39.17-4.08,2a.44.44,0,0,0-.3.47c0,2.61,0,5.22,0,7.82a.46.46,0,0,1-.27.47c-1.38.74-2.74,1.49-4.11,2.24l-.35.17V70l-.38.17L734,72.55a.49.49,0,0,0-.33.52q0,8,0,16.07Zm-15.58-25.6.13.09,14.29,6.45a.45.45,0,0,0,.32,0l5-2.39-.13-.1-13.81-6.48a.47.47,0,0,0-.33,0Zm28.74-.13-.31-.17L733,58.34a.77.77,0,0,0-.52,0c-1.19.53-2.37,1.08-3.55,1.62l-.26.14.06,0,14.22,6.27h.29Z" style="fill:#f7eec9"/><path d="M777.34,92.7h-.07a4,4,0,0,0-.34-.22q-8.16-3.93-16.32-7.85a.52.52,0,0,1-.34-.55V65.2a.5.5,0,0,1,.34-.55L775.29,58l2.83-1.33h.14c.11.06.22.13.33.18l16.79,7.7a.51.51,0,0,1,.35.55q0,9.42,0,18.85a.51.51,0,0,1-.36.54L780.5,91.23C779.44,91.71,778.39,92.21,777.34,92.7ZM761.85,65.54c0,.13,0,.22,0,.31q0,8.7,0,17.4a.41.41,0,0,0,.27.43l15.22,7.22.29.11c0-.12,0-.19,0-.26,0-5.9,0-11.81,0-17.71,0-.28-.13-.38-.35-.48l-15.07-6.87Zm17.32,24.88.25-.11,14.5-6.85c.24-.11.25-.26.25-.47V65.33l-.39.17-4.07,2a.45.45,0,0,0-.31.47c0,2.61,0,5.22,0,7.82a.46.46,0,0,1-.28.47L785,78.5l-.35.17V70l-.38.17-4.81,2.36a.49.49,0,0,0-.33.52c0,5.36,0,10.71,0,16.07Zm-15.58-25.6.12.09L778,71.36a.47.47,0,0,0,.33,0l5-2.39-.13-.1-13.81-6.48a.44.44,0,0,0-.32,0Zm28.73-.13-.31-.17-13.56-6.18a.77.77,0,0,0-.52,0c-1.19.53-2.37,1.08-3.55,1.62l-.25.14,0,0,14.22,6.27h.29Z" style="fill:#f7eec9"/><path d="M822.84,92.7h-.07c-.12-.07-.22-.16-.35-.22l-16.31-7.85a.52.52,0,0,1-.35-.55q0-9.45,0-18.88a.5.5,0,0,1,.35-.55L820.79,58l2.82-1.33h.14a3.65,3.65,0,0,0,.34.18l16.78,7.7a.52.52,0,0,1,.36.55q0,9.42,0,18.85a.52.52,0,0,1-.36.54L826,91.23C824.93,91.71,823.89,92.21,822.84,92.7Zm-15.5-27.16c0,.13,0,.22,0,.31v17.4a.4.4,0,0,0,.26.43L822.8,90.9l.29.11c0-.12,0-.19,0-.26V73a.46.46,0,0,0-.34-.48l-15.07-6.87Zm17.32,24.88.25-.11,14.51-6.85c.23-.11.25-.26.25-.47V65.33l-.39.17-4.08,2a.44.44,0,0,0-.3.47c0,2.61,0,5.22,0,7.82a.46.46,0,0,1-.27.47c-1.38.74-2.74,1.49-4.11,2.24l-.35.17V70l-.38.17L825,72.55a.48.48,0,0,0-.33.52q0,8,0,16.07Zm-15.58-25.6.13.09,14.29,6.45a.44.44,0,0,0,.32,0l5-2.39-.13-.1-13.82-6.48a.44.44,0,0,0-.32,0Zm28.74-.13-.31-.17L824,58.34a.77.77,0,0,0-.52,0c-1.19.53-2.37,1.08-3.55,1.62l-.26.14.06,0,14.22,6.27h.29Z" style="fill:#f7eec9"/><path d="M361,92.7h-.07c-.12-.07-.22-.16-.34-.22l-16.32-7.85a.53.53,0,0,1-.35-.55q0-9.45,0-18.88a.5.5,0,0,1,.35-.55L358.92,58l2.82-1.33h.15a3.47,3.47,0,0,0,.33.18L379,64.5a.52.52,0,0,1,.36.55q0,9.42,0,18.85a.52.52,0,0,1-.36.54l-14.88,6.79C363.07,91.71,362,92.21,361,92.7ZM345.48,65.54c0,.13,0,.22,0,.31v17.4a.4.4,0,0,0,.26.43l15.22,7.22.29.11c0-.12,0-.19,0-.26q0-8.85,0-17.71c0-.28-.12-.38-.34-.48l-15.07-6.87Zm17.31,24.88.26-.11,14.5-6.85c.24-.11.25-.26.25-.47V65.33l-.39.17-4.08,2a.44.44,0,0,0-.3.47c0,2.61,0,5.22,0,7.82a.46.46,0,0,1-.27.47c-1.38.74-2.74,1.49-4.11,2.24l-.35.17V70l-.38.17-4.8,2.36a.49.49,0,0,0-.33.52q0,8,0,16.07Zm-15.58-25.6.13.09,14.29,6.45a.44.44,0,0,0,.32,0L367,69l-.13-.1L353,62.41a.47.47,0,0,0-.33,0ZM376,64.69l-.31-.17-13.56-6.18a.77.77,0,0,0-.52,0c-1.19.53-2.37,1.08-3.55,1.62l-.26.14.06,0L372,66.41h.29Z" style="fill:#f7eec9"/><path d="M406.46,92.7h-.07a4,4,0,0,0-.34-.22q-8.16-3.93-16.32-7.85a.52.52,0,0,1-.34-.55V65.2a.51.51,0,0,1,.34-.55L404.41,58l2.83-1.33h.14l.33.18,16.79,7.7a.51.51,0,0,1,.35.55q0,9.42,0,18.85a.51.51,0,0,1-.36.54l-14.87,6.79C408.56,91.71,407.51,92.21,406.46,92.7ZM391,65.54c0,.13,0,.22,0,.31q0,8.7,0,17.4a.41.41,0,0,0,.27.43l15.22,7.22.29.11c0-.12,0-.19,0-.26,0-5.9,0-11.81,0-17.71,0-.28-.13-.38-.35-.48l-15.07-6.87Zm17.32,24.88.25-.11,14.51-6.85c.23-.11.24-.26.24-.47V65.33l-.39.17-4.07,2a.45.45,0,0,0-.31.47c0,2.61,0,5.22,0,7.82a.46.46,0,0,1-.28.47l-4.1,2.24-.35.17V70l-.38.17-4.81,2.36a.49.49,0,0,0-.33.52c0,5.36,0,10.71,0,16.07Zm-15.58-25.6.12.09,14.29,6.45a.47.47,0,0,0,.33,0l5-2.39-.13-.1L398.5,62.41a.44.44,0,0,0-.32,0Zm28.73-.13-.31-.17-13.56-6.18a.77.77,0,0,0-.52,0c-1.19.53-2.37,1.08-3.55,1.62l-.25.14.05,0,14.22,6.27h.29Z" style="fill:#f7eec9"/><path d="M452,92.7h-.07c-.12-.07-.22-.16-.35-.22l-16.31-7.85a.52.52,0,0,1-.35-.55q0-9.45,0-18.88a.5.5,0,0,1,.35-.55L449.91,58l2.82-1.33h.14a3.65,3.65,0,0,0,.34.18L470,64.5a.52.52,0,0,1,.36.55q0,9.42,0,18.85a.52.52,0,0,1-.36.54l-14.88,6.79C454.05,91.71,453,92.21,452,92.7Zm-15.5-27.16c0,.13,0,.22,0,.31v17.4a.4.4,0,0,0,.26.43l15.22,7.22.29.11c0-.12,0-.19,0-.26V73a.46.46,0,0,0-.34-.48l-15.07-6.87Zm17.32,24.88.26-.11,14.5-6.85c.24-.11.25-.26.25-.47V65.33l-.39.17-4.08,2a.44.44,0,0,0-.3.47c0,2.61,0,5.22,0,7.82a.46.46,0,0,1-.27.47c-1.38.74-2.74,1.49-4.11,2.24l-.35.17V70l-.38.17-4.8,2.36a.48.48,0,0,0-.33.52q0,8,0,16.07ZM438.2,64.82l.13.09,14.29,6.45a.44.44,0,0,0,.32,0l5-2.39-.13-.1L444,62.41a.44.44,0,0,0-.32,0Zm28.74-.13-.31-.17-13.56-6.18a.77.77,0,0,0-.52,0c-1.19.53-2.37,1.08-3.55,1.62l-.26.14.06,0L463,66.41h.29Z" style="fill:#f7eec9"/><path d="M497.45,92.7h-.07a4,4,0,0,0-.34-.22l-16.32-7.85a.53.53,0,0,1-.35-.55q0-9.45,0-18.88a.51.51,0,0,1,.35-.55L495.4,58l2.83-1.33h.14c.11.06.22.13.33.18l16.79,7.7a.51.51,0,0,1,.35.55q0,9.42,0,18.85a.51.51,0,0,1-.36.54L500.6,91.23C499.55,91.71,498.5,92.21,497.45,92.7ZM482,65.54c0,.13,0,.22,0,.31q0,8.7,0,17.4a.41.41,0,0,0,.27.43l15.21,7.22.3.11c0-.12,0-.19,0-.26,0-5.9,0-11.81,0-17.71,0-.28-.13-.38-.35-.48L482.3,65.69Zm17.32,24.88.25-.11L514,83.46c.24-.11.25-.26.25-.47V65.33l-.39.17c-1.36.67-2.71,1.34-4.08,2a.45.45,0,0,0-.3.47q0,3.91,0,7.82a.46.46,0,0,1-.27.47l-4.11,2.24c-.08,0-.18.09-.34.17V70l-.39.17c-1.6.79-3.19,1.58-4.8,2.36a.49.49,0,0,0-.33.52c0,5.36,0,10.71,0,16.07ZM483.7,64.82l.12.09,14.29,6.45a.47.47,0,0,0,.33,0l5-2.39-.13-.1-13.81-6.48a.44.44,0,0,0-.32,0Zm28.73-.13-.31-.17-13.56-6.18a.77.77,0,0,0-.52,0c-1.19.53-2.37,1.08-3.55,1.62l-.25.14.05,0,14.22,6.27h.29Z" style="fill:#f7eec9"/><path d="M543,92.7h-.07c-.12-.07-.23-.16-.35-.22q-8.14-3.93-16.32-7.85a.52.52,0,0,1-.34-.55q0-9.45,0-18.88a.5.5,0,0,1,.35-.55L540.9,58l2.82-1.33h.14a3.65,3.65,0,0,0,.34.18L561,64.5a.51.51,0,0,1,.35.55q0,9.42,0,18.85a.52.52,0,0,1-.36.54L546.1,91.23C545,91.71,544,92.21,543,92.7Zm-15.5-27.16c0,.13,0,.22,0,.31q0,8.7,0,17.4a.41.41,0,0,0,.27.43l15.22,7.22.29.11c0-.12,0-.19,0-.26V73c0-.28-.13-.38-.35-.48l-15.07-6.87Zm17.32,24.88.25-.11,14.51-6.85c.23-.11.25-.26.25-.47q0-8.38,0-16.77v-.89l-.38.17-4.08,2a.44.44,0,0,0-.3.47c0,2.61,0,5.22,0,7.82a.45.45,0,0,1-.28.47l-4.1,2.24-.35.17V70l-.38.17-4.8,2.36a.48.48,0,0,0-.33.52q0,8,0,16.07Zm-15.58-25.6.12.09,14.29,6.45a.47.47,0,0,0,.33,0l5-2.39-.13-.1L535,62.41a.44.44,0,0,0-.32,0Zm28.73-.13-.3-.17-13.57-6.18a.75.75,0,0,0-.51,0c-1.19.53-2.37,1.08-3.56,1.62l-.25.14.06,0L554,66.41h.3Z" style="fill:#f7eec9"/><path d="M471.3,186.15H426.13c.2-4.32,3.91-8.93,8-9.91a2.11,2.11,0,0,0,1.66-1.94,53.28,53.28,0,0,0,.59-7.13c0-2.77-.49-5.54-.49-8.31a17.7,17.7,0,0,1,1.81-7.84c2.05-4.16,5.36-6.3,10.05-6.2a32.06,32.06,0,0,1,3.54.1,10,10,0,0,1,8.06,6.17,22.76,22.76,0,0,1,1.56,13,25.91,25.91,0,0,0,0,9.21,8.09,8.09,0,0,0,.79,2.12,1.7,1.7,0,0,0,1,.77,9,9,0,0,1,6.46,5.15C470,182.82,470.59,184.43,471.3,186.15Zm-13-25.76c-.78,1.51-1.67.8-2.59.32q-5.26-2.73-10.56-5.43a2.84,2.84,0,0,0-3.88.68,21.12,21.12,0,0,0-1.79,3.63c-.14.29-.17.71-.39.89-1.25,1-1,4,.39,4.77a1.9,1.9,0,0,1,.76.83,15.51,15.51,0,0,0,3.62,5.48c3,2.78,6.39,2.81,9.38.06a15,15,0,0,0,3.64-5.48,1.83,1.83,0,0,1,.51-.83A3.52,3.52,0,0,0,458.32,160.39Zm-18,15.37c.63,2,4.7,4.19,8.24,4.19s7.56-2.14,8.24-4.22c-.81-.89-1.57-1.72-2.32-2.56-3.68,3.16-7.41,3.75-11.76,0Z" style="fill:#f7eec9"/><path d="M82.38,123.13h-4c0-.57,0-.92,0-1a6.88,6.88,0,0,1,.64-3.17,9.51,9.51,0,0,1,2.54-2.79,19.31,19.31,0,0,0,2.29-2,2.75,2.75,0,0,0,.57-1.68,2.82,2.82,0,0,0-1-2.18,4,4,0,0,0-2.74-.91,4.17,4.17,0,0,0-2.78,1,5,5,0,0,0-1.53,2.89l-4-.5a6.63,6.63,0,0,1,2.37-4.72A8.39,8.39,0,0,1,80.51,106a8.68,8.68,0,0,1,6,2,5.94,5.94,0,0,1,2.23,4.58,5.06,5.06,0,0,1-.82,2.73,17.83,17.83,0,0,1-3.49,3.51,6.59,6.59,0,0,0-1.71,1.85A6.06,6.06,0,0,0,82.38,123.13Zm-4,5.87v-4.36h4.37V129Z" style="fill:#f9c7e4"/><path d="M128.13,123.13h-4c0-.57,0-.92,0-1a6.88,6.88,0,0,1,.64-3.17,9.51,9.51,0,0,1,2.54-2.79,19.31,19.31,0,0,0,2.29-2,2.75,2.75,0,0,0,.57-1.68,2.82,2.82,0,0,0-1-2.18,4,4,0,0,0-2.74-.91,4.17,4.17,0,0,0-2.78,1,5,5,0,0,0-1.53,2.89l-4-.5a6.63,6.63,0,0,1,2.37-4.72,8.39,8.39,0,0,1,5.77-1.94,8.72,8.72,0,0,1,6,2,6,6,0,0,1,2.22,4.58,5.06,5.06,0,0,1-.82,2.73,17.83,17.83,0,0,1-3.49,3.51,6.59,6.59,0,0,0-1.71,1.85A6.1,6.1,0,0,0,128.13,123.13Zm-4,5.87v-4.36h4.36V129Z" style="fill:#f9c7e4"/><path d="M173.87,123.13h-4c0-.57,0-.92,0-1a6.88,6.88,0,0,1,.64-3.17,9.51,9.51,0,0,1,2.54-2.79,19.31,19.31,0,0,0,2.29-2,2.75,2.75,0,0,0,.57-1.68,2.82,2.82,0,0,0-1-2.18,4,4,0,0,0-2.74-.91,4.17,4.17,0,0,0-2.78,1,5.08,5.08,0,0,0-1.53,2.89l-4-.5a6.63,6.63,0,0,1,2.37-4.72A8.39,8.39,0,0,1,172,106a8.72,8.72,0,0,1,6,2,6,6,0,0,1,2.22,4.58,5.06,5.06,0,0,1-.82,2.73,17.54,17.54,0,0,1-3.49,3.51,6.59,6.59,0,0,0-1.71,1.85A6.1,6.1,0,0,0,173.87,123.13Zm-4,5.87v-4.36h4.36V129Z" style="fill:#f9c7e4"/><path d="M219.61,123.13h-4c0-.57,0-.92,0-1a6.88,6.88,0,0,1,.64-3.17,9.51,9.51,0,0,1,2.54-2.79,19.31,19.31,0,0,0,2.29-2,2.75,2.75,0,0,0,.57-1.68,2.82,2.82,0,0,0-1-2.18,4,4,0,0,0-2.74-.91,4.18,4.18,0,0,0-2.78,1,5.08,5.08,0,0,0-1.53,2.89l-4-.5a6.63,6.63,0,0,1,2.37-4.72,8.41,8.41,0,0,1,5.77-1.94,8.71,8.71,0,0,1,6,2,6,6,0,0,1,2.22,4.58,5.06,5.06,0,0,1-.82,2.73,17.54,17.54,0,0,1-3.49,3.51,6.59,6.59,0,0,0-1.71,1.85A6.1,6.1,0,0,0,219.61,123.13Zm-4,5.87v-4.36H220V129Z" style="fill:#f9c7e4"/><path d="M265.35,123.13h-4c0-.57,0-.92,0-1a6.88,6.88,0,0,1,.64-3.17,9.51,9.51,0,0,1,2.54-2.79,19.31,19.31,0,0,0,2.29-2,2.75,2.75,0,0,0,.57-1.68,2.82,2.82,0,0,0-1-2.18,4,4,0,0,0-2.74-.91,4.18,4.18,0,0,0-2.78,1,5.08,5.08,0,0,0-1.53,2.89l-4-.5a6.63,6.63,0,0,1,2.37-4.72,8.41,8.41,0,0,1,5.77-1.94,8.71,8.71,0,0,1,6,2,6,6,0,0,1,2.22,4.58,5,5,0,0,1-.82,2.73,17.7,17.7,0,0,1-3.48,3.51,6.51,6.51,0,0,0-1.72,1.85A6.28,6.28,0,0,0,265.35,123.13Zm-4,5.87v-4.36h4.36V129Z" style="fill:#f9c7e4"/><path d="M362.38,123.13h-4c0-.57,0-.92,0-1a6.88,6.88,0,0,1,.64-3.17,9.51,9.51,0,0,1,2.54-2.79,19.31,19.31,0,0,0,2.29-2,2.75,2.75,0,0,0,.57-1.68,2.82,2.82,0,0,0-1-2.18,4,4,0,0,0-2.74-.91,4.17,4.17,0,0,0-2.78,1,5,5,0,0,0-1.53,2.89l-4-.5a6.63,6.63,0,0,1,2.37-4.72,8.39,8.39,0,0,1,5.77-1.94,8.68,8.68,0,0,1,6,2,5.94,5.94,0,0,1,2.23,4.58,5.06,5.06,0,0,1-.82,2.73,17.83,17.83,0,0,1-3.49,3.51,6.59,6.59,0,0,0-1.71,1.85A6.06,6.06,0,0,0,362.38,123.13Zm-4,5.87v-4.36h4.37V129Z" style="fill:#f9c7e4"/><path d="M408.13,123.13h-4c0-.57,0-.92,0-1a6.88,6.88,0,0,1,.64-3.17,9.51,9.51,0,0,1,2.54-2.79,19.31,19.31,0,0,0,2.29-2,2.75,2.75,0,0,0,.57-1.68,2.82,2.82,0,0,0-1-2.18,4,4,0,0,0-2.74-.91,4.17,4.17,0,0,0-2.78,1,5,5,0,0,0-1.53,2.89l-4-.5a6.63,6.63,0,0,1,2.37-4.72,8.39,8.39,0,0,1,5.77-1.94,8.72,8.72,0,0,1,6,2,6,6,0,0,1,2.22,4.58,5.06,5.06,0,0,1-.82,2.73,17.83,17.83,0,0,1-3.49,3.51,6.59,6.59,0,0,0-1.71,1.85A6.1,6.1,0,0,0,408.13,123.13Zm-4,5.87v-4.36h4.36V129Z" style="fill:#f9c7e4"/><path d="M453.87,123.13h-4c0-.57,0-.92,0-1a6.88,6.88,0,0,1,.64-3.17,9.51,9.51,0,0,1,2.54-2.79,19.31,19.31,0,0,0,2.29-2,2.75,2.75,0,0,0,.57-1.68,2.82,2.82,0,0,0-1-2.18,4,4,0,0,0-2.74-.91,4.17,4.17,0,0,0-2.78,1,5.08,5.08,0,0,0-1.53,2.89l-4-.5a6.63,6.63,0,0,1,2.37-4.72A8.39,8.39,0,0,1,452,106a8.72,8.72,0,0,1,6,2,6,6,0,0,1,2.22,4.58,5,5,0,0,1-.82,2.73,17.54,17.54,0,0,1-3.49,3.51,6.59,6.59,0,0,0-1.71,1.85A6.1,6.1,0,0,0,453.87,123.13Zm-4,5.87v-4.36h4.36V129Z" style="fill:#f9c7e4"/><path d="M499.61,123.13h-4c0-.57,0-.92,0-1a6.88,6.88,0,0,1,.64-3.17,9.51,9.51,0,0,1,2.54-2.79,19.31,19.31,0,0,0,2.29-2,2.75,2.75,0,0,0,.57-1.68,2.82,2.82,0,0,0-1-2.18,4,4,0,0,0-2.74-.91,4.18,4.18,0,0,0-2.78,1,5.08,5.08,0,0,0-1.53,2.89l-4-.5a6.63,6.63,0,0,1,2.37-4.72,8.41,8.41,0,0,1,5.77-1.94,8.71,8.71,0,0,1,6,2,6,6,0,0,1,2.22,4.58,5,5,0,0,1-.82,2.73,17.54,17.54,0,0,1-3.49,3.51,6.59,6.59,0,0,0-1.71,1.85A6.1,6.1,0,0,0,499.61,123.13Zm-4,5.87v-4.36H500V129Z" style="fill:#f9c7e4"/><path d="M545.35,123.13h-4c0-.57,0-.92,0-1a6.88,6.88,0,0,1,.64-3.17,9.51,9.51,0,0,1,2.54-2.79,19.31,19.31,0,0,0,2.29-2,2.75,2.75,0,0,0,.57-1.68,2.82,2.82,0,0,0-1-2.18,4,4,0,0,0-2.74-.91,4.18,4.18,0,0,0-2.78,1,5.08,5.08,0,0,0-1.53,2.89l-4-.5a6.63,6.63,0,0,1,2.37-4.72,8.41,8.41,0,0,1,5.77-1.94,8.71,8.71,0,0,1,6,2,6,6,0,0,1,2.22,4.58,5,5,0,0,1-.82,2.73,17.7,17.7,0,0,1-3.48,3.51,6.51,6.51,0,0,0-1.72,1.85A6.28,6.28,0,0,0,545.35,123.13Zm-4,5.87v-4.36h4.36V129Z" style="fill:#f9c7e4"/><path d="M642.38,123.13h-4c0-.57,0-.92,0-1a6.88,6.88,0,0,1,.64-3.17,9.51,9.51,0,0,1,2.54-2.79,19.31,19.31,0,0,0,2.29-2,2.75,2.75,0,0,0,.57-1.68,2.82,2.82,0,0,0-1-2.18,4,4,0,0,0-2.74-.91,4.17,4.17,0,0,0-2.78,1,5,5,0,0,0-1.53,2.89l-4-.5a6.63,6.63,0,0,1,2.37-4.72,8.39,8.39,0,0,1,5.77-1.94,8.68,8.68,0,0,1,6,2,6,6,0,0,1,2.23,4.58,5.06,5.06,0,0,1-.82,2.73,17.83,17.83,0,0,1-3.49,3.51,6.59,6.59,0,0,0-1.71,1.85A6.06,6.06,0,0,0,642.38,123.13Zm-4,5.87v-4.36h4.37V129Z" style="fill:#f9c7e4"/><path d="M688.12,123.13h-4c0-.57,0-.92,0-1a6.88,6.88,0,0,1,.64-3.17,9.51,9.51,0,0,1,2.54-2.79,19.31,19.31,0,0,0,2.29-2,2.75,2.75,0,0,0,.57-1.68,2.82,2.82,0,0,0-1-2.18,4,4,0,0,0-2.74-.91,4.17,4.17,0,0,0-2.78,1,5,5,0,0,0-1.53,2.89l-4-.5a6.63,6.63,0,0,1,2.37-4.72,8.39,8.39,0,0,1,5.77-1.94,8.72,8.72,0,0,1,6,2,6,6,0,0,1,2.22,4.58,5.06,5.06,0,0,1-.82,2.73,17.83,17.83,0,0,1-3.49,3.51,6.59,6.59,0,0,0-1.71,1.85A6.24,6.24,0,0,0,688.12,123.13Zm-4,5.87v-4.36h4.36V129Z" style="fill:#f9c7e4"/><path d="M733.87,123.13h-4c0-.57,0-.92,0-1a6.88,6.88,0,0,1,.64-3.17,9.51,9.51,0,0,1,2.54-2.79,19.31,19.31,0,0,0,2.29-2,2.75,2.75,0,0,0,.57-1.68,2.82,2.82,0,0,0-1-2.18,4,4,0,0,0-2.74-.91,4.17,4.17,0,0,0-2.78,1,5,5,0,0,0-1.53,2.89l-4-.5a6.63,6.63,0,0,1,2.37-4.72A8.41,8.41,0,0,1,732,106a8.72,8.72,0,0,1,6,2,6,6,0,0,1,2.22,4.58,5,5,0,0,1-.82,2.73,17.54,17.54,0,0,1-3.49,3.51,6.59,6.59,0,0,0-1.71,1.85A6.1,6.1,0,0,0,733.87,123.13Zm-4,5.87v-4.36h4.36V129Z" style="fill:#f9c7e4"/><path d="M779.61,123.13h-4c0-.57,0-.92,0-1a6.88,6.88,0,0,1,.64-3.17,9.51,9.51,0,0,1,2.54-2.79,19.31,19.31,0,0,0,2.29-2,2.75,2.75,0,0,0,.57-1.68,2.82,2.82,0,0,0-1-2.18,4,4,0,0,0-2.74-.91,4.18,4.18,0,0,0-2.78,1,5.08,5.08,0,0,0-1.53,2.89l-4-.5a6.63,6.63,0,0,1,2.37-4.72,8.41,8.41,0,0,1,5.77-1.94,8.71,8.71,0,0,1,6,2,6,6,0,0,1,2.22,4.58,5,5,0,0,1-.82,2.73,17.54,17.54,0,0,1-3.49,3.51,6.59,6.59,0,0,0-1.71,1.85A6.1,6.1,0,0,0,779.61,123.13Zm-4,5.87v-4.36H780V129Z" style="fill:#f9c7e4"/><path d="M825.35,123.13h-4c0-.57,0-.92,0-1a6.88,6.88,0,0,1,.64-3.17,9.51,9.51,0,0,1,2.54-2.79,19.31,19.31,0,0,0,2.29-2,2.75,2.75,0,0,0,.57-1.68,2.82,2.82,0,0,0-1-2.18,4,4,0,0,0-2.74-.91,4.18,4.18,0,0,0-2.78,1,5.08,5.08,0,0,0-1.53,2.89l-4-.5a6.63,6.63,0,0,1,2.37-4.72,8.41,8.41,0,0,1,5.77-1.94,8.71,8.71,0,0,1,6,2,6,6,0,0,1,2.22,4.58,5,5,0,0,1-.82,2.73,17.7,17.7,0,0,1-3.48,3.51,6.51,6.51,0,0,0-1.72,1.85A6.28,6.28,0,0,0,825.35,123.13Zm-4,5.87v-4.36h4.36V129Z" style="fill:#f9c7e4"/><path d="M449.29,467.15H437.93c0-1.63-.05-2.62-.05-3a19.87,19.87,0,0,1,1.83-9.09q1.83-3.57,7.31-8a54.72,54.72,0,0,0,6.55-5.84,7.81,7.81,0,0,0,1.65-4.81,8.11,8.11,0,0,0-2.92-6.27,11.42,11.42,0,0,0-7.87-2.6,11.86,11.86,0,0,0-8,2.72q-3.21,2.72-4.41,8.28l-11.5-1.42a19.06,19.06,0,0,1,6.79-13.55Q433.66,418,443.9,418q10.78,0,17.16,5.64t6.37,13.12a14.41,14.41,0,0,1-2.34,7.84q-2.34,3.7-10,10.08c-2.64,2.2-4.28,4-4.92,5.3S449.23,463.71,449.29,467.15ZM437.93,484V471.48h12.52V484Z" style="fill:#f9c7e4"/></svg>