<?xml version="1.0" encoding="utf-8"?>
<!-- Generator: Adobe Illustrator 22.1.0, SVG Export Plug-In . SVG Version: 6.00 Build 0)  -->
<svg version="1.1" id="Layer_1" xmlns="http://www.w3.org/2000/svg" xmlns:xlink="http://www.w3.org/1999/xlink" x="0px" y="0px"
	 viewBox="0 0 900 900" style="enable-background:new 0 0 900 900;" xml:space="preserve">
<style type="text/css">
	.st0{fill:#07448E;}
	.st1{enable-background:new    ;}
	.st2{fill:#F9C7E4;}
	.st3{fill:#F7EEC9;}
	.st4{fill:none;stroke:#F9C7E4;stroke-width:13;stroke-miterlimit:10;}
</style>
<title>multiple-developers-multiple-packages</title>
<rect class="st0" width="900" height="900"/>
<g class="st1">
	<path class="st2" d="M43.6,712h7.4l10,28.7h0.2l9.9-28.7h7.5v54.1h-7.8v-32.9h-0.2L63,756.5h-3.9l-7.6-23.3h-0.2v32.9h-7.8V712z"/>
	<path class="st2" d="M111,754c0,1.8-0.3,3.4-1,4.9c-0.7,1.5-1.6,2.8-2.7,4c-1.1,1.1-2.5,2-4,2.7c-1.5,0.7-3.1,1-4.9,1
		c-1.7,0-3.3-0.3-4.9-1c-1.5-0.7-2.9-1.6-4-2.7c-1.1-1.1-2-2.5-2.7-4c-0.7-1.5-1-3.2-1-4.9v-42h7.8v41.2c0,1.9,0.5,3.3,1.4,4.3
		s2.1,1.4,3.4,1.4s2.5-0.5,3.4-1.4s1.4-2.3,1.4-4.3V712h7.8V754z"/>
</g>
<g class="st1">
	<path class="st2" d="M118.3,712h7.8v46.4h15.4v7.8h-23.1V712z"/>
</g>
<g class="st1">
	<path class="st2" d="M145.9,719.3h-9V712h25.7v7.3h-9v46.8h-7.8V719.3z"/>
	<path class="st2" d="M166.2,712h7.8v54.1h-7.8V712z"/>
	<path class="st2" d="M181.5,712h11.6c2.1,0,4,0.3,5.6,0.8c1.6,0.6,3.1,1.5,4.4,3c1.3,1.4,2.2,3.1,2.7,5c0.5,1.9,0.8,4.5,0.8,7.7
		c0,2.4-0.1,4.4-0.4,6.1c-0.3,1.7-0.9,3.3-1.8,4.8c-1.1,1.8-2.5,3.2-4.3,4.1c-1.8,1-4.1,1.5-7,1.5h-4v21.1h-7.8V712z M189.3,737.7
		h3.7c1.6,0,2.8-0.2,3.6-0.7c0.9-0.5,1.5-1.1,1.9-1.9c0.4-0.8,0.6-1.7,0.7-2.9c0.1-1.1,0.1-2.4,0.1-3.7c0-1.3,0-2.5-0.1-3.6
		c-0.1-1.1-0.3-2.1-0.7-3s-1-1.5-1.8-2c-0.8-0.5-2-0.7-3.5-0.7h-4V737.7z"/>
	<path class="st2" d="M212.4,712h7.8v46.4h15.4v7.8h-23.1V712z"/>
	<path class="st2" d="M240.6,712h23.1v7.3h-15.4v15.9h13.4v7.3h-13.4v15.9h15.4v7.8h-23.1V712z"/>
	<path class="st2" d="M282.8,712h11.5c4.4,0,7.8,1.2,10.1,3.7c2.3,2.5,3.5,5.9,3.5,10.3v25.3c0,5.1-1.2,8.8-3.7,11.2
		c-2.5,2.4-6,3.6-10.6,3.6h-10.8V712z M290.6,758.8h3.6c2.2,0,3.7-0.5,4.6-1.6c0.9-1.1,1.4-2.8,1.4-5.1V726c0-2.1-0.4-3.8-1.3-4.9
		c-0.9-1.2-2.4-1.7-4.7-1.7h-3.6V758.8z"/>
	<path class="st2" d="M315.2,712h23.1v7.3h-15.4v15.9h13.4v7.3h-13.4v15.9h15.4v7.8h-23.1V712z"/>
	<path class="st2" d="M358.5,766.1h-6.8l-11-54.1h8.2l6.2,37.8h0.2l6.2-37.8h8.2L358.5,766.1z"/>
	<path class="st2" d="M374.2,712h23.1v7.3H382v15.9h13.4v7.3H382v15.9h15.4v7.8h-23.1V712z"/>
	<path class="st2" d="M402.4,712h7.8v46.4h15.4v7.8h-23.1V712z"/>
	<path class="st2" d="M430,724.8c0-2.2,0.4-4.1,1.1-5.8c0.8-1.7,1.8-3.1,3-4.1c1.2-1.1,2.6-1.9,4.2-2.5c1.5-0.6,3.1-0.8,4.7-0.8
		c1.6,0,3.1,0.3,4.7,0.8c1.5,0.6,2.9,1.4,4.2,2.5c1.2,1.1,2.2,2.5,3,4.1c0.8,1.7,1.1,3.6,1.1,5.8v28.6c0,2.2-0.4,4.2-1.1,5.8
		c-0.8,1.6-1.8,3-3,4.1c-1.2,1.1-2.6,1.9-4.2,2.5c-1.5,0.6-3.1,0.8-4.7,0.8c-1.6,0-3.1-0.3-4.7-0.8c-1.5-0.6-2.9-1.4-4.2-2.5
		c-1.2-1.1-2.2-2.5-3-4.1c-0.8-1.6-1.1-3.6-1.1-5.8V724.8z M437.8,753.3c0,1.9,0.5,3.3,1.6,4.1c1,0.9,2.3,1.3,3.7,1.3
		c1.4,0,2.6-0.4,3.7-1.3c1-0.9,1.6-2.3,1.6-4.1v-28.6c0-1.9-0.5-3.3-1.6-4.1c-1-0.9-2.3-1.3-3.7-1.3c-1.4,0-2.6,0.4-3.7,1.3
		c-1,0.9-1.6,2.3-1.6,4.1V753.3z"/>
	<path class="st2" d="M462.9,712h11.6c2.1,0,4,0.3,5.6,0.8c1.6,0.6,3.1,1.5,4.4,3c1.3,1.4,2.2,3.1,2.7,5c0.5,1.9,0.8,4.5,0.8,7.7
		c0,2.4-0.1,4.4-0.4,6.1c-0.3,1.7-0.9,3.3-1.8,4.8c-1.1,1.8-2.5,3.2-4.3,4.1c-1.8,1-4.1,1.5-7,1.5h-4v21.1h-7.8V712z M470.6,737.7
		h3.7c1.6,0,2.8-0.2,3.6-0.7c0.9-0.5,1.5-1.1,1.9-1.9c0.4-0.8,0.6-1.7,0.7-2.9c0.1-1.1,0.1-2.4,0.1-3.7c0-1.3,0-2.5-0.1-3.6
		c-0.1-1.1-0.3-2.1-0.7-3s-1-1.5-1.8-2c-0.8-0.5-2-0.7-3.5-0.7h-4V737.7z"/>
	<path class="st2" d="M493.8,712h23.1v7.3h-15.4v15.9h13.4v7.3h-13.4v15.9h15.4v7.8h-23.1V712z"/>
	<path class="st2" d="M521.9,712h12.5c9.1,0,13.7,5.3,13.7,15.9c0,3.1-0.5,5.8-1.5,8.1c-1,2.3-2.7,4.1-5.2,5.4l8.4,24.7h-8.2
		l-7.2-23.1h-4.6v23.1h-7.8V712z M529.7,736.2h4.4c1.4,0,2.5-0.2,3.3-0.6c0.8-0.4,1.4-0.9,1.9-1.6c0.4-0.7,0.7-1.6,0.9-2.6
		c0.2-1,0.2-2.2,0.2-3.6s-0.1-2.6-0.2-3.6c-0.2-1-0.5-1.9-1-2.7c-0.5-0.7-1.2-1.3-2-1.6c-0.9-0.4-2-0.5-3.4-0.5h-4V736.2z"/>
	<path class="st2" d="M579.4,727.6h-7.8v-1.7c0-1.8-0.4-3.3-1.3-4.6s-2.2-1.9-4.2-1.9c-1.1,0-1.9,0.2-2.6,0.6
		c-0.7,0.4-1.2,0.9-1.6,1.6c-0.4,0.6-0.6,1.4-0.8,2.2s-0.2,1.7-0.2,2.6c0,1.1,0,2,0.1,2.7c0.1,0.7,0.3,1.4,0.6,1.9
		c0.3,0.5,0.7,1,1.3,1.4c0.6,0.4,1.4,0.8,2.4,1.2l5.9,2.4c1.7,0.7,3.1,1.4,4.2,2.3c1.1,0.9,1.9,1.9,2.5,3.1c0.6,1.2,1,2.6,1.2,4.1
		c0.2,1.5,0.3,3.3,0.3,5.3c0,2.3-0.2,4.4-0.7,6.3c-0.5,2-1.2,3.6-2.2,5c-1,1.4-2.4,2.5-4.1,3.3c-1.7,0.8-3.8,1.2-6.3,1.2
		c-1.9,0-3.6-0.3-5.2-1c-1.6-0.7-3-1.6-4.2-2.7c-1.2-1.1-2.1-2.5-2.8-4.1c-0.7-1.6-1-3.3-1-5.1v-2.9h7.8v2.4c0,1.4,0.4,2.7,1.3,3.8
		c0.8,1.1,2.2,1.7,4.2,1.7c1.3,0,2.3-0.2,3.1-0.6c0.7-0.4,1.3-0.9,1.7-1.6c0.4-0.7,0.6-1.5,0.7-2.5c0.1-1,0.2-2.1,0.2-3.3
		c0-1.4-0.1-2.6-0.2-3.5c-0.1-0.9-0.3-1.6-0.6-2.2c-0.3-0.6-0.8-1-1.4-1.4c-0.6-0.4-1.4-0.7-2.3-1.1l-5.5-2.3
		c-3.3-1.4-5.6-3.2-6.7-5.4c-1.1-2.3-1.7-5.1-1.7-8.5c0-2,0.3-4,0.8-5.8c0.6-1.8,1.4-3.4,2.5-4.7c1.1-1.3,2.5-2.4,4.1-3.2
		c1.7-0.8,3.6-1.2,5.9-1.2c1.9,0,3.7,0.4,5.3,1.1c1.6,0.7,3,1.6,4.1,2.8c1.1,1.2,2,2.5,2.6,3.9c0.6,1.4,0.9,2.9,0.9,4.4V727.6z"/>
	<path class="st2" d="M584.7,758.4h7.8v7.8l-7.8,5.6V758.4z"/>
</g>
<g class="st1">
	<path class="st2" d="M43.6,803.2h7.4l10,28.7h0.2l9.9-28.7h7.5v54.1h-7.8v-32.9h-0.2L63,847.7h-3.9l-7.6-23.3h-0.2v32.9h-7.8V803.2
		z"/>
	<path class="st2" d="M111,845.1c0,1.8-0.3,3.4-1,4.9c-0.7,1.5-1.6,2.8-2.7,4c-1.1,1.1-2.5,2-4,2.7c-1.5,0.7-3.1,1-4.9,1
		c-1.7,0-3.3-0.3-4.9-1c-1.5-0.7-2.9-1.6-4-2.7c-1.1-1.1-2-2.5-2.7-4c-0.7-1.5-1-3.2-1-4.9v-42h7.8v41.2c0,1.9,0.5,3.3,1.4,4.3
		s2.1,1.4,3.4,1.4s2.5-0.5,3.4-1.4s1.4-2.3,1.4-4.3v-41.2h7.8V845.1z"/>
</g>
<g class="st1">
	<path class="st2" d="M118.3,803.2h7.8v46.4h15.4v7.8h-23.1V803.2z"/>
</g>
<g class="st1">
	<path class="st2" d="M145.9,810.5h-9v-7.3h25.7v7.3h-9v46.8h-7.8V810.5z"/>
	<path class="st2" d="M166.2,803.2h7.8v54.1h-7.8V803.2z"/>
	<path class="st2" d="M181.5,803.2h11.6c2.1,0,4,0.3,5.6,0.8c1.6,0.6,3.1,1.5,4.4,3c1.3,1.4,2.2,3.1,2.7,5c0.5,1.9,0.8,4.5,0.8,7.7
		c0,2.4-0.1,4.4-0.4,6.1c-0.3,1.7-0.9,3.3-1.8,4.8c-1.1,1.8-2.5,3.2-4.3,4.1c-1.8,1-4.1,1.5-7,1.5h-4v21.1h-7.8V803.2z M189.3,828.9
		h3.7c1.6,0,2.8-0.2,3.6-0.7c0.9-0.5,1.5-1.1,1.9-1.9c0.4-0.8,0.6-1.7,0.7-2.9c0.1-1.1,0.1-2.4,0.1-3.7c0-1.3,0-2.5-0.1-3.6
		c-0.1-1.1-0.3-2.1-0.7-3s-1-1.5-1.8-2c-0.8-0.5-2-0.7-3.5-0.7h-4V828.9z"/>
	<path class="st2" d="M212.4,803.2h7.8v46.4h15.4v7.8h-23.1V803.2z"/>
	<path class="st2" d="M240.6,803.2h23.1v7.3h-15.4v15.9h13.4v7.3h-13.4v15.9h15.4v7.8h-23.1V803.2z"/>
	<path class="st2" d="M282.8,803.2h11.5c4.4,0,7.8,1.2,10.1,3.7c2.3,2.5,3.5,5.9,3.5,10.3v25.3c0,5.1-1.2,8.8-3.7,11.2
		c-2.5,2.4-6,3.6-10.6,3.6h-10.8V803.2z M290.6,850h3.6c2.2,0,3.7-0.5,4.6-1.6c0.9-1.1,1.4-2.8,1.4-5.1v-26.1c0-2.1-0.4-3.8-1.3-4.9
		c-0.9-1.2-2.4-1.7-4.7-1.7h-3.6V850z"/>
	<path class="st2" d="M315.2,803.2h23.1v7.3h-15.4v15.9h13.4v7.3h-13.4v15.9h15.4v7.8h-23.1V803.2z"/>
	<path class="st2" d="M343.3,803.2h11.6c2.1,0,4,0.3,5.6,0.8c1.6,0.6,3.1,1.5,4.4,3c1.3,1.4,2.2,3.1,2.7,5c0.5,1.9,0.8,4.5,0.8,7.7
		c0,2.4-0.1,4.4-0.4,6.1c-0.3,1.7-0.9,3.3-1.8,4.8c-1.1,1.8-2.5,3.2-4.3,4.1c-1.8,1-4.1,1.5-7,1.5h-4v21.1h-7.8V803.2z M351.1,828.9
		h3.7c1.6,0,2.8-0.2,3.6-0.7c0.9-0.5,1.5-1.1,1.9-1.9c0.4-0.8,0.6-1.7,0.7-2.9c0.1-1.1,0.1-2.4,0.1-3.7c0-1.3,0-2.5-0.1-3.6
		c-0.1-1.1-0.3-2.1-0.7-3s-1-1.5-1.8-2c-0.8-0.5-2-0.7-3.5-0.7h-4V828.9z"/>
	<path class="st2" d="M374.2,803.2h23.1v7.3H382v15.9h13.4v7.3H382v15.9h15.4v7.8h-23.1V803.2z"/>
	<path class="st2" d="M402.1,803.2h7.4l11.7,32.6h0.2v-32.6h7.8v54.1h-7.3L410,824.8h-0.2v32.5h-7.8V803.2z"/>
	<path class="st2" d="M436.1,803.2h11.5c4.4,0,7.8,1.2,10.1,3.7c2.3,2.5,3.5,5.9,3.5,10.3v25.3c0,5.1-1.2,8.8-3.7,11.2
		c-2.5,2.4-6,3.6-10.6,3.6h-10.8V803.2z M443.9,850h3.6c2.2,0,3.7-0.5,4.6-1.6c0.9-1.1,1.4-2.8,1.4-5.1v-26.1c0-2.1-0.4-3.8-1.3-4.9
		c-0.9-1.2-2.4-1.7-4.7-1.7h-3.6V850z"/>
	<path class="st2" d="M468.5,803.2h23.1v7.3h-15.4v15.9h13.4v7.3h-13.4v15.9h15.4v7.8h-23.1V803.2z"/>
	<path class="st2" d="M496.3,803.2h7.4l11.7,32.6h0.2v-32.6h7.8v54.1h-7.3l-11.9-32.5h-0.2v32.5h-7.8V803.2z"/>
	<path class="st2" d="M555,845.2c0,1.7-0.3,3.3-1,4.8c-0.6,1.5-1.5,2.8-2.6,4c-1.1,1.1-2.4,2.1-3.9,2.7c-1.5,0.7-3.1,1-4.8,1
		c-1.5,0-3-0.2-4.5-0.6c-1.5-0.4-2.9-1.1-4.1-2.1s-2.2-2.3-3-3.9c-0.8-1.6-1.2-3.7-1.2-6.2v-29.8c0-1.8,0.3-3.4,0.9-4.9
		c0.6-1.5,1.5-2.8,2.6-4c1.1-1.1,2.4-2,4-2.6c1.5-0.6,3.3-1,5.1-1c1.8,0,3.4,0.3,4.9,1c1.5,0.6,2.8,1.5,4,2.7c1.1,1.1,2,2.5,2.6,4.1
		c0.6,1.6,1,3.3,1,5.2v3h-7.8v-2.6c0-1.5-0.4-2.8-1.3-4c-0.9-1.1-2-1.7-3.5-1.7c-1.9,0-3.2,0.6-3.8,1.8c-0.6,1.2-1,2.7-1,4.5v27.7
		c0,1.6,0.3,2.9,1,4c0.7,1.1,1.9,1.6,3.7,1.6c0.5,0,1.1-0.1,1.6-0.3c0.6-0.2,1.1-0.5,1.6-0.9c0.5-0.4,0.9-1,1.2-1.7
		c0.3-0.7,0.5-1.6,0.5-2.7v-2.7h7.8V845.2z"/>
	<path class="st2" d="M561.5,803.2h7.8v54.1h-7.8V803.2z"/>
	<path class="st2" d="M576.8,803.2h23.1v7.3h-15.4v15.9h13.4v7.3h-13.4v15.9h15.4v7.8h-23.1V803.2z"/>
	<path class="st2" d="M630,818.8h-7.8V817c0-1.8-0.4-3.3-1.3-4.6s-2.2-1.9-4.2-1.9c-1.1,0-1.9,0.2-2.6,0.6c-0.7,0.4-1.2,0.9-1.6,1.6
		c-0.4,0.6-0.6,1.4-0.8,2.2c-0.2,0.8-0.2,1.7-0.2,2.6c0,1.1,0,2,0.1,2.7c0.1,0.7,0.3,1.4,0.6,1.9c0.3,0.5,0.7,1,1.3,1.4
		c0.6,0.4,1.4,0.8,2.4,1.2l5.9,2.4c1.7,0.7,3.1,1.4,4.2,2.3c1.1,0.9,1.9,1.9,2.5,3.1c0.6,1.2,1,2.6,1.2,4.1c0.2,1.5,0.3,3.3,0.3,5.3
		c0,2.3-0.2,4.4-0.7,6.3c-0.5,2-1.2,3.6-2.2,5c-1,1.4-2.4,2.5-4.1,3.3c-1.7,0.8-3.8,1.2-6.3,1.2c-1.9,0-3.6-0.3-5.2-1
		c-1.6-0.7-3-1.6-4.2-2.7c-1.2-1.1-2.1-2.5-2.8-4.1c-0.7-1.6-1-3.3-1-5.1V842h7.8v2.4c0,1.4,0.4,2.7,1.3,3.8
		c0.8,1.1,2.2,1.7,4.2,1.7c1.3,0,2.3-0.2,3.1-0.6s1.3-0.9,1.7-1.6c0.4-0.7,0.6-1.5,0.7-2.5c0.1-1,0.2-2.1,0.2-3.3
		c0-1.4-0.1-2.6-0.2-3.5c-0.1-0.9-0.3-1.6-0.6-2.2c-0.3-0.6-0.8-1-1.4-1.4c-0.6-0.4-1.4-0.7-2.3-1.1l-5.5-2.3
		c-3.3-1.4-5.6-3.2-6.7-5.4c-1.1-2.3-1.7-5.1-1.7-8.5c0-2,0.3-4,0.8-5.8c0.6-1.8,1.4-3.4,2.5-4.7c1.1-1.3,2.5-2.4,4.1-3.2
		c1.7-0.8,3.6-1.2,5.9-1.2c1.9,0,3.7,0.4,5.3,1.1c1.6,0.7,3,1.6,4.1,2.8c1.1,1.2,2,2.5,2.6,3.9c0.6,1.4,0.9,2.9,0.9,4.4V818.8z"/>
</g>
<rect x="40" y="641" class="st2" width="815" height="13"/>
<path class="st3" d="M442.8,549.9h-0.2c-0.3-0.2-0.6-0.4-0.9-0.6c-13.9-6.7-27.9-13.4-41.9-20.1c-0.6-0.2-1-0.8-0.9-1.4
	c0-16.1,0-32.3,0-48.4c-0.1-0.6,0.3-1.2,0.9-1.4c12.6-5.7,25.1-11.5,37.6-17.2c2.4-1.1,4.8-2.3,7.2-3.4h0.4c0.3,0.2,0.6,0.3,0.9,0.5
	c14.3,6.6,28.7,13.2,43,19.8c0.6,0.2,1.1,0.8,1,1.4c0,16.1,0,32.2,0,48.3c0.1,0.6-0.3,1.2-0.9,1.4c-12.7,5.8-25.4,11.6-38.2,17.4
	C448.2,547.3,445.5,548.6,442.8,549.9z M403.1,480.2c0,0.3,0,0.6,0,0.8c0,14.9,0,29.7,0,44.6c-0.1,0.5,0.2,0.9,0.7,1.1l39,18.5
	c0.2,0.1,0.5,0.2,0.8,0.3c0-0.3,0-0.5,0-0.7c0-15.1,0-30.3,0-45.4c0-0.6-0.3-1.1-0.9-1.2l-38.6-17.6
	C403.7,480.5,403.4,480.4,403.1,480.2z M447.5,544c0.3-0.1,0.5-0.2,0.6-0.3c12.4-5.9,24.8-11.7,37.2-17.6c0.6-0.3,0.6-0.7,0.6-1.2
	v-45.2c-0.4,0.2-0.7,0.3-1,0.5c-3.5,1.7-7,3.4-10.5,5.1c-0.5,0.2-0.8,0.7-0.8,1.2c0,6.7,0,13.4,0,20.1c0.1,0.5-0.2,1-0.7,1.2
	c-3.5,1.9-7,3.8-10.5,5.8c-0.2,0.1-0.5,0.2-0.9,0.4v-22.2c-0.5,0.2-0.7,0.3-1,0.4c-4.1,2-8.2,4-12.3,6c-0.6,0.2-0.9,0.8-0.9,1.4
	c0,13.7,0,27.5,0,41.2L447.5,544z M407.5,478.3c0.1,0.1,0.2,0.2,0.3,0.2l36.6,16.5c0.3,0.1,0.6,0.1,0.8,0c4.3-2,8.5-4,12.8-6.1
	c-0.1-0.1-0.2-0.2-0.3-0.2c-11.8-5.5-23.6-11.1-35.4-16.6c-0.3-0.1-0.6-0.1-0.8,0C416.9,474.2,412.3,476.3,407.5,478.3L407.5,478.3z
	 M481.2,478c-0.3-0.2-0.5-0.3-0.8-0.4c-11.6-5.3-23.2-10.6-34.8-15.9c-0.4-0.2-0.9-0.2-1.3,0c-3.1,1.4-6.1,2.8-9.1,4.1
	c-0.2,0.1-0.4,0.2-0.6,0.4c0,0,0.1,0.1,0.1,0.1l36.5,16.1c0.2,0.1,0.5,0.1,0.8,0C475,481,478,479.6,481.2,478L481.2,478z"/>
<line class="st4" x1="168.5" y1="223.5" x2="379.6" y2="419.4"/>
<polygon class="st2" points="345.6,417.9 376.8,416.8 375.6,385.6 389.3,398.4 390.5,429.5 359.4,430.7 "/>
<line class="st4" x1="448.5" y1="230" x2="448.1" y2="416.8"/>
<polygon class="st2" points="426.1,390.9 448.1,413 470.2,391 470.1,409.7 448,431.7 426,409.6 "/>
<line class="st4" x1="728.5" y1="223.5" x2="514.3" y2="425.3"/>
<polygon class="st2" points="518,391.5 517.1,422.7 548.3,423.6 534.7,436.4 503.5,435.5 504.4,404.4 "/>
<rect x="73" y="218" class="st0" width="710" height="24"/>
<path class="st3" d="M81.1,172.7L81.1,172.7c-0.2-0.1-0.3-0.2-0.4-0.2l-16.3-7.9c-0.2-0.1-0.4-0.3-0.3-0.6c0-6.3,0-12.6,0-18.9
	c0-0.2,0.1-0.5,0.3-0.6L79,138l2.8-1.3H82c0.1,0.1,0.2,0.1,0.3,0.2l16.8,7.7c0.2,0.1,0.4,0.3,0.4,0.6c0,6.3,0,12.6,0,18.9
	c0,0.2-0.1,0.5-0.4,0.5l-14.9,6.8L81.1,172.7z M65.6,145.5c0,0.1,0,0.2,0,0.3v17.4c0,0.2,0.1,0.4,0.3,0.4l15.2,7.2l0.3,0.1
	c0-0.1,0-0.2,0-0.3V153c0-0.2-0.1-0.4-0.3-0.5l-15.1-6.9L65.6,145.5z M82.9,170.4l0.2-0.1l14.5-6.9c0.2-0.1,0.2-0.3,0.2-0.5v-17.7
	l-0.4,0.2c-1.4,0.7-2.7,1.3-4.1,2c-0.2,0.1-0.3,0.3-0.3,0.5c0,2.6,0,5.2,0,7.8c0,0.2-0.1,0.4-0.3,0.5c-1.4,0.7-2.7,1.5-4.1,2.2
	l-0.3,0.2V150l-0.4,0.2l-4.8,2.4c-0.2,0.1-0.4,0.3-0.3,0.5c0,5.3,0,10.7,0,16.1V170.4z M67.3,144.8l0.1,0.1l14.3,6.4
	c0.1,0,0.2,0,0.3,0l5-2.4c-0.1,0-0.1-0.1-0.1-0.1l-13.8-6.5c-0.1,0-0.2,0-0.3,0L67.3,144.8z M96.1,144.7l-0.3-0.2l-13.6-6.2
	c-0.2-0.1-0.4-0.1-0.5,0c-1.2,0.5-2.4,1.1-3.6,1.6l-0.3,0.1h0.1l14.2,6.3c0.1,0,0.2,0,0.3,0L96.1,144.7z"/>
<path class="st3" d="M126.6,172.7L126.6,172.7c-0.2-0.1-0.3-0.2-0.4-0.2l-16.3-7.9c-0.2-0.1-0.4-0.3-0.3-0.6c0-6.3,0-12.6,0-18.9
	c0-0.2,0.1-0.5,0.3-0.6l14.7-6.7l2.8-1.3h0.1l0.3,0.2l16.8,7.7c0.2,0.1,0.4,0.3,0.4,0.6c0,6.3,0,12.6,0,18.9c0,0.2-0.1,0.5-0.4,0.5
	l-14.9,6.8L126.6,172.7z M111.1,145.5c0,0.1,0,0.2,0,0.3c0,5.8,0,11.6,0,17.4c0,0.2,0.1,0.4,0.3,0.4l15.2,7.2l0.3,0.1
	c0-0.1,0-0.2,0-0.3c0-5.9,0-11.8,0-17.7c0-0.3-0.1-0.4-0.3-0.5l-15.1-6.9L111.1,145.5z M128.4,170.4l0.2-0.1l14.5-6.9
	c0.2-0.1,0.2-0.3,0.2-0.5v-17.7l-0.4,0.2c-1.4,0.7-2.7,1.3-4.1,2c-0.2,0.1-0.3,0.3-0.3,0.5c0,2.6,0,5.2,0,7.8c0,0.2-0.1,0.4-0.3,0.5
	l-4.1,2.2c-0.1,0.1-0.2,0.1-0.3,0.2V150l-0.4,0.2c-1.6,0.8-3.2,1.6-4.8,2.4c-0.2,0.1-0.4,0.3-0.3,0.5c0,5.4,0,10.7,0,16.1
	L128.4,170.4z M112.8,144.8l0.1,0.1l14.3,6.4c0.1,0,0.2,0,0.3,0l5-2.4c-0.1,0-0.1-0.1-0.1-0.1l-13.8-6.5c-0.1,0-0.2,0-0.3,0
	L112.8,144.8z M141.5,144.7l-0.3-0.2l-13.6-6.2c-0.2-0.1-0.4-0.1-0.5,0c-1.2,0.5-2.4,1.1-3.6,1.6l-0.2,0.1l0,0l14.2,6.3
	c0.1,0,0.2,0,0.3,0L141.5,144.7z"/>
<path class="st3" d="M172.1,172.7L172.1,172.7c-0.2-0.1-0.3-0.2-0.4-0.2l-16.3-7.9c-0.2-0.1-0.4-0.3-0.4-0.6c0-6.3,0-12.6,0-18.9
	c0-0.2,0.1-0.5,0.4-0.6L170,138l2.8-1.3h0.2c0.1,0.1,0.2,0.1,0.3,0.2l16.8,7.7c0.2,0.1,0.4,0.3,0.4,0.6c0,6.3,0,12.6,0,18.9
	c0,0.2-0.1,0.5-0.4,0.5l-14.9,6.8C174.2,171.7,173.1,172.2,172.1,172.7z M156.6,145.5c0,0.1,0,0.2,0,0.3c0,5.8,0,11.6,0,17.4
	c0,0.2,0.1,0.4,0.3,0.4l15.2,7.2l0.3,0.1c0-0.1,0-0.2,0-0.3V153c0-0.3-0.1-0.4-0.4-0.5l-15.1-6.9L156.6,145.5z M173.9,170.4l0.2-0.1
	l14.5-6.9c0.2-0.1,0.2-0.3,0.2-0.5c0-5.6,0-11.2,0-16.8v-0.9l-0.4,0.2c-1.4,0.7-2.7,1.3-4.1,2c-0.2,0.1-0.3,0.3-0.3,0.5
	c0,2.6,0,5.2,0,7.8c0,0.2-0.1,0.4-0.3,0.5l-4.1,2.2l-0.4,0.2V150l-0.4,0.2l-4.8,2.4c-0.2,0.1-0.4,0.3-0.3,0.5c0,5.3,0,10.7,0,16.1
	L173.9,170.4z M158.3,144.8l0.1,0.1l14.3,6.4c0.1,0,0.2,0,0.3,0l5-2.4c-0.1,0-0.1-0.1-0.1-0.1l-13.8-6.5c-0.1,0-0.2,0-0.3,0
	L158.3,144.8z M187,144.7l-0.3-0.2l-13.6-6.2c-0.2-0.1-0.3-0.1-0.5,0c-1.2,0.5-2.4,1.1-3.6,1.6l-0.3,0.1h0.1l14.2,6.3
	c0.1,0,0.2,0,0.3,0L187,144.7z"/>
<path class="st3" d="M217.6,172.7L217.6,172.7c-0.2-0.1-0.3-0.2-0.4-0.2l-16.3-7.9c-0.2-0.1-0.4-0.3-0.4-0.6c0-6.3,0-12.6,0-18.9
	c0-0.2,0.1-0.5,0.4-0.6l14.7-6.7l2.8-1.3h0.1l0.3,0.2l16.8,7.7c0.2,0.1,0.4,0.3,0.4,0.6c0,6.3,0,12.6,0,18.9c0,0.2-0.1,0.5-0.4,0.5
	l-14.9,6.8L217.6,172.7z M202.1,145.5c0,0.1,0,0.2,0,0.3c0,5.8,0,11.6,0,17.4c0,0.2,0.1,0.4,0.3,0.4l15.2,7.2l0.3,0.1
	c0-0.1,0-0.2,0-0.3c0-5.9,0-11.8,0-17.7c0-0.3-0.1-0.4-0.4-0.5l-15.1-6.9L202.1,145.5z M219.4,170.4l0.3-0.1l14.5-6.9
	c0.2-0.1,0.2-0.3,0.2-0.5v-17.7l-0.4,0.2c-1.4,0.7-2.7,1.3-4.1,2c-0.2,0.1-0.3,0.3-0.3,0.5c0,2.6,0,5.2,0,7.8c0,0.2-0.1,0.4-0.3,0.5
	l-4.1,2.2l-0.3,0.2V150l-0.4,0.2c-1.6,0.8-3.2,1.6-4.8,2.4c-0.2,0.1-0.4,0.3-0.3,0.5c0,5.4,0,10.7,0,16.1
	C219.4,169.6,219.4,170,219.4,170.4L219.4,170.4z M203.8,144.8l0.1,0.1l14.3,6.4c0.1,0,0.2,0,0.3,0l5-2.4c-0.1,0-0.1-0.1-0.1-0.1
	l-13.8-6.5c-0.1,0-0.2,0-0.3,0L203.8,144.8z M232.5,144.7l-0.3-0.2l-13.6-6.2c-0.2-0.1-0.4-0.1-0.5,0c-1.2,0.5-2.4,1.1-3.6,1.6
	l-0.3,0.1h0.1l14.2,6.3c0.1,0,0.2,0,0.3,0L232.5,144.7z"/>
<path class="st3" d="M263,172.7L263,172.7c-0.2-0.1-0.3-0.2-0.4-0.2c-5.4-2.6-10.9-5.2-16.3-7.9c-0.2-0.1-0.4-0.3-0.3-0.6
	c0-6.3,0-12.6,0-18.9c0-0.2,0.1-0.5,0.3-0.6L261,138l2.8-1.3h0.2l0.3,0.2l16.8,7.7c0.2,0.1,0.4,0.3,0.4,0.6c0,6.3,0,12.6,0,18.9
	c0,0.2-0.1,0.5-0.4,0.5c-5,2.3-9.9,4.5-14.9,6.8C265.1,171.7,264.1,172.2,263,172.7z M247.6,145.5c0,0.1,0,0.2,0,0.3
	c0,5.8,0,11.6,0,17.4c0,0.2,0.1,0.4,0.3,0.4l15.2,7.2l0.3,0.1c0-0.1,0-0.2,0-0.3c0-5.9,0-11.8,0-17.7c0-0.3-0.1-0.4-0.4-0.5
	l-15.1-6.9L247.6,145.5z M264.9,170.4l0.2-0.1l14.5-6.9c0.2-0.1,0.3-0.3,0.2-0.5v-17.7l-0.4,0.2c-1.4,0.7-2.7,1.3-4.1,2
	c-0.2,0.1-0.3,0.3-0.3,0.5c0,2.6,0,5.2,0,7.8c0,0.2-0.1,0.4-0.3,0.5l-4.1,2.2l-0.4,0.2V150l-0.4,0.2l-4.8,2.4
	c-0.2,0.1-0.4,0.3-0.3,0.5c0,5.4,0,10.7,0,16.1L264.9,170.4z M249.3,144.8l0.1,0.1l14.3,6.4c0.1,0,0.2,0,0.3,0l5-2.4
	c0,0-0.1-0.1-0.1-0.1l-13.8-6.5c-0.1,0-0.2,0-0.3,0L249.3,144.8z M278,144.7l-0.3-0.2l-13.6-6.2c-0.2-0.1-0.3-0.1-0.5,0
	c-1.2,0.5-2.4,1.1-3.6,1.6l-0.2,0.1h0l14.2,6.3c0.1,0,0.2,0,0.3,0L278,144.7z"/>
<path class="st3" d="M191.4,230.1h-45.2c0.2-4.3,3.9-8.9,8-9.9c0.9-0.2,1.6-1,1.7-1.9c0.4-2.4,0.6-4.7,0.6-7.1
	c0-2.8-0.5-5.5-0.5-8.3c0-2.7,0.6-5.4,1.8-7.8c1.7-4,5.7-6.5,10.1-6.2c1.2,0,2.4,0,3.5,0.1c3.6,0.4,6.7,2.8,8.1,6.2
	c1.8,4.1,2.3,8.6,1.6,13c-0.6,3-0.6,6.2,0,9.2c0.2,0.7,0.4,1.5,0.8,2.1c0.2,0.4,0.6,0.7,1,0.8c2.9,0.6,5.3,2.5,6.4,5.1
	C190.1,226.8,190.7,228.4,191.4,230.1z M178.4,204.4c-0.8,1.5-1.7,0.8-2.6,0.3c-3.5-1.8-7-3.6-10.6-5.4c-1.3-0.9-3-0.6-3.9,0.7
	c-0.7,1.1-1.3,2.4-1.8,3.6c-0.1,0.3-0.2,0.7-0.4,0.9c-1.2,1-1,4,0.4,4.8c0.3,0.2,0.6,0.5,0.8,0.8c0.8,2.1,2,3.9,3.6,5.5
	c3,2.8,6.4,2.8,9.4,0.1c1.6-1.5,2.8-3.4,3.6-5.5c0.1-0.3,0.3-0.6,0.5-0.8C179.1,208.2,179.5,206,178.4,204.4
	C178.4,204.4,178.4,204.4,178.4,204.4L178.4,204.4z M160.4,219.8c0.6,2,4.7,4.2,8.2,4.2s7.6-2.1,8.2-4.2l-2.3-2.6
	c-3.7,3.2-7.4,3.8-11.8,0L160.4,219.8z"/>
<path class="st3" d="M640.9,172.7L640.9,172.7c-0.2-0.1-0.3-0.2-0.4-0.2l-16.3-7.9c-0.2-0.1-0.4-0.3-0.3-0.6c0-6.3,0-12.6,0-18.9
	c0-0.2,0.1-0.5,0.3-0.6l14.7-6.7l2.8-1.3h0.1l0.3,0.2l16.8,7.7c0.2,0.1,0.4,0.3,0.4,0.6c0,6.3,0,12.6,0,18.9c0,0.2-0.1,0.5-0.4,0.5
	l-14.9,6.8L640.9,172.7z M625.4,145.5c0,0.1,0,0.2,0,0.3c0,5.8,0,11.6,0,17.4c0,0.2,0.1,0.4,0.3,0.4l15.2,7.2l0.3,0.1
	c0-0.1,0-0.2,0-0.3c0-5.9,0-11.8,0-17.7c0-0.3-0.1-0.4-0.3-0.5l-15.1-6.9L625.4,145.5z M642.7,170.4l0.3-0.1l14.5-6.9
	c0.2-0.1,0.2-0.3,0.2-0.5v-17.7l-0.4,0.2c-1.4,0.7-2.7,1.3-4.1,2c-0.2,0.1-0.3,0.3-0.3,0.5c0,2.6,0,5.2,0,7.8c0,0.2-0.1,0.4-0.3,0.5
	l-4.1,2.2l-0.3,0.2V150l-0.4,0.2c-1.6,0.8-3.2,1.6-4.8,2.4c-0.2,0.1-0.4,0.3-0.3,0.5c0,5.3,0,10.7,0,16.1L642.7,170.4z M627.1,144.8
	l0.1,0.1l14.3,6.4c0.1,0,0.2,0,0.3,0l5-2.4c-0.1,0-0.1-0.1-0.1-0.1l-13.8-6.5c-0.1,0-0.2,0-0.3,0L627.1,144.8z M655.8,144.7
	l-0.3-0.2l-13.5-6.2c-0.2-0.1-0.4-0.1-0.5,0c-1.2,0.5-2.4,1.1-3.5,1.6l-0.3,0.1h0.1l14.2,6.3c0.1,0,0.2,0,0.3,0L655.8,144.7z"/>
<path class="st3" d="M686.3,172.7L686.3,172.7c-0.2-0.1-0.3-0.2-0.4-0.2c-5.4-2.6-10.9-5.2-16.3-7.9c-0.2-0.1-0.4-0.3-0.3-0.6
	c0-6.3,0-12.6,0-18.9c0-0.2,0.1-0.5,0.3-0.6l14.7-6.6l2.8-1.3h0.1l0.3,0.2l16.8,7.7c0.2,0.1,0.4,0.3,0.3,0.6c0,6.3,0,12.6,0,18.9
	c0,0.2-0.1,0.5-0.3,0.5c-5,2.3-9.9,4.5-14.9,6.8C688.5,171.7,687.4,172.2,686.3,172.7z M670.9,145.5c0,0.1,0,0.2,0,0.3
	c0,5.8,0,11.6,0,17.4c0,0.2,0.1,0.4,0.3,0.4l15.2,7.2l0.3,0.1c0-0.1,0-0.2,0-0.3c0-5.9,0-11.8,0-17.7c0-0.3-0.1-0.4-0.3-0.5
	l-15.1-6.9L670.9,145.5z M688.2,170.4l0.2-0.1l14.5-6.9c0.2-0.1,0.2-0.3,0.2-0.5v-17.7l-0.4,0.2c-1.4,0.7-2.7,1.3-4.1,2
	c-0.2,0.1-0.3,0.3-0.3,0.5c0,2.6,0,5.2,0,7.8c0,0.2-0.1,0.4-0.3,0.5l-4.1,2.2l-0.3,0.2V150l-0.4,0.2l-4.8,2.4
	c-0.2,0.1-0.4,0.3-0.3,0.5c0,5.4,0,10.7,0,16.1L688.2,170.4z M672.6,144.8l0.1,0.1l14.3,6.5c0.1,0,0.2,0,0.3,0l5-2.4
	c0,0-0.1-0.1-0.1-0.1l-13.8-6.5c-0.1,0-0.2,0-0.3,0L672.6,144.8z M701.3,144.7l-0.3-0.2l-13.6-6.2c-0.2-0.1-0.3-0.1-0.5,0
	c-1.2,0.5-2.4,1.1-3.6,1.6l-0.2,0.1h0l14.2,6.3c0.1,0,0.2,0,0.3,0L701.3,144.7z"/>
<path class="st3" d="M731.8,172.7L731.8,172.7c-0.2-0.1-0.3-0.2-0.4-0.2l-16.3-7.9c-0.2-0.1-0.4-0.3-0.3-0.6c0-6.3,0-12.6,0-18.9
	c0-0.2,0.1-0.5,0.3-0.6l14.7-6.6l2.8-1.3h0.1c0.1,0.1,0.2,0.1,0.3,0.2l16.8,7.7c0.2,0.1,0.4,0.3,0.4,0.6c0,6.3,0,12.6,0,18.9
	c0,0.2-0.1,0.5-0.4,0.5l-14.9,6.7L731.8,172.7z M716.3,145.5c0,0.1,0,0.2,0,0.3v17.4c0,0.2,0.1,0.4,0.3,0.4l15.2,7.2l0.3,0.1
	c0-0.1,0-0.2,0-0.3V153c0-0.2-0.1-0.4-0.3-0.5l-15.1-6.9L716.3,145.5z M733.7,170.4l0.3-0.1l14.5-6.9c0.2-0.1,0.2-0.3,0.2-0.5v-17.7
	l-0.4,0.2c-1.4,0.7-2.7,1.3-4.1,2c-0.2,0.1-0.3,0.3-0.3,0.5c0,2.6,0,5.2,0,7.8c0,0.2-0.1,0.4-0.3,0.5c-1.4,0.7-2.7,1.5-4.1,2.2
	l-0.3,0.2V150l-0.4,0.2l-4.8,2.4c-0.2,0.1-0.4,0.3-0.3,0.5c0,5.3,0,10.7,0,16.1V170.4z M718.1,144.8l0.1,0.1l14.3,6.4
	c0.1,0,0.2,0,0.3,0l5-2.4c-0.1,0-0.1-0.1-0.1-0.1l-13.8-6.5c-0.1,0-0.2,0-0.3,0L718.1,144.8z M746.8,144.7l-0.3-0.2l-13.5-6.2
	c-0.2-0.1-0.4-0.1-0.5,0c-1.2,0.5-2.4,1.1-3.5,1.6l-0.3,0.1h0.1l14.2,6.3c0.1,0,0.2,0,0.3,0L746.8,144.7z"/>
<path class="st3" d="M777.3,172.7L777.3,172.7c-0.2-0.1-0.3-0.2-0.4-0.2c-5.4-2.6-10.9-5.2-16.3-7.9c-0.2-0.1-0.4-0.3-0.3-0.6v-18.9
	c0-0.2,0.1-0.5,0.3-0.6l14.7-6.7l2.8-1.3h0.1l0.3,0.2l16.8,7.7c0.2,0.1,0.4,0.3,0.3,0.6c0,6.3,0,12.6,0,18.9c0,0.2-0.1,0.5-0.4,0.5
	l-14.9,6.8L777.3,172.7z M761.9,145.5c0,0.1,0,0.2,0,0.3c0,5.8,0,11.6,0,17.4c0,0.2,0.1,0.4,0.3,0.4l15.2,7.2l0.3,0.1
	c0-0.1,0-0.2,0-0.3c0-5.9,0-11.8,0-17.7c0-0.3-0.1-0.4-0.3-0.5l-15.1-6.9L761.9,145.5z M779.2,170.4l0.2-0.1l14.5-6.9
	c0.2-0.1,0.2-0.3,0.2-0.5v-17.7l-0.4,0.2c-1.3,0.7-2.7,1.3-4.1,2c-0.2,0.1-0.3,0.3-0.3,0.5c0,2.6,0,5.2,0,7.8c0,0.2-0.1,0.4-0.3,0.5
	l-4.1,2.2c-0.1,0.1-0.2,0.1-0.3,0.2V150l-0.4,0.2l-4.8,2.4c-0.2,0.1-0.4,0.3-0.3,0.5c0,5.4,0,10.7,0,16.1L779.2,170.4z M763.6,144.8
	l0.1,0.1l14.3,6.5c0.1,0,0.2,0,0.3,0l5-2.4c0,0-0.1-0.1-0.1-0.1l-13.8-6.5c-0.1,0-0.2,0-0.3,0L763.6,144.8z M792.3,144.7l-0.3-0.2
	l-13.6-6.2c-0.2-0.1-0.4-0.1-0.5,0c-1.2,0.5-2.4,1.1-3.5,1.6l-0.2,0.1l0,0l14.2,6.3c0.1,0,0.2,0,0.3,0L792.3,144.7z"/>
<path class="st3" d="M822.8,172.7L822.8,172.7c-0.2-0.1-0.3-0.2-0.4-0.2l-16.3-7.9c-0.2-0.1-0.4-0.3-0.3-0.6c0-6.3,0-12.6,0-18.9
	c0-0.2,0.1-0.5,0.3-0.6l14.7-6.7l2.8-1.3h0.1c0.1,0.1,0.2,0.1,0.3,0.2l16.8,7.7c0.2,0.1,0.4,0.3,0.4,0.6c0,6.3,0,12.6,0,18.9
	c0,0.2-0.1,0.5-0.4,0.5l-14.9,6.8C824.9,171.7,823.9,172.2,822.8,172.7z M807.3,145.5c0,0.1,0,0.2,0,0.3v17.4c0,0.2,0.1,0.4,0.3,0.4
	l15.2,7.2l0.3,0.1c0-0.1,0-0.2,0-0.3V153c0-0.2-0.1-0.4-0.3-0.5l-15.1-6.9L807.3,145.5z M824.7,170.4l0.2-0.1l14.5-6.9
	c0.2-0.1,0.2-0.3,0.2-0.5c0-5.6,0-11.2,0-16.8v-0.9l-0.4,0.2c-1.4,0.7-2.7,1.3-4.1,2c-0.2,0.1-0.3,0.3-0.3,0.5c0,2.6,0,5.2,0,7.8
	c0,0.2-0.1,0.4-0.3,0.5c-1.4,0.7-2.7,1.5-4.1,2.2l-0.3,0.2V150l-0.4,0.2l-4.8,2.4c-0.2,0.1-0.4,0.3-0.3,0.5c0,5.3,0,10.7,0,16.1
	V170.4z M809.1,144.8l0.1,0.1l14.3,6.4c0.1,0,0.2,0,0.3,0l5-2.4c-0.1,0-0.1-0.1-0.1-0.1l-13.8-6.5c-0.1,0-0.2,0-0.3,0L809.1,144.8z
	 M837.8,144.7l-0.3-0.2l-13.5-6.2c-0.2-0.1-0.4-0.1-0.5,0c-1.2,0.5-2.4,1.1-3.5,1.6l-0.3,0.1h0.1l14.2,6.3c0.1,0,0.2,0,0.3,0
	L837.8,144.7z"/>
<path class="st3" d="M751.2,230.1H706c0.2-4.3,3.9-8.9,8-9.9c0.9-0.2,1.6-1,1.7-1.9c0.4-2.4,0.6-4.7,0.6-7.1c0-2.8-0.5-5.5-0.5-8.3
	c0-2.7,0.6-5.4,1.8-7.8c2-4.2,5.4-6.3,10-6.2c1.2,0,2.4,0,3.5,0.1c3.6,0.4,6.7,2.8,8.1,6.2c1.8,4.1,2.3,8.6,1.5,13
	c-0.5,3-0.5,6.2,0,9.2c0.2,0.7,0.4,1.5,0.8,2.1c0.2,0.4,0.6,0.7,1,0.8c2.9,0.6,5.3,2.5,6.5,5.1C749.9,226.8,750.5,228.4,751.2,230.1
	z M738.2,204.4c-0.8,1.5-1.7,0.8-2.6,0.3c-3.5-1.8-7-3.6-10.5-5.4c-1.3-0.9-3-0.6-3.9,0.7c-0.7,1.1-1.3,2.4-1.8,3.6
	c-0.1,0.3-0.2,0.7-0.4,0.9c-1.2,1-1,4,0.4,4.8c0.3,0.2,0.6,0.5,0.8,0.8c0.8,2.1,2,3.9,3.6,5.5c3,2.8,6.4,2.8,9.4,0.1
	c1.6-1.5,2.8-3.4,3.6-5.5c0.1-0.3,0.3-0.6,0.5-0.8C738.9,208.2,739.3,206,738.2,204.4C738.2,204.4,738.2,204.4,738.2,204.4
	L738.2,204.4z M720.2,219.8c0.6,2,4.7,4.2,8.2,4.2s7.6-2.1,8.2-4.2l-2.3-2.6c-3.7,3.2-7.4,3.8-11.8,0L720.2,219.8z"/>
<path class="st3" d="M361,172.7L361,172.7c-0.2-0.1-0.3-0.2-0.4-0.2l-16.3-7.9c-0.2-0.1-0.4-0.3-0.4-0.6c0-6.3,0-12.6,0-18.9
	c0-0.2,0.1-0.5,0.4-0.6l14.7-6.7l2.8-1.3h0.1c0.1,0.1,0.2,0.1,0.3,0.2l16.8,7.7c0.2,0.1,0.4,0.3,0.4,0.6c0,6.3,0,12.6,0,18.9
	c0,0.2-0.1,0.5-0.4,0.5l-14.9,6.8L361,172.7z M345.5,145.5c0,0.1,0,0.2,0,0.3v17.4c0,0.2,0.1,0.4,0.3,0.4l15.2,7.2l0.3,0.1
	c0-0.1,0-0.2,0-0.3c0-5.9,0-11.8,0-17.7c0-0.3-0.1-0.4-0.3-0.5l-15.1-6.9L345.5,145.5z M362.8,170.4l0.3-0.1l14.5-6.9
	c0.2-0.1,0.2-0.3,0.2-0.5v-17.7l-0.4,0.2c-1.4,0.7-2.7,1.3-4.1,2c-0.2,0.1-0.3,0.3-0.3,0.5c0,2.6,0,5.2,0,7.8c0,0.2-0.1,0.4-0.3,0.5
	c-1.4,0.7-2.7,1.5-4.1,2.2l-0.4,0.2V150l-0.4,0.2l-4.8,2.4c-0.2,0.1-0.4,0.3-0.3,0.5c0,5.3,0,10.7,0,16.1L362.8,170.4z M347.2,144.8
	l0.1,0.1l14.3,6.4c0.1,0,0.2,0,0.3,0l5-2.4c-0.1,0-0.1-0.1-0.1-0.1l-13.9-6.5c-0.1,0-0.2,0-0.3,0L347.2,144.8z M376,144.7l-0.3-0.2
	l-13.6-6.2c-0.2-0.1-0.4-0.1-0.5,0c-1.2,0.5-2.4,1.1-3.5,1.6l-0.3,0.1h0.1l14.2,6.3c0.1,0,0.2,0,0.3,0L376,144.7z"/>
<path class="st3" d="M406.5,172.7L406.5,172.7c-0.2-0.1-0.3-0.2-0.4-0.2c-5.4-2.6-10.9-5.2-16.3-7.9c-0.2-0.1-0.4-0.3-0.3-0.6v-18.9
	c0-0.2,0.1-0.5,0.3-0.6l14.7-6.7l2.8-1.3h0.1l0.3,0.2l16.8,7.7c0.2,0.1,0.4,0.3,0.4,0.6c0,6.3,0,12.6,0,18.9c0,0.2-0.1,0.5-0.4,0.5
	l-14.9,6.8C408.6,171.7,407.5,172.2,406.5,172.7z M391,145.5c0,0.1,0,0.2,0,0.3c0,5.8,0,11.6,0,17.4c0,0.2,0.1,0.4,0.3,0.4l15.2,7.2
	l0.3,0.1c0-0.1,0-0.2,0-0.3c0-5.9,0-11.8,0-17.7c0-0.3-0.1-0.4-0.4-0.5l-15.1-6.9L391,145.5z M408.3,170.4l0.2-0.1l14.5-6.9
	c0.2-0.1,0.2-0.3,0.2-0.5v-17.7l-0.4,0.2c-1.4,0.7-2.7,1.3-4.1,2c-0.2,0.1-0.3,0.3-0.3,0.5c0,2.6,0,5.2,0,7.8c0,0.2-0.1,0.4-0.3,0.5
	l-4.1,2.2l-0.4,0.2V150l-0.4,0.2l-4.8,2.4c-0.2,0.1-0.4,0.3-0.3,0.5c0,5.4,0,10.7,0,16.1L408.3,170.4z M392.7,144.8l0.1,0.1
	l14.3,6.4c0.1,0,0.2,0,0.3,0l5-2.4c0,0-0.1-0.1-0.1-0.1l-13.8-6.5c-0.1,0-0.2,0-0.3,0L392.7,144.8z M421.5,144.7l-0.3-0.2l-13.6-6.2
	c-0.2-0.1-0.4-0.1-0.5,0c-1.2,0.5-2.4,1.1-3.5,1.6l-0.2,0.1h0l14.2,6.3c0.1,0,0.2,0,0.3,0L421.5,144.7z"/>
<path class="st3" d="M452,172.7L452,172.7c-0.2-0.1-0.3-0.2-0.4-0.2l-16.3-7.9c-0.2-0.1-0.4-0.3-0.4-0.6c0-6.3,0-12.6,0-18.9
	c0-0.2,0.1-0.5,0.4-0.6l14.7-6.7l2.8-1.3h0.1c0.1,0.1,0.2,0.1,0.3,0.2l16.8,7.7c0.2,0.1,0.4,0.3,0.4,0.6c0,6.3,0,12.6,0,18.9
	c0,0.2-0.1,0.5-0.4,0.5l-14.9,6.8L452,172.7z M436.5,145.5c0,0.1,0,0.2,0,0.3v17.4c0,0.2,0.1,0.4,0.3,0.4l15.2,7.2l0.3,0.1
	c0-0.1,0-0.2,0-0.3V153c0-0.2-0.1-0.4-0.3-0.5l-15.1-6.9L436.5,145.5z M453.8,170.4l0.2-0.1l14.5-6.9c0.2-0.1,0.2-0.3,0.2-0.5
	c0-5.6,0-11.2,0-16.8v-0.9l-0.4,0.2c-1.4,0.7-2.7,1.3-4.1,2c-0.2,0.1-0.3,0.3-0.3,0.5c0,2.6,0,5.2,0,7.8c0,0.2-0.1,0.4-0.3,0.5
	c-1.4,0.7-2.7,1.5-4.1,2.2l-0.4,0.2V150l-0.4,0.2l-4.8,2.4c-0.2,0.1-0.4,0.3-0.3,0.5c0,5.3,0,10.7,0,16.1L453.8,170.4z M438.2,144.8
	l0.1,0.1l14.3,6.4c0.1,0,0.2,0,0.3,0l5-2.4c-0.1,0-0.1-0.1-0.1-0.1l-13.9-6.5c-0.1,0-0.2,0-0.3,0L438.2,144.8z M467,144.7l-0.3-0.2
	l-13.6-6.2c-0.2-0.1-0.4-0.1-0.5,0c-1.2,0.5-2.4,1.1-3.5,1.6l-0.3,0.1h0.1l14.2,6.3c0.1,0,0.2,0,0.3,0L467,144.7z"/>
<path class="st3" d="M497.5,172.7L497.5,172.7c-0.2-0.1-0.3-0.2-0.4-0.2l-16.3-7.9c-0.2-0.1-0.4-0.3-0.4-0.6c0-6.3,0-12.6,0-18.9
	c0-0.2,0.1-0.5,0.4-0.6l14.7-6.6l2.8-1.3h0.1l0.3,0.2l16.8,7.7c0.2,0.1,0.4,0.3,0.3,0.6c0,6.3,0,12.6,0,18.9c0,0.2-0.1,0.5-0.4,0.5
	l-14.9,6.8L497.5,172.7z M482,145.5c0,0.1,0,0.2,0,0.3c0,5.8,0,11.6,0,17.4c0,0.2,0.1,0.4,0.3,0.4l15.2,7.2l0.3,0.1
	c0-0.1,0-0.2,0-0.3c0-5.9,0-11.8,0-17.7c0-0.3-0.1-0.4-0.4-0.5l-15.1-6.9L482,145.5z M499.3,170.4l0.2-0.1l14.5-6.9
	c0.2-0.1,0.2-0.3,0.2-0.5v-17.7l-0.4,0.2c-1.4,0.7-2.7,1.3-4.1,2c-0.2,0.1-0.3,0.3-0.3,0.5c0,2.6,0,5.2,0,7.8c0,0.2-0.1,0.4-0.3,0.5
	l-4.1,2.2c-0.1,0.1-0.2,0.1-0.3,0.2V150l-0.4,0.2c-1.6,0.8-3.2,1.6-4.8,2.4c-0.2,0.1-0.4,0.3-0.3,0.5c0,5.4,0,10.7,0,16.1
	L499.3,170.4z M483.7,144.8l0.1,0.1l14.3,6.4c0.1,0,0.2,0,0.3,0l5-2.4c-0.1,0-0.1-0.1-0.1-0.1l-13.8-6.5c-0.1,0-0.2,0-0.3,0
	L483.7,144.8z M512.5,144.7l-0.3-0.2l-13.6-6.2c-0.2-0.1-0.4-0.1-0.5,0c-1.2,0.5-2.4,1.1-3.5,1.6l-0.2,0.1h0l14.2,6.3
	c0.1,0,0.2,0,0.3,0L512.5,144.7z"/>
<path class="st3" d="M543,172.7L543,172.7c-0.2-0.1-0.3-0.2-0.4-0.2l-16.3-7.9c-0.2-0.1-0.4-0.3-0.3-0.6c0-6.3,0-12.6,0-18.9
	c0-0.2,0.1-0.5,0.3-0.6l14.6-6.6l2.8-1.3h0.1c0.1,0.1,0.2,0.1,0.3,0.2l16.8,7.7c0.2,0.1,0.4,0.3,0.4,0.6c0,6.3,0,12.6,0,18.9
	c0,0.2-0.1,0.5-0.4,0.5l-14.9,6.8C545,171.7,544,172.2,543,172.7z M527.5,145.5c0,0.1,0,0.2,0,0.3c0,5.8,0,11.6,0,17.4
	c0,0.2,0.1,0.4,0.3,0.4l15.2,7.2l0.3,0.1c0-0.1,0-0.2,0-0.3c0-5.9,0-11.8,0-17.7c0-0.3-0.1-0.4-0.3-0.5l-15.1-6.9L527.5,145.5z
	 M544.8,170.4l0.2-0.1l14.5-6.9c0.2-0.1,0.2-0.3,0.2-0.5c0-5.6,0-11.2,0-16.8v-0.9l-0.4,0.2c-1.4,0.7-2.7,1.3-4.1,2
	c-0.2,0.1-0.3,0.3-0.3,0.5c0,2.6,0,5.2,0,7.8c0,0.2-0.1,0.4-0.3,0.5l-4.1,2.2l-0.3,0.2V150l-0.4,0.2l-4.8,2.4
	c-0.2,0.1-0.4,0.3-0.3,0.5c0,5.3,0,10.7,0,16.1L544.8,170.4z M529.2,144.8l0.1,0.1l14.3,6.4c0.1,0,0.2,0,0.3,0l5-2.4
	c0,0-0.1-0.1-0.1-0.1l-13.8-6.5c-0.1,0-0.2,0-0.3,0L529.2,144.8z M558,144.7l-0.3-0.2l-13.6-6.2c-0.2-0.1-0.3-0.1-0.5,0
	c-1.2,0.5-2.4,1.1-3.6,1.6l-0.2,0.1h0.1l14.2,6.3c0.1,0,0.2,0,0.3,0L558,144.7z"/>
<path class="st3" d="M471.3,230.1h-45.2c0.2-4.3,3.9-8.9,8-9.9c0.9-0.2,1.6-1,1.7-1.9c0.4-2.4,0.6-4.7,0.6-7.1
	c0-2.8-0.5-5.5-0.5-8.3c0-2.7,0.6-5.4,1.8-7.8c2-4.2,5.4-6.3,10-6.2c1.2,0,2.4,0,3.5,0.1c3.6,0.4,6.7,2.8,8.1,6.2
	c1.8,4.1,2.3,8.6,1.6,13c-0.6,3-0.6,6.2,0,9.2c0.2,0.7,0.4,1.5,0.8,2.1c0.2,0.4,0.6,0.7,1,0.8c2.9,0.6,5.3,2.5,6.5,5.1
	C470,226.8,470.6,228.4,471.3,230.1z M458.3,204.4c-0.8,1.5-1.7,0.8-2.6,0.3c-3.5-1.8-7-3.6-10.6-5.4c-1.3-0.9-3-0.6-3.9,0.7
	c-0.7,1.1-1.3,2.4-1.8,3.6c-0.1,0.3-0.2,0.7-0.4,0.9c-1.2,1-1,4,0.4,4.8c0.3,0.2,0.6,0.5,0.8,0.8c0.8,2.1,2,3.9,3.6,5.5
	c3,2.8,6.4,2.8,9.4,0.1c1.6-1.5,2.8-3.4,3.6-5.5c0.1-0.3,0.3-0.6,0.5-0.8C459,208.2,459.4,206,458.3,204.4
	C458.3,204.4,458.3,204.4,458.3,204.4L458.3,204.4z M440.3,219.8c0.6,2,4.7,4.2,8.2,4.2s7.6-2.1,8.2-4.2l-2.3-2.6
	c-3.7,3.2-7.4,3.8-11.8,0L440.3,219.8z"/>
</svg>
