<svg id="2b5f5cfc-02e1-4a9d-8c27-ea6b4b576284" data-name="Layer 1" xmlns="http://www.w3.org/2000/svg" viewBox="0 0 900 900"><title>multiple-developers-multiple-packages</title><rect width="900" height="900" style="fill:#07448e"/><polygon points="43.6 712 51 712 61 740.7 61.2 740.7 71.1 712 78.6 712 78.6 766.1 70.8 766.1 70.8 733.2 70.6 733.2 63 756.5 59.1 756.5 51.5 733.2 51.3 733.2 51.3 766.1 43.5 766.1 43.5 712 43.6 712" style="fill:#f9c7e4"/><path d="M111,754a11.31,11.31,0,0,1-1,4.9,15.64,15.64,0,0,1-2.7,4,14.08,14.08,0,0,1-4,2.7,11.31,11.31,0,0,1-4.9,1,11.94,11.94,0,0,1-4.9-1,12.67,12.67,0,0,1-6.7-6.7,11.62,11.62,0,0,1-1-4.9V712h7.8v41.2a6.17,6.17,0,0,0,1.4,4.3,4.39,4.39,0,0,0,3.4,1.4,4.76,4.76,0,0,0,3.4-1.4,5.84,5.84,0,0,0,1.4-4.3V712H111Z" style="fill:#f9c7e4"/><polygon points="118.3 712 126.1 712 126.1 758.4 141.5 758.4 141.5 766.2 118.4 766.2 118.4 712 118.3 712" style="fill:#f9c7e4"/><polygon points="145.9 719.3 136.9 719.3 136.9 712 162.6 712 162.6 719.3 153.6 719.3 153.6 766.1 145.8 766.1 145.8 719.3 145.9 719.3" style="fill:#f9c7e4"/><rect x="166.2" y="712" width="7.8" height="54.1" style="fill:#f9c7e4"/><path d="M181.5,712h11.6a18.9,18.9,0,0,1,5.6.8,10.52,10.52,0,0,1,4.4,3,11.61,11.61,0,0,1,2.7,5,31.29,31.29,0,0,1,.8,7.7,35.9,35.9,0,0,1-.4,6.1,14,14,0,0,1-1.8,4.8,10.58,10.58,0,0,1-4.3,4.1,14.25,14.25,0,0,1-7,1.5h-4v21.1h-7.8V712Zm7.8,25.7H193a7,7,0,0,0,3.6-.7,4.35,4.35,0,0,0,1.9-1.9,7.72,7.72,0,0,0,.7-2.9c.1-1.1.1-2.4.1-3.7s0-2.5-.1-3.6a9.42,9.42,0,0,0-.7-3,4.38,4.38,0,0,0-1.8-2,6.78,6.78,0,0,0-3.5-.7h-4v18.5Z" style="fill:#f9c7e4"/><polygon points="212.4 712 220.2 712 220.2 758.4 235.6 758.4 235.6 766.2 212.5 766.2 212.5 712 212.4 712" style="fill:#f9c7e4"/><polygon points="240.6 712 263.7 712 263.7 719.3 248.3 719.3 248.3 735.2 261.7 735.2 261.7 742.5 248.3 742.5 248.3 758.4 263.7 758.4 263.7 766.2 240.6 766.2 240.6 712" style="fill:#f9c7e4"/><path d="M282.8,712h11.5c4.4,0,7.8,1.2,10.1,3.7s3.5,5.9,3.5,10.3v25.3c0,5.1-1.2,8.8-3.7,11.2s-6,3.6-10.6,3.6H282.8Zm7.8,46.8h3.6c2.2,0,3.7-.5,4.6-1.6a8,8,0,0,0,1.4-5.1V726a7.73,7.73,0,0,0-1.3-4.9c-.9-1.2-2.4-1.7-4.7-1.7h-3.6Z" style="fill:#f9c7e4"/><polygon points="315.2 712 338.3 712 338.3 719.3 322.9 719.3 322.9 735.2 336.3 735.2 336.3 742.5 322.9 742.5 322.9 758.4 338.3 758.4 338.3 766.2 315.2 766.2 315.2 712" style="fill:#f9c7e4"/><polygon points="358.5 766.1 351.7 766.1 340.7 712 348.9 712 355.1 749.8 355.3 749.8 361.5 712 369.7 712 358.5 766.1" style="fill:#f9c7e4"/><polygon points="374.2 712 397.3 712 397.3 719.3 382 719.3 382 735.2 395.4 735.2 395.4 742.5 382 742.5 382 758.4 397.4 758.4 397.4 766.2 374.3 766.2 374.3 712 374.2 712" style="fill:#f9c7e4"/><polygon points="402.4 712 410.2 712 410.2 758.4 425.6 758.4 425.6 766.2 402.5 766.2 402.5 712 402.4 712" style="fill:#f9c7e4"/><path d="M430,724.8a15,15,0,0,1,1.1-5.8,11.8,11.8,0,0,1,3-4.1,13.18,13.18,0,0,1,8.9-3.3,15.46,15.46,0,0,1,4.7.8,15.07,15.07,0,0,1,4.2,2.5,14,14,0,0,1,3,4.1,13.35,13.35,0,0,1,1.1,5.8v28.6a14.63,14.63,0,0,1-1.1,5.8,14,14,0,0,1-3,4.1,13.18,13.18,0,0,1-8.9,3.3,15.46,15.46,0,0,1-4.7-.8,15.07,15.07,0,0,1-4.2-2.5,14,14,0,0,1-3-4.1,13.07,13.07,0,0,1-1.1-5.8Zm7.8,28.5c0,1.9.5,3.3,1.6,4.1a5.41,5.41,0,0,0,3.7,1.3,5.58,5.58,0,0,0,3.7-1.3,5.33,5.33,0,0,0,1.6-4.1V724.7c0-1.9-.5-3.3-1.6-4.1a5.41,5.41,0,0,0-3.7-1.3,5.58,5.58,0,0,0-3.7,1.3,5.33,5.33,0,0,0-1.6,4.1Z" style="fill:#f9c7e4"/><path d="M462.9,712h11.6a18.9,18.9,0,0,1,5.6.8,10.52,10.52,0,0,1,4.4,3,11.61,11.61,0,0,1,2.7,5,31.29,31.29,0,0,1,.8,7.7,35.9,35.9,0,0,1-.4,6.1,14,14,0,0,1-1.8,4.8,10.58,10.58,0,0,1-4.3,4.1,14.25,14.25,0,0,1-7,1.5h-4v21.1h-7.8V712Zm7.7,25.7h3.7a7,7,0,0,0,3.6-.7,4.35,4.35,0,0,0,1.9-1.9,7.72,7.72,0,0,0,.7-2.9c.1-1.1.1-2.4.1-3.7s0-2.5-.1-3.6a9.42,9.42,0,0,0-.7-3,4.38,4.38,0,0,0-1.8-2,6.78,6.78,0,0,0-3.5-.7h-4v18.5Z" style="fill:#f9c7e4"/><polygon points="493.8 712 516.9 712 516.9 719.3 501.5 719.3 501.5 735.2 514.9 735.2 514.9 742.5 501.5 742.5 501.5 758.4 516.9 758.4 516.9 766.2 493.8 766.2 493.8 712" style="fill:#f9c7e4"/><path d="M521.9,712h12.5c9.1,0,13.7,5.3,13.7,15.9a20.19,20.19,0,0,1-1.5,8.1,10.88,10.88,0,0,1-5.2,5.4l8.4,24.7h-8.2L534.4,743h-4.6v23.1H522V712Zm7.8,24.2h4.4a7.48,7.48,0,0,0,3.3-.6,4.94,4.94,0,0,0,1.9-1.6,8.81,8.81,0,0,0,.9-2.6,19.44,19.44,0,0,0,.2-3.6,35.29,35.29,0,0,0-.2-3.6,7.94,7.94,0,0,0-1-2.7,4.47,4.47,0,0,0-2-1.6,8.42,8.42,0,0,0-3.4-.5h-4v16.8Z" style="fill:#f9c7e4"/><path d="M579.4,727.6h-7.8v-1.7a7.78,7.78,0,0,0-1.3-4.6,4.61,4.61,0,0,0-4.2-1.9,5,5,0,0,0-2.6.6,4.1,4.1,0,0,0-1.6,1.6,7.16,7.16,0,0,0-.8,2.2,11,11,0,0,0-.2,2.6,21,21,0,0,0,.1,2.7,5.31,5.31,0,0,0,.6,1.9,4.27,4.27,0,0,0,1.3,1.4,13.32,13.32,0,0,0,2.4,1.2l5.9,2.4a16.5,16.5,0,0,1,4.2,2.3,9.26,9.26,0,0,1,2.5,3.1,13.07,13.07,0,0,1,1.2,4.1,41.06,41.06,0,0,1,.3,5.3,24.81,24.81,0,0,1-.7,6.3,14.32,14.32,0,0,1-2.2,5,10.35,10.35,0,0,1-4.1,3.3,14.75,14.75,0,0,1-6.3,1.2,12.69,12.69,0,0,1-5.2-1,15.13,15.13,0,0,1-4.2-2.7,12,12,0,0,1-2.8-4.1,12.55,12.55,0,0,1-1-5.1v-2.9h7.8v2.4A5.85,5.85,0,0,0,562,757c.8,1.1,2.2,1.7,4.2,1.7a6.84,6.84,0,0,0,3.1-.6,4.36,4.36,0,0,0,1.7-1.6,6.12,6.12,0,0,0,.7-2.5,32.51,32.51,0,0,0,.2-3.3,31.58,31.58,0,0,0-.2-3.5,6.39,6.39,0,0,0-.6-2.2,3.76,3.76,0,0,0-1.4-1.4,16.66,16.66,0,0,0-2.3-1.1l-5.5-2.3c-3.3-1.4-5.6-3.2-6.7-5.4a19.49,19.49,0,0,1-1.7-8.5,22,22,0,0,1,.8-5.8,14.08,14.08,0,0,1,2.5-4.7,13,13,0,0,1,4.1-3.2,13.51,13.51,0,0,1,5.9-1.2,13.22,13.22,0,0,1,5.3,1.1,12,12,0,0,1,4.1,2.8,14,14,0,0,1,2.6,3.9,11.17,11.17,0,0,1,.9,4.4v4Z" style="fill:#f9c7e4"/><polygon points="584.7 758.4 592.5 758.4 592.5 766.2 584.7 771.8 584.7 758.4" style="fill:#f9c7e4"/><polygon points="43.6 803.2 51 803.2 61 831.9 61.2 831.9 71.1 803.2 78.6 803.2 78.6 857.3 70.8 857.3 70.8 824.4 70.6 824.4 63 847.7 59.1 847.7 51.5 824.4 51.3 824.4 51.3 857.3 43.5 857.3 43.5 803.2 43.6 803.2" style="fill:#f9c7e4"/><path d="M111,845.1a11.31,11.31,0,0,1-1,4.9,15.64,15.64,0,0,1-2.7,4,14.08,14.08,0,0,1-4,2.7,11.31,11.31,0,0,1-4.9,1,11.94,11.94,0,0,1-4.9-1,12.67,12.67,0,0,1-6.7-6.7,11.62,11.62,0,0,1-1-4.9v-42h7.8v41.2a6.17,6.17,0,0,0,1.4,4.3,4.39,4.39,0,0,0,3.4,1.4,4.76,4.76,0,0,0,3.4-1.4,5.84,5.84,0,0,0,1.4-4.3V803.1H111Z" style="fill:#f9c7e4"/><polygon points="118.3 803.2 126.1 803.2 126.1 849.6 141.5 849.6 141.5 857.4 118.4 857.4 118.4 803.2 118.3 803.2" style="fill:#f9c7e4"/><polygon points="145.9 810.5 136.9 810.5 136.9 803.2 162.6 803.2 162.6 810.5 153.6 810.5 153.6 857.3 145.8 857.3 145.8 810.5 145.9 810.5" style="fill:#f9c7e4"/><rect x="166.2" y="803.2" width="7.8" height="54.1" style="fill:#f9c7e4"/><path d="M181.5,803.2h11.6a18.9,18.9,0,0,1,5.6.8,10.52,10.52,0,0,1,4.4,3,11.61,11.61,0,0,1,2.7,5,31.29,31.29,0,0,1,.8,7.7,35.9,35.9,0,0,1-.4,6.1,14,14,0,0,1-1.8,4.8,10.58,10.58,0,0,1-4.3,4.1,14.25,14.25,0,0,1-7,1.5h-4v21.1h-7.8V803.2Zm7.8,25.7H193a7,7,0,0,0,3.6-.7,4.35,4.35,0,0,0,1.9-1.9,7.72,7.72,0,0,0,.7-2.9c.1-1.1.1-2.4.1-3.7s0-2.5-.1-3.6a9.42,9.42,0,0,0-.7-3,4.38,4.38,0,0,0-1.8-2,6.78,6.78,0,0,0-3.5-.7h-4v18.5Z" style="fill:#f9c7e4"/><polygon points="212.4 803.2 220.2 803.2 220.2 849.6 235.6 849.6 235.6 857.4 212.5 857.4 212.5 803.2 212.4 803.2" style="fill:#f9c7e4"/><polygon points="240.6 803.2 263.7 803.2 263.7 810.5 248.3 810.5 248.3 826.4 261.7 826.4 261.7 833.7 248.3 833.7 248.3 849.6 263.7 849.6 263.7 857.4 240.6 857.4 240.6 803.2" style="fill:#f9c7e4"/><path d="M282.8,803.2h11.5c4.4,0,7.8,1.2,10.1,3.7s3.5,5.9,3.5,10.3v25.3c0,5.1-1.2,8.8-3.7,11.2s-6,3.6-10.6,3.6H282.8Zm7.8,46.8h3.6c2.2,0,3.7-.5,4.6-1.6a8,8,0,0,0,1.4-5.1V817.2a7.73,7.73,0,0,0-1.3-4.9c-.9-1.2-2.4-1.7-4.7-1.7h-3.6Z" style="fill:#f9c7e4"/><polygon points="315.2 803.2 338.3 803.2 338.3 810.5 322.9 810.5 322.9 826.4 336.3 826.4 336.3 833.7 322.9 833.7 322.9 849.6 338.3 849.6 338.3 857.4 315.2 857.4 315.2 803.2" style="fill:#f9c7e4"/><path d="M343.3,803.2h11.6a18.9,18.9,0,0,1,5.6.8,10.52,10.52,0,0,1,4.4,3,11.61,11.61,0,0,1,2.7,5,31.29,31.29,0,0,1,.8,7.7,35.9,35.9,0,0,1-.4,6.1,14,14,0,0,1-1.8,4.8,10.58,10.58,0,0,1-4.3,4.1,14.25,14.25,0,0,1-7,1.5h-4v21.1h-7.8V803.2Zm7.8,25.7h3.7a7,7,0,0,0,3.6-.7,4.35,4.35,0,0,0,1.9-1.9,7.72,7.72,0,0,0,.7-2.9c.1-1.1.1-2.4.1-3.7s0-2.5-.1-3.6a9.42,9.42,0,0,0-.7-3,4.38,4.38,0,0,0-1.8-2,6.78,6.78,0,0,0-3.5-.7h-4v18.5Z" style="fill:#f9c7e4"/><polygon points="374.2 803.2 397.3 803.2 397.3 810.5 382 810.5 382 826.4 395.4 826.4 395.4 833.7 382 833.7 382 849.6 397.4 849.6 397.4 857.4 374.3 857.4 374.3 803.2 374.2 803.2" style="fill:#f9c7e4"/><polygon points="402.1 803.2 409.5 803.2 421.2 835.8 421.4 835.8 421.4 803.2 429.2 803.2 429.2 857.3 421.9 857.3 410 824.8 409.8 824.8 409.8 857.3 402 857.3 402 803.2 402.1 803.2" style="fill:#f9c7e4"/><path d="M436.1,803.2h11.5c4.4,0,7.8,1.2,10.1,3.7s3.5,5.9,3.5,10.3v25.3c0,5.1-1.2,8.8-3.7,11.2s-6,3.6-10.6,3.6H436.1Zm7.8,46.8h3.6c2.2,0,3.7-.5,4.6-1.6a8,8,0,0,0,1.4-5.1V817.2a7.73,7.73,0,0,0-1.3-4.9c-.9-1.2-2.4-1.7-4.7-1.7h-3.6Z" style="fill:#f9c7e4"/><polygon points="468.5 803.2 491.6 803.2 491.6 810.5 476.2 810.5 476.2 826.4 489.6 826.4 489.6 833.7 476.2 833.7 476.2 849.6 491.6 849.6 491.6 857.4 468.5 857.4 468.5 803.2" style="fill:#f9c7e4"/><polygon points="496.3 803.2 503.7 803.2 515.4 835.8 515.6 835.8 515.6 803.2 523.4 803.2 523.4 857.3 516.1 857.3 504.2 824.8 504 824.8 504 857.3 496.2 857.3 496.2 803.2 496.3 803.2" style="fill:#f9c7e4"/><path d="M555,845.2a11.17,11.17,0,0,1-1,4.8,13.13,13.13,0,0,1-2.6,4,11.86,11.86,0,0,1-3.9,2.7,11.17,11.17,0,0,1-4.8,1,17.4,17.4,0,0,1-4.5-.6,10.67,10.67,0,0,1-4.1-2.1,11.93,11.93,0,0,1-3-3.9,14,14,0,0,1-1.2-6.2V815.1a13,13,0,0,1,.9-4.9,13.13,13.13,0,0,1,2.6-4,11.09,11.09,0,0,1,4-2.6,14,14,0,0,1,5.1-1,11.31,11.31,0,0,1,4.9,1,11.79,11.79,0,0,1,4,2.7,11.51,11.51,0,0,1,2.6,4.1,14.58,14.58,0,0,1,1,5.2v3h-7.8V816a6.39,6.39,0,0,0-1.3-4,4.27,4.27,0,0,0-3.5-1.7c-1.9,0-3.2.6-3.8,1.8a10,10,0,0,0-1,4.5v27.7a7.21,7.21,0,0,0,1,4c.7,1.1,1.9,1.6,3.7,1.6a4.53,4.53,0,0,0,1.6-.3,5.07,5.07,0,0,0,1.6-.9,4.34,4.34,0,0,0,1.2-1.7,6.84,6.84,0,0,0,.5-2.7v-2.7H555Z" style="fill:#f9c7e4"/><rect x="561.5" y="803.2" width="7.8" height="54.1" style="fill:#f9c7e4"/><polygon points="576.8 803.2 599.9 803.2 599.9 810.5 584.5 810.5 584.5 826.4 597.9 826.4 597.9 833.7 584.5 833.7 584.5 849.6 599.9 849.6 599.9 857.4 576.8 857.4 576.8 803.2" style="fill:#f9c7e4"/><path d="M630,818.8h-7.8V817a7.78,7.78,0,0,0-1.3-4.6,4.61,4.61,0,0,0-4.2-1.9,5,5,0,0,0-2.6.6,4.1,4.1,0,0,0-1.6,1.6,7.16,7.16,0,0,0-.8,2.2,11,11,0,0,0-.2,2.6,21,21,0,0,0,.1,2.7,5.31,5.31,0,0,0,.6,1.9,4.27,4.27,0,0,0,1.3,1.4,13.32,13.32,0,0,0,2.4,1.2l5.9,2.4a16.5,16.5,0,0,1,4.2,2.3,9.26,9.26,0,0,1,2.5,3.1,13.07,13.07,0,0,1,1.2,4.1,41.06,41.06,0,0,1,.3,5.3,24.81,24.81,0,0,1-.7,6.3,14.32,14.32,0,0,1-2.2,5,10.35,10.35,0,0,1-4.1,3.3,14.75,14.75,0,0,1-6.3,1.2,12.69,12.69,0,0,1-5.2-1,15.13,15.13,0,0,1-4.2-2.7,12,12,0,0,1-2.8-4.1,12.55,12.55,0,0,1-1-5.1V842h7.8v2.4a5.85,5.85,0,0,0,1.3,3.8c.8,1.1,2.2,1.7,4.2,1.7a6.84,6.84,0,0,0,3.1-.6,3.78,3.78,0,0,0,1.7-1.6,6.12,6.12,0,0,0,.7-2.5,32.51,32.51,0,0,0,.2-3.3,31.58,31.58,0,0,0-.2-3.5,6.39,6.39,0,0,0-.6-2.2,3.76,3.76,0,0,0-1.4-1.4,16.66,16.66,0,0,0-2.3-1.1l-5.5-2.3c-3.3-1.4-5.6-3.2-6.7-5.4a19.49,19.49,0,0,1-1.7-8.5,22,22,0,0,1,.8-5.8,14.08,14.08,0,0,1,2.5-4.7,13,13,0,0,1,4.1-3.2,13.51,13.51,0,0,1,5.9-1.2,13.22,13.22,0,0,1,5.3,1.1,12,12,0,0,1,4.1,2.8,14,14,0,0,1,2.6,3.9,11.17,11.17,0,0,1,.9,4.4v4Z" style="fill:#f9c7e4"/><rect x="40" y="641" width="815" height="13" style="fill:#f9c7e4"/><path d="M442.8,549.9h-.2l-.9-.6q-20.85-10-41.9-20.1a1.3,1.3,0,0,1-.9-1.4V479.4a1.3,1.3,0,0,1,.9-1.4c12.6-5.7,25.1-11.5,37.6-17.2,2.4-1.1,4.8-2.3,7.2-3.4h.4c.3.2.6.3.9.5,14.3,6.6,28.7,13.2,43,19.8a1.38,1.38,0,0,1,1,1.4v48.3a1.3,1.3,0,0,1-.9,1.4c-12.7,5.8-25.4,11.6-38.2,17.4C448.2,547.3,445.5,548.6,442.8,549.9Zm-39.7-69.7v45.4a1,1,0,0,0,.7,1.1l39,18.5a6.89,6.89,0,0,0,.8.3V499.4a1.11,1.11,0,0,0-.9-1.2l-38.6-17.6A3,3,0,0,1,403.1,480.2ZM447.5,544a1.63,1.63,0,0,0,.6-.3c12.4-5.9,24.8-11.7,37.2-17.6.6-.3.6-.7.6-1.2V479.7a9.29,9.29,0,0,0-1,.5l-10.5,5.1a1.3,1.3,0,0,0-.8,1.2v20.1a1.09,1.09,0,0,1-.7,1.2c-3.5,1.9-7,3.8-10.5,5.8-.2.1-.5.2-.9.4V491.8c-.5.2-.7.3-1,.4l-12.3,6a1.42,1.42,0,0,0-.9,1.4v41.2Zm-40-65.7c.1.1.2.2.3.2L444.4,495a1.1,1.1,0,0,0,.8,0c4.3-2,8.5-4,12.8-6.1-.1-.1-.2-.2-.3-.2-11.8-5.5-23.6-11.1-35.4-16.6a1.1,1.1,0,0,0-.8,0C416.9,474.2,412.3,476.3,407.5,478.3Zm73.7-.3a3,3,0,0,0-.8-.4l-34.8-15.9a1.48,1.48,0,0,0-1.3,0c-3.1,1.4-6.1,2.8-9.1,4.1a2.09,2.09,0,0,0-.6.4l.1.1,36.5,16.1a1.1,1.1,0,0,0,.8,0C475,481,478,479.6,481.2,478Z" style="fill:#f7eec9"/><rect x="267.55" y="177.45" width="13" height="287.99" transform="translate(-147.99 303.67) rotate(-47.14)" style="fill:#f9c7e4"/><polygon points="345.6 417.9 376.8 416.8 375.6 385.6 389.3 398.4 390.5 429.5 359.4 430.7 345.6 417.9" style="fill:#f9c7e4"/><rect x="354.9" y="316.9" width="186.8" height="13" transform="translate(123.96 771.02) rotate(-89.88)" style="fill:#f9c7e4"/><polygon points="426.1 390.9 448.1 413 470.2 391 470.1 409.7 448 431.7 426 409.6 426.1 390.9" style="fill:#f9c7e4"/><rect x="474.26" y="317.9" width="294.29" height="13" transform="translate(-53.34 514.39) rotate(-43.29)" style="fill:#f9c7e4"/><polygon points="518 391.5 517.1 422.7 548.3 423.6 534.7 436.4 503.5 435.5 504.4 404.4 518 391.5" style="fill:#f9c7e4"/><rect x="73" y="218" width="710" height="24" style="fill:#07448e"/><path d="M81.1,172.7h0c-.2-.1-.3-.2-.4-.2l-16.3-7.9a.49.49,0,0,1-.3-.6V145.1a.71.71,0,0,1,.3-.6L79,138l2.8-1.3H82c.1.1.2.1.3.2l16.8,7.7a.68.68,0,0,1,.4.6v18.9c0,.2-.1.5-.4.5l-14.9,6.8ZM65.6,145.5v17.7c0,.2.1.4.3.4l15.2,7.2.3.1V153a.55.55,0,0,0-.3-.5L66,145.6Zm17.3,24.9.2-.1,14.5-6.9c.2-.1.2-.3.2-.5V145.2l-.4.2c-1.4.7-2.7,1.3-4.1,2a.55.55,0,0,0-.3.5v7.8a.55.55,0,0,1-.3.5c-1.4.7-2.7,1.5-4.1,2.2l-.3.2V150l-.4.2-4.8,2.4c-.2.1-.4.3-.3.5v17.3ZM67.3,144.8l.1.1,14.3,6.4H82l5-2.4a.1.1,0,0,1-.1-.1l-13.8-6.5h-.3Zm28.8-.1-.3-.2-13.6-6.2a.45.45,0,0,0-.5,0c-1.2.5-2.4,1.1-3.6,1.6l-.3.1h.1l14.2,6.3h.3Z" style="fill:#f7eec9"/><path d="M126.6,172.7h0c-.2-.1-.3-.2-.4-.2l-16.3-7.9a.49.49,0,0,1-.3-.6V145.1a.71.71,0,0,1,.3-.6l14.7-6.7,2.8-1.3h.1l.3.2,16.8,7.7a.68.68,0,0,1,.4.6v18.9c0,.2-.1.5-.4.5l-14.9,6.8Zm-15.5-27.2v17.7c0,.2.1.4.3.4l15.2,7.2.3.1v-18a.46.46,0,0,0-.3-.5l-15.1-6.9Zm17.3,24.9.2-.1,14.5-6.9c.2-.1.2-.3.2-.5V145.2l-.4.2c-1.4.7-2.7,1.3-4.1,2a.55.55,0,0,0-.3.5v7.8a.55.55,0,0,1-.3.5l-4.1,2.2c-.1.1-.2.1-.3.2V150l-.4.2-4.8,2.4c-.2.1-.4.3-.3.5v16.1Zm-15.6-25.6.1.1,14.3,6.4h.3l5-2.4a.1.1,0,0,1-.1-.1l-13.8-6.5h-.3Zm28.7-.1-.3-.2-13.6-6.2a.45.45,0,0,0-.5,0c-1.2.5-2.4,1.1-3.6,1.6l-.2.1,14.2,6.3h.3Z" style="fill:#f7eec9"/><path d="M172.1,172.7h0c-.2-.1-.3-.2-.4-.2l-16.3-7.9a.68.68,0,0,1-.4-.6V145.1a.62.62,0,0,1,.4-.6L170,138l2.8-1.3h.2c.1.1.2.1.3.2l16.8,7.7a.68.68,0,0,1,.4.6v18.9c0,.2-.1.5-.4.5l-14.9,6.8A20.45,20.45,0,0,0,172.1,172.7Zm-15.5-27.2v17.7c0,.2.1.4.3.4l15.2,7.2.3.1V153c0-.3-.1-.4-.4-.5l-15.1-6.9Zm17.3,24.9.2-.1,14.5-6.9c.2-.1.2-.3.2-.5V145.2l-.4.2c-1.4.7-2.7,1.3-4.1,2a.55.55,0,0,0-.3.5v7.8a.55.55,0,0,1-.3.5l-4.1,2.2-.4.2V150l-.4.2-4.8,2.4c-.2.1-.4.3-.3.5v16.1Zm-15.6-25.6.1.1,14.3,6.4h.3l5-2.4a.1.1,0,0,1-.1-.1l-13.8-6.5h-.3Zm28.7-.1-.3-.2-13.6-6.2a.45.45,0,0,0-.5,0c-1.2.5-2.4,1.1-3.6,1.6l-.3.1h.1l14.2,6.3h.3Z" style="fill:#f7eec9"/><path d="M217.6,172.7h0c-.2-.1-.3-.2-.4-.2l-16.3-7.9a.68.68,0,0,1-.4-.6V145.1a.62.62,0,0,1,.4-.6l14.7-6.7,2.8-1.3h.1l.3.2,16.8,7.7a.68.68,0,0,1,.4.6v18.9c0,.2-.1.5-.4.5l-14.9,6.8Zm-15.5-27.2v17.7c0,.2.1.4.3.4l15.2,7.2.3.1v-18c0-.3-.1-.4-.4-.5l-15.1-6.9Zm17.3,24.9.3-.1,14.5-6.9c.2-.1.2-.3.2-.5V145.2l-.4.2c-1.4.7-2.7,1.3-4.1,2a.55.55,0,0,0-.3.5v7.8a.55.55,0,0,1-.3.5l-4.1,2.2-.3.2V150l-.4.2-4.8,2.4c-.2.1-.4.3-.3.5v17.3Zm-15.6-25.6.1.1,14.3,6.4h.3l5-2.4a.1.1,0,0,1-.1-.1l-13.8-6.5h-.3Zm28.7-.1-.3-.2-13.6-6.2a.45.45,0,0,0-.5,0c-1.2.5-2.4,1.1-3.6,1.6l-.3.1h.1l14.2,6.3h.3Z" style="fill:#f7eec9"/><path d="M263,172.7h0c-.2-.1-.3-.2-.4-.2-5.4-2.6-10.9-5.2-16.3-7.9a.49.49,0,0,1-.3-.6V145.1a.71.71,0,0,1,.3-.6L261,138l2.8-1.3h.2l.3.2,16.8,7.7a.68.68,0,0,1,.4.6v18.9c0,.2-.1.5-.4.5-5,2.3-9.9,4.5-14.9,6.8A21.49,21.49,0,0,0,263,172.7Zm-15.4-27.2v17.7c0,.2.1.4.3.4l15.2,7.2.3.1v-18c0-.3-.1-.4-.4-.5l-15.1-6.9Zm17.3,24.9.2-.1,14.5-6.9a.37.37,0,0,0,.2-.5V145.2l-.4.2c-1.4.7-2.7,1.3-4.1,2a.55.55,0,0,0-.3.5v7.8a.55.55,0,0,1-.3.5l-4.1,2.2-.4.2V150l-.4.2-4.8,2.4c-.2.1-.4.3-.3.5v16.1Zm-15.6-25.6.1.1,14.3,6.4h.3l5-2.4-.1-.1-13.8-6.5h-.3Zm28.7-.1-.3-.2-13.6-6.2a.45.45,0,0,0-.5,0c-1.2.5-2.4,1.1-3.6,1.6l-.2.1,14.2,6.3h.3Z" style="fill:#f7eec9"/><path d="M191.4,230.1H146.2c.2-4.3,3.9-8.9,8-9.9a2.24,2.24,0,0,0,1.7-1.9,42.53,42.53,0,0,0,.6-7.1c0-2.8-.5-5.5-.5-8.3a17.5,17.5,0,0,1,1.8-7.8,10.17,10.17,0,0,1,10.1-6.2c1.2,0,2.4,0,3.5.1a10,10,0,0,1,8.1,6.2,23.18,23.18,0,0,1,1.6,13,23.74,23.74,0,0,0,0,9.2,7.61,7.61,0,0,0,.8,2.1,1.59,1.59,0,0,0,1,.8,8.81,8.81,0,0,1,6.4,5.1A41.33,41.33,0,0,1,191.4,230.1Zm-13-25.7c-.8,1.5-1.7.8-2.6.3-3.5-1.8-7-3.6-10.6-5.4a2.76,2.76,0,0,0-3.9.7,24.19,24.19,0,0,0-1.8,3.6,2.47,2.47,0,0,1-.4.9c-1.2,1-1,4,.4,4.8a3,3,0,0,1,.8.8,15.45,15.45,0,0,0,3.6,5.5c3,2.8,6.4,2.8,9.4.1a14.62,14.62,0,0,0,3.6-5.5,2.18,2.18,0,0,1,.5-.8A3.6,3.6,0,0,0,178.4,204.4Zm-18,15.4c.6,2,4.7,4.2,8.2,4.2s7.6-2.1,8.2-4.2l-2.3-2.6c-3.7,3.2-7.4,3.8-11.8,0Z" style="fill:#f7eec9"/><path d="M640.9,172.7h0c-.2-.1-.3-.2-.4-.2l-16.3-7.9a.49.49,0,0,1-.3-.6V145.1a.71.71,0,0,1,.3-.6l14.7-6.7,2.8-1.3h.1l.3.2,16.8,7.7a.68.68,0,0,1,.4.6v18.9c0,.2-.1.5-.4.5L644,171.2Zm-15.5-27.2v17.7c0,.2.1.4.3.4l15.2,7.2.3.1v-18a.46.46,0,0,0-.3-.5l-15.1-6.9Zm17.3,24.9.3-.1,14.5-6.9c.2-.1.2-.3.2-.5V145.2l-.4.2c-1.4.7-2.7,1.3-4.1,2a.55.55,0,0,0-.3.5v7.8a.55.55,0,0,1-.3.5l-4.1,2.2-.3.2V150l-.4.2-4.8,2.4c-.2.1-.4.3-.3.5v17.3Zm-15.6-25.6.1.1,14.3,6.4h.3l5-2.4a.1.1,0,0,1-.1-.1l-13.8-6.5h-.3Zm28.7-.1-.3-.2L642,138.3a.45.45,0,0,0-.5,0c-1.2.5-2.4,1.1-3.5,1.6l-.3.1h.1l14.2,6.3h.3Z" style="fill:#f7eec9"/><path d="M686.3,172.7h0c-.2-.1-.3-.2-.4-.2-5.4-2.6-10.9-5.2-16.3-7.9a.49.49,0,0,1-.3-.6V145.1a.71.71,0,0,1,.3-.6l14.7-6.6,2.8-1.3h.1l.3.2,16.8,7.7a.49.49,0,0,1,.3.6V164c0,.2-.1.5-.3.5-5,2.3-9.9,4.5-14.9,6.8Zm-15.4-27.2v17.7c0,.2.1.4.3.4l15.2,7.2.3.1v-18a.46.46,0,0,0-.3-.5l-15.1-6.9Zm17.3,24.9.2-.1,14.5-6.9c.2-.1.2-.3.2-.5V145.2l-.4.2c-1.4.7-2.7,1.3-4.1,2a.55.55,0,0,0-.3.5v7.8a.55.55,0,0,1-.3.5l-4.1,2.2-.3.2V150l-.4.2-4.8,2.4c-.2.1-.4.3-.3.5v16.1Zm-15.6-25.6.1.1,14.3,6.5h.3l5-2.4-.1-.1-13.8-6.5h-.3Zm28.7-.1-.3-.2-13.6-6.2a.45.45,0,0,0-.5,0c-1.2.5-2.4,1.1-3.6,1.6l-.2.1,14.2,6.3h.3Z" style="fill:#f7eec9"/><path d="M731.8,172.7h0c-.2-.1-.3-.2-.4-.2l-16.3-7.9a.49.49,0,0,1-.3-.6V145.1a.71.71,0,0,1,.3-.6l14.7-6.6,2.8-1.3h.1c.1.1.2.1.3.2l16.8,7.7a.68.68,0,0,1,.4.6V164c0,.2-.1.5-.4.5l-14.9,6.7Zm-15.5-27.2v17.7c0,.2.1.4.3.4l15.2,7.2.3.1V153a.55.55,0,0,0-.3-.5l-15.1-6.9Zm17.4,24.9.3-.1,14.5-6.9c.2-.1.2-.3.2-.5V145.2l-.4.2c-1.4.7-2.7,1.3-4.1,2a.55.55,0,0,0-.3.5v7.8a.55.55,0,0,1-.3.5c-1.4.7-2.7,1.5-4.1,2.2l-.3.2V150l-.4.2-4.8,2.4c-.2.1-.4.3-.3.5v17.3Zm-15.6-25.6.1.1,14.3,6.4h.3l5-2.4a.1.1,0,0,1-.1-.1l-13.8-6.5h-.3Zm28.7-.1-.3-.2L733,138.3a.45.45,0,0,0-.5,0c-1.2.5-2.4,1.1-3.5,1.6l-.3.1h.1l14.2,6.3h.3Z" style="fill:#f7eec9"/><path d="M777.3,172.7h0c-.2-.1-.3-.2-.4-.2-5.4-2.6-10.9-5.2-16.3-7.9a.49.49,0,0,1-.3-.6V145.1a.71.71,0,0,1,.3-.6l14.7-6.7,2.8-1.3h.1l.3.2,16.8,7.7a.49.49,0,0,1,.3.6v18.9c0,.2-.1.5-.4.5l-14.9,6.8Zm-15.4-27.2v17.7c0,.2.1.4.3.4l15.2,7.2.3.1v-18a.46.46,0,0,0-.3-.5l-15.1-6.9Zm17.3,24.9.2-.1,14.5-6.9c.2-.1.2-.3.2-.5V145.2l-.4.2c-1.3.7-2.7,1.3-4.1,2a.55.55,0,0,0-.3.5v7.8a.55.55,0,0,1-.3.5l-4.1,2.2c-.1.1-.2.1-.3.2V150l-.4.2-4.8,2.4c-.2.1-.4.3-.3.5v16.1Zm-15.6-25.6.1.1,14.3,6.5h.3l5-2.4-.1-.1-13.8-6.5h-.3Zm28.7-.1-.3-.2-13.6-6.2a.45.45,0,0,0-.5,0c-1.2.5-2.4,1.1-3.5,1.6l-.2.1,14.2,6.3h.3Z" style="fill:#f7eec9"/><path d="M822.8,172.7h0c-.2-.1-.3-.2-.4-.2l-16.3-7.9a.49.49,0,0,1-.3-.6V145.1a.71.71,0,0,1,.3-.6l14.7-6.7,2.8-1.3h.1c.1.1.2.1.3.2l16.8,7.7a.68.68,0,0,1,.4.6v18.9c0,.2-.1.5-.4.5l-14.9,6.8C824.9,171.7,823.9,172.2,822.8,172.7Zm-15.5-27.2v17.7c0,.2.1.4.3.4l15.2,7.2.3.1V153a.55.55,0,0,0-.3-.5l-15.1-6.9Zm17.4,24.9.2-.1,14.5-6.9c.2-.1.2-.3.2-.5V145.2l-.4.2c-1.4.7-2.7,1.3-4.1,2a.55.55,0,0,0-.3.5v7.8a.55.55,0,0,1-.3.5c-1.4.7-2.7,1.5-4.1,2.2l-.3.2V150l-.4.2-4.8,2.4c-.2.1-.4.3-.3.5v17.3Zm-15.6-25.6.1.1,14.3,6.4h.3l5-2.4a.1.1,0,0,1-.1-.1l-13.8-6.5h-.3Zm28.7-.1-.3-.2L824,138.3a.45.45,0,0,0-.5,0c-1.2.5-2.4,1.1-3.5,1.6l-.3.1h.1l14.2,6.3h.3Z" style="fill:#f7eec9"/><path d="M751.2,230.1H706c.2-4.3,3.9-8.9,8-9.9a2.24,2.24,0,0,0,1.7-1.9,42.53,42.53,0,0,0,.6-7.1c0-2.8-.5-5.5-.5-8.3a17.5,17.5,0,0,1,1.8-7.8,10.13,10.13,0,0,1,10-6.2c1.2,0,2.4,0,3.5.1a10,10,0,0,1,8.1,6.2,22.3,22.3,0,0,1,1.5,13,28.4,28.4,0,0,0,0,9.2,7.61,7.61,0,0,0,.8,2.1,1.59,1.59,0,0,0,1,.8,9.17,9.17,0,0,1,6.5,5.1A29.15,29.15,0,0,1,751.2,230.1Zm-13-25.7c-.8,1.5-1.7.8-2.6.3l-10.5-5.4a2.76,2.76,0,0,0-3.9.7,24.19,24.19,0,0,0-1.8,3.6,2.47,2.47,0,0,1-.4.9c-1.2,1-1,4,.4,4.8a3,3,0,0,1,.8.8,15.45,15.45,0,0,0,3.6,5.5c3,2.8,6.4,2.8,9.4.1a14.62,14.62,0,0,0,3.6-5.5,2.18,2.18,0,0,1,.5-.8A3.66,3.66,0,0,0,738.2,204.4Zm-18,15.4c.6,2,4.7,4.2,8.2,4.2s7.6-2.1,8.2-4.2l-2.3-2.6c-3.7,3.2-7.4,3.8-11.8,0Z" style="fill:#f7eec9"/><path d="M361,172.7h0c-.2-.1-.3-.2-.4-.2l-16.3-7.9a.68.68,0,0,1-.4-.6V145.1a.62.62,0,0,1,.4-.6l14.7-6.7,2.8-1.3h.1c.1.1.2.1.3.2l16.8,7.7a.68.68,0,0,1,.4.6v18.9c0,.2-.1.5-.4.5l-14.9,6.8Zm-15.5-27.2v17.7c0,.2.1.4.3.4l15.2,7.2.3.1v-18a.46.46,0,0,0-.3-.5l-15.1-6.9Zm17.3,24.9.3-.1,14.5-6.9c.2-.1.2-.3.2-.5V145.2l-.4.2c-1.4.7-2.7,1.3-4.1,2a.55.55,0,0,0-.3.5v7.8a.55.55,0,0,1-.3.5c-1.4.7-2.7,1.5-4.1,2.2l-.4.2V150l-.4.2-4.8,2.4c-.2.1-.4.3-.3.5v16.1Zm-15.6-25.6.1.1,14.3,6.4h.3l5-2.4a.1.1,0,0,1-.1-.1l-13.9-6.5h-.3Zm28.8-.1-.3-.2-13.6-6.2a.45.45,0,0,0-.5,0c-1.2.5-2.4,1.1-3.5,1.6l-.3.1h.1l14.2,6.3h.3Z" style="fill:#f7eec9"/><path d="M406.5,172.7h0c-.2-.1-.3-.2-.4-.2-5.4-2.6-10.9-5.2-16.3-7.9a.49.49,0,0,1-.3-.6V145.1a.71.71,0,0,1,.3-.6l14.7-6.7,2.8-1.3h.1l.3.2,16.8,7.7a.68.68,0,0,1,.4.6v18.9c0,.2-.1.5-.4.5l-14.9,6.8C408.6,171.7,407.5,172.2,406.5,172.7ZM391,145.5v17.7c0,.2.1.4.3.4l15.2,7.2.3.1v-18c0-.3-.1-.4-.4-.5l-15.1-6.9Zm17.3,24.9.2-.1,14.5-6.9c.2-.1.2-.3.2-.5V145.2l-.4.2c-1.4.7-2.7,1.3-4.1,2a.55.55,0,0,0-.3.5v7.8a.55.55,0,0,1-.3.5l-4.1,2.2-.4.2V150l-.4.2-4.8,2.4c-.2.1-.4.3-.3.5v16.1Zm-15.6-25.6.1.1,14.3,6.4h.3l5-2.4-.1-.1-13.8-6.5h-.3Zm28.8-.1-.3-.2-13.6-6.2a.45.45,0,0,0-.5,0c-1.2.5-2.4,1.1-3.5,1.6l-.2.1,14.2,6.3h.3Z" style="fill:#f7eec9"/><path d="M452,172.7h0c-.2-.1-.3-.2-.4-.2l-16.3-7.9a.68.68,0,0,1-.4-.6V145.1a.62.62,0,0,1,.4-.6l14.7-6.7,2.8-1.3h.1c.1.1.2.1.3.2l16.8,7.7a.68.68,0,0,1,.4.6v18.9c0,.2-.1.5-.4.5l-14.9,6.8Zm-15.5-27.2v17.7c0,.2.1.4.3.4l15.2,7.2.3.1V153a.55.55,0,0,0-.3-.5l-15.1-6.9Zm17.3,24.9.2-.1,14.5-6.9c.2-.1.2-.3.2-.5V145.2l-.4.2c-1.4.7-2.7,1.3-4.1,2a.55.55,0,0,0-.3.5v7.8a.55.55,0,0,1-.3.5c-1.4.7-2.7,1.5-4.1,2.2l-.4.2V150l-.4.2-4.8,2.4c-.2.1-.4.3-.3.5v16.1Zm-15.6-25.6.1.1,14.3,6.4h.3l5-2.4a.1.1,0,0,1-.1-.1l-13.9-6.5h-.3Zm28.8-.1-.3-.2-13.6-6.2a.45.45,0,0,0-.5,0c-1.2.5-2.4,1.1-3.5,1.6l-.3.1h.1l14.2,6.3h.3Z" style="fill:#f7eec9"/><path d="M497.5,172.7h0c-.2-.1-.3-.2-.4-.2l-16.3-7.9a.68.68,0,0,1-.4-.6V145.1a.62.62,0,0,1,.4-.6l14.7-6.6,2.8-1.3h.1l.3.2,16.8,7.7a.49.49,0,0,1,.3.6V164c0,.2-.1.5-.4.5l-14.9,6.8ZM482,145.5v17.7c0,.2.1.4.3.4l15.2,7.2.3.1v-18c0-.3-.1-.4-.4-.5l-15.1-6.9Zm17.3,24.9.2-.1,14.5-6.9c.2-.1.2-.3.2-.5V145.2l-.4.2c-1.4.7-2.7,1.3-4.1,2a.55.55,0,0,0-.3.5v7.8a.55.55,0,0,1-.3.5l-4.1,2.2c-.1.1-.2.1-.3.2V150l-.4.2-4.8,2.4c-.2.1-.4.3-.3.5v16.1Zm-15.6-25.6.1.1,14.3,6.4h.3l5-2.4a.1.1,0,0,1-.1-.1l-13.8-6.5h-.3Zm28.8-.1-.3-.2-13.6-6.2a.45.45,0,0,0-.5,0c-1.2.5-2.4,1.1-3.5,1.6l-.2.1,14.2,6.3h.3Z" style="fill:#f7eec9"/><path d="M543,172.7h0c-.2-.1-.3-.2-.4-.2l-16.3-7.9a.49.49,0,0,1-.3-.6V145.1a.71.71,0,0,1,.3-.6l14.6-6.6,2.8-1.3h.1c.1.1.2.1.3.2l16.8,7.7a.68.68,0,0,1,.4.6V164c0,.2-.1.5-.4.5L546,171.3C545,171.7,544,172.2,543,172.7Zm-15.5-27.2v17.7c0,.2.1.4.3.4l15.2,7.2.3.1v-18a.46.46,0,0,0-.3-.5l-15.1-6.9Zm17.3,24.9.2-.1,14.5-6.9c.2-.1.2-.3.2-.5V145.2l-.4.2c-1.4.7-2.7,1.3-4.1,2a.55.55,0,0,0-.3.5v7.8a.55.55,0,0,1-.3.5l-4.1,2.2-.3.2V150l-.4.2-4.8,2.4c-.2.1-.4.3-.3.5v16.1Zm-15.6-25.6.1.1,14.3,6.4h.3l5-2.4-.1-.1L535,142.3h-.3Zm28.8-.1-.3-.2-13.6-6.2a.45.45,0,0,0-.5,0c-1.2.5-2.4,1.1-3.6,1.6l-.2.1h.1l14.2,6.3h.3Z" style="fill:#f7eec9"/><path d="M471.3,230.1H426.1c.2-4.3,3.9-8.9,8-9.9a2.24,2.24,0,0,0,1.7-1.9,42.53,42.53,0,0,0,.6-7.1c0-2.8-.5-5.5-.5-8.3a17.5,17.5,0,0,1,1.8-7.8,10.13,10.13,0,0,1,10-6.2c1.2,0,2.4,0,3.5.1a10,10,0,0,1,8.1,6.2,23.18,23.18,0,0,1,1.6,13,23.74,23.74,0,0,0,0,9.2,7.61,7.61,0,0,0,.8,2.1,1.59,1.59,0,0,0,1,.8,9.17,9.17,0,0,1,6.5,5.1A41.33,41.33,0,0,1,471.3,230.1Zm-13-25.7c-.8,1.5-1.7.8-2.6.3-3.5-1.8-7-3.6-10.6-5.4a2.76,2.76,0,0,0-3.9.7,24.19,24.19,0,0,0-1.8,3.6,2.47,2.47,0,0,1-.4.9c-1.2,1-1,4,.4,4.8a3,3,0,0,1,.8.8,15.45,15.45,0,0,0,3.6,5.5c3,2.8,6.4,2.8,9.4.1a14.62,14.62,0,0,0,3.6-5.5,2.18,2.18,0,0,1,.5-.8A3.6,3.6,0,0,0,458.3,204.4Zm-18,15.4c.6,2,4.7,4.2,8.2,4.2s7.6-2.1,8.2-4.2l-2.3-2.6c-3.7,3.2-7.4,3.8-11.8,0Z" style="fill:#f7eec9"/></svg>