<svg data-name="Layer 1" xmlns="http://www.w3.org/2000/svg" viewBox="0 0 900 900"><path style="fill:#07448e" d="M0 0h900v900H0z"/><text transform="translate(40 766.11)" style="font-size:76px;fill:#f9c7e4;font-family:DINCondensed-Bold,DIN Condensed;font-weight:700">MU<tspan x="74.63" y="0" style="letter-spacing:-.07301089638157894em">L</tspan><tspan x="97.2" y="0" style="letter-spacing:.000012849506578947368em">TIPLE DEVELOPERS, </tspan></text><text transform="translate(40 857.31)" style="font-size:76px;fill:#f9c7e4;font-family:DINCondensed-Bold,DIN Condensed;font-weight:700">MERGING <tspan x="230.88" y="0" style="letter-spacing:-.010986328125em">T</tspan><tspan x="255.28" y="0" style="letter-spacing:-.000012849506578947368em">O 1 </tspan><tspan x="344.2" y="0" style="letter-spacing:-.03599146792763158em">P</tspan><tspan x="372.39" y="0">ACKAGE </tspan></text><path style="fill:#f9c7e4" d="M40 641h815v13H40z"/><path d="M441.8 605.89h-.18a8.25 8.25 0 0 0-.88-.57q-20.91-10.08-41.85-20.13a1.35 1.35 0 0 1-.89-1.42v-48.42a1.3 1.3 0 0 1 .89-1.4q18.84-8.58 37.65-17.2c2.43-1.11 4.83-2.27 7.25-3.4h.36c.28.16.56.34.85.47q21.53 9.88 43.05 19.75A1.31 1.31 0 0 1 489 535v48.33a1.31 1.31 0 0 1-.92 1.4q-19.08 8.68-38.16 17.42c-2.74 1.2-5.43 2.48-8.12 3.74Zm-39.74-69.66c0 .34-.05.57-.05.8v44.62a1 1 0 0 0 .68 1.09l39 18.52c.23.11.47.18.75.29v-46.09a1.2 1.2 0 0 0-.89-1.24l-38.61-17.62c-.26-.12-.54-.22-.88-.37ZM446.48 600c.32-.14.49-.2.65-.28q18.58-8.79 37.2-17.57c.6-.28.63-.67.63-1.21v-45.25c-.41.18-.71.31-1 .45-3.49 1.7-7 3.42-10.46 5.1a1.17 1.17 0 0 0-.78 1.22v20.07a1.15 1.15 0 0 1-.7 1.18c-3.52 1.91-7 3.84-10.53 5.76-.23.13-.47.22-.89.42v-22.17c-.45.2-.72.31-1 .44-4.11 2-8.2 4-12.32 6a1.3 1.3 0 0 0-.85 1.36v41.2Zm-40-65.67a2.38 2.38 0 0 0 .32.23l36.65 16.55a1.09 1.09 0 0 0 .83 0c4.27-2 8.52-4.05 12.81-6.11a2.38 2.38 0 0 0-.33-.25q-17.7-8.33-35.42-16.63a1.14 1.14 0 0 0-.83 0c-4.61 2.09-9.25 4.15-13.99 6.25Zm73.69-.33c-.32-.17-.55-.31-.78-.42q-17.39-7.93-34.79-15.85a1.82 1.82 0 0 0-1.32 0c-3.06 1.35-6.08 2.75-9.11 4.14-.22.1-.42.24-.66.38a1.41 1.41 0 0 1 .14.1q18.24 8 36.47 16.06a1 1 0 0 0 .75 0c3.13-1.41 6.13-2.85 9.34-4.41Z" style="fill:#f7eec9"/><path style="fill:none;stroke:#f9c7e4;stroke-miterlimit:10;stroke-width:13px" d="m168.5 179.5 211.11 195.89"/><path style="fill:#f9c7e4" d="m345.64 373.94 31.15-1.16-1.17-31.15 13.72 12.72 1.16 31.15-31.15 1.17-13.71-12.73z"/><path style="fill:none;stroke:#f9c7e4;stroke-miterlimit:10;stroke-width:13px" d="m448.5 186-.44 186.84"/><path style="fill:#f9c7e4" d="M426.08 346.89 448.07 369l22.09-22-.04 18.71-22.09 21.99-21.99-22.09.04-18.72z"/><path style="fill:none;stroke:#f9c7e4;stroke-miterlimit:10;stroke-width:13px" d="M728.5 179.5 514.31 381.31"/><path style="fill:#f9c7e4" d="m518.05 347.51-.94 31.17 31.16.91-13.62 12.84-31.15-.93.93-31.15 13.62-12.84z"/><path style="fill:#07448e" d="M73 174h710v24H73z"/><path d="M191.41 186.15h-45.17c.2-4.32 3.91-8.93 8-9.91a2.12 2.12 0 0 0 1.66-1.94 51.67 51.67 0 0 0 .58-7.13c0-2.77-.48-5.54-.48-8.31a17.57 17.57 0 0 1 1.81-7.84 10.21 10.21 0 0 1 10.05-6.2 32.06 32.06 0 0 1 3.54.1 10 10 0 0 1 8.06 6.17 22.76 22.76 0 0 1 1.56 13 25.68 25.68 0 0 0 0 9.21 7.75 7.75 0 0 0 .79 2.12 1.7 1.7 0 0 0 1 .77 8.92 8.92 0 0 1 6.45 5.15c.88 1.48 1.44 3.09 2.15 4.81Zm-13-25.76c-.79 1.51-1.67.8-2.59.32q-5.26-2.73-10.56-5.43a2.84 2.84 0 0 0-3.88.68 20.42 20.42 0 0 0-1.79 3.63c-.14.29-.17.71-.39.89-1.25 1-1 4 .39 4.77a1.9 1.9 0 0 1 .76.83 15.51 15.51 0 0 0 3.62 5.48c3 2.78 6.39 2.81 9.38.06a15 15 0 0 0 3.64-5.48 1.82 1.82 0 0 1 .5-.83 3.52 3.52 0 0 0 .94-4.92Zm-18 15.37c.63 2 4.69 4.19 8.24 4.19s7.56-2.14 8.24-4.22c-.82-.89-1.57-1.72-2.33-2.56-3.67 3.16-7.4 3.75-11.75 0Zm590.78 10.39H706c.2-4.32 3.91-8.93 8-9.91a2.11 2.11 0 0 0 1.66-1.94 53.28 53.28 0 0 0 .59-7.13c0-2.77-.49-5.54-.49-8.31a17.7 17.7 0 0 1 1.81-7.84c2-4.16 5.36-6.3 10-6.2a32.06 32.06 0 0 1 3.54.1 10 10 0 0 1 8.07 6.17 22.85 22.85 0 0 1 1.55 13 25.91 25.91 0 0 0 0 9.21 8.09 8.09 0 0 0 .79 2.12 1.73 1.73 0 0 0 1 .77 9 9 0 0 1 6.46 5.15c.95 1.48 1.5 3.09 2.21 4.81Zm-13-25.76c-.78 1.51-1.67.8-2.59.32q-5.26-2.73-10.55-5.43a2.85 2.85 0 0 0-3.89.68 21.12 21.12 0 0 0-1.79 3.63c-.14.29-.17.71-.39.89-1.25 1-1 4 .39 4.77a1.9 1.9 0 0 1 .76.83 15.51 15.51 0 0 0 3.62 5.48c3 2.78 6.39 2.81 9.39.06a15 15 0 0 0 3.63-5.48 1.83 1.83 0 0 1 .51-.83 3.52 3.52 0 0 0 .93-4.92Zm-18 15.37c.63 2 4.7 4.19 8.24 4.19s7.56-2.14 8.24-4.22c-.81-.89-1.57-1.72-2.32-2.56-3.68 3.16-7.41 3.75-11.76 0ZM81.08 92.7H81c-.12-.07-.22-.16-.34-.22l-16.31-7.85a.52.52 0 0 1-.35-.55V65.2a.5.5 0 0 1 .35-.55L79 58l2.82-1.33H82a3.65 3.65 0 0 0 .34.18l16.78 7.7a.52.52 0 0 1 .36.55v18.85a.52.52 0 0 1-.36.54l-14.89 6.74c-1.05.48-2.1.98-3.15 1.47Zm-15.5-27.16v17.71a.4.4 0 0 0 .26.43L81 90.9l.29.11V73a.46.46 0 0 0-.34-.48l-15.02-6.83ZM82.9 90.42l.25-.11 14.51-6.85c.24-.11.25-.26.25-.47V65.33l-.39.17-4.08 2a.44.44 0 0 0-.3.47v7.82a.46.46 0 0 1-.27.47c-1.38.74-2.74 1.49-4.11 2.24l-.35.17V70l-.38.17-4.8 2.36a.48.48 0 0 0-.33.52v16.07Zm-15.58-25.6.13.09 14.29 6.45a.44.44 0 0 0 .32 0l5-2.39-.13-.1-13.82-6.46a.44.44 0 0 0-.32 0Zm28.74-.13-.31-.17-13.56-6.18a.77.77 0 0 0-.52 0c-1.19.53-2.37 1.08-3.55 1.62l-.26.14h.06l14.22 6.27h.29Zm30.51 28.01h-.07a4 4 0 0 0-.34-.22l-16.32-7.85a.53.53 0 0 1-.35-.55V65.2a.51.51 0 0 1 .35-.55L124.52 58l2.83-1.33h.14c.11.06.22.13.33.18l16.79 7.7a.51.51 0 0 1 .35.55v18.85a.51.51 0 0 1-.36.54l-14.88 6.79c-1.05.43-2.1.93-3.15 1.42Zm-15.49-27.16v17.71a.41.41 0 0 0 .27.43l15.21 7.22.3.11V73.04c0-.28-.13-.38-.35-.48l-15.07-6.87Zm17.32 24.88.25-.11 14.5-6.85c.24-.11.25-.26.25-.47V65.33l-.39.17c-1.36.67-2.71 1.34-4.08 2a.45.45 0 0 0-.3.47v7.82a.46.46 0 0 1-.27.47l-4.11 2.24c-.08 0-.18.09-.34.17V70l-.39.17c-1.6.79-3.19 1.58-4.8 2.36a.49.49 0 0 0-.33.52v16.07Zm-15.58-25.6.12.09 14.29 6.45a.47.47 0 0 0 .33 0l5-2.39-.13-.1-13.81-6.48a.44.44 0 0 0-.32 0Zm28.73-.13-.31-.17-13.56-6.18a.77.77 0 0 0-.52 0c-1.19.53-2.37 1.08-3.55 1.62l-.25.14 14.22 6.27h.29Zm30.52 28.01H172c-.12-.07-.23-.16-.35-.22l-16.31-7.85a.52.52 0 0 1-.35-.55V65.2a.5.5 0 0 1 .35-.55L170 58l2.82-1.33h.18a3.65 3.65 0 0 0 .34.18l16.78 7.7a.52.52 0 0 1 .36.55v18.85a.52.52 0 0 1-.36.54l-14.88 6.79c-1.08.43-2.12.93-3.17 1.42Zm-15.5-27.16v17.71a.41.41 0 0 0 .27.43L172 90.9l.29.11V73c0-.28-.12-.38-.35-.48l-15.07-6.87Zm17.32 24.88.25-.11 14.51-6.85c.23-.11.25-.26.25-.47V65.33l-.38.17-4.08 2a.44.44 0 0 0-.3.47v7.82a.45.45 0 0 1-.28.47l-4.1 2.24-.35.17V70l-.38.17-4.8 2.36a.48.48 0 0 0-.33.52v16.07Zm-15.58-25.6.12.09 14.29 6.45a.47.47 0 0 0 .33 0L178 69l-.12-.1-13.78-6.49a.44.44 0 0 0-.32 0Zm28.69-.13-.3-.17-13.57-6.18a.74.74 0 0 0-.51 0c-1.19.53-2.37 1.08-3.56 1.62l-.25.14h.06l14.22 6.27h.29Zm30.56 28.01h-.07a4 4 0 0 0-.34-.22l-16.32-7.85a.53.53 0 0 1-.35-.55V65.2a.51.51 0 0 1 .35-.55L215.51 58l2.83-1.33h.14c.11.06.22.13.33.18l16.78 7.7a.51.51 0 0 1 .36.55v18.85a.52.52 0 0 1-.36.54l-14.88 6.79c-1.05.43-2.1.93-3.15 1.42Zm-15.49-27.16v17.71a.41.41 0 0 0 .27.43l15.21 7.22.3.11V73.04c0-.28-.13-.38-.35-.48l-15.07-6.87Zm17.31 24.88.26-.11 14.5-6.85c.24-.11.25-.26.25-.47V65.33l-.39.17c-1.36.67-2.71 1.34-4.08 2a.44.44 0 0 0-.3.47v7.82a.46.46 0 0 1-.27.47l-4.11 2.24-.34.17V70l-.39.17c-1.6.79-3.19 1.58-4.8 2.36a.49.49 0 0 0-.33.52v16.07Zm-15.57-25.6.12.09 14.29 6.45a.45.45 0 0 0 .32 0l5-2.39-.13-.1-13.81-6.46a.47.47 0 0 0-.33 0Zm28.73-.13-.31-.17-13.56-6.18a.77.77 0 0 0-.52 0c-1.19.53-2.37 1.08-3.55 1.62l-.26.14h.06l14.22 6.27h.29Zm30.51 28.01H263a4 4 0 0 0-.34-.22q-8.16-3.93-16.32-7.85a.52.52 0 0 1-.34-.55V65.2a.51.51 0 0 1 .34-.55L261 58l2.83-1.33h.17c.11.06.22.13.33.18l16.79 7.7a.51.51 0 0 1 .35.55v18.85a.5.5 0 0 1-.35.54q-7.45 3.39-14.88 6.79c-1.09.43-2.14.93-3.19 1.42Zm-15.49-27.16v17.71a.41.41 0 0 0 .27.43L263 90.9l.29.11V73.04c0-.28-.13-.38-.35-.48l-15.04-6.87Zm17.32 24.88.25-.11 14.51-6.85a.41.41 0 0 0 .24-.47V65.33l-.38.17-4.08 2a.44.44 0 0 0-.3.47v7.82a.45.45 0 0 1-.28.47l-4.1 2.24-.35.17V70l-.38.17-4.8 2.36a.49.49 0 0 0-.34.52v16.07Zm-15.58-25.6.12.09 14.29 6.45a.47.47 0 0 0 .33 0L269 69l-.13-.1-13.81-6.48a.44.44 0 0 0-.32 0Zm28.7-.13-.3-.17-13.57-6.18a.75.75 0 0 0-.51 0c-1.19.53-2.37 1.08-3.56 1.62l-.25.14h.05l14.22 6.27h.29ZM640.86 92.7h-.07a4 4 0 0 0-.34-.22l-16.32-7.85a.53.53 0 0 1-.35-.55V65.2a.51.51 0 0 1 .35-.55L638.81 58l2.83-1.33h.14c.11.06.22.13.33.18l16.78 7.7a.51.51 0 0 1 .36.55v18.85a.52.52 0 0 1-.36.54L644 91.23Zm-15.49-27.16v17.71a.41.41 0 0 0 .27.43l15.21 7.22.3.11V73.04c0-.28-.13-.38-.35-.48l-15.07-6.87Zm17.31 24.88.26-.11 14.5-6.85c.24-.11.25-.26.25-.47V65.33l-.39.17c-1.36.67-2.71 1.34-4.08 2a.44.44 0 0 0-.3.47v7.82a.46.46 0 0 1-.27.47l-4.11 2.24-.34.17V70l-.39.17c-1.6.79-3.19 1.58-4.8 2.36a.49.49 0 0 0-.33.52v16.07Zm-15.57-25.6.12.09 14.29 6.45a.45.45 0 0 0 .32 0l5-2.39-.13-.1-13.81-6.46a.47.47 0 0 0-.33 0Zm28.73-.13-.31-.17L642 58.34a.77.77 0 0 0-.52 0c-1.19.53-2.37 1.08-3.55 1.62l-.26.14h.06l14.22 6.27h.29Zm30.51 28.01h-.07a4 4 0 0 0-.34-.22q-8.16-3.93-16.32-7.85a.52.52 0 0 1-.34-.55V65.2a.51.51 0 0 1 .34-.55L684.3 58l2.83-1.33h.14c.11.06.22.13.33.18l16.79 7.7a.51.51 0 0 1 .35.55v18.85a.5.5 0 0 1-.35.54q-7.46 3.39-14.88 6.79c-1.06.43-2.1.93-3.16 1.42Zm-15.49-27.16v17.71a.41.41 0 0 0 .27.43l15.22 7.22.29.11V73.04c0-.28-.13-.38-.35-.48l-15.09-6.87Zm17.32 24.88.25-.11 14.51-6.85c.23-.11.24-.26.24-.47V65.33l-.38.17-4.08 2a.44.44 0 0 0-.3.47v7.82a.45.45 0 0 1-.28.47l-4.1 2.24-.35.17V70l-.38.17-4.81 2.36a.49.49 0 0 0-.33.52v16.07Zm-15.58-25.6.12.09L687 71.36a.47.47 0 0 0 .33 0l5-2.39-.13-.1-13.81-6.48a.44.44 0 0 0-.32 0Zm28.73-.13-.3-.17-13.57-6.18a.75.75 0 0 0-.51 0c-1.19.53-2.37 1.08-3.56 1.62l-.25.14h.05l14.22 6.27h.3Zm30.52 28.01h-.07a4 4 0 0 0-.34-.22l-16.32-7.85a.53.53 0 0 1-.35-.55V65.2a.5.5 0 0 1 .35-.55L729.8 58l2.82-1.33h.14c.12.06.22.13.34.18l16.78 7.7a.52.52 0 0 1 .36.55v18.85a.52.52 0 0 1-.36.54L735 91.23Zm-15.5-27.16v17.71a.4.4 0 0 0 .26.43l15.22 7.22.29.11V73.04c0-.28-.12-.38-.34-.48l-15.08-6.87Zm17.32 24.88.26-.11 14.5-6.85c.24-.11.25-.26.25-.47V65.33l-.39.17-4.08 2a.44.44 0 0 0-.3.47v7.82a.46.46 0 0 1-.27.47c-1.38.74-2.74 1.49-4.11 2.24l-.35.17V70l-.38.17-4.8 2.38a.49.49 0 0 0-.33.52v16.07Zm-15.58-25.6.13.09 14.29 6.45a.45.45 0 0 0 .32 0l5-2.39-.13-.1-13.81-6.48a.47.47 0 0 0-.33 0Zm28.74-.13-.31-.17L733 58.34a.77.77 0 0 0-.52 0c-1.19.53-2.37 1.08-3.55 1.62l-.26.14h.06l14.22 6.27h.29Zm30.51 28.01h-.07a4 4 0 0 0-.34-.22q-8.16-3.93-16.32-7.85a.52.52 0 0 1-.34-.55V65.2a.5.5 0 0 1 .34-.55L775.29 58l2.83-1.33h.14c.11.06.22.13.33.18l16.79 7.7a.51.51 0 0 1 .35.55v18.85a.51.51 0 0 1-.36.54l-14.87 6.74c-1.06.48-2.11.98-3.16 1.47Zm-15.49-27.16v17.71a.41.41 0 0 0 .27.43l15.22 7.22.29.11V73.04c0-.28-.13-.38-.35-.48l-15.07-6.87Zm17.32 24.88.25-.11 14.5-6.85c.24-.11.25-.26.25-.47V65.33l-.39.17-4.07 2a.45.45 0 0 0-.31.47v7.82a.46.46 0 0 1-.28.47L785 78.5l-.35.17V70l-.38.17-4.81 2.36a.49.49 0 0 0-.33.52v16.07Zm-15.58-25.6.12.09L778 71.36a.47.47 0 0 0 .33 0l5-2.39-.13-.1-13.81-6.48a.44.44 0 0 0-.32 0Zm28.73-.13-.31-.17-13.56-6.18a.77.77 0 0 0-.52 0c-1.19.53-2.37 1.08-3.55 1.62l-.25.14 14.22 6.27h.29Zm30.52 28.01h-.07c-.12-.07-.22-.16-.35-.22l-16.31-7.85a.52.52 0 0 1-.35-.55V65.2a.5.5 0 0 1 .35-.55L820.79 58l2.82-1.33h.14a3.65 3.65 0 0 0 .34.18l16.78 7.7a.52.52 0 0 1 .36.55v18.85a.52.52 0 0 1-.36.54L826 91.23c-1.07.48-2.11.98-3.16 1.47Zm-15.5-27.16v17.71a.4.4 0 0 0 .26.43l15.2 7.22.29.11V73a.46.46 0 0 0-.34-.48l-15.07-6.87Zm17.32 24.88.25-.11 14.51-6.85c.23-.11.25-.26.25-.47V65.33l-.39.17-4.08 2a.44.44 0 0 0-.3.47v7.82a.46.46 0 0 1-.27.47c-1.38.74-2.74 1.49-4.11 2.24l-.35.17V70l-.38.17-4.79 2.38a.48.48 0 0 0-.33.52v16.07Zm-15.58-25.6.13.09 14.29 6.45a.44.44 0 0 0 .32 0l5-2.39-.13-.1-13.82-6.48a.44.44 0 0 0-.32 0Zm28.74-.13-.31-.17L824 58.34a.77.77 0 0 0-.52 0c-1.19.53-2.37 1.08-3.55 1.62l-.26.14h.06l14.22 6.27h.29ZM361 92.7h-.07c-.12-.07-.22-.16-.34-.22l-16.32-7.85a.53.53 0 0 1-.35-.55V65.2a.5.5 0 0 1 .35-.55L358.92 58l2.82-1.33h.15a3.47 3.47 0 0 0 .33.18L379 64.5a.52.52 0 0 1 .36.55V83.9a.52.52 0 0 1-.36.54l-14.88 6.79c-1.05.48-2.12.98-3.12 1.47Zm-15.52-27.16v17.71a.4.4 0 0 0 .26.43l15.22 7.22.29.11V73.04c0-.28-.12-.38-.34-.48l-15.07-6.87Zm17.31 24.88.26-.11 14.5-6.85c.24-.11.25-.26.25-.47V65.33l-.39.17-4.08 2a.44.44 0 0 0-.3.47v7.82a.46.46 0 0 1-.27.47c-1.38.74-2.74 1.49-4.11 2.24l-.35.17V70l-.38.17-4.8 2.36a.49.49 0 0 0-.33.52v16.07Zm-15.58-25.6.13.09 14.29 6.45a.44.44 0 0 0 .32 0L367 69l-.13-.1L353 62.41a.47.47 0 0 0-.33 0Zm28.79-.13-.31-.17-13.56-6.18a.77.77 0 0 0-.52 0c-1.19.53-2.37 1.08-3.55 1.62l-.26.14h.06L372 66.41h.29Zm30.46 28.01h-.07a4 4 0 0 0-.34-.22q-8.16-3.93-16.32-7.85a.52.52 0 0 1-.34-.55V65.2a.51.51 0 0 1 .34-.55L404.41 58l2.83-1.33h.14l.33.18 16.79 7.7a.51.51 0 0 1 .35.55v18.85a.51.51 0 0 1-.36.54l-14.87 6.79c-1.06.43-2.11.93-3.16 1.42ZM391 65.54v17.71a.41.41 0 0 0 .27.43l15.22 7.22.29.11V73.04c0-.28-.13-.38-.35-.48l-15.07-6.87Zm17.32 24.88.25-.11 14.51-6.85c.23-.11.24-.26.24-.47V65.33l-.39.17-4.07 2a.45.45 0 0 0-.31.47v7.82a.46.46 0 0 1-.28.47l-4.1 2.24-.35.17V70l-.38.17-4.81 2.36a.49.49 0 0 0-.33.52v16.07Zm-15.58-25.6.12.09 14.29 6.45a.47.47 0 0 0 .33 0l5-2.39-.13-.1-13.85-6.46a.44.44 0 0 0-.32 0Zm28.73-.13-.31-.17-13.56-6.18a.77.77 0 0 0-.52 0c-1.19.53-2.37 1.08-3.55 1.62l-.25.14h.05l14.22 6.27h.29ZM452 92.7h-.07c-.12-.07-.22-.16-.35-.22l-16.31-7.85a.52.52 0 0 1-.35-.55V65.2a.5.5 0 0 1 .35-.55L449.91 58l2.82-1.33h.14a3.65 3.65 0 0 0 .34.18L470 64.5a.52.52 0 0 1 .36.55V83.9a.52.52 0 0 1-.36.54l-14.88 6.79c-1.07.48-2.12.98-3.12 1.47Zm-15.5-27.16v17.71a.4.4 0 0 0 .26.43l15.22 7.22.29.11V73a.46.46 0 0 0-.34-.48l-15.07-6.87Zm17.32 24.88.26-.11 14.5-6.85c.24-.11.25-.26.25-.47V65.33l-.39.17-4.08 2a.44.44 0 0 0-.3.47v7.82a.46.46 0 0 1-.27.47c-1.38.74-2.74 1.49-4.11 2.24l-.35.17V70l-.38.17-4.8 2.36a.48.48 0 0 0-.33.52v16.07Zm-15.62-25.6.13.09 14.29 6.45a.44.44 0 0 0 .32 0l5-2.39-.13-.1L444 62.41a.44.44 0 0 0-.32 0Zm28.74-.13-.31-.17-13.56-6.18a.77.77 0 0 0-.52 0c-1.19.53-2.37 1.08-3.55 1.62l-.26.14h.06l14.2 6.31h.29Zm30.51 28.01h-.07a4 4 0 0 0-.34-.22l-16.32-7.85a.53.53 0 0 1-.35-.55V65.2a.51.51 0 0 1 .35-.55L495.4 58l2.83-1.33h.14c.11.06.22.13.33.18l16.79 7.7a.51.51 0 0 1 .35.55v18.85a.51.51 0 0 1-.36.54l-14.88 6.74c-1.05.48-2.1.98-3.15 1.47ZM482 65.54v17.71a.41.41 0 0 0 .27.43l15.21 7.22.3.11V73.04c0-.28-.13-.38-.35-.48l-15.13-6.87Zm17.32 24.88.25-.11L514 83.46c.24-.11.25-.26.25-.47V65.33l-.39.17c-1.36.67-2.71 1.34-4.08 2a.45.45 0 0 0-.3.47v7.82a.46.46 0 0 1-.27.47l-4.11 2.24c-.08 0-.18.09-.34.17V70l-.39.17c-1.6.79-3.19 1.58-4.8 2.36a.49.49 0 0 0-.33.52v16.07Zm-15.62-25.6.12.09 14.29 6.45a.47.47 0 0 0 .33 0l5-2.39-.13-.1-13.81-6.48a.44.44 0 0 0-.32 0Zm28.73-.13-.31-.17-13.56-6.18a.77.77 0 0 0-.52 0c-1.19.53-2.37 1.08-3.55 1.62l-.25.14h.05l14.22 6.27h.29ZM543 92.7h-.07c-.12-.07-.23-.16-.35-.22q-8.14-3.93-16.32-7.85a.52.52 0 0 1-.34-.55V65.2a.5.5 0 0 1 .35-.55L540.9 58l2.82-1.33h.14a3.65 3.65 0 0 0 .34.18L561 64.5a.51.51 0 0 1 .35.55V83.9a.52.52 0 0 1-.36.54l-14.89 6.79c-1.1.48-2.1.98-3.1 1.47Zm-15.5-27.16v17.71a.41.41 0 0 0 .27.43l15.22 7.22.29.11V73c0-.28-.13-.38-.35-.48l-15.07-6.87Zm17.32 24.88.25-.11 14.51-6.85c.23-.11.25-.26.25-.47V65.33l-.38.17-4.08 2a.44.44 0 0 0-.3.47v7.82a.45.45 0 0 1-.28.47l-4.1 2.24-.35.17V70l-.38.17-4.8 2.36a.48.48 0 0 0-.33.52v16.07Zm-15.58-25.6.12.09 14.29 6.45a.47.47 0 0 0 .33 0l5-2.39-.13-.1L535 62.41a.44.44 0 0 0-.32 0Zm28.73-.13-.3-.17-13.57-6.18a.75.75 0 0 0-.51 0c-1.19.53-2.37 1.08-3.56 1.62l-.25.14h.06L554 66.41h.3ZM471.3 186.15h-45.17c.2-4.32 3.91-8.93 8-9.91a2.11 2.11 0 0 0 1.66-1.94 53.28 53.28 0 0 0 .59-7.13c0-2.77-.49-5.54-.49-8.31a17.7 17.7 0 0 1 1.81-7.84c2.05-4.16 5.36-6.3 10.05-6.2a32.06 32.06 0 0 1 3.54.1 10 10 0 0 1 8.06 6.17 22.76 22.76 0 0 1 1.56 13 25.91 25.91 0 0 0 0 9.21 8.09 8.09 0 0 0 .79 2.12 1.7 1.7 0 0 0 1 .77 9 9 0 0 1 6.46 5.15c.84 1.48 1.43 3.09 2.14 4.81Zm-13-25.76c-.78 1.51-1.67.8-2.59.32q-5.26-2.73-10.56-5.43a2.84 2.84 0 0 0-3.88.68 21.12 21.12 0 0 0-1.79 3.63c-.14.29-.17.71-.39.89-1.25 1-1 4 .39 4.77a1.9 1.9 0 0 1 .76.83 15.51 15.51 0 0 0 3.62 5.48c3 2.78 6.39 2.81 9.38.06a15 15 0 0 0 3.64-5.48 1.83 1.83 0 0 1 .51-.83 3.52 3.52 0 0 0 .93-4.92Zm-18 15.37c.63 2 4.7 4.19 8.24 4.19s7.56-2.14 8.24-4.22c-.81-.89-1.57-1.72-2.32-2.56-3.68 3.16-7.41 3.75-11.76 0Z" style="fill:#f7eec9"/><path d="M82.38 123.13h-4v-1a6.88 6.88 0 0 1 .64-3.17 9.51 9.51 0 0 1 2.54-2.79 19.31 19.31 0 0 0 2.29-2 2.75 2.75 0 0 0 .57-1.68 2.82 2.82 0 0 0-1-2.18 4 4 0 0 0-2.74-.91 4.17 4.17 0 0 0-2.78 1 5 5 0 0 0-1.53 2.89l-4-.5a6.63 6.63 0 0 1 2.37-4.72 8.39 8.39 0 0 1 5.77-2.07 8.68 8.68 0 0 1 6 2 5.94 5.94 0 0 1 2.23 4.58 5.06 5.06 0 0 1-.82 2.73 17.83 17.83 0 0 1-3.49 3.51 6.59 6.59 0 0 0-1.71 1.85 6.06 6.06 0 0 0-.34 2.46Zm-4 5.87v-4.36h4.37V129Zm49.75-5.87h-4v-1a6.88 6.88 0 0 1 .64-3.17 9.51 9.51 0 0 1 2.54-2.79 19.31 19.31 0 0 0 2.29-2 2.75 2.75 0 0 0 .57-1.68 2.82 2.82 0 0 0-1-2.18 4 4 0 0 0-2.74-.91 4.17 4.17 0 0 0-2.78 1 5 5 0 0 0-1.53 2.89l-4-.5a6.63 6.63 0 0 1 2.37-4.72 8.39 8.39 0 0 1 5.77-1.94 8.72 8.72 0 0 1 6 2 6 6 0 0 1 2.22 4.58 5.06 5.06 0 0 1-.82 2.73 17.83 17.83 0 0 1-3.49 3.51 6.59 6.59 0 0 0-1.71 1.85 6.1 6.1 0 0 0-.33 2.33Zm-4 5.87v-4.36h4.36V129Zm49.74-5.87h-4v-1a6.88 6.88 0 0 1 .64-3.17 9.51 9.51 0 0 1 2.54-2.79 19.31 19.31 0 0 0 2.29-2 2.75 2.75 0 0 0 .57-1.68 2.82 2.82 0 0 0-1-2.18 4 4 0 0 0-2.74-.91 4.17 4.17 0 0 0-2.78 1 5.08 5.08 0 0 0-1.53 2.89l-4-.5a6.63 6.63 0 0 1 2.37-4.72A8.39 8.39 0 0 1 172 106a8.72 8.72 0 0 1 6 2 6 6 0 0 1 2.22 4.58 5.06 5.06 0 0 1-.82 2.73 17.54 17.54 0 0 1-3.49 3.51 6.59 6.59 0 0 0-1.71 1.85 6.1 6.1 0 0 0-.33 2.46Zm-4 5.87v-4.36h4.36V129Zm49.74-5.87h-4v-1a6.88 6.88 0 0 1 .64-3.17 9.51 9.51 0 0 1 2.54-2.79 19.31 19.31 0 0 0 2.29-2 2.75 2.75 0 0 0 .57-1.68 2.82 2.82 0 0 0-1-2.18 4 4 0 0 0-2.74-.91 4.18 4.18 0 0 0-2.78 1 5.08 5.08 0 0 0-1.53 2.89l-4-.5a6.63 6.63 0 0 1 2.37-4.72 8.41 8.41 0 0 1 5.77-1.94 8.71 8.71 0 0 1 6 2 6 6 0 0 1 2.22 4.58 5.06 5.06 0 0 1-.82 2.73 17.54 17.54 0 0 1-3.49 3.51 6.59 6.59 0 0 0-1.71 1.85 6.1 6.1 0 0 0-.33 2.33Zm-4 5.87v-4.36H220V129Zm49.74-5.87h-4v-1a6.88 6.88 0 0 1 .64-3.17 9.51 9.51 0 0 1 2.54-2.79 19.31 19.31 0 0 0 2.29-2 2.75 2.75 0 0 0 .57-1.68 2.82 2.82 0 0 0-1-2.18 4 4 0 0 0-2.74-.91 4.18 4.18 0 0 0-2.78 1 5.08 5.08 0 0 0-1.53 2.89l-4-.5a6.63 6.63 0 0 1 2.37-4.72 8.41 8.41 0 0 1 5.77-1.94 8.71 8.71 0 0 1 6 2 6 6 0 0 1 2.22 4.58 5 5 0 0 1-.82 2.73 17.7 17.7 0 0 1-3.48 3.51 6.51 6.51 0 0 0-1.72 1.85 6.28 6.28 0 0 0-.33 2.33Zm-4 5.87v-4.36h4.36V129Zm101.03-5.87h-4v-1a6.88 6.88 0 0 1 .64-3.17 9.51 9.51 0 0 1 2.54-2.79 19.31 19.31 0 0 0 2.29-2 2.75 2.75 0 0 0 .57-1.68 2.82 2.82 0 0 0-1-2.18 4 4 0 0 0-2.74-.91 4.17 4.17 0 0 0-2.78 1 5 5 0 0 0-1.53 2.89l-4-.5a6.63 6.63 0 0 1 2.37-4.72 8.39 8.39 0 0 1 5.77-1.94 8.68 8.68 0 0 1 6 2 5.94 5.94 0 0 1 2.23 4.58 5.06 5.06 0 0 1-.82 2.73 17.83 17.83 0 0 1-3.49 3.51 6.59 6.59 0 0 0-1.71 1.85 6.06 6.06 0 0 0-.34 2.33Zm-4 5.87v-4.36h4.37V129Zm49.75-5.87h-4v-1a6.88 6.88 0 0 1 .64-3.17 9.51 9.51 0 0 1 2.54-2.79 19.31 19.31 0 0 0 2.29-2 2.75 2.75 0 0 0 .57-1.68 2.82 2.82 0 0 0-1-2.18 4 4 0 0 0-2.74-.91 4.17 4.17 0 0 0-2.78 1 5 5 0 0 0-1.53 2.89l-4-.5a6.63 6.63 0 0 1 2.37-4.72 8.39 8.39 0 0 1 5.77-1.94 8.72 8.72 0 0 1 6 2 6 6 0 0 1 2.22 4.58 5.06 5.06 0 0 1-.82 2.73 17.83 17.83 0 0 1-3.49 3.51 6.59 6.59 0 0 0-1.71 1.85 6.1 6.1 0 0 0-.33 2.33Zm-4 5.87v-4.36h4.36V129Zm49.74-5.87h-4v-1a6.88 6.88 0 0 1 .64-3.17 9.51 9.51 0 0 1 2.54-2.79 19.31 19.31 0 0 0 2.29-2 2.75 2.75 0 0 0 .57-1.68 2.82 2.82 0 0 0-1-2.18 4 4 0 0 0-2.74-.91 4.17 4.17 0 0 0-2.78 1 5.08 5.08 0 0 0-1.53 2.89l-4-.5a6.63 6.63 0 0 1 2.37-4.72A8.39 8.39 0 0 1 452 106a8.72 8.72 0 0 1 6 2 6 6 0 0 1 2.22 4.58 5 5 0 0 1-.82 2.73 17.54 17.54 0 0 1-3.49 3.51 6.59 6.59 0 0 0-1.71 1.85 6.1 6.1 0 0 0-.33 2.46Zm-4 5.87v-4.36h4.36V129Zm49.74-5.87h-4v-1a6.88 6.88 0 0 1 .64-3.17 9.51 9.51 0 0 1 2.54-2.79 19.31 19.31 0 0 0 2.29-2 2.75 2.75 0 0 0 .57-1.68 2.82 2.82 0 0 0-1-2.18 4 4 0 0 0-2.74-.91 4.18 4.18 0 0 0-2.78 1 5.08 5.08 0 0 0-1.53 2.89l-4-.5a6.63 6.63 0 0 1 2.37-4.72 8.41 8.41 0 0 1 5.77-1.94 8.71 8.71 0 0 1 6 2 6 6 0 0 1 2.22 4.58 5 5 0 0 1-.82 2.73 17.54 17.54 0 0 1-3.49 3.51 6.59 6.59 0 0 0-1.71 1.85 6.1 6.1 0 0 0-.33 2.33Zm-4 5.87v-4.36H500V129Zm49.74-5.87h-4v-1a6.88 6.88 0 0 1 .64-3.17 9.51 9.51 0 0 1 2.54-2.79 19.31 19.31 0 0 0 2.29-2 2.75 2.75 0 0 0 .57-1.68 2.82 2.82 0 0 0-1-2.18 4 4 0 0 0-2.74-.91 4.18 4.18 0 0 0-2.78 1 5.08 5.08 0 0 0-1.53 2.89l-4-.5a6.63 6.63 0 0 1 2.37-4.72 8.41 8.41 0 0 1 5.77-1.94 8.71 8.71 0 0 1 6 2 6 6 0 0 1 2.22 4.58 5 5 0 0 1-.82 2.73 17.7 17.7 0 0 1-3.48 3.51 6.51 6.51 0 0 0-1.72 1.85 6.28 6.28 0 0 0-.33 2.33Zm-4 5.87v-4.36h4.36V129Zm101.03-5.87h-4v-1a6.88 6.88 0 0 1 .64-3.17 9.51 9.51 0 0 1 2.54-2.79 19.31 19.31 0 0 0 2.29-2 2.75 2.75 0 0 0 .57-1.68 2.82 2.82 0 0 0-1-2.18 4 4 0 0 0-2.74-.91 4.17 4.17 0 0 0-2.78 1 5 5 0 0 0-1.53 2.89l-4-.5a6.63 6.63 0 0 1 2.37-4.72 8.39 8.39 0 0 1 5.77-1.94 8.68 8.68 0 0 1 6 2 6 6 0 0 1 2.23 4.58 5.06 5.06 0 0 1-.82 2.73 17.83 17.83 0 0 1-3.49 3.51 6.59 6.59 0 0 0-1.71 1.85 6.06 6.06 0 0 0-.34 2.33Zm-4 5.87v-4.36h4.37V129Zm49.74-5.87h-4v-1a6.88 6.88 0 0 1 .64-3.17 9.51 9.51 0 0 1 2.54-2.79 19.31 19.31 0 0 0 2.29-2 2.75 2.75 0 0 0 .57-1.68 2.82 2.82 0 0 0-1-2.18 4 4 0 0 0-2.74-.91 4.17 4.17 0 0 0-2.78 1 5 5 0 0 0-1.53 2.89l-4-.5a6.63 6.63 0 0 1 2.37-4.72 8.39 8.39 0 0 1 5.77-1.94 8.72 8.72 0 0 1 6 2 6 6 0 0 1 2.22 4.58 5.06 5.06 0 0 1-.82 2.73 17.83 17.83 0 0 1-3.49 3.51 6.59 6.59 0 0 0-1.71 1.85 6.24 6.24 0 0 0-.33 2.33Zm-4 5.87v-4.36h4.36V129Zm49.75-5.87h-4v-1a6.88 6.88 0 0 1 .64-3.17 9.51 9.51 0 0 1 2.54-2.79 19.31 19.31 0 0 0 2.29-2 2.75 2.75 0 0 0 .57-1.68 2.82 2.82 0 0 0-1-2.18 4 4 0 0 0-2.74-.91 4.17 4.17 0 0 0-2.78 1 5 5 0 0 0-1.53 2.89l-4-.5a6.63 6.63 0 0 1 2.37-4.72A8.41 8.41 0 0 1 732 106a8.72 8.72 0 0 1 6 2 6 6 0 0 1 2.22 4.58 5 5 0 0 1-.82 2.73 17.54 17.54 0 0 1-3.49 3.51 6.59 6.59 0 0 0-1.71 1.85 6.1 6.1 0 0 0-.33 2.46Zm-4 5.87v-4.36h4.36V129Zm49.74-5.87h-4v-1a6.88 6.88 0 0 1 .64-3.17 9.51 9.51 0 0 1 2.54-2.79 19.31 19.31 0 0 0 2.29-2 2.75 2.75 0 0 0 .57-1.68 2.82 2.82 0 0 0-1-2.18 4 4 0 0 0-2.74-.91 4.18 4.18 0 0 0-2.78 1 5.08 5.08 0 0 0-1.53 2.89l-4-.5a6.63 6.63 0 0 1 2.37-4.72 8.41 8.41 0 0 1 5.77-1.94 8.71 8.71 0 0 1 6 2 6 6 0 0 1 2.22 4.58 5 5 0 0 1-.82 2.73 17.54 17.54 0 0 1-3.49 3.51 6.59 6.59 0 0 0-1.71 1.85 6.1 6.1 0 0 0-.33 2.33Zm-4 5.87v-4.36H780V129Zm49.74-5.87h-4v-1a6.88 6.88 0 0 1 .64-3.17 9.51 9.51 0 0 1 2.54-2.79 19.31 19.31 0 0 0 2.29-2 2.75 2.75 0 0 0 .57-1.68 2.82 2.82 0 0 0-1-2.18 4 4 0 0 0-2.74-.91 4.18 4.18 0 0 0-2.78 1 5.08 5.08 0 0 0-1.53 2.89l-4-.5a6.63 6.63 0 0 1 2.37-4.72 8.41 8.41 0 0 1 5.77-1.94 8.71 8.71 0 0 1 6 2 6 6 0 0 1 2.22 4.58 5 5 0 0 1-.82 2.73 17.7 17.7 0 0 1-3.48 3.51 6.51 6.51 0 0 0-1.72 1.85 6.28 6.28 0 0 0-.33 2.33Zm-4 5.87v-4.36h4.36V129ZM449.29 467.15h-11.36c0-1.63-.05-2.62-.05-3a19.87 19.87 0 0 1 1.83-9.09q1.83-3.57 7.31-8a54.72 54.72 0 0 0 6.55-5.84 7.81 7.81 0 0 0 1.65-4.81 8.11 8.11 0 0 0-2.92-6.27 11.42 11.42 0 0 0-7.87-2.6 11.86 11.86 0 0 0-8 2.72q-3.21 2.72-4.41 8.28l-11.5-1.42a19.06 19.06 0 0 1 6.79-13.55q6.35-5.57 16.59-5.57 10.78 0 17.16 5.64t6.37 13.12a14.41 14.41 0 0 1-2.34 7.84q-2.34 3.7-10 10.08c-2.64 2.2-4.28 4-4.92 5.3s-.94 3.73-.88 7.17ZM437.93 484v-12.52h12.52V484Z" style="fill:#f9c7e4"/></svg>