<svg id="abd65a73-4cb1-4fcf-9ed3-61b63bba0fc7" data-name="Layer 1" xmlns="http://www.w3.org/2000/svg" viewBox="0 0 900 900"><title>multiple-developers-multiple-packages-used-by-multiple-developers</title><rect width="900" height="900" style="fill:#07448e"/><text transform="translate(52 722.31)" style="font-size:51px;fill:#f9c7e4;font-family:DINCondensed-Bold, DIN Condensed;font-weight:700">MU<tspan x="50.08" y="0" style="letter-spacing:-0.0730124080882353em">L</tspan><tspan x="65.23" y="0">TIPLE DEVS, MERGING IN</tspan><tspan x="449.56" y="0" style="letter-spacing:-0.011010263480392158em">T</tspan><tspan x="465.93" y="0">O 1 PKG, USED BY 1 </tspan></text><text transform="translate(52 783.51)" style="font-size:51px;fill:#f9c7e4;font-family:DINCondensed-Bold, DIN Condensed;font-weight:700">DEV <tspan x="70.84" y="0" style="letter-spacing:-0.010991115196078432em">W</tspan><tspan x="100.52" y="0">ORKING ON 1 PKG WHICH IS BEING MERGED </tspan></text><text transform="translate(52 844.71)" style="font-size:51px;fill:#f9c7e4;font-family:DINCondensed-Bold, DIN Condensed;font-weight:700">IN<tspan x="33.05" y="0" style="letter-spacing:-0.011010263480392158em">T</tspan><tspan x="49.42" y="0">O BY MU</tspan><tspan x="181.71" y="0" style="letter-spacing:-0.0730124080882353em">L</tspan><tspan x="196.86" y="0" style="letter-spacing:-0.00001914828431372549em">TIPLE OHTHER DEVS ...[</tspan><tspan x="555.68" y="0" style="letter-spacing:-0.011010263480392158em">T</tspan><tspan x="572.05" y="0">O INFINITY]</tspan></text><rect x="52" y="634" width="815" height="13" style="fill:#f9c7e4"/><path d="M453.8,597.89h-.18a8.25,8.25,0,0,0-.88-.57q-20.91-10.08-41.85-20.13a1.35,1.35,0,0,1-.89-1.42q0-24.21,0-48.42a1.3,1.3,0,0,1,.89-1.4q18.84-8.58,37.65-17.2c2.43-1.11,4.83-2.27,7.25-3.4h.36c.28.16.56.34.85.47q21.53,9.88,43.05,19.75A1.31,1.31,0,0,1,501,527q0,24.16,0,48.33a1.31,1.31,0,0,1-.92,1.4q-19.08,8.68-38.16,17.42C459.18,595.35,456.49,596.63,453.8,597.89Zm-39.74-69.66c0,.34-.05.57-.05.8q0,22.31,0,44.62a1,1,0,0,0,.68,1.09l39,18.52c.23.11.47.18.75.29,0-.3,0-.48,0-.66q0-22.71,0-45.43a1.2,1.2,0,0,0-.89-1.24L414.94,528.6C414.68,528.48,414.4,528.38,414.06,528.23ZM458.48,592c.32-.14.49-.2.65-.28q18.58-8.79,37.2-17.57c.6-.28.63-.67.63-1.21V527.69c-.41.18-.71.31-1,.45-3.49,1.7-7,3.42-10.46,5.1a1.17,1.17,0,0,0-.78,1.22c0,6.69,0,13.38,0,20.07a1.15,1.15,0,0,1-.7,1.18c-3.52,1.91-7,3.84-10.53,5.76-.23.13-.47.22-.89.42V539.72c-.45.2-.72.31-1,.44-4.11,2-8.2,4-12.32,6a1.3,1.3,0,0,0-.85,1.36q0,20.6,0,41.2Zm-40-65.67a2.38,2.38,0,0,0,.32.23l36.65,16.55a1.09,1.09,0,0,0,.83,0c4.27-2,8.52-4.05,12.81-6.11a2.38,2.38,0,0,0-.33-.25q-17.7-8.33-35.42-16.63a1.14,1.14,0,0,0-.83,0C427.9,522.21,423.26,524.27,418.52,526.37Zm73.69-.33c-.32-.17-.55-.31-.78-.42q-17.39-7.93-34.79-15.85a1.82,1.82,0,0,0-1.32,0c-3.06,1.35-6.08,2.75-9.11,4.14-.22.1-.42.24-.66.38a1.41,1.41,0,0,1,.14.1q18.24,8,36.47,16.06a1,1,0,0,0,.75,0C486,529,489,527.56,492.21,526Z" style="fill:#f7eec9"/><line x1="236.5" y1="329.5" x2="390.99" y2="428.48" style="fill:none;stroke:#f9c7e4;stroke-miterlimit:10;stroke-width:13px"/><polygon points="357.3 433.07 387.75 426.41 381.08 395.96 396.83 406.05 403.5 436.5 373.05 443.17 357.3 433.07" style="fill:#f9c7e4"/><rect x="170" y="320" width="567" height="31" style="fill:#07448e"/><rect x="164.16" y="62.9" width="5.5" height="121.91" transform="translate(-37.41 161.96) rotate(-47.14)" style="fill:#f9c7e4"/><polygon points="197.22 164.7 210.41 164.21 209.91 151.02 215.71 156.41 216.21 169.6 203.02 170.09 197.22 164.7" style="fill:#f9c7e4"/><rect x="201.12" y="121.94" width="79.09" height="5.5" transform="translate(115.42 365.07) rotate(-89.87)" style="fill:#f9c7e4"/><polygon points="231.27 153.25 240.58 162.61 249.93 153.3 249.91 161.22 240.56 170.53 231.25 161.18 231.27 153.25" style="fill:#f9c7e4"/><rect x="251.67" y="122.36" width="124.57" height="5.5" transform="translate(-0.35 249.33) rotate(-43.29)" style="fill:#f9c7e4"/><polygon points="270.2 153.52 269.8 166.71 282.99 167.1 277.23 172.53 264.04 172.14 264.43 158.95 270.2 153.52" style="fill:#f9c7e4"/><rect x="81.81" y="80.07" width="300.54" height="10.16" style="fill:#07448e"/><path d="M132.11,227.68H132a3.42,3.42,0,0,0-.4-.26q-9.6-4.63-19.21-9.24a.62.62,0,0,1-.41-.66q0-11.1,0-22.22a.59.59,0,0,1,.41-.64l17.28-7.9c1.12-.51,2.22-1,3.33-1.56h.16l.4.22q9.87,4.53,19.76,9.06a.6.6,0,0,1,.42.64q0,11.1,0,22.19a.6.6,0,0,1-.43.64l-17.51,8Zm-18.25-32c0,.16,0,.26,0,.37q0,10.25,0,20.48a.49.49,0,0,0,.32.51q9,4.23,17.91,8.5l.35.13c0-.14,0-.22,0-.3q0-10.44,0-20.86A.55.55,0,0,0,132,204l-17.74-8.09ZM134.25,225l.3-.12q8.53-4,17.08-8.07c.28-.13.29-.31.29-.55v-20.8l-.46.21c-1.6.78-3.19,1.57-4.8,2.34a.52.52,0,0,0-.35.56c0,3.07,0,6.14,0,9.21a.53.53,0,0,1-.32.55c-1.62.87-3.23,1.76-4.84,2.64a4.46,4.46,0,0,1-.41.19V201l-.45.2c-1.88.92-3.76,1.86-5.65,2.77a.58.58,0,0,0-.39.62q0,9.47,0,18.92Zm-18.34-30.14.15.1,16.82,7.6a.5.5,0,0,0,.38,0c2-.92,3.91-1.86,5.89-2.8l-.16-.12L122.73,192a.5.5,0,0,0-.38,0Zm33.83-.15a3.28,3.28,0,0,0-.36-.19c-5.32-2.43-10.64-4.87-16-7.28a.81.81,0,0,0-.61,0c-1.4.62-2.79,1.26-4.18,1.9l-.3.17.07,0q8.36,3.69,16.74,7.37a.4.4,0,0,0,.34,0C146.88,196.07,148.28,195.4,149.74,194.7Z" style="fill:#f7eec9"/><path d="M185.67,227.68h-.09a3.42,3.42,0,0,0-.4-.26q-9.6-4.63-19.21-9.24a.62.62,0,0,1-.41-.66q0-11.1,0-22.22a.59.59,0,0,1,.41-.64l17.28-7.9c1.12-.51,2.22-1,3.33-1.56h.17l.39.22Q197,190,206.9,194.48a.6.6,0,0,1,.42.64q0,11.1,0,22.19a.6.6,0,0,1-.43.64l-17.51,8Zm-18.24-32a2.86,2.86,0,0,0,0,.37q0,10.25,0,20.48a.49.49,0,0,0,.32.51q9,4.23,17.91,8.5l.35.13c0-.14,0-.22,0-.3q0-10.44,0-20.86a.55.55,0,0,0-.41-.57l-17.74-8.09ZM187.81,225l.3-.12q8.53-4,17.08-8.07c.28-.13.29-.31.29-.55v-20.8l-.46.21c-1.6.78-3.19,1.57-4.8,2.34a.53.53,0,0,0-.35.56c0,3.07,0,6.14,0,9.21a.53.53,0,0,1-.32.55c-1.62.87-3.23,1.76-4.84,2.64a4.46,4.46,0,0,1-.41.19V201l-.45.2c-1.88.92-3.76,1.86-5.65,2.77a.58.58,0,0,0-.39.62q0,9.47,0,18.92Zm-18.34-30.14.15.1,16.82,7.6a.53.53,0,0,0,.39,0l5.88-2.8-.16-.12L176.29,192a.5.5,0,0,0-.38,0Zm33.83-.15a3.28,3.28,0,0,0-.36-.19c-5.32-2.43-10.64-4.87-16-7.28a.81.81,0,0,0-.61,0c-1.4.62-2.79,1.26-4.18,1.9l-.3.17.07,0q8.37,3.69,16.74,7.37a.41.41,0,0,0,.34,0C200.44,196.07,201.84,195.4,203.3,194.7Z" style="fill:#f7eec9"/><path d="M239.23,227.68h-.09a3.42,3.42,0,0,0-.4-.26q-9.6-4.63-19.21-9.24a.62.62,0,0,1-.41-.66q0-11.1,0-22.22a.59.59,0,0,1,.41-.64l17.28-7.9c1.12-.51,2.22-1,3.33-1.56h.17l.39.22q9.87,4.53,19.76,9.06a.6.6,0,0,1,.42.64q0,11.1,0,22.19a.61.61,0,0,1-.42.64q-8.77,4-17.52,8ZM221,195.7c0,.16,0,.26,0,.37q0,10.25,0,20.48a.49.49,0,0,0,.32.51q9,4.23,17.91,8.5l.35.13c0-.14,0-.22,0-.3q0-10.44,0-20.86a.55.55,0,0,0-.41-.57l-17.74-8.09ZM241.38,225l.29-.12q8.54-4,17.08-8.07c.28-.13.29-.31.29-.55v-20.8l-.46.21c-1.6.78-3.19,1.57-4.8,2.34a.53.53,0,0,0-.35.56c0,3.07,0,6.14,0,9.21a.53.53,0,0,1-.32.55c-1.62.87-3.23,1.76-4.84,2.64-.1.06-.21.1-.4.19V201l-.46.2c-1.88.92-3.76,1.86-5.65,2.77a.58.58,0,0,0-.39.62q0,9.47,0,18.92ZM223,194.85l.15.1,16.82,7.6a.53.53,0,0,0,.39,0l5.88-2.8-.16-.12L229.85,192a.5.5,0,0,0-.38,0Zm33.83-.15a3.28,3.28,0,0,0-.36-.19c-5.32-2.43-10.64-4.87-16-7.28a.81.81,0,0,0-.61,0c-1.4.62-2.79,1.26-4.18,1.9l-.3.17.07,0,16.74,7.37a.41.41,0,0,0,.34,0C254,196.07,255.4,195.4,256.86,194.7Z" style="fill:#f7eec9"/><path d="M292.79,227.68h-.08a3.54,3.54,0,0,0-.41-.26q-9.6-4.63-19.21-9.24a.62.62,0,0,1-.41-.66q0-11.1,0-22.22a.59.59,0,0,1,.41-.64q8.66-3.94,17.28-7.9c1.12-.51,2.22-1,3.33-1.56h.17l.39.22q9.89,4.53,19.76,9.06a.6.6,0,0,1,.42.64q0,11.1,0,22.19a.61.61,0,0,1-.42.64q-8.77,4-17.52,8Zm-18.24-32c0,.16,0,.26,0,.37q0,10.25,0,20.48a.49.49,0,0,0,.32.51q9,4.23,17.91,8.5l.35.13c0-.14,0-.22,0-.3q0-10.44,0-20.86a.55.55,0,0,0-.41-.57L275,195.87ZM294.94,225l.29-.12q8.55-4,17.08-8.07c.28-.13.29-.31.29-.55v-20.8l-.46.21c-1.6.78-3.19,1.57-4.8,2.34a.55.55,0,0,0-.35.56c0,3.07,0,6.14,0,9.21a.53.53,0,0,1-.32.55c-1.62.87-3.22,1.76-4.84,2.64-.1.06-.21.1-.4.19V201l-.45.2c-1.89.92-3.77,1.86-5.66,2.77a.58.58,0,0,0-.39.62q0,9.47,0,18.92Zm-18.35-30.14.15.1,16.82,7.6a.53.53,0,0,0,.39,0l5.88-2.8-.16-.12q-8.12-3.83-16.26-7.63a.5.5,0,0,0-.38,0Zm33.83-.15a3.28,3.28,0,0,0-.36-.19c-5.32-2.43-10.64-4.87-16-7.28a.81.81,0,0,0-.61,0c-1.4.62-2.79,1.26-4.18,1.9l-.3.17.07,0,16.74,7.37a.41.41,0,0,0,.34,0C307.56,196.07,309,195.4,310.42,194.7Z" style="fill:#f7eec9"/><path d="M346.35,227.68h-.08a3.54,3.54,0,0,0-.41-.26q-9.6-4.63-19.21-9.24a.62.62,0,0,1-.41-.66q0-11.1,0-22.22a.59.59,0,0,1,.41-.64l17.29-7.9c1.11-.51,2.21-1,3.32-1.56h.17l.39.22q9.89,4.53,19.76,9.06a.6.6,0,0,1,.42.64q0,11.1,0,22.19a.6.6,0,0,1-.42.64l-17.52,8Zm-18.24-32c0,.16,0,.26,0,.37v20.48a.48.48,0,0,0,.31.51q9,4.23,17.92,8.5c.1.05.21.08.34.13,0-.14,0-.22,0-.3q0-10.44,0-20.86a.55.55,0,0,0-.41-.57l-17.74-8.09ZM348.5,225l.29-.12,17.08-8.07c.28-.13.29-.31.29-.55v-20.8l-.45.21c-1.6.78-3.2,1.57-4.81,2.34a.55.55,0,0,0-.35.56c0,3.07,0,6.14,0,9.21a.53.53,0,0,1-.32.55c-1.62.87-3.22,1.76-4.84,2.64-.1.06-.21.1-.4.19V201l-.45.2c-1.89.92-3.77,1.86-5.66,2.77a.59.59,0,0,0-.39.62q0,9.47,0,18.92Zm-18.35-30.14.15.1,16.82,7.6a.53.53,0,0,0,.39,0l5.88-2.8-.15-.12L337,192a.5.5,0,0,0-.38,0ZM364,194.7a3.28,3.28,0,0,0-.36-.19c-5.32-2.43-10.64-4.87-16-7.28a.78.78,0,0,0-.6,0c-1.41.62-2.8,1.26-4.19,1.9l-.3.17.07,0,16.74,7.37a.41.41,0,0,0,.34,0C361.12,196.07,362.53,195.4,364,194.7Z" style="fill:#f7eec9"/><path d="M263,331H209.82c.23-5.08,4.6-10.51,9.47-11.66a2.5,2.5,0,0,0,2-2.29,62.18,62.18,0,0,0,.69-8.39c0-3.26-.57-6.52-.57-9.78a20.69,20.69,0,0,1,2.13-9.24c2.41-4.89,6.31-7.42,11.83-7.29a34.05,34.05,0,0,1,4.17.12,11.76,11.76,0,0,1,9.49,7.26A26.79,26.79,0,0,1,250.81,305a30.38,30.38,0,0,0,.05,10.84,9.43,9.43,0,0,0,.93,2.5,2,2,0,0,0,1.21.9,10.53,10.53,0,0,1,7.6,6.07C261.51,327.08,262.16,329,263,331Zm-15.28-30.32c-.93,1.77-2,.94-3.05.38-4.13-2.15-8.28-4.27-12.43-6.4-1.72-.89-3.41-.75-4.57.8a23.89,23.89,0,0,0-2.11,4.27c-.16.35-.2.84-.46,1-1.47,1.16-1.18,4.67.46,5.62a2.19,2.19,0,0,1,.89,1,18.23,18.23,0,0,0,4.27,6.46c3.5,3.27,7.52,3.3,11.05.07a17.65,17.65,0,0,0,4.28-6.45,2.1,2.1,0,0,1,.59-1A4.15,4.15,0,0,0,247.72,300.68Zm-21.19,18.1c.74,2.39,5.53,4.92,9.69,4.92s8.91-2.51,9.71-5l-2.74-3c-4.32,3.72-8.71,4.41-13.84,0Z" style="fill:#f7eec9"/><path d="M131.93,83H112.81a4.87,4.87,0,0,1,3.4-4.19.9.9,0,0,0,.71-.83,23.5,23.5,0,0,0,.25-3c0-1.18-.21-2.35-.21-3.52a7.39,7.39,0,0,1,.77-3.32A4.3,4.3,0,0,1,122,65.51a12.47,12.47,0,0,1,1.5,0,4.23,4.23,0,0,1,3.41,2.61,9.64,9.64,0,0,1,.66,5.49,10.88,10.88,0,0,0,0,3.9,3.25,3.25,0,0,0,.33.9.72.72,0,0,0,.44.32A3.8,3.8,0,0,1,131.07,81C131.4,81.59,131.63,82.27,131.93,83Zm-5.49-10.9c-.33.64-.71.34-1.1.13l-4.47-2.3a1.21,1.21,0,0,0-1.64.29,8.82,8.82,0,0,0-.76,1.54c-.06.12-.07.3-.16.37a1.44,1.44,0,0,0,.16,2,.81.81,0,0,1,.32.34,6.63,6.63,0,0,0,1.54,2.33,2.69,2.69,0,0,0,4,0,6.29,6.29,0,0,0,1.54-2.32.82.82,0,0,1,.21-.35A1.49,1.49,0,0,0,126.44,72.1Zm-7.62,6.5c.27.87,2,1.78,3.48,1.78s3.21-.91,3.5-1.79l-1-1.08c-1.55,1.34-3.13,1.58-5,0Z" style="fill:#f7eec9"/><path d="M368.89,83H349.77a4.84,4.84,0,0,1,3.4-4.19.9.9,0,0,0,.7-.83,21.82,21.82,0,0,0,.25-3c0-1.18-.2-2.35-.2-3.52a7.38,7.38,0,0,1,.76-3.32,4.32,4.32,0,0,1,4.26-2.62,12.3,12.3,0,0,1,1.49,0,4.26,4.26,0,0,1,3.42,2.61,9.64,9.64,0,0,1,.66,5.49,10.88,10.88,0,0,0,0,3.9,3.63,3.63,0,0,0,.34.9.73.73,0,0,0,.43.32A3.83,3.83,0,0,1,368,81C368.35,81.59,368.59,82.27,368.89,83Zm-5.5-10.9c-.33.64-.7.34-1.09.13l-4.47-2.3a1.21,1.21,0,0,0-1.64.29,8.17,8.17,0,0,0-.76,1.54c-.06.12-.07.3-.17.37a1.44,1.44,0,0,0,.17,2,.81.81,0,0,1,.32.34,6.6,6.6,0,0,0,1.53,2.33,2.69,2.69,0,0,0,4,0,6.17,6.17,0,0,0,1.54-2.32c.06-.12.11-.28.22-.35A1.49,1.49,0,0,0,363.39,72.1Zm-7.62,6.5c.27.87,2,1.78,3.49,1.78s3.2-.91,3.49-1.79l-1-1.08a3.38,3.38,0,0,1-5,0Z" style="fill:#f7eec9"/><path d="M250.41,83H231.29a4.84,4.84,0,0,1,3.4-4.19.9.9,0,0,0,.71-.83,21.8,21.8,0,0,0,.24-3c0-1.18-.2-2.35-.2-3.52a7.51,7.51,0,0,1,.76-3.32,4.32,4.32,0,0,1,4.26-2.62,12.52,12.52,0,0,1,1.5,0,4.26,4.26,0,0,1,3.41,2.61,9.64,9.64,0,0,1,.66,5.49,11.11,11.11,0,0,0,0,3.9,3.63,3.63,0,0,0,.34.9.72.72,0,0,0,.44.32A3.81,3.81,0,0,1,249.55,81C249.87,81.59,250.11,82.27,250.41,83Zm-5.49-10.9c-.34.64-.71.34-1.1.13l-4.47-2.3a1.21,1.21,0,0,0-1.64.29,8.17,8.17,0,0,0-.76,1.54c-.06.12-.07.3-.17.37a1.44,1.44,0,0,0,.17,2,.81.81,0,0,1,.32.34,6.74,6.74,0,0,0,1.53,2.33,2.7,2.7,0,0,0,4,0,6.29,6.29,0,0,0,1.54-2.32.73.73,0,0,1,.21-.35A1.5,1.5,0,0,0,244.92,72.1Zm-7.62,6.5c.26.87,2,1.78,3.48,1.78s3.21-.91,3.49-1.79l-1-1.08a3.38,3.38,0,0,1-5,0Z" style="fill:#f7eec9"/><path d="M79.4,40.26h0l-.14-.09-7.08-3.41a.22.22,0,0,1-.15-.24V28.34a.23.23,0,0,1,.15-.24l6.37-2.9,1.22-.58h.06l.15.08L87.22,28a.21.21,0,0,1,.16.23c0,2.73,0,5.45,0,8.18a.23.23,0,0,1-.16.23l-6.45,3C80.31,39.83,79.86,40.05,79.4,40.26ZM72.69,28.49v.13c0,2.52,0,5,0,7.55a.17.17,0,0,0,.12.18l6.6,3.13.12.05V31.74a.21.21,0,0,0-.15-.21l-6.54-3Zm7.5,10.78.11,0,6.29-3a.19.19,0,0,0,.11-.21V28.4l-.17.07-1.77.86a.21.21,0,0,0-.13.21c0,1.13,0,2.26,0,3.39a.19.19,0,0,1-.12.2l-1.78,1-.15.07V30.43l-.17.07c-.69.34-1.38.69-2.08,1a.22.22,0,0,0-.14.23q0,3.49,0,7Zm-6.75-11.1,0,0,6.2,2.8h.14L82,30l-.06,0-6-2.81h-.14Zm12.46-.05-.14-.07q-2.92-1.35-5.88-2.68h-.22l-1.54.7-.11.06,0,0,6.17,2.71h.12Z" style="fill:#f7eec9"/><path d="M99.13,40.26h0L99,40.17l-7.08-3.41a.22.22,0,0,1-.15-.24q0-4.08,0-8.18a.23.23,0,0,1,.15-.24l6.37-2.9,1.22-.58h.06l.15.08L107,28a.22.22,0,0,1,.15.23v8.18a.23.23,0,0,1-.16.23l-6.45,3ZM92.41,28.49v7.68a.17.17,0,0,0,.11.18l6.6,3.13.13.05V31.74a.2.2,0,0,0-.15-.21l-6.53-3Zm7.51,10.78.11,0c2.09-1,4.19-2,6.29-3,.1,0,.1-.12.1-.21V28.4l-.16.07-1.77.86a.2.2,0,0,0-.13.21v3.39a.19.19,0,0,1-.12.2l-1.78,1-.15.07V30.43l-.16.07c-.7.34-1.39.69-2.09,1a.23.23,0,0,0-.14.23v7.52Zm-6.76-11.1.06,0L99.41,31h.14l2.17-1-.06,0-6-2.81h-.14Zm12.46-.05-.13-.07-5.88-2.68h-.23l-1.54.7-.11.06,0,0,6.16,2.71h.13Z" style="fill:#f7eec9"/><path d="M118.85,40.26h0l-.15-.09-7.07-3.41a.21.21,0,0,1-.15-.24V28.34a.22.22,0,0,1,.15-.24L118,25.2l1.23-.58h.06l.14.08L126.67,28a.22.22,0,0,1,.15.23v8.18a.22.22,0,0,1-.15.23l-6.45,3C119.76,39.83,119.31,40.05,118.85,40.26Zm-6.72-11.77v7.68a.17.17,0,0,0,.12.18l6.6,3.13.12.05v-.11c0-2.56,0-5.12,0-7.68a.21.21,0,0,0-.15-.21l-6.54-3Zm7.51,10.78.11,0c2.1-1,4.19-2,6.29-3a.19.19,0,0,0,.11-.21V28.4l-.17.07-1.77.86a.21.21,0,0,0-.13.21c0,1.13,0,2.26,0,3.39a.2.2,0,0,1-.12.2l-1.78,1-.15.07V30.43l-.17.07-2.08,1a.22.22,0,0,0-.14.23c0,2.33,0,4.65,0,7Zm-6.75-11.1,0,0,6.2,2.8h.14l2.16-1,0,0-6-2.81h-.14Zm12.46-.05-.14-.07-5.88-2.68h-.22l-1.54.7-.11.06,0,0,6.17,2.71h.12Z" style="fill:#f7eec9"/><path d="M138.58,40.26h0l-.14-.09-7.08-3.41a.22.22,0,0,1-.15-.24V28.34a.23.23,0,0,1,.15-.24l6.37-2.9,1.22-.58H139l.15.08L146.39,28a.21.21,0,0,1,.16.23c0,2.73,0,5.45,0,8.18a.23.23,0,0,1-.16.23l-6.45,3C139.48,39.83,139,40.05,138.58,40.26Zm-6.72-11.77v7.68a.17.17,0,0,0,.11.18l6.6,3.13.13.05V31.74a.2.2,0,0,0-.15-.21l-6.53-3Zm7.51,10.78.11,0,6.28-3c.11,0,.11-.12.11-.21V28.4l-.17.07-1.76.86a.2.2,0,0,0-.14.21c0,1.13,0,2.26,0,3.39a.19.19,0,0,1-.12.2l-1.78,1-.15.07V30.43l-.17.07c-.69.34-1.38.69-2.08,1a.23.23,0,0,0-.14.23v7.52Zm-6.76-11.1.06,0,6.19,2.8H139l2.17-1-.06,0-6-2.81H135Zm12.46-.05-.13-.07-5.88-2.68h-.23l-1.54.7-.11.06,0,0,6.16,2.71h.13Z" style="fill:#f7eec9"/><path d="M158.3,40.26h0l-.15-.09-7.07-3.41a.21.21,0,0,1-.15-.24V28.34a.22.22,0,0,1,.15-.24l6.36-2.9,1.22-.58h.07l.14.08L166.12,28a.22.22,0,0,1,.15.23v8.18a.22.22,0,0,1-.15.23q-3.24,1.47-6.45,3C159.21,39.83,158.75,40.05,158.3,40.26Zm-6.72-11.77v7.68a.17.17,0,0,0,.12.18l6.59,3.13.13.05V31.74a.2.2,0,0,0-.15-.21l-6.53-3Zm7.51,10.78.11,0c2.1-1,4.19-2,6.29-3a.19.19,0,0,0,.11-.21q0-3.63,0-7.27V28.4l-.16.07-1.77.86a.2.2,0,0,0-.13.21v3.39a.19.19,0,0,1-.12.2l-1.78,1-.15.07V30.43l-.16.07-2.08,1a.22.22,0,0,0-.15.23c0,2.33,0,4.65,0,7Zm-6.75-11.1,0,0,6.19,2.8h.15l2.16-1-.06,0-6-2.81h-.14Zm12.45-.05-.13-.07-5.88-2.68h-.22l-1.54.7-.12.06,0,0,6.16,2.71h.13Z" style="fill:#f7eec9"/><path d="M322.09,40.26h0l-.14-.09-7.08-3.41a.22.22,0,0,1-.15-.24V28.34a.23.23,0,0,1,.15-.24l6.37-2.9,1.22-.58h.06l.15.08L329.91,28a.21.21,0,0,1,.16.23c0,2.73,0,5.45,0,8.18a.23.23,0,0,1-.16.23l-6.45,3C323,39.83,322.55,40.05,322.09,40.26Zm-6.71-11.77v7.68a.16.16,0,0,0,.11.18l6.6,3.13.13.05V31.74a.2.2,0,0,0-.15-.21l-6.53-3Zm7.51,10.78.11,0,6.28-3c.11,0,.11-.12.11-.21V28.4l-.17.07-1.77.86a.21.21,0,0,0-.13.21c0,1.13,0,2.26,0,3.39a.19.19,0,0,1-.12.2l-1.78,1-.15.07V30.43l-.17.07c-.69.34-1.38.69-2.08,1a.23.23,0,0,0-.14.23v7.52Zm-6.76-11.1.05,0,6.2,2.8h.14l2.17-1-.06,0-6-2.81h-.14Zm12.46-.05-.13-.07-5.88-2.68h-.23l-1.54.7-.11.06,0,0,6.17,2.71H327Z" style="fill:#f7eec9"/><path d="M341.82,40.26h0l-.15-.09-7.08-3.41a.22.22,0,0,1-.15-.24q0-4.08,0-8.18a.23.23,0,0,1,.15-.24l6.37-2.9,1.22-.58h.07l.14.08L349.64,28a.22.22,0,0,1,.15.23v8.18a.22.22,0,0,1-.15.23l-6.46,3ZM335.1,28.49v7.68a.17.17,0,0,0,.11.18l6.6,3.13.13.05V31.74a.2.2,0,0,0-.15-.21l-6.53-3Zm7.51,10.78.11,0c2.09-1,4.19-2,6.29-3,.1,0,.1-.12.1-.21V28.4l-.16.07-1.77.86a.2.2,0,0,0-.13.21v3.39a.19.19,0,0,1-.12.2l-1.78,1-.15.07V30.43l-.16.07c-.7.34-1.39.69-2.09,1a.23.23,0,0,0-.14.23v7.52Zm-6.76-11.1.06,0L342.1,31h.15l2.16-1-.06,0-6-2.81h-.14Zm12.46-.05-.13-.07-5.88-2.68h-.23l-1.54.7-.11.06,0,0,6.16,2.71h.13Z" style="fill:#f7eec9"/><path d="M361.54,40.26h0l-.15-.09-7.07-3.41a.21.21,0,0,1-.15-.24V28.34a.22.22,0,0,1,.15-.24l6.36-2.9,1.23-.58h.06l.14.08L369.36,28a.22.22,0,0,1,.15.23c0,2.73,0,5.45,0,8.18a.23.23,0,0,1-.16.23l-6.45,3C362.45,39.83,362,40.05,361.54,40.26Zm-6.72-11.77v.13c0,2.52,0,5,0,7.55a.17.17,0,0,0,.12.18l6.6,3.13.12.05v-.11c0-2.56,0-5.12,0-7.68a.21.21,0,0,0-.15-.21l-6.54-3Zm7.51,10.78.11,0c2.1-1,4.19-2,6.29-3a.19.19,0,0,0,.11-.21V28.4l-.17.07-1.77.86a.21.21,0,0,0-.13.21c0,1.13,0,2.26,0,3.39a.19.19,0,0,1-.12.2l-1.78,1-.15.07V30.43l-.17.07-2.08,1a.22.22,0,0,0-.14.23c0,2.33,0,4.65,0,7Zm-6.75-11.1.05,0,6.2,2.8H362l2.16-1-.05,0-6-2.81H358ZM368,28.12l-.14-.07L362,25.37h-.22l-1.54.7-.11.06,0,0,6.17,2.71h.12Z" style="fill:#f7eec9"/><path d="M381.27,40.26h0l-.15-.09L374,36.76a.22.22,0,0,1-.15-.24q0-4.08,0-8.18a.23.23,0,0,1,.15-.24l6.37-2.9,1.22-.58h.06l.15.08L389.08,28a.21.21,0,0,1,.16.23c0,2.73,0,5.45,0,8.18a.23.23,0,0,1-.16.23l-6.45,3Zm-6.72-11.77v7.68a.17.17,0,0,0,.11.18l6.6,3.13.13.05V31.74a.2.2,0,0,0-.15-.21l-6.53-3Zm7.51,10.78.11,0,6.28-3c.11,0,.11-.12.11-.21V28.4l-.17.07-1.76.86a.2.2,0,0,0-.14.21c0,1.13,0,2.26,0,3.39a.19.19,0,0,1-.12.2l-1.78,1-.15.07V30.43l-.17.07c-.69.34-1.38.69-2.08,1a.23.23,0,0,0-.14.23v7.52Zm-6.76-11.1.06,0,6.19,2.8h.14l2.17-1-.06,0-6-2.81h-.14Zm12.46-.05-.13-.07-5.88-2.68h-.23l-1.54.7-.11.06,0,0,6.16,2.71h.13Z" style="fill:#f7eec9"/><path d="M401,40.26h0l-.15-.09-7.07-3.41a.21.21,0,0,1-.15-.24V28.34a.22.22,0,0,1,.15-.24l6.36-2.9,1.23-.58h.06l.14.08L408.81,28a.22.22,0,0,1,.15.23v8.18a.22.22,0,0,1-.15.23l-6.45,3C401.9,39.83,401.44,40.05,401,40.26Zm-6.72-11.77v7.68a.17.17,0,0,0,.12.18L401,39.48l.13.05V31.74a.2.2,0,0,0-.15-.21l-6.53-3Zm7.51,10.78.11,0c2.1-1,4.19-2,6.29-3a.19.19,0,0,0,.11-.21V28.4l-.17.07-1.77.86a.2.2,0,0,0-.13.21v3.39a.19.19,0,0,1-.12.2l-1.78,1-.15.07V30.43l-.16.07-2.08,1a.22.22,0,0,0-.15.23c0,2.33,0,4.65,0,7ZM395,28.17l.05,0,6.19,2.8h.15l2.16-1-.05,0-6-2.81h-.14Zm12.45-.05-.13-.07-5.88-2.68h-.22l-1.54.7-.11.06,0,0,6.16,2.71h.13Z" style="fill:#f7eec9"/><path d="M200.75,40.26h0l-.15-.09-7.07-3.41a.21.21,0,0,1-.15-.24V28.34a.22.22,0,0,1,.15-.24l6.36-2.9,1.23-.58h.06l.14.08L208.57,28a.22.22,0,0,1,.15.23v8.18a.22.22,0,0,1-.15.23l-6.45,3C201.66,39.83,201.2,40.05,200.75,40.26ZM194,28.49v7.68a.17.17,0,0,0,.12.18l6.59,3.13.13.05V31.74a.2.2,0,0,0-.15-.21l-6.53-3Zm7.51,10.78.11,0c2.1-1,4.19-2,6.29-3a.19.19,0,0,0,.11-.21q0-3.63,0-7.27V28.4l-.16.07-1.77.86a.2.2,0,0,0-.13.21v3.39a.19.19,0,0,1-.12.2l-1.78,1-.15.07V30.43l-.16.07-2.08,1a.22.22,0,0,0-.15.23v7.52Zm-6.75-11.1.05,0L201,31h.15l2.16-1-.05,0-6-2.81h-.14Zm12.45-.05-.13-.07-5.88-2.68H201l-1.54.7-.12.06,0,0,6.16,2.71h.13Z" style="fill:#f7eec9"/><path d="M220.47,40.26h0l-.15-.09-7.07-3.41a.22.22,0,0,1-.15-.24V28.34a.22.22,0,0,1,.15-.24l6.36-2.9,1.23-.58h.06l.15.08L228.29,28a.23.23,0,0,1,.16.23c0,2.73,0,5.45,0,8.18a.23.23,0,0,1-.16.23l-6.45,3C221.38,39.83,220.93,40.05,220.47,40.26Zm-6.71-11.77v.13c0,2.52,0,5,0,7.55a.17.17,0,0,0,.12.18l6.6,3.13.12.05V31.74a.21.21,0,0,0-.15-.21l-6.54-3Zm7.5,10.78.11,0c2.1-1,4.19-2,6.29-3a.19.19,0,0,0,.11-.21V28.4l-.17.07-1.77.86a.21.21,0,0,0-.13.21c0,1.13,0,2.26,0,3.39a.19.19,0,0,1-.12.2l-1.78,1-.15.07V30.43l-.17.07c-.69.34-1.38.69-2.08,1a.22.22,0,0,0-.14.23q0,3.49,0,7Zm-6.75-11.1.05,0,6.2,2.8h.14l2.17-1-.06,0-6-2.81h-.14ZM227,28.12l-.14-.07L221,25.37h-.22l-1.54.7-.11.06,0,0,6.17,2.71h.12Z" style="fill:#f7eec9"/><path d="M240.2,40.26h0l-.15-.09-7.08-3.41a.22.22,0,0,1-.15-.24q0-4.08,0-8.18a.23.23,0,0,1,.15-.24l6.37-2.9,1.22-.58h.06l.15.08L248,28a.22.22,0,0,1,.15.23v8.18a.23.23,0,0,1-.16.23l-6.45,3Zm-6.72-11.77v7.68a.17.17,0,0,0,.11.18l6.6,3.13.13.05V31.74a.2.2,0,0,0-.15-.21l-6.53-3ZM241,39.27l.11,0c2.09-1,4.19-2,6.29-3,.1,0,.1-.12.1-.21V28.4l-.17.07-1.76.86a.2.2,0,0,0-.13.21v3.39a.19.19,0,0,1-.12.2l-1.78,1-.15.07V30.43l-.16.07c-.7.34-1.39.69-2.09,1a.23.23,0,0,0-.14.23v7.52Zm-6.76-11.1.06,0,6.19,2.8h.14l2.17-1-.06,0-6-2.81h-.14Zm12.46-.05-.13-.07-5.88-2.68h-.23l-1.54.7-.11.06,0,0L245,28.86h.13Z" style="fill:#f7eec9"/><path d="M259.92,40.26h0l-.15-.09-7.07-3.41a.21.21,0,0,1-.15-.24V28.34a.22.22,0,0,1,.15-.24L259,25.2l1.23-.58h.06l.14.08L267.74,28a.22.22,0,0,1,.15.23v8.18a.22.22,0,0,1-.15.23l-6.45,3C260.83,39.83,260.38,40.05,259.92,40.26ZM253.2,28.49v7.68a.17.17,0,0,0,.12.18l6.59,3.13.13.05v-.11c0-2.56,0-5.12,0-7.68a.21.21,0,0,0-.15-.21l-6.54-3Zm7.51,10.78.11,0c2.1-1,4.19-2,6.29-3a.19.19,0,0,0,.11-.21V28.4l-.17.07-1.77.86a.21.21,0,0,0-.13.21v3.39a.19.19,0,0,1-.11.2l-1.78,1-.16.07V30.43l-.16.07-2.08,1a.22.22,0,0,0-.15.23c0,2.33,0,4.65,0,7ZM254,28.17l0,0,6.2,2.8h.14l2.16-1-.05,0-6-2.81h-.14Zm12.45-.05-.13-.07-5.88-2.68h-.22l-1.54.7-.11.06,0,0,6.16,2.71h.13Z" style="fill:#f7eec9"/><path d="M279.64,40.26h0l-.14-.09-7.08-3.41a.22.22,0,0,1-.15-.24V28.34a.23.23,0,0,1,.15-.24l6.37-2.9,1.22-.58H280l.15.08L287.46,28a.21.21,0,0,1,.16.23c0,2.73,0,5.45,0,8.18a.23.23,0,0,1-.16.23l-6.45,3C280.55,39.83,280.1,40.05,279.64,40.26Zm-6.71-11.77v7.68a.15.15,0,0,0,.11.18l6.6,3.13.12.05V31.74a.21.21,0,0,0-.15-.21l-6.53-3Zm7.51,10.78.1,0,6.29-3c.11,0,.11-.12.11-.21V28.4l-.17.07c-.59.29-1.17.58-1.77.86a.21.21,0,0,0-.13.21c0,1.13,0,2.26,0,3.39a.19.19,0,0,1-.12.2l-1.78,1-.15.07V30.43l-.17.07c-.69.34-1.38.69-2.08,1a.23.23,0,0,0-.14.23v7.52Zm-6.76-11.1.05,0,6.2,2.8h.14l2.17-1-.06,0-6-2.81h-.14Zm12.46-.05-.14-.07q-2.92-1.35-5.88-2.68h-.22l-1.54.7-.11.06,0,0,6.17,2.71h.12Z" style="fill:#f7eec9"/><path d="M80,53.46H78.25V53a3.07,3.07,0,0,1,.27-1.37,4.35,4.35,0,0,1,1.11-1.21,8.78,8.78,0,0,0,1-.88,1.24,1.24,0,0,0,.25-.73,1.25,1.25,0,0,0-.44-1,1.76,1.76,0,0,0-1.19-.39,1.83,1.83,0,0,0-1.21.41,2.18,2.18,0,0,0-.66,1.25l-1.74-.21a2.89,2.89,0,0,1,1-2.05A3.66,3.66,0,0,1,79.16,46a3.76,3.76,0,0,1,2.59.85,2.59,2.59,0,0,1,1,2,2.23,2.23,0,0,1-.35,1.19,8,8,0,0,1-1.51,1.52,3,3,0,0,0-.75.8A2.8,2.8,0,0,0,80,53.46ZM78.25,56V54.11h1.9V56Z" style="fill:#f9c7e4"/><path d="M99.8,53.46H98.08V53a3.07,3.07,0,0,1,.27-1.37,4.35,4.35,0,0,1,1.11-1.21,8.78,8.78,0,0,0,1-.88,1.24,1.24,0,0,0,.25-.73,1.25,1.25,0,0,0-.44-1,1.74,1.74,0,0,0-1.19-.39,1.85,1.85,0,0,0-1.21.41,2.18,2.18,0,0,0-.66,1.25l-1.74-.21a2.89,2.89,0,0,1,1-2.05A3.66,3.66,0,0,1,99,46a3.76,3.76,0,0,1,2.59.85,2.59,2.59,0,0,1,1,2,2.23,2.23,0,0,1-.35,1.19,8,8,0,0,1-1.51,1.52,3,3,0,0,0-.75.8A2.8,2.8,0,0,0,99.8,53.46ZM98.08,56V54.11H100V56Z" style="fill:#f9c7e4"/><path d="M119.63,53.46h-1.72V53a3.07,3.07,0,0,1,.27-1.37,4.35,4.35,0,0,1,1.11-1.21,8.78,8.78,0,0,0,1-.88,1.24,1.24,0,0,0,.25-.73,1.25,1.25,0,0,0-.44-1,1.74,1.74,0,0,0-1.19-.39,1.85,1.85,0,0,0-1.21.41,2.18,2.18,0,0,0-.66,1.25l-1.74-.21a2.86,2.86,0,0,1,1-2.05,3.62,3.62,0,0,1,2.5-.84,3.76,3.76,0,0,1,2.59.85,2.59,2.59,0,0,1,1,2,2.23,2.23,0,0,1-.35,1.19,8,8,0,0,1-1.51,1.52,3,3,0,0,0-.75.8A2.8,2.8,0,0,0,119.63,53.46ZM117.91,56V54.11h1.9V56Z" style="fill:#f9c7e4"/><path d="M139.46,53.46h-1.71c0-.25,0-.4,0-.46a3.07,3.07,0,0,1,.27-1.37,4.35,4.35,0,0,1,1.11-1.21,8.78,8.78,0,0,0,1-.88,1.24,1.24,0,0,0,.25-.73,1.25,1.25,0,0,0-.44-1,1.74,1.74,0,0,0-1.19-.39,1.85,1.85,0,0,0-1.21.41,2.18,2.18,0,0,0-.66,1.25l-1.74-.21a2.86,2.86,0,0,1,1-2.05,3.62,3.62,0,0,1,2.5-.84,3.76,3.76,0,0,1,2.59.85,2.59,2.59,0,0,1,1,2,2.23,2.23,0,0,1-.35,1.19,8,8,0,0,1-1.51,1.52,3,3,0,0,0-.75.8A2.8,2.8,0,0,0,139.46,53.46ZM137.75,56V54.11h1.89V56Z" style="fill:#f9c7e4"/><path d="M159.29,53.46h-1.71c0-.25,0-.4,0-.46a3.07,3.07,0,0,1,.27-1.37A4.35,4.35,0,0,1,159,50.42a8.78,8.78,0,0,0,1-.88,1.24,1.24,0,0,0,.25-.73,1.25,1.25,0,0,0-.44-1,1.74,1.74,0,0,0-1.19-.39,1.85,1.85,0,0,0-1.21.41,2.18,2.18,0,0,0-.66,1.25L155,48.92a2.86,2.86,0,0,1,1-2.05,3.64,3.64,0,0,1,2.5-.84,3.76,3.76,0,0,1,2.59.85,2.59,2.59,0,0,1,1,2,2.14,2.14,0,0,1-.35,1.19,8,8,0,0,1-1.51,1.52,3,3,0,0,0-.75.8A2.8,2.8,0,0,0,159.29,53.46ZM157.58,56V54.11h1.89V56Z" style="fill:#f9c7e4"/><path d="M139.11,260.61h-4.54c0-.65,0-1.05,0-1.19a7.9,7.9,0,0,1,.73-3.63,11.16,11.16,0,0,1,2.92-3.21,20.43,20.43,0,0,0,2.61-2.33,3.1,3.1,0,0,0,.66-1.92,3.25,3.25,0,0,0-1.16-2.5,4.58,4.58,0,0,0-3.14-1,4.73,4.73,0,0,0-3.19,1.09,5.77,5.77,0,0,0-1.76,3.3l-4.59-.56a7.59,7.59,0,0,1,2.71-5.41A9.58,9.58,0,0,1,137,241a10,10,0,0,1,6.85,2.25,6.81,6.81,0,0,1,2.55,5.24,5.68,5.68,0,0,1-.94,3.13,20.31,20.31,0,0,1-4,4,7.61,7.61,0,0,0-2,2.11A7.15,7.15,0,0,0,139.11,260.61Zm-4.54,6.73v-5h5v5Z" style="fill:#f9c7e4"/><path d="M191.52,260.61H187c0-.65,0-1.05,0-1.19a8,8,0,0,1,.73-3.63,11.16,11.16,0,0,1,2.92-3.21,21.66,21.66,0,0,0,2.62-2.33,3.1,3.1,0,0,0,.66-1.92,3.23,3.23,0,0,0-1.17-2.5,4.56,4.56,0,0,0-3.14-1,4.75,4.75,0,0,0-3.19,1.09,5.77,5.77,0,0,0-1.76,3.3l-4.59-.56a7.63,7.63,0,0,1,2.71-5.41,9.61,9.61,0,0,1,6.62-2.23,10,10,0,0,1,6.85,2.25,6.83,6.83,0,0,1,2.54,5.24,5.75,5.75,0,0,1-.93,3.13,20.73,20.73,0,0,1-4,4,7.53,7.53,0,0,0-2,2.11A7.1,7.1,0,0,0,191.52,260.61ZM187,267.34v-5h5v5Z" style="fill:#f9c7e4"/><path d="M243.93,260.61h-4.54c0-.65,0-1.05,0-1.19a7.9,7.9,0,0,1,.73-3.63,11,11,0,0,1,2.91-3.21,21.66,21.66,0,0,0,2.62-2.33,3.1,3.1,0,0,0,.66-1.92,3.23,3.23,0,0,0-1.17-2.5,4.54,4.54,0,0,0-3.14-1,4.71,4.71,0,0,0-3.18,1.09,5.77,5.77,0,0,0-1.77,3.3l-4.59-.56a7.6,7.6,0,0,1,2.72-5.41,9.58,9.58,0,0,1,6.61-2.23,10,10,0,0,1,6.85,2.25,6.8,6.8,0,0,1,2.54,5.24,5.75,5.75,0,0,1-.93,3.13,20.31,20.31,0,0,1-4,4,7.45,7.45,0,0,0-2,2.11A7.1,7.1,0,0,0,243.93,260.61Zm-4.54,6.73v-5h5v5Z" style="fill:#f9c7e4"/><path d="M296.34,260.61h-4.53c0-.65,0-1.05,0-1.19a7.9,7.9,0,0,1,.73-3.63,11,11,0,0,1,2.92-3.21,20.43,20.43,0,0,0,2.61-2.33,3.1,3.1,0,0,0,.66-1.92,3.25,3.25,0,0,0-1.16-2.5,4.58,4.58,0,0,0-3.15-1,4.72,4.72,0,0,0-3.18,1.09,5.71,5.71,0,0,0-1.76,3.3l-4.59-.56a7.59,7.59,0,0,1,2.71-5.41,9.58,9.58,0,0,1,6.61-2.23,10,10,0,0,1,6.85,2.25,6.81,6.81,0,0,1,2.55,5.24,5.68,5.68,0,0,1-.94,3.13,20.31,20.31,0,0,1-4,4,7.61,7.61,0,0,0-2,2.11A7.29,7.29,0,0,0,296.34,260.61Zm-4.53,6.73v-5h5v5Z" style="fill:#f9c7e4"/><path d="M348.76,260.61h-4.54c0-.65,0-1.05,0-1.19a7.9,7.9,0,0,1,.73-3.63,11.16,11.16,0,0,1,2.92-3.21,21.66,21.66,0,0,0,2.62-2.33,3.16,3.16,0,0,0,.65-1.92,3.22,3.22,0,0,0-1.16-2.5,4.58,4.58,0,0,0-3.14-1,4.75,4.75,0,0,0-3.19,1.09,5.77,5.77,0,0,0-1.76,3.3l-4.59-.56a7.59,7.59,0,0,1,2.71-5.41A9.6,9.6,0,0,1,346.6,241a10,10,0,0,1,6.86,2.25,6.83,6.83,0,0,1,2.54,5.24,5.75,5.75,0,0,1-.93,3.13,20.73,20.73,0,0,1-4,4,7.78,7.78,0,0,0-2,2.11A7.15,7.15,0,0,0,348.76,260.61Zm-4.54,6.73v-5h5v5Z" style="fill:#f9c7e4"/><path d="M569.11,264.61h-4.54c0-.65,0-1.05,0-1.19a7.9,7.9,0,0,1,.73-3.63,11.16,11.16,0,0,1,2.92-3.21,20.43,20.43,0,0,0,2.61-2.33,3.1,3.1,0,0,0,.66-1.92,3.25,3.25,0,0,0-1.16-2.5,4.58,4.58,0,0,0-3.14-1,4.73,4.73,0,0,0-3.19,1.09,5.77,5.77,0,0,0-1.76,3.3l-4.59-.56a7.59,7.59,0,0,1,2.71-5.41A9.58,9.58,0,0,1,567,245a10,10,0,0,1,6.85,2.25,6.81,6.81,0,0,1,2.55,5.24,5.68,5.68,0,0,1-.94,3.13,20.31,20.31,0,0,1-4,4,7.61,7.61,0,0,0-2,2.11A7.15,7.15,0,0,0,569.11,264.61Zm-4.54,6.73v-5h5v5Z" style="fill:#f9c7e4"/><path d="M621.52,264.61H617c0-.65,0-1.05,0-1.19a8,8,0,0,1,.73-3.63,11.16,11.16,0,0,1,2.92-3.21,21.66,21.66,0,0,0,2.62-2.33,3.1,3.1,0,0,0,.66-1.92,3.23,3.23,0,0,0-1.17-2.5,4.56,4.56,0,0,0-3.14-1,4.75,4.75,0,0,0-3.19,1.09,5.77,5.77,0,0,0-1.76,3.3l-4.59-.56a7.63,7.63,0,0,1,2.71-5.41,9.61,9.61,0,0,1,6.62-2.23,10,10,0,0,1,6.85,2.25,6.83,6.83,0,0,1,2.54,5.24,5.75,5.75,0,0,1-.93,3.13,20.73,20.73,0,0,1-4,4,7.53,7.53,0,0,0-2,2.11A7.1,7.1,0,0,0,621.52,264.61ZM617,271.34v-5h5v5Z" style="fill:#f9c7e4"/><path d="M673.93,264.61h-4.54c0-.65,0-1.05,0-1.19a7.9,7.9,0,0,1,.73-3.63,11.1,11.1,0,0,1,2.91-3.21,20.83,20.83,0,0,0,2.62-2.33,3.1,3.1,0,0,0,.66-1.92,3.23,3.23,0,0,0-1.17-2.5,4.54,4.54,0,0,0-3.14-1,4.71,4.71,0,0,0-3.18,1.09,5.77,5.77,0,0,0-1.77,3.3l-4.59-.56a7.6,7.6,0,0,1,2.72-5.41,9.58,9.58,0,0,1,6.61-2.23,10,10,0,0,1,6.85,2.25,6.8,6.8,0,0,1,2.54,5.24,5.75,5.75,0,0,1-.93,3.13,20.31,20.31,0,0,1-4,4,7.45,7.45,0,0,0-2,2.11A7.1,7.1,0,0,0,673.93,264.61Zm-4.54,6.73v-5h5v5Z" style="fill:#f9c7e4"/><path d="M726.34,264.61h-4.53c0-.65,0-1.05,0-1.19a7.9,7.9,0,0,1,.73-3.63,11,11,0,0,1,2.92-3.21,20.43,20.43,0,0,0,2.61-2.33,3.1,3.1,0,0,0,.66-1.92,3.25,3.25,0,0,0-1.16-2.5,4.58,4.58,0,0,0-3.15-1,4.71,4.71,0,0,0-3.18,1.09,5.77,5.77,0,0,0-1.76,3.3l-4.59-.56a7.59,7.59,0,0,1,2.71-5.41,9.58,9.58,0,0,1,6.61-2.23,10,10,0,0,1,6.85,2.25,6.81,6.81,0,0,1,2.55,5.24,5.68,5.68,0,0,1-.94,3.13,20.31,20.31,0,0,1-4,4,7.61,7.61,0,0,0-2,2.11A7.29,7.29,0,0,0,726.34,264.61Zm-4.53,6.73v-5h5v5Z" style="fill:#f9c7e4"/><path d="M778.76,264.61h-4.54c0-.65,0-1.05,0-1.19a7.9,7.9,0,0,1,.73-3.63,11.16,11.16,0,0,1,2.92-3.21,21.66,21.66,0,0,0,2.62-2.33,3.16,3.16,0,0,0,.65-1.92,3.22,3.22,0,0,0-1.16-2.5,4.58,4.58,0,0,0-3.14-1,4.75,4.75,0,0,0-3.19,1.09,5.77,5.77,0,0,0-1.76,3.3l-4.59-.56a7.59,7.59,0,0,1,2.71-5.41A9.6,9.6,0,0,1,776.6,245a10,10,0,0,1,6.86,2.25,6.83,6.83,0,0,1,2.54,5.24,5.75,5.75,0,0,1-.93,3.13,20.73,20.73,0,0,1-4,4,7.61,7.61,0,0,0-2,2.11A7.15,7.15,0,0,0,778.76,264.61Zm-4.54,6.73v-5h5v5Z" style="fill:#f9c7e4"/><path d="M458.89,465.23h-8.84c0-1.27,0-2,0-2.32a15.44,15.44,0,0,1,1.42-7.07,21.58,21.58,0,0,1,5.68-6.24,41.33,41.33,0,0,0,5.1-4.54,6,6,0,0,0,1.28-3.74,6.28,6.28,0,0,0-2.27-4.87,8.8,8.8,0,0,0-6.12-2,9.25,9.25,0,0,0-6.2,2.11,11.26,11.26,0,0,0-3.43,6.45l-9-1.11a14.87,14.87,0,0,1,5.29-10.54q4.9-4.33,12.88-4.33,8.39,0,13.34,4.38t5,10.21a11.23,11.23,0,0,1-1.82,6.1q-1.81,2.88-7.78,7.84a14.69,14.69,0,0,0-3.83,4.12C459.07,460.69,458.85,462.55,458.89,465.23Zm-8.84,13.11V468.6h9.74v9.74Z" style="fill:#f9c7e4"/><path d="M201.36,53.46h-1.71c0-.25,0-.4,0-.46a2.93,2.93,0,0,1,.28-1.37,4.13,4.13,0,0,1,1.1-1.21,8.78,8.78,0,0,0,1-.88,1.17,1.17,0,0,0,.25-.73,1.25,1.25,0,0,0-.44-1,1.74,1.74,0,0,0-1.19-.39,1.85,1.85,0,0,0-1.21.41,2.18,2.18,0,0,0-.66,1.25L197,48.92a2.86,2.86,0,0,1,1-2.05,3.64,3.64,0,0,1,2.5-.84,3.76,3.76,0,0,1,2.59.85,2.59,2.59,0,0,1,1,2,2.14,2.14,0,0,1-.35,1.19,8,8,0,0,1-1.51,1.52,3,3,0,0,0-.75.8A2.8,2.8,0,0,0,201.36,53.46ZM199.65,56V54.11h1.89V56Z" style="fill:#f9c7e4"/><path d="M221.19,53.46h-1.71c0-.25,0-.4,0-.46a2.93,2.93,0,0,1,.28-1.37,4.13,4.13,0,0,1,1.1-1.21,8.78,8.78,0,0,0,1-.88,1.17,1.17,0,0,0,.25-.73,1.25,1.25,0,0,0-.44-1,1.74,1.74,0,0,0-1.19-.39,1.85,1.85,0,0,0-1.21.41,2.18,2.18,0,0,0-.66,1.25l-1.74-.21a2.86,2.86,0,0,1,1-2.05,3.64,3.64,0,0,1,2.5-.84,3.76,3.76,0,0,1,2.59.85,2.59,2.59,0,0,1,1,2,2.14,2.14,0,0,1-.35,1.19,8,8,0,0,1-1.51,1.52,3,3,0,0,0-.75.8A2.8,2.8,0,0,0,221.19,53.46ZM219.48,56V54.11h1.89V56Z" style="fill:#f9c7e4"/><path d="M241,53.46h-1.71c0-.25,0-.4,0-.46a2.93,2.93,0,0,1,.28-1.37,4.13,4.13,0,0,1,1.1-1.21,8.78,8.78,0,0,0,1-.88,1.17,1.17,0,0,0,.25-.73,1.25,1.25,0,0,0-.44-1,1.74,1.74,0,0,0-1.19-.39,1.85,1.85,0,0,0-1.21.41,2.18,2.18,0,0,0-.66,1.25l-1.74-.21a2.86,2.86,0,0,1,1-2.05,3.64,3.64,0,0,1,2.5-.84,3.74,3.74,0,0,1,2.59.85,2.59,2.59,0,0,1,1,2,2.14,2.14,0,0,1-.35,1.19,8,8,0,0,1-1.51,1.52,2.74,2.74,0,0,0-.74.8A2.75,2.75,0,0,0,241,53.46ZM239.31,56V54.11h1.89V56Z" style="fill:#f9c7e4"/><path d="M260.85,53.46h-1.71c0-.25,0-.4,0-.46a2.93,2.93,0,0,1,.28-1.37,4.13,4.13,0,0,1,1.1-1.21,8.78,8.78,0,0,0,1-.88,1.17,1.17,0,0,0,.25-.73,1.25,1.25,0,0,0-.44-1,1.74,1.74,0,0,0-1.19-.39,1.8,1.8,0,0,0-1.2.41,2.13,2.13,0,0,0-.67,1.25l-1.74-.21a2.86,2.86,0,0,1,1-2.05A3.64,3.64,0,0,1,260,46a3.74,3.74,0,0,1,2.59.85,2.59,2.59,0,0,1,1,2,2.14,2.14,0,0,1-.35,1.19,7.66,7.66,0,0,1-1.51,1.52,2.74,2.74,0,0,0-.74.8A2.75,2.75,0,0,0,260.85,53.46ZM259.14,56V54.11H261V56Z" style="fill:#f9c7e4"/><path d="M280.69,53.46H279c0-.25,0-.4,0-.46a2.93,2.93,0,0,1,.28-1.37,4.13,4.13,0,0,1,1.1-1.21,8.78,8.78,0,0,0,1-.88,1.17,1.17,0,0,0,.25-.73,1.25,1.25,0,0,0-.44-1,1.72,1.72,0,0,0-1.19-.39,1.8,1.8,0,0,0-1.2.41,2.13,2.13,0,0,0-.67,1.25l-1.74-.21a2.86,2.86,0,0,1,1-2.05,3.64,3.64,0,0,1,2.5-.84,3.74,3.74,0,0,1,2.59.85,2.6,2.6,0,0,1,1,2,2.16,2.16,0,0,1-.36,1.19,7.66,7.66,0,0,1-1.51,1.52,2.74,2.74,0,0,0-.74.8A2.61,2.61,0,0,0,280.69,53.46ZM279,56V54.11h1.89V56Z" style="fill:#f9c7e4"/><path d="M322.76,53.46H321c0-.25,0-.4,0-.46a2.93,2.93,0,0,1,.28-1.37,4.13,4.13,0,0,1,1.1-1.21,8.78,8.78,0,0,0,1-.88,1.17,1.17,0,0,0,.25-.73,1.25,1.25,0,0,0-.44-1,1.72,1.72,0,0,0-1.19-.39,1.8,1.8,0,0,0-1.2.41,2.13,2.13,0,0,0-.67,1.25l-1.74-.21a2.86,2.86,0,0,1,1-2.05,3.64,3.64,0,0,1,2.5-.84,3.74,3.74,0,0,1,2.59.85,2.6,2.6,0,0,1,1,2,2.16,2.16,0,0,1-.36,1.19,7.66,7.66,0,0,1-1.51,1.52,2.74,2.74,0,0,0-.74.8A2.61,2.61,0,0,0,322.76,53.46ZM321,56V54.11h1.89V56Z" style="fill:#f9c7e4"/><path d="M342.59,53.46h-1.72c0-.25,0-.4,0-.46a2.93,2.93,0,0,1,.28-1.37,4.13,4.13,0,0,1,1.1-1.21,8.78,8.78,0,0,0,1-.88,1.17,1.17,0,0,0,.25-.73,1.25,1.25,0,0,0-.44-1,1.72,1.72,0,0,0-1.19-.39,1.8,1.8,0,0,0-1.2.41,2.13,2.13,0,0,0-.67,1.25l-1.74-.21a2.86,2.86,0,0,1,1-2.05,3.64,3.64,0,0,1,2.5-.84,3.74,3.74,0,0,1,2.59.85,2.56,2.56,0,0,1,1,2,2.16,2.16,0,0,1-.36,1.19,7.66,7.66,0,0,1-1.51,1.52,2.74,2.74,0,0,0-.74.8A2.61,2.61,0,0,0,342.59,53.46ZM340.87,56V54.11h1.89V56Z" style="fill:#f9c7e4"/><path d="M362.42,53.46H360.7c0-.25,0-.4,0-.46a2.93,2.93,0,0,1,.28-1.37,4.13,4.13,0,0,1,1.1-1.21,7.89,7.89,0,0,0,1-.88,1.17,1.17,0,0,0,.25-.73,1.25,1.25,0,0,0-.44-1,1.72,1.72,0,0,0-1.19-.39,1.8,1.8,0,0,0-1.2.41,2.13,2.13,0,0,0-.67,1.25l-1.74-.21a2.9,2.9,0,0,1,1-2.05,3.65,3.65,0,0,1,2.5-.84,3.74,3.74,0,0,1,2.59.85,2.56,2.56,0,0,1,1,2,2.16,2.16,0,0,1-.36,1.19,7.66,7.66,0,0,1-1.51,1.52,2.74,2.74,0,0,0-.74.8A2.61,2.61,0,0,0,362.42,53.46ZM360.7,56V54.11h1.89V56Z" style="fill:#f9c7e4"/><path d="M382.25,53.46h-1.72c0-.25,0-.4,0-.46a3.06,3.06,0,0,1,.28-1.37,4.13,4.13,0,0,1,1.1-1.21,7.16,7.16,0,0,0,1-.88,1.17,1.17,0,0,0,.25-.73,1.22,1.22,0,0,0-.44-1,1.72,1.72,0,0,0-1.19-.39,1.8,1.8,0,0,0-1.2.41,2.13,2.13,0,0,0-.67,1.25l-1.74-.21a2.9,2.9,0,0,1,1-2.05,3.65,3.65,0,0,1,2.5-.84,3.74,3.74,0,0,1,2.59.85,2.56,2.56,0,0,1,1,2,2.16,2.16,0,0,1-.36,1.19,7.66,7.66,0,0,1-1.51,1.52,2.74,2.74,0,0,0-.74.8A2.61,2.61,0,0,0,382.25,53.46ZM380.53,56V54.11h1.89V56Z" style="fill:#f9c7e4"/><path d="M402.08,53.46h-1.72c0-.25,0-.4,0-.46a3.06,3.06,0,0,1,.28-1.37,4.13,4.13,0,0,1,1.1-1.21,7.16,7.16,0,0,0,1-.88,1.17,1.17,0,0,0,.25-.73,1.22,1.22,0,0,0-.44-1,1.72,1.72,0,0,0-1.19-.39,1.8,1.8,0,0,0-1.2.41,2.13,2.13,0,0,0-.67,1.25l-1.74-.21a2.9,2.9,0,0,1,1-2.05,3.65,3.65,0,0,1,2.5-.84,3.74,3.74,0,0,1,2.59.85,2.56,2.56,0,0,1,1,2,2.16,2.16,0,0,1-.36,1.19A7.66,7.66,0,0,1,403,51.57a2.9,2.9,0,0,0-.74.8A2.61,2.61,0,0,0,402.08,53.46ZM400.36,56V54.11h1.89V56Z" style="fill:#f9c7e4"/><path d="M511,58.46h-1.72V58a3.07,3.07,0,0,1,.27-1.37,4.35,4.35,0,0,1,1.11-1.21,8.78,8.78,0,0,0,1-.88,1.21,1.21,0,0,0-.2-1.68,1.7,1.7,0,0,0-1.18-.39,1.83,1.83,0,0,0-1.21.41,2.18,2.18,0,0,0-.66,1.25l-1.74-.21a2.89,2.89,0,0,1,1-2.05,3.66,3.66,0,0,1,2.51-.84,3.76,3.76,0,0,1,2.59.85,2.59,2.59,0,0,1,1,2,2.23,2.23,0,0,1-.35,1.19,8,8,0,0,1-1.51,1.52,3,3,0,0,0-.75.8A2.61,2.61,0,0,0,511,58.46ZM509.25,61V59.11h1.9V61Z" style="fill:#f9c7e4"/><path d="M530.8,58.46h-1.72V58a3.07,3.07,0,0,1,.27-1.37,4.35,4.35,0,0,1,1.11-1.21,8.78,8.78,0,0,0,1-.88,1.24,1.24,0,0,0,.25-.73,1.25,1.25,0,0,0-.44-1,1.74,1.74,0,0,0-1.19-.39,1.85,1.85,0,0,0-1.21.41,2.18,2.18,0,0,0-.66,1.25l-1.74-.21a2.86,2.86,0,0,1,1-2.05A3.62,3.62,0,0,1,530,51a3.76,3.76,0,0,1,2.59.85,2.59,2.59,0,0,1,1,2,2.23,2.23,0,0,1-.35,1.19,8,8,0,0,1-1.51,1.52,3,3,0,0,0-.75.8A2.8,2.8,0,0,0,530.8,58.46ZM529.08,61V59.11H531V61Z" style="fill:#f9c7e4"/><path d="M550.63,58.46h-1.71c0-.25,0-.4,0-.46a3.07,3.07,0,0,1,.27-1.37,4.35,4.35,0,0,1,1.11-1.21,8.78,8.78,0,0,0,1-.88,1.24,1.24,0,0,0,.25-.73,1.25,1.25,0,0,0-.44-1,1.74,1.74,0,0,0-1.19-.39,1.85,1.85,0,0,0-1.21.41,2.18,2.18,0,0,0-.66,1.25l-1.74-.21a2.86,2.86,0,0,1,1-2.05,3.62,3.62,0,0,1,2.5-.84,3.76,3.76,0,0,1,2.59.85,2.59,2.59,0,0,1,1,2,2.23,2.23,0,0,1-.35,1.19,8,8,0,0,1-1.51,1.52,3,3,0,0,0-.75.8A2.8,2.8,0,0,0,550.63,58.46ZM548.92,61V59.11h1.89V61Z" style="fill:#f9c7e4"/><path d="M570.46,58.46h-1.71c0-.25,0-.4,0-.46a3.07,3.07,0,0,1,.27-1.37,4.35,4.35,0,0,1,1.11-1.21,8.78,8.78,0,0,0,1-.88,1.24,1.24,0,0,0,.25-.73,1.25,1.25,0,0,0-.44-1,1.74,1.74,0,0,0-1.19-.39,1.85,1.85,0,0,0-1.21.41,2.18,2.18,0,0,0-.66,1.25l-1.74-.21a2.86,2.86,0,0,1,1-2.05,3.64,3.64,0,0,1,2.5-.84,3.76,3.76,0,0,1,2.59.85,2.59,2.59,0,0,1,1,2,2.23,2.23,0,0,1-.35,1.19,8,8,0,0,1-1.51,1.52,3,3,0,0,0-.75.8A2.8,2.8,0,0,0,570.46,58.46ZM568.75,61V59.11h1.89V61Z" style="fill:#f9c7e4"/><path d="M590.29,58.46h-1.71c0-.25,0-.4,0-.46a3.07,3.07,0,0,1,.27-1.37A4.35,4.35,0,0,1,590,55.42a8.78,8.78,0,0,0,1-.88,1.24,1.24,0,0,0,.25-.73,1.25,1.25,0,0,0-.44-1,1.74,1.74,0,0,0-1.19-.39,1.85,1.85,0,0,0-1.21.41,2.18,2.18,0,0,0-.66,1.25L586,53.92a2.86,2.86,0,0,1,1-2.05,3.64,3.64,0,0,1,2.5-.84,3.76,3.76,0,0,1,2.59.85,2.59,2.59,0,0,1,1,2,2.14,2.14,0,0,1-.35,1.19,8,8,0,0,1-1.51,1.52,3,3,0,0,0-.75.8A2.8,2.8,0,0,0,590.29,58.46ZM588.58,61V59.11h1.89V61Z" style="fill:#f9c7e4"/><path d="M632.36,58.46h-1.71c0-.25,0-.4,0-.46a2.93,2.93,0,0,1,.28-1.37,4.13,4.13,0,0,1,1.1-1.21,8.78,8.78,0,0,0,1-.88,1.17,1.17,0,0,0,.25-.73,1.25,1.25,0,0,0-.44-1,1.74,1.74,0,0,0-1.19-.39,1.85,1.85,0,0,0-1.21.41,2.18,2.18,0,0,0-.66,1.25L628,53.92a2.86,2.86,0,0,1,1-2.05,3.64,3.64,0,0,1,2.5-.84,3.76,3.76,0,0,1,2.59.85,2.59,2.59,0,0,1,1,2,2.14,2.14,0,0,1-.35,1.19,8,8,0,0,1-1.51,1.52,3,3,0,0,0-.75.8A2.8,2.8,0,0,0,632.36,58.46ZM630.65,61V59.11h1.89V61Z" style="fill:#f9c7e4"/><path d="M652.19,58.46h-1.71c0-.25,0-.4,0-.46a2.93,2.93,0,0,1,.28-1.37,4.13,4.13,0,0,1,1.1-1.21,8.78,8.78,0,0,0,1-.88,1.17,1.17,0,0,0,.25-.73,1.25,1.25,0,0,0-.44-1,1.74,1.74,0,0,0-1.19-.39,1.85,1.85,0,0,0-1.21.41,2.18,2.18,0,0,0-.66,1.25l-1.74-.21a2.86,2.86,0,0,1,1-2.05,3.64,3.64,0,0,1,2.5-.84,3.76,3.76,0,0,1,2.59.85,2.59,2.59,0,0,1,1,2,2.14,2.14,0,0,1-.35,1.19,8,8,0,0,1-1.51,1.52,2.74,2.74,0,0,0-.74.8A2.57,2.57,0,0,0,652.19,58.46ZM650.48,61V59.11h1.89V61Z" style="fill:#f9c7e4"/><path d="M672,58.46h-1.71c0-.25,0-.4,0-.46a2.93,2.93,0,0,1,.28-1.37,4.13,4.13,0,0,1,1.1-1.21,8.78,8.78,0,0,0,1-.88,1.17,1.17,0,0,0,.25-.73,1.25,1.25,0,0,0-.44-1,1.74,1.74,0,0,0-1.19-.39,1.85,1.85,0,0,0-1.21.41,2.18,2.18,0,0,0-.66,1.25l-1.74-.21a2.86,2.86,0,0,1,1-2.05,3.64,3.64,0,0,1,2.5-.84,3.74,3.74,0,0,1,2.59.85,2.59,2.59,0,0,1,1,2,2.14,2.14,0,0,1-.35,1.19,8,8,0,0,1-1.51,1.52,2.74,2.74,0,0,0-.74.8A2.57,2.57,0,0,0,672,58.46ZM670.31,61V59.11h1.89V61Z" style="fill:#f9c7e4"/><path d="M691.85,58.46h-1.71c0-.25,0-.4,0-.46a2.93,2.93,0,0,1,.28-1.37,4.13,4.13,0,0,1,1.1-1.21,8.78,8.78,0,0,0,1-.88,1.17,1.17,0,0,0,.25-.73,1.25,1.25,0,0,0-.44-1,1.74,1.74,0,0,0-1.19-.39,1.8,1.8,0,0,0-1.2.41,2.13,2.13,0,0,0-.67,1.25l-1.74-.21a2.86,2.86,0,0,1,1-2.05A3.64,3.64,0,0,1,691,51a3.74,3.74,0,0,1,2.59.85,2.59,2.59,0,0,1,1,2,2.14,2.14,0,0,1-.35,1.19,7.66,7.66,0,0,1-1.51,1.52,1.8,1.8,0,0,0-.88,1.89ZM690.14,61V59.11H692V61Z" style="fill:#f9c7e4"/><path d="M711.69,58.46H710c0-.25,0-.4,0-.46a2.93,2.93,0,0,1,.28-1.37,4.13,4.13,0,0,1,1.1-1.21,8.78,8.78,0,0,0,1-.88,1.17,1.17,0,0,0,.25-.73,1.25,1.25,0,0,0-.44-1,1.72,1.72,0,0,0-1.19-.39,1.8,1.8,0,0,0-1.2.41,2.13,2.13,0,0,0-.67,1.25l-1.74-.21a2.86,2.86,0,0,1,1-2.05,3.64,3.64,0,0,1,2.5-.84,3.74,3.74,0,0,1,2.59.85,2.59,2.59,0,0,1,1,2,2.14,2.14,0,0,1-.35,1.19,7.66,7.66,0,0,1-1.51,1.52,2.74,2.74,0,0,0-.74.8A2.61,2.61,0,0,0,711.69,58.46ZM710,61V59.11h1.89V61Z" style="fill:#f9c7e4"/><path d="M753.76,58.46H752c0-.25,0-.4,0-.46a2.93,2.93,0,0,1,.28-1.37,4.13,4.13,0,0,1,1.1-1.21,8.78,8.78,0,0,0,1-.88,1.17,1.17,0,0,0,.25-.73,1.25,1.25,0,0,0-.44-1,1.72,1.72,0,0,0-1.19-.39,1.8,1.8,0,0,0-1.2.41,2.13,2.13,0,0,0-.67,1.25l-1.74-.21a2.86,2.86,0,0,1,1-2.05,3.64,3.64,0,0,1,2.5-.84,3.74,3.74,0,0,1,2.59.85,2.6,2.6,0,0,1,1,2,2.16,2.16,0,0,1-.36,1.19,7.66,7.66,0,0,1-1.51,1.52,2.74,2.74,0,0,0-.74.8A2.61,2.61,0,0,0,753.76,58.46ZM752,61V59.11h1.89V61Z" style="fill:#f9c7e4"/><path d="M773.59,58.46h-1.72c0-.25,0-.4,0-.46a2.93,2.93,0,0,1,.28-1.37,4.13,4.13,0,0,1,1.1-1.21,8.78,8.78,0,0,0,1-.88,1.17,1.17,0,0,0,.25-.73,1.25,1.25,0,0,0-.44-1,1.72,1.72,0,0,0-1.19-.39,1.8,1.8,0,0,0-1.2.41,2.13,2.13,0,0,0-.67,1.25l-1.74-.21a2.86,2.86,0,0,1,1-2.05,3.65,3.65,0,0,1,2.5-.84,3.74,3.74,0,0,1,2.59.85,2.56,2.56,0,0,1,1,2,2.16,2.16,0,0,1-.36,1.19,7.66,7.66,0,0,1-1.51,1.52,2.74,2.74,0,0,0-.74.8A2.61,2.61,0,0,0,773.59,58.46ZM771.87,61V59.11h1.89V61Z" style="fill:#f9c7e4"/><path d="M793.42,58.46H791.7c0-.25,0-.4,0-.46a2.93,2.93,0,0,1,.28-1.37,4.13,4.13,0,0,1,1.1-1.21,7.89,7.89,0,0,0,1-.88,1.17,1.17,0,0,0,.25-.73,1.22,1.22,0,0,0-.44-1,1.72,1.72,0,0,0-1.19-.39,1.8,1.8,0,0,0-1.2.41,2.13,2.13,0,0,0-.67,1.25l-1.74-.21a2.86,2.86,0,0,1,1-2.05,3.65,3.65,0,0,1,2.5-.84,3.74,3.74,0,0,1,2.59.85,2.56,2.56,0,0,1,1,2,2.16,2.16,0,0,1-.36,1.19,7.66,7.66,0,0,1-1.51,1.52,2.74,2.74,0,0,0-.74.8A2.61,2.61,0,0,0,793.42,58.46ZM791.7,61V59.11h1.89V61Z" style="fill:#f9c7e4"/><path d="M813.25,58.46h-1.72c0-.25,0-.4,0-.46a3.06,3.06,0,0,1,.28-1.37,4.13,4.13,0,0,1,1.1-1.21,7.16,7.16,0,0,0,1-.88,1.17,1.17,0,0,0,.25-.73,1.22,1.22,0,0,0-.44-1,1.72,1.72,0,0,0-1.19-.39,1.8,1.8,0,0,0-1.2.41,2.13,2.13,0,0,0-.67,1.25l-1.74-.21a2.9,2.9,0,0,1,1-2.05,3.65,3.65,0,0,1,2.5-.84,3.74,3.74,0,0,1,2.59.85,2.56,2.56,0,0,1,1,2,2.16,2.16,0,0,1-.36,1.19,7.66,7.66,0,0,1-1.51,1.52,2.74,2.74,0,0,0-.74.8A2.61,2.61,0,0,0,813.25,58.46ZM811.53,61V59.11h1.89V61Z" style="fill:#f9c7e4"/><path d="M833.08,58.46h-1.72c0-.25,0-.4,0-.46a3.06,3.06,0,0,1,.28-1.37,4.13,4.13,0,0,1,1.1-1.21,7.16,7.16,0,0,0,1-.88,1.17,1.17,0,0,0,.25-.73,1.22,1.22,0,0,0-.44-1,1.72,1.72,0,0,0-1.19-.39,1.8,1.8,0,0,0-1.2.41,2.13,2.13,0,0,0-.67,1.25l-1.74-.21a2.9,2.9,0,0,1,1-2.05,3.65,3.65,0,0,1,2.5-.84,3.74,3.74,0,0,1,2.59.85,2.56,2.56,0,0,1,1,2,2.16,2.16,0,0,1-.36,1.19A7.66,7.66,0,0,1,834,56.57a2.9,2.9,0,0,0-.74.8A2.61,2.61,0,0,0,833.08,58.46ZM831.36,61V59.11h1.89V61Z" style="fill:#f9c7e4"/><line x1="675.5" y1="332.5" x2="521.01" y2="431.48" style="fill:none;stroke:#f9c7e4;stroke-miterlimit:10;stroke-width:13px"/><polygon points="530.92 398.96 524.25 429.41 554.7 436.07 538.95 446.17 508.5 439.5 515.17 409.05 530.92 398.96" style="fill:#f9c7e4"/><rect x="175" y="323" width="567" height="31" style="fill:#07448e"/><rect x="684.13" y="124.11" width="121.91" height="5.5" transform="translate(112.63 540.67) rotate(-42.86)" style="fill:#f9c7e4"/><polygon points="714.78 167.7 701.6 167.21 702.09 154.02 696.28 159.41 695.79 172.6 708.98 173.09 714.78 167.7" style="fill:#f9c7e4"/><rect x="668.58" y="88.15" width="5.5" height="79.09" transform="translate(-0.29 1.55) rotate(-0.13)" style="fill:#f9c7e4"/><polygon points="680.73 156.25 671.42 165.61 662.07 156.3 662.09 164.22 671.44 173.53 680.75 164.18 680.73 156.25" style="fill:#f9c7e4"/><rect x="595.3" y="65.82" width="5.5" height="124.57" transform="translate(94.69 475.53) rotate(-46.7)" style="fill:#f9c7e4"/><polygon points="641.8 156.52 642.2 169.71 629.01 170.1 634.77 175.53 647.96 175.14 647.57 161.95 641.8 156.52" style="fill:#f9c7e4"/><rect x="529.65" y="83.07" width="300.54" height="10.16" style="fill:#07448e"/><path d="M776.18,229l-17.51-8a.6.6,0,0,1-.43-.64q0-11.09,0-22.19a.61.61,0,0,1,.42-.64q9.89-4.51,19.76-9.06l.4-.22H779c1.11.52,2.21,1.05,3.33,1.56l17.28,7.9a.59.59,0,0,1,.41.64q0,11.12,0,22.22a.62.62,0,0,1-.41.66q-9.62,4.6-19.21,9.24a3.42,3.42,0,0,0-.4.26h-.09Zm21.55-30.08L780,207a.55.55,0,0,0-.41.57q0,10.42,0,20.86c0,.08,0,.16,0,.3l.35-.13q9-4.26,17.91-8.5a.49.49,0,0,0,.32-.51q0-10.25,0-20.48c0-.11,0-.21,0-.37Zm-20,27.62q0-9.47,0-18.92a.58.58,0,0,0-.39-.62c-1.89-.91-3.77-1.85-5.65-2.77l-.45-.2v10.17a4.46,4.46,0,0,1-.41-.19c-1.61-.88-3.22-1.77-4.84-2.64a.53.53,0,0,1-.32-.55c0-3.07,0-6.14,0-9.21a.52.52,0,0,0-.35-.56l-4.8-2.34-.46-.21v20.8c0,.24,0,.42.29.55q8.55,4,17.08,8.07l.3.12ZM789.65,195a.5.5,0,0,0-.38,0L773,202.65l-.15.12c2,.94,3.92,1.88,5.88,2.8a.5.5,0,0,0,.38,0l16.82-7.6.15-.1Zm-23.12,4.72a.4.4,0,0,0,.34,0l16.75-7.37.06,0-.3-.17c-1.39-.64-2.78-1.28-4.18-1.9a.81.81,0,0,0-.61,0c-5.33,2.41-10.65,4.85-16,7.28a3.28,3.28,0,0,0-.36.19C763.72,198.4,765.12,199.07,766.53,199.73Z" style="fill:#f7eec9"/><path d="M722.62,229l-17.51-8a.6.6,0,0,1-.43-.64q0-11.09,0-22.19a.6.6,0,0,1,.42-.64q9.89-4.51,19.76-9.06l.39-.22h.17c1.11.52,2.21,1.05,3.33,1.56l17.28,7.9a.59.59,0,0,1,.41.64q0,11.12,0,22.22a.62.62,0,0,1-.41.66q-9.62,4.6-19.21,9.24a3.42,3.42,0,0,0-.4.26h-.09Zm21.55-30.08L726.43,207a.55.55,0,0,0-.41.57q0,10.42,0,20.86c0,.08,0,.16,0,.3l.35-.13q9-4.26,17.91-8.5a.49.49,0,0,0,.32-.51q0-10.25,0-20.48c0-.11,0-.21,0-.37Zm-20,27.62q0-9.47,0-18.92a.58.58,0,0,0-.39-.62c-1.89-.91-3.77-1.85-5.65-2.77l-.45-.2v10.17a4.46,4.46,0,0,1-.41-.19c-1.61-.88-3.22-1.77-4.84-2.64a.53.53,0,0,1-.32-.55c0-3.07,0-6.14,0-9.21a.53.53,0,0,0-.35-.56c-1.61-.77-3.2-1.56-4.8-2.34l-.46-.21v20.8c0,.24,0,.42.29.55q8.55,4,17.08,8.07l.3.12ZM736.09,195a.5.5,0,0,0-.38,0l-16.26,7.63-.16.12,5.88,2.8a.53.53,0,0,0,.39,0l16.82-7.6.15-.1ZM713,199.73a.41.41,0,0,0,.34,0q8.38-3.67,16.74-7.37l.07,0-.3-.17c-1.39-.64-2.78-1.28-4.18-1.9a.81.81,0,0,0-.61,0c-5.33,2.41-10.65,4.85-16,7.28a3.28,3.28,0,0,0-.36.19C710.16,198.4,711.56,199.07,713,199.73Z" style="fill:#f7eec9"/><path d="M669.06,229q-8.76-4-17.52-8a.61.61,0,0,1-.42-.64q0-11.09,0-22.19a.6.6,0,0,1,.42-.64q9.88-4.51,19.76-9.06l.39-.22h.17c1.11.52,2.21,1.05,3.33,1.56l17.28,7.9a.59.59,0,0,1,.41.64q0,11.12,0,22.22a.62.62,0,0,1-.41.66q-9.62,4.6-19.21,9.24a3.42,3.42,0,0,0-.4.26h-.09Zm21.55-30.08L672.87,207a.55.55,0,0,0-.41.57q0,10.42,0,20.86c0,.08,0,.16,0,.3l.35-.13q9-4.26,17.91-8.5a.49.49,0,0,0,.32-.51q0-10.25,0-20.48c0-.11,0-.21,0-.37Zm-20,27.62q0-9.47,0-18.92a.58.58,0,0,0-.39-.62c-1.89-.91-3.77-1.85-5.65-2.77l-.46-.2v10.17c-.19-.09-.3-.13-.4-.19-1.61-.88-3.22-1.77-4.84-2.64a.53.53,0,0,1-.32-.55c0-3.07,0-6.14,0-9.21a.53.53,0,0,0-.35-.56c-1.61-.77-3.2-1.56-4.8-2.34l-.46-.21v20.8c0,.24,0,.42.29.55q8.55,4,17.08,8.07l.29.12ZM682.53,195a.5.5,0,0,0-.38,0l-16.26,7.63-.16.12,5.88,2.8a.53.53,0,0,0,.39,0l16.82-7.6.15-.1Zm-23.12,4.72a.41.41,0,0,0,.34,0l16.74-7.37.07,0-.3-.17c-1.39-.64-2.78-1.28-4.18-1.9a.81.81,0,0,0-.61,0c-5.33,2.41-10.65,4.85-16,7.28a3.28,3.28,0,0,0-.36.19C656.59,198.4,658,199.07,659.41,199.73Z" style="fill:#f7eec9"/><path d="M615.5,229q-8.76-4-17.52-8a.61.61,0,0,1-.42-.64q0-11.09,0-22.19a.6.6,0,0,1,.42-.64q9.88-4.51,19.76-9.06l.39-.22h.17c1.11.52,2.21,1.05,3.33,1.56q8.63,4,17.28,7.9a.59.59,0,0,1,.41.64q0,11.12,0,22.22a.62.62,0,0,1-.41.66q-9.61,4.6-19.21,9.24a3.54,3.54,0,0,0-.41.26h-.08Zm21.55-30.08L619.31,207a.55.55,0,0,0-.41.57q0,10.42,0,20.86c0,.08,0,.16,0,.3l.35-.13q9-4.26,17.91-8.5a.49.49,0,0,0,.32-.51q0-10.25,0-20.48c0-.11,0-.21,0-.37Zm-20,27.62q0-9.47,0-18.92a.58.58,0,0,0-.39-.62c-1.89-.91-3.77-1.85-5.66-2.77l-.45-.2v10.17c-.19-.09-.3-.13-.4-.19-1.62-.88-3.22-1.77-4.84-2.64a.53.53,0,0,1-.32-.55c0-3.07,0-6.14,0-9.21a.55.55,0,0,0-.35-.56c-1.61-.77-3.2-1.56-4.8-2.34l-.46-.21v20.8c0,.24,0,.42.29.55l17.08,8.07.29.12ZM629,195a.5.5,0,0,0-.38,0l-16.26,7.63-.16.12,5.88,2.8a.53.53,0,0,0,.39,0l16.82-7.6.15-.1Zm-23.12,4.72a.41.41,0,0,0,.34,0l16.74-7.37.07,0-.3-.17c-1.39-.64-2.78-1.28-4.18-1.9a.81.81,0,0,0-.61,0c-5.33,2.41-10.65,4.85-16,7.28a3.28,3.28,0,0,0-.36.19C603,198.4,604.44,199.07,605.85,199.73Z" style="fill:#f7eec9"/><path d="M561.94,229l-17.52-8a.6.6,0,0,1-.42-.64q0-11.09,0-22.19a.6.6,0,0,1,.42-.64q9.89-4.51,19.76-9.06l.39-.22h.17c1.11.52,2.21,1.05,3.33,1.56q8.63,4,17.28,7.9a.59.59,0,0,1,.41.64q0,11.12,0,22.22a.62.62,0,0,1-.41.66q-9.61,4.6-19.21,9.24a3.54,3.54,0,0,0-.41.26h-.08Zm21.55-30.08L565.75,207a.55.55,0,0,0-.41.57q0,10.42,0,20.86c0,.08,0,.16,0,.3l.35-.13q9-4.26,17.91-8.5a.48.48,0,0,0,.31-.51V199.07c0-.11,0-.21,0-.37Zm-20,27.62q0-9.47,0-18.92a.59.59,0,0,0-.39-.62c-1.89-.91-3.77-1.85-5.66-2.77L557,204v10.17l-.41-.19c-1.61-.88-3.21-1.77-4.83-2.64a.53.53,0,0,1-.32-.55c0-3.07,0-6.14,0-9.21a.55.55,0,0,0-.35-.56c-1.61-.77-3.21-1.56-4.81-2.34l-.45-.21v20.8c0,.24,0,.42.29.55l17.08,8.07.29.12ZM575.41,195a.5.5,0,0,0-.38,0l-16.27,7.63-.15.12,5.88,2.8a.53.53,0,0,0,.39,0L581.7,198l.14-.1C579.67,196.89,577.54,195.94,575.41,195Zm-23.12,4.72a.41.41,0,0,0,.34,0l16.74-7.37.07,0-.3-.17c-1.39-.64-2.78-1.28-4.18-1.9a.81.81,0,0,0-.61,0c-5.33,2.41-10.65,4.85-16,7.28a3.28,3.28,0,0,0-.36.19C549.47,198.4,550.88,199.07,552.29,199.73Z" style="fill:#f7eec9"/><path d="M651.4,328.31a10.53,10.53,0,0,1,7.6-6.07,2,2,0,0,0,1.21-.9,9.43,9.43,0,0,0,.93-2.5,30.38,30.38,0,0,0,.05-10.84A26.79,26.79,0,0,1,663,292.73a11.76,11.76,0,0,1,9.49-7.26,34.05,34.05,0,0,1,4.17-.12c5.52-.13,9.42,2.4,11.83,7.29a20.69,20.69,0,0,1,2.13,9.24c0,3.26-.56,6.52-.57,9.78a62.18,62.18,0,0,0,.69,8.39,2.5,2.5,0,0,0,2,2.29c4.87,1.15,9.24,6.58,9.47,11.66H649C649.84,332,650.49,330.08,651.4,328.31Zm14-18.84a2.19,2.19,0,0,1,.59,1,17.65,17.65,0,0,0,4.28,6.45c3.53,3.23,7.55,3.2,11-.07a18.23,18.23,0,0,0,4.27-6.46,2.19,2.19,0,0,1,.89-1c1.64-.95,1.93-4.46.46-5.62-.26-.21-.3-.7-.46-1a23.89,23.89,0,0,0-2.11-4.27c-1.16-1.55-2.85-1.69-4.57-.8-4.15,2.13-8.3,4.25-12.43,6.4-1.08.56-2.12,1.39-3.05-.38A4.15,4.15,0,0,0,665.36,309.47Zm17.29,9.27c-5.13,4.4-9.52,3.71-13.84,0l-2.74,3c.8,2.45,5.55,5,9.71,5s9-2.53,9.69-4.92Z" style="fill:#f7eec9"/><path d="M780.93,84a3.8,3.8,0,0,1,2.73-2.18.72.72,0,0,0,.44-.32,3.25,3.25,0,0,0,.33-.9,10.88,10.88,0,0,0,0-3.9,9.64,9.64,0,0,1,.66-5.49,4.23,4.23,0,0,1,3.41-2.61,12.47,12.47,0,0,1,1.5,0,4.3,4.3,0,0,1,4.25,2.62,7.39,7.39,0,0,1,.77,3.32c0,1.17-.2,2.34-.21,3.52a23.5,23.5,0,0,0,.25,3,.9.9,0,0,0,.71.83,4.87,4.87,0,0,1,3.4,4.19H780.07C780.37,85.27,780.6,84.59,780.93,84Zm5-6.77a.82.82,0,0,1,.21.35,6.29,6.29,0,0,0,1.54,2.32,2.69,2.69,0,0,0,4,0,6.63,6.63,0,0,0,1.54-2.33.81.81,0,0,1,.32-.34,1.44,1.44,0,0,0,.16-2c-.09-.07-.1-.25-.16-.37a8.82,8.82,0,0,0-.76-1.54,1.21,1.21,0,0,0-1.64-.29l-4.47,2.3c-.39.21-.77.51-1.1-.13A1.49,1.49,0,0,0,786,77.18Zm6.22,3.33a3.37,3.37,0,0,1-5,0l-1,1.08c.29.88,2,1.79,3.5,1.79s3.21-.91,3.48-1.78Z" style="fill:#f7eec9"/><path d="M544,84a3.83,3.83,0,0,1,2.74-2.18.73.73,0,0,0,.43-.32,3.63,3.63,0,0,0,.34-.9,11.11,11.11,0,0,0,0-3.9,9.55,9.55,0,0,1,.65-5.49,4.26,4.26,0,0,1,3.42-2.61,12.3,12.3,0,0,1,1.49,0,4.32,4.32,0,0,1,4.26,2.62,7.38,7.38,0,0,1,.76,3.32c0,1.17-.2,2.34-.2,3.52a21.82,21.82,0,0,0,.25,3,.89.89,0,0,0,.7.83,4.84,4.84,0,0,1,3.4,4.19H543.11C543.41,85.27,543.65,84.59,544,84Zm5-6.77c.11.07.16.23.22.35a6.17,6.17,0,0,0,1.54,2.32,2.69,2.69,0,0,0,4,0,6.6,6.6,0,0,0,1.53-2.33.81.81,0,0,1,.32-.34,1.43,1.43,0,0,0,.17-2c-.1-.07-.11-.25-.17-.37a8.17,8.17,0,0,0-.76-1.54,1.21,1.21,0,0,0-1.64-.29l-4.47,2.3c-.39.21-.76.51-1.09-.13A1.49,1.49,0,0,0,549,77.18Zm6.22,3.33a3.38,3.38,0,0,1-5,0l-1,1.08c.29.88,2,1.79,3.49,1.79s3.22-.91,3.49-1.78Z" style="fill:#f7eec9"/><path d="M662.45,84a3.81,3.81,0,0,1,2.73-2.18.72.72,0,0,0,.44-.32,3.63,3.63,0,0,0,.34-.9,11.11,11.11,0,0,0,0-3.9,9.64,9.64,0,0,1,.66-5.49A4.26,4.26,0,0,1,670,68.55a12.52,12.52,0,0,1,1.5,0,4.32,4.32,0,0,1,4.26,2.62,7.51,7.51,0,0,1,.76,3.32c0,1.17-.2,2.34-.2,3.52a21.8,21.8,0,0,0,.24,3,.9.9,0,0,0,.71.83,4.84,4.84,0,0,1,3.4,4.19H661.59C661.89,85.27,662.13,84.59,662.45,84Zm5-6.77a.73.73,0,0,1,.21.35,6.29,6.29,0,0,0,1.54,2.32,2.7,2.7,0,0,0,4,0,6.6,6.6,0,0,0,1.53-2.33.81.81,0,0,1,.32-.34,1.44,1.44,0,0,0,.17-2c-.1-.07-.11-.25-.17-.37a8.17,8.17,0,0,0-.76-1.54,1.21,1.21,0,0,0-1.64-.29l-4.47,2.3c-.39.21-.76.51-1.1-.13A1.5,1.5,0,0,0,667.47,77.18Zm6.22,3.33a3.37,3.37,0,0,1-5,0l-1,1.08c.28.88,2,1.79,3.49,1.79s3.22-.91,3.48-1.78Z" style="fill:#f7eec9"/><path d="M831.23,42.63l-6.45-3a.23.23,0,0,1-.16-.23c0-2.73,0-5.45,0-8.18a.21.21,0,0,1,.16-.23l7.27-3.34.15-.08h.06l1.23.58,6.36,2.9a.23.23,0,0,1,.15.24v8.18a.22.22,0,0,1-.15.24l-7.08,3.41-.14.09h0C832.14,43.05,831.69,42.83,831.23,42.63Zm7.94-11.08-6.54,3a.21.21,0,0,0-.15.21v7.79l.12-.05,6.6-3.13a.17.17,0,0,0,.12-.18c0-2.52,0-5,0-7.55v-.13ZM831.8,41.72v-7a.23.23,0,0,0-.14-.23c-.7-.33-1.39-.68-2.08-1l-.17-.07v3.75l-.15-.07-1.78-1a.19.19,0,0,1-.12-.2c0-1.13,0-2.26,0-3.39a.21.21,0,0,0-.13-.21l-1.77-.86-.17-.07v7.65c0,.09,0,.16.11.21l6.29,3,.1,0C831.8,42.07,831.81,41.9,831.8,41.72Zm4.39-11.59h-.14l-6,2.81L830,33l2.17,1h.14l6.2-2.8,0,0Zm-8.52,1.74h.13L834,29.15l0,0-.11-.06-1.54-.7h-.22q-3,1.34-5.88,2.68l-.14.07Z" style="fill:#f7eec9"/><path d="M811.51,42.63l-6.46-3a.23.23,0,0,1-.15-.23V31.27a.22.22,0,0,1,.15-.23l7.28-3.34.15-.08h.06l1.22.58,6.37,2.9a.23.23,0,0,1,.15.24q0,4.1,0,8.18a.22.22,0,0,1-.15.24l-7.08,3.41-.15.09h0Zm7.93-11.08-6.53,3a.2.2,0,0,0-.15.21v7.79l.13-.05,6.6-3.13a.17.17,0,0,0,.11-.18V31.49Zm-7.36,10.17v-7a.23.23,0,0,0-.14-.23c-.7-.33-1.39-.68-2.09-1l-.16-.07v3.75l-.15-.07-1.78-1a.19.19,0,0,1-.12-.2V32.54a.2.2,0,0,0-.13-.21l-1.77-.86-.16-.07v7.65c0,.09,0,.16.1.21,2.1,1,4.2,2,6.29,3l.11,0Zm4.38-11.59h-.14l-6,2.81-.06,0,2.17,1h.14l6.19-2.8.06,0ZM808,31.87h.13l6.16-2.71,0,0-.11-.06-1.54-.7h-.23l-5.88,2.68-.13.07Z" style="fill:#f7eec9"/><path d="M791.78,42.63l-6.45-3a.22.22,0,0,1-.15-.23V31.27a.22.22,0,0,1,.15-.23l7.28-3.34.14-.08h.06l1.23.58,6.36,2.9a.22.22,0,0,1,.15.24v8.18a.21.21,0,0,1-.15.24l-7.07,3.41-.15.09h0C792.69,43.05,792.24,42.83,791.78,42.63Zm7.94-11.08-6.54,3a.21.21,0,0,0-.15.21c0,2.56,0,5.12,0,7.68v.11l.13-.05,6.59-3.13a.17.17,0,0,0,.12-.18V31.49Zm-7.36,10.17c0-2.32,0-4.64,0-7a.22.22,0,0,0-.15-.23l-2.08-1-.17-.07v3.75l-.15-.07-1.78-1a.19.19,0,0,1-.11-.2V32.54a.21.21,0,0,0-.13-.21L786,31.47l-.17-.07v7.65a.19.19,0,0,0,.11.21c2.1,1,4.19,2,6.29,3l.11,0Zm4.38-11.59h-.14l-6,2.81-.05,0,2.16,1h.14l6.2-2.8.05,0Zm-8.51,1.74h.12l6.17-2.71,0,0-.11-.06-1.54-.7h-.22l-5.88,2.68-.13.07Z" style="fill:#f7eec9"/><path d="M772.06,42.63l-6.45-3a.23.23,0,0,1-.16-.23c0-2.73,0-5.45,0-8.18a.21.21,0,0,1,.16-.23l7.27-3.34.15-.08h.06l1.22.58,6.37,2.9a.23.23,0,0,1,.15.24v8.18a.22.22,0,0,1-.15.24l-7.08,3.41-.14.09h0C773,43.05,772.52,42.83,772.06,42.63ZM780,31.55l-6.53,3a.2.2,0,0,0-.15.21v7.79l.13-.05,6.6-3.13a.17.17,0,0,0,.11-.18V31.49Zm-7.36,10.17v-7a.23.23,0,0,0-.14-.23c-.7-.33-1.39-.68-2.08-1l-.17-.07v3.75l-.15-.07-1.78-1a.19.19,0,0,1-.12-.2c0-1.13,0-2.26,0-3.39a.21.21,0,0,0-.13-.21c-.6-.28-1.18-.57-1.77-.86l-.17-.07v7.65c0,.09,0,.16.11.21l6.28,3,.11,0ZM777,30.13h-.14l-6,2.81-.06,0L773,34h.14l6.19-2.8.06,0Zm-8.52,1.74h.13l6.16-2.71,0,0-.11-.06-1.54-.7h-.23l-5.88,2.68-.13.07Z" style="fill:#f7eec9"/><path d="M752.33,42.63l-6.45-3a.22.22,0,0,1-.15-.23V31.27a.22.22,0,0,1,.15-.23l7.28-3.34.14-.08h.07l1.22.58L761,31.1a.21.21,0,0,1,.15.24v8.18a.22.22,0,0,1-.14.24l-7.08,3.41-.15.09h0C753.25,43.05,752.79,42.83,752.33,42.63Zm7.94-11.08-6.53,3a.2.2,0,0,0-.15.21v7.79l.13-.05,6.59-3.13a.17.17,0,0,0,.12-.18V31.49Zm-7.36,10.17v-7a.22.22,0,0,0-.15-.23l-2.08-1-.16-.07v3.75l-.15-.07-1.78-1a.19.19,0,0,1-.12-.2V32.54a.2.2,0,0,0-.13-.21l-1.77-.86-.16-.07v.38q0,3.64,0,7.27a.19.19,0,0,0,.11.21c2.1,1,4.2,2,6.29,3l.11,0Zm4.38-11.59h-.14l-6,2.81-.06,0,2.16,1h.15l6.19-2.8,0,0Zm-8.51,1.74h.13l6.16-2.71,0,0-.11-.06-1.54-.7h-.22l-5.88,2.68-.13.07Z" style="fill:#f7eec9"/><path d="M588.54,42.63l-6.45-3a.23.23,0,0,1-.16-.23c0-2.73,0-5.45,0-8.18a.21.21,0,0,1,.16-.23l7.27-3.34.15-.08h.06l1.22.58,6.37,2.9a.23.23,0,0,1,.15.24v8.18a.22.22,0,0,1-.15.24l-7.08,3.41-.14.09h0C589.45,43.05,589,42.83,588.54,42.63Zm7.93-11.08-6.53,3a.2.2,0,0,0-.15.21v7.79l.13-.05,6.6-3.13a.16.16,0,0,0,.11-.18V31.49Zm-7.36,10.17v-7a.23.23,0,0,0-.14-.23c-.7-.33-1.39-.68-2.08-1l-.17-.07v3.75l-.15-.07-1.78-1a.19.19,0,0,1-.12-.2c0-1.13,0-2.26,0-3.39a.21.21,0,0,0-.13-.21l-1.77-.86-.17-.07v7.65c0,.09,0,.16.11.21l6.28,3,.11,0Zm4.39-11.59h-.14l-6,2.81-.06,0,2.17,1h.14l6.2-2.8,0,0ZM585,31.87h.13l6.17-2.71,0,0-.11-.06-1.54-.7h-.23l-5.88,2.68-.13.07Z" style="fill:#f7eec9"/><path d="M568.82,42.63l-6.46-3a.22.22,0,0,1-.15-.23V31.27a.22.22,0,0,1,.15-.23l7.28-3.34.14-.08h.07l1.22.58,6.37,2.9a.23.23,0,0,1,.15.24q0,4.1,0,8.18a.22.22,0,0,1-.15.24l-7.08,3.41-.15.09h0Zm7.93-11.08-6.53,3a.2.2,0,0,0-.15.21v7.79l.13-.05,6.6-3.13a.17.17,0,0,0,.11-.18V31.49Zm-7.36,10.17v-7a.23.23,0,0,0-.14-.23c-.7-.33-1.39-.68-2.09-1l-.16-.07v3.75l-.15-.07-1.78-1a.19.19,0,0,1-.12-.2V32.54a.2.2,0,0,0-.13-.21l-1.77-.86-.16-.07v.38q0,3.64,0,7.27a.19.19,0,0,0,.11.21c2.1,1,4.2,2,6.29,3l.11,0Zm4.38-11.59h-.14l-6,2.81-.06,0,2.16,1h.15l6.19-2.8.06,0Zm-8.51,1.74h.13l6.16-2.71,0,0-.11-.06-1.55-.7h-.22l-5.88,2.68-.13.07Z" style="fill:#f7eec9"/><path d="M549.09,42.63l-6.45-3a.22.22,0,0,1-.15-.23V31.27a.22.22,0,0,1,.15-.23l7.28-3.34.14-.08h.06l1.23.58,6.36,2.9a.22.22,0,0,1,.15.24v8.18a.21.21,0,0,1-.15.24l-7.07,3.41-.15.09h0C550,43.05,549.55,42.83,549.09,42.63ZM557,31.55l-6.54,3a.21.21,0,0,0-.15.21c0,2.56,0,5.12,0,7.68v.11l.12-.05,6.6-3.13a.17.17,0,0,0,.12-.18c0-2.52,0-5,0-7.55v-.13Zm-7.36,10.17c0-2.32,0-4.64,0-7a.22.22,0,0,0-.15-.23l-2.08-1-.17-.07v3.75l-.15-.07-1.78-1a.19.19,0,0,1-.12-.2c0-1.13,0-2.26,0-3.39a.21.21,0,0,0-.13-.21l-1.77-.86-.17-.07v7.65a.19.19,0,0,0,.11.21c2.1,1,4.19,2,6.29,3l.11,0Zm4.38-11.59h-.14l-6,2.81,0,0L550,34h.14l6.2-2.8,0,0Zm-8.51,1.74h.12l6.17-2.71,0,0-.11-.06-1.54-.7H550l-5.88,2.68-.14.07Z" style="fill:#f7eec9"/><path d="M529.37,42.63l-6.45-3a.23.23,0,0,1-.16-.23c0-2.73,0-5.45,0-8.18a.21.21,0,0,1,.16-.23l7.27-3.34.15-.08h.06l1.22.58L538,31.1a.23.23,0,0,1,.15.24q0,4.1,0,8.18a.22.22,0,0,1-.15.24l-7.08,3.41-.15.09h0C530.28,43.05,529.83,42.83,529.37,42.63Zm7.93-11.08-6.53,3a.2.2,0,0,0-.15.21v7.79l.13-.05,6.6-3.13a.17.17,0,0,0,.11-.18V31.49Zm-7.36,10.17v-7a.23.23,0,0,0-.14-.23c-.7-.33-1.39-.68-2.08-1l-.17-.07v3.75l-.15-.07-1.78-1a.19.19,0,0,1-.12-.2V32.54a.19.19,0,0,0-.13-.21l-1.76-.86-.17-.07v7.65c0,.09,0,.16.1.21,2.1,1,4.2,2,6.29,3l.11,0Zm4.39-11.59h-.14l-6,2.81-.06,0,2.17,1h.14l6.19-2.8.06,0Zm-8.52,1.74h.13l6.16-2.71,0,0-.11-.06-1.54-.7h-.23l-5.88,2.68-.13.07Z" style="fill:#f7eec9"/><path d="M509.64,42.63l-6.45-3a.22.22,0,0,1-.15-.23V31.27a.22.22,0,0,1,.15-.23l7.28-3.34.14-.08h.06l1.23.58,6.36,2.9a.21.21,0,0,1,.15.24v8.18a.21.21,0,0,1-.15.24l-7.07,3.41-.15.09h0C510.55,43.05,510.1,42.83,509.64,42.63Zm7.94-11.08-6.53,3a.2.2,0,0,0-.15.21v7.79l.13-.05,6.59-3.13a.17.17,0,0,0,.12-.18V31.49Zm-7.36,10.17c0-2.32,0-4.64,0-7a.22.22,0,0,0-.15-.23l-2.08-1-.16-.07v3.75l-.15-.07-1.78-1a.19.19,0,0,1-.12-.2V32.54a.2.2,0,0,0-.13-.21l-1.77-.86-.17-.07v7.65a.19.19,0,0,0,.11.21c2.1,1,4.19,2,6.29,3l.11,0Zm4.38-11.59h-.14l-6,2.81-.05,0,2.16,1h.15l6.19-2.8.05,0Zm-8.51,1.74h.13l6.16-2.71,0,0-.11-.06-1.54-.7h-.22l-5.88,2.68-.13.07Z" style="fill:#f7eec9"/><path d="M709.88,42.63c-2.14-1-4.3-2-6.45-3a.22.22,0,0,1-.15-.23V31.27a.22.22,0,0,1,.15-.23l7.28-3.34.14-.08h.07l1.22.58,6.36,2.9a.23.23,0,0,1,.16.24q0,4.1,0,8.18a.2.2,0,0,1-.15.24l-7.07,3.41-.15.09h0C710.79,43.05,710.34,42.83,709.88,42.63Zm7.94-11.08-6.53,3a.2.2,0,0,0-.15.21v7.79l.13-.05,6.59-3.13a.17.17,0,0,0,.12-.18V31.49Zm-7.36,10.17v-7a.22.22,0,0,0-.15-.23l-2.08-1-.16-.07v3.75l-.15-.07-1.78-1a.19.19,0,0,1-.12-.2V32.54a.2.2,0,0,0-.13-.21l-1.77-.86L704,31.4v.38q0,3.64,0,7.27a.19.19,0,0,0,.11.21c2.1,1,4.19,2,6.29,3l.11,0Zm4.38-11.59h-.14l-6,2.81-.05,0,2.16,1H711l6.19-2.8.05,0Zm-8.51,1.74h.13l6.16-2.71,0,0-.11-.06-1.54-.7h-.22l-5.88,2.68-.13.07Z" style="fill:#f7eec9"/><path d="M690.16,42.63l-6.45-3a.23.23,0,0,1-.16-.23c0-2.73,0-5.45,0-8.18a.23.23,0,0,1,.16-.23L691,27.7l.14-.08h.06l1.23.58,6.36,2.9a.22.22,0,0,1,.15.24v8.18a.22.22,0,0,1-.15.24l-7.07,3.41-.15.09h0C691.07,43.05,690.62,42.83,690.16,42.63Zm7.94-11.08-6.54,3a.21.21,0,0,0-.15.21c0,2.56,0,5.12,0,7.68v.11l.12-.05,6.6-3.13a.17.17,0,0,0,.12-.18c0-2.52,0-5,0-7.55v-.13Zm-7.36,10.17q0-3.48,0-7a.22.22,0,0,0-.14-.23c-.7-.33-1.39-.68-2.08-1l-.17-.07v3.75l-.15-.07-1.78-1a.19.19,0,0,1-.12-.2c0-1.13,0-2.26,0-3.39a.21.21,0,0,0-.13-.21l-1.77-.86-.17-.07v7.65a.19.19,0,0,0,.11.21c2.1,1,4.19,2,6.29,3l.11,0Zm4.38-11.59H695l-6,2.81-.06,0,2.17,1h.14l6.2-2.8,0,0Zm-8.51,1.74h.12l6.17-2.71,0,0-.11-.06-1.54-.7h-.22l-5.88,2.68-.14.07Z" style="fill:#f7eec9"/><path d="M670.44,42.63l-6.45-3a.23.23,0,0,1-.16-.23V31.27A.22.22,0,0,1,664,31l7.28-3.34.15-.08h.06l1.22.58,6.37,2.9a.23.23,0,0,1,.15.24q0,4.1,0,8.18a.22.22,0,0,1-.15.24L672,43.17l-.15.09h0Zm7.93-11.08-6.53,3a.2.2,0,0,0-.15.21v7.79l.13-.05,6.6-3.13a.17.17,0,0,0,.11-.18V31.49ZM671,41.72v-7a.23.23,0,0,0-.14-.23c-.7-.33-1.39-.68-2.08-1l-.17-.07v3.75l-.15-.07-1.78-1a.19.19,0,0,1-.12-.2V32.54a.2.2,0,0,0-.13-.21l-1.76-.86-.17-.07v7.65c0,.09,0,.16.1.21,2.1,1,4.2,2,6.29,3l.11,0Zm4.39-11.59h-.14l-6,2.81-.06,0,2.17,1h.14l6.19-2.8.06,0Zm-8.52,1.74H667l6.16-2.71,0,0-.11-.06-1.54-.7h-.23l-5.88,2.68-.13.07Z" style="fill:#f7eec9"/><path d="M650.71,42.63l-6.45-3a.22.22,0,0,1-.15-.23V31.27a.22.22,0,0,1,.15-.23l7.28-3.34.14-.08h.06l1.23.58,6.36,2.9a.22.22,0,0,1,.15.24v8.18a.21.21,0,0,1-.15.24l-7.07,3.41-.15.09h0C651.62,43.05,651.17,42.83,650.71,42.63Zm7.94-11.08-6.53,3a.21.21,0,0,0-.16.21c0,2.56,0,5.12,0,7.68v.11l.13-.05,6.59-3.13a.17.17,0,0,0,.12-.18V31.49Zm-7.36,10.17c0-2.32,0-4.64,0-7a.22.22,0,0,0-.15-.23l-2.08-1-.16-.07v3.75l-.15-.07-1.79-1a.19.19,0,0,1-.11-.2V32.54a.21.21,0,0,0-.13-.21L645,31.47l-.17-.07v7.65a.19.19,0,0,0,.11.21c2.1,1,4.19,2,6.29,3l.11,0Zm4.38-11.59h-.14l-6,2.81,0,0,2.16,1h.14l6.2-2.8,0,0Zm-8.51,1.74h.13l6.16-2.71,0,0-.11-.06-1.54-.7h-.22l-5.88,2.68-.13.07Z" style="fill:#f7eec9"/><path d="M631,42.63l-6.45-3a.23.23,0,0,1-.16-.23c0-2.73,0-5.45,0-8.18a.21.21,0,0,1,.16-.23l7.27-3.34.15-.08H632l1.23.58,6.36,2.9a.23.23,0,0,1,.15.24v8.18a.22.22,0,0,1-.15.24l-7.07,3.41-.15.09h0C631.9,43.05,631.45,42.83,631,42.63Zm7.93-11.08-6.53,3a.21.21,0,0,0-.15.21v7.79l.12-.05,6.6-3.13a.16.16,0,0,0,.11-.18V31.49Zm-7.36,10.17v-7a.23.23,0,0,0-.14-.23c-.7-.33-1.39-.68-2.08-1l-.17-.07v3.75l-.15-.07-1.78-1a.19.19,0,0,1-.12-.2c0-1.13,0-2.26,0-3.39a.21.21,0,0,0-.13-.21l-1.77-.86-.17-.07v7.65c0,.09,0,.16.11.21l6.29,3,.1,0ZM636,30.13h-.14l-6,2.81-.06,0,2.17,1h.14l6.2-2.8.05,0Zm-8.52,1.74h.13l6.17-2.71,0,0-.11-.06-1.54-.7h-.22q-3,1.34-5.88,2.68l-.14.07Z" style="fill:#f7eec9"/></svg>