<svg id="Layer_1" data-name="Layer 1" xmlns="http://www.w3.org/2000/svg" viewBox="0 0 900 900"><defs><style>.cls-1{fill:#07448e;}.cls-2{font-size:76px;font-family:DINCondensed-Bold, DIN Condensed;font-weight:700;}.cls-2,.cls-4{fill:#f9c7e4;}.cls-3{letter-spacing:-0.07em;}.cls-5{fill:#f7eec9;}.cls-6{fill:none;stroke:#f9c7e4;stroke-miterlimit:10;stroke-width:13px;}</style></defs><title>multiple-developers-multiple-packages</title><rect class="cls-1" width="900" height="900"/><text class="cls-2" transform="translate(40 766.11)">MU<tspan class="cls-3" x="74.63" y="0">L</tspan><tspan x="97.13" y="0">TIPLE DEVELOPERS, </tspan><tspan x="0" y="91.2">MU</tspan><tspan class="cls-3" x="74.63" y="91.2">L</tspan><tspan x="97.13" y="91.2">TIPLE DEPENDENCIES </tspan></text><rect class="cls-4" x="40" y="641" width="815" height="13"/><path class="cls-5" d="M442.8,549.89h-.18a8.25,8.25,0,0,0-.88-.57q-20.91-10.08-41.85-20.13a1.35,1.35,0,0,1-.89-1.42q0-24.21,0-48.42a1.3,1.3,0,0,1,.89-1.4q18.84-8.58,37.65-17.2c2.43-1.11,4.83-2.27,7.25-3.4h.36a8.92,8.92,0,0,0,.86.47q21.51,9.89,43,19.75A1.31,1.31,0,0,1,490,479q0,24.16,0,48.33a1.31,1.31,0,0,1-.92,1.4q-19.08,8.68-38.16,17.42C448.18,547.35,445.49,548.63,442.8,549.89Zm-39.74-69.66c0,.34-.05.57-.05.8q0,22.31,0,44.62a1,1,0,0,0,.68,1.09l39,18.52c.23.11.47.18.75.29,0-.3,0-.48,0-.66q0-22.71,0-45.43a1.2,1.2,0,0,0-.89-1.24L403.94,480.6C403.68,480.48,403.4,480.37,403.06,480.23ZM447.48,544c.32-.14.49-.2.65-.28q18.58-8.79,37.2-17.57c.6-.28.63-.67.63-1.21V479.69c-.41.18-.71.31-1,.45-3.49,1.7-7,3.42-10.46,5.1a1.17,1.17,0,0,0-.78,1.22c0,6.69,0,13.38,0,20.06a1.16,1.16,0,0,1-.7,1.19c-3.52,1.91-7,3.84-10.53,5.76-.23.13-.47.22-.89.42V491.72c-.45.2-.72.31-1,.44-4.11,2-8.2,4-12.32,6a1.29,1.29,0,0,0-.85,1.36q0,20.59,0,41.2Zm-40-65.67a2.38,2.38,0,0,0,.32.23l36.65,16.55a1.09,1.09,0,0,0,.83,0c4.27-2,8.52-4.05,12.81-6.11a2.38,2.38,0,0,0-.33-.25q-17.7-8.32-35.42-16.63a1.14,1.14,0,0,0-.83,0C416.9,474.21,412.26,476.27,407.52,478.37Zm73.69-.33c-.32-.17-.55-.31-.78-.42q-17.39-7.94-34.79-15.85a1.82,1.82,0,0,0-1.32,0c-3.06,1.35-6.08,2.75-9.12,4.14-.21.1-.41.24-.65.38a1.41,1.41,0,0,1,.14.1l36.47,16.06a1,1,0,0,0,.75,0C475,481,478,479.56,481.21,478Z"/><line class="cls-6" x1="168.5" y1="223.5" x2="379.61" y2="419.39"/><polygon class="cls-4" points="345.64 417.94 376.79 416.78 375.62 385.63 389.34 398.35 390.5 429.5 359.35 430.66 345.64 417.94"/><line class="cls-6" x1="448.5" y1="230" x2="448.06" y2="416.84"/><polygon class="cls-4" points="426.08 390.89 448.07 413 470.16 391 470.12 409.71 448.03 431.7 426.04 409.61 426.08 390.89"/><line class="cls-6" x1="728.5" y1="223.5" x2="514.31" y2="425.31"/><polygon class="cls-4" points="518.05 391.51 517.11 422.68 548.27 423.59 534.65 436.43 503.5 435.5 504.43 404.35 518.05 391.51"/><rect class="cls-1" x="73" y="218" width="710" height="24"/><path class="cls-5" d="M81.08,172.7H81c-.12-.07-.22-.16-.34-.22l-16.32-7.85a.52.52,0,0,1-.35-.55q0-9.45,0-18.88a.5.5,0,0,1,.35-.55L79,138l2.82-1.33H82a3.65,3.65,0,0,0,.34.18l16.78,7.7a.52.52,0,0,1,.36.55q0,9.42,0,18.85a.52.52,0,0,1-.36.54l-14.88,6.79Zm-15.5-27.16c0,.13,0,.22,0,.31v17.4a.4.4,0,0,0,.26.43L81,170.9l.29.11c0-.12,0-.19,0-.26V153a.46.46,0,0,0-.34-.48l-15.07-6.87ZM82.9,170.42l.25-.11,14.51-6.85c.24-.11.25-.26.25-.47V145.33l-.39.17c-1.36.67-2.72,1.34-4.08,2a.46.46,0,0,0-.3.48c0,2.61,0,5.22,0,7.82a.46.46,0,0,1-.27.47c-1.38.74-2.74,1.49-4.11,2.24l-.35.17V150l-.38.17-4.8,2.36a.48.48,0,0,0-.33.52q0,8,0,16.07Zm-15.58-25.6.13.09,14.29,6.45a.44.44,0,0,0,.32,0l5-2.39c-.06,0-.09-.08-.13-.1l-13.82-6.48a.44.44,0,0,0-.32,0Zm28.74-.13-.31-.17-13.56-6.18a.77.77,0,0,0-.52,0c-1.19.53-2.37,1.08-3.55,1.62l-.26.14.06,0,14.22,6.27a.48.48,0,0,0,.29,0Z"/><path class="cls-5" d="M126.57,172.7h-.07a4,4,0,0,0-.34-.22l-16.32-7.85a.53.53,0,0,1-.35-.55q0-9.45,0-18.88a.51.51,0,0,1,.35-.55l14.68-6.7,2.83-1.33h.14l.33.18,16.79,7.7a.51.51,0,0,1,.35.55q0,9.42,0,18.85a.51.51,0,0,1-.36.54l-14.88,6.79Zm-15.49-27.16c0,.13,0,.22,0,.31q0,8.7,0,17.4a.41.41,0,0,0,.27.43l15.21,7.22.3.11c0-.12,0-.19,0-.26,0-5.9,0-11.81,0-17.71,0-.28-.13-.38-.35-.48l-15.07-6.87Zm17.32,24.88.25-.11,14.5-6.85c.24-.11.25-.26.25-.47V145.33l-.39.17c-1.36.67-2.71,1.34-4.08,2a.47.47,0,0,0-.3.48q0,3.92,0,7.82a.46.46,0,0,1-.27.47l-4.11,2.24c-.08.05-.18.09-.34.17V150l-.39.17c-1.6.79-3.19,1.58-4.8,2.36a.49.49,0,0,0-.33.52c0,5.36,0,10.71,0,16.07Zm-15.58-25.6.12.09,14.29,6.45a.47.47,0,0,0,.33,0l5-2.39c-.06,0-.09-.08-.13-.1l-13.81-6.48a.44.44,0,0,0-.32,0Zm28.73-.13-.31-.17-13.56-6.18a.77.77,0,0,0-.52,0c-1.19.53-2.37,1.08-3.55,1.62l-.25.14,0,0,14.22,6.27a.48.48,0,0,0,.29,0Z"/><path class="cls-5" d="M172.07,172.7H172c-.12-.07-.23-.16-.35-.22l-16.31-7.85a.52.52,0,0,1-.35-.55q0-9.45,0-18.88a.5.5,0,0,1,.35-.55L170,138l2.82-1.33H173a3.65,3.65,0,0,0,.34.18l16.78,7.7a.52.52,0,0,1,.36.55q0,9.42,0,18.85a.52.52,0,0,1-.36.54l-14.88,6.79C174.16,171.71,173.12,172.21,172.07,172.7Zm-15.5-27.16c0,.13,0,.22,0,.31q0,8.7,0,17.4a.41.41,0,0,0,.27.43L172,170.9l.29.11c0-.12,0-.19,0-.26V153c0-.28-.12-.38-.35-.48l-15.07-6.87Zm17.32,24.88.25-.11,14.51-6.85c.23-.11.25-.26.25-.47q0-8.38,0-16.77v-.89l-.38.17c-1.36.67-2.72,1.34-4.08,2a.46.46,0,0,0-.3.48c0,2.61,0,5.22,0,7.82a.45.45,0,0,1-.28.47l-4.1,2.24-.35.17V150l-.38.17-4.8,2.36a.48.48,0,0,0-.33.52q0,8,0,16.07Zm-15.58-25.6.12.09,14.29,6.45a.47.47,0,0,0,.33,0l5-2.39c-.06,0-.09-.08-.13-.1l-13.82-6.48a.44.44,0,0,0-.32,0Zm28.73-.13-.3-.17-13.57-6.18a.75.75,0,0,0-.51,0c-1.19.53-2.37,1.08-3.55,1.62l-.26.14.06,0,14.22,6.27a.48.48,0,0,0,.29,0Z"/><path class="cls-5" d="M217.56,172.7h-.07a4,4,0,0,0-.34-.22l-16.32-7.85a.53.53,0,0,1-.35-.55q0-9.45,0-18.88a.51.51,0,0,1,.35-.55l14.68-6.7,2.83-1.33h.14l.33.18,16.78,7.7a.51.51,0,0,1,.36.55q0,9.42,0,18.85a.52.52,0,0,1-.36.54l-14.88,6.79Zm-15.49-27.16c0,.13,0,.22,0,.31q0,8.7,0,17.4a.41.41,0,0,0,.27.43l15.21,7.22.3.11c0-.12,0-.19,0-.26q0-8.85,0-17.71c0-.28-.13-.38-.35-.48l-15.07-6.87Zm17.31,24.88.26-.11,14.5-6.85c.24-.11.25-.26.25-.47V145.33l-.39.17c-1.36.67-2.71,1.34-4.08,2a.46.46,0,0,0-.3.48c0,2.61,0,5.22,0,7.82a.46.46,0,0,1-.27.47l-4.11,2.24-.34.17V150l-.39.17c-1.6.79-3.19,1.58-4.8,2.36a.49.49,0,0,0-.33.52c0,5.36,0,10.71,0,16.07C219.38,169.55,219.38,170,219.38,170.42Zm-15.57-25.6.12.09,14.29,6.45a.45.45,0,0,0,.32,0l5-2.39c-.06,0-.09-.08-.13-.1l-13.81-6.48a.47.47,0,0,0-.33,0Zm28.73-.13-.31-.17-13.56-6.18a.77.77,0,0,0-.52,0c-1.19.53-2.37,1.08-3.55,1.62l-.26.14.06,0,14.22,6.27a.48.48,0,0,0,.29,0Z"/><path class="cls-5" d="M263.05,172.7H263a4,4,0,0,0-.34-.22q-8.16-3.93-16.32-7.85a.52.52,0,0,1-.34-.55q0-9.45,0-18.88a.51.51,0,0,1,.34-.55L261,138l2.83-1.33H264l.33.18,16.79,7.7a.51.51,0,0,1,.35.55q0,9.42,0,18.85a.5.5,0,0,1-.35.54q-7.45,3.39-14.88,6.79C265.15,171.71,264.11,172.21,263.05,172.7Zm-15.49-27.16c0,.13,0,.22,0,.31q0,8.7,0,17.4a.41.41,0,0,0,.27.43L263,170.9l.29.11c0-.12,0-.19,0-.26,0-5.9,0-11.81,0-17.71,0-.28-.13-.38-.35-.48l-15.07-6.87Zm17.32,24.88.25-.11,14.51-6.85a.41.41,0,0,0,.24-.47V145.33l-.38.17c-1.36.67-2.72,1.34-4.08,2a.46.46,0,0,0-.3.48c0,2.61,0,5.22,0,7.82a.45.45,0,0,1-.28.47l-4.1,2.24-.35.17V150l-.38.17-4.8,2.36a.49.49,0,0,0-.34.52c0,5.36,0,10.71,0,16.07Zm-15.58-25.6.12.09,14.29,6.45a.47.47,0,0,0,.33,0l5-2.39a.91.91,0,0,0-.13-.1l-13.81-6.48a.44.44,0,0,0-.32,0Zm28.73-.13-.3-.17-13.57-6.18a.75.75,0,0,0-.51,0c-1.19.53-2.37,1.08-3.56,1.62l-.25.14.05,0,14.22,6.27a.48.48,0,0,0,.29,0Z"/><path class="cls-5" d="M191.41,230.15H146.24c.2-4.32,3.91-8.93,8-9.91a2.12,2.12,0,0,0,1.66-1.94,51.67,51.67,0,0,0,.58-7.13c0-2.77-.48-5.54-.48-8.31a17.57,17.57,0,0,1,1.81-7.84,10.21,10.21,0,0,1,10.05-6.2,32.06,32.06,0,0,1,3.54.1,10,10,0,0,1,8.06,6.17,22.76,22.76,0,0,1,1.56,13,25.68,25.68,0,0,0,0,9.21,7.75,7.75,0,0,0,.79,2.12,1.67,1.67,0,0,0,1,.77,8.92,8.92,0,0,1,6.45,5.15C190.14,226.82,190.7,228.43,191.41,230.15Zm-13-25.76c-.79,1.51-1.67.8-2.59.32q-5.26-2.73-10.56-5.43a2.84,2.84,0,0,0-3.88.68,20.42,20.42,0,0,0-1.79,3.63c-.14.29-.17.71-.39.89-1.25,1-1,4,.39,4.77a1.9,1.9,0,0,1,.76.83,15.51,15.51,0,0,0,3.62,5.48c3,2.78,6.39,2.81,9.38.06a15,15,0,0,0,3.64-5.48,1.82,1.82,0,0,1,.5-.83A3.52,3.52,0,0,0,178.43,204.39Zm-18,15.37c.63,2,4.69,4.19,8.24,4.19s7.56-2.14,8.24-4.21l-2.33-2.57c-3.67,3.17-7.4,3.75-11.75,0Z"/><path class="cls-5" d="M640.86,172.7h-.07a4,4,0,0,0-.34-.22l-16.32-7.85a.53.53,0,0,1-.35-.55q0-9.45,0-18.88a.51.51,0,0,1,.35-.55l14.68-6.7,2.83-1.33h.14l.33.18,16.78,7.7a.51.51,0,0,1,.36.55q0,9.42,0,18.85a.52.52,0,0,1-.36.54L644,171.23Zm-15.49-27.16c0,.13,0,.22,0,.31q0,8.7,0,17.4a.41.41,0,0,0,.27.43l15.21,7.22.3.11c0-.12,0-.19,0-.26q0-8.85,0-17.71c0-.28-.13-.38-.35-.48l-15.07-6.87Zm17.31,24.88.26-.11,14.5-6.85c.24-.11.25-.26.25-.47V145.33l-.39.17c-1.36.67-2.71,1.34-4.08,2a.46.46,0,0,0-.3.48c0,2.61,0,5.22,0,7.82a.46.46,0,0,1-.27.47l-4.11,2.24-.34.17V150l-.39.17c-1.6.79-3.19,1.58-4.8,2.36a.49.49,0,0,0-.33.52q0,8,0,16.07Zm-15.58-25.6.13.09,14.29,6.45a.45.45,0,0,0,.32,0l5-2.39c-.06,0-.09-.08-.13-.1l-13.81-6.48a.47.47,0,0,0-.33,0Zm28.74-.13-.31-.17L642,138.34a.77.77,0,0,0-.52,0c-1.19.53-2.37,1.08-3.55,1.62l-.26.14.06,0,14.22,6.27a.48.48,0,0,0,.29,0Z"/><path class="cls-5" d="M686.35,172.7h-.07a4,4,0,0,0-.34-.22q-8.16-3.93-16.32-7.85a.52.52,0,0,1-.34-.55q0-9.45,0-18.88a.51.51,0,0,1,.34-.55L684.3,138l2.83-1.33h.14l.33.18,16.79,7.7a.51.51,0,0,1,.35.55q0,9.42,0,18.85a.5.5,0,0,1-.35.54q-7.46,3.39-14.88,6.79C688.45,171.71,687.4,172.21,686.35,172.7Zm-15.49-27.16c0,.13,0,.22,0,.31q0,8.7,0,17.4a.41.41,0,0,0,.27.43l15.22,7.22.29.11c0-.12,0-.19,0-.26,0-5.9,0-11.81,0-17.71,0-.28-.13-.38-.35-.48l-15.07-6.87Zm17.32,24.88.25-.11,14.51-6.85c.23-.11.24-.26.24-.47V145.33l-.38.17c-1.36.67-2.72,1.34-4.08,2a.46.46,0,0,0-.3.48c0,2.61,0,5.22,0,7.82a.45.45,0,0,1-.28.47l-4.1,2.24-.35.17V150l-.38.17-4.8,2.36a.49.49,0,0,0-.34.52c0,5.36,0,10.71,0,16.07Zm-15.58-25.6.12.09L687,151.36a.47.47,0,0,0,.33,0l5-2.39a.91.91,0,0,0-.13-.1l-13.81-6.48a.44.44,0,0,0-.32,0Zm28.73-.13-.3-.17-13.57-6.18a.75.75,0,0,0-.51,0c-1.19.53-2.37,1.08-3.56,1.62l-.25.14.05,0,14.22,6.27a.48.48,0,0,0,.29,0Z"/><path class="cls-5" d="M731.85,172.7h-.07c-.12-.07-.22-.16-.34-.22l-16.32-7.85a.53.53,0,0,1-.35-.55q0-9.45,0-18.88a.5.5,0,0,1,.35-.55L729.8,138l2.82-1.33h.14c.12.06.22.13.34.18l16.78,7.7a.52.52,0,0,1,.36.55q0,9.42,0,18.85a.52.52,0,0,1-.36.54L735,171.23Zm-15.5-27.16c0,.13,0,.22,0,.31v17.4a.4.4,0,0,0,.26.43l15.22,7.22.29.11c0-.12,0-.19,0-.26V153a.46.46,0,0,0-.34-.48l-15.07-6.87Zm17.32,24.88.26-.11,14.5-6.85c.24-.11.25-.26.25-.47V145.33l-.39.17c-1.36.67-2.72,1.34-4.08,2a.46.46,0,0,0-.3.48c0,2.61,0,5.22,0,7.82a.46.46,0,0,1-.27.47c-1.38.74-2.74,1.49-4.11,2.24l-.35.17V150l-.38.17-4.8,2.36a.49.49,0,0,0-.33.52q0,8,0,16.07Zm-15.58-25.6.13.09,14.29,6.45a.44.44,0,0,0,.32,0l5-2.39c-.06,0-.09-.08-.13-.1l-13.81-6.48a.47.47,0,0,0-.33,0Zm28.74-.13-.31-.17L733,138.34a.77.77,0,0,0-.52,0c-1.19.53-2.37,1.08-3.55,1.62l-.26.14.06,0,14.22,6.27a.48.48,0,0,0,.29,0Z"/><path class="cls-5" d="M777.34,172.7h-.07a4,4,0,0,0-.34-.22q-8.16-3.93-16.32-7.85a.52.52,0,0,1-.34-.55V145.2a.5.5,0,0,1,.34-.55l14.68-6.7,2.83-1.33h.14l.33.18,16.79,7.7a.51.51,0,0,1,.35.55q0,9.42,0,18.85a.51.51,0,0,1-.36.54l-14.88,6.79Zm-15.49-27.16c0,.13,0,.22,0,.31q0,8.7,0,17.4a.41.41,0,0,0,.27.43l15.22,7.22.29.11c0-.12,0-.19,0-.26,0-5.9,0-11.81,0-17.71,0-.28-.13-.38-.35-.48l-15.07-6.87Zm17.32,24.88.25-.11,14.51-6.85c.23-.11.24-.26.24-.47V145.33l-.39.17c-1.35.67-2.71,1.34-4.07,2a.47.47,0,0,0-.31.48q0,3.92,0,7.82a.44.44,0,0,1-.27.47L785,158.5c-.08.05-.18.09-.34.17V150l-.38.17-4.81,2.36a.49.49,0,0,0-.33.52c0,5.36,0,10.71,0,16.07Zm-15.58-25.6.12.09L778,151.36a.47.47,0,0,0,.33,0l5-2.39a.91.91,0,0,0-.13-.1l-13.81-6.48a.44.44,0,0,0-.32,0Zm28.73-.13-.31-.17-13.56-6.18a.77.77,0,0,0-.52,0c-1.19.53-2.37,1.08-3.55,1.62l-.25.14,0,0,14.22,6.27a.48.48,0,0,0,.29,0Z"/><path class="cls-5" d="M822.84,172.7h-.07c-.12-.07-.22-.16-.35-.22l-16.31-7.85a.52.52,0,0,1-.35-.55q0-9.45,0-18.88a.5.5,0,0,1,.35-.55l14.68-6.7,2.82-1.33h.14a3.65,3.65,0,0,0,.34.18l16.78,7.7a.52.52,0,0,1,.36.55q0,9.42,0,18.85a.52.52,0,0,1-.36.54L826,171.23C824.93,171.71,823.89,172.21,822.84,172.7Zm-15.5-27.16c0,.13,0,.22,0,.31v17.4a.4.4,0,0,0,.26.43l15.22,7.22.29.11c0-.12,0-.19,0-.26V153a.46.46,0,0,0-.34-.48l-15.07-6.87Zm17.32,24.88.25-.11,14.51-6.85c.23-.11.25-.26.25-.47,0-5.59,0-11.18,0-16.77v-.89l-.39.17c-1.36.67-2.72,1.34-4.08,2a.46.46,0,0,0-.3.48c0,2.61,0,5.22,0,7.82a.46.46,0,0,1-.27.47c-1.38.74-2.74,1.49-4.11,2.24l-.35.17V150l-.38.17-4.8,2.36a.48.48,0,0,0-.33.52q0,8,0,16.07Zm-15.58-25.6.13.09,14.28,6.45a.47.47,0,0,0,.33,0l5-2.39c-.06,0-.09-.08-.13-.1l-13.82-6.48a.44.44,0,0,0-.32,0Zm28.74-.13-.31-.17L824,138.34a.77.77,0,0,0-.52,0c-1.19.53-2.37,1.08-3.55,1.62l-.26.14.06,0,14.22,6.27a.48.48,0,0,0,.29,0Z"/><path class="cls-5" d="M751.19,230.15H706c.2-4.32,3.91-8.93,8-9.91a2.11,2.11,0,0,0,1.66-1.94,53.28,53.28,0,0,0,.59-7.13c0-2.77-.49-5.54-.49-8.31a17.7,17.7,0,0,1,1.81-7.84c2-4.16,5.36-6.3,10-6.2a32.06,32.06,0,0,1,3.54.1,10,10,0,0,1,8.07,6.17,22.85,22.85,0,0,1,1.55,13,25.91,25.91,0,0,0,0,9.21,8.09,8.09,0,0,0,.79,2.12,1.69,1.69,0,0,0,1,.77,9,9,0,0,1,6.46,5.15C749.93,226.82,750.48,228.43,751.19,230.15Zm-13-25.76c-.78,1.51-1.67.8-2.59.32q-5.26-2.73-10.55-5.43a2.85,2.85,0,0,0-3.89.68,21.12,21.12,0,0,0-1.79,3.63c-.14.29-.17.71-.39.89-1.25,1-1,4,.39,4.77a1.9,1.9,0,0,1,.76.83,15.51,15.51,0,0,0,3.62,5.48c3,2.78,6.39,2.81,9.39.06a15,15,0,0,0,3.63-5.48,1.83,1.83,0,0,1,.51-.83A3.52,3.52,0,0,0,738.21,204.39Zm-18,15.37c.63,2,4.7,4.19,8.24,4.19s7.56-2.14,8.24-4.21l-2.32-2.57c-3.68,3.17-7.41,3.75-11.76,0Z"/><path class="cls-5" d="M361,172.7h-.07c-.12-.07-.22-.16-.34-.22l-16.32-7.85a.53.53,0,0,1-.35-.55q0-9.45,0-18.88a.5.5,0,0,1,.35-.55l14.68-6.7,2.82-1.33h.15a3.47,3.47,0,0,0,.33.18L379,144.5a.52.52,0,0,1,.36.55q0,9.42,0,18.85a.52.52,0,0,1-.36.54l-14.88,6.79Zm-15.49-27.16c0,.13,0,.22,0,.31v17.4a.4.4,0,0,0,.26.43l15.22,7.22.29.11c0-.12,0-.19,0-.26q0-8.85,0-17.71c0-.28-.12-.38-.34-.48l-15.07-6.87Zm17.31,24.88.26-.11,14.5-6.85c.24-.11.25-.26.25-.47V145.33l-.39.17c-1.36.67-2.72,1.34-4.08,2a.46.46,0,0,0-.3.48c0,2.61,0,5.22,0,7.82a.46.46,0,0,1-.27.47c-1.38.74-2.74,1.49-4.11,2.24l-.35.17V150l-.38.17-4.8,2.36a.49.49,0,0,0-.33.52q0,8,0,16.07Zm-15.58-25.6.13.09,14.29,6.45a.44.44,0,0,0,.32,0l5-2.39c-.06,0-.09-.08-.13-.1L353,142.41a.47.47,0,0,0-.33,0Zm28.74-.13-.31-.17-13.56-6.18a.77.77,0,0,0-.52,0c-1.19.53-2.37,1.08-3.55,1.62l-.26.14.06,0L372,146.41a.48.48,0,0,0,.29,0Z"/><path class="cls-5" d="M406.46,172.7h-.07a4,4,0,0,0-.34-.22q-8.16-3.93-16.32-7.85a.52.52,0,0,1-.34-.55V145.2a.51.51,0,0,1,.34-.55l14.68-6.7,2.83-1.33h.14l.33.18,16.79,7.7a.51.51,0,0,1,.35.55q0,9.42,0,18.85a.51.51,0,0,1-.36.54l-14.87,6.79C408.56,171.71,407.51,172.21,406.46,172.7ZM391,145.54c0,.13,0,.22,0,.31q0,8.7,0,17.4a.41.41,0,0,0,.27.43l15.22,7.22.29.11c0-.12,0-.19,0-.26,0-5.9,0-11.81,0-17.71,0-.28-.13-.38-.35-.48l-15.07-6.87Zm17.32,24.88.25-.11,14.51-6.85c.23-.11.24-.26.24-.47V145.33l-.39.17c-1.35.67-2.71,1.34-4.07,2a.47.47,0,0,0-.31.48c0,2.61,0,5.22,0,7.82a.46.46,0,0,1-.28.47l-4.1,2.24-.35.17V150l-.38.17-4.81,2.36a.49.49,0,0,0-.33.52c0,5.36,0,10.71,0,16.07Zm-15.58-25.6.12.09,14.29,6.45a.47.47,0,0,0,.33,0l5-2.39a.91.91,0,0,0-.13-.1l-13.81-6.48a.44.44,0,0,0-.32,0Zm28.73-.13-.31-.17-13.56-6.18a.77.77,0,0,0-.52,0c-1.19.53-2.37,1.08-3.55,1.62l-.25.14.05,0,14.22,6.27a.48.48,0,0,0,.29,0Z"/><path class="cls-5" d="M452,172.7h-.07c-.12-.07-.22-.16-.34-.22l-16.32-7.85a.52.52,0,0,1-.35-.55q0-9.45,0-18.88a.5.5,0,0,1,.35-.55l14.68-6.7,2.82-1.33h.14a3.65,3.65,0,0,0,.34.18L470,144.5a.52.52,0,0,1,.36.55q0,9.42,0,18.85a.52.52,0,0,1-.36.54l-14.88,6.79Zm-15.5-27.16c0,.13,0,.22,0,.31v17.4a.4.4,0,0,0,.26.43l15.22,7.22.29.11c0-.12,0-.19,0-.26V153a.46.46,0,0,0-.34-.48l-15.07-6.87Zm17.32,24.88.25-.11,14.51-6.85c.23-.11.25-.26.25-.47,0-5.59,0-11.18,0-16.77v-.89l-.39.17c-1.36.67-2.72,1.34-4.08,2a.46.46,0,0,0-.3.48c0,2.61,0,5.22,0,7.82a.46.46,0,0,1-.27.47c-1.38.74-2.74,1.49-4.11,2.24l-.35.17V150l-.38.17-4.8,2.36a.48.48,0,0,0-.33.52q0,8,0,16.07Zm-15.58-25.6.13.09,14.29,6.45a.44.44,0,0,0,.32,0l5-2.39c-.06,0-.09-.08-.13-.1L444,142.41a.44.44,0,0,0-.32,0Zm28.74-.13-.31-.17-13.56-6.18a.77.77,0,0,0-.52,0c-1.19.53-2.37,1.08-3.55,1.62l-.26.14.06,0L463,146.41a.48.48,0,0,0,.29,0Z"/><path class="cls-5" d="M497.45,172.7h-.07a4,4,0,0,0-.34-.22l-16.32-7.85a.53.53,0,0,1-.35-.55q0-9.45,0-18.88a.51.51,0,0,1,.35-.55L495.4,138l2.83-1.33h.14l.33.18,16.79,7.7a.51.51,0,0,1,.35.55q0,9.42,0,18.85a.51.51,0,0,1-.36.54l-14.88,6.79ZM482,145.54c0,.13,0,.22,0,.31q0,8.7,0,17.4a.41.41,0,0,0,.27.43l15.21,7.22.3.11c0-.12,0-.19,0-.26,0-5.9,0-11.81,0-17.71,0-.28-.13-.38-.35-.48l-15.07-6.87Zm17.32,24.88.25-.11,14.5-6.85c.24-.11.25-.26.25-.47V145.33l-.39.17c-1.36.67-2.71,1.34-4.08,2a.47.47,0,0,0-.3.48q0,3.92,0,7.82a.46.46,0,0,1-.27.47l-4.11,2.24c-.08.05-.18.09-.34.17V150l-.39.17c-1.6.79-3.19,1.58-4.8,2.36a.49.49,0,0,0-.33.52c0,5.36,0,10.71,0,16.07Zm-15.58-25.6.12.09,14.29,6.45a.47.47,0,0,0,.33,0l5-2.39c-.06,0-.09-.08-.13-.1l-13.81-6.48a.44.44,0,0,0-.32,0Zm28.73-.13-.31-.17-13.56-6.18a.77.77,0,0,0-.52,0c-1.19.53-2.37,1.08-3.55,1.62l-.25.14.05,0,14.22,6.27a.48.48,0,0,0,.29,0Z"/><path class="cls-5" d="M543,172.7h-.07c-.12-.07-.23-.16-.35-.22l-16.31-7.85a.52.52,0,0,1-.35-.55q0-9.45,0-18.88a.5.5,0,0,1,.35-.55L540.9,138l2.82-1.33h.14a3.65,3.65,0,0,0,.34.18L561,144.5a.52.52,0,0,1,.36.55q0,9.42,0,18.85a.52.52,0,0,1-.36.54l-14.88,6.79C545,171.71,544,172.21,543,172.7Zm-15.5-27.16c0,.13,0,.22,0,.31q0,8.7,0,17.4a.41.41,0,0,0,.27.43l15.22,7.22.29.11c0-.12,0-.19,0-.26,0-5.9,0-11.81,0-17.71,0-.28-.12-.38-.35-.48l-15.07-6.87Zm17.32,24.88.25-.11,14.51-6.85c.23-.11.25-.26.25-.47q0-8.38,0-16.77v-.89l-.38.17c-1.36.67-2.72,1.34-4.08,2a.46.46,0,0,0-.3.48c0,2.61,0,5.22,0,7.82a.45.45,0,0,1-.28.47l-4.1,2.24-.35.17V150l-.38.17-4.8,2.36a.48.48,0,0,0-.33.52q0,8,0,16.07Zm-15.58-25.6.12.09,14.29,6.45a.47.47,0,0,0,.33,0l5-2.39a.57.57,0,0,0-.13-.1L535,142.41a.44.44,0,0,0-.32,0Zm28.73-.13-.3-.17-13.57-6.18a.75.75,0,0,0-.51,0c-1.19.53-2.37,1.08-3.56,1.62l-.25.14.06,0L554,146.41a.48.48,0,0,0,.29,0Z"/><path class="cls-5" d="M471.3,230.15H426.13c.2-4.32,3.91-8.93,8-9.91a2.11,2.11,0,0,0,1.66-1.94,53.28,53.28,0,0,0,.59-7.13c0-2.77-.49-5.54-.49-8.31a17.7,17.7,0,0,1,1.81-7.84c2.05-4.16,5.36-6.3,10.05-6.2a32.06,32.06,0,0,1,3.54.1,10,10,0,0,1,8.06,6.17,22.76,22.76,0,0,1,1.56,13,25.91,25.91,0,0,0,0,9.21,8.09,8.09,0,0,0,.79,2.12,1.67,1.67,0,0,0,1,.77,9,9,0,0,1,6.46,5.15C470,226.82,470.59,228.43,471.3,230.15Zm-13-25.76c-.78,1.51-1.67.8-2.59.32q-5.26-2.73-10.56-5.43a2.84,2.84,0,0,0-3.88.68,21.12,21.12,0,0,0-1.79,3.63c-.14.29-.17.71-.39.89-1.25,1-1,4,.39,4.77a1.9,1.9,0,0,1,.76.83,15.51,15.51,0,0,0,3.62,5.48c3,2.78,6.39,2.81,9.38.06a15,15,0,0,0,3.64-5.48,1.91,1.91,0,0,1,.5-.83A3.52,3.52,0,0,0,458.32,204.39Zm-18,15.37c.63,2,4.7,4.19,8.24,4.19s7.56-2.14,8.24-4.21l-2.32-2.57c-3.68,3.17-7.41,3.75-11.76,0Z"/></svg>