<svg id="Layer_1" data-name="Layer 1" xmlns="http://www.w3.org/2000/svg" viewBox="0 0 900 900"><defs><style>.cls-1{fill:#07448e;}.cls-2{font-size:76px;font-family:DINCondensed-Bold, DIN Condensed;font-weight:700;}.cls-2,.cls-4{fill:#f9c7e4;}.cls-3{letter-spacing:-0.07em;}.cls-5{fill:#f7eec9;}.cls-6{fill:none;stroke:#f9c7e4;stroke-miterlimit:10;stroke-width:13px;}</style></defs><title>multiple-developers-multiple-packages-used-by-multiple-developers</title><rect class="cls-1" width="900" height="900"/><text class="cls-2" transform="translate(54 675.11)">MU<tspan class="cls-3" x="74.63" y="0">L</tspan><tspan x="97.13" y="0">TIPLE DEVELOPERS, </tspan><tspan x="0" y="91.2">MU</tspan><tspan class="cls-3" x="74.63" y="91.2">L</tspan><tspan x="97.13" y="91.2">TIPLE DEPENDENCIES, </tspan><tspan x="0" y="182.4">USED BY MU</tspan><tspan class="cls-3" x="288.49" y="182.4">L</tspan><tspan x="310.99" y="182.4">TIPLE DEPENDENCIES </tspan></text><rect class="cls-4" x="54" y="550" width="815" height="13"/><path class="cls-5" d="M455.8,510.89h-.18a8.25,8.25,0,0,0-.88-.57q-20.91-10.08-41.85-20.13a1.35,1.35,0,0,1-.89-1.42q0-24.21,0-48.42a1.3,1.3,0,0,1,.89-1.4q18.84-8.58,37.65-17.2c2.43-1.11,4.83-2.27,7.25-3.4h.36a8.92,8.92,0,0,0,.86.47q21.51,9.89,43,19.75A1.31,1.31,0,0,1,503,440q0,24.16,0,48.33a1.31,1.31,0,0,1-.92,1.4q-19.08,8.69-38.16,17.42C461.18,508.35,458.49,509.63,455.8,510.89Zm-39.74-69.66c0,.34-.05.57-.05.8q0,22.31,0,44.62a1,1,0,0,0,.68,1.09l39,18.52c.23.11.47.18.75.29,0-.3,0-.48,0-.66q0-22.71,0-45.43a1.2,1.2,0,0,0-.89-1.24L416.94,441.6C416.68,441.48,416.4,441.37,416.06,441.23ZM460.48,505c.32-.14.49-.2.65-.28q18.58-8.79,37.2-17.57c.6-.28.63-.67.63-1.21V440.69c-.41.18-.71.31-1,.45-3.49,1.7-7,3.42-10.46,5.1a1.17,1.17,0,0,0-.78,1.22c0,6.69,0,13.38,0,20.06a1.16,1.16,0,0,1-.7,1.19c-3.52,1.91-7,3.84-10.53,5.76-.23.13-.47.22-.89.42V452.72c-.45.2-.72.31-1,.44-4.11,2-8.2,4-12.32,6a1.29,1.29,0,0,0-.85,1.36q0,20.59,0,41.2Zm-40-65.67a2.38,2.38,0,0,0,.32.23l36.65,16.55a1.09,1.09,0,0,0,.83,0c4.27-2,8.52-4.05,12.81-6.11a2.38,2.38,0,0,0-.33-.25q-17.7-8.32-35.42-16.63a1.14,1.14,0,0,0-.83,0C429.9,435.21,425.26,437.27,420.52,439.37Zm73.69-.33c-.32-.17-.55-.31-.78-.42q-17.39-7.94-34.79-15.85a1.82,1.82,0,0,0-1.32,0c-3.06,1.35-6.08,2.75-9.12,4.14-.21.1-.41.24-.65.38a1.41,1.41,0,0,1,.14.1l36.47,16.06a1,1,0,0,0,.75,0C488,442,491,440.56,494.21,439Z"/><line class="cls-6" x1="236.5" y1="283.5" x2="390.99" y2="382.48"/><polygon class="cls-4" points="357.3 387.07 387.75 380.41 381.08 349.96 396.83 360.05 403.5 390.5 373.05 397.17 357.3 387.07"/><line class="cls-6" x1="654.5" y1="282.5" x2="527.96" y2="387.04"/><polygon class="cls-4" points="533.88 353.55 530.92 384.59 561.96 387.54 547.53 399.45 516.5 396.5 519.46 365.47 533.88 353.55"/><rect class="cls-1" x="170" y="274" width="567" height="31"/><rect class="cls-4" x="164.16" y="62.9" width="5.5" height="121.91" transform="translate(-37.41 161.96) rotate(-47.14)"/><polygon class="cls-4" points="197.22 164.7 210.41 164.21 209.91 151.02 215.71 156.41 216.21 169.6 203.02 170.09 197.22 164.7"/><rect class="cls-4" x="201.12" y="121.94" width="79.09" height="5.5" transform="translate(115.41 365.07) rotate(-89.87)"/><polygon class="cls-4" points="231.27 153.25 240.58 162.61 249.93 153.3 249.91 161.22 240.56 170.53 231.25 161.18 231.27 153.25"/><rect class="cls-4" x="251.67" y="122.36" width="124.57" height="5.5" transform="translate(-0.35 249.33) rotate(-43.29)"/><polygon class="cls-4" points="270.2 153.52 269.8 166.71 282.99 167.1 277.23 172.53 264.04 172.14 264.43 158.95 270.2 153.52"/><rect class="cls-1" x="81.81" y="80.07" width="300.54" height="10.16"/><path class="cls-5" d="M85.23,60.89h0l-.15-.09-6.9-3.32a.24.24,0,0,1-.15-.24v-8a.21.21,0,0,1,.15-.23l6.21-2.84,1.2-.56h.06l.14.08L92.86,49a.21.21,0,0,1,.15.23v8a.22.22,0,0,1-.15.23l-6.3,2.87ZM78.67,49.4c0,.05,0,.09,0,.13v7.36a.17.17,0,0,0,.11.18l6.44,3.06.13,0V52.57c0-.12,0-.16-.15-.2l-6.37-2.91ZM86,59.93l.11,0L92.25,57c.1,0,.1-.11.1-.2V49.31l-.16.07c-.58.28-1.15.57-1.73.84a.21.21,0,0,0-.13.21c0,1.1,0,2.2,0,3.31a.18.18,0,0,1-.12.19l-1.74,1-.14.07V51.29l-.16.08-2,1a.22.22,0,0,0-.14.23c0,2.26,0,4.53,0,6.8ZM79.41,49.09l0,0,6.05,2.73a.23.23,0,0,0,.14,0l2.11-1s0,0-.06,0l-5.84-2.75a.17.17,0,0,0-.14,0ZM91.57,49a.56.56,0,0,0-.13-.07L85.7,46.35a.28.28,0,0,0-.22,0L84,47l-.11.07h0l6,2.65a.17.17,0,0,0,.12,0Z"/><path class="cls-5" d="M104.49,60.89h0l-.15-.09L97.4,57.48a.23.23,0,0,1-.14-.24v-8A.21.21,0,0,1,97.4,49l6.22-2.84,1.19-.56h.06l.15.08,7.1,3.26a.21.21,0,0,1,.15.23v8a.22.22,0,0,1-.15.23l-6.3,2.87ZM97.93,49.4a.62.62,0,0,0,0,.13v7.36a.16.16,0,0,0,.11.18l6.44,3.06.12,0a.49.49,0,0,0,0-.11v-7.5c0-.12,0-.16-.15-.2l-6.38-2.91Zm7.33,10.53.11,0,6.14-2.9c.1,0,.1-.11.1-.2V49.31l-.16.07c-.58.28-1.15.57-1.73.84a.21.21,0,0,0-.13.21c0,1.1,0,2.2,0,3.31a.18.18,0,0,1-.12.19l-1.74,1-.14.07V51.29l-.17.08-2,1a.22.22,0,0,0-.14.23v7.34Zm-6.6-10.84.06,0,6,2.73a.2.2,0,0,0,.13,0l2.12-1s0,0-.06,0l-5.84-2.75a.17.17,0,0,0-.14,0ZM110.83,49a.88.88,0,0,0-.13-.07L105,46.35a.28.28,0,0,0-.22,0l-1.51.68-.1.07h0l6,2.65a.17.17,0,0,0,.12,0Z"/><path class="cls-5" d="M123.74,60.89h0l-.14-.09-6.91-3.32a.23.23,0,0,1-.14-.24v-8a.21.21,0,0,1,.14-.23l6.22-2.84,1.19-.56h.06l.14.08L131.38,49a.21.21,0,0,1,.15.23q0,4,0,8a.23.23,0,0,1-.15.23l-6.3,2.87ZM117.19,49.4a.62.62,0,0,0,0,.13c0,2.45,0,4.91,0,7.36a.16.16,0,0,0,.12.18l6.44,3.06.12,0s0-.08,0-.11c0-2.5,0-5,0-7.5,0-.12-.06-.16-.15-.2l-6.38-2.91Zm7.33,10.53.1,0,6.14-2.9c.1,0,.11-.11.11-.2V49.31l-.17.07-1.72.84a.2.2,0,0,0-.13.21v3.31a.19.19,0,0,1-.11.19l-1.74,1-.15.07V51.29l-.16.08-2,1a.22.22,0,0,0-.14.23v7.34Zm-6.6-10.84,0,0,6,2.73a.23.23,0,0,0,.14,0l2.12-1s0,0-.06,0l-5.85-2.75a.15.15,0,0,0-.13,0ZM130.08,49A.56.56,0,0,0,130,49l-5.74-2.62a.28.28,0,0,0-.22,0l-1.5.68-.11.07h0l6,2.65a.17.17,0,0,0,.12,0Z"/><path class="cls-5" d="M143,60.89h0l-.14-.09-6.91-3.32a.24.24,0,0,1-.15-.24q0-4,0-8a.22.22,0,0,1,.15-.23l6.21-2.84,1.2-.56h.06l.14.08L150.64,49a.21.21,0,0,1,.15.23q0,4,0,8a.23.23,0,0,1-.16.23l-6.29,2.87ZM136.44,49.4c0,.05,0,.09,0,.13v7.36a.17.17,0,0,0,.11.18L143,60.13l.12,0V52.57a.19.19,0,0,0-.14-.2l-6.38-2.91Zm7.33,10.53a.28.28,0,0,0,.11,0L150,57c.1,0,.11-.11.11-.2V49.31l-.17.07-1.72.84a.2.2,0,0,0-.13.21v3.31a.19.19,0,0,1-.11.19l-1.74,1-.15.07V51.29l-.16.08-2,1a.21.21,0,0,0-.14.23q0,3.39,0,6.8Zm-6.59-10.84,0,0,6.05,2.73a.23.23,0,0,0,.14,0l2.11-1s0,0-.05,0l-5.85-2.75a.17.17,0,0,0-.14,0ZM149.34,49a.56.56,0,0,0-.13-.07l-5.74-2.62a.28.28,0,0,0-.22,0l-1.5.68-.11.07h0l6,2.65a.2.2,0,0,0,.13,0Z"/><path class="cls-5" d="M162.26,60.89h0l-.14-.09-6.91-3.32a.24.24,0,0,1-.15-.24v-8a.22.22,0,0,1,.15-.23l6.21-2.84,1.2-.56h.06l.14.08,7.1,3.26a.21.21,0,0,1,.15.23v8a.22.22,0,0,1-.15.23l-6.3,2.87ZM155.7,49.4c0,.05,0,.09,0,.13v7.36a.17.17,0,0,0,.11.18l6.44,3.06.13,0V52.57a.19.19,0,0,0-.14-.2l-6.38-2.91ZM163,59.93l.11,0,6.14-2.9c.1,0,.1-.11.1-.2V49.31l-.16.07c-.58.28-1.15.57-1.73.84a.19.19,0,0,0-.12.21v3.31a.18.18,0,0,1-.12.19l-1.73,1-.15.07V51.29l-.16.08-2,1a.22.22,0,0,0-.14.23c0,2.26,0,4.53,0,6.8Zm-6.59-10.84.05,0,6,2.73a.23.23,0,0,0,.14,0l2.11-1,0,0-5.85-2.75a.17.17,0,0,0-.14,0C158,48.4,157.22,48.74,156.44,49.09ZM168.6,49a.56.56,0,0,0-.13-.07l-5.74-2.62a.28.28,0,0,0-.22,0L161,47l-.11.07h0l6,2.65a.17.17,0,0,0,.12,0Z"/><path class="cls-5" d="M131.93,85.21H112.81a4.87,4.87,0,0,1,3.4-4.19.9.9,0,0,0,.71-.83,23.5,23.5,0,0,0,.25-3c0-1.18-.21-2.35-.21-3.52a7.39,7.39,0,0,1,.77-3.32A4.3,4.3,0,0,1,122,67.72a12.47,12.47,0,0,1,1.5,0,4.23,4.23,0,0,1,3.41,2.61,9.64,9.64,0,0,1,.66,5.49,10.88,10.88,0,0,0,0,3.9,3.25,3.25,0,0,0,.33.9.72.72,0,0,0,.44.32,3.8,3.8,0,0,1,2.73,2.18C131.4,83.8,131.63,84.48,131.93,85.21Zm-5.49-10.9c-.33.64-.71.34-1.1.13l-4.47-2.3a1.2,1.2,0,0,0-1.64.29,8.82,8.82,0,0,0-.76,1.54c-.06.12-.07.3-.16.37a1.44,1.44,0,0,0,.16,2,.81.81,0,0,1,.32.34A6.63,6.63,0,0,0,120.33,79a2.69,2.69,0,0,0,4,0,6.37,6.37,0,0,0,1.54-2.32.82.82,0,0,1,.21-.35A1.49,1.49,0,0,0,126.44,74.31Zm-7.62,6.5c.27.87,2,1.78,3.48,1.78s3.21-.91,3.5-1.79l-1-1.08a3.36,3.36,0,0,1-5,0Z"/><path class="cls-5" d="M322.18,60.89h0L322,60.8l-6.91-3.32a.23.23,0,0,1-.14-.24v-8a.21.21,0,0,1,.14-.23l6.22-2.84,1.19-.56h.06l.14.08L329.82,49a.21.21,0,0,1,.15.23q0,4,0,8a.23.23,0,0,1-.15.23l-6.3,2.87ZM315.63,49.4a.62.62,0,0,0,0,.13c0,2.45,0,4.91,0,7.36a.16.16,0,0,0,.12.18l6.44,3.06.12,0s0-.08,0-.11c0-2.5,0-5,0-7.5,0-.12-.06-.16-.15-.2l-6.38-2.91ZM323,59.93a.3.3,0,0,0,.1,0L329.2,57c.1,0,.11-.11.11-.2V49.31l-.17.07-1.72.84a.21.21,0,0,0-.13.21v3.31a.18.18,0,0,1-.11.19l-1.74,1-.15.07V51.29l-.16.08-2,1a.22.22,0,0,0-.14.23v7.34Zm-6.6-10.84.05,0,6,2.73a.23.23,0,0,0,.14,0l2.12-1s0,0-.06,0l-5.85-2.75a.15.15,0,0,0-.13,0ZM328.52,49,328.4,49l-5.75-2.62a.26.26,0,0,0-.21,0l-1.51.68-.11.07h0l6,2.65a.17.17,0,0,0,.12,0Z"/><path class="cls-5" d="M341.44,60.89h0l-.14-.09-6.91-3.32a.24.24,0,0,1-.15-.24q0-4,0-8a.22.22,0,0,1,.15-.23l6.21-2.84,1.2-.56h.06l.14.08L349.08,49a.21.21,0,0,1,.15.23q0,4,0,8a.23.23,0,0,1-.16.23l-6.29,2.87ZM334.88,49.4c0,.05,0,.09,0,.13v7.36a.17.17,0,0,0,.11.18l6.45,3.06.12,0s0-.08,0-.11q0-3.75,0-7.5c0-.12-.05-.16-.14-.2L335,49.46Zm7.33,10.53a.28.28,0,0,0,.11,0l6.14-2.9c.1,0,.11-.11.11-.2V49.31l-.17.07-1.72.84a.2.2,0,0,0-.13.21v3.31a.19.19,0,0,1-.11.19l-1.74,1-.15.07V51.29l-.16.08-2,1a.21.21,0,0,0-.14.23q0,3.39,0,6.8Zm-6.59-10.84.05,0,6.05,2.73a.23.23,0,0,0,.14,0l2.11-1s0,0-.05,0l-5.85-2.75a.15.15,0,0,0-.13,0ZM347.78,49a.56.56,0,0,0-.13-.07l-5.74-2.62a.28.28,0,0,0-.22,0l-1.5.68-.11.07h0l6,2.65a.2.2,0,0,0,.13,0Z"/><path class="cls-5" d="M360.7,60.89h0l-.14-.09-6.91-3.32a.24.24,0,0,1-.15-.24v-8a.22.22,0,0,1,.15-.23l6.21-2.84,1.2-.56h.06l.14.08,7.1,3.26a.21.21,0,0,1,.15.23v8a.22.22,0,0,1-.15.23L362,60.27ZM354.14,49.4c0,.05,0,.09,0,.13v7.36a.17.17,0,0,0,.11.18l6.44,3.06.13,0V52.57a.19.19,0,0,0-.14-.2l-6.38-2.91Zm7.33,10.53.11,0,6.14-2.9c.1,0,.1-.11.1-.2V49.31l-.16.07c-.58.28-1.15.57-1.73.84a.2.2,0,0,0-.12.21v3.31a.18.18,0,0,1-.12.19l-1.73,1-.15.07V51.29l-.16.08-2,1a.22.22,0,0,0-.14.23c0,2.26,0,4.53,0,6.8Zm-6.59-10.84.05,0L361,51.86a.23.23,0,0,0,.14,0l2.11-1-.05,0-5.85-2.75a.17.17,0,0,0-.14,0ZM367,49a.56.56,0,0,0-.13-.07l-5.74-2.62a.28.28,0,0,0-.22,0l-1.5.68-.11.07h0l6,2.65a.17.17,0,0,0,.12,0Z"/><path class="cls-5" d="M380,60.89h0l-.15-.09-6.9-3.32a.22.22,0,0,1-.15-.24v-8a.21.21,0,0,1,.15-.23l6.21-2.84,1.2-.56h.06l.14.08,7.1,3.26a.21.21,0,0,1,.15.23v8a.22.22,0,0,1-.15.23l-6.3,2.87ZM373.4,49.4c0,.05,0,.09,0,.13v7.36a.17.17,0,0,0,.11.18l6.44,3.06.13,0V52.57c0-.12-.05-.16-.15-.2l-6.38-2.91Zm7.33,10.53.11,0L387,57c.1,0,.1-.11.1-.2V49.31l-.16.07c-.58.28-1.15.57-1.73.84a.21.21,0,0,0-.13.21c0,1.1,0,2.2,0,3.31a.18.18,0,0,1-.12.19l-1.74,1-.14.07V51.29a1.16,1.16,0,0,0-.16.08l-2,1a.22.22,0,0,0-.14.23v7.34Zm-6.59-10.84.05,0,6.05,2.73a.2.2,0,0,0,.13,0l2.12-1s0,0-.06,0l-5.84-2.75a.17.17,0,0,0-.14,0ZM386.3,49a.88.88,0,0,0-.13-.07l-5.74-2.62a.28.28,0,0,0-.22,0L378.7,47l-.1.07h0l6,2.65a.17.17,0,0,0,.12,0Z"/><path class="cls-5" d="M399.22,60.89h0L399,60.8l-6.91-3.32a.23.23,0,0,1-.14-.24v-8a.21.21,0,0,1,.14-.23l6.22-2.84,1.19-.56h.06l.14.08L406.85,49a.21.21,0,0,1,.15.23v8a.22.22,0,0,1-.15.23l-6.3,2.87ZM392.66,49.4a.62.62,0,0,0,0,.13v7.36a.16.16,0,0,0,.11.18l6.44,3.06.12,0a.49.49,0,0,0,0-.11v-7.5c0-.12-.06-.16-.15-.2l-6.38-2.91ZM400,59.93a.3.3,0,0,0,.1,0l6.14-2.9c.1,0,.11-.11.11-.2V49.31l-.16.07c-.58.28-1.15.57-1.73.84a.21.21,0,0,0-.13.21c0,1.1,0,2.2,0,3.31a.18.18,0,0,1-.12.19l-1.74,1-.15.07V51.29l-.16.08-2,1a.22.22,0,0,0-.14.23v7.34Zm-6.6-10.84.06,0,6,2.73a.23.23,0,0,0,.14,0l2.12-1s0,0-.06,0l-5.85-2.75a.15.15,0,0,0-.13,0ZM405.56,49l-.13-.07-5.75-2.62a.26.26,0,0,0-.21,0L398,47l-.11.07h0l6,2.65a.17.17,0,0,0,.12,0Z"/><path class="cls-5" d="M368.89,85.21H349.77a4.84,4.84,0,0,1,3.4-4.19.9.9,0,0,0,.7-.83,21.82,21.82,0,0,0,.25-3c0-1.18-.2-2.35-.2-3.52a7.38,7.38,0,0,1,.76-3.32,4.32,4.32,0,0,1,4.26-2.62,12.3,12.3,0,0,1,1.49,0,4.26,4.26,0,0,1,3.42,2.61,9.64,9.64,0,0,1,.66,5.49,10.88,10.88,0,0,0,0,3.9,3.63,3.63,0,0,0,.34.9.73.73,0,0,0,.43.32A3.83,3.83,0,0,1,368,83.16C368.35,83.8,368.59,84.48,368.89,85.21Zm-5.5-10.9c-.33.64-.7.34-1.09.13l-4.47-2.3a1.2,1.2,0,0,0-1.64.29,8.17,8.17,0,0,0-.76,1.54c-.06.12-.07.3-.17.37a1.44,1.44,0,0,0,.17,2,.81.81,0,0,1,.32.34A6.6,6.6,0,0,0,357.28,79a2.69,2.69,0,0,0,4,0,6.25,6.25,0,0,0,1.54-2.32c.06-.12.11-.28.22-.35A1.49,1.49,0,0,0,363.39,74.31Zm-7.62,6.5c.27.87,2,1.78,3.49,1.78s3.2-.91,3.49-1.79l-1-1.08a3.38,3.38,0,0,1-5,0Z"/><path class="cls-5" d="M203.71,60.89h0l-.15-.09-6.91-3.32a.23.23,0,0,1-.14-.24v-8a.21.21,0,0,1,.14-.23l6.22-2.84,1.19-.56h.06l.15.08,7.1,3.26a.21.21,0,0,1,.15.23v8a.22.22,0,0,1-.15.23L205,60.27ZM197.15,49.4a.62.62,0,0,0,0,.13v7.36a.16.16,0,0,0,.11.18l6.44,3.06.12,0a.49.49,0,0,0,0-.11v-7.5c0-.12,0-.16-.15-.2l-6.38-2.91Zm7.33,10.53.11,0,6.14-2.9c.1,0,.1-.11.1-.2V49.31l-.16.07c-.58.28-1.15.57-1.73.84a.21.21,0,0,0-.13.21c0,1.1,0,2.2,0,3.31a.18.18,0,0,1-.12.19l-1.74,1-.14.07V51.29l-.17.08-2,1a.22.22,0,0,0-.14.23v7.34Zm-6.6-10.84.06,0L204,51.86a.2.2,0,0,0,.13,0l2.12-1s0,0-.06,0l-5.84-2.75a.17.17,0,0,0-.14,0ZM210.05,49a.88.88,0,0,0-.13-.07l-5.74-2.62a.28.28,0,0,0-.22,0l-1.51.68-.1.07h0l6,2.65a.17.17,0,0,0,.12,0Z"/><path class="cls-5" d="M223,60.89h0l-.14-.09-6.91-3.32a.23.23,0,0,1-.14-.24v-8a.21.21,0,0,1,.14-.23l6.22-2.84,1.19-.56h.06l.14.08L230.6,49a.21.21,0,0,1,.15.23q0,4,0,8a.23.23,0,0,1-.15.23l-6.3,2.87ZM216.41,49.4a.62.62,0,0,0,0,.13c0,2.45,0,4.91,0,7.36a.16.16,0,0,0,.12.18L223,60.13l.12,0s0-.08,0-.11c0-2.5,0-5,0-7.5,0-.12-.06-.16-.15-.2l-6.38-2.91Zm7.33,10.53.1,0L230,57c.1,0,.11-.11.11-.2V49.31l-.17.07-1.72.84a.21.21,0,0,0-.13.21v3.31a.19.19,0,0,1-.11.19l-1.74,1-.15.07V51.29l-.16.08-2,1a.22.22,0,0,0-.14.23v7.34Zm-6.6-10.84.05,0,6.05,2.73a.23.23,0,0,0,.14,0l2.12-1s0,0-.06,0l-5.85-2.75a.15.15,0,0,0-.13,0ZM229.3,49l-.12-.07-5.75-2.62a.28.28,0,0,0-.22,0l-1.5.68-.11.07h0l6,2.65a.17.17,0,0,0,.12,0Z"/><path class="cls-5" d="M242.22,60.89h0l-.14-.09-6.91-3.32a.24.24,0,0,1-.15-.24q0-4,0-8a.22.22,0,0,1,.15-.23l6.21-2.84,1.2-.56h.06l.14.08L249.86,49a.21.21,0,0,1,.15.23q0,4,0,8a.23.23,0,0,1-.16.23l-6.29,2.87ZM235.66,49.4c0,.05,0,.09,0,.13v7.36a.17.17,0,0,0,.11.18l6.45,3.06.12,0V52.57a.19.19,0,0,0-.14-.2l-6.38-2.91ZM243,59.93a.28.28,0,0,0,.11,0l6.14-2.9c.1,0,.11-.11.11-.2V49.31l-.17.07-1.72.84a.2.2,0,0,0-.13.21v3.31a.19.19,0,0,1-.11.19l-1.74,1-.15.07V51.29l-.16.08-2,1a.21.21,0,0,0-.14.23q0,3.39,0,6.8ZM236.4,49.09l0,0,6.05,2.73a.23.23,0,0,0,.14,0l2.11-1s0,0-.05,0l-5.85-2.75a.17.17,0,0,0-.14,0ZM248.56,49a.56.56,0,0,0-.13-.07l-5.74-2.62a.28.28,0,0,0-.22,0L241,47l-.11.07h0l6,2.65a.2.2,0,0,0,.13,0Z"/><path class="cls-5" d="M261.48,60.89h0l-.14-.09-6.91-3.32a.24.24,0,0,1-.15-.24v-8a.22.22,0,0,1,.15-.23l6.21-2.84,1.2-.56h.06l.14.08,7.1,3.26a.21.21,0,0,1,.15.23v8a.22.22,0,0,1-.15.23l-6.3,2.87ZM254.92,49.4c0,.05,0,.09,0,.13v7.36a.17.17,0,0,0,.11.18l6.44,3.06.13,0V52.57a.19.19,0,0,0-.14-.2l-6.38-2.91Zm7.33,10.53.11,0L268.5,57c.1,0,.1-.11.1-.2V49.31l-.16.07c-.58.28-1.15.57-1.73.84a.2.2,0,0,0-.12.21v3.31a.18.18,0,0,1-.12.19l-1.73,1-.15.07V51.29l-.16.08-2,1a.22.22,0,0,0-.14.23c0,2.26,0,4.53,0,6.8Zm-6.59-10.84.05,0,6,2.73a.23.23,0,0,0,.14,0l2.11-1-.05,0-5.85-2.75a.17.17,0,0,0-.14,0C257.2,48.4,256.44,48.74,255.66,49.09ZM267.82,49a.56.56,0,0,0-.13-.07L262,46.35a.28.28,0,0,0-.22,0l-1.5.68-.11.07h0l6,2.65a.17.17,0,0,0,.12,0Z"/><path class="cls-5" d="M280.74,60.89h0l-.15-.09-6.9-3.32a.22.22,0,0,1-.15-.24v-8a.21.21,0,0,1,.15-.23l6.21-2.84,1.2-.56h.06l.14.08,7.1,3.26a.21.21,0,0,1,.15.23v8a.22.22,0,0,1-.15.23l-6.3,2.87ZM274.18,49.4c0,.05,0,.09,0,.13v7.36a.17.17,0,0,0,.11.18l6.44,3.06.13,0V52.57c0-.12-.05-.16-.15-.2l-6.38-2.91Zm7.33,10.53.11,0,6.14-2.9c.1,0,.1-.11.1-.2V49.31l-.16.07c-.58.28-1.15.57-1.73.84a.21.21,0,0,0-.13.21c0,1.1,0,2.2,0,3.31a.18.18,0,0,1-.12.19l-1.74,1-.14.07V51.29l-.17.08-2,1a.22.22,0,0,0-.14.23v7.34Zm-6.6-10.84.06,0,6,2.73a.2.2,0,0,0,.13,0l2.12-1s0,0-.06,0l-5.84-2.75a.17.17,0,0,0-.14,0ZM287.08,49A.88.88,0,0,0,287,49l-5.74-2.62a.28.28,0,0,0-.22,0l-1.51.68-.1.07h0l6,2.65a.17.17,0,0,0,.12,0Z"/><path class="cls-5" d="M250.41,85.21H231.29a4.84,4.84,0,0,1,3.4-4.19.9.9,0,0,0,.71-.83,21.8,21.8,0,0,0,.24-3c0-1.18-.2-2.35-.2-3.52a7.51,7.51,0,0,1,.76-3.32,4.32,4.32,0,0,1,4.26-2.62,12.52,12.52,0,0,1,1.5,0,4.26,4.26,0,0,1,3.41,2.61,9.64,9.64,0,0,1,.66,5.49,11.11,11.11,0,0,0,0,3.9,3.63,3.63,0,0,0,.34.9.72.72,0,0,0,.44.32,3.81,3.81,0,0,1,2.73,2.18C249.87,83.8,250.11,84.48,250.41,85.21Zm-5.49-10.9c-.34.64-.71.34-1.1.13l-4.47-2.3a1.2,1.2,0,0,0-1.64.29A8.17,8.17,0,0,0,237,74c-.06.12-.07.3-.17.37a1.44,1.44,0,0,0,.17,2,.81.81,0,0,1,.32.34A6.74,6.74,0,0,0,238.8,79a2.7,2.7,0,0,0,4,0,6.37,6.37,0,0,0,1.54-2.32.73.73,0,0,1,.21-.35A1.5,1.5,0,0,0,244.92,74.31Zm-7.62,6.5c.26.87,2,1.78,3.48,1.78s3.21-.91,3.49-1.79l-1-1.08a3.38,3.38,0,0,1-5,0Z"/><path class="cls-5" d="M133.11,222.68H133a3.42,3.42,0,0,0-.4-.26q-9.6-4.63-19.21-9.24a.62.62,0,0,1-.41-.66q0-11.1,0-22.22a.59.59,0,0,1,.41-.64l17.28-7.9c1.12-.51,2.22-1,3.33-1.56h.16l.4.22q9.87,4.53,19.76,9.06a.61.61,0,0,1,.42.64q0,11.1,0,22.19a.6.6,0,0,1-.43.64l-17.51,8Zm-18.25-32c0,.16,0,.26,0,.37q0,10.25,0,20.48a.49.49,0,0,0,.32.51q9,4.23,17.91,8.5c.1.05.22.08.35.13,0-.14,0-.22,0-.3q0-10.44,0-20.86A.55.55,0,0,0,133,199l-17.74-8.09ZM135.25,220l.3-.12q8.53-4,17.08-8.07c.28-.13.29-.31.29-.55v-20.8l-.46.21c-1.6.78-3.19,1.57-4.8,2.34a.52.52,0,0,0-.35.56c0,3.07,0,6.14,0,9.21a.53.53,0,0,1-.32.55c-1.62.87-3.23,1.76-4.84,2.64a4.46,4.46,0,0,1-.41.19V196l-.45.2c-1.88.92-3.76,1.86-5.65,2.77a.58.58,0,0,0-.39.62q0,9.47,0,18.92Zm-18.34-30.14c.08.06.11.09.15.1l16.82,7.6a.5.5,0,0,0,.38,0c2-.92,3.91-1.86,5.88-2.8a.71.71,0,0,0-.15-.12L123.73,187a.5.5,0,0,0-.38,0Zm33.83-.15a3.28,3.28,0,0,0-.36-.19c-5.32-2.43-10.64-4.87-16-7.28a.81.81,0,0,0-.61,0c-1.4.62-2.79,1.26-4.18,1.9l-.3.17.07,0q8.36,3.69,16.74,7.37a.4.4,0,0,0,.34,0C147.88,191.07,149.28,190.39,150.74,189.7Z"/><path class="cls-5" d="M186.67,222.68h-.09a3.42,3.42,0,0,0-.4-.26q-9.6-4.63-19.21-9.24a.62.62,0,0,1-.41-.66q0-11.1,0-22.22a.59.59,0,0,1,.41-.64l17.28-7.9c1.12-.51,2.22-1,3.33-1.56h.17l.39.22Q198,185,207.9,189.48a.6.6,0,0,1,.42.64q0,11.1,0,22.19a.6.6,0,0,1-.43.64l-17.51,8Zm-18.24-32a2.86,2.86,0,0,0,0,.37q0,10.25,0,20.48a.49.49,0,0,0,.32.51q9,4.23,17.91,8.5l.35.13c0-.14,0-.22,0-.3q0-10.44,0-20.86a.55.55,0,0,0-.41-.57l-17.74-8.09ZM188.81,220l.3-.12q8.53-4,17.08-8.07c.28-.13.29-.31.29-.55v-20.8l-.46.21c-1.6.78-3.19,1.57-4.8,2.34a.53.53,0,0,0-.35.56c0,3.07,0,6.14,0,9.21a.53.53,0,0,1-.32.55c-1.62.87-3.23,1.76-4.84,2.64a4.46,4.46,0,0,1-.41.19V196l-.45.2c-1.88.92-3.76,1.86-5.65,2.77a.58.58,0,0,0-.39.62q0,9.47,0,18.92Zm-18.34-30.14c.08.06.11.09.15.1l16.82,7.6a.53.53,0,0,0,.39,0l5.88-2.8a1.1,1.1,0,0,0-.16-.12L177.29,187a.5.5,0,0,0-.38,0Zm33.83-.15a3.28,3.28,0,0,0-.36-.19c-5.32-2.43-10.64-4.87-16-7.28a.81.81,0,0,0-.61,0c-1.4.62-2.79,1.26-4.18,1.9l-.3.17.07,0q8.37,3.69,16.74,7.37a.41.41,0,0,0,.34,0C201.44,191.07,202.84,190.39,204.3,189.7Z"/><path class="cls-5" d="M240.23,222.68h-.09a3.42,3.42,0,0,0-.4-.26q-9.6-4.63-19.21-9.24a.62.62,0,0,1-.41-.66q0-11.1,0-22.22a.59.59,0,0,1,.41-.64l17.28-7.9c1.12-.51,2.22-1,3.33-1.56h.17l.39.22q9.87,4.53,19.76,9.06a.6.6,0,0,1,.42.64q0,11.1,0,22.19a.61.61,0,0,1-.42.64q-8.77,4-17.52,8ZM222,190.7c0,.16,0,.26,0,.37q0,10.25,0,20.48a.49.49,0,0,0,.32.51q9,4.23,17.91,8.5l.35.13c0-.14,0-.22,0-.3q0-10.44,0-20.86a.55.55,0,0,0-.41-.57l-17.74-8.09ZM242.38,220l.29-.12q8.54-4,17.08-8.07c.28-.13.29-.31.29-.55v-20.8l-.46.21c-1.6.78-3.19,1.57-4.8,2.34a.53.53,0,0,0-.35.56c0,3.07,0,6.14,0,9.21a.53.53,0,0,1-.32.55c-1.62.87-3.23,1.76-4.84,2.64a4.46,4.46,0,0,1-.41.19V196l-.45.2c-1.88.92-3.76,1.86-5.65,2.77a.58.58,0,0,0-.39.62q0,9.47,0,18.92ZM224,189.85c.08.06.11.09.15.1l16.82,7.6a.53.53,0,0,0,.39,0l5.88-2.8a1.1,1.1,0,0,0-.16-.12L230.85,187a.5.5,0,0,0-.38,0Zm33.83-.15a3.28,3.28,0,0,0-.36-.19c-5.32-2.43-10.64-4.87-16-7.28a.81.81,0,0,0-.61,0c-1.4.62-2.79,1.26-4.18,1.9l-.3.17.07,0,16.74,7.37a.41.41,0,0,0,.34,0C255,191.07,256.4,190.39,257.86,189.7Z"/><path class="cls-5" d="M293.79,222.68h-.08a3.54,3.54,0,0,0-.41-.26q-9.6-4.63-19.21-9.24a.62.62,0,0,1-.41-.66q0-11.1,0-22.22a.59.59,0,0,1,.41-.64q8.66-3.94,17.28-7.9c1.12-.51,2.22-1,3.33-1.56h.17l.39.22q9.89,4.53,19.76,9.06a.6.6,0,0,1,.42.64q0,11.1,0,22.19a.61.61,0,0,1-.42.64q-8.77,4-17.52,8Zm-18.24-32c0,.16,0,.26,0,.37q0,10.25,0,20.48a.49.49,0,0,0,.32.51q9,4.23,17.91,8.5l.35.13c0-.14,0-.22,0-.3q0-10.44,0-20.86a.55.55,0,0,0-.41-.57L276,190.87ZM295.94,220l.29-.12q8.55-4,17.08-8.07c.28-.13.29-.31.29-.55v-20.8l-.46.21c-1.6.78-3.19,1.57-4.8,2.34a.55.55,0,0,0-.35.56c0,3.07,0,6.14,0,9.21a.53.53,0,0,1-.32.55c-1.62.87-3.22,1.76-4.84,2.64-.1.06-.21.1-.4.19V196l-.45.2c-1.89.92-3.77,1.86-5.66,2.77a.59.59,0,0,0-.39.62q0,9.47,0,18.92Zm-18.35-30.14c.08.06.11.09.15.1l16.82,7.6a.53.53,0,0,0,.39,0l5.88-2.8a1.1,1.1,0,0,0-.16-.12q-8.12-3.83-16.26-7.63a.5.5,0,0,0-.38,0Zm33.83-.15a3.28,3.28,0,0,0-.36-.19c-5.32-2.43-10.64-4.87-16-7.28a.81.81,0,0,0-.61,0c-1.4.62-2.79,1.26-4.18,1.9l-.3.17.07,0,16.74,7.37a.41.41,0,0,0,.34,0C308.56,191.07,310,190.39,311.42,189.7Z"/><path class="cls-5" d="M347.35,222.68h-.08a3.54,3.54,0,0,0-.41-.26q-9.6-4.63-19.21-9.24a.62.62,0,0,1-.41-.66q0-11.1,0-22.22a.59.59,0,0,1,.41-.64q8.66-3.94,17.28-7.9c1.12-.51,2.22-1,3.33-1.56h.17l.39.22q9.89,4.53,19.76,9.06a.6.6,0,0,1,.42.64q0,11.1,0,22.19a.6.6,0,0,1-.42.64l-17.52,8Zm-18.24-32c0,.16,0,.26,0,.37v20.48a.48.48,0,0,0,.31.51q9,4.23,17.92,8.5c.1.05.21.08.34.13,0-.14,0-.22,0-.3q0-10.44,0-20.86a.55.55,0,0,0-.41-.57l-17.74-8.09ZM349.5,220l.29-.12,17.08-8.07c.28-.13.29-.31.29-.55v-20.8l-.45.21c-1.6.78-3.2,1.57-4.81,2.34a.55.55,0,0,0-.35.56c0,3.07,0,6.14,0,9.21a.53.53,0,0,1-.32.55c-1.62.87-3.22,1.76-4.84,2.64-.1.06-.21.1-.4.19V196l-.45.2c-1.89.92-3.77,1.86-5.66,2.77a.59.59,0,0,0-.39.62q0,9.47,0,18.92Zm-18.35-30.14c.08.06.11.09.15.1l16.82,7.6a.53.53,0,0,0,.39,0l5.88-2.8c-.07-.05-.11-.1-.15-.12L338,187a.5.5,0,0,0-.38,0ZM365,189.7a3.28,3.28,0,0,0-.36-.19c-5.32-2.43-10.64-4.87-16-7.28a.78.78,0,0,0-.6,0c-1.41.62-2.8,1.26-4.19,1.9l-.3.17.07,0,16.74,7.37a.41.41,0,0,0,.34,0C362.12,191.07,363.53,190.39,365,189.7Z"/><path class="cls-5" d="M263,290.31H209.82c.23-5.08,4.6-10.51,9.47-11.66a2.5,2.5,0,0,0,2-2.29,62.18,62.18,0,0,0,.69-8.39c0-3.26-.57-6.52-.57-9.78a20.69,20.69,0,0,1,2.13-9.24c2.41-4.89,6.31-7.42,11.83-7.29a34.05,34.05,0,0,1,4.17.12A11.76,11.76,0,0,1,249,249a26.75,26.75,0,0,1,1.83,15.26,30.43,30.43,0,0,0,.05,10.85,9.43,9.43,0,0,0,.93,2.5,2.07,2.07,0,0,0,1.21.9,10.53,10.53,0,0,1,7.6,6.07C261.51,286.39,262.16,288.29,263,290.31ZM247.72,260c-.92,1.77-2,.94-3.05.38q-6.19-3.22-12.43-6.4c-1.72-.89-3.41-.75-4.57.8a23.89,23.89,0,0,0-2.11,4.27c-.16.35-.2.84-.46,1-1.47,1.16-1.18,4.67.46,5.62a2.19,2.19,0,0,1,.89,1,18.23,18.23,0,0,0,4.27,6.46c3.5,3.27,7.52,3.3,11.05.06a17.53,17.53,0,0,0,4.28-6.44,2.1,2.1,0,0,1,.59-1A4.15,4.15,0,0,0,247.72,260Zm-21.19,18.09c.74,2.4,5.53,4.93,9.69,4.93s8.91-2.51,9.71-5l-2.74-3c-4.32,3.72-8.71,4.41-13.84,0Z"/><rect class="cls-4" x="582.16" y="61.9" width="5.5" height="121.91" transform="translate(97 468.05) rotate(-47.14)"/><polygon class="cls-4" points="615.22 163.7 628.4 163.21 627.91 150.02 633.71 155.41 634.21 168.6 621.02 169.09 615.22 163.7"/><rect class="cls-4" x="619.12" y="120.94" width="79.09" height="5.5" transform="translate(533.44 782.07) rotate(-89.87)"/><polygon class="cls-4" points="649.27 152.25 658.58 161.61 667.93 152.3 667.91 160.22 658.56 169.53 649.25 160.18 649.27 152.25"/><rect class="cls-4" x="669.67" y="121.36" width="124.57" height="5.5" transform="translate(114.09 535.69) rotate(-43.29)"/><polygon class="cls-4" points="688.2 152.52 687.8 165.71 700.99 166.1 695.23 171.53 682.04 171.14 682.43 157.95 688.2 152.52"/><rect class="cls-1" x="499.81" y="79.07" width="300.54" height="10.16"/><path class="cls-5" d="M503.23,59.89h0l-.15-.09-6.9-3.32a.24.24,0,0,1-.15-.24v-8a.21.21,0,0,1,.15-.23l6.21-2.84,1.2-.56h.06l.14.08,7.1,3.26a.21.21,0,0,1,.15.23v8a.22.22,0,0,1-.15.23l-6.3,2.87ZM496.67,48.4c0,.05,0,.09,0,.13v7.36a.17.17,0,0,0,.11.18l6.44,3.06.13,0V51.57c0-.12,0-.16-.15-.2l-6.37-2.91ZM504,58.93l.11,0,6.14-2.9c.1,0,.1-.11.1-.2V48.31l-.16.07c-.58.28-1.15.57-1.73.84a.21.21,0,0,0-.13.21c0,1.1,0,2.2,0,3.31a.18.18,0,0,1-.12.19l-1.74,1-.14.07V50.29l-.16.08-2,1a.22.22,0,0,0-.14.23c0,2.26,0,4.53,0,6.8Zm-6.59-10.84,0,0,6.05,2.73a.23.23,0,0,0,.14,0l2.11-1s0,0-.06,0l-5.84-2.75a.17.17,0,0,0-.14,0C499,47.4,498.19,47.74,497.41,48.09ZM509.57,48a.56.56,0,0,0-.13-.07l-5.74-2.62a.28.28,0,0,0-.22,0L502,46l-.11.07h0l6,2.65a.17.17,0,0,0,.12,0Z"/><path class="cls-5" d="M522.49,59.89h0l-.15-.09-6.91-3.32a.23.23,0,0,1-.14-.24v-8a.21.21,0,0,1,.14-.23l6.22-2.84,1.19-.56h.06l.15.08,7.1,3.26a.21.21,0,0,1,.15.23v8a.22.22,0,0,1-.15.23l-6.3,2.87ZM515.93,48.4a.62.62,0,0,0,0,.13v7.36a.16.16,0,0,0,.11.18l6.44,3.06.12,0a.49.49,0,0,0,0-.11v-7.5c0-.12-.05-.16-.15-.2l-6.38-2.91Zm7.33,10.53.11,0,6.14-2.9c.1,0,.1-.11.1-.2V48.31l-.16.07c-.58.28-1.15.57-1.73.84a.21.21,0,0,0-.13.21c0,1.1,0,2.2,0,3.31a.18.18,0,0,1-.12.19l-1.74,1-.14.07V50.29l-.17.08-2,1a.22.22,0,0,0-.14.23v7.34Zm-6.6-10.84.06,0,6,2.73a.2.2,0,0,0,.13,0l2.12-1s0,0-.06,0l-5.84-2.75a.17.17,0,0,0-.14,0ZM528.83,48a.88.88,0,0,0-.13-.07L523,45.35a.28.28,0,0,0-.22,0l-1.51.68-.1.07h0l6,2.65a.17.17,0,0,0,.12,0Z"/><path class="cls-5" d="M541.74,59.89h0l-.14-.09-6.91-3.32a.23.23,0,0,1-.14-.24v-8a.21.21,0,0,1,.14-.23l6.22-2.84,1.19-.56h.06l.14.08L549.38,48a.21.21,0,0,1,.15.23q0,4,0,8a.23.23,0,0,1-.15.23l-6.3,2.87ZM535.19,48.4a.62.62,0,0,0,0,.13c0,2.45,0,4.91,0,7.36a.16.16,0,0,0,.12.18l6.44,3.06.12,0s0-.08,0-.11c0-2.5,0-5,0-7.5,0-.12-.06-.16-.15-.2l-6.38-2.91Zm7.33,10.53a.3.3,0,0,0,.1,0l6.14-2.9c.1,0,.11-.11.11-.2V48.31l-.17.07-1.72.84a.2.2,0,0,0-.13.21v3.31a.19.19,0,0,1-.11.19l-1.74,1-.15.07V50.29l-.16.08-2,1a.22.22,0,0,0-.14.23v7.34Zm-6.6-10.84.05,0,6,2.73a.23.23,0,0,0,.14,0l2.12-1s0,0-.06,0l-5.85-2.75a.15.15,0,0,0-.13,0ZM548.08,48A.56.56,0,0,0,548,48l-5.74-2.62a.28.28,0,0,0-.22,0l-1.5.68-.11.07h0l6,2.65a.17.17,0,0,0,.12,0Z"/><path class="cls-5" d="M561,59.89h0l-.14-.09-6.91-3.32a.24.24,0,0,1-.15-.24q0-4,0-8a.22.22,0,0,1,.15-.23l6.21-2.84,1.2-.56h.06l.14.08L568.64,48a.21.21,0,0,1,.15.23q0,4,0,8a.23.23,0,0,1-.16.23l-6.29,2.87ZM554.44,48.4c0,.05,0,.09,0,.13v7.36a.17.17,0,0,0,.11.18L561,59.13l.12,0V51.57a.19.19,0,0,0-.14-.2l-6.38-2.91Zm7.33,10.53a.28.28,0,0,0,.11,0L568,56c.1,0,.11-.11.11-.2V48.31l-.17.07-1.72.84a.2.2,0,0,0-.13.21v3.31a.19.19,0,0,1-.11.19l-1.74,1-.15.07V50.29c-.07,0-.12.05-.16.08l-2,1a.21.21,0,0,0-.14.23q0,3.39,0,6.8Zm-6.59-10.84.05,0,6,2.73a.23.23,0,0,0,.14,0l2.11-1s0,0,0,0l-5.85-2.75a.17.17,0,0,0-.14,0ZM567.34,48a.56.56,0,0,0-.13-.07l-5.74-2.62a.28.28,0,0,0-.22,0l-1.5.68-.11.07h0l6,2.65a.2.2,0,0,0,.13,0Z"/><path class="cls-5" d="M580.26,59.89h0l-.14-.09-6.91-3.32a.24.24,0,0,1-.15-.24v-8a.22.22,0,0,1,.15-.23l6.21-2.84,1.2-.56h.06l.14.08,7.1,3.26a.21.21,0,0,1,.15.23v8a.22.22,0,0,1-.15.23l-6.3,2.87ZM573.7,48.4c0,.05,0,.09,0,.13v7.36a.17.17,0,0,0,.11.18l6.44,3.06.13,0V51.57a.19.19,0,0,0-.14-.2l-6.38-2.91ZM581,58.93l.11,0,6.14-2.9c.1,0,.1-.11.1-.2V48.31l-.16.07c-.58.28-1.15.57-1.73.84a.19.19,0,0,0-.12.21v3.31a.18.18,0,0,1-.12.19l-1.73,1-.15.07V50.29c-.07,0-.12.05-.16.08l-2,1a.22.22,0,0,0-.14.23c0,2.26,0,4.53,0,6.8Zm-6.59-10.84,0,0,6,2.73a.23.23,0,0,0,.14,0l2.11-1,0,0-5.85-2.75a.17.17,0,0,0-.14,0C576,47.4,575.22,47.74,574.44,48.09ZM586.6,48a.56.56,0,0,0-.13-.07l-5.74-2.62a.28.28,0,0,0-.22,0L579,46l-.11.07h0l6,2.65a.17.17,0,0,0,.12,0Z"/><path class="cls-5" d="M549.93,84.21H530.81a4.87,4.87,0,0,1,3.4-4.19.9.9,0,0,0,.71-.83,23.5,23.5,0,0,0,.25-3c0-1.18-.21-2.35-.21-3.52a7.39,7.39,0,0,1,.77-3.32A4.3,4.3,0,0,1,540,66.72a12.47,12.47,0,0,1,1.5,0,4.23,4.23,0,0,1,3.41,2.61,9.64,9.64,0,0,1,.66,5.49,10.88,10.88,0,0,0,0,3.9,3.25,3.25,0,0,0,.33.9.72.72,0,0,0,.44.32,3.8,3.8,0,0,1,2.73,2.18C549.4,82.8,549.63,83.48,549.93,84.21Zm-5.49-10.9c-.33.64-.71.34-1.1.13l-4.47-2.3a1.2,1.2,0,0,0-1.64.29,8.82,8.82,0,0,0-.76,1.54c-.06.12-.07.3-.16.37a1.44,1.44,0,0,0,.16,2,.81.81,0,0,1,.32.34A6.63,6.63,0,0,0,538.33,78a2.69,2.69,0,0,0,4,0,6.37,6.37,0,0,0,1.54-2.32.82.82,0,0,1,.21-.35A1.49,1.49,0,0,0,544.44,73.31Zm-7.62,6.5c.27.87,2,1.78,3.48,1.78s3.21-.91,3.5-1.79l-1-1.08a3.36,3.36,0,0,1-5,0Z"/><path class="cls-5" d="M740.18,59.89h0L740,59.8l-6.91-3.32a.23.23,0,0,1-.14-.24v-8a.21.21,0,0,1,.14-.23l6.22-2.84,1.19-.56h.06l.14.08L747.82,48a.21.21,0,0,1,.15.23q0,4,0,8a.23.23,0,0,1-.15.23l-6.3,2.87ZM733.63,48.4a.62.62,0,0,0,0,.13c0,2.45,0,4.91,0,7.36a.16.16,0,0,0,.12.18l6.44,3.06.12,0s0-.08,0-.11c0-2.5,0-5,0-7.5,0-.12-.06-.16-.15-.2l-6.38-2.91ZM741,58.93l.1,0L747.2,56c.1,0,.11-.11.11-.2V48.31l-.17.07-1.72.84a.21.21,0,0,0-.13.21v3.31a.18.18,0,0,1-.11.19l-1.74,1-.15.07V50.29l-.16.08-2,1a.22.22,0,0,0-.14.23v7.34Zm-6.6-10.84,0,0,6.05,2.73a.23.23,0,0,0,.14,0l2.12-1s0,0-.06,0l-5.85-2.75a.15.15,0,0,0-.13,0ZM746.52,48,746.4,48l-5.75-2.62a.26.26,0,0,0-.21,0l-1.51.68-.11.07h0l6,2.65a.17.17,0,0,0,.12,0Z"/><path class="cls-5" d="M759.44,59.89h0l-.14-.09-6.91-3.32a.24.24,0,0,1-.15-.24q0-4,0-8a.22.22,0,0,1,.15-.23l6.21-2.84,1.2-.56h.06l.14.08L767.08,48a.21.21,0,0,1,.15.23q0,4,0,8a.23.23,0,0,1-.16.23l-6.29,2.87ZM752.88,48.4c0,.05,0,.09,0,.13v7.36a.17.17,0,0,0,.11.18l6.45,3.06.12,0s0-.08,0-.11q0-3.75,0-7.5c0-.12,0-.16-.14-.2L753,48.46Zm7.33,10.53a.28.28,0,0,0,.11,0l6.14-2.9c.1,0,.11-.11.11-.2V48.31l-.17.07-1.72.84a.2.2,0,0,0-.13.21v3.31a.19.19,0,0,1-.11.19l-1.74,1-.15.07V50.29c-.07,0-.12.05-.16.08l-2,1a.21.21,0,0,0-.14.23q0,3.39,0,6.8Zm-6.59-10.84,0,0,6.05,2.73a.23.23,0,0,0,.14,0l2.11-1s0,0-.05,0l-5.85-2.75a.15.15,0,0,0-.13,0ZM765.78,48a.56.56,0,0,0-.13-.07l-5.74-2.62a.28.28,0,0,0-.22,0l-1.5.68-.11.07h0l6,2.65a.2.2,0,0,0,.13,0Z"/><path class="cls-5" d="M778.7,59.89h0l-.14-.09-6.91-3.32a.24.24,0,0,1-.15-.24v-8a.22.22,0,0,1,.15-.23l6.21-2.84,1.2-.56h.06l.14.08,7.1,3.26a.21.21,0,0,1,.15.23v8a.22.22,0,0,1-.15.23L780,59.27ZM772.14,48.4c0,.05,0,.09,0,.13v7.36a.17.17,0,0,0,.11.18l6.44,3.06.13,0V51.57a.19.19,0,0,0-.14-.2l-6.38-2.91Zm7.33,10.53.11,0,6.14-2.9c.1,0,.1-.11.1-.2V48.31l-.16.07c-.58.28-1.15.57-1.73.84a.2.2,0,0,0-.12.21v3.31a.18.18,0,0,1-.12.19l-1.73,1-.15.07V50.29l-.16.08-2,1a.22.22,0,0,0-.14.23c0,2.26,0,4.53,0,6.8Zm-6.59-10.84,0,0L779,50.86a.23.23,0,0,0,.14,0l2.11-1-.05,0-5.85-2.75a.17.17,0,0,0-.14,0ZM785,48a.56.56,0,0,0-.13-.07l-5.74-2.62a.28.28,0,0,0-.22,0l-1.5.68-.11.07h0l6,2.65a.17.17,0,0,0,.12,0Z"/><path class="cls-5" d="M798,59.89h0l-.15-.09-6.9-3.32a.22.22,0,0,1-.15-.24v-8a.21.21,0,0,1,.15-.23l6.21-2.84,1.2-.56h.06l.14.08,7.1,3.26a.21.21,0,0,1,.15.23v8a.22.22,0,0,1-.15.23l-6.3,2.87ZM791.4,48.4c0,.05,0,.09,0,.13v7.36a.17.17,0,0,0,.11.18l6.44,3.06.13,0V51.57c0-.12-.05-.16-.15-.2l-6.38-2.91Zm7.33,10.53.11,0L805,56c.1,0,.1-.11.1-.2V48.31l-.16.07c-.58.28-1.15.57-1.73.84a.21.21,0,0,0-.13.21c0,1.1,0,2.2,0,3.31a.18.18,0,0,1-.12.19l-1.74,1-.14.07V50.29l-.16.08-2,1a.22.22,0,0,0-.14.23v7.34Zm-6.59-10.84.05,0,6,2.73a.2.2,0,0,0,.13,0l2.12-1s0,0-.06,0l-5.84-2.75a.17.17,0,0,0-.14,0C793.68,47.4,792.92,47.74,792.14,48.09ZM804.3,48a.88.88,0,0,0-.13-.07l-5.74-2.62a.28.28,0,0,0-.22,0L796.7,46l-.1.07h0l6,2.65a.17.17,0,0,0,.12,0Z"/><path class="cls-5" d="M817.22,59.89h0L817,59.8l-6.91-3.32a.23.23,0,0,1-.14-.24v-8a.21.21,0,0,1,.14-.23l6.22-2.84,1.19-.56h.06l.14.08L824.85,48a.21.21,0,0,1,.15.23v8a.22.22,0,0,1-.15.23l-6.3,2.87ZM810.66,48.4a.62.62,0,0,0,0,.13v7.36a.16.16,0,0,0,.11.18l6.44,3.06.12,0a.49.49,0,0,0,0-.11v-7.5c0-.12-.06-.16-.15-.2l-6.38-2.91ZM818,58.93a.3.3,0,0,0,.1,0l6.14-2.9c.1,0,.11-.11.11-.2V48.31l-.16.07c-.58.28-1.15.57-1.73.84a.21.21,0,0,0-.13.21c0,1.1,0,2.2,0,3.31a.18.18,0,0,1-.12.19l-1.74,1-.15.07V50.29l-.16.08-2,1a.22.22,0,0,0-.14.23v7.34Zm-6.6-10.84.06,0,6,2.73a.23.23,0,0,0,.14,0l2.12-1s0,0-.06,0l-5.85-2.75a.15.15,0,0,0-.13,0ZM823.56,48l-.13-.07-5.75-2.62a.26.26,0,0,0-.21,0L816,46l-.11.07h0l6,2.65a.17.17,0,0,0,.12,0Z"/><path class="cls-5" d="M786.89,84.21H767.77a4.84,4.84,0,0,1,3.4-4.19.9.9,0,0,0,.7-.83,21.82,21.82,0,0,0,.25-3c0-1.18-.2-2.35-.2-3.52a7.38,7.38,0,0,1,.76-3.32,4.32,4.32,0,0,1,4.26-2.62,12.3,12.3,0,0,1,1.49,0,4.26,4.26,0,0,1,3.42,2.61,9.64,9.64,0,0,1,.66,5.49,10.88,10.88,0,0,0,0,3.9,3.63,3.63,0,0,0,.34.9.73.73,0,0,0,.43.32A3.83,3.83,0,0,1,786,82.16C786.35,82.8,786.59,83.48,786.89,84.21Zm-5.5-10.9c-.33.64-.7.34-1.09.13l-4.47-2.3a1.2,1.2,0,0,0-1.64.29,8.17,8.17,0,0,0-.76,1.54c-.06.12-.07.3-.17.37a1.44,1.44,0,0,0,.17,2,.81.81,0,0,1,.32.34A6.6,6.6,0,0,0,775.28,78a2.69,2.69,0,0,0,4,0,6.25,6.25,0,0,0,1.54-2.32c.06-.12.11-.28.22-.35A1.49,1.49,0,0,0,781.39,73.31Zm-7.62,6.5c.27.87,2,1.78,3.49,1.78s3.2-.91,3.49-1.79l-1-1.08a3.38,3.38,0,0,1-5,0Z"/><path class="cls-5" d="M621.71,59.89h0l-.15-.09-6.91-3.32a.23.23,0,0,1-.14-.24v-8a.21.21,0,0,1,.14-.23l6.22-2.84,1.19-.56h.06l.15.08,7.1,3.26a.21.21,0,0,1,.15.23v8a.22.22,0,0,1-.15.23L623,59.27ZM615.15,48.4a.62.62,0,0,0,0,.13v7.36a.16.16,0,0,0,.11.18l6.44,3.06.12,0a.49.49,0,0,0,0-.11v-7.5c0-.12-.05-.16-.15-.2l-6.38-2.91Zm7.33,10.53.11,0,6.14-2.9c.1,0,.1-.11.1-.2V48.31l-.16.07c-.58.28-1.15.57-1.73.84a.21.21,0,0,0-.13.21c0,1.1,0,2.2,0,3.31a.18.18,0,0,1-.12.19l-1.74,1-.14.07V50.29l-.17.08-2,1a.22.22,0,0,0-.14.23v7.34Zm-6.6-10.84.06,0,6,2.73a.2.2,0,0,0,.13,0l2.12-1s0,0-.06,0l-5.84-2.75a.17.17,0,0,0-.14,0ZM628.05,48a.88.88,0,0,0-.13-.07l-5.74-2.62a.28.28,0,0,0-.22,0l-1.51.68-.1.07h0l6,2.65a.17.17,0,0,0,.12,0Z"/><path class="cls-5" d="M641,59.89h0l-.14-.09-6.91-3.32a.23.23,0,0,1-.14-.24v-8a.21.21,0,0,1,.14-.23l6.22-2.84,1.19-.56h.06l.14.08L648.6,48a.21.21,0,0,1,.15.23q0,4,0,8a.23.23,0,0,1-.15.23l-6.3,2.87ZM634.41,48.4a.62.62,0,0,0,0,.13c0,2.45,0,4.91,0,7.36a.16.16,0,0,0,.12.18L641,59.13l.12,0s0-.08,0-.11c0-2.5,0-5,0-7.5,0-.12-.06-.16-.15-.2l-6.38-2.91Zm7.33,10.53a.3.3,0,0,0,.1,0L648,56c.1,0,.11-.11.11-.2V48.31l-.17.07-1.72.84a.21.21,0,0,0-.13.21v3.31a.19.19,0,0,1-.11.19l-1.74,1-.15.07V50.29l-.16.08-2,1a.22.22,0,0,0-.14.23v7.34Zm-6.6-10.84.05,0,6,2.73a.23.23,0,0,0,.14,0l2.12-1s0,0-.06,0l-5.85-2.75a.15.15,0,0,0-.13,0ZM647.3,48l-.12-.07-5.75-2.62a.28.28,0,0,0-.22,0l-1.5.68-.11.07h0l6,2.65a.17.17,0,0,0,.12,0Z"/><path class="cls-5" d="M660.22,59.89h0l-.14-.09-6.91-3.32a.24.24,0,0,1-.15-.24q0-4,0-8a.22.22,0,0,1,.15-.23l6.21-2.84,1.2-.56h.06l.14.08L667.86,48a.21.21,0,0,1,.15.23q0,4,0,8a.23.23,0,0,1-.16.23l-6.29,2.87ZM653.66,48.4c0,.05,0,.09,0,.13v7.36a.17.17,0,0,0,.11.18l6.45,3.06.12,0V51.57a.19.19,0,0,0-.14-.2l-6.38-2.91ZM661,58.93a.28.28,0,0,0,.11,0l6.14-2.9c.1,0,.11-.11.11-.2V48.31l-.17.07-1.72.84a.2.2,0,0,0-.13.21v3.31a.19.19,0,0,1-.11.19l-1.74,1-.15.07V50.29l-.16.08-2,1a.21.21,0,0,0-.14.23q0,3.39,0,6.8ZM654.4,48.09l.05,0,6,2.73a.23.23,0,0,0,.14,0l2.11-1s0,0,0,0l-5.85-2.75a.17.17,0,0,0-.14,0ZM666.56,48a.56.56,0,0,0-.13-.07l-5.74-2.62a.28.28,0,0,0-.22,0L659,46l-.11.07h0l6,2.65a.2.2,0,0,0,.13,0Z"/><path class="cls-5" d="M679.48,59.89h0l-.14-.09-6.91-3.32a.24.24,0,0,1-.15-.24v-8a.22.22,0,0,1,.15-.23l6.21-2.84,1.2-.56h.06l.14.08,7.1,3.26a.21.21,0,0,1,.15.23v8a.22.22,0,0,1-.15.23l-6.3,2.87ZM672.92,48.4c0,.05,0,.09,0,.13v7.36a.17.17,0,0,0,.11.18l6.44,3.06.13,0V51.57a.19.19,0,0,0-.14-.2l-6.38-2.91Zm7.33,10.53.11,0L686.5,56c.1,0,.1-.11.1-.2V48.31l-.16.07c-.58.28-1.15.57-1.73.84a.2.2,0,0,0-.12.21v3.31a.18.18,0,0,1-.12.19l-1.73,1-.15.07V50.29l-.16.08-2,1a.22.22,0,0,0-.14.23c0,2.26,0,4.53,0,6.8Zm-6.59-10.84.05,0,6,2.73a.23.23,0,0,0,.14,0l2.11-1,0,0-5.85-2.75a.17.17,0,0,0-.14,0ZM685.82,48a.56.56,0,0,0-.13-.07L680,45.35a.28.28,0,0,0-.22,0l-1.5.68-.11.07h0l6,2.65a.17.17,0,0,0,.12,0Z"/><path class="cls-5" d="M698.74,59.89h0l-.15-.09-6.9-3.32a.22.22,0,0,1-.15-.24v-8a.21.21,0,0,1,.15-.23l6.21-2.84,1.2-.56h.06l.14.08,7.1,3.26a.21.21,0,0,1,.15.23v8a.22.22,0,0,1-.15.23l-6.3,2.87ZM692.18,48.4c0,.05,0,.09,0,.13v7.36a.17.17,0,0,0,.11.18l6.44,3.06.13,0V51.57c0-.12-.05-.16-.15-.2l-6.38-2.91Zm7.33,10.53.11,0,6.14-2.9c.1,0,.1-.11.1-.2V48.31l-.16.07c-.58.28-1.15.57-1.73.84a.21.21,0,0,0-.13.21c0,1.1,0,2.2,0,3.31a.18.18,0,0,1-.12.19l-1.74,1-.14.07V50.29l-.17.08-2,1a.22.22,0,0,0-.14.23v7.34Zm-6.6-10.84.06,0,6,2.73a.2.2,0,0,0,.13,0l2.12-1s0,0-.06,0l-5.84-2.75a.17.17,0,0,0-.14,0ZM705.08,48A.88.88,0,0,0,705,48l-5.74-2.62a.28.28,0,0,0-.22,0l-1.51.68-.1.07h0l6,2.65a.17.17,0,0,0,.12,0Z"/><path class="cls-5" d="M668.41,84.21H649.29a4.84,4.84,0,0,1,3.4-4.19.9.9,0,0,0,.71-.83,21.8,21.8,0,0,0,.24-3c0-1.18-.2-2.35-.2-3.52a7.51,7.51,0,0,1,.76-3.32,4.32,4.32,0,0,1,4.26-2.62,12.52,12.52,0,0,1,1.5,0,4.26,4.26,0,0,1,3.41,2.61,9.64,9.64,0,0,1,.66,5.49,11.11,11.11,0,0,0,0,3.9,3.63,3.63,0,0,0,.34.9.72.72,0,0,0,.44.32,3.81,3.81,0,0,1,2.73,2.18C667.87,82.8,668.11,83.48,668.41,84.21Zm-5.49-10.9c-.34.64-.71.34-1.1.13l-4.47-2.3a1.2,1.2,0,0,0-1.64.29A8.17,8.17,0,0,0,655,73c-.06.12-.07.3-.17.37a1.44,1.44,0,0,0,.17,2,.81.81,0,0,1,.32.34A6.74,6.74,0,0,0,656.8,78a2.7,2.7,0,0,0,4,0,6.37,6.37,0,0,0,1.54-2.32.73.73,0,0,1,.21-.35A1.5,1.5,0,0,0,662.92,73.31Zm-7.62,6.5c.26.87,2,1.78,3.48,1.78s3.21-.91,3.49-1.79l-1-1.08a3.38,3.38,0,0,1-5,0Z"/><path class="cls-5" d="M551.11,221.68H551a3.42,3.42,0,0,0-.4-.26q-9.6-4.63-19.21-9.24a.62.62,0,0,1-.41-.66q0-11.1,0-22.22a.59.59,0,0,1,.41-.64l17.28-7.9c1.12-.51,2.22-1,3.33-1.56h.16l.4.22q9.87,4.53,19.76,9.06a.61.61,0,0,1,.42.64q0,11.1,0,22.19a.6.6,0,0,1-.43.64l-17.51,8Zm-18.25-32c0,.16,0,.26,0,.37q0,10.25,0,20.48a.49.49,0,0,0,.32.51q9,4.23,17.91,8.5c.1.05.22.08.35.13,0-.14,0-.22,0-.3q0-10.44,0-20.86A.55.55,0,0,0,551,198l-17.74-8.09ZM553.25,219l.3-.12q8.54-4,17.08-8.07c.28-.13.29-.31.29-.55v-20.8l-.46.21c-1.6.78-3.19,1.57-4.8,2.34a.52.52,0,0,0-.35.56c0,3.07,0,6.14,0,9.21a.53.53,0,0,1-.32.55c-1.62.87-3.23,1.76-4.84,2.64a4.46,4.46,0,0,1-.41.19V195l-.45.2c-1.88.92-3.76,1.86-5.65,2.77a.58.58,0,0,0-.39.62q0,9.47,0,18.92Zm-18.34-30.14c.08.06.11.09.15.1l16.82,7.6a.5.5,0,0,0,.38,0c2-.92,3.91-1.86,5.88-2.8a.71.71,0,0,0-.15-.12L541.73,186a.5.5,0,0,0-.38,0Zm33.83-.15a3.28,3.28,0,0,0-.36-.19c-5.32-2.43-10.64-4.87-16-7.28a.81.81,0,0,0-.61,0c-1.4.62-2.79,1.26-4.18,1.9l-.3.17.07,0q8.36,3.69,16.74,7.37a.4.4,0,0,0,.34,0C565.88,190.07,567.28,189.39,568.74,188.7Z"/><path class="cls-5" d="M604.67,221.68h-.09a3.42,3.42,0,0,0-.4-.26q-9.6-4.63-19.21-9.24a.62.62,0,0,1-.41-.66q0-11.1,0-22.22a.59.59,0,0,1,.41-.64l17.28-7.9c1.12-.51,2.22-1,3.33-1.56h.17l.39.22Q616,184,625.9,188.48a.6.6,0,0,1,.42.64q0,11.1,0,22.19a.6.6,0,0,1-.43.64l-17.51,8Zm-18.24-32a2.86,2.86,0,0,0,0,.37q0,10.25,0,20.48a.49.49,0,0,0,.32.51q9,4.23,17.91,8.5l.35.13c0-.14,0-.22,0-.3q0-10.44,0-20.86a.55.55,0,0,0-.41-.57l-17.74-8.09ZM606.81,219l.3-.12q8.53-4,17.08-8.07c.28-.13.29-.31.29-.55v-20.8l-.46.21c-1.6.78-3.19,1.57-4.8,2.34a.53.53,0,0,0-.35.56c0,3.07,0,6.14,0,9.21a.53.53,0,0,1-.32.55c-1.62.87-3.23,1.76-4.84,2.64a4.46,4.46,0,0,1-.41.19V195l-.45.2c-1.88.92-3.76,1.86-5.65,2.77a.58.58,0,0,0-.39.62q0,9.47,0,18.92Zm-18.34-30.14c.08.06.11.09.15.1l16.82,7.6a.53.53,0,0,0,.39,0l5.88-2.8a1.1,1.1,0,0,0-.16-.12L595.29,186a.5.5,0,0,0-.38,0Zm33.83-.15a3.28,3.28,0,0,0-.36-.19c-5.32-2.43-10.64-4.87-16-7.28a.81.81,0,0,0-.61,0c-1.4.62-2.79,1.26-4.18,1.9l-.3.17.07,0q8.37,3.69,16.74,7.37a.41.41,0,0,0,.34,0C619.44,190.07,620.84,189.39,622.3,188.7Z"/><path class="cls-5" d="M658.23,221.68h-.09a3.42,3.42,0,0,0-.4-.26q-9.6-4.63-19.21-9.24a.62.62,0,0,1-.41-.66q0-11.1,0-22.22a.59.59,0,0,1,.41-.64l17.28-7.9c1.12-.51,2.22-1,3.33-1.56h.17l.39.22q9.87,4.53,19.76,9.06a.6.6,0,0,1,.42.64q0,11.1,0,22.19a.61.61,0,0,1-.42.64q-8.78,4-17.52,8ZM640,189.7c0,.16,0,.26,0,.37q0,10.25,0,20.48a.49.49,0,0,0,.32.51q9,4.23,17.91,8.5l.35.13c0-.14,0-.22,0-.3q0-10.44,0-20.86a.55.55,0,0,0-.41-.57l-17.74-8.09ZM660.38,219l.29-.12q8.54-4,17.08-8.07c.28-.13.29-.31.29-.55v-20.8l-.46.21c-1.6.78-3.19,1.57-4.8,2.34a.53.53,0,0,0-.35.56c0,3.07,0,6.14,0,9.21a.53.53,0,0,1-.32.55c-1.62.87-3.23,1.76-4.84,2.64a4.46,4.46,0,0,1-.41.19V195l-.45.2c-1.88.92-3.76,1.86-5.65,2.77a.58.58,0,0,0-.39.62q0,9.47,0,18.92ZM642,188.85c.08.06.11.09.15.1l16.82,7.6a.53.53,0,0,0,.39,0l5.88-2.8a1.1,1.1,0,0,0-.16-.12L648.85,186a.5.5,0,0,0-.38,0Zm33.83-.15a3.28,3.28,0,0,0-.36-.19c-5.32-2.43-10.64-4.87-16-7.28a.81.81,0,0,0-.61,0c-1.4.62-2.79,1.26-4.18,1.9l-.3.17.07,0,16.74,7.37a.41.41,0,0,0,.34,0C673,190.07,674.4,189.39,675.86,188.7Z"/><path class="cls-5" d="M711.79,221.68h-.08a3.54,3.54,0,0,0-.41-.26q-9.6-4.63-19.21-9.24a.62.62,0,0,1-.41-.66q0-11.1,0-22.22a.59.59,0,0,1,.41-.64q8.65-3.94,17.28-7.9c1.12-.51,2.22-1,3.33-1.56h.17l.39.22q9.88,4.53,19.76,9.06a.6.6,0,0,1,.42.64q0,11.1,0,22.19a.61.61,0,0,1-.42.64q-8.78,4-17.52,8Zm-18.24-32c0,.16,0,.26,0,.37q0,10.25,0,20.48a.49.49,0,0,0,.32.51q9,4.23,17.91,8.5l.35.13c0-.14,0-.22,0-.3q0-10.44,0-20.86a.55.55,0,0,0-.41-.57L694,189.87ZM713.94,219l.29-.12q8.55-4,17.08-8.07c.28-.13.29-.31.29-.55v-20.8l-.46.21c-1.6.78-3.19,1.57-4.8,2.34a.55.55,0,0,0-.35.56c0,3.07,0,6.14,0,9.21a.53.53,0,0,1-.32.55c-1.62.87-3.22,1.76-4.84,2.64-.1.06-.21.1-.4.19V195l-.45.2c-1.89.92-3.77,1.86-5.66,2.77a.59.59,0,0,0-.39.62q0,9.47,0,18.92Zm-18.35-30.14c.08.06.11.09.15.1l16.82,7.6a.53.53,0,0,0,.39,0l5.88-2.8a1.1,1.1,0,0,0-.16-.12q-8.11-3.83-16.26-7.63a.5.5,0,0,0-.38,0Zm33.83-.15a3.28,3.28,0,0,0-.36-.19c-5.32-2.43-10.64-4.87-16-7.28a.81.81,0,0,0-.61,0c-1.4.62-2.79,1.26-4.18,1.9l-.3.17.07,0,16.74,7.37a.41.41,0,0,0,.34,0C726.56,190.07,728,189.39,729.42,188.7Z"/><path class="cls-5" d="M765.35,221.68h-.08a3.54,3.54,0,0,0-.41-.26q-9.6-4.63-19.21-9.24a.62.62,0,0,1-.41-.66q0-11.1,0-22.22a.59.59,0,0,1,.41-.64q8.65-3.94,17.28-7.9c1.12-.51,2.22-1,3.33-1.56h.17l.39.22q9.88,4.53,19.76,9.06a.6.6,0,0,1,.42.64q0,11.1,0,22.19a.6.6,0,0,1-.42.64l-17.52,8Zm-18.24-32c0,.16,0,.26,0,.37v20.48a.48.48,0,0,0,.31.51q9,4.23,17.92,8.5c.1.05.21.08.34.13,0-.14,0-.22,0-.3q0-10.44,0-20.86a.55.55,0,0,0-.41-.57l-17.74-8.09ZM767.5,219l.29-.12,17.08-8.07c.28-.13.29-.31.29-.55v-20.8l-.45.21c-1.6.78-3.2,1.57-4.81,2.34a.55.55,0,0,0-.35.56c0,3.07,0,6.14,0,9.21a.53.53,0,0,1-.32.55c-1.62.87-3.22,1.76-4.84,2.64-.1.06-.21.1-.4.19V195l-.45.2c-1.89.92-3.77,1.86-5.66,2.77a.59.59,0,0,0-.39.62q0,9.47,0,18.92Zm-18.35-30.14c.08.06.11.09.15.1l16.82,7.6a.53.53,0,0,0,.39,0l5.88-2.8c-.07-.05-.11-.1-.15-.12L756,186a.5.5,0,0,0-.38,0ZM783,188.7a3.28,3.28,0,0,0-.36-.19c-5.32-2.43-10.64-4.87-16-7.28a.78.78,0,0,0-.6,0c-1.41.62-2.8,1.26-4.19,1.9l-.3.17.07,0,16.74,7.37a.41.41,0,0,0,.34,0C780.12,190.07,781.53,189.39,783,188.7Z"/><path class="cls-5" d="M681,289.31H627.82c.23-5.08,4.6-10.51,9.47-11.66a2.5,2.5,0,0,0,2-2.29,62.18,62.18,0,0,0,.69-8.39c0-3.26-.57-6.52-.57-9.78a20.69,20.69,0,0,1,2.13-9.24c2.41-4.89,6.31-7.42,11.83-7.29a34.05,34.05,0,0,1,4.17.12A11.76,11.76,0,0,1,667,248a26.75,26.75,0,0,1,1.83,15.26,30.43,30.43,0,0,0,.05,10.85,9.43,9.43,0,0,0,.93,2.5,2.07,2.07,0,0,0,1.21.9,10.53,10.53,0,0,1,7.6,6.07C679.51,285.39,680.16,287.29,681,289.31ZM665.72,259c-.92,1.77-2,.94-3.05.38q-6.2-3.22-12.43-6.4c-1.72-.89-3.41-.75-4.57.8a23.89,23.89,0,0,0-2.11,4.27c-.16.35-.2.84-.46,1-1.47,1.16-1.18,4.67.46,5.62a2.19,2.19,0,0,1,.89,1,18.23,18.23,0,0,0,4.27,6.46c3.5,3.27,7.52,3.3,11,.06a17.53,17.53,0,0,0,4.28-6.44,2.1,2.1,0,0,1,.59-1A4.15,4.15,0,0,0,665.72,259Zm-21.19,18.09c.74,2.4,5.53,4.93,9.69,4.93s8.91-2.51,9.71-5l-2.74-3c-4.32,3.72-8.71,4.41-13.84,0Z"/></svg>