<svg data-name="Layer 1" xmlns="http://www.w3.org/2000/svg" viewBox="0 0 900 900"><path style="fill:#07448e" d="M0 0h900v900H0z"/><path d="M60 106h-7.71l-6.24-37h-.16l-6.16 37h-7.68l-8.48-57h8.64l4.08 36.16h.16L42.85 49h6.24l6.64 37h.16l3.92-37h8.64Zm13.81-57H82v57h-8.19Zm16.08 0h8.16v48.8h16.16v8.2H89.89Zm29.6 0h8.16v48.8h16.16v8.2h-24.32Zm49.84 7.68h-9.44V49h27v7.68h-9.44V106h-8.16ZM190.52 49h8.16v24.4h10.08V49h8.16v57h-8.16V80.6h-10.08V106h-8.16Zm34.32 0H233v57h-8.16Zm42.48 16.4h-8.16v-1.84a8.7 8.7 0 0 0-1.32-4.84 4.88 4.88 0 0 0-4.44-2 5.32 5.32 0 0 0-2.76.64A4.72 4.72 0 0 0 249 59a6.88 6.88 0 0 0-.84 2.32 15.41 15.41 0 0 0-.24 2.76 28.22 28.22 0 0 0 .12 2.84 5.05 5.05 0 0 0 .6 2 4.66 4.66 0 0 0 1.4 1.48 13.26 13.26 0 0 0 2.52 1.28l6.24 2.48a15.38 15.38 0 0 1 4.4 2.44 9.87 9.87 0 0 1 2.6 3.28 13.57 13.57 0 0 1 1.2 4.28 42 42 0 0 1 .32 5.56 29.3 29.3 0 0 1-.72 6.68 14 14 0 0 1-2.36 5.28 11.21 11.21 0 0 1-4.36 3.48 15.54 15.54 0 0 1-6.64 1.28 14.61 14.61 0 0 1-5.52-1 13.15 13.15 0 0 1-7.32-7.12 13.27 13.27 0 0 1-1.08-5.36v-3h8.16v2.56a6.67 6.67 0 0 0 1.32 4q1.32 1.8 4.44 1.8a7.14 7.14 0 0 0 3.24-.6 4.09 4.09 0 0 0 1.76-1.72 6.78 6.78 0 0 0 .76-2.68 34.61 34.61 0 0 0 .16-3.52 33.66 33.66 0 0 0-.16-3.68 5.69 5.69 0 0 0-.68-2.32 4 4 0 0 0-1.44-1.44 19.19 19.19 0 0 0-2.44-1.2l-5.84-2.4q-5.28-2.16-7.08-5.72a19.68 19.68 0 0 1-1.8-8.92 20.93 20.93 0 0 1 .88-6.12 14.38 14.38 0 0 1 2.6-5 12.43 12.43 0 0 1 4.36-3.32 14.32 14.32 0 0 1 6.16-1.24 13.47 13.47 0 0 1 5.56 1.12 13.82 13.82 0 0 1 4.32 3 13.2 13.2 0 0 1 2.76 4.12 12 12 0 0 1 1 4.68Zm54.8 40.6h-7.68l-6.24-37h-.2l-6.16 37h-7.64l-8.48-57h8.64l4.08 36.16h.16L305 49h6.24l6.64 37h.12l4-37h8.64Zm12.16-43.56a14.56 14.56 0 0 1 1.2-6.08 12.67 12.67 0 0 1 3.16-4.36 13.62 13.62 0 0 1 4.4-2.6 14.19 14.19 0 0 1 9.84 0 13.62 13.62 0 0 1 4.4 2.6 12.67 12.67 0 0 1 3.16 4.36 14.56 14.56 0 0 1 1.2 6.08v30.08a14.46 14.46 0 0 1-1.2 6.12 12.8 12.8 0 0 1-3.16 4.32 13.62 13.62 0 0 1-4.4 2.6 14.19 14.19 0 0 1-9.84 0 13.62 13.62 0 0 1-4.4-2.6 12.8 12.8 0 0 1-3.16-4.32 14.46 14.46 0 0 1-1.2-6.12Zm8.16 30.08a5.43 5.43 0 0 0 1.64 4.36 6.08 6.08 0 0 0 7.76 0 5.43 5.43 0 0 0 1.64-4.36V62.44a5.43 5.43 0 0 0-1.64-4.36 6.08 6.08 0 0 0-7.76 0 5.43 5.43 0 0 0-1.64 4.36ZM368.84 49H382q14.4 0 14.4 16.72a21.11 21.11 0 0 1-1.56 8.52 12.09 12.09 0 0 1-5.52 5.76l8.8 26h-8.64l-7.6-24.32H377V106h-8.16ZM377 74.44h4.64a8.2 8.2 0 0 0 3.44-.6 4.4 4.4 0 0 0 2-1.72 7.42 7.42 0 0 0 .92-2.76 30.2 30.2 0 0 0 0-7.6 6.81 6.81 0 0 0-1-2.8 4.52 4.52 0 0 0-2.12-1.72 9.71 9.71 0 0 0-3.6-.56H377ZM402.92 49h8.16v26h.16l11.92-26h8.16L420.2 71.8l13.2 34.2h-8.64l-9.28-25.28-4.4 8.24v17h-8.16Zm32.8 11.68a12.06 12.06 0 0 1 3.6-8.6 12.83 12.83 0 0 1 3.92-2.6 12.62 12.62 0 0 1 10.2.24 11 11 0 0 1 4 3.36 21.69 21.69 0 0 1 1.32 2.08 10.17 10.17 0 0 1 .84 2 12.67 12.67 0 0 1 .44 2.44c.08.91.12 2 .12 3.2v3.48a20 20 0 0 1-.2 2.44 12.86 12.86 0 0 1-.4 1.8 6 6 0 0 1-.64 1.4l-5.52 9.48a15.43 15.43 0 0 0-1 2 5.59 5.59 0 0 0-.4 2.12v6.4h-8.16v-7.48a10.21 10.21 0 0 1 .56-3.36 17.54 17.54 0 0 1 1.48-3.08l5.12-8.36a6 6 0 0 0 .84-2.24A15 15 0 0 0 452 65v-4.24a4 4 0 0 0-1.16-2.88 3.79 3.79 0 0 0-2.84-1.2 4.59 4.59 0 0 0-2.8 1 3.58 3.58 0 0 0-1.36 3v4.72h-8.16Zm8.16 37.12H452v8.2h-8.16Zm71.44 8.2h-7.68l-6.24-37h-.16l-6.16 37h-7.68l-8.48-57h8.64l4.08 36.16h.16L498.2 49h6.24l6.64 37h.16l3.92-37h8.64Zm13.6-57h24.32v7.68h-16.16V73.4h14.08v7.68h-14.08V97.8h16.16v8.2h-24.32Zm44.48 0h12.08q7 0 10.64 3.88t3.68 10.84v26.64q0 8-3.88 11.8T584.76 106H573.4Zm8.16 49.28h3.76q3.43 0 4.88-1.72t1.44-5.4V63.72a8.67 8.67 0 0 0-1.36-5.2q-1.37-1.85-5-1.84h-3.76ZM607 62.44a14.56 14.56 0 0 1 1.2-6.08 12.67 12.67 0 0 1 3.16-4.36 13.52 13.52 0 0 1 4.4-2.6 14.19 14.19 0 0 1 9.84 0A13.73 13.73 0 0 1 630 52a12.8 12.8 0 0 1 3.16 4.36 14.56 14.56 0 0 1 1.2 6.08v30.08a14.46 14.46 0 0 1-1.2 6.12A12.93 12.93 0 0 1 630 103a13.73 13.73 0 0 1-4.4 2.6 14.19 14.19 0 0 1-9.84 0 13.52 13.52 0 0 1-4.4-2.6 12.8 12.8 0 0 1-3.16-4.32 14.46 14.46 0 0 1-1.2-6.12Zm8.16 30.08a5.4 5.4 0 0 0 1.64 4.36 6.08 6.08 0 0 0 7.76 0 5.43 5.43 0 0 0 1.64-4.36V62.44a5.43 5.43 0 0 0-1.64-4.36 6.08 6.08 0 0 0-7.76 0 5.4 5.4 0 0 0-1.64 4.36ZM641.24 49h7.84l12.32 34.32h.16V49h8.16v57H662l-12.44-34.28h-.16V106h-8.16Zm35.35 0h8.16v8.16l-8.16 5.92Zm20.72 7.68h-9.44V49h27v7.68h-9.44V106h-8.16ZM733.39 49h8.16v26h.16l11.92-26h8.16l-11.12 22.8 13.2 34.2h-8.64L746 80.68l-4.4 8.24v17h-8.16Zm33.76 0H775l12.32 34.32h.16V49h8.16v57H788l-12.53-34.28h-.16V106h-8.16Zm35.36 13.44a14.56 14.56 0 0 1 1.2-6.08 12.67 12.67 0 0 1 3.16-4.36 13.62 13.62 0 0 1 4.4-2.6 14.19 14.19 0 0 1 9.84 0 13.62 13.62 0 0 1 4.4 2.6 12.67 12.67 0 0 1 3.16 4.36 14.56 14.56 0 0 1 1.2 6.08v30.08a14.46 14.46 0 0 1-1.2 6.12 12.8 12.8 0 0 1-3.16 4.32 13.62 13.62 0 0 1-4.4 2.6 14.19 14.19 0 0 1-9.84 0 13.62 13.62 0 0 1-4.4-2.6 12.8 12.8 0 0 1-3.16-4.32 14.46 14.46 0 0 1-1.2-6.12Zm8.16 30.08a5.43 5.43 0 0 0 1.64 4.36 6.08 6.08 0 0 0 7.76 0 5.43 5.43 0 0 0 1.64-4.36V62.44a5.43 5.43 0 0 0-1.64-4.36 6.08 6.08 0 0 0-7.76 0 5.43 5.43 0 0 0-1.64 4.36ZM870 106h-7.68L856 69h-.16l-6.16 37H842l-8.48-57h8.64l4.08 36.16h.16L852.83 49h6.24l6.64 37h.16l3.92-37h8.64ZM190.81 730.65a8.05 8.05 0 0 1-.63 3.15 8.33 8.33 0 0 1-1.72 2.62 8.68 8.68 0 0 1-2.58 1.8 7.52 7.52 0 0 1-3.17.68 11.26 11.26 0 0 1-3-.4 7.22 7.22 0 0 1-2.7-1.38 7.42 7.42 0 0 1-2-2.57 9.26 9.26 0 0 1-.77-4V710.9a8.66 8.66 0 0 1 .6-3.25 7.52 7.52 0 0 1 1.7-2.6 7.93 7.93 0 0 1 2.62-1.73 9 9 0 0 1 3.38-.62 8.51 8.51 0 0 1 3.25.62 7.89 7.89 0 0 1 2.6 1.75 8.16 8.16 0 0 1 1.72 2.7 9.18 9.18 0 0 1 .63 3.43v2h-5.1v-1.7a4.16 4.16 0 0 0-.85-2.6 2.78 2.78 0 0 0-2.3-1.1A2.6 2.6 0 0 0 180 709a6.3 6.3 0 0 0-.62 3v18.2a4.72 4.72 0 0 0 .67 2.6 2.66 2.66 0 0 0 2.43 1 3.58 3.58 0 0 0 1.07-.18 2.81 2.81 0 0 0 1.83-1.67 4.47 4.47 0 0 0 .3-1.75v-1.75h5.1Zm4.3-27.65h5.1v35.6h-5.1Zm19.49 0h5.11v35.6h-5.11Zm26.55 10.25h-5.1v-1.15a5.45 5.45 0 0 0-.82-3 3.05 3.05 0 0 0-2.77-1.27 3.31 3.31 0 0 0-1.73.4 3 3 0 0 0-1 1 4.31 4.31 0 0 0-.53 1.45 9.69 9.69 0 0 0-.15 1.73 17.34 17.34 0 0 0 .08 1.77 3 3 0 0 0 .38 1.25 2.83 2.83 0 0 0 .87.93 8.07 8.07 0 0 0 1.57.8l3.9 1.55a9.58 9.58 0 0 1 2.75 1.52 6.27 6.27 0 0 1 1.63 2A9.07 9.07 0 0 1 241 725a27.84 27.84 0 0 1 .19 3.48 18.85 18.85 0 0 1-.44 4.17 8.92 8.92 0 0 1-1.48 3.3 7 7 0 0 1-2.73 2.18 9.72 9.72 0 0 1-4.15.8 9.17 9.17 0 0 1-3.45-.65 8.23 8.23 0 0 1-4.57-4.45 8.29 8.29 0 0 1-.68-3.35v-1.9h5.1v1.6a4.16 4.16 0 0 0 .83 2.52 3.21 3.21 0 0 0 2.77 1.13 4.47 4.47 0 0 0 2-.38 2.63 2.63 0 0 0 1.1-1 4.43 4.43 0 0 0 .48-1.68c.06-.67.09-1.4.09-2.2s0-1.7-.09-2.3a3.66 3.66 0 0 0-.43-1.45 2.59 2.59 0 0 0-.9-.9 12.19 12.19 0 0 0-1.53-.75l-3.64-1.5A8 8 0 0 1 225 718a12.27 12.27 0 0 1-1.13-5.57 12.84 12.84 0 0 1 .56-3.8 8.72 8.72 0 0 1 1.62-3.1 7.87 7.87 0 0 1 2.72-2.08 9.09 9.09 0 0 1 3.85-.77 8.42 8.42 0 0 1 3.48.7 8.64 8.64 0 0 1 2.7 1.85 8.34 8.34 0 0 1 1.72 2.57 7.32 7.32 0 0 1 .6 2.93Zm16.45-5.45h-5.9V703h16.9v4.8h-5.9v30.8h-5.1Zm13.25-4.8H276v15.25h6.3V703h5.1v35.6h-5.1v-15.85H276v15.85h-5.1Zm21.3 0h15.2v4.8h-10.1v10.45h8.8v4.8h-8.8v10.45h10.1v5.1h-15.2Zm27.85 0h7.65a11.3 11.3 0 0 1 3.7.55 7.16 7.16 0 0 1 2.9 2 7.52 7.52 0 0 1 1.8 3.27 20.71 20.71 0 0 1 .5 5.08 25.8 25.8 0 0 1-.27 4 8.65 8.65 0 0 1-1.18 3.12 7.38 7.38 0 0 1-2.8 2.72 9.32 9.32 0 0 1-4.6 1h-2.6v13.9H320Zm5.1 16.9h2.45a5.23 5.23 0 0 0 2.4-.45 2.86 2.86 0 0 0 1.25-1.23 4.67 4.67 0 0 0 .48-1.87c.05-.73.07-1.55.07-2.45s0-1.63-.07-2.38a5.59 5.59 0 0 0-.45-1.95 2.91 2.91 0 0 0-1.18-1.3 4.62 4.62 0 0 0-2.3-.47h-2.65Zm15.2-16.9h8.2q9 0 9 10.45a13.17 13.17 0 0 1-1 5.32 7.54 7.54 0 0 1-3.43 3.58l5.5 16.25h-5.4l-4.75-15.2h-3.02v15.2h-5.1Zm5.1 15.9h2.9a5.11 5.11 0 0 0 2.15-.38 2.8 2.8 0 0 0 1.23-1.07 4.64 4.64 0 0 0 .57-1.73 16.48 16.48 0 0 0 .15-2.37 16.73 16.73 0 0 0-.15-2.38 4.44 4.44 0 0 0-.62-1.75 2.83 2.83 0 0 0-1.33-1.07 6.1 6.1 0 0 0-2.25-.35h-2.65Zm15.9-7.5a9.11 9.11 0 0 1 .75-3.8 7.81 7.81 0 0 1 2-2.72 8.42 8.42 0 0 1 2.75-1.63 8.89 8.89 0 0 1 3.07-.55 9 9 0 0 1 3.08.55 8.63 8.63 0 0 1 2.75 1.63 7.92 7.92 0 0 1 2 2.72 9.11 9.11 0 0 1 .75 3.8v18.8a9 9 0 0 1-.75 3.82 7.93 7.93 0 0 1-2 2.7 8.63 8.63 0 0 1-2.75 1.63 9 9 0 0 1-3.08.55 8.89 8.89 0 0 1-3.07-.55 8.42 8.42 0 0 1-2.75-1.63 7.83 7.83 0 0 1-2-2.7 9 9 0 0 1-.75-3.82Zm5.1 18.8a3.36 3.36 0 0 0 1 2.72 3.57 3.57 0 0 0 2.42.88 3.62 3.62 0 0 0 2.43-.88 3.39 3.39 0 0 0 1-2.72v-18.8a3.42 3.42 0 0 0-1-2.73 3.66 3.66 0 0 0-2.43-.87 3.61 3.61 0 0 0-2.42.87 3.4 3.4 0 0 0-1 2.73Zm32.7.45a8.23 8.23 0 0 1-.62 3.15 8.36 8.36 0 0 1-1.73 2.62 8.51 8.51 0 0 1-2.57 1.8 7.6 7.6 0 0 1-3.18.68 11.26 11.26 0 0 1-2.95-.4 7.12 7.12 0 0 1-4.67-4 9.25 9.25 0 0 1-.78-4v-19.6a8.66 8.66 0 0 1 .6-3.25 7.67 7.67 0 0 1 1.7-2.6 8 8 0 0 1 2.63-1.73 8.91 8.91 0 0 1 3.37-.62 8.47 8.47 0 0 1 3.25.62 7.79 7.79 0 0 1 2.6 1.75 8.18 8.18 0 0 1 1.73 2.7 9.38 9.38 0 0 1 .62 3.43v2H394v-1.7a4.1 4.1 0 0 0-.85-2.6 2.76 2.76 0 0 0-2.3-1.1 2.58 2.58 0 0 0-2.52 1.17 6.29 6.29 0 0 0-.63 3v18.2a4.72 4.72 0 0 0 .68 2.6 2.65 2.65 0 0 0 2.42 1 3.69 3.69 0 0 0 1.08-.18 2.84 2.84 0 0 0 1.05-.57 3 3 0 0 0 .77-1.1 4.47 4.47 0 0 0 .3-1.75v-1.75h5.1Zm4.15-27.65h15.2v4.8h-10.1v10.45h8.8v4.8h-8.8v10.45h10.1v5.1h-15.2Zm35 10.25h-5.1v-1.15a5.45 5.45 0 0 0-.82-3 3.06 3.06 0 0 0-2.78-1.27 3.29 3.29 0 0 0-1.72.4 3 3 0 0 0-1.05 1 4.31 4.31 0 0 0-.53 1.45 9.69 9.69 0 0 0-.15 1.73 17.34 17.34 0 0 0 .08 1.77 3.11 3.11 0 0 0 .37 1.25 2.86 2.86 0 0 0 .88.93 7.79 7.79 0 0 0 1.57.8l3.9 1.55a9.71 9.71 0 0 1 2.75 1.52 6.4 6.4 0 0 1 1.63 2 8.78 8.78 0 0 1 .77 2.7 27.7 27.7 0 0 1 .2 3.48 18.26 18.26 0 0 1-.45 4.17 8.75 8.75 0 0 1-1.47 3.3 7.13 7.13 0 0 1-2.73 2.18 9.75 9.75 0 0 1-4.15.8 9.17 9.17 0 0 1-3.45-.65 8.34 8.34 0 0 1-5.25-7.8v-1.9h5.1v1.6a4.16 4.16 0 0 0 .83 2.52 3.21 3.21 0 0 0 2.77 1.13 4.5 4.5 0 0 0 2-.38 2.63 2.63 0 0 0 1.1-1 4.44 4.44 0 0 0 .47-1.68 21.29 21.29 0 0 0 .1-2.2 20.74 20.74 0 0 0-.1-2.3 3.83 3.83 0 0 0-.42-1.45 2.59 2.59 0 0 0-.9-.9 13.75 13.75 0 0 0-1.53-.75l-3.65-1.5a8 8 0 0 1-4.42-3.58 12.27 12.27 0 0 1-1.13-5.57 12.84 12.84 0 0 1 .55-3.8 8.9 8.9 0 0 1 1.63-3.1 7.68 7.68 0 0 1 2.72-2.08 9.06 9.06 0 0 1 3.85-.77 8.42 8.42 0 0 1 3.48.7 8.64 8.64 0 0 1 2.7 1.85 8.34 8.34 0 0 1 1.72 2.57 7.49 7.49 0 0 1 .6 2.93Zm20.3 0h-5.1v-1.15a5.46 5.46 0 0 0-.83-3 3 3 0 0 0-2.77-1.27 3.33 3.33 0 0 0-1.73.4 3 3 0 0 0-1.05 1 4.3 4.3 0 0 0-.52 1.45 9.69 9.69 0 0 0-.15 1.73 14.86 14.86 0 0 0 .08 1.77 3 3 0 0 0 .37 1.25 2.86 2.86 0 0 0 .88.93 7.79 7.79 0 0 0 1.57.8l3.9 1.55a9.71 9.71 0 0 1 2.75 1.52 6.24 6.24 0 0 1 1.62 2 8.52 8.52 0 0 1 .78 2.7 27.7 27.7 0 0 1 .2 3.48 18.26 18.26 0 0 1-.45 4.17 8.61 8.61 0 0 1-1.48 3.3 7 7 0 0 1-2.72 2.18 9.75 9.75 0 0 1-4.15.8 9.17 9.17 0 0 1-3.45-.65 8.37 8.37 0 0 1-2.75-1.78 8.41 8.41 0 0 1-2.5-6v-1.9h5.1v1.6a4.1 4.1 0 0 0 .83 2.52 3.19 3.19 0 0 0 2.77 1.13 4.5 4.5 0 0 0 2-.38 2.69 2.69 0 0 0 1.1-1 4.63 4.63 0 0 0 .47-1.68 21.29 21.29 0 0 0 .1-2.2 20.74 20.74 0 0 0-.1-2.3 3.66 3.66 0 0 0-.43-1.45 2.48 2.48 0 0 0-.89-.9 13.75 13.75 0 0 0-1.53-.75l-3.65-1.5a8.08 8.08 0 0 1-4.43-3.58 12.28 12.28 0 0 1-1.12-5.57 12.84 12.84 0 0 1 .55-3.8 8.9 8.9 0 0 1 1.63-3.1 7.68 7.68 0 0 1 2.72-2.08 9.06 9.06 0 0 1 3.85-.77 8.45 8.45 0 0 1 3.48.7 8.71 8.71 0 0 1 2.69 1.85 8.37 8.37 0 0 1 1.73 2.57 7.49 7.49 0 0 1 .6 2.93Zm12.8-1.85a9.11 9.11 0 0 1 .75-3.8 7.92 7.92 0 0 1 2-2.72 8.63 8.63 0 0 1 2.75-1.63 9 9 0 0 1 3.08-.55 8.89 8.89 0 0 1 3.07.55 8.42 8.42 0 0 1 2.75 1.63 7.81 7.81 0 0 1 2 2.72 9.11 9.11 0 0 1 .75 3.8v18.8a9 9 0 0 1-.75 3.82 7.83 7.83 0 0 1-2 2.7 8.42 8.42 0 0 1-2.75 1.63 8.89 8.89 0 0 1-3.07.55 9 9 0 0 1-3.08-.55 8.63 8.63 0 0 1-2.75-1.63 7.93 7.93 0 0 1-2-2.7 9 9 0 0 1-.75-3.82Zm5.1 18.8a3.39 3.39 0 0 0 1 2.72 3.78 3.78 0 0 0 4.85 0 3.36 3.36 0 0 0 1-2.72v-18.8a3.4 3.4 0 0 0-1-2.73 3.81 3.81 0 0 0-4.85 0 3.42 3.42 0 0 0-1 2.73ZM493 703h15.2v4.8h-10.1v10.8h8.8v4.8h-8.8v15.2H493Zm31.1 4.8h-5.9V703h16.9v4.8h-5.9v30.8h-5.1Zm13.25-4.8h15.2v4.8h-10.1v10.45h8.8v4.8h-8.8v10.45h10.1v5.1h-15.2Zm35 10.25h-5.1v-1.15a5.46 5.46 0 0 0-.83-3 3 3 0 0 0-2.77-1.27 3.33 3.33 0 0 0-1.73.4 3 3 0 0 0-1 1 4.3 4.3 0 0 0-.52 1.45 9.69 9.69 0 0 0-.15 1.73 17.69 17.69 0 0 0 .07 1.77 3.11 3.11 0 0 0 .38 1.25 2.94 2.94 0 0 0 .87.93 7.91 7.91 0 0 0 1.58.8l3.9 1.55a9.71 9.71 0 0 1 2.75 1.52 6.24 6.24 0 0 1 1.62 2 9.07 9.07 0 0 1 .78 2.7 27.7 27.7 0 0 1 .2 3.48 18.26 18.26 0 0 1-.45 4.17 8.76 8.76 0 0 1-1.48 3.3 7 7 0 0 1-2.72 2.18 9.78 9.78 0 0 1-4.15.8 9.09 9.09 0 0 1-3.45-.65 8.26 8.26 0 0 1-2.75-1.78 8.3 8.3 0 0 1-2.5-6v-1.9h5.1v1.6a4.15 4.15 0 0 0 .82 2.52 3.23 3.23 0 0 0 2.78 1.13 4.45 4.45 0 0 0 2-.38 2.63 2.63 0 0 0 1.1-1 4.43 4.43 0 0 0 .48-1.68c.06-.67.1-1.4.1-2.2s0-1.7-.1-2.3a3.66 3.66 0 0 0-.43-1.45 2.59 2.59 0 0 0-.9-.9 12.68 12.68 0 0 0-1.52-.75l-3.65-1.5a8.08 8.08 0 0 1-4.43-3.58 12.28 12.28 0 0 1-1.12-5.57 12.84 12.84 0 0 1 .55-3.8 8.72 8.72 0 0 1 1.62-3.1 7.81 7.81 0 0 1 2.73-2.08 9.06 9.06 0 0 1 3.85-.77 8.41 8.41 0 0 1 3.47.7 8.64 8.64 0 0 1 2.7 1.85 8.37 8.37 0 0 1 1.73 2.57 7.49 7.49 0 0 1 .6 2.93Zm7.15-5.45h-5.9V703h16.9v4.8h-5.9v30.8h-5.1Zm13.39-4.8H598v35.6h-5.1Zm9.85 0h4.9l7.7 21.45h.1V703h5.1v35.6h-4.8l-7.8-21.4h-.1v21.4h-5.1Zm22.1 8.4a9.11 9.11 0 0 1 .75-3.8 7.81 7.81 0 0 1 2-2.72 8.42 8.42 0 0 1 2.75-1.63 8.87 8.87 0 0 1 6.15 0 8.63 8.63 0 0 1 2.75 1.63 7.79 7.79 0 0 1 2 2.72 9.11 9.11 0 0 1 .75 3.8v1.8h-5.1v-1.8a3.42 3.42 0 0 0-1-2.73 3.81 3.81 0 0 0-4.85 0 3.43 3.43 0 0 0-1 2.73v18.8a3.39 3.39 0 0 0 1 2.72 3.78 3.78 0 0 0 4.85 0 3.39 3.39 0 0 0 1-2.72v-6.7h-4.05V719h9.15v11.2a9 9 0 0 1-.75 3.82 7.8 7.8 0 0 1-2 2.7 8.63 8.63 0 0 1-2.75 1.63 8.87 8.87 0 0 1-6.15 0 8.42 8.42 0 0 1-2.75-1.63 7.83 7.83 0 0 1-2-2.7 9 9 0 0 1-.75-3.82Zm47.1 19.25a8.21 8.21 0 0 1-2.35 5.77 8.51 8.51 0 0 1-2.57 1.8 7.56 7.56 0 0 1-3.18.68 11.31 11.31 0 0 1-3-.4 7.12 7.12 0 0 1-4.67-4 9.25 9.25 0 0 1-.78-4v-19.6a8.66 8.66 0 0 1 .6-3.25 7.67 7.67 0 0 1 1.7-2.6 8.08 8.08 0 0 1 2.63-1.73 8.91 8.91 0 0 1 3.37-.62 8.47 8.47 0 0 1 3.25.62 7.79 7.79 0 0 1 2.6 1.75 8 8 0 0 1 1.73 2.7 9.38 9.38 0 0 1 .62 3.43v2h-5.1v-1.7a4.1 4.1 0 0 0-.85-2.6 2.75 2.75 0 0 0-2.3-1.1 2.59 2.59 0 0 0-2.52 1.17 6.29 6.29 0 0 0-.63 3v18.2a4.72 4.72 0 0 0 .68 2.6 2.66 2.66 0 0 0 2.42 1 3.64 3.64 0 0 0 1.08-.18 2.84 2.84 0 0 0 1-.57 3 3 0 0 0 .77-1.1 4.47 4.47 0 0 0 .3-1.75v-1.75h5.1Zm3.85-19.25a9.11 9.11 0 0 1 .75-3.8 7.81 7.81 0 0 1 2-2.72 8.42 8.42 0 0 1 2.75-1.63 8.87 8.87 0 0 1 6.15 0 8.63 8.63 0 0 1 2.75 1.63 7.92 7.92 0 0 1 2 2.72 9.11 9.11 0 0 1 .75 3.8v18.8a9 9 0 0 1-.75 3.82 7.93 7.93 0 0 1-2 2.7 8.63 8.63 0 0 1-2.75 1.63 8.87 8.87 0 0 1-6.15 0 8.42 8.42 0 0 1-2.75-1.63 7.83 7.83 0 0 1-2-2.7 9 9 0 0 1-.75-3.82Zm5.1 18.8a3.36 3.36 0 0 0 1 2.72 3.78 3.78 0 0 0 4.85 0 3.39 3.39 0 0 0 1-2.72v-18.8a3.42 3.42 0 0 0-1-2.73 3.81 3.81 0 0 0-4.85 0 3.4 3.4 0 0 0-1 2.73Zm16.5-27.2h7.55q4.35 0 6.65 2.42a9.49 9.49 0 0 1 2.3 6.78v16.65q0 5-2.42 7.37c-1.62 1.59-3.94 2.38-7 2.38h-7.1Zm5.1 30.8h2.35a3.76 3.76 0 0 0 3-1.08 5.18 5.18 0 0 0 .9-3.37V712.2a5.37 5.37 0 0 0-.85-3.25 3.61 3.61 0 0 0-3.1-1.15h-2.35Zm16.2-30.8h15.2v4.8h-10.1v10.45h8.8v4.8h-8.8v10.45h10.1v5.1h-15.2ZM78 763h4.25l8 35.6h-5.1l-1.59-7.6h-7l-1.5 7.65H70Zm2.15 10.25H80l-2.5 12.9h5.1ZM92.66 763h5.1v30.5h10.1v5.1h-15.2Zm18.5 0h5.1v30.5h10.1v5.1h-15.2Zm18.2 8.4a9.11 9.11 0 0 1 .75-3.8 7.79 7.79 0 0 1 2-2.72 8.53 8.53 0 0 1 2.75-1.63 8.87 8.87 0 0 1 6.15 0 8.53 8.53 0 0 1 2.75 1.63 7.81 7.81 0 0 1 2 2.72 9.11 9.11 0 0 1 .75 3.8v18.8a9 9 0 0 1-.75 3.82 7.83 7.83 0 0 1-2 2.7 8.53 8.53 0 0 1-2.75 1.63 8.87 8.87 0 0 1-6.15 0 8.53 8.53 0 0 1-2.75-1.63 7.8 7.8 0 0 1-2-2.7 9 9 0 0 1-.75-3.82Zm5.1 18.8a3.39 3.39 0 0 0 1 2.72 3.78 3.78 0 0 0 4.85 0 3.39 3.39 0 0 0 1-2.72v-18.8a3.43 3.43 0 0 0-1-2.73 3.81 3.81 0 0 0-4.85 0 3.42 3.42 0 0 0-1 2.73Zm37.05 8.4h-4.8l-3.9-23.1h-.1l-3.85 23.1h-4.8l-5.3-35.6h5.4l2.55 22.6h.1l4-22.6h3.9l4.15 23.15h.1l2.45-23.15h5.4Zm8.65-35.6h5.1v35.6h-5.1Zm9.84 0h4.9l7.7 21.45h.1V763h5.1v35.6H203l-7.8-21.4h-.1v21.4H190Zm22.11 8.4a9.11 9.11 0 0 1 .75-3.8 7.79 7.79 0 0 1 2-2.72 8.53 8.53 0 0 1 2.75-1.63 8.87 8.87 0 0 1 6.15 0 8.53 8.53 0 0 1 2.75 1.63 7.81 7.81 0 0 1 2 2.72 9.11 9.11 0 0 1 .75 3.8v1.8h-5.1v-1.8a3.43 3.43 0 0 0-1-2.73 3.81 3.81 0 0 0-4.85 0 3.42 3.42 0 0 0-1 2.73v18.8a3.39 3.39 0 0 0 1 2.72 3.78 3.78 0 0 0 4.85 0 3.39 3.39 0 0 0 1-2.72v-6.7h-4.05V779h9.15v11.2a9 9 0 0 1-.75 3.82 7.83 7.83 0 0 1-2 2.7 8.53 8.53 0 0 1-2.75 1.63 8.87 8.87 0 0 1-6.15 0 8.53 8.53 0 0 1-2.75-1.63 7.8 7.8 0 0 1-2-2.7 9 9 0 0 1-.75-3.82ZM243 763h15.2v4.8h-10.1v10.45h8.8v4.8h-8.8v10.45h10.1v5.1H243Zm18.3 0h4.9l7.7 21.45h.1V763h5.1v35.6h-4.8l-7.8-21.4h-.1v21.4h-5.1Zm22.1 8.4a9.11 9.11 0 0 1 .75-3.8 7.81 7.81 0 0 1 2-2.72 8.53 8.53 0 0 1 2.75-1.63 8.87 8.87 0 0 1 6.15 0 8.63 8.63 0 0 1 2.75 1.63 7.79 7.79 0 0 1 2 2.72 9.11 9.11 0 0 1 .75 3.8v1.8h-5.1v-1.8a3.42 3.42 0 0 0-1-2.73 3.81 3.81 0 0 0-4.85 0 3.43 3.43 0 0 0-1 2.73v18.8a3.39 3.39 0 0 0 1 2.72 3.78 3.78 0 0 0 4.85 0 3.39 3.39 0 0 0 1-2.72v-6.7h-4V779h9.15v11.2a9 9 0 0 1-.75 3.82 7.8 7.8 0 0 1-2 2.7 8.63 8.63 0 0 1-2.75 1.63 8.87 8.87 0 0 1-6.15 0 8.53 8.53 0 0 1-2.75-1.63 7.83 7.83 0 0 1-2-2.7 9 9 0 0 1-.75-3.82Zm21.75-8.4h5.1v35.6h-5.1Zm9.85 0h4.9l7.7 21.45h.1V763h5.1v35.6H328l-7.8-21.4h-.1v21.4H315Zm22.4 0h15.2v4.8h-10.1v10.45h8.8v4.8h-8.8v10.45h10.1v5.1h-15.2Zm18.5 0h15.2v4.8H361v10.45h8.8v4.8H361v10.45h10.1v5.1h-15.2Zm18.5 0h8.2q9 0 9 10.45a13.17 13.17 0 0 1-1 5.32 7.54 7.54 0 0 1-3.43 3.58l5.5 16.25h-5.4l-4.75-15.2h-3.02v15.2h-5.1Zm5.1 15.9h2.9a5.11 5.11 0 0 0 2.15-.38 2.8 2.8 0 0 0 1.23-1.07 4.64 4.64 0 0 0 .57-1.73 16.48 16.48 0 0 0 .15-2.37 16.73 16.73 0 0 0-.15-2.38 4.44 4.44 0 0 0-.62-1.75 2.83 2.83 0 0 0-1.33-1.07 6.1 6.1 0 0 0-2.25-.35h-2.65Zm32.7-5.65h-5.1v-1.15a5.45 5.45 0 0 0-.82-3 3.06 3.06 0 0 0-2.78-1.27 3.29 3.29 0 0 0-1.72.4 3 3 0 0 0-1 1 4.31 4.31 0 0 0-.53 1.45 9.69 9.69 0 0 0-.15 1.73 17.34 17.34 0 0 0 .08 1.77 3.11 3.11 0 0 0 .37 1.25 2.86 2.86 0 0 0 .88.93 7.79 7.79 0 0 0 1.57.8l3.9 1.55a9.71 9.71 0 0 1 2.75 1.52 6.4 6.4 0 0 1 1.63 2A8.78 8.78 0 0 1 412 785a27.7 27.7 0 0 1 .2 3.48 18.26 18.26 0 0 1-.45 4.17 8.75 8.75 0 0 1-1.47 3.3 7.13 7.13 0 0 1-2.73 2.18 9.75 9.75 0 0 1-4.15.8 9.17 9.17 0 0 1-3.45-.65 8.34 8.34 0 0 1-5.25-7.8v-1.9h5.1v1.6a4.16 4.16 0 0 0 .83 2.52 3.21 3.21 0 0 0 2.77 1.13 4.5 4.5 0 0 0 2-.38 2.63 2.63 0 0 0 1.1-1 4.44 4.44 0 0 0 .47-1.68 21.29 21.29 0 0 0 .1-2.2 20.74 20.74 0 0 0-.1-2.3 3.83 3.83 0 0 0-.42-1.45 2.59 2.59 0 0 0-.9-.9 13.75 13.75 0 0 0-1.53-.75l-3.65-1.5a8 8 0 0 1-4.42-3.58 12.27 12.27 0 0 1-1.13-5.57 12.84 12.84 0 0 1 .55-3.8 8.9 8.9 0 0 1 1.63-3.1 7.68 7.68 0 0 1 2.72-2.08 9.06 9.06 0 0 1 3.85-.77 8.42 8.42 0 0 1 3.48.7 8.64 8.64 0 0 1 2.7 1.85 8.34 8.34 0 0 1 1.72 2.57 7.49 7.49 0 0 1 .6 2.93ZM425.3 763h4.9l6.55 18.85h.1l6.5-18.85h4.95v35.6h-5.1V777h-.1l-5.05 15.3h-2.55l-5-15.3h-.1v21.6h-5.1Zm27.5 8.4a9.11 9.11 0 0 1 .75-3.8 7.81 7.81 0 0 1 2-2.72 8.42 8.42 0 0 1 2.75-1.63 8.89 8.89 0 0 1 3.07-.55 9 9 0 0 1 3.08.55 8.63 8.63 0 0 1 2.75 1.63 7.92 7.92 0 0 1 2 2.72 9.11 9.11 0 0 1 .75 3.8v18.8a9 9 0 0 1-.75 3.82 7.93 7.93 0 0 1-2 2.7 8.63 8.63 0 0 1-2.75 1.63 9 9 0 0 1-3.08.55 8.89 8.89 0 0 1-3.07-.55 8.42 8.42 0 0 1-2.75-1.63 7.83 7.83 0 0 1-2-2.7 9 9 0 0 1-.75-3.82Zm5.1 18.8a3.36 3.36 0 0 0 1 2.72 3.57 3.57 0 0 0 2.42.88 3.62 3.62 0 0 0 2.43-.88 3.39 3.39 0 0 0 1-2.72v-18.8a3.42 3.42 0 0 0-1-2.73 3.66 3.66 0 0 0-2.43-.87 3.61 3.61 0 0 0-2.42.87 3.4 3.4 0 0 0-1 2.73Zm16.5-27.2h8.2q9 0 9 10.45a13 13 0 0 1-1 5.32 7.52 7.52 0 0 1-3.42 3.58l5.5 16.25h-5.4l-4.75-15.2h-3.03v15.2h-5.1Zm5.1 15.9h2.9a5.11 5.11 0 0 0 2.15-.38 2.8 2.8 0 0 0 1.23-1.07 4.64 4.64 0 0 0 .57-1.73 16.48 16.48 0 0 0 .15-2.37 16.73 16.73 0 0 0-.15-2.38 4.29 4.29 0 0 0-.63-1.75 2.75 2.75 0 0 0-1.32-1.07 6.1 6.1 0 0 0-2.25-.35h-2.65Zm16.2-15.9h15.2v4.8h-10.1v10.45h8.8v4.8h-8.8v10.45h10.1v5.1h-15.2Zm31.15 4.8H521V763h16.9v4.8H532v30.8h-5.1Zm13.4-4.8h5.1v35.6h-5.1Zm10.05 0h4.9l6.55 18.85h.1l6.5-18.85h4.95v35.6h-5.1V777h-.1l-5.05 15.3h-2.55l-5-15.3h-.1v21.6h-5.1Zm27.8 0h15.2v4.8h-10.1v10.45h8.8v4.8h-8.8v10.45h10.1v5.1h-15.2Zm31.15 4.8h-5.9V763h16.9v4.8h-5.9v30.8h-5.1Zm12.35 3.6a9.11 9.11 0 0 1 .75-3.8 7.79 7.79 0 0 1 2-2.72 8.53 8.53 0 0 1 2.75-1.63 8.87 8.87 0 0 1 6.15 0 8.53 8.53 0 0 1 2.75 1.63 7.81 7.81 0 0 1 2 2.72 9.11 9.11 0 0 1 .75 3.8v18.8a9 9 0 0 1-.75 3.8 7.83 7.83 0 0 1-2 2.7 8.53 8.53 0 0 1-2.75 1.63 8.87 8.87 0 0 1-6.15 0 8.53 8.53 0 0 1-2.75-1.63 7.8 7.8 0 0 1-2-2.7 9 9 0 0 1-.75-3.82Zm5.1 18.8a3.39 3.39 0 0 0 1 2.72 3.78 3.78 0 0 0 4.85 0 3.39 3.39 0 0 0 1-2.72v-18.8a3.43 3.43 0 0 0-1-2.73 3.81 3.81 0 0 0-4.85 0 3.42 3.42 0 0 0-1 2.73Zm46.94 8.4h-4.79L665 775.5h-.1l-3.9 23.1h-4.8l-5.31-35.6h5.4l2.56 22.6h.1l4-22.6h3.9l4.15 23.15h.1l2.44-23.15H679Zm8.5-35.6h8.2q9 0 9 10.45a13.17 13.17 0 0 1-1 5.32 7.52 7.52 0 0 1-3.42 3.58l5.5 16.25H695l-4.75-15.2h-3v15.2h-5.1Zm5.1 15.9h2.9a5.11 5.11 0 0 0 2.15-.38 2.69 2.69 0 0 0 1.23-1.07 4.64 4.64 0 0 0 .57-1.73 15.15 15.15 0 0 0 .15-2.37 15.37 15.37 0 0 0-.15-2.38 4.29 4.29 0 0 0-.62-1.75 2.83 2.83 0 0 0-1.33-1.07 6 6 0 0 0-2.25-.35h-2.65Zm16.35-15.9h5.1v35.6h-5.1Zm13.41 4.8h-5.9V763H728v4.8h-5.9v30.8H717Zm13.24-4.8h15.2v4.8h-10.1v10.45h8.8v4.8h-8.8v10.45h10.1v5.1h-15.2Zm44 27.65a8.23 8.23 0 0 1-.62 3.15 8.36 8.36 0 0 1-1.73 2.62 8.51 8.51 0 0 1-2.57 1.8 7.56 7.56 0 0 1-3.18.68 11.26 11.26 0 0 1-2.95-.4 7.12 7.12 0 0 1-4.67-4 9.25 9.25 0 0 1-.78-4v-19.6a8.66 8.66 0 0 1 .6-3.25 7.67 7.67 0 0 1 1.7-2.6 8.08 8.08 0 0 1 2.63-1.73 8.91 8.91 0 0 1 3.37-.62 8.47 8.47 0 0 1 3.25.62 7.79 7.79 0 0 1 2.6 1.75 8.18 8.18 0 0 1 1.73 2.7 9.38 9.38 0 0 1 .62 3.43v2h-5.1v-1.7a4.1 4.1 0 0 0-.85-2.6 2.76 2.76 0 0 0-2.3-1.1 2.58 2.58 0 0 0-2.52 1.17 6.29 6.29 0 0 0-.63 3v18.2a4.72 4.72 0 0 0 .68 2.6 2.66 2.66 0 0 0 2.42 1 3.64 3.64 0 0 0 1.08-.18 2.84 2.84 0 0 0 1.05-.57 3 3 0 0 0 .77-1.1 4.47 4.47 0 0 0 .3-1.75v-1.75h5.1Zm3.85-19.25a9.11 9.11 0 0 1 .75-3.8 7.81 7.81 0 0 1 2-2.72 8.42 8.42 0 0 1 2.75-1.63 8.89 8.89 0 0 1 3.07-.55 9 9 0 0 1 3.08.55 8.63 8.63 0 0 1 2.75 1.63 7.92 7.92 0 0 1 2 2.72 9.11 9.11 0 0 1 .75 3.8v18.8a9 9 0 0 1-.75 3.82 7.93 7.93 0 0 1-2 2.7 8.63 8.63 0 0 1-2.75 1.63 9 9 0 0 1-3.08.55 8.89 8.89 0 0 1-3.07-.55 8.42 8.42 0 0 1-2.75-1.63 7.83 7.83 0 0 1-2-2.7 9 9 0 0 1-.75-3.82Zm5.1 18.8a3.36 3.36 0 0 0 1 2.72 3.78 3.78 0 0 0 4.85 0 3.39 3.39 0 0 0 1-2.72v-18.8a3.42 3.42 0 0 0-1-2.73 3.81 3.81 0 0 0-4.85 0 3.4 3.4 0 0 0-1 2.73Zm16.5-27.2h7.55q4.35 0 6.65 2.42a9.49 9.49 0 0 1 2.3 6.78v16.65q0 5-2.42 7.37t-7 2.38h-7.1Zm5.1 30.8h2.35a3.78 3.78 0 0 0 3.05-1.08 5.18 5.18 0 0 0 .9-3.37V772.2a5.37 5.37 0 0 0-.85-3.25 3.62 3.62 0 0 0-3.1-1.15h-2.35ZM821 763h15.2v4.8h-10.1v10.45h8.8v4.8h-8.8v10.45h10.1v5.1H821Zm-608.78 85a37.3 37.3 0 0 0-1.2 6.4c-.22 2.22-.33 4.42-.33 6.62a41.35 41.35 0 0 0 .4 5.88 45.1 45.1 0 0 0 1.13 5.46h-1a16.69 16.69 0 0 1-1.58-2.82 22.3 22.3 0 0 1-1.11-3.12 25.6 25.6 0 0 1-.66-3.2 21.08 21.08 0 0 1 0-6.21 23.49 23.49 0 0 1 1.83-6.28 18.77 18.77 0 0 1 1.5-2.73Zm4.02 2.88h-3.54V848h10.14v2.88h-3.54v18.48h-3.06ZM224 848h3.06v7.62h.06a4.31 4.31 0 0 1 1.15-1.18A2.92 2.92 0 0 1 230 854a3.51 3.51 0 0 1 1.14.2 2.51 2.51 0 0 1 1 .64 3.32 3.32 0 0 1 .72 1.15 4.91 4.91 0 0 1 .27 1.73v11.67h-3.03v-10.56a2 2 0 0 0-.39-1.32 1.35 1.35 0 0 0-1.11-.48 1.29 1.29 0 0 0-1.2.54 3 3 0 0 0-.33 1.56v10.23H224Zm14.47 14.91V865a1.47 1.47 0 0 0 .4 1.11 1.52 1.52 0 0 0 1.1.39 1.2 1.2 0 0 0 1.15-.51 2.76 2.76 0 0 0 .35-1h3.06a5.09 5.09 0 0 1-.32 1.8 4 4 0 0 1-.91 1.44 4.3 4.3 0 0 1-1.44 1 5.19 5.19 0 0 1-4.32-.24 4.11 4.11 0 0 1-1.56-1.59 3.93 3.93 0 0 1-.45-1.38 11.28 11.28 0 0 1-.12-1.71v-5a11.28 11.28 0 0 1 .12-1.71 3.93 3.93 0 0 1 .45-1.38 4.11 4.11 0 0 1 1.56-1.59A4.71 4.71 0 0 1 240 854a4.84 4.84 0 0 1 1.9.36 4 4 0 0 1 1.44 1 4.64 4.64 0 0 1 .9 1.52 5.42 5.42 0 0 1 .32 1.86v4.2Zm0-2.4h3v-1.74a1.87 1.87 0 0 0-.41-1.31A1.45 1.45 0 0 0 240 857a1.47 1.47 0 0 0-1.1.43 1.87 1.87 0 0 0-.4 1.31Zm13.59-8.13a4.45 4.45 0 0 1 .36-1.77 4.49 4.49 0 0 1 1-1.46 4.82 4.82 0 0 1 1.47-1 4.72 4.72 0 0 1 3.82.09 4.22 4.22 0 0 1 1.52 1.26 7.43 7.43 0 0 1 .49.78 4.68 4.68 0 0 1 .32.76 5.65 5.65 0 0 1 .16.92c0 .34.05.74.05 1.2v1.3a7.53 7.53 0 0 1-.07.92 6.24 6.24 0 0 1-.15.67 2.58 2.58 0 0 1-.24.53l-2.07 3.54a4.49 4.49 0 0 0-.36.73 2.15 2.15 0 0 0-.15.8v2.4h-3.06v-2.79a3.79 3.79 0 0 1 .21-1.26 6.16 6.16 0 0 1 .54-1.17l1.92-3.12a2.5 2.5 0 0 0 .31-.84 5.47 5.47 0 0 0 .08-.9v-1.59a1.5 1.5 0 0 0-.44-1.08 1.41 1.41 0 0 0-1.06-.45 1.74 1.74 0 0 0-1.06.39 1.34 1.34 0 0 0-.5 1.14v1.74h-3.06Zm3.06 13.92h3.06v3.06h-3.06Zm8.34-18.3h3.06v3.06l-3.06 2.22Zm9.48 10.41a1.52 1.52 0 0 0-.5-1.17 1.62 1.62 0 0 0-1.06-.39 1.35 1.35 0 0 0-1.11.46 1.57 1.57 0 0 0-.39 1.07 1.78 1.78 0 0 0 .2.83 2 2 0 0 0 1.09.73l1.79.72a4.38 4.38 0 0 1 2.36 1.8A5 5 0 0 1 276 865a4.52 4.52 0 0 1-.34 1.78 4.66 4.66 0 0 1-.95 1.46 4.3 4.3 0 0 1-1.44 1 4.6 4.6 0 0 1-1.83.36 4.92 4.92 0 0 1-1.71-.3 4.22 4.22 0 0 1-1.42-.87 4.33 4.33 0 0 1-1-1.42 4.79 4.79 0 0 1-.42-2h2.88a2.91 2.91 0 0 0 .43 1.17 1.33 1.33 0 0 0 1.22.54 1.77 1.77 0 0 0 1.18-.44 1.46 1.46 0 0 0 .52-1.21 1.78 1.78 0 0 0-.33-1.08 2.61 2.61 0 0 0-1.19-.78l-1.48-.54a5 5 0 0 1-2.26-1.61 4.09 4.09 0 0 1-.82-2.59 4.64 4.64 0 0 1 .35-1.79 4.69 4.69 0 0 1 1-1.41 4.49 4.49 0 0 1 1.42-.91 4.62 4.62 0 0 1 1.75-.33 4.23 4.23 0 0 1 3.08 1.27 4.37 4.37 0 0 1 .9 1.41 4.55 4.55 0 0 1 .33 1.76Zm16.37 9.39h-.06a5.63 5.63 0 0 1-1.21 1.29 2.89 2.89 0 0 1-1.73.45 4.38 4.38 0 0 1-1.11-.16 2.9 2.9 0 0 1-1.06-.6 3.11 3.11 0 0 1-.81-1.24 5.58 5.58 0 0 1-.32-2 11 11 0 0 1 .21-2.27 3.61 3.61 0 0 1 .77-1.61 3.31 3.31 0 0 1 1.48-1 7.83 7.83 0 0 1 2.37-.31h.66l.81.06v-1.59a2.33 2.33 0 0 0-.33-1.29 1.32 1.32 0 0 0-1.2-.51 1.71 1.71 0 0 0-1.09.39 1.86 1.86 0 0 0-.65 1.14h-3a5 5 0 0 1 1.38-3.3 4.35 4.35 0 0 1 1.44-1 4.93 4.93 0 0 1 1.89-.34 5.31 5.31 0 0 1 1.8.3 4 4 0 0 1 1.46.9 4.27 4.27 0 0 1 1 1.5 5.63 5.63 0 0 1 .36 2.1v10.59h-3.06Zm0-5a5 5 0 0 0-.84-.09 2.92 2.92 0 0 0-1.69.47 1.87 1.87 0 0 0-.71 1.69 2.23 2.23 0 0 0 .42 1.41 1.4 1.4 0 0 0 1.17.54 1.52 1.52 0 0 0 1.22-.51 2.15 2.15 0 0 0 .43-1.44Zm5.31-8.65h3.06v1.47h.06a4.35 4.35 0 0 1 1.16-1.18 2.89 2.89 0 0 1 1.72-.47 3.51 3.51 0 0 1 1.14.2 2.51 2.51 0 0 1 1 .64 3.32 3.32 0 0 1 .72 1.15 4.91 4.91 0 0 1 .27 1.73v11.67h-3.06v-10.53a2 2 0 0 0-.39-1.32 1.35 1.35 0 0 0-1.11-.48 1.29 1.29 0 0 0-1.2.54 3 3 0 0 0-.33 1.56v10.23h-3.06ZM312.38 868l-.57.61a2.86 2.86 0 0 1-1.35.83 3.63 3.63 0 0 1-1 .12 2.78 2.78 0 0 1-2.67-1.44 4.07 4.07 0 0 1-.39-1.26 13.31 13.31 0 0 1-.12-2V859a23.45 23.45 0 0 1 .09-2.43 3 3 0 0 1 .39-1.26 3.29 3.29 0 0 1 1-1 3.66 3.66 0 0 1 3.33 0 3.57 3.57 0 0 1 1.21 1.15h.06V848h3.06v21.36h-3.06Zm-3-3.57a2.78 2.78 0 0 0 .36 1.5 1.25 1.25 0 0 0 1.14.57 1.38 1.38 0 0 0 1.12-.5 2.13 2.13 0 0 0 .42-1.37v-5.91a1.67 1.67 0 0 0-.43-1.19 1.48 1.48 0 0 0-1.1-.46 1.24 1.24 0 0 0-1.18.54 2.46 2.46 0 0 0-.32 1.26Zm50.7-11.15H357v-3.06l3.06-2.22Zm8.07 5.13a1.52 1.52 0 0 0-.49-1.17 1.62 1.62 0 0 0-1.07-.39 1.36 1.36 0 0 0-1.11.46 1.62 1.62 0 0 0-.39 1.07 1.79 1.79 0 0 0 .21.83 2 2 0 0 0 1.08.73l1.8.72a4.42 4.42 0 0 1 2.36 1.8 5 5 0 0 1 .64 2.49 4.7 4.7 0 0 1-.34 1.78 4.84 4.84 0 0 1-.95 1.46 4.3 4.3 0 0 1-1.44 1 4.6 4.6 0 0 1-1.83.36 4.88 4.88 0 0 1-1.71-.3 4.22 4.22 0 0 1-1.42-.87 4.51 4.51 0 0 1-1-1.42 5.12 5.12 0 0 1-.42-2h2.88a2.92 2.92 0 0 0 .44 1.17 1.31 1.31 0 0 0 1.21.54 1.77 1.77 0 0 0 1.19-.44 1.49 1.49 0 0 0 .52-1.21 1.78 1.78 0 0 0-.33-1.08 2.6 2.6 0 0 0-1.2-.78l-1.47-.54A5 5 0 0 1 363 861a4 4 0 0 1-.83-2.59 4.47 4.47 0 0 1 .36-1.79 4.35 4.35 0 0 1 2.4-2.32 4.57 4.57 0 0 1 1.74-.33 4.31 4.31 0 0 1 1.73.34 4.5 4.5 0 0 1 1.36.93 4.37 4.37 0 0 1 .9 1.41 4.74 4.74 0 0 1 .33 1.76Zm16.17-4.26h3.06v1.62a9.29 9.29 0 0 1 1.83-1.32 4.67 4.67 0 0 1 2.22-.48v3.24a2.48 2.48 0 0 0-.93-.18 3.37 3.37 0 0 0-1 .17 2.68 2.68 0 0 0-1 .55 3 3 0 0 0-.76 1 3.62 3.62 0 0 0-.3 1.56v9h-3.06Zm11.13 8.76V865a1.47 1.47 0 0 0 .4 1.11 1.52 1.52 0 0 0 1.1.39 1.2 1.2 0 0 0 1.15-.51 2.76 2.76 0 0 0 .35-1h3.06a5.09 5.09 0 0 1-.32 1.8 4 4 0 0 1-.91 1.44 4.3 4.3 0 0 1-1.44 1 5.19 5.19 0 0 1-4.32-.24 4.11 4.11 0 0 1-1.56-1.59 4.15 4.15 0 0 1-.45-1.38 11.28 11.28 0 0 1-.12-1.71v-5a11.28 11.28 0 0 1 .12-1.71 4.15 4.15 0 0 1 .45-1.38 4.11 4.11 0 0 1 1.56-1.59A4.71 4.71 0 0 1 397 854a4.84 4.84 0 0 1 1.9.36 4 4 0 0 1 1.44 1 4.64 4.64 0 0 1 .9 1.52 5.42 5.42 0 0 1 .32 1.86v4.2Zm0-2.4h3v-1.74a1.87 1.87 0 0 0-.41-1.31A1.45 1.45 0 0 0 397 857a1.47 1.47 0 0 0-1.1.43 1.87 1.87 0 0 0-.4 1.31Zm8.31-6.36h3.06v1.38a7.53 7.53 0 0 1 1.17-1.11 2.87 2.87 0 0 1 1.74-.45 2.78 2.78 0 0 1 2.67 1.44 4.07 4.07 0 0 1 .39 1.26 13.31 13.31 0 0 1 .12 2v5.79a23.45 23.45 0 0 1-.09 2.43 3 3 0 0 1-.39 1.26 3.29 3.29 0 0 1-1 1 3.66 3.66 0 0 1-3.33 0 3.57 3.57 0 0 1-1.21-1.15h-.06v7.53h-3.06Zm6.09 5a2.78 2.78 0 0 0-.36-1.5 1.25 1.25 0 0 0-1.14-.57 1.38 1.38 0 0 0-1.11.52 2.13 2.13 0 0 0-.42 1.37v5.91a1.63 1.63 0 0 0 .43 1.18 1.42 1.42 0 0 0 1.1.47 1.24 1.24 0 0 0 1.18-.54 2.46 2.46 0 0 0 .32-1.26Zm5.58-5h3.06v1.62a9.29 9.29 0 0 1 1.83-1.32 4.67 4.67 0 0 1 2.22-.48v3.24a2.48 2.48 0 0 0-.93-.18 3.37 3.37 0 0 0-1 .17 2.68 2.68 0 0 0-1 .55 3 3 0 0 0-.76 1 3.62 3.62 0 0 0-.3 1.56v9h-3.06Zm11.13 8.76V865a1.47 1.47 0 0 0 .4 1.11 1.52 1.52 0 0 0 1.1.39 1.2 1.2 0 0 0 1.15-.51 2.76 2.76 0 0 0 .35-1h3.06a5.09 5.09 0 0 1-.32 1.8 4 4 0 0 1-.91 1.44 4.3 4.3 0 0 1-1.44 1 5.19 5.19 0 0 1-4.32-.24 4.11 4.11 0 0 1-1.56-1.59 4.15 4.15 0 0 1-.45-1.38 11.28 11.28 0 0 1-.12-1.71v-5a11.28 11.28 0 0 1 .12-1.71 4.15 4.15 0 0 1 .45-1.38 4.11 4.11 0 0 1 1.56-1.59 4.71 4.71 0 0 1 2.43-.6 4.84 4.84 0 0 1 1.9.36 4 4 0 0 1 1.44 1 4.64 4.64 0 0 1 .9 1.52 5.42 5.42 0 0 1 .32 1.86v4.2Zm0-2.4h3v-1.74a1.87 1.87 0 0 0-.41-1.31 1.45 1.45 0 0 0-1.09-.43 1.47 1.47 0 0 0-1.1.43 1.87 1.87 0 0 0-.4 1.31Zm13.86-2.1a1.52 1.52 0 0 0-.5-1.17 1.6 1.6 0 0 0-1.06-.39 1.36 1.36 0 0 0-1.11.46 1.62 1.62 0 0 0-.39 1.07 1.79 1.79 0 0 0 .21.83 2 2 0 0 0 1.08.73l1.8.72a4.35 4.35 0 0 1 2.35 1.8 5 5 0 0 1 .65 2.49 4.52 4.52 0 0 1-.35 1.78 4.64 4.64 0 0 1-.94 1.46 4.3 4.3 0 0 1-1.44 1 4.6 4.6 0 0 1-1.83.36 4.88 4.88 0 0 1-1.71-.3 4.26 4.26 0 0 1-1.43-.87 4.48 4.48 0 0 1-1-1.42 5.12 5.12 0 0 1-.42-2h2.88a2.91 2.91 0 0 0 .43 1.17 1.34 1.34 0 0 0 1.22.54 1.75 1.75 0 0 0 1.18-.44 1.47 1.47 0 0 0 .53-1.21 1.78 1.78 0 0 0-.33-1.08 2.6 2.6 0 0 0-1.2-.78l-1.47-.54a5 5 0 0 1-2.27-1.62 4.09 4.09 0 0 1-.82-2.59 4.41 4.41 0 0 1 1.33-3.2A4.6 4.6 0 0 1 439 854a4.26 4.26 0 0 1 1.72.34 4.42 4.42 0 0 1 1.37.93 4.37 4.37 0 0 1 .9 1.41 4.74 4.74 0 0 1 .33 1.76Zm7.8 4.5V865a1.47 1.47 0 0 0 .4 1.11 1.52 1.52 0 0 0 1.1.39 1.2 1.2 0 0 0 1.15-.51 2.76 2.76 0 0 0 .35-1h3.06a5.09 5.09 0 0 1-.32 1.8 4 4 0 0 1-.91 1.44 4.3 4.3 0 0 1-1.44 1 5.19 5.19 0 0 1-4.32-.24 4.11 4.11 0 0 1-1.56-1.59 4.15 4.15 0 0 1-.45-1.38 11.28 11.28 0 0 1-.12-1.71v-5a11.28 11.28 0 0 1 .12-1.71 4.15 4.15 0 0 1 .45-1.38 4.11 4.11 0 0 1 1.56-1.59 4.71 4.71 0 0 1 2.43-.6 4.84 4.84 0 0 1 1.9.36 4 4 0 0 1 1.44 1 4.64 4.64 0 0 1 .9 1.52 5.42 5.42 0 0 1 .32 1.86v4.2Zm0-2.4h3v-1.74a1.87 1.87 0 0 0-.41-1.31 1.45 1.45 0 0 0-1.09-.43 1.47 1.47 0 0 0-1.1.43 1.87 1.87 0 0 0-.4 1.31Zm8.31-6.36h3.06v1.47h.06a4.31 4.31 0 0 1 1.15-1.18 2.92 2.92 0 0 1 1.73-.47 3.51 3.51 0 0 1 1.14.2 2.51 2.51 0 0 1 1 .64 3.32 3.32 0 0 1 .72 1.15 4.91 4.91 0 0 1 .27 1.73v11.67h-3.06v-10.53a2 2 0 0 0-.39-1.32 1.35 1.35 0 0 0-1.11-.48 1.29 1.29 0 0 0-1.2.54 3 3 0 0 0-.33 1.56v10.23h-3.06Zm11.67-4.62h3.06v4.62h1.89v2.4h-1.89V865a2.67 2.67 0 0 0 .1.84.86.86 0 0 0 .33.45 1.25 1.25 0 0 0 .59.18h.87v2.88h-1.26a4.16 4.16 0 0 1-1.76-.33 3.14 3.14 0 0 1-1.12-.84 3.38 3.38 0 0 1-.62-1.15 4.32 4.32 0 0 1-.19-1.25v-9.24h-1.53v-2.4h1.53Zm20.85 19.83H486v-1.47h-.06a4.21 4.21 0 0 1-1.16 1.18 3 3 0 0 1-1.72.47 3.51 3.51 0 0 1-1.14-.2 2.63 2.63 0 0 1-1-.64 3.19 3.19 0 0 1-.72-1.16 4.78 4.78 0 0 1-.27-1.72v-11.67H483v10.53a2 2 0 0 0 .39 1.32 1.35 1.35 0 0 0 1.11.48 1.29 1.29 0 0 0 1.2-.54 3 3 0 0 0 .33-1.56v-10.23h3.06Zm2.52-15.21h3.06v1.47h.06a4.31 4.31 0 0 1 1.15-1.18 2.92 2.92 0 0 1 1.73-.47 3.51 3.51 0 0 1 1.14.2 2.51 2.51 0 0 1 1 .64 3.32 3.32 0 0 1 .72 1.15 4.91 4.91 0 0 1 .27 1.73v11.67h-3.06v-10.53a2 2 0 0 0-.39-1.32 1.35 1.35 0 0 0-1.11-.48 1.29 1.29 0 0 0-1.2.54 3 3 0 0 0-.33 1.56v10.23h-3.06Zm11.67-4.62h3.06v4.62h1.89v2.4h-1.89V865a2.67 2.67 0 0 0 .1.84.86.86 0 0 0 .33.45 1.25 1.25 0 0 0 .59.18h.87v2.88h-1.26a4.16 4.16 0 0 1-1.76-.33 3.14 3.14 0 0 1-1.12-.84 3.38 3.38 0 0 1-.62-1.15 4.32 4.32 0 0 1-.19-1.25v-9.24h-1.53v-2.4h1.53Zm8.91 13.38V865a1.47 1.47 0 0 0 .4 1.11 1.52 1.52 0 0 0 1.1.39 1.2 1.2 0 0 0 1.15-.51 2.76 2.76 0 0 0 .35-1h3.06a5.09 5.09 0 0 1-.32 1.8 4 4 0 0 1-.91 1.44 4.3 4.3 0 0 1-1.44 1 5.19 5.19 0 0 1-4.32-.24 4.11 4.11 0 0 1-1.56-1.59 4.15 4.15 0 0 1-.45-1.38 10.12 10.12 0 0 1-.12-1.71v-5a10.12 10.12 0 0 1 .12-1.71 4.15 4.15 0 0 1 .45-1.38 4.11 4.11 0 0 1 1.56-1.59 4.71 4.71 0 0 1 2.43-.6 4.84 4.84 0 0 1 1.9.36 4 4 0 0 1 1.44 1 4.64 4.64 0 0 1 .9 1.52 5.42 5.42 0 0 1 .32 1.86v4.2Zm0-2.4h3v-1.74a1.87 1.87 0 0 0-.41-1.31 1.45 1.45 0 0 0-1.09-.43 1.47 1.47 0 0 0-1.1.43 1.87 1.87 0 0 0-.4 1.31Zm13.85-2.1a1.52 1.52 0 0 0-.5-1.17 1.6 1.6 0 0 0-1.06-.39 1.36 1.36 0 0 0-1.11.46 1.62 1.62 0 0 0-.39 1.07 1.79 1.79 0 0 0 .21.83 2 2 0 0 0 1.08.73l1.8.72a4.35 4.35 0 0 1 2.35 1.8A5 5 0 0 1 529 865a4.52 4.52 0 0 1-.35 1.78 4.64 4.64 0 0 1-.94 1.46 4.3 4.3 0 0 1-1.44 1 4.6 4.6 0 0 1-1.83.36 4.88 4.88 0 0 1-1.71-.3 4.26 4.26 0 0 1-1.43-.87 4.48 4.48 0 0 1-1-1.42 5.12 5.12 0 0 1-.42-2h2.88a2.91 2.91 0 0 0 .43 1.17 1.34 1.34 0 0 0 1.22.54 1.77 1.77 0 0 0 1.18-.44 1.47 1.47 0 0 0 .53-1.21 1.84 1.84 0 0 0-.33-1.08 2.6 2.6 0 0 0-1.2-.78l-1.47-.54a5 5 0 0 1-2.27-1.61 4.09 4.09 0 0 1-.82-2.59 4.41 4.41 0 0 1 1.33-3.2 4.6 4.6 0 0 1 3.17-1.24 4.26 4.26 0 0 1 1.72.34 4.42 4.42 0 0 1 1.37.93 4.37 4.37 0 0 1 .9 1.41 4.74 4.74 0 0 1 .33 1.76Zm5-8.88h3.06v4.62H536v2.4h-1.88V865a2.67 2.67 0 0 0 .1.84.86.86 0 0 0 .33.45 1.25 1.25 0 0 0 .59.18h.86v2.88h-1.25A4.13 4.13 0 0 1 533 869a3.14 3.14 0 0 1-1.12-.84 3.22 3.22 0 0 1-.62-1.15 4.32 4.32 0 0 1-.19-1.25v-9.24h-1.53v-2.4H531Zm8.92 13.38V865a1.47 1.47 0 0 0 .41 1.11 1.5 1.5 0 0 0 1.09.39 1.21 1.21 0 0 0 1.16-.51 2.73 2.73 0 0 0 .34-1H546a5.08 5.08 0 0 1-.31 1.8 4 4 0 0 1-.92 1.44 4.21 4.21 0 0 1-1.44 1 4.75 4.75 0 0 1-1.89.36 4.65 4.65 0 0 1-2.42-.6 4.09 4.09 0 0 1-2-3 11.34 11.34 0 0 1-.11-1.71v-5a11.34 11.34 0 0 1 .11-1.71 4.09 4.09 0 0 1 2-3 4.65 4.65 0 0 1 2.42-.6 4.89 4.89 0 0 1 1.91.36 4 4 0 0 1 1.44 1 4.64 4.64 0 0 1 .9 1.52 5.42 5.42 0 0 1 .31 1.86v4.2Zm0-2.4h3v-1.74a1.87 1.87 0 0 0-.4-1.31 1.47 1.47 0 0 0-1.1-.43 1.45 1.45 0 0 0-1.09.43 1.87 1.87 0 0 0-.41 1.31Zm14.41 7.49-.58.61a2.57 2.57 0 0 1-.59.5 3 3 0 0 1-.75.33 3.73 3.73 0 0 1-1 .12 2.78 2.78 0 0 1-2.67-1.44 3.6 3.6 0 0 1-.39-1.26 13.1 13.1 0 0 1-.13-2V859a22.8 22.8 0 0 1 .1-2.43 3 3 0 0 1 .38-1.26 3.29 3.29 0 0 1 1-1 3.24 3.24 0 0 1 1.73-.39 3.17 3.17 0 0 1 1.6.41 3.69 3.69 0 0 1 1.22 1.15h.06V848h3v21.36h-3Zm-3-3.57a2.77 2.77 0 0 0 .37 1.5 1.23 1.23 0 0 0 1.13.57 1.41 1.41 0 0 0 1.12-.52 2.13 2.13 0 0 0 .42-1.37v-5.91a1.68 1.68 0 0 0-.44-1.19 1.48 1.48 0 0 0-1.1-.46 1.24 1.24 0 0 0-1.18.54 2.46 2.46 0 0 0-.32 1.26Zm17.39.57a1.47 1.47 0 0 0 .41 1.11 1.5 1.5 0 0 0 1.09.39 1.21 1.21 0 0 0 1.16-.51 2.73 2.73 0 0 0 .34-1h3.07a5.09 5.09 0 0 1-.32 1.8 3.87 3.87 0 0 1-.92 1.44 4.36 4.36 0 0 1-1.43 1 4.84 4.84 0 0 1-1.9.36 4.71 4.71 0 0 1-2.43-.6 4.11 4.11 0 0 1-1.56-1.59 3.93 3.93 0 0 1-.44-1.38 11.22 11.22 0 0 1-.13-1.71v-5a11.22 11.22 0 0 1 .13-1.71 3.93 3.93 0 0 1 .44-1.38 4.11 4.11 0 0 1 1.56-1.59 4.71 4.71 0 0 1 2.43-.6 4.89 4.89 0 0 1 1.91.36 4 4 0 0 1 1.44 1 4.58 4.58 0 0 1 .9 1.55 5.86 5.86 0 0 1 .32 2h-3.07a2 2 0 0 0-.4-1.37 1.47 1.47 0 0 0-1.1-.43 1.45 1.45 0 0 0-1.09.43 1.87 1.87 0 0 0-.41 1.31Zm7.59-5.75a11.28 11.28 0 0 1 .12-1.71 4.15 4.15 0 0 1 .45-1.38 4.06 4.06 0 0 1 1.57-1.59 5.2 5.2 0 0 1 4.85 0 4.2 4.2 0 0 1 1.57 1.59 4.39 4.39 0 0 1 .44 1.38 11.28 11.28 0 0 1 .12 1.71v5a11.28 11.28 0 0 1-.12 1.71 4.39 4.39 0 0 1-.44 1.38 4.2 4.2 0 0 1-1.57 1.59 5.2 5.2 0 0 1-4.85 0 4.06 4.06 0 0 1-1.57-1.59 4.15 4.15 0 0 1-.45-1.38 11.28 11.28 0 0 1-.12-1.71Zm3.07 5.49a1.82 1.82 0 0 0 .4 1.3 1.58 1.58 0 0 0 2.19 0 1.83 1.83 0 0 0 .41-1.3v-6a1.87 1.87 0 0 0-.41-1.31 1.61 1.61 0 0 0-2.19 0 1.87 1.87 0 0 0-.4 1.31Zm14.39 3.26-.57.61a2.86 2.86 0 0 1-1.35.83 3.63 3.63 0 0 1-1 .12 2.78 2.78 0 0 1-2.67-1.44 4.07 4.07 0 0 1-.39-1.26 13.31 13.31 0 0 1-.12-2V859a23.45 23.45 0 0 1 .09-2.43 3 3 0 0 1 .39-1.26 3.29 3.29 0 0 1 1-1 3.66 3.66 0 0 1 3.33 0 3.57 3.57 0 0 1 1.21 1.15h.06V848h3.06v21.36h-3.06Zm-3-3.57a2.78 2.78 0 0 0 .36 1.5 1.25 1.25 0 0 0 1.14.57 1.38 1.38 0 0 0 1.11-.52 2.13 2.13 0 0 0 .42-1.37v-5.91a1.67 1.67 0 0 0-.43-1.19 1.48 1.48 0 0 0-1.1-.46 1.24 1.24 0 0 0-1.18.54 2.46 2.46 0 0 0-.32 1.26Zm11.37-1.52V865a1.47 1.47 0 0 0 .41 1.11 1.5 1.5 0 0 0 1.09.39 1.21 1.21 0 0 0 1.16-.51 2.73 2.73 0 0 0 .34-1h3.06a5.08 5.08 0 0 1-.31 1.8 4 4 0 0 1-.92 1.44 4.3 4.3 0 0 1-1.44 1 5.19 5.19 0 0 1-4.32-.24 4.11 4.11 0 0 1-1.56-1.59 4.15 4.15 0 0 1-.45-1.38 11.28 11.28 0 0 1-.12-1.71v-5a11.28 11.28 0 0 1 .12-1.71 4.15 4.15 0 0 1 .45-1.38 4.11 4.11 0 0 1 1.56-1.59 4.71 4.71 0 0 1 2.43-.6 4.89 4.89 0 0 1 1.91.36 4 4 0 0 1 1.44 1 4.64 4.64 0 0 1 .9 1.52 5.42 5.42 0 0 1 .31 1.86v4.2Zm0-2.4h3v-1.74a1.87 1.87 0 0 0-.4-1.31 1.47 1.47 0 0 0-1.1-.43 1.45 1.45 0 0 0-1.09.43 1.87 1.87 0 0 0-.41 1.31Zm13.86-6.36h3.06v1.47h.06a4.35 4.35 0 0 1 1.16-1.18A2.89 2.89 0 0 1 622 854a2.73 2.73 0 0 1 1.65.48 4.92 4.92 0 0 1 1.08 1 6.44 6.44 0 0 1 1.26-1.08 3.5 3.5 0 0 1 1.92-.45 3.78 3.78 0 0 1 1.17.2 2.72 2.72 0 0 1 1.08.64A3.43 3.43 0 0 1 631 856a4.47 4.47 0 0 1 .3 1.73v11.67h-3.06v-10.57a2 2 0 0 0-.39-1.32 1.35 1.35 0 0 0-1.11-.48 1.29 1.29 0 0 0-1.2.54 3 3 0 0 0-.33 1.56v10.23h-3.06v-10.53a2 2 0 0 0-.39-1.32 1.35 1.35 0 0 0-1.11-.48 1.29 1.29 0 0 0-1.2.54 3 3 0 0 0-.33 1.56v10.23H616Zm17.52 5.1a11.28 11.28 0 0 1 .12-1.71 4.15 4.15 0 0 1 .45-1.38 4.11 4.11 0 0 1 1.56-1.59 5.22 5.22 0 0 1 4.86 0 4.11 4.11 0 0 1 1.56 1.59 4.15 4.15 0 0 1 .45 1.38 11.28 11.28 0 0 1 .12 1.71v5a11.28 11.28 0 0 1-.12 1.71 4.15 4.15 0 0 1-.45 1.38 4.11 4.11 0 0 1-1.56 1.59 5.22 5.22 0 0 1-4.86 0 4.11 4.11 0 0 1-1.56-1.59 4.15 4.15 0 0 1-.45-1.38 11.28 11.28 0 0 1-.12-1.71Zm3.06 5.49A1.83 1.83 0 0 0 637 866a1.42 1.42 0 0 0 1.09.44 1.44 1.44 0 0 0 1.1-.44 1.82 1.82 0 0 0 .4-1.3v-6a1.87 1.87 0 0 0-.4-1.31 1.47 1.47 0 0 0-1.1-.43 1.45 1.45 0 0 0-1.09.43 1.87 1.87 0 0 0-.41 1.31ZM651 868l-.57.61a2.86 2.86 0 0 1-1.35.83 3.63 3.63 0 0 1-1 .12 2.78 2.78 0 0 1-2.67-1.44 4.07 4.07 0 0 1-.39-1.26 13.31 13.31 0 0 1-.12-2V859a23.45 23.45 0 0 1 .09-2.43 3 3 0 0 1 .39-1.26 3.29 3.29 0 0 1 1-1 3.66 3.66 0 0 1 3.33 0 3.57 3.57 0 0 1 1.21 1.15h.08V848h3v21.36h-3Zm-3-3.57a2.78 2.78 0 0 0 .36 1.5 1.25 1.25 0 0 0 1.14.57 1.38 1.38 0 0 0 1.11-.52 2.13 2.13 0 0 0 .42-1.37v-5.91a1.67 1.67 0 0 0-.43-1.19 1.48 1.48 0 0 0-1.1-.46 1.24 1.24 0 0 0-1.18.54 2.46 2.46 0 0 0-.32 1.26Zm17.71 4.93h-3.06v-1.47h-.06a4.18 4.18 0 0 1-1.15 1.18 3 3 0 0 1-1.73.47 3.51 3.51 0 0 1-1.14-.2 2.63 2.63 0 0 1-1-.64 3.19 3.19 0 0 1-.72-1.16 4.78 4.78 0 0 1-.27-1.72v-11.67h3.06v10.53A2 2 0 0 0 660 866a1.35 1.35 0 0 0 1.11.48 1.29 1.29 0 0 0 1.2-.54 3 3 0 0 0 .33-1.56v-10.23h3.06Zm2.34-21.36h3.06v17.07a1.67 1.67 0 0 0 .32 1.18 2 2 0 0 0 1.18.41v2.88a11 11 0 0 1-1.9-.16 3.28 3.28 0 0 1-1.44-.64 2.86 2.86 0 0 1-.9-1.3 6.23 6.23 0 0 1-.32-2.16Zm8.55 14.91V865a1.47 1.47 0 0 0 .41 1.11 1.5 1.5 0 0 0 1.09.39 1.21 1.21 0 0 0 1.16-.51 2.73 2.73 0 0 0 .34-1h3.06a5.08 5.08 0 0 1-.31 1.8 4 4 0 0 1-.92 1.44 4.3 4.3 0 0 1-1.44 1 5.19 5.19 0 0 1-4.32-.24 4.11 4.11 0 0 1-1.56-1.59 4.15 4.15 0 0 1-.45-1.38 11.28 11.28 0 0 1-.12-1.71v-5a11.28 11.28 0 0 1 .12-1.71 4.15 4.15 0 0 1 .45-1.38 4.11 4.11 0 0 1 1.56-1.59 4.71 4.71 0 0 1 2.43-.6 4.89 4.89 0 0 1 1.91.36 4 4 0 0 1 1.44 1 4.64 4.64 0 0 1 .9 1.52 5.42 5.42 0 0 1 .31 1.86v4.2Zm0-2.4h3v-1.74a1.87 1.87 0 0 0-.4-1.31 1.47 1.47 0 0 0-1.1-.43 1.45 1.45 0 0 0-1.09.43 1.87 1.87 0 0 0-.41 1.31Zm13.86-2.1a1.52 1.52 0 0 0-.49-1.17 1.62 1.62 0 0 0-1.07-.39 1.36 1.36 0 0 0-1.11.46 1.62 1.62 0 0 0-.39 1.07 1.79 1.79 0 0 0 .21.83 2 2 0 0 0 1.08.73l1.8.72a4.38 4.38 0 0 1 2.36 1.8 5 5 0 0 1 .64 2.49 4.52 4.52 0 0 1-.34 1.78 4.66 4.66 0 0 1-.95 1.46 4.3 4.3 0 0 1-1.44 1 4.6 4.6 0 0 1-1.83.36 4.88 4.88 0 0 1-1.71-.3 4.22 4.22 0 0 1-1.42-.87 4.51 4.51 0 0 1-1-1.42 5.12 5.12 0 0 1-.42-2h2.88a2.92 2.92 0 0 0 .44 1.17 1.32 1.32 0 0 0 1.21.54 1.77 1.77 0 0 0 1.19-.44 1.46 1.46 0 0 0 .52-1.21 1.78 1.78 0 0 0-.33-1.08 2.6 2.6 0 0 0-1.2-.78l-1.47-.54a5 5 0 0 1-2.26-1.61 4.1 4.1 0 0 1-.83-2.59 4.47 4.47 0 0 1 .36-1.79 4.35 4.35 0 0 1 2.4-2.32A4.57 4.57 0 0 1 689 854a4.31 4.31 0 0 1 1.73.34 4.15 4.15 0 0 1 2.26 2.34 4.74 4.74 0 0 1 .33 1.76Zm4.32 13.95A37.12 37.12 0 0 0 696 866q.33-3.32.33-6.62a41.35 41.35 0 0 0-.4-5.88 45.1 45.1 0 0 0-1.13-5.46h1a18.52 18.52 0 0 1 1.58 2.83 22.18 22.18 0 0 1 1.11 3.11 25.45 25.45 0 0 1 .66 3.19 22.11 22.11 0 0 1 .22 3 21.73 21.73 0 0 1-.24 3.16 23.42 23.42 0 0 1-1.83 6.29 18.77 18.77 0 0 1-1.5 2.73Z" style="fill:#f9c7e4"/><path d="M457.93 659h-.16a7.57 7.57 0 0 0-.76-.49l-36.16-17.4a1.15 1.15 0 0 1-.77-1.23v-41.83a1.12 1.12 0 0 1 .77-1.21q16.27-7.41 32.53-14.87c2.1-1 4.18-2 6.26-2.93h.36c.24.13.48.29.74.4q18.58 8.55 37.19 17.07a1.12 1.12 0 0 1 .79 1.2v41.78a1.12 1.12 0 0 1-.79 1.2l-33 15c-2.35 1.12-4.68 2.22-7 3.31Zm-34.34-60.19v39.25a.88.88 0 0 0 .59.94l33.72 16c.2.09.41.15.65.24v-39.83c0-.62-.28-.84-.77-1.07l-33.4-15.22c-.26-.12-.5-.19-.79-.31ZM462 654l.56-.24q16.07-7.61 32.15-15.18c.52-.25.55-.59.55-1v-39.17l-.86.39c-3 1.47-6 2.95-9 4.41a1 1 0 0 0-.67 1.06v17.33a1 1 0 0 1-.61 1c-3 1.64-6.06 3.31-9.1 5-.19.1-.4.18-.76.35v-19.22c-.39.18-.62.27-.85.39-3.55 1.74-7.09 3.49-10.65 5.21a1.11 1.11 0 0 0-.73 1.17v35.61Zm-34.56-56.8a3.26 3.26 0 0 0 .27.2l31.67 14.3a1 1 0 0 0 .73 0c3.68-1.74 7.35-3.51 11.07-5.28a1.84 1.84 0 0 0-.29-.22q-15.3-7.2-30.61-14.37a1 1 0 0 0-.72 0c-4.02 1.78-8.03 3.56-12.12 5.37Zm63.68-.28c-.28-.16-.47-.27-.68-.37q-15-6.85-30.06-13.7a1.55 1.55 0 0 0-1.14 0c-2.64 1.16-5.26 2.37-7.88 3.58a5.58 5.58 0 0 0-.56.32l.12.09 31.52 13.88a.89.89 0 0 0 .64 0c2.66-1.22 5.3-2.49 8.04-3.8Z" style="fill:#f7eec9"/><path transform="rotate(-57.3 336.51 470.458)" style="fill:#f9c7e4" d="M329.55 391.03h13v156.53h-13z"/><path style="fill:#f9c7e4" d="m368.26 516.11 30.45-6.66-6.67-30.45 15.75 10.09 6.67 30.45-30.45 6.67-15.75-10.1z"/><path style="fill:#07448e" d="M212.69 418.87h489.97v26.79H212.69z"/><path transform="rotate(-47.14 210.026 249.372)" style="fill:#f9c7e4" d="M207.64 196.7h4.76v105.35h-4.76z"/><path style="fill:#f9c7e4" d="m236.2 284.67 11.4-.42-.43-11.4 5.02 4.66.43 11.39-11.4.42-5.02-4.65z"/><path transform="rotate(-89.87 273.734 250.094)" style="fill:#f9c7e4" d="M239.58 247.72h68.34v4.76h-68.34z"/><path style="fill:#f9c7e4" d="m265.63 274.78 8.04 8.08 8.08-8.05-.01 6.85-8.08 8.04-8.04-8.08.01-6.84z"/><path transform="rotate(-43.29 337.102 250.46)" style="fill:#f9c7e4" d="M283.26 248.08h107.65v4.76H283.26z"/><path style="fill:#f9c7e4" d="m299.27 275-.34 11.4 11.4.34-4.98 4.69-11.4-.34.34-11.39 4.98-4.7z"/><path style="fill:#07448e" d="M136.48 211.53h259.71v8.78H136.48z"/><path d="M179.94 339.09h-.07a3.37 3.37 0 0 0-.35-.22q-8.29-4-16.6-8a.52.52 0 0 1-.35-.56v-19.2a.52.52 0 0 1 .35-.56q7.47-3.39 14.93-6.82c1-.44 1.92-.9 2.88-1.35h.14a2.27 2.27 0 0 0 .34.19q8.53 3.92 17.08 7.83a.53.53 0 0 1 .36.56v19.17a.53.53 0 0 1-.37.56l-15.13 6.9Zm-15.76-27.63v18.02a.41.41 0 0 0 .27.43l15.48 7.35.3.11v-18.26a.47.47 0 0 0-.35-.49l-15.33-7Zm17.62 25.31.25-.11 14.76-7c.24-.11.25-.27.25-.48v-18l-.39.18-4.15 2a.45.45 0 0 0-.31.48v8a.46.46 0 0 1-.28.47l-4.18 2.29c-.08.05-.18.08-.35.16V316l-.39.17c-1.62.8-3.25 1.61-4.88 2.39a.51.51 0 0 0-.34.54v16.35Zm-15.85-26a.51.51 0 0 0 .12.09l14.54 6.57a.42.42 0 0 0 .33 0q2.53-1.18 5.08-2.42c-.06 0-.09-.08-.13-.1l-14-6.6a.47.47 0 0 0-.33 0Zm29.23-.13-.31-.17q-6.9-3.15-13.8-6.28a.7.7 0 0 0-.53 0c-1.21.53-2.41 1.09-3.61 1.64a1.74 1.74 0 0 0-.26.15.11.11 0 0 1 .05 0l14.47 6.37a.39.39 0 0 0 .3 0c1.22-.57 2.43-1.16 3.69-1.76Zm31.04 28.45h-.07a2.07 2.07 0 0 0-.35-.22l-16.6-8a.52.52 0 0 1-.35-.56V311.1a.52.52 0 0 1 .35-.56q7.47-3.39 14.94-6.82c1-.44 1.91-.9 2.87-1.35h.15a2.27 2.27 0 0 0 .34.19q8.53 3.92 17.07 7.83a.52.52 0 0 1 .36.56v19.17a.52.52 0 0 1-.36.56q-7.57 3.44-15.14 6.9Zm-15.76-27.63v18.02a.41.41 0 0 0 .27.43l15.49 7.35.29.11v-18.26a.46.46 0 0 0-.35-.49l-15.33-7Zm17.62 25.31.26-.11 14.75-7c.24-.11.26-.27.26-.48v-17.97l-.39.18-4.15 2a.46.46 0 0 0-.31.48v8a.45.45 0 0 1-.27.47l-4.18 2.29-.35.16V316l-.39.17c-1.63.8-3.26 1.61-4.89 2.39a.49.49 0 0 0-.33.54v16.35Zm-15.85-26c.07 0 .09.08.12.09l14.54 6.57a.42.42 0 0 0 .33 0c1.7-.79 3.38-1.6 5.09-2.42a.94.94 0 0 0-.14-.1l-14-6.6a.47.47 0 0 0-.33 0Zm29.23-.13-.31-.17q-6.9-3.15-13.8-6.28a.67.67 0 0 0-.52 0c-1.22.53-2.42 1.09-3.62 1.64a2.43 2.43 0 0 0-.26.15h.06l14.46 6.37a.39.39 0 0 0 .3 0c1.23-.57 2.43-1.16 3.69-1.76Zm31.05 28.45h-.07a3.37 3.37 0 0 0-.35-.22q-8.29-4-16.6-8a.53.53 0 0 1-.36-.56V311.1a.53.53 0 0 1 .36-.56q7.47-3.39 14.93-6.82l2.88-1.35h.14a2.27 2.27 0 0 0 .34.19q8.54 3.92 17.07 7.83a.53.53 0 0 1 .37.56v19.17a.53.53 0 0 1-.37.56q-7.58 3.44-15.14 6.9Zm-15.77-27.63v18.02a.4.4 0 0 0 .27.43l15.48 7.35.3.11v-18.26c0-.29-.13-.39-.36-.49l-15.33-7Zm17.62 25.31.26-.11 14.76-7c.24-.11.25-.27.25-.48v-18l-.4.18-4.15 2a.45.45 0 0 0-.3.48v8a.46.46 0 0 1-.28.47l-4.18 2.29-.35.16V316l-.39.17c-1.63.8-3.25 1.61-4.88 2.39a.51.51 0 0 0-.34.54v16.35Zm-15.85-26a.77.77 0 0 0 .13.09l14.54 6.57a.42.42 0 0 0 .33 0q2.53-1.18 5.08-2.42c-.06 0-.09-.08-.13-.1l-14-6.6a.47.47 0 0 0-.33 0Zm29.24-.13-.32-.17q-6.89-3.15-13.8-6.28a.67.67 0 0 0-.52 0c-1.21.53-2.41 1.09-3.62 1.64l-.25.15h.05l14.47 6.37a.37.37 0 0 0 .29 0c1.22-.57 2.44-1.16 3.7-1.76Zm31.04 28.45h-.07a3.37 3.37 0 0 0-.35-.22l-16.6-8a.52.52 0 0 1-.35-.56V311.1a.52.52 0 0 1 .35-.56q7.47-3.39 14.94-6.82c1-.44 1.91-.9 2.87-1.35h.14c.12.07.23.14.34.19q8.54 3.92 17.08 7.83a.53.53 0 0 1 .36.56v19.17a.53.53 0 0 1-.36.56q-7.58 3.44-15.14 6.9ZM303 311.46v18.02a.41.41 0 0 0 .27.43l15.48 7.35.3.11v-18.26a.47.47 0 0 0-.35-.49l-15.33-7Zm17.62 25.31.25-.11 14.76-7c.24-.11.25-.27.25-.48v-18l-.39.18-4.15 2a.46.46 0 0 0-.31.48v8a.46.46 0 0 1-.28.47l-4.17 2.29-.36.16V316l-.39.17c-1.62.8-3.25 1.61-4.88 2.39a.51.51 0 0 0-.34.54v16.35Zm-15.85-26a.51.51 0 0 0 .12.09l14.54 6.57a.42.42 0 0 0 .33 0q2.54-1.18 5.08-2.42a.91.91 0 0 0-.13-.1l-14.05-6.6a.47.47 0 0 0-.33 0Zm29.23-.13-.31-.17q-6.9-3.15-13.8-6.28a.7.7 0 0 0-.53 0c-1.21.53-2.41 1.09-3.61 1.64a1.74 1.74 0 0 0-.26.15h.06l14.45 6.36a.39.39 0 0 0 .3 0c1.26-.56 2.47-1.15 3.7-1.75Zm31.07 28.45H365a2.46 2.46 0 0 0-.34-.22q-8.31-4-16.61-8a.53.53 0 0 1-.35-.56V311.1a.53.53 0 0 1 .35-.56q7.49-3.39 14.94-6.82c1-.44 1.92-.9 2.87-1.35h.14a2.27 2.27 0 0 0 .34.19q8.53 3.92 17.07 7.83a.52.52 0 0 1 .36.56v19.17a.52.52 0 0 1-.36.56q-7.57 3.44-15.14 6.9Zm-15.76-27.63v18.02a.41.41 0 0 0 .28.43l15.41 7.35.29.11v-18.26c0-.29-.13-.39-.36-.49l-15.33-7Zm17.62 25.31.26-.11 14.75-7c.24-.11.26-.27.26-.48v-17.97l-.4.18-4.15 2a.44.44 0 0 0-.3.48v8a.47.47 0 0 1-.28.47l-4.18 2.29-.35.16V316l-.39.17c-1.63.8-3.25 1.61-4.89 2.39a.52.52 0 0 0-.33.54v16.35Zm-15.85-26c.07 0 .09.08.13.09l14.53 6.57a.45.45 0 0 0 .34 0c1.69-.79 3.37-1.6 5.08-2.42-.06 0-.09-.08-.13-.1L357 308.27a.44.44 0 0 0-.32 0Zm29.23-.13-.31-.17q-6.9-3.15-13.8-6.28a.67.67 0 0 0-.52 0c-1.21.53-2.41 1.09-3.62 1.64l-.26.15h.06l14.47 6.37a.37.37 0 0 0 .29 0c1.22-.57 2.43-1.16 3.69-1.76Zm-87.26 117.73h-46c.2-4.39 4-9.08 8.17-10.07a2.15 2.15 0 0 0 1.69-2 51.87 51.87 0 0 0 .6-7.25c0-2.82-.49-5.64-.5-8.45a17.9 17.9 0 0 1 1.85-8c2.08-4.23 5.45-6.42 10.22-6.31a30.79 30.79 0 0 1 3.6.11 10.19 10.19 0 0 1 8.21 6.27 23.25 23.25 0 0 1 1.58 13.19 26.34 26.34 0 0 0 0 9.37 7.94 7.94 0 0 0 .81 2.16 1.67 1.67 0 0 0 1 .78 9.1 9.1 0 0 1 6.57 5.24c.91 1.59 1.48 3.22 2.2 4.96Zm-13.21-26.2c-.79 1.54-1.7.81-2.63.33-3.57-1.85-7.16-3.69-10.74-5.53a2.9 2.9 0 0 0-4 .69 21.1 21.1 0 0 0-1.82 3.69c-.15.31-.17.73-.4.91-1.27 1-1 4 .4 4.86a1.84 1.84 0 0 1 .77.84 15.81 15.81 0 0 0 3.69 5.58c3 2.83 6.5 2.85 9.54 0a15.07 15.07 0 0 0 3.7-5.57 1.87 1.87 0 0 1 .51-.84 3.58 3.58 0 0 0 .98-4.96Zm-18.31 15.64c.64 2.07 4.78 4.26 8.38 4.26s7.7-2.17 8.39-4.29l-2.37-2.6c-3.73 3.21-7.53 3.81-11.95 0Zm-81.74-203.74h-16.52a4.18 4.18 0 0 1 2.94-3.62.78.78 0 0 0 .6-.72 18.87 18.87 0 0 0 .22-2.6c0-1-.18-2-.18-3a6.52 6.52 0 0 1 .66-2.87 3.74 3.74 0 0 1 3.68-2.27 11.05 11.05 0 0 1 1.29 0 3.65 3.65 0 0 1 3 2.26A8.27 8.27 0 0 1 176 206a9.54 9.54 0 0 0 0 3.37 3 3 0 0 0 .29.77.58.58 0 0 0 .37.28 3.29 3.29 0 0 1 2.37 1.89c.3.54.5 1.13.76 1.76Zm-4.79-9.42c-.29.55-.61.29-.94.12l-3.87-2a1 1 0 0 0-1.42.25 7.36 7.36 0 0 0-.65 1.32c0 .11-.06.26-.15.33a1.25 1.25 0 0 0 .15 1.75.66.66 0 0 1 .27.3 5.75 5.75 0 0 0 1.33 2 2.31 2.31 0 0 0 3.43 0 5.32 5.32 0 0 0 1.33-2 .7.7 0 0 1 .19-.3 1.29 1.29 0 0 0 .33-1.77Zm-6.58 5.62c.23.75 1.72 1.53 3 1.53s2.77-.78 3-1.54l-.85-.94a2.92 2.92 0 0 1-4.3 0Zm216.13 3.8H368a4.18 4.18 0 0 1 2.94-3.62.79.79 0 0 0 .61-.72 20.56 20.56 0 0 0 .21-2.6c0-1-.18-2-.18-3a6.4 6.4 0 0 1 .67-2.87A3.72 3.72 0 0 1 376 199a11.29 11.29 0 0 1 1.3 0 3.68 3.68 0 0 1 2.95 2.26 8.26 8.26 0 0 1 .56 4.74 9.54 9.54 0 0 0 0 3.37 3 3 0 0 0 .29.77.57.57 0 0 0 .38.28 3.29 3.29 0 0 1 2.36 1.89c.25.54.45 1.13.71 1.76Zm-4.75-9.42c-.28.55-.61.29-.94.12l-3.86-2a1 1 0 0 0-1.43.25 7.36 7.36 0 0 0-.65 1.32c-.05.11-.06.26-.14.33a1.24 1.24 0 0 0 .14 1.75.68.68 0 0 1 .28.3 5.59 5.59 0 0 0 1.32 2 2.31 2.31 0 0 0 3.43 0 5.47 5.47 0 0 0 1.34-2 .61.61 0 0 1 .18-.3 1.28 1.28 0 0 0 .33-1.77Zm-6.58 5.62c.23.75 1.72 1.53 3 1.53s2.77-.78 3-1.54l-.85-.94a2.92 2.92 0 0 1-4.3 0Zm-91.05 3.8h-16.52a4.18 4.18 0 0 1 2.94-3.62.8.8 0 0 0 .61-.72 20.56 20.56 0 0 0 .21-2.6c0-1-.18-2-.18-3a6.52 6.52 0 0 1 .66-2.87 3.75 3.75 0 0 1 3.68-2.27 11.29 11.29 0 0 1 1.3 0 3.68 3.68 0 0 1 2.95 2.26 8.35 8.35 0 0 1 .56 4.74 9.54 9.54 0 0 0 0 3.37 3 3 0 0 0 .29.77.58.58 0 0 0 .37.28 3.29 3.29 0 0 1 2.37 1.89c.3.55.5 1.14.76 1.77Zm-4.75-9.42c-.28.55-.61.29-.94.12l-3.87-2a1 1 0 0 0-1.42.25 7.36 7.36 0 0 0-.65 1.32c-.05.11-.06.26-.14.33a1.24 1.24 0 0 0 .14 1.75.68.68 0 0 1 .28.3 5.59 5.59 0 0 0 1.32 2 2.31 2.31 0 0 0 3.43 0 5.32 5.32 0 0 0 1.33-2 .7.7 0 0 1 .19-.3 1.29 1.29 0 0 0 .33-1.77Zm-6.58 5.62c.23.75 1.72 1.53 3 1.53s2.77-.78 3-1.54l-.85-.94a2.92 2.92 0 0 1-4.3 0ZM134.4 177.14a.57.57 0 0 0-.13-.08l-6.11-2.95a.18.18 0 0 1-.13-.2v-7.08a.18.18 0 0 1 .13-.2l5.5-2.51 1.06-.5h.05l.13.07 6.28 2.88a.2.2 0 0 1 .14.21v7.06a.19.19 0 0 1-.14.2l-5.57 2.55ZM128.59 167v6.64a.16.16 0 0 0 .1.16l5.7 2.7h.11a.34.34 0 0 0 0-.09v-6.64c0-.1-.05-.14-.13-.18l-5.65-2.59Zm6.49 9.32h.1l5.43-2.56c.09-.05.09-.1.09-.18v-6.62l-.14.07-1.53.74a.17.17 0 0 0-.11.18v2.93a.18.18 0 0 1-.1.18c-.52.27-1 .56-1.54.84l-.13.06v-3.24l-.14.06-1.8.89a.18.18 0 0 0-.13.19v6Zm-5.84-9.59 5.35 2.42a.2.2 0 0 0 .13 0l1.87-.89-5.18-2.43a.13.13 0 0 0-.12 0Zm10.77-.05-.12-.06c-1.69-.77-3.38-1.55-5.08-2.31a.21.21 0 0 0-.19 0c-.45.19-.89.4-1.33.6l-.1.06 5.33 2.35h.11Zm11.43 10.46-.13-.08-6.12-2.95a.2.2 0 0 1-.13-.2v-7.08a.2.2 0 0 1 .13-.2l5.5-2.51 1.06-.5h.06l.12.07 6.29 2.88a.2.2 0 0 1 .13.21v7.06a.19.19 0 0 1-.13.2l-5.58 2.55Zm-5.8-10.14a.57.57 0 0 0 0 .12v6.52a.15.15 0 0 0 .1.16l5.7 2.7h.11v-6.73c0-.1 0-.14-.13-.18l-5.65-2.59Zm6.49 9.32h.09l5.43-2.56a.17.17 0 0 0 .1-.18v-6.62l-.15.07-1.53.74a.17.17 0 0 0-.11.18v2.93a.17.17 0 0 1-.1.18l-1.54.84-.13.06v-3.24l-.14.06-1.8.89a.18.18 0 0 0-.12.19v6.5Zm-5.84-9.59 5.36 2.42a.17.17 0 0 0 .12 0l1.87-.89h-.05l-5.17-2.43a.13.13 0 0 0-.12 0Zm10.76-.05-.11-.06-5.08-2.31a.23.23 0 0 0-.2 0l-1.33.6-.09.06 5.33 2.35h.1Zm11.44 10.46a.57.57 0 0 0-.13-.08l-6.11-2.95a.18.18 0 0 1-.13-.2v-7.08a.18.18 0 0 1 .13-.2l5.5-2.51 1.06-.5h.05l.12.07 6.29 2.88a.2.2 0 0 1 .14.21v7.06a.19.19 0 0 1-.14.2l-5.57 2.55ZM162.68 167v6.64a.16.16 0 0 0 .1.16l5.7 2.7h.11v-6.73c0-.1-.05-.14-.13-.18l-5.65-2.59Zm6.49 9.32h.09l5.44-2.56c.09-.05.09-.1.09-.18v-6.62l-.14.07-1.53.74a.18.18 0 0 0-.12.18v2.93a.18.18 0 0 1-.1.18c-.52.27-1 .56-1.54.84l-.13.06v-3.24l-.15.06-1.79.89a.17.17 0 0 0-.13.19v6.5Zm-5.84-9.59 5.35 2.42a.17.17 0 0 0 .12 0l1.88-.89-5.18-2.43a.13.13 0 0 0-.12 0Zm10.77-.05-.12-.06c-1.69-.77-3.38-1.55-5.08-2.31a.21.21 0 0 0-.19 0c-.45.19-.89.4-1.33.6l-.1.06 5.33 2.35h.11Zm11.43 10.46-.12-.08-6.12-2.95a.18.18 0 0 1-.13-.2v-7.08a.18.18 0 0 1 .13-.2l5.5-2.51 1.06-.5h.05l.13.07 6.29 2.88a.21.21 0 0 1 .13.21v7.06a.19.19 0 0 1-.13.2l-5.58 2.55Zm-5.8-10.14a.57.57 0 0 0 0 .12v6.52a.16.16 0 0 0 .1.16l5.71 2.7h.11v-6.73c0-.1 0-.14-.13-.18l-5.67-2.59Zm6.48 9.32h.1l5.43-2.56a.17.17 0 0 0 .1-.18v-6.62l-.14.07-1.53.74a.17.17 0 0 0-.11.18v2.93a.17.17 0 0 1-.1.18l-1.54.84-.13.06v-3.24l-.14.06-1.8.89a.18.18 0 0 0-.12.19v6Zm-5.83-9.59 5.36 2.42a.17.17 0 0 0 .12 0l1.87-.89h-.05l-5.17-2.43a.13.13 0 0 0-.12 0Zm10.76-.05-.11-.06-5.03-2.35a.23.23 0 0 0-.2 0l-1.33.6-.09.06 5.32 2.35h.11Zm11.43 10.46-.13-.08-6.11-2.95a.18.18 0 0 1-.13-.2v-7.08a.18.18 0 0 1 .13-.2l5.5-2.51 1.05-.5h.06l.12.07 6.29 2.88a.2.2 0 0 1 .13.21v7.06a.19.19 0 0 1-.13.2l-5.58 2.55Zm-5.8-10.14v6.64a.15.15 0 0 0 .1.16l5.7 2.7h.11v-6.73c0-.1 0-.14-.13-.18L196.9 167Zm6.49 9.32h.09l5.44-2.56a.17.17 0 0 0 .09-.18v-6.62l-.15.07-1.52.74a.17.17 0 0 0-.12.18v2.93a.17.17 0 0 1-.11.18l-1.53.84-.13.06v-3.24l-.15.06-1.8.89a.18.18 0 0 0-.12.19v6.5Zm-5.84-9.59h.05l5.35 2.42a.17.17 0 0 0 .12 0l1.87-.89-5.18-2.43a.13.13 0 0 0-.12 0Zm10.77-.05-.12-.06-5.07-2.35a.21.21 0 0 0-.19 0c-.45.19-.89.4-1.34.6l-.09.06 5.33 2.35h.11Zm135.93 10.46a.57.57 0 0 0-.13-.08l-6.11-2.95a.18.18 0 0 1-.13-.2v-7.08a.18.18 0 0 1 .13-.2l5.5-2.51 1.06-.5.12.07 6.29 2.88a.19.19 0 0 1 .13.21v7.06a.19.19 0 0 1-.14.2l-5.57 2.55ZM338.31 167v6.64a.16.16 0 0 0 .1.16l5.7 2.7h.11v-6.73c0-.1-.05-.14-.13-.18l-5.65-2.59Zm6.49 9.32h.09l5.44-2.56c.09-.05.09-.1.09-.18v-6.62l-.14.07-1.53.74a.18.18 0 0 0-.12.18v2.93a.18.18 0 0 1-.1.18c-.52.27-1 .56-1.54.84l-.13.06v-3.24l-.15.06c-.6.3-1.19.6-1.8.89a.18.18 0 0 0-.12.19v6.5Zm-5.8-9.63h.05l5.35 2.42a.17.17 0 0 0 .12 0l1.88-.89h-.05l-5.18-2.43a.13.13 0 0 0-.12 0Zm10.77-.05-.12-.06c-1.69-.77-3.38-1.55-5.08-2.31a.21.21 0 0 0-.19 0c-.45.19-.89.4-1.33.6l-.1.06 5.33 2.35h.11Zm11.39 10.5-.12-.08-6.12-2.95a.18.18 0 0 1-.13-.2v-7.08a.18.18 0 0 1 .13-.2l5.5-2.51 1.06-.5h.05l.13.07 6.29 2.88a.21.21 0 0 1 .13.21v7.06a.19.19 0 0 1-.14.2l-5.57 2.55ZM355.35 167v6.64a.16.16 0 0 0 .1.16l5.71 2.7h.11v-6.73c0-.1-.05-.14-.13-.18l-5.66-2.59Zm6.49 9.32h.1l5.43-2.56c.09-.05.09-.1.09-.18v-6.62l-.14.07-1.53.74a.17.17 0 0 0-.11.18v2.93a.17.17 0 0 1-.1.18l-1.54.84-.13.06v-3.24l-.14.06-1.8.89a.18.18 0 0 0-.12.19v6Zm-5.84-9.63 5.36 2.42a.17.17 0 0 0 .12 0l1.87-.89-5.17-2.43a.13.13 0 0 0-.12 0Zm10.76-.05-.11-.06c-1.7-.77-3.39-1.55-5.09-2.31a.21.21 0 0 0-.19 0l-1.33.6-.1.06 5.32 2.35h.11Zm11.44 10.5-.13-.08-6.11-2.95a.18.18 0 0 1-.13-.2v-7.08a.18.18 0 0 1 .13-.2l5.5-2.51 1.05-.5h.06l.12.07 6.29 2.88a.2.2 0 0 1 .13.21v7.06a.19.19 0 0 1-.13.2l-5.58 2.55ZM372.4 167v6.64a.15.15 0 0 0 .1.16l5.7 2.7h.11v-6.73c0-.1 0-.14-.13-.18l-5.65-2.59Zm6.49 9.32h.09l5.44-2.56a.17.17 0 0 0 .09-.18v-6.62l-.15.07-1.52.74a.17.17 0 0 0-.12.18v2.93a.17.17 0 0 1-.11.18l-1.53.84-.13.06v-3.24l-.15.06-1.8.89a.18.18 0 0 0-.12.19v6.5Zm-5.84-9.59h.05l5.35 2.42a.17.17 0 0 0 .12 0l1.87-.89h-.05l-5.17-2.43a.13.13 0 0 0-.12 0Zm10.77-.05-.12-.06-5.08-2.31a.21.21 0 0 0-.19 0c-.45.19-.89.4-1.34.6l-.09.06 5.33 2.35h.11Zm11.43 10.46a.57.57 0 0 0-.13-.08l-6.12-2.95a.18.18 0 0 1-.13-.2v-7.08a.18.18 0 0 1 .13-.2l5.5-2.51 1.06-.5.13.07 6.28 2.88a.2.2 0 0 1 .14.21v7.06a.19.19 0 0 1-.14.2l-5.57 2.55ZM389.44 167v6.64a.16.16 0 0 0 .1.16l5.7 2.7h.11a.34.34 0 0 0 0-.09v-6.64c0-.1-.05-.14-.13-.18l-5.65-2.59Zm6.49 9.32h.1l5.43-2.56c.09-.05.09-.1.09-.18v-6.62l-.14.07-1.53.74a.17.17 0 0 0-.11.18v2.93a.18.18 0 0 1-.1.18c-.52.27-1 .56-1.54.84l-.13.06v-3.24l-.14.06-1.8.89a.18.18 0 0 0-.13.19v6Zm-5.84-9.59h.05l5.35 2.42a.2.2 0 0 0 .13 0l1.87-.89h-.05l-5.18-2.43a.13.13 0 0 0-.12 0Zm10.77-.05-.12-.06c-1.69-.77-3.38-1.55-5.08-2.31a.21.21 0 0 0-.19 0c-.45.19-.89.4-1.33.6l-.1.06 5.33 2.35h.11Zm11.43 10.46-.13-.08-6.16-2.95a.2.2 0 0 1-.13-.2v-7.08a.18.18 0 0 1 .13-.2l5.5-2.51 1.06-.5h.05l.13.07 6.29 2.88a.2.2 0 0 1 .13.21v7.06a.19.19 0 0 1-.13.2l-5.58 2.55Zm-5.8-10.14a.57.57 0 0 0 0 .12v6.52a.15.15 0 0 0 .1.16l5.7 2.7h.11v-6.73c0-.1-.05-.14-.13-.18l-5.65-2.59Zm6.49 9.32h.09l5.43-2.56a.17.17 0 0 0 .1-.18v-6.62l-.15.07-1.53.74a.17.17 0 0 0-.11.18v2.93a.17.17 0 0 1-.1.18l-1.54.84-.13.06v-3.24l-.14.06-1.8.89a.18.18 0 0 0-.12.19v6.5Zm-5.84-9.59 5.36 2.42a.17.17 0 0 0 .12 0l1.87-.89-5.17-2.43a.13.13 0 0 0-.12 0Zm10.76-.05-.11-.06-5.08-2.31a.23.23 0 0 0-.2 0l-1.33.6-.09.06 5.33 2.35h.1Zm-178.64 10.46a.57.57 0 0 0-.13-.08l-6.13-2.95a.18.18 0 0 1-.13-.2v-7.08a.18.18 0 0 1 .13-.2l5.5-2.51 1.06-.5.13.07 6.28 2.88a.2.2 0 0 1 .14.21v7.06a.19.19 0 0 1-.14.2l-5.57 2.55ZM233.45 167v6.64a.16.16 0 0 0 .1.16l5.7 2.7h.11v-6.73c0-.1-.05-.14-.13-.18l-5.65-2.59Zm6.49 9.32h.1l5.43-2.56c.09-.05.09-.1.09-.18v-6.62l-.14.07-1.53.74a.17.17 0 0 0-.11.18v2.93a.18.18 0 0 1-.1.18c-.52.27-1 .56-1.54.84l-.13.06v-3.24l-.14.06-1.8.89a.17.17 0 0 0-.13.19v6.5Zm-5.84-9.59h.05l5.35 2.42a.2.2 0 0 0 .13 0l1.87-.89h-.05l-5.18-2.43a.13.13 0 0 0-.12 0Zm10.77-.05-.12-.06c-1.69-.77-3.38-1.55-5.08-2.31a.21.21 0 0 0-.19 0c-.45.19-.89.4-1.33.6l-.1.06 5.33 2.35h.11Zm11.43 10.46-.12-.08-6.18-2.95a.18.18 0 0 1-.13-.2v-7.08a.18.18 0 0 1 .13-.2l5.5-2.51 1.06-.5h.05l.13.07 6.29 2.88a.21.21 0 0 1 .13.21v7.06a.19.19 0 0 1-.13.2l-5.58 2.55ZM250.5 167a.57.57 0 0 0 0 .12v6.52a.15.15 0 0 0 .1.16l5.7 2.7h.11v-6.73c0-.1 0-.14-.13-.18l-5.66-2.59Zm6.48 9.32h.1l5.43-2.56a.17.17 0 0 0 .1-.18v-6.62l-.15.07-1.53.74a.17.17 0 0 0-.11.18v2.93a.17.17 0 0 1-.1.18l-1.54.84-.13.06v-3.24l-.14.06-1.8.89a.18.18 0 0 0-.12.19v6Zm-5.83-9.59 5.36 2.42a.17.17 0 0 0 .12 0l1.87-.89h-.05l-5.17-2.43a.13.13 0 0 0-.12 0Zm10.76-.05-.11-.06-5.08-2.31a.23.23 0 0 0-.2 0l-1.33.6-.09.06 5.32 2.35h.11Zm11.43 10.46a.57.57 0 0 0-.13-.08l-6.11-2.95a.18.18 0 0 1-.13-.2v-7.08a.18.18 0 0 1 .13-.2l5.5-2.51 1.06-.5h.05l.12.07 6.29 2.88a.2.2 0 0 1 .13.21v7.06a.18.18 0 0 1-.13.2l-5.57 2.55Zm-5.8-10.14v6.64a.15.15 0 0 0 .1.16l5.7 2.7h.11v-6.73c0-.1 0-.14-.13-.18l-5.65-2.59Zm6.49 9.32h.09l5.44-2.56c.09-.05.09-.1.09-.18v-6.62l-.15.07-1.52.74a.17.17 0 0 0-.12.18v2.93a.18.18 0 0 1-.1.18c-.52.27-1 .56-1.54.84l-.13.06v-3.24l-.15.06c-.6.3-1.19.6-1.8.89a.18.18 0 0 0-.12.19v6.5Zm-5.84-9.59h.05l5.35 2.42a.17.17 0 0 0 .12 0l1.87-.89-5.18-2.43a.13.13 0 0 0-.12 0Zm10.77-.05-.12-.06c-1.69-.77-3.38-1.55-5.08-2.31a.21.21 0 0 0-.19 0c-.45.19-.89.4-1.33.6l-.1.06 5.33 2.35h.11Zm11.43 10.46a.57.57 0 0 0-.13-.08l-6.11-2.95a.18.18 0 0 1-.13-.2v-7.08a.18.18 0 0 1 .13-.2l5.5-2.51 1.06-.5h.05l.13.07 6.29 2.88a.21.21 0 0 1 .13.21v7.06a.19.19 0 0 1-.14.2l-5.57 2.55ZM284.58 167v6.64a.16.16 0 0 0 .1.16l5.7 2.7h.11a.34.34 0 0 0 0-.09v-6.64c0-.1-.05-.14-.13-.18l-5.65-2.59Zm6.49 9.32h.1l5.43-2.56c.09-.05.09-.1.09-.18v-6.62l-.14.07-1.53.74a.17.17 0 0 0-.11.18v2.93a.17.17 0 0 1-.1.18c-.52.27-1 .56-1.54.84l-.13.06v-3.24l-.14.06-1.8.89a.18.18 0 0 0-.13.19v6Zm-5.83-9.59 5.36 2.42a.16.16 0 0 0 .12 0l1.87-.89h-.05l-5.17-2.43a.15.15 0 0 0-.13 0Zm10.76-.05-.11-.06c-1.7-.77-3.39-1.55-5.09-2.31a.21.21 0 0 0-.19 0c-.45.19-.89.4-1.33.6l-.1.06 5.33 2.35h.11Zm11.43 10.46-.13-.08-6.12-2.95a.2.2 0 0 1-.13-.2v-7.08a.19.19 0 0 1 .14-.2l5.49-2.51 1.06-.5h.06l.12.07 6.29 2.88a.2.2 0 0 1 .13.21v7.06a.19.19 0 0 1-.13.2l-5.58 2.55Zm-5.8-10.14a.57.57 0 0 0 0 .12v6.52a.15.15 0 0 0 .1.16l5.7 2.7h.11v-6.73c0-.1 0-.14-.13-.18l-5.65-2.59Zm6.49 9.32h.09l5.44-2.56a.17.17 0 0 0 .09-.18v-6.62l-.15.07c-.51.25-1 .5-1.53.74a.17.17 0 0 0-.11.18v2.93a.17.17 0 0 1-.11.18l-1.54.84-.13.06v-3.24l-.14.06-1.8.89a.18.18 0 0 0-.12.19v6.5Zm-5.84-9.59h.05l5.35 2.42a.17.17 0 0 0 .12 0l1.87-.89h-.05l-5.17-2.43a.13.13 0 0 0-.12 0Zm10.76-.05-.11-.06-5.08-2.31a.23.23 0 0 0-.2 0l-1.33.6-.09.06 5.33 2.35h.11Z" style="fill:#f7eec9"/><path d="M134.89 188.54h-1.49v-.39a2.6 2.6 0 0 1 .24-1.19 3.6 3.6 0 0 1 1-1.05 7.05 7.05 0 0 0 .86-.76 1.05 1.05 0 0 0-.17-1.44 1.48 1.48 0 0 0-1-.35 1.55 1.55 0 0 0-1 .36 1.87 1.87 0 0 0-.57 1.08l-1.5-.18a2.45 2.45 0 0 1 .88-1.77 3.12 3.12 0 0 1 2.16-.73 3.25 3.25 0 0 1 2.24.74 2.22 2.22 0 0 1 .84 1.71 1.9 1.9 0 0 1-.31 1 6.49 6.49 0 0 1-1.31 1.32 2.61 2.61 0 0 0-.64.69 2.39 2.39 0 0 0-.23.96Zm-1.49 2.2v-1.64h1.6v1.64Zm18.6-2.2h-1.48v-.39a2.6 2.6 0 0 1 .24-1.19 3.66 3.66 0 0 1 1-1.05 6.64 6.64 0 0 0 .85-.76 1 1 0 0 0 .22-.63 1 1 0 0 0-.38-.81 1.49 1.49 0 0 0-1-.35 1.53 1.53 0 0 0-1 .36 1.94 1.94 0 0 0-.58 1.08l-1.5-.18a2.46 2.46 0 0 1 .89-1.77 3.12 3.12 0 0 1 2.16-.73 3.25 3.25 0 0 1 2.24.74 2.24 2.24 0 0 1 .83 1.71 1.89 1.89 0 0 1-.3 1 6.77 6.77 0 0 1-1.31 1.32 2.61 2.61 0 0 0-.64.69 2.35 2.35 0 0 0-.24.96Zm-1.48 2.2v-1.64h1.64v1.64Zm18.64-2.2h-1.48v-.39a2.6 2.6 0 0 1 .24-1.19 3.75 3.75 0 0 1 1-1.05 6.3 6.3 0 0 0 .86-.76 1 1 0 0 0 .21-.63 1 1 0 0 0-.38-.81 1.45 1.45 0 0 0-1-.35 1.56 1.56 0 0 0-1.05.36 1.93 1.93 0 0 0-.57 1.08l-1.5-.18a2.49 2.49 0 0 1 .88-1.77 3.13 3.13 0 0 1 2.17-.73 3.29 3.29 0 0 1 2.24.74 2.24 2.24 0 0 1 .83 1.71 1.82 1.82 0 0 1-.31 1 6.64 6.64 0 0 1-1.3 1.32 2.7 2.7 0 0 0-.65.69 2.39 2.39 0 0 0-.19.96Zm-1.48 2.2v-1.64h1.63v1.64Zm18.62-2.2h-1.49v-.39a2.6 2.6 0 0 1 .24-1.19 3.46 3.46 0 0 1 .95-1.05 6 6 0 0 0 .85-.76 1 1 0 0 0 .22-.63 1 1 0 0 0-.38-.81 1.48 1.48 0 0 0-1-.35 1.55 1.55 0 0 0-1 .36 1.94 1.94 0 0 0-.58 1.08l-1.5-.18a2.5 2.5 0 0 1 .89-1.77 3.12 3.12 0 0 1 2.16-.73 3.25 3.25 0 0 1 2.24.74 2.2 2.2 0 0 1 .83 1.71 1.89 1.89 0 0 1-.3 1 6.49 6.49 0 0 1-1.31 1.32 2.61 2.61 0 0 0-.64.69 2.39 2.39 0 0 0-.18.96Zm-1.49 2.2v-1.64h1.64v1.64Zm18.62-2.2H202v-.39a2.6 2.6 0 0 1 .24-1.19 3.66 3.66 0 0 1 1-1.05 6.64 6.64 0 0 0 .85-.76 1 1 0 0 0-.16-1.44 1.49 1.49 0 0 0-1-.35 1.53 1.53 0 0 0-1 .36 1.94 1.94 0 0 0-.58 1.08l-1.5-.18a2.46 2.46 0 0 1 .89-1.77 3.12 3.12 0 0 1 2.16-.73 3.27 3.27 0 0 1 2.24.74 2.24 2.24 0 0 1 .83 1.71 1.89 1.89 0 0 1-.3 1 6.77 6.77 0 0 1-1.31 1.32 2.44 2.44 0 0 0-.64.69 2.18 2.18 0 0 0-.29.96Zm-1.48 2.2v-1.64h1.63v1.64ZM186 367.55h-3.92v-1a6.88 6.88 0 0 1 .63-3.14 9.63 9.63 0 0 1 2.52-2.77 18.32 18.32 0 0 0 2.27-2 2.75 2.75 0 0 0 .56-1.66 2.8 2.8 0 0 0-1-2.16 3.93 3.93 0 0 0-2.72-.9 4.14 4.14 0 0 0-2.75.93 5 5 0 0 0-1.52 2.86l-4-.49a6.54 6.54 0 0 1 2.35-4.67 8.3 8.3 0 0 1 5.71-1.92 8.6 8.6 0 0 1 5.92 1.94 5.92 5.92 0 0 1 2.2 4.53 5 5 0 0 1-.81 2.71 17.71 17.71 0 0 1-3.45 3.47 6.67 6.67 0 0 0-1.7 1.83 6.17 6.17 0 0 0-.29 2.44Zm-3.92 5.81V369h4.32v4.32Zm49.2-5.81h-3.92v-1a6.88 6.88 0 0 1 .63-3.14 9.69 9.69 0 0 1 2.53-2.77 18.73 18.73 0 0 0 2.26-2 2.69 2.69 0 0 0 .57-1.66 2.81 2.81 0 0 0-1-2.16 3.93 3.93 0 0 0-2.72-.9 4.14 4.14 0 0 0-2.75.93 5 5 0 0 0-1.52 2.86l-4-.49a6.58 6.58 0 0 1 2.35-4.67 8.3 8.3 0 0 1 5.71-1.92 8.6 8.6 0 0 1 5.92 1.94 5.89 5.89 0 0 1 2.2 4.53 5 5 0 0 1-.81 2.71 17.71 17.71 0 0 1-3.45 3.47 6.67 6.67 0 0 0-1.7 1.83 6.17 6.17 0 0 0-.3 2.44Zm-3.92 5.81V369h4.32v4.32Zm49.21-5.81h-3.92v-1a6.88 6.88 0 0 1 .63-3.14 9.63 9.63 0 0 1 2.52-2.77 18.73 18.73 0 0 0 2.26-2 2.69 2.69 0 0 0 .57-1.66 2.81 2.81 0 0 0-1-2.16 3.92 3.92 0 0 0-2.71-.9 4.15 4.15 0 0 0-2.76.93 5.08 5.08 0 0 0-1.52 2.86l-4-.49a6.62 6.62 0 0 1 2.35-4.67 8.3 8.3 0 0 1 5.71-1.92 8.59 8.59 0 0 1 5.92 1.94 5.89 5.89 0 0 1 2.2 4.53 5 5 0 0 1-.81 2.71 17.42 17.42 0 0 1-3.45 3.47 6.67 6.67 0 0 0-1.7 1.83 6.17 6.17 0 0 0-.29 2.44Zm-3.92 5.81V369H277v4.32Zm49.21-5.81h-3.92v-1a6.88 6.88 0 0 1 .63-3.14 9.63 9.63 0 0 1 2.52-2.77 18.73 18.73 0 0 0 2.26-2 2.69 2.69 0 0 0 .57-1.66 2.81 2.81 0 0 0-1-2.16 3.91 3.91 0 0 0-2.71-.9 4.11 4.11 0 0 0-2.75.93 5 5 0 0 0-1.53 2.86l-4-.49a6.57 6.57 0 0 1 2.34-4.67 8.32 8.32 0 0 1 5.71-1.92 8.59 8.59 0 0 1 5.92 1.94 5.89 5.89 0 0 1 2.2 4.53 5.06 5.06 0 0 1-.8 2.71 17.55 17.55 0 0 1-3.46 3.47 6.67 6.67 0 0 0-1.7 1.83 6.17 6.17 0 0 0-.28 2.44Zm-3.92 5.81V369h4.32v4.32Zm49.22-5.81h-3.93v-1a6.88 6.88 0 0 1 .63-3.14 9.63 9.63 0 0 1 2.52-2.77 17.91 17.91 0 0 0 2.26-2 2.69 2.69 0 0 0 .57-1.66 2.77 2.77 0 0 0-1-2.16 3.91 3.91 0 0 0-2.71-.9 4.12 4.12 0 0 0-2.75.93 5 5 0 0 0-1.52 2.86l-4-.49a6.57 6.57 0 0 1 2.34-4.67 8.33 8.33 0 0 1 5.72-1.92 8.6 8.6 0 0 1 5.92 1.94 5.91 5.91 0 0 1 2.19 4.53 5 5 0 0 1-.8 2.71 17.71 17.71 0 0 1-3.45 3.47 6.51 6.51 0 0 0-1.7 1.83 6.17 6.17 0 0 0-.29 2.44Zm-3.93 5.81V369h4.33v4.32ZM557.57 371h-3.92v-1a6.84 6.84 0 0 1 .63-3.13 9.5 9.5 0 0 1 2.52-2.77 18.5 18.5 0 0 0 2.26-2 2.67 2.67 0 0 0 .57-1.66 2.8 2.8 0 0 0-1-2.16 4 4 0 0 0-2.72-.9 4.13 4.13 0 0 0-2.75.94 5 5 0 0 0-1.52 2.86l-4-.49A6.59 6.59 0 0 1 550 356a8.33 8.33 0 0 1 5.72-1.92 8.61 8.61 0 0 1 5.92 1.95 5.89 5.89 0 0 1 2.2 4.53 5 5 0 0 1-.81 2.7 18 18 0 0 1-3.45 3.48 6.51 6.51 0 0 0-1.7 1.83 6.11 6.11 0 0 0-.31 2.43Zm-3.92 5.82v-4.32H558v4.32Zm49.21-5.82h-3.92v-1a6.84 6.84 0 0 1 .63-3.13 9.5 9.5 0 0 1 2.52-2.77 18.94 18.94 0 0 0 2.27-2 2.72 2.72 0 0 0 .56-1.66 2.8 2.8 0 0 0-1-2.16 3.93 3.93 0 0 0-2.72-.9 4.15 4.15 0 0 0-2.75.94 5 5 0 0 0-1.52 2.86l-4-.49a6.56 6.56 0 0 1 2.35-4.68A8.3 8.3 0 0 1 601 354a8.61 8.61 0 0 1 5.92 1.95 5.89 5.89 0 0 1 2.2 4.53 5 5 0 0 1-.81 2.7 18 18 0 0 1-3.45 3.48 6.67 6.67 0 0 0-1.7 1.83 6.11 6.11 0 0 0-.3 2.51Zm-3.92 5.82v-4.32h4.32v4.32Zm49.21-5.82h-3.92v-1a6.84 6.84 0 0 1 .63-3.13 9.71 9.71 0 0 1 2.53-2.77 19.38 19.38 0 0 0 2.26-2 2.67 2.67 0 0 0 .57-1.66 2.81 2.81 0 0 0-1-2.16 3.93 3.93 0 0 0-2.72-.9 4.15 4.15 0 0 0-2.75.94 5 5 0 0 0-1.52 2.86l-4-.49a6.6 6.6 0 0 1 2.35-4.68 8.3 8.3 0 0 1 5.71-1.92 8.61 8.61 0 0 1 5.92 1.95 5.86 5.86 0 0 1 2.2 4.53 5 5 0 0 1-.81 2.7 18 18 0 0 1-3.45 3.48 6.67 6.67 0 0 0-1.7 1.83 6.11 6.11 0 0 0-.3 2.42Zm-3.92 5.82v-4.32h4.32v4.32Zm49.21-5.82h-3.92v-1a6.84 6.84 0 0 1 .63-3.13 9.5 9.5 0 0 1 2.52-2.77 19.38 19.38 0 0 0 2.26-2 2.67 2.67 0 0 0 .57-1.66 2.81 2.81 0 0 0-1-2.16 3.92 3.92 0 0 0-2.71-.9 4.16 4.16 0 0 0-2.76.94 5.08 5.08 0 0 0-1.52 2.86l-4-.49a6.64 6.64 0 0 1 2.35-4.68 8.3 8.3 0 0 1 5.71-1.92 8.59 8.59 0 0 1 5.93 1.91 5.86 5.86 0 0 1 2.2 4.53 5 5 0 0 1-.81 2.7 17.67 17.67 0 0 1-3.45 3.48 6.67 6.67 0 0 0-1.7 1.83 6.11 6.11 0 0 0-.3 2.46Zm-3.92 5.82v-4.32h4.32v4.32Zm49.21-5.82h-3.92v-1a6.84 6.84 0 0 1 .63-3.13 9.5 9.5 0 0 1 2.52-2.77 19.38 19.38 0 0 0 2.26-2 2.67 2.67 0 0 0 .57-1.66 2.81 2.81 0 0 0-1-2.16 3.91 3.91 0 0 0-2.71-.9 4.11 4.11 0 0 0-2.75.94 5 5 0 0 0-1.53 2.86l-4-.49a6.59 6.59 0 0 1 2.34-4.68 8.32 8.32 0 0 1 5.71-1.92 8.59 8.59 0 0 1 5.92 1.95 5.86 5.86 0 0 1 2.2 4.53 5 5 0 0 1-.8 2.7 17.8 17.8 0 0 1-3.46 3.48 6.67 6.67 0 0 0-1.7 1.83 6.11 6.11 0 0 0-.28 2.42Zm-3.92 5.82v-4.32h4.32v4.32ZM462.33 544.37h-7.64v-2a13.37 13.37 0 0 1 1.23-6.11 18.71 18.71 0 0 1 4.91-5.39 36.68 36.68 0 0 0 4.4-3.92 5.25 5.25 0 0 0 1.11-3.24 5.44 5.44 0 0 0-2-4.21 7.69 7.69 0 0 0-5.29-1.75 8 8 0 0 0-5.36 1.83 9.65 9.65 0 0 0-3 5.57l-7.73-1a12.8 12.8 0 0 1 4.57-9.1q4.23-3.75 11.12-3.75 7.26 0 11.54 3.79a11.5 11.5 0 0 1 4.28 8.82 9.65 9.65 0 0 1-1.57 5.27q-1.57 2.49-6.73 6.77a12.82 12.82 0 0 0-3.31 3.57 11.94 11.94 0 0 0-.53 4.85Zm-7.64 11.32v-8.41h8.42v8.41Zm-214.9-367.15h-1.49v-.39a2.6 2.6 0 0 1 .24-1.19 3.6 3.6 0 0 1 1-1.05 7.05 7.05 0 0 0 .86-.76 1.05 1.05 0 0 0-.17-1.44 1.48 1.48 0 0 0-1-.35 1.55 1.55 0 0 0-1 .36 1.87 1.87 0 0 0-.57 1.08l-1.51-.18a2.5 2.5 0 0 1 .89-1.77 3.12 3.12 0 0 1 2.16-.73 3.25 3.25 0 0 1 2.24.74 2.22 2.22 0 0 1 .84 1.71 1.9 1.9 0 0 1-.31 1 6.49 6.49 0 0 1-1.31 1.32 2.61 2.61 0 0 0-.64.69 2.39 2.39 0 0 0-.23.96Zm-1.49 2.2v-1.64h1.64v1.64Zm18.62-2.2h-1.48v-.39a2.6 2.6 0 0 1 .24-1.19 3.66 3.66 0 0 1 1-1.05 6.64 6.64 0 0 0 .85-.76 1 1 0 0 0 .22-.63 1 1 0 0 0-.38-.81 1.49 1.49 0 0 0-1-.35 1.53 1.53 0 0 0-1 .36 1.94 1.94 0 0 0-.58 1.08l-1.5-.18a2.46 2.46 0 0 1 .89-1.77 3.12 3.12 0 0 1 2.16-.73 3.27 3.27 0 0 1 2.24.74 2.24 2.24 0 0 1 .83 1.71 1.89 1.89 0 0 1-.3 1 6.77 6.77 0 0 1-1.31 1.32 2.44 2.44 0 0 0-.64.69 2.35 2.35 0 0 0-.24.96Zm-1.48 2.2v-1.64h1.63v1.64Zm18.62-2.2h-1.48v-.39a2.6 2.6 0 0 1 .24-1.19 3.75 3.75 0 0 1 .95-1.05 6.3 6.3 0 0 0 .86-.76 1 1 0 0 0 .21-.63 1 1 0 0 0-.38-.81 1.45 1.45 0 0 0-1-.35 1.56 1.56 0 0 0-1.05.36 1.87 1.87 0 0 0-.57 1.08l-1.5-.18a2.49 2.49 0 0 1 .88-1.77 3.13 3.13 0 0 1 2.17-.73 3.29 3.29 0 0 1 2.24.74 2.24 2.24 0 0 1 .83 1.71 1.82 1.82 0 0 1-.31 1 6.64 6.64 0 0 1-1.3 1.32 2.7 2.7 0 0 0-.65.69 2.39 2.39 0 0 0-.14.96Zm-1.48 2.2v-1.64h1.63v1.64Zm18.62-2.2h-1.49v-.39a2.74 2.74 0 0 1 .23-1.19 3.66 3.66 0 0 1 1-1.05 6 6 0 0 0 .85-.76 1 1 0 0 0 .22-.63 1 1 0 0 0-.38-.81 1.49 1.49 0 0 0-1-.35 1.55 1.55 0 0 0-1 .36 1.94 1.94 0 0 0-.58 1.08l-1.5-.18a2.5 2.5 0 0 1 .89-1.77 3.12 3.12 0 0 1 2.16-.73 3.25 3.25 0 0 1 2.24.74 2.2 2.2 0 0 1 .83 1.71 1.89 1.89 0 0 1-.3 1 6.77 6.77 0 0 1-1.31 1.32 2.61 2.61 0 0 0-.64.69 2.39 2.39 0 0 0-.22.96Zm-1.49 2.2v-1.64h1.64v1.64Zm18.62-2.2h-1.48v-.39a2.6 2.6 0 0 1 .24-1.19 3.66 3.66 0 0 1 1-1.05 6.64 6.64 0 0 0 .85-.76 1 1 0 0 0 .22-.63 1 1 0 0 0-.39-.81 1.45 1.45 0 0 0-1-.35 1.53 1.53 0 0 0-1 .36 1.94 1.94 0 0 0-.58 1.08l-1.5-.18a2.46 2.46 0 0 1 .89-1.77 3.12 3.12 0 0 1 2.16-.73 3.27 3.27 0 0 1 2.24.74 2.24 2.24 0 0 1 .83 1.71 1.82 1.82 0 0 1-.31 1 6.37 6.37 0 0 1-1.3 1.32 2.44 2.44 0 0 0-.64.69 2.18 2.18 0 0 0-.23.96Zm-1.48 2.2v-1.64h1.63v1.64Zm37.84-2.2h-1.49v-.39a2.6 2.6 0 0 1 .24-1.19 3.6 3.6 0 0 1 .95-1.05 7.05 7.05 0 0 0 .86-.76 1.05 1.05 0 0 0-.17-1.44 1.48 1.48 0 0 0-1-.35 1.55 1.55 0 0 0-1 .36 1.87 1.87 0 0 0-.57 1.08l-1.51-.18a2.5 2.5 0 0 1 .89-1.77 3.12 3.12 0 0 1 2.16-.73 3.25 3.25 0 0 1 2.24.74 2.22 2.22 0 0 1 .84 1.71 1.9 1.9 0 0 1-.31 1 6.49 6.49 0 0 1-1.31 1.32 2.61 2.61 0 0 0-.64.69 2.39 2.39 0 0 0-.18.96Zm-1.49 2.2v-1.64h1.64v1.64Zm18.62-2.2h-1.48v-.39a2.6 2.6 0 0 1 .24-1.19 3.66 3.66 0 0 1 1-1.05 6.64 6.64 0 0 0 .85-.76 1 1 0 0 0 .22-.63 1 1 0 0 0-.38-.81 1.49 1.49 0 0 0-1-.35 1.53 1.53 0 0 0-1 .36 1.94 1.94 0 0 0-.58 1.08l-1.5-.18a2.46 2.46 0 0 1 .89-1.77 3.12 3.12 0 0 1 2.16-.73 3.27 3.27 0 0 1 2.24.74 2.24 2.24 0 0 1 .83 1.71 1.89 1.89 0 0 1-.3 1 6.77 6.77 0 0 1-1.31 1.32 2.44 2.44 0 0 0-.64.69 2.35 2.35 0 0 0-.24.96Zm-1.48 2.2v-1.64H362v1.64Zm18.66-2.2h-1.48v-.39a2.6 2.6 0 0 1 .24-1.19 3.75 3.75 0 0 1 1-1.05 7.05 7.05 0 0 0 .86-.76 1 1 0 0 0 .21-.63 1 1 0 0 0-.38-.81 1.45 1.45 0 0 0-1-.35 1.56 1.56 0 0 0-1.05.36 1.87 1.87 0 0 0-.57 1.08l-1.5-.18a2.45 2.45 0 0 1 .88-1.77 3.13 3.13 0 0 1 2.17-.73 3.29 3.29 0 0 1 2.24.74 2.24 2.24 0 0 1 .83 1.71 1.82 1.82 0 0 1-.31 1 6.64 6.64 0 0 1-1.3 1.32 2.7 2.7 0 0 0-.65.69 2.39 2.39 0 0 0-.19.96Zm-1.48 2.2v-1.64h1.63v1.64Zm18.58-2.2h-1.49v-.39a2.74 2.74 0 0 1 .23-1.19 3.66 3.66 0 0 1 1-1.05 6 6 0 0 0 .85-.76 1 1 0 0 0 .22-.63 1 1 0 0 0-.38-.81 1.49 1.49 0 0 0-1-.35 1.55 1.55 0 0 0-1 .36 1.94 1.94 0 0 0-.58 1.08l-1.5-.18a2.5 2.5 0 0 1 .89-1.77 3.12 3.12 0 0 1 2.16-.73 3.25 3.25 0 0 1 2.24.74 2.2 2.2 0 0 1 .83 1.71 1.89 1.89 0 0 1-.3 1 6.77 6.77 0 0 1-1.31 1.32 2.61 2.61 0 0 0-.64.69 2.39 2.39 0 0 0-.22.96Zm-1.49 2.2v-1.64h1.64v1.64Zm18.62-2.2h-1.48v-.39A2.6 2.6 0 0 1 412 187a3.66 3.66 0 0 1 1-1.05 6.64 6.64 0 0 0 .85-.76 1 1 0 0 0 .22-.63 1 1 0 0 0-.39-.81 1.45 1.45 0 0 0-1-.35 1.53 1.53 0 0 0-1 .36 1.94 1.94 0 0 0-.58 1.08l-1.5-.18a2.46 2.46 0 0 1 .89-1.77 3.12 3.12 0 0 1 2.16-.73 3.27 3.27 0 0 1 2.24.74 2.24 2.24 0 0 1 .83 1.71 1.82 1.82 0 0 1-.31 1 6.37 6.37 0 0 1-1.3 1.32 2.44 2.44 0 0 0-.64.69 2.18 2.18 0 0 0-.24.92Zm-1.48 2.2v-1.64h1.63v1.64Zm95.58 2.12h-1.48v-.39a2.6 2.6 0 0 1 .24-1.19 3.75 3.75 0 0 1 .95-1.05 6.3 6.3 0 0 0 .86-.76 1 1 0 0 0 .21-.63 1 1 0 0 0-.38-.81 1.45 1.45 0 0 0-1-.34 1.55 1.55 0 0 0-1.05.35 1.93 1.93 0 0 0-.57 1.08l-1.5-.18a2.49 2.49 0 0 1 .88-1.77 3.13 3.13 0 0 1 2.17-.73 3.27 3.27 0 0 1 2.24.74 2.24 2.24 0 0 1 .83 1.71 1.82 1.82 0 0 1-.31 1 6.64 6.64 0 0 1-1.3 1.32 2.7 2.7 0 0 0-.65.69 2.39 2.39 0 0 0-.14.96Zm-1.48 2.2v-1.64h1.63v1.64Zm18.62-2.2H523v-.39a2.6 2.6 0 0 1 .24-1.19 3.46 3.46 0 0 1 .95-1.05 7.05 7.05 0 0 0 .86-.76 1 1 0 0 0 .21-.63 1.06 1.06 0 0 0-.38-.81 1.47 1.47 0 0 0-1-.34 1.54 1.54 0 0 0-1 .35 1.87 1.87 0 0 0-.57 1.08l-1.51-.18a2.5 2.5 0 0 1 .89-1.77 3.12 3.12 0 0 1 2.16-.73 3.25 3.25 0 0 1 2.24.74 2.2 2.2 0 0 1 .83 1.71 1.89 1.89 0 0 1-.3 1 6.49 6.49 0 0 1-1.31 1.32 2.61 2.61 0 0 0-.64.69 2.39 2.39 0 0 0-.2.96Zm-1.49 2.2v-1.64h1.64v1.64Zm18.62-2.2h-1.48v-.39a2.6 2.6 0 0 1 .24-1.19 3.66 3.66 0 0 1 1-1.05 6.64 6.64 0 0 0 .85-.76A1 1 0 0 0 542 188a1.49 1.49 0 0 0-1-.34 1.52 1.52 0 0 0-1 .35 1.94 1.94 0 0 0-.58 1.08l-1.5-.18a2.46 2.46 0 0 1 .89-1.77 3.12 3.12 0 0 1 2.16-.73 3.27 3.27 0 0 1 2.24.74 2.24 2.24 0 0 1 .83 1.71 1.89 1.89 0 0 1-.3 1 6.77 6.77 0 0 1-1.31 1.32 2.44 2.44 0 0 0-.64.69 2.35 2.35 0 0 0-.19.99Zm-1.48 2.2v-1.64h1.63v1.64Zm18.62-2.2h-1.48v-.39a2.6 2.6 0 0 1 .24-1.19 3.75 3.75 0 0 1 1-1.05 7.05 7.05 0 0 0 .86-.76 1 1 0 0 0 .21-.63 1 1 0 0 0-.38-.81 1.46 1.46 0 0 0-1-.34 1.54 1.54 0 0 0-1 .35 1.87 1.87 0 0 0-.57 1.08l-1.5-.18a2.45 2.45 0 0 1 .88-1.77 3.13 3.13 0 0 1 2.17-.73 3.29 3.29 0 0 1 2.24.74 2.24 2.24 0 0 1 .83 1.71 1.82 1.82 0 0 1-.31 1 6.64 6.64 0 0 1-1.3 1.32 2.7 2.7 0 0 0-.65.69 2.39 2.39 0 0 0-.24.96Zm-1.48 2.2v-1.64h1.63v1.64Zm18.62-2.2h-1.49v-.39a2.74 2.74 0 0 1 .23-1.19 3.66 3.66 0 0 1 1-1.05 6 6 0 0 0 .85-.76 1 1 0 0 0 .22-.63 1.06 1.06 0 0 0-.38-.81 1.49 1.49 0 0 0-1-.34 1.54 1.54 0 0 0-1 .35 1.94 1.94 0 0 0-.58 1.08l-1.5-.18a2.5 2.5 0 0 1 .89-1.77 3.12 3.12 0 0 1 2.16-.73 3.25 3.25 0 0 1 2.24.74 2.2 2.2 0 0 1 .83 1.71 1.89 1.89 0 0 1-.3 1 6.77 6.77 0 0 1-1.31 1.32 2.61 2.61 0 0 0-.64.69 2.39 2.39 0 0 0-.22.96Zm-1.49 2.2v-1.64H576v1.64Zm37.84-2.2h-1.48v-.39a2.6 2.6 0 0 1 .24-1.19 3.75 3.75 0 0 1 .95-1.05 6.3 6.3 0 0 0 .86-.76 1 1 0 0 0 .21-.63 1 1 0 0 0-.38-.81 1.45 1.45 0 0 0-1-.34 1.55 1.55 0 0 0-1.05.35 1.93 1.93 0 0 0-.57 1.08l-1.5-.18a2.49 2.49 0 0 1 .88-1.77 3.13 3.13 0 0 1 2.17-.73 3.29 3.29 0 0 1 2.24.74 2.24 2.24 0 0 1 .83 1.71 1.82 1.82 0 0 1-.31 1 6.64 6.64 0 0 1-1.3 1.32 2.7 2.7 0 0 0-.65.69 2.39 2.39 0 0 0-.14.96Zm-1.48 2.2v-1.64h1.63v1.64Zm18.62-2.2h-1.49v-.39a2.6 2.6 0 0 1 .24-1.19 3.46 3.46 0 0 1 1-1.05 6 6 0 0 0 .85-.76 1 1 0 0 0 .22-.63 1.06 1.06 0 0 0-.38-.81 1.49 1.49 0 0 0-1-.34 1.54 1.54 0 0 0-1 .35 1.94 1.94 0 0 0-.58 1.08l-1.5-.18a2.5 2.5 0 0 1 .89-1.77 3.12 3.12 0 0 1 2.16-.73 3.25 3.25 0 0 1 2.24.74 2.2 2.2 0 0 1 .83 1.71 1.89 1.89 0 0 1-.3 1 6.49 6.49 0 0 1-1.31 1.32 2.61 2.61 0 0 0-.64.69 2.39 2.39 0 0 0-.23.96Zm-1.49 2.2v-1.64h1.64v1.64Zm18.62-2.2H645v-.39a2.6 2.6 0 0 1 .24-1.19 3.66 3.66 0 0 1 1-1.05 6.64 6.64 0 0 0 .85-.76 1 1 0 0 0-.16-1.44 1.49 1.49 0 0 0-1-.34 1.52 1.52 0 0 0-1 .35 1.94 1.94 0 0 0-.58 1.08l-1.5-.18a2.46 2.46 0 0 1 .89-1.77 3.12 3.12 0 0 1 2.16-.73 3.27 3.27 0 0 1 2.24.74 2.24 2.24 0 0 1 .83 1.71 1.89 1.89 0 0 1-.3 1 6.77 6.77 0 0 1-1.31 1.32 2.44 2.44 0 0 0-.64.69 2.18 2.18 0 0 0-.22.96Zm-1.48 2.2v-1.64h1.63v1.64Zm18.62-2.2h-1.49v-.39a2.6 2.6 0 0 1 .24-1.19 3.6 3.6 0 0 1 1-1.05 7.05 7.05 0 0 0 .86-.76 1 1 0 0 0 .21-.63 1 1 0 0 0-.46-.84 1.46 1.46 0 0 0-1-.34 1.54 1.54 0 0 0-1 .35 1.87 1.87 0 0 0-.57 1.08l-1.5-.18a2.45 2.45 0 0 1 .88-1.77 3.12 3.12 0 0 1 2.16-.73 3.25 3.25 0 0 1 2.24.74 2.22 2.22 0 0 1 .84 1.71 1.82 1.82 0 0 1-.31 1 6.64 6.64 0 0 1-1.3 1.32 2.7 2.7 0 0 0-.65.69 2.39 2.39 0 0 0-.15.99Zm-1.49 2.2v-1.64h1.64v1.64Zm18.63-2.2h-1.49v-.39a2.74 2.74 0 0 1 .23-1.19 3.66 3.66 0 0 1 1-1.05 6 6 0 0 0 .85-.76 1 1 0 0 0 .22-.63 1.06 1.06 0 0 0-.38-.81 1.49 1.49 0 0 0-1-.34 1.54 1.54 0 0 0-1 .35 1.94 1.94 0 0 0-.58 1.08l-1.5-.18a2.46 2.46 0 0 1 .89-1.77 3.12 3.12 0 0 1 2.16-.73 3.25 3.25 0 0 1 2.24.74 2.2 2.2 0 0 1 .83 1.71 1.89 1.89 0 0 1-.3 1 6.77 6.77 0 0 1-1.31 1.32 2.61 2.61 0 0 0-.64.69 2.39 2.39 0 0 0-.22.96Zm-1.49 2.2v-1.64h1.64v1.64Zm37.84-2.2h-1.48v-.39a2.6 2.6 0 0 1 .24-1.19 3.75 3.75 0 0 1 1-1.05 7.05 7.05 0 0 0 .86-.76 1 1 0 0 0 .21-.63 1 1 0 0 0-.38-.81 1.45 1.45 0 0 0-1-.34 1.55 1.55 0 0 0-1 .35 1.87 1.87 0 0 0-.57 1.08l-1.5-.18a2.49 2.49 0 0 1 .88-1.77 3.13 3.13 0 0 1 2.17-.73 3.29 3.29 0 0 1 2.24.74 2.24 2.24 0 0 1 .83 1.71 1.82 1.82 0 0 1-.31 1 6.64 6.64 0 0 1-1.3 1.32 2.7 2.7 0 0 0-.65.69 2.39 2.39 0 0 0-.24.96Zm-1.48 2.2v-1.64h1.63v1.64Zm18.62-2.2h-1.49v-.39a2.74 2.74 0 0 1 .23-1.19 3.66 3.66 0 0 1 1-1.05 6 6 0 0 0 .85-.76 1 1 0 0 0 .22-.63 1.06 1.06 0 0 0-.38-.81 1.49 1.49 0 0 0-1-.34 1.54 1.54 0 0 0-1 .35 1.94 1.94 0 0 0-.58 1.08l-1.5-.18a2.5 2.5 0 0 1 .89-1.77 3.12 3.12 0 0 1 2.16-.73 3.25 3.25 0 0 1 2.24.74 2.2 2.2 0 0 1 .83 1.71 1.89 1.89 0 0 1-.3 1 6.77 6.77 0 0 1-1.31 1.32 2.61 2.61 0 0 0-.64.69 2.39 2.39 0 0 0-.22.96Zm-1.49 2.2v-1.64h1.64v1.64Zm18.62-2.2h-1.48v-.39a2.6 2.6 0 0 1 .24-1.19 3.66 3.66 0 0 1 1-1.05 6.64 6.64 0 0 0 .85-.76 1 1 0 0 0 .22-.63 1 1 0 0 0-.39-.81 1.45 1.45 0 0 0-1-.34 1.52 1.52 0 0 0-1 .35 1.94 1.94 0 0 0-.58 1.08l-1.5-.18a2.46 2.46 0 0 1 .89-1.77 3.12 3.12 0 0 1 2.16-.73 3.27 3.27 0 0 1 2.24.74 2.24 2.24 0 0 1 .83 1.71 1.82 1.82 0 0 1-.31 1 6.37 6.37 0 0 1-1.3 1.32 2.44 2.44 0 0 0-.64.69 2.18 2.18 0 0 0-.23.96Zm-1.48 2.2v-1.64h1.63v1.64Zm18.62-2.2h-1.49v-.39a2.6 2.6 0 0 1 .24-1.19 3.6 3.6 0 0 1 1-1.05 7.05 7.05 0 0 0 .86-.76 1 1 0 0 0 .21-.63 1.06 1.06 0 0 0-.38-.81 1.47 1.47 0 0 0-1-.34 1.54 1.54 0 0 0-1 .35 1.87 1.87 0 0 0-.57 1.08l-1.5-.18a2.45 2.45 0 0 1 .88-1.77 3.12 3.12 0 0 1 2.16-.73 3.25 3.25 0 0 1 2.24.74 2.22 2.22 0 0 1 .84 1.71 1.9 1.9 0 0 1-.31 1 6.49 6.49 0 0 1-1.31 1.32 2.61 2.61 0 0 0-.64.69 2.39 2.39 0 0 0-.23.96Zm-1.49 2.2v-1.64h1.64v1.64Zm18.62-2.2h-1.48v-.39a2.6 2.6 0 0 1 .23-1.19 3.66 3.66 0 0 1 1-1.05 6 6 0 0 0 .85-.76 1 1 0 0 0 .22-.63 1.06 1.06 0 0 0-.38-.81 1.49 1.49 0 0 0-1-.34 1.54 1.54 0 0 0-1 .35 1.94 1.94 0 0 0-.58 1.08l-1.5-.18a2.46 2.46 0 0 1 .89-1.77 3.12 3.12 0 0 1 2.16-.73 3.25 3.25 0 0 1 2.24.74 2.2 2.2 0 0 1 .83 1.71 1.89 1.89 0 0 1-.3 1 6.77 6.77 0 0 1-1.31 1.32 2.61 2.61 0 0 0-.64.69 2.35 2.35 0 0 0-.23.96Zm-1.48 2.2v-1.64h1.64v1.64Z" style="fill:#f9c7e4"/><path transform="rotate(-32.65 583.646 471.907)" style="fill:#f9c7e4" d="M505.34 465.39h156.53v13H505.34z"/><path style="fill:#f9c7e4" d="m527.62 481.59-6.68 30.45 30.46 6.66-15.76 10.1-30.45-6.67 6.67-30.44 15.76-10.1z"/><path transform="rotate(-180 461.99 434.855)" style="fill:#07448e" d="M217.01 421.46h489.97v26.79H217.01z"/><path transform="rotate(-42.86 709.621 251.96)" style="fill:#f9c7e4" d="M656.96 249.59h105.35v4.76H656.96z"/><path style="fill:#f9c7e4" d="m683.45 287.26-11.39-.42.43-11.4-5.02 4.66-.43 11.39 11.39.43 5.02-4.66z"/><path transform="rotate(-.13 660.81 260.785)" style="fill:#f9c7e4" d="M643.53 218.52h4.76v68.34h-4.76z"/><path style="fill:#f9c7e4" d="m654.02 277.37-8.04 8.08-8.08-8.04.02 6.84 8.08 8.05 8.04-8.09-.02-6.84z"/><path transform="rotate(-46.71 582.552 253.047)" style="fill:#f9c7e4" d="M580.2 199.23h4.76v107.65h-4.76z"/><path style="fill:#f9c7e4" d="m620.39 277.6.34 11.4-11.4.33 4.98 4.69 11.4-.33-.34-11.4-4.98-4.69z"/><path transform="rotate(-180 653.325 218.515)" style="fill:#07448e" d="M523.47 214.13h259.71v8.78H523.47z"/><path d="m736.51 340.19-15.14-6.91a.53.53 0 0 1-.36-.56v-19.17a.5.5 0 0 1 .36-.55l17.08-7.84.34-.18h.14l2.87 1.34 14.94 6.83a.5.5 0 0 1 .35.55v19.21a.52.52 0 0 1-.35.56l-16.6 8a3 3 0 0 0-.35.22h-.07Zm18.62-26-15.33 7a.47.47 0 0 0-.35.49v18.26l.3-.11 15.48-7.35a.41.41 0 0 0 .27-.43v-18.02Zm-17.27 23.86V321.7a.5.5 0 0 0-.34-.53l-4.89-2.4-.39-.17v8.79l-.35-.16-4.18-2.23a.44.44 0 0 1-.27-.47v-8a.47.47 0 0 0-.31-.48L723 314l-.39-.17v17.96c0 .22 0 .37.26.48l14.75 7 .26.11Zm10.29-27.2a.42.42 0 0 0-.33 0l-14.05 6.59-.14.1 5.09 2.43a.47.47 0 0 0 .33 0q7.28-3.27 14.54-6.57s0 0 .12-.09c-1.88-.83-3.71-1.65-5.56-2.45Zm-20 4.08a.39.39 0 0 0 .3 0l14.46-6.37h.06c-.09 0-.17-.11-.26-.15-1.2-.55-2.4-1.11-3.61-1.64a.7.7 0 0 0-.53 0L724.79 313l-.31.16c1.26.63 2.52 1.21 3.69 1.78Zm-37.92 25.26-15.14-6.91a.53.53 0 0 1-.37-.56v-19.17a.51.51 0 0 1 .37-.55l17.07-7.84a3.65 3.65 0 0 0 .34-.18h.14l2.88 1.34 14.93 6.83a.51.51 0 0 1 .36.55v19.21a.53.53 0 0 1-.36.56l-16.6 8c-.12.06-.23.15-.35.22h-.07Zm18.62-26-15.33 7c-.23.1-.36.2-.36.49v18.26l.3-.11L709 332.5a.39.39 0 0 0 .27-.43v-18.02Zm-17.27 23.86V321.7a.5.5 0 0 0-.33-.53c-1.64-.79-3.26-1.6-4.89-2.4l-.39-.17v8.79l-.35-.16-4.19-2.23a.45.45 0 0 1-.28-.47v-8a.46.46 0 0 0-.3-.48l-4.15-2-.4-.17v18c0 .22 0 .37.25.48l14.76 7 .26.11Zm10.28-27.2a.42.42 0 0 0-.33 0l-14 6.59s-.07.06-.13.1l5.08 2.43a.47.47 0 0 0 .33 0q7.28-3.27 14.54-6.57a.77.77 0 0 0 .13-.09c-1.93-.83-3.77-1.65-5.62-2.45Zm-20 4.08a.37.37 0 0 0 .29 0l14.47-6.37h.05l-.25-.15c-1.21-.55-2.41-1.11-3.62-1.64a.67.67 0 0 0-.52 0q-6.91 3.13-13.8 6.29a2.31 2.31 0 0 0-.31.16c1.28.57 2.5 1.15 3.72 1.72Zm-37.92 25.26-15.13-6.91a.53.53 0 0 1-.37-.56v-19.17a.51.51 0 0 1 .36-.55l17.08-7.84.34-.18h.14c1 .45 1.91.9 2.88 1.34l14.93 6.83a.5.5 0 0 1 .35.55v19.21a.52.52 0 0 1-.35.56l-16.6 8c-.12.06-.23.15-.35.22h-.07c-1.07-.51-2.15-1.01-3.21-1.5Zm18.62-26-15.33 7a.47.47 0 0 0-.35.49v18.26l.3-.11 15.48-7.35a.41.41 0 0 0 .27-.43v-18.02Zm-17.27 23.86V321.7a.5.5 0 0 0-.34-.53c-1.63-.79-3.26-1.6-4.88-2.4l-.39-.17v8.79a3.56 3.56 0 0 1-.36-.16l-4.17-2.23a.45.45 0 0 1-.28-.47v-8a.47.47 0 0 0-.31-.48l-4.15-2-.39-.17v18c0 .22 0 .37.25.48l14.76 7 .25.11Zm10.29-27.2a.42.42 0 0 0-.33 0l-14 6.59a.91.91 0 0 0-.13.1l5.08 2.43a.47.47 0 0 0 .33 0q7.28-3.27 14.54-6.57a.51.51 0 0 0 .12-.09c-1.93-.83-3.77-1.65-5.61-2.45Zm-20 4.08a.39.39 0 0 0 .3 0l14.46-6.37h.06c.06 0-.17-.11-.26-.15-1.2-.55-2.4-1.11-3.61-1.64a.7.7 0 0 0-.53 0L632.22 313l-.31.16c1.26.63 2.47 1.21 3.69 1.78Zm-37.92 25.26-15.14-6.91a.52.52 0 0 1-.36-.56v-19.17a.5.5 0 0 1 .36-.55l17.07-7.84a3.65 3.65 0 0 0 .34-.18h.15l2.87 1.34q7.47 3.42 14.94 6.83a.5.5 0 0 1 .35.55v19.21a.53.53 0 0 1-.35.56l-16.61 8a4 4 0 0 0-.34.22h-.07Zm18.62-26-15.33 7c-.23.1-.36.2-.35.49v18.26l.29-.11 15.49-7.35a.41.41 0 0 0 .27-.43v-18.02ZM599 338.06v-16.35a.49.49 0 0 0-.33-.53c-1.64-.79-3.26-1.6-4.89-2.4l-.39-.17v8.79l-.35-.16-4.18-2.24a.46.46 0 0 1-.28-.47v-8a.45.45 0 0 0-.3-.48l-4.15-2-.39-.17v17.96c0 .22 0 .37.26.48l14.75 7 .26.11Zm10.29-27.2a.42.42 0 0 0-.33 0l-14.06 6.59s-.07.06-.13.1l5.08 2.43a.5.5 0 0 0 .34 0q7.26-3.27 14.53-6.57s.06 0 .13-.09c-1.85-.84-3.71-1.66-5.55-2.46Zm-20 4.08a.37.37 0 0 0 .29 0l14.47-6.37h.06l-.26-.15c-1.2-.55-2.41-1.11-3.62-1.64a.67.67 0 0 0-.52 0q-6.91 3.13-13.8 6.29l-.31.16c1.29.56 2.5 1.14 3.72 1.71Zm-37.91 25.25-15.14-6.91a.53.53 0 0 1-.37-.56v-19.17a.51.51 0 0 1 .36-.55l17.08-7.84a3.65 3.65 0 0 0 .34-.18h.14l2.88 1.34 14.93 6.83a.51.51 0 0 1 .36.55v19.21a.53.53 0 0 1-.36.56l-16.6 8c-.12.06-.23.15-.35.22h-.07Zm18.62-26-15.34 7a.47.47 0 0 0-.35.49v18.26l.3-.11 15.48-7.35a.41.41 0 0 0 .27-.43v-18.02Zm-17.27 23.86V321.7a.5.5 0 0 0-.34-.53c-1.63-.79-3.25-1.6-4.88-2.4l-.39-.17v8.79l-.35-.16-4.19-2.23a.45.45 0 0 1-.28-.47v-8a.45.45 0 0 0-.3-.53l-4.14-2-.4-.17v18c0 .22 0 .37.25.48l14.76 7 .26.11ZM563 310.86a.42.42 0 0 0-.33 0l-14 6.59s-.07.06-.13.1l5.08 2.43a.47.47 0 0 0 .33 0q7.27-3.27 14.54-6.57a.77.77 0 0 0 .13-.09c-1.92-.84-3.76-1.66-5.62-2.46Zm-20 4.08a.39.39 0 0 0 .3 0l14.47-6.37h.05c-.09 0-.17-.11-.26-.15-1.2-.55-2.4-1.11-3.61-1.64a.7.7 0 0 0-.53 0L539.66 313l-.32.16Zm85.68 111.11a9.08 9.08 0 0 1 6.56-5.24 1.71 1.71 0 0 0 1-.79 7.87 7.87 0 0 0 .81-2.15 26.4 26.4 0 0 0 0-9.38 23.1 23.1 0 0 1 1.58-13.19 10.19 10.19 0 0 1 8.21-6.27 28.6 28.6 0 0 1 3.59-.1c4.77-.11 8.15 2.07 10.23 6.3a17.92 17.92 0 0 1 1.84 8c0 2.82-.48 5.63-.49 8.45a53.42 53.42 0 0 0 .59 7.25 2.16 2.16 0 0 0 1.69 2c4.2 1 8 5.68 8.18 10.08h-46c.86-1.79 1.42-3.43 2.21-4.96Zm12.06-16.28a1.77 1.77 0 0 1 .51.85 15.31 15.31 0 0 0 3.71 5.57c3 2.79 6.52 2.77 9.54-.06a15.86 15.86 0 0 0 3.69-5.58 1.89 1.89 0 0 1 .77-.84c1.42-.82 1.67-3.85.4-4.86-.23-.18-.26-.6-.4-.9a20.76 20.76 0 0 0-1.82-3.69 2.9 2.9 0 0 0-3.95-.7l-10.75 5.53c-.93.49-1.83 1.21-2.63-.33a3.59 3.59 0 0 0 .93 5.01Zm14.94 8c-4.43 3.8-8.22 3.21-12 0l-2.36 2.6c.69 2.12 4.79 4.29 8.38 4.29s7.74-2.19 8.38-4.26Zm84.93-202.88A3.28 3.28 0 0 1 743 213a.67.67 0 0 0 .38-.28 3 3 0 0 0 .29-.78 9.31 9.31 0 0 0 0-3.37 8.35 8.35 0 0 1 .57-4.74 3.67 3.67 0 0 1 2.95-2.26 11.23 11.23 0 0 1 1.3 0 3.72 3.72 0 0 1 3.67 2.26 6.4 6.4 0 0 1 .67 2.87c0 1-.18 2-.18 3a19.13 19.13 0 0 0 .21 2.61.78.78 0 0 0 .61.71 4.18 4.18 0 0 1 2.94 3.62h-16.54c.26-.64.46-1.2.74-1.75ZM745 209a.61.61 0 0 1 .18.3 5.56 5.56 0 0 0 1.33 2 2.34 2.34 0 0 0 3.44 0 5.71 5.71 0 0 0 1.32-2 .63.63 0 0 1 .28-.3 1.24 1.24 0 0 0 .14-1.75c-.08-.06-.09-.22-.14-.32a7.49 7.49 0 0 0-.66-1.33 1 1 0 0 0-1.42-.25l-3.86 2c-.33.17-.66.43-.94-.12A1.28 1.28 0 0 0 745 209Zm5.37 2.88a2.92 2.92 0 0 1-4.3 0l-.85.93c.25.76 1.72 1.54 3 1.54s2.78-.78 3-1.53Zm-214.52 3.01a3.28 3.28 0 0 1 2.36-1.88.67.67 0 0 0 .38-.28 3 3 0 0 0 .29-.78 9.54 9.54 0 0 0 0-3.37 8.35 8.35 0 0 1 .57-4.74 3.67 3.67 0 0 1 2.95-2.26 11.06 11.06 0 0 1 1.29 0 3.73 3.73 0 0 1 3.68 2.26 6.39 6.39 0 0 1 .66 2.87c0 1-.17 2-.17 3a17.66 17.66 0 0 0 .21 2.61.78.78 0 0 0 .61.71 4.18 4.18 0 0 1 2.94 3.62H535.1c.26-.65.47-1.21.75-1.76Zm4.34-5.85a.61.61 0 0 1 .18.3 5.56 5.56 0 0 0 1.33 2 2.33 2.33 0 0 0 3.43 0 5.74 5.74 0 0 0 1.33-2 .63.63 0 0 1 .28-.3 1.24 1.24 0 0 0 .14-1.75c-.08-.06-.09-.22-.14-.32a7.49 7.49 0 0 0-.66-1.33 1 1 0 0 0-1.42-.25c-1.29.66-2.58 1.32-3.86 2-.34.17-.66.43-.95-.12a1.29 1.29 0 0 0 .34 1.73Zm5.37 2.88a2.92 2.92 0 0 1-4.3 0l-.85.93c.25.76 1.72 1.54 3 1.54s2.79-.78 3-1.53Zm92.67 2.97a3.28 3.28 0 0 1 2.36-1.88.67.67 0 0 0 .38-.28 3 3 0 0 0 .29-.78 9.54 9.54 0 0 0 0-3.37 8.35 8.35 0 0 1 .57-4.74 3.67 3.67 0 0 1 2.95-2.26 11.11 11.11 0 0 1 1.29 0 3.73 3.73 0 0 1 3.68 2.26 6.26 6.26 0 0 1 .66 2.87c0 1-.17 2-.17 3a17.66 17.66 0 0 0 .21 2.61.78.78 0 0 0 .61.71 4.18 4.18 0 0 1 2.94 3.62h-16.51c.26-.65.51-1.21.74-1.76Zm4.34-5.85a.61.61 0 0 1 .18.3 5.56 5.56 0 0 0 1.33 2 2.34 2.34 0 0 0 3.44 0 5.71 5.71 0 0 0 1.32-2 .63.63 0 0 1 .28-.3 1.24 1.24 0 0 0 .14-1.75c-.08-.06-.09-.22-.14-.32a7.49 7.49 0 0 0-.66-1.33 1 1 0 0 0-1.42-.25l-3.86 2c-.33.17-.66.43-.95-.12a1.29 1.29 0 0 0 .34 1.73Zm5.37 2.88a2.92 2.92 0 0 1-4.3 0l-.85.93c.25.76 1.72 1.54 3 1.54s2.78-.78 3-1.53Zm136.14-32.74-5.58-2.54a.21.21 0 0 1-.13-.21v-7.06a.18.18 0 0 1 .13-.2l6.29-2.89.13-.07h.08l1.06.5 5.5 2.51a.2.2 0 0 1 .13.21v7.07a.2.2 0 0 1-.13.21l-6.12 2.94-.13.08Zm6.85-9.57-5.64 2.57c-.08 0-.13.08-.13.18v6.74h.11l5.7-2.7a.15.15 0 0 0 .1-.16v-6.52a.45.45 0 0 0 0-.11Zm-6.35 8.79v-6a.18.18 0 0 0-.12-.2l-1.8-.88-.14-.07v3.24l-.13-.06-1.54-.84a.16.16 0 0 1-.1-.17v-2.93a.17.17 0 0 0-.11-.18l-1.53-.75-.15-.06v6.61a.16.16 0 0 0 .1.18l5.43 2.57h.1Zm3.78-10a.17.17 0 0 0-.12 0l-5.17 2.43h-.05l1.87.89a.13.13 0 0 0 .12 0l5.36-2.41Zm-7.35 1.5h.11l5.32-2.35-.09-.06-1.33-.6a.23.23 0 0 0-.2 0l-5.08 2.31-.11.07ZM767 179.18l-5.57-2.54a.2.2 0 0 1-.14-.21v-7.06a.18.18 0 0 1 .13-.2l6.29-2.89.12-.07 1.06.5 5.5 2.51a.2.2 0 0 1 .13.21v7.07a.2.2 0 0 1-.13.21c-2 1-4.07 2-6.11 2.94a.57.57 0 0 0-.13.08Zm6.86-9.57-5.64 2.57c-.09 0-.14.08-.14.18v6.74h.11l5.7-2.7a.16.16 0 0 0 .1-.16v-6.63Zm-6.36 8.79v-6a.18.18 0 0 0-.12-.2l-1.8-.88-.15-.07v3.24l-.13-.06-1.54-.84a.18.18 0 0 1-.1-.17v-2.93a.17.17 0 0 0-.12-.18l-1.52-.75-.15-.06v6.61c0 .08 0 .14.09.18l5.44 2.57h.09Zm3.79-10a.17.17 0 0 0-.12 0l-5.17 2.41 1.88.89a.13.13 0 0 0 .12 0l5.35-2.41Zm-7.36 1.5h.11l5.33-2.35-.1-.06-1.33-.6a.21.21 0 0 0-.19 0l-5.08 2.31-.12.07ZM750 179.18l-5.57-2.54a.2.2 0 0 1-.14-.21v-7.06a.19.19 0 0 1 .13-.2l6.29-2.89.13-.07 1.06.5 5.5 2.51a.2.2 0 0 1 .13.21v7.07a.2.2 0 0 1-.13.21c-2 1-4.08 2-6.11 2.94a.57.57 0 0 0-.13.08Zm6.86-9.57-5.65 2.57c-.08 0-.13.08-.13.18V179a.41.41 0 0 0 0 .1h.1l5.71-2.7a.16.16 0 0 0 .1-.16v-6.63Zm-6.36 8.79v-6a.19.19 0 0 0-.13-.2l-1.8-.88-.14-.07v3.24l-.13-.06-1.54-.84a.16.16 0 0 1-.1-.17v-2.93a.17.17 0 0 0-.11-.18l-1.53-.75-.14-.06v6.61c0 .08 0 .14.09.18l5.43 2.57h.1Zm3.78-10a.17.17 0 0 0-.12 0l-5.16 2.41h-.05l1.87.89a.13.13 0 0 0 .12 0l5.36-2.41Zm-7.35 1.5h.07l5.32-2.35-.1-.06-1.33-.6a.21.21 0 0 0-.19 0l-5.09 2.31-.11.07ZM733 179.18l-5.58-2.54a.21.21 0 0 1-.13-.21v-7.06a.18.18 0 0 1 .13-.2l6.29-2.89.12-.07h.06l1 .5 5.5 2.51a.2.2 0 0 1 .13.21v7.07a.2.2 0 0 1-.13.21l-6.11 2.94-.13.08Zm6.85-9.57-5.64 2.57c-.09 0-.13.08-.13.18v6.74h.11l5.7-2.7a.15.15 0 0 0 .1-.16v-6.63Zm-6.36 8.79v-6a.18.18 0 0 0-.12-.2l-1.8-.88-.15-.07v3.24l-.13-.06-1.53-.84a.17.17 0 0 1-.11-.17v-2.93a.17.17 0 0 0-.11-.18l-1.53-.75-.15-.06v6.61c0 .08 0 .14.09.18l5.44 2.57h.09Zm3.79-10a.17.17 0 0 0-.12 0l-5.17 2.43h-.05l1.87.89a.13.13 0 0 0 .12 0l5.35-2.41Zm-7.36 1.5h.08l5.33-2.35-.09-.06-1.34-.6a.21.21 0 0 0-.19 0l-5.08 2.31-.11.07Zm-14.02 9.28-5.57-2.54a.2.2 0 0 1-.14-.21v-7.06a.19.19 0 0 1 .14-.2l6.28-2.89.13-.07 1.06.5 5.5 2.51a.2.2 0 0 1 .13.21v7.07a.2.2 0 0 1-.13.21c-2 1-4.08 2-6.11 2.94a.57.57 0 0 0-.13.08Zm6.86-9.57-5.65 2.57c-.08 0-.13.08-.13.18v6.74h.11l5.7-2.7a.16.16 0 0 0 .1-.16v-6.63Zm-6.36 8.79v-6a.19.19 0 0 0-.13-.2l-1.8-.88-.14-.07v3.24l-.13-.06-1.54-.84a.18.18 0 0 1-.1-.17v-2.93a.17.17 0 0 0-.11-.18l-1.53-.75-.14-.06v6.61c0 .08 0 .14.09.18l5.43 2.57h.1Zm3.79-10a.17.17 0 0 0-.12 0l-5.18 2.43 1.87.89a.15.15 0 0 0 .13 0l5.35-2.41Zm-7.36 1.5h.11l5.33-2.35-.1-.06-1.33-.6a.21.21 0 0 0-.19 0l-5.08 2.31-.12.07Zm-138.47 9.28-5.57-2.54a.2.2 0 0 1-.14-.21v-7.06a.19.19 0 0 1 .13-.2l6.29-2.89.13-.07 1.06.5 5.5 2.51a.2.2 0 0 1 .13.21v7.07a.2.2 0 0 1-.13.21c-2 1-4.08 2-6.11 2.94a.57.57 0 0 0-.13.08Zm6.86-9.57-5.65 2.57c-.08 0-.13.08-.13.18V179a.41.41 0 0 0 0 .1h.1l5.71-2.7a.16.16 0 0 0 .1-.16v-6.63Zm-6.36 8.79v-6a.19.19 0 0 0-.13-.2l-1.8-.88-.14-.07v3.24l-.13-.06-1.54-.84a.16.16 0 0 1-.1-.17v-2.93a.17.17 0 0 0-.11-.18l-1.53-.75-.14-.06v6.61c0 .08 0 .14.09.18l5.43 2.57h.1Zm3.79-10a.19.19 0 0 0-.13 0l-5.17 2.43h-.05l1.87.89a.13.13 0 0 0 .12 0l5.36-2.41Zm-7.36 1.5h.11l5.32-2.35-.1-.06-1.33-.6a.21.21 0 0 0-.19 0l-5.1 2.28-.11.07Zm-13.97 9.28-5.58-2.54a.21.21 0 0 1-.13-.21v-7.06a.18.18 0 0 1 .13-.2l6.29-2.89.12-.07h.06l1.06.5 5.49 2.51a.2.2 0 0 1 .14.21v7.07a.19.19 0 0 1-.13.21l-6.11 2.94-.13.08Zm6.85-9.57-5.64 2.57c-.09 0-.13.08-.13.18v6.74h.11l5.7-2.7a.15.15 0 0 0 .1-.16v-6.63Zm-6.36 8.79v-6a.18.18 0 0 0-.12-.2l-1.8-.88-.14-.07v3.24l-.13-.06-1.54-.84a.17.17 0 0 1-.11-.17v-2.93a.17.17 0 0 0-.11-.18l-1.53-.75-.15-.06v6.61c0 .08 0 .14.09.18l5.44 2.57h.09Zm3.79-10a.17.17 0 0 0-.12 0l-5.17 2.43 1.87.89a.13.13 0 0 0 .12 0l5.35-2.41Zm-7.36 1.5h.11l5.33-2.35-.09-.06-1.33-.6a.23.23 0 0 0-.2 0l-5.06 2.28-.11.07Zm-13.97 9.28-5.57-2.54a.2.2 0 0 1-.14-.21v-7.06a.19.19 0 0 1 .14-.2l6.28-2.89.13-.07 1.06.5 5.5 2.51a.2.2 0 0 1 .13.21v7.07a.2.2 0 0 1-.13.21c-2 1-4.08 2-6.11 2.94a.57.57 0 0 0-.13.08Zm6.86-9.57-5.65 2.57c-.08 0-.13.08-.13.18v6.74h.11l5.7-2.7a.16.16 0 0 0 .1-.16v-6.63Zm-6.36 8.79v-6a.19.19 0 0 0-.13-.2l-1.8-.88-.14-.07v3.24l-.13-.06-1.54-.84a.18.18 0 0 1-.1-.17v-2.93a.17.17 0 0 0-.11-.18l-1.53-.75-.14-.06v6.61c0 .08 0 .14.09.18l5.43 2.57h.1Zm3.79-10a.17.17 0 0 0-.12 0l-5.18 2.43 1.87.89a.15.15 0 0 0 .13 0l5.35-2.41h.05Zm-7.36 1.5h.11l5.33-2.35-.1-.06-1.33-.6a.21.21 0 0 0-.19 0l-5.02 2.28-.12.07Zm-13.97 9.28-5.58-2.54a.21.21 0 0 1-.13-.21v-7.06a.18.18 0 0 1 .13-.2l6.29-2.89.13-.07 1.06.5 5.5 2.51a.2.2 0 0 1 .13.21v7.07a.2.2 0 0 1-.13.21l-6.12 2.94-.12.08Zm6.86-9.57-5.65 2.57c-.08 0-.13.08-.13.18v6.74h.11l5.7-2.7a.15.15 0 0 0 .1-.16v-6.52a.45.45 0 0 0 0-.11Zm-6.36 8.79v-6a.18.18 0 0 0-.12-.2l-1.8-.88-.14-.07v3.24l-.13-.06-1.54-.84a.16.16 0 0 1-.1-.17v-2.93a.17.17 0 0 0-.11-.18l-1.53-.75-.15-.06v6.61a.16.16 0 0 0 .1.18l5.43 2.57h.1Zm3.78-10a.17.17 0 0 0-.12 0l-5.17 2.43h-.05l1.87.89a.13.13 0 0 0 .12 0l5.36-2.41Zm-7.35 1.5h.11l5.32-2.35-.09-.06-1.33-.6a.23.23 0 0 0-.2 0l-5.08 2.31-.11.07Zm-13.98 9.28-5.57-2.54a.2.2 0 0 1-.13-.21v-7.06a.18.18 0 0 1 .13-.2l6.29-2.89.12-.07h.05l1.06.5 5.5 2.51a.2.2 0 0 1 .13.21v7.07a.2.2 0 0 1-.13.21c-2 1-4.07 2-6.11 2.94a.57.57 0 0 0-.13.08Zm6.86-9.57-5.64 2.57c-.09 0-.13.08-.13.18v6.74h.11l5.7-2.7a.16.16 0 0 0 .1-.16v-6.63Zm-6.36 8.79v-6a.18.18 0 0 0-.12-.2l-1.8-.88-.15-.07v3.24l-.13-.06-1.54-.84a.18.18 0 0 1-.1-.17v-2.93a.16.16 0 0 0-.12-.18l-1.52-.75-.15-.06v6.61c0 .08 0 .14.09.18l5.44 2.57h.09Zm3.79-10a.17.17 0 0 0-.12 0l-5.18 2.43h-.05l1.88.89a.13.13 0 0 0 .12 0l5.35-2.41Zm-7.36 1.5h.11l5.33-2.35-.1-.06-1.33-.6a.21.21 0 0 0-.19 0l-5.08 2.31-.12.07Zm176.11 9.28-5.58-2.54a.21.21 0 0 1-.13-.21v-7.06a.19.19 0 0 1 .13-.2l6.29-2.89.13-.07h.05l1.06.5 5.5 2.51a.2.2 0 0 1 .13.21v7.07a.2.2 0 0 1-.13.21l-6.12 2.94-.12.08Zm6.86-9.57-5.65 2.57c-.08 0-.13.08-.13.18v6.74h.11l5.7-2.7a.15.15 0 0 0 .1-.16v-6.52a.45.45 0 0 0 0-.11Zm-6.36 8.79v-6a.18.18 0 0 0-.12-.2l-1.8-.88-.14-.07v3.24l-.13-.06-1.54-.84a.16.16 0 0 1-.1-.17v-2.93a.17.17 0 0 0-.11-.18l-1.53-.75-.14-.06v6.61a.16.16 0 0 0 .1.18l5.43 2.57h.1Zm3.78-10a.17.17 0 0 0-.12 0l-5.17 2.43h-.05l1.87.89a.13.13 0 0 0 .12 0l5.36-2.41Zm-7.35 1.5h.11l5.32-2.35-.09-.06-1.33-.6a.23.23 0 0 0-.2 0l-5.08 2.31-.11.07Zm-13.98 9.28-5.57-2.54a.21.21 0 0 1-.13-.21v-7.06a.18.18 0 0 1 .13-.2l6.29-2.89.12-.07h.06l1 .5 5.5 2.51a.2.2 0 0 1 .13.21v7.07a.2.2 0 0 1-.13.21c-2 1-4.07 2-6.11 2.94a.57.57 0 0 0-.13.08Zm6.86-9.57-5.64 2.57c-.09 0-.13.08-.13.18v6.74h.11l5.7-2.7a.15.15 0 0 0 .1-.16v-6.63Zm-6.36 8.79v-6a.18.18 0 0 0-.12-.2l-1.8-.88-.15-.07v3.24l-.13-.06-1.53-.84a.17.17 0 0 1-.11-.17v-2.93a.16.16 0 0 0-.12-.18l-1.52-.75-.15-.06v6.61c0 .08 0 .14.09.18l5.44 2.57h.09Zm3.79-10a.17.17 0 0 0-.12 0l-5.18 2.43 1.87.89a.13.13 0 0 0 .12 0l5.35-2.41Zm-7.36 1.5h.11l5.33-2.35-.09-.06-1.34-.6a.21.21 0 0 0-.19 0l-5.08 2.31-.12.07Zm-13.97 9.28-5.57-2.54a.2.2 0 0 1-.14-.21v-7.06a.19.19 0 0 1 .14-.2l6.28-2.89.13-.07 1.06.5 5.5 2.51a.2.2 0 0 1 .13.21v7.07a.2.2 0 0 1-.13.21c-2 1-4.08 2-6.11 2.94a.57.57 0 0 0-.13.08Zm6.86-9.57-5.65 2.57c-.08 0-.13.08-.13.18V179a.41.41 0 0 0 0 .1h.11l5.7-2.7a.16.16 0 0 0 .1-.16v-6.63Zm-6.36 8.79v-6a.19.19 0 0 0-.13-.2l-1.8-.88-.14-.07v3.24l-.13-.06-1.54-.84a.18.18 0 0 1-.1-.17v-2.93a.17.17 0 0 0-.11-.18l-1.53-.75-.14-.06v6.61c0 .08 0 .14.09.18l5.43 2.57h.1Zm3.79-10a.17.17 0 0 0-.12 0l-5.18 2.43 1.87.89a.15.15 0 0 0 .13 0l5.35-2.41h.05Zm-7.36 1.5h.11l5.33-2.35-.1-.06-1.33-.6a.21.21 0 0 0-.19 0l-5.08 2.31-.12.07Zm-13.97 9.28-5.58-2.54a.21.21 0 0 1-.13-.21v-7.06a.18.18 0 0 1 .13-.2l6.29-2.89.12-.07h.08l1.06.5 5.5 2.51a.21.21 0 0 1 .13.21v7.07a.21.21 0 0 1-.13.21l-6.12 2.94-.13.08Zm6.85-9.57-5.64 2.57c-.08 0-.13.08-.13.18v6.74h.11l5.7-2.7a.15.15 0 0 0 .1-.16v-6.52a.45.45 0 0 0 0-.11Zm-6.36 8.79v-6a.18.18 0 0 0-.12-.2l-1.8-.88-.14-.07v3.24l-.13-.06-1.54-.84a.15.15 0 0 1-.1-.17v-2.93a.17.17 0 0 0-.11-.18l-1.53-.75-.15-.06v6.61a.16.16 0 0 0 .1.18l5.43 2.57h.09Zm3.79-10a.17.17 0 0 0-.12 0l-5.17 2.43h-.05l1.87.89a.13.13 0 0 0 .12 0l5.35-2.41Zm-7.35 1.5h.1l5.33-2.35-.09-.06-1.33-.6a.23.23 0 0 0-.2 0l-5.08 2.31-.11.07ZM611 179.18l-5.57-2.54a.2.2 0 0 1-.14-.21v-7.06a.19.19 0 0 1 .14-.2l6.29-2.89.12-.07 1.06.5 5.5 2.51a.2.2 0 0 1 .13.21v7.07a.2.2 0 0 1-.13.21c-2 1-4.07 2-6.11 2.94a.57.57 0 0 0-.13.08Zm6.86-9.57-5.65 2.57c-.08 0-.13.08-.13.18v6.74h.11l5.7-2.7a.16.16 0 0 0 .1-.16v-6.63Zm-6.36 8.79v-6a.18.18 0 0 0-.13-.2l-1.79-.88-.15-.07v3.24l-.13-.06-1.54-.84a.18.18 0 0 1-.1-.17v-2.93a.16.16 0 0 0-.11-.18l-1.53-.75-.14-.06v6.61c0 .08 0 .14.09.18l5.44 2.57h.09Zm3.79-10a.17.17 0 0 0-.12 0l-5.17 2.41 1.88.89a.13.13 0 0 0 .12 0l5.35-2.41Zm-7.36 1.5h.11l5.33-2.35-.1-.06-1.33-.6a.21.21 0 0 0-.19 0l-5.08 2.31-.12.07ZM339 874.82a1.92 1.92 0 0 0-.26-.17l-12.43-6a.39.39 0 0 1-.26-.42v-14.37a.39.39 0 0 1 .26-.42c3.73-1.69 7.46-3.4 11.18-5.1l2.15-1h.11a2 2 0 0 0 .25.14l12.78 5.86a.39.39 0 0 1 .27.42v14.34a.4.4 0 0 1-.27.42l-11.38 5.18c-.8.36-1.6.74-2.4 1.12Zm-11.79-20.68v13.48a.32.32 0 0 0 .21.33l11.58 5.49a1.45 1.45 0 0 0 .22.09 1.56 1.56 0 0 0 0-.2v-13.48c0-.22-.09-.29-.26-.37l-11.47-5.23Zm13.18 18.94.19-.08 11-5.22c.18-.08.19-.2.19-.36V854l-.29.13-3.11 1.52a.35.35 0 0 0-.23.36v6a.34.34 0 0 1-.21.35l-3.07 1.64-.27.12v-6.58l-.29.13-3.65 1.79a.38.38 0 0 0-.26.41v12.23Zm-11.86-19.49.09.07 10.88 4.91a.36.36 0 0 0 .25 0l3.8-1.81-.1-.08-10.51-4.93a.31.31 0 0 0-.25 0c-1.38.6-2.75 1.25-4.16 1.84Zm21.87-.1-.23-.12c-3.44-1.57-6.88-3.15-10.33-4.71a.53.53 0 0 0-.39 0c-.91.4-1.8.82-2.7 1.23l-.2.11 10.83 4.77a.28.28 0 0 0 .22 0Z" style="fill:#f7eec9"/></svg>