<svg id="f3ec33bf-e8d8-4af4-b6e0-1fd5472b8440" data-name="Layer 1" xmlns="http://www.w3.org/2000/svg" viewBox="0 0 1907.49 1108"><title>highlighter</title><polygon points="1907.49 709.29 685.6 709.29 240.87 1108 247.13 709.29 0 709.29 0 0 1907.49 0 1907.49 709.29" style="fill:#3953a4"/><rect x="499.16" y="85.07" width="849.71" height="186.55" style="fill:#b27cb6"/><rect x="93.27" y="271.62" width="939.91" height="189.62" style="fill:#b27cb6"/><path d="M305.16,173.13v3.14c-4.13.92-9.42,4.06-12.4,13.63l-29.63,95H260.6l-27.26-80.78-25,80.78h-2.53L172.62,186.3c-2.83-8.12-7.5-9.88-10.79-10v-3.14c4.21.31,10.79.46,16.76.46,6.9,0,13.17-.15,16.93-.46v3.14c-5.44.38-7.66,1.84-7.66,5.44a27.25,27.25,0,0,0,1.68,7.73l23,69.91,19-60.72-4.13-12.33c-2.68-8.12-6.43-9.88-9.27-10v-3.14c3.76.31,9.88.46,15.24.46,8.12,0,15.62-.15,20.06-.46v3.14c-7,.31-10.72.77-10.72,5.59a26.32,26.32,0,0,0,1.61,7.58l22.51,69.75,19.37-60.64c1.69-5.28,2.53-9.42,2.53-12.63,0-7.12-4.29-9.42-13.4-9.65v-3.14c6,.31,12.56.46,18.07.46A114.87,114.87,0,0,0,305.16,173.13Z" transform="translate(-44 -49)" style="fill:#f5e6f1"/><path d="M332.89,220c5.51-14.09,16-18.76,26.64-18.76,8,0,13,2.15,16.62,5.9,3.9,4.28,5.51,9.87,5.51,20.59v41.89c0,8.73,3.3,11.25,11.95,11.25v3.29c-3.68-.15-11.95-.61-18.84-.61s-14.32.46-17.61.61v-3.29c7.58,0,10.41-2.52,10.41-11.25V224.28c0-9.73-1.45-18.07-12.71-18.07-12.86,0-22,11.79-22,28.4v35c0,8.73,2.83,11.25,10.34,11.25v3.29c-3.3-.15-10.65-.61-17.54-.61s-15.24.46-18.84.61v-3.29c8.66,0,11.95-2.52,11.95-11.25V180.17c0-9.41-2.83-13.78-11.95-13.78V163.1c3.3.31,6.59.46,9.73.46,6.13,0,11.79-.61,16.31-2.22Z" transform="translate(-44 -49)" style="fill:#f5e6f1"/><path d="M454,207.13c5,5.05,6.28,10.87,6.28,22v43.57c0,5.05,1.22,7.43,4.82,7.43,2.83,0,4.9-1.46,7-3.3l1.77,2.68c-4.37,3.3-7.66,5.75-14.32,5.75-11,0-13.48-6.59-13.48-13.94-6.74,11.1-16.61,13.94-24.12,13.94-10.49,0-19.91-5.29-19.91-17.54,0-12.4,9.58-17.91,25.27-24.5,10.49-4.36,18.76-7,18.76-13.32v-9.73c0-13.17-6.43-15.77-14.55-15.77-5.36,0-11.94,1.07-15.54,5.59a9.67,9.67,0,0,1,7.35,9.57c0,5.36-3.6,8.5-9.19,8.5-5.36,0-8.5-4.06-8.5-9.72,0-4.6,3-8.2,7.35-11.18s11.95-5.9,22-5.9C443.76,201.23,450.35,203.53,454,207.13Zm-7.89,29.17c-1.68,2.53-5.13,4.13-15,9-6.89,3.29-15.23,7.81-15.23,19.91,0,9.41,5.36,13.78,12.55,13.78,6.28,0,12.41-3.29,17.69-11.87Z" transform="translate(-44 -49)" style="fill:#f5e6f1"/><path d="M527,203.53v3.14H503.8v60.72c0,9.87,3.75,13.32,10,13.32s10.87-4.52,14.16-16.77l3.07.77c-2.15,12.25-7.66,21.67-20.37,21.67-7.2,0-11.41-1.77-14.85-5.21-4.6-4.67-6.13-10.8-6.13-22V206.67H474.63v-3.14h15.08v-24c5.13-.15,10.18-.76,14.09-2.22v26.19Z" transform="translate(-44 -49)" style="fill:#f5e6f1"/><path d="M596.45,269.61c0,8.73,3.3,11.25,11.95,11.25v3.29c-3.6-.15-11.79-.61-19-.61s-15.39.46-19,.61v-3.29c8.65,0,11.94-2.52,11.94-11.25V220.53c0-9.42-2.83-13.86-11.94-13.86v-3.29c3.29.3,6.58.45,9.72.45,6.13,0,11.8-.61,16.31-2.14Zm1.92-95.41a10,10,0,1,1-10-10A10.11,10.11,0,0,1,598.37,174.2Z" transform="translate(-44 -49)" style="fill:#f5e6f1"/><path d="M668.74,165.78a12.4,12.4,0,0,1,4.9,9.72,8,8,0,0,1-8.35,8.27c-4.67,0-8.58-3.14-8.58-8.42a7.74,7.74,0,0,1,6.59-8c-.61-1.84-3.29-3.44-7.73-3.44a11.16,11.16,0,0,0-10.19,5.81c-2.45,4.37-2.83,11.95-2.83,29.79v4.06H659.4v3.14H642.55V268c0,10.18,6.28,12.86,16.62,12.86v3.29c-4.83-.15-14.4-.61-24.12-.61-7.2,0-14.86.46-18.53.61v-3.29c8.65,0,11.94-2.52,11.94-11.25V206.67H615.9v-3.14h12.56c0-18.45,2.07-27.11,8-34.15,4.06-4.9,11-7.89,18.61-7.89A21.91,21.91,0,0,1,668.74,165.78Z" transform="translate(-44 -49)" style="fill:#f5e6f1"/><path d="M753.89,203.53v3.14h-23.2v60.72c0,9.87,3.75,13.32,10,13.32s10.87-4.52,14.16-16.77l3.06.77c-2.14,12.25-7.65,21.67-20.36,21.67-7.2,0-11.41-1.77-14.86-5.21-4.59-4.67-6.12-10.8-6.12-22V206.67H701.51v-3.14H716.6v-24c5.13-.15,10.18-.76,14.09-2.22v26.19Z" transform="translate(-44 -49)" style="fill:#f5e6f1"/><path d="M785.59,220c5.51-14.09,16-18.76,26.64-18.76,8,0,13,2.15,16.62,5.9,3.9,4.28,5.51,9.87,5.51,20.59v41.89c0,8.73,3.3,11.25,11.95,11.25v3.29c-3.68-.15-11.95-.61-18.84-.61s-14.32.46-17.61.61v-3.29c7.58,0,10.41-2.52,10.41-11.25V224.28c0-9.73-1.45-18.07-12.71-18.07-12.86,0-22,11.79-22,28.4v35c0,8.73,2.83,11.25,10.34,11.25v3.29c-3.3-.15-10.65-.61-17.54-.61s-15.24.46-18.83.61v-3.29c8.65,0,11.94-2.52,11.94-11.25V180.17c0-9.41-2.83-13.78-11.94-13.78V163.1c3.29.31,6.58.46,9.72.46,6.13,0,11.79-.61,16.31-2.22Z" transform="translate(-44 -49)" style="fill:#f5e6f1"/><path d="M921.2,265.32a30.69,30.69,0,0,1-29.33,21.06c-22.74,0-36.06-16.62-36.06-40.66,0-27.57,13.93-44.49,35.45-44.49,18.38,0,29.32,10.8,29.32,34.46h-49a83.08,83.08,0,0,0-.54,10c0,21.51,12,34.07,24,34.07,9.42,0,17.61-4,23-15.7ZM871.35,232.7H905.5c.54-15.31-4.36-28.48-14.85-28.48C881.3,204.22,873,213,871.35,232.7Z" transform="translate(-44 -49)" style="fill:#f5e6f1"/><path d="M995.55,213.56c0,5.36-3.45,9.88-9,9.88-4.36,0-8.34-2.91-8.34-8.12,0-3.91,2.52-6.74,5.35-8.5a3.79,3.79,0,0,0-3.29-1.53c-13.17,0-21.82,17.84-21.82,29.48V268c0,10.18,6.28,12.86,16.62,12.86v3.29c-4.83-.15-14.4-.61-24.12-.61-7.2,0-14.93.46-18.53.61v-3.29c8.65,0,11.94-2.52,11.94-11.25V220.53c0-9.42-2.83-13.86-11.94-13.86v-3.29c3.29.3,6.58.45,9.72.45,6.13,0,11.79-.61,16.31-2.14v19.6c3.29-9.11,11.79-20.06,22.74-20.06C989.73,201.23,995.55,206.82,995.55,213.56Z" transform="translate(-44 -49)" style="fill:#f5e6f1"/><path d="M1067.14,265.32a30.67,30.67,0,0,1-29.32,21.06c-22.74,0-36.07-16.62-36.07-40.66,0-27.57,13.94-44.49,35.46-44.49,18.37,0,29.32,10.8,29.32,34.46h-49a83.08,83.08,0,0,0-.54,10c0,21.51,12,34.07,24,34.07,9.42,0,17.61-4,23-15.7ZM1017.3,232.7h34.15c.53-15.31-4.37-28.48-14.86-28.48C1027.25,204.22,1019,213,1017.3,232.7Z" transform="translate(-44 -49)" style="fill:#f5e6f1"/><path d="M1229.17,203.38v3.13c-3.9.46-7.5,2.84-10.18,11l-22.74,67.38h-2.68l-24.89-63.09-22.36,63.09h-2.6L1118,215.47c-3.29-8.34-6.89-8.8-9.11-8.8v-3.29a91.19,91.19,0,0,0,13.78,1c6.44,0,14.17-.54,20.37-1v3.29c-6,0-11-.08-11,5.74a22.76,22.76,0,0,0,1.61,7.43l15.7,45.1,22.51-62.18h3.6l24,63.48,14.7-45a24.85,24.85,0,0,0,1.46-7.12c0-5.13-3.53-7.12-11.64-7.66v-3.13c5.51.3,8.34.45,13.17.45S1225.88,203.68,1229.17,203.38Z" transform="translate(-44 -49)" style="fill:#f5e6f1"/><path d="M1286.76,207.13c5,5.05,6.28,10.87,6.28,22v43.57c0,5.05,1.22,7.43,4.82,7.43,2.83,0,4.9-1.46,7-3.3l1.77,2.68c-4.37,3.3-7.66,5.75-14.32,5.75-10.95,0-13.48-6.59-13.48-13.94-6.74,11.1-16.61,13.94-24.12,13.94-10.49,0-19.91-5.29-19.91-17.54,0-12.4,9.58-17.91,25.27-24.5,10.49-4.36,18.76-7,18.76-13.32v-9.73c0-13.17-6.43-15.77-14.55-15.77-5.36,0-11.94,1.07-15.54,5.59a9.68,9.68,0,0,1,7.35,9.57c0,5.36-3.6,8.5-9.19,8.5-5.36,0-8.5-4.06-8.5-9.72,0-4.6,3-8.2,7.35-11.18s12-5.9,22-5.9C1276.57,201.23,1283.16,203.53,1286.76,207.13Zm-7.89,29.17c-1.68,2.53-5.13,4.13-15,9-6.89,3.29-15.23,7.81-15.23,19.91,0,9.41,5.36,13.78,12.55,13.78,6.28,0,12.41-3.29,17.69-11.87Z" transform="translate(-44 -49)" style="fill:#f5e6f1"/><path d="M1356.36,207a4.9,4.9,0,0,0,2.76,1.31c1.84,0,3-2.23,3.52-6.9h3.6c-.46,5.75-.61,13.17-.61,26.65H1362c-1.91-11.64-7.2-23.81-21.36-23.81-7.35,0-12.87,4.21-12.87,12,0,9.42,9.42,13.78,20.14,20.75,11.87,7.66,21.44,14.55,21.44,27.41,0,14.39-12.56,22-26.8,22a25.45,25.45,0,0,1-18.83-6.44,2,2,0,0,0-1.46-.61c-1.38,0-2.6,2-3.22,5.9h-3.59c.45-6.74.61-15.47.61-31.32h3.6c2.06,17.53,6.12,29.33,21.82,29.33,6.28,0,13.93-3.76,13.93-14.93,0-9.12-7.5-14.09-17.76-20.53-11.41-7.19-21.59-13.32-21.59-26.33,0-13.94,10.79-20.22,23.2-20.22A27.53,27.53,0,0,1,1356.36,207Z" transform="translate(-44 -49)" style="fill:#f5e6f1"/><path d="M220.94,395.31c5,5.06,6.27,10.88,6.27,22v43.57c0,5.05,1.23,7.42,4.83,7.42,2.83,0,4.9-1.45,7-3.29l1.76,2.68c-4.36,3.29-7.65,5.74-14.31,5.74-10.95,0-13.48-6.58-13.48-13.93-6.74,11.1-16.62,13.93-24.12,13.93-10.49,0-19.91-5.28-19.91-17.53,0-12.41,9.57-17.92,25.27-24.5,10.49-4.37,18.76-7.05,18.76-13.33v-9.72c0-13.17-6.43-15.77-14.55-15.77-5.36,0-11.94,1.07-15.54,5.59a9.68,9.68,0,0,1,7.35,9.57c0,5.36-3.6,8.5-9.19,8.5-5.36,0-8.5-4.06-8.5-9.73,0-4.59,3-8.19,7.35-11.18s11.95-5.89,22-5.89C210.75,389.42,217.34,391.71,220.94,395.31Zm-7.89,29.18c-1.68,2.52-5.13,4.13-15,8.95-6.89,3.3-15.23,7.81-15.23,19.91,0,9.42,5.36,13.78,12.55,13.78,6.28,0,12.41-3.29,17.69-11.86Z" transform="translate(-44 -49)" style="fill:#f5e6f1"/><path d="M302.64,408.18c5.51-14.09,16-18.76,26.65-18.76,8,0,13,2.14,16.61,5.89,3.91,4.29,5.52,9.88,5.52,20.6v41.88c0,8.73,3.29,11.26,11.94,11.26v3.29c-3.67-.15-11.94-.61-18.84-.61s-14.31.46-17.61.61v-3.29c7.58,0,10.42-2.53,10.42-11.26V412.46c0-9.72-1.46-18.07-12.71-18.07-12.87,0-22,11.8-22,28.41v35c0,8.73,2.83,11.26,10.34,11.26v3.29c-3.29-.15-10.65-.61-17.54-.61s-15.23.46-18.83.61v-3.29c8.65,0,11.94-2.53,11.94-11.26V368.36c0-9.42-2.83-13.78-11.94-13.78v-3.29c3.29.3,6.58.46,9.72.46,6.13,0,11.79-.62,16.31-2.23Z" transform="translate(-44 -49)" style="fill:#f5e6f1"/><path d="M396.21,457.79c0,8.73,3.3,11.26,12,11.26v3.29c-3.6-.15-11.79-.61-19-.61s-15.39.46-19,.61v-3.29c8.65,0,11.94-2.53,11.94-11.26V408.71c0-9.42-2.83-13.86-11.94-13.86v-3.29c3.29.31,6.59.46,9.72.46,6.13,0,11.8-.61,16.31-2.14Zm1.92-95.4a10,10,0,1,1-10-10A10.12,10.12,0,0,1,398.13,362.39Z" transform="translate(-44 -49)" style="fill:#f5e6f1"/><path d="M471.64,455.11c9.87,0,18.37,3.6,18.37,14.55,0,13.94-13.47,32.16-43.87,32.16-15.85,0-31.55-4.82-31.55-14.4,0-7.65,9.73-14.62,19.68-19.14h-.54c-5.51,0-15.69-1.45-15.69-11.94,0-6.74,4.67-13.1,19.6-19.83-8.81-3.45-14.55-10.65-14.55-22.36,0-17.23,12.48-24.73,28.94-24.73a42.36,42.36,0,0,1,11.11,1.38c1.07-5.9,3.14-10.8,5.51-13.94a13.4,13.4,0,0,1,10.72-5.21c5.44,0,8.27,3.6,8.27,8.2a7.32,7.32,0,0,1-7.5,7.5c-5.67,0-7.36-3.75-8.35-9.88-1.53,1.38-2.91,3.91-4.21,7.66a41.46,41.46,0,0,0-1.61,6.51c9.11,3.37,15.08,10.64,15.08,22.51,0,17.23-12.55,24.81-29,24.81a41.76,41.76,0,0,1-11.56-1.46c-7,3.75-13.17,7.58-13.17,12.41,0,3.44,2.15,5.2,7.51,5.2Zm7.58,21.9c0-5.74-2.38-8.73-12-8.73H438.1c-6.89,3.52-10.64,10-10.64,15.85,0,10.65,12.4,15,22.89,15C463.52,499.14,479.22,492.1,479.22,477Zm-41.43-62.86c0,16.77,5.52,22,14.24,22s14.32-5.2,14.32-22-5.51-22-14.32-22S437.79,397.38,437.79,414.15Z" transform="translate(-44 -49)" style="fill:#f5e6f1"/><path d="M522,408.18c5.52-14.09,16-18.76,26.65-18.76,8,0,13,2.14,16.61,5.89,3.91,4.29,5.52,9.88,5.52,20.6v41.88c0,8.73,3.29,11.26,11.94,11.26v3.29c-3.67-.15-11.94-.61-18.83-.61s-14.32.46-17.61.61v-3.29c7.58,0,10.41-2.53,10.41-11.26V412.46c0-9.72-1.46-18.07-12.71-18.07-12.87,0-22,11.8-22,28.41v35c0,8.73,2.84,11.26,10.34,11.26v3.29c-3.29-.15-10.64-.61-17.53-.61s-15.24.46-18.84.61v-3.29c8.65,0,11.94-2.53,11.94-11.26V368.36c0-9.42-2.83-13.78-11.94-13.78v-3.29c3.29.3,6.58.46,9.72.46,6.13,0,11.8-.62,16.31-2.23Z" transform="translate(-44 -49)" style="fill:#f5e6f1"/><path d="M614.52,457.79c0,8.73,3.3,11.26,12,11.26v3.29c-3.6-.15-11.79-.61-19-.61s-15.39.46-19,.61v-3.29c8.65,0,11.94-2.53,11.94-11.26V368.21c0-9.42-2.83-13.78-11.94-13.78v-3.3c3.29.31,6.58.46,9.72.46,6.13,0,11.8-.61,16.31-2.22Z" transform="translate(-44 -49)" style="fill:#f5e6f1"/><path d="M660.47,457.79c0,8.73,3.29,11.26,11.94,11.26v3.29c-3.6-.15-11.79-.61-19-.61s-15.39.46-19,.61v-3.29c8.66,0,12-2.53,12-11.26V408.71c0-9.42-2.83-13.86-12-13.86v-3.29c3.3.31,6.59.46,9.73.46,6.12,0,11.79-.61,16.31-2.14Zm1.91-95.4a10,10,0,1,1-10-10A10.11,10.11,0,0,1,662.38,362.39Z" transform="translate(-44 -49)" style="fill:#f5e6f1"/><path d="M735.89,455.11c9.88,0,18.38,3.6,18.38,14.55,0,13.94-13.48,32.16-43.88,32.16-15.85,0-31.54-4.82-31.54-14.4,0-7.65,9.72-14.62,19.67-19.14H698c-5.51,0-15.7-1.45-15.7-11.94,0-6.74,4.67-13.1,19.6-19.83-8.8-3.45-14.54-10.65-14.54-22.36,0-17.23,12.48-24.73,28.94-24.73a42.34,42.34,0,0,1,11.1,1.38c1.07-5.9,3.14-10.8,5.51-13.94a13.4,13.4,0,0,1,10.72-5.21c5.44,0,8.27,3.6,8.27,8.2a7.32,7.32,0,0,1-7.5,7.5c-5.67,0-7.35-3.75-8.35-9.88-1.53,1.38-2.91,3.91-4.21,7.66a43.81,43.81,0,0,0-1.61,6.51c9.12,3.37,15.09,10.64,15.09,22.51,0,17.23-12.56,24.81-29,24.81a41.71,41.71,0,0,1-11.56-1.46c-7.05,3.75-13.17,7.58-13.17,12.41,0,3.44,2.14,5.2,7.5,5.2Zm7.58,21.9c0-5.74-2.37-8.73-11.94-8.73H702.35c-6.89,3.52-10.64,10-10.64,15.85,0,10.65,12.4,15,22.89,15C727.77,499.14,743.47,492.1,743.47,477Zm-41.42-62.86c0,16.77,5.51,22,14.24,22s14.32-5.2,14.32-22-5.52-22-14.32-22S702.05,397.38,702.05,414.15Z" transform="translate(-44 -49)" style="fill:#f5e6f1"/><path d="M786.28,408.18c5.51-14.09,16-18.76,26.64-18.76,8,0,13,2.14,16.62,5.89,3.9,4.29,5.51,9.88,5.51,20.6v41.88c0,8.73,3.29,11.26,12,11.26v3.29c-3.68-.15-12-.61-18.84-.61s-14.32.46-17.61.61v-3.29c7.58,0,10.41-2.53,10.41-11.26V412.46c0-9.72-1.45-18.07-12.71-18.07-12.86,0-22,11.8-22,28.41v35c0,8.73,2.83,11.26,10.33,11.26v3.29c-3.29-.15-10.64-.61-17.53-.61s-15.24.46-18.84.61v-3.29c8.66,0,12-2.53,12-11.26V368.36c0-9.42-2.83-13.78-12-13.78v-3.29c3.3.3,6.59.46,9.73.46,6.12,0,11.79-.62,16.31-2.23Z" transform="translate(-44 -49)" style="fill:#f5e6f1"/><path d="M902.28,391.71v3.14h-23.2v60.72c0,9.88,3.76,13.32,10,13.32s10.88-4.51,14.17-16.76l3.06.76c-2.14,12.25-7.65,21.67-20.37,21.67-7.19,0-11.4-1.76-14.85-5.21-4.59-4.67-6.12-10.79-6.12-22V394.85H849.91v-3.14H865v-24c5.12-.16,10.18-.77,14.08-2.22v26.18Z" transform="translate(-44 -49)" style="fill:#f5e6f1"/><path d="M977.4,453.5a30.67,30.67,0,0,1-29.32,21.06C925.33,474.56,912,458,912,433.9c0-27.56,13.94-44.48,35.45-44.48,18.38,0,29.33,10.79,29.33,34.45h-49a83.39,83.39,0,0,0-.53,10c0,21.52,11.94,34.08,24,34.08,9.42,0,17.62-4,23-15.7Zm-49.85-32.61H961.7c.54-15.32-4.36-28.49-14.85-28.49C937.51,392.4,929.24,401.13,927.55,420.89Z" transform="translate(-44 -49)" style="fill:#f5e6f1"/><path d="M1051.75,401.74c0,5.36-3.44,9.88-9,9.88-4.36,0-8.34-2.91-8.34-8.11,0-3.91,2.53-6.74,5.36-8.5a3.79,3.79,0,0,0-3.29-1.53c-13.17,0-21.83,17.84-21.83,29.47v33.24c0,10.18,6.28,12.86,16.62,12.86v3.29c-4.82-.15-14.39-.61-24.12-.61-7.2,0-14.93.46-18.53.61v-3.29c8.65,0,12-2.53,12-11.26V408.71c0-9.42-2.84-13.86-12-13.86v-3.29c3.29.31,6.59.46,9.73.46,6.12,0,11.79-.61,16.3-2.14v19.6c3.3-9.11,11.8-20.06,22.75-20.06C1045.93,389.42,1051.75,395,1051.75,401.74Z" transform="translate(-44 -49)" style="fill:#f5e6f1"/><path d="M1146.55,354a12.39,12.39,0,0,1,4.9,9.72,8,8,0,0,1-8.34,8.27c-4.67,0-8.58-3.14-8.58-8.42a7.73,7.73,0,0,1,6.59-8c-.62-1.84-3.3-3.45-7.74-3.45a11.15,11.15,0,0,0-10.18,5.82c-2.45,4.37-2.83,11.95-2.83,29.79v4h16.84v3.14h-16.84v61.34c0,10.18,6.27,12.86,16.61,12.86v3.29c-4.82-.15-14.39-.61-24.12-.61-7.19,0-14.85.46-18.53.61v-3.29c8.66,0,12-2.53,12-11.26V394.85h-12.56v-3.14h12.56c0-18.45,2.06-27.1,8-34.15,4.06-4.9,11-7.88,18.6-7.88A21.89,21.89,0,0,1,1146.55,354Z" transform="translate(-44 -49)" style="fill:#f5e6f1"/><path d="M1217.61,432.07c0,30.09-15.69,42.49-35.6,42.49s-35.61-12.4-35.61-42.49,15.7-42.65,35.61-42.65S1217.61,401.9,1217.61,432.07Zm-56,0c0,28,8.5,39.35,20.37,39.35s20.36-11.33,20.36-39.35S1194,392.56,1182,392.56,1161.64,404,1161.64,432.07Z" transform="translate(-44 -49)" style="fill:#f5e6f1"/><path d="M1292.58,401.74c0,5.36-3.45,9.88-9,9.88-4.37,0-8.35-2.91-8.35-8.11,0-3.91,2.53-6.74,5.36-8.5a3.77,3.77,0,0,0-3.29-1.53c-13.17,0-21.82,17.84-21.82,29.47v33.24c0,10.18,6.28,12.86,16.61,12.86v3.29c-4.82-.15-14.39-.61-24.12-.61-7.19,0-14.93.46-18.53.61v-3.29c8.66,0,12-2.53,12-11.26V408.71c0-9.42-2.83-13.86-12-13.86v-3.29c3.3.31,6.59.46,9.73.46,6.12,0,11.79-.61,16.31-2.14v19.6c3.29-9.11,11.79-20.06,22.74-20.06C1286.76,389.42,1292.58,395,1292.58,401.74Z" transform="translate(-44 -49)" style="fill:#f5e6f1"/><path d="M1380,395.16a4.94,4.94,0,0,0,2.76,1.3c1.84,0,3-2.22,3.52-6.89h3.6c-.46,5.74-.61,13.17-.61,26.65h-3.6c-1.91-11.64-7.2-23.82-21.36-23.82-7.35,0-12.87,4.21-12.87,12,0,9.42,9.42,13.79,20.14,20.75,11.87,7.66,21.44,14.55,21.44,27.42,0,14.39-12.56,22-26.8,22a32.5,32.5,0,0,1-12.4-2.22,33,33,0,0,1-6.43-4.21,2,2,0,0,0-1.46-.61c-1.38,0-2.6,2-3.21,5.89h-3.6c.46-6.74.61-15.46.61-31.31h3.6c2.07,17.53,6.12,29.32,21.82,29.32,6.28,0,13.94-3.75,13.94-14.93,0-9.11-7.51-14.09-17.77-20.52-11.41-7.2-21.59-13.32-21.59-26.34,0-13.93,10.79-20.21,23.2-20.21A27.47,27.47,0,0,1,1380,395.16Z" transform="translate(-44 -49)" style="fill:#f5e6f1"/><path d="M1484.16,428.31c0,22.67-10.41,46.25-35.91,46.25-8.19,0-14.85-3.6-18.38-8.5v20.06c0,9,5.67,11.34,15.09,11.34v3.29c-4.6-.16-13.48-.69-22.59-.69-6.58,0-13.63.53-16.92.69v-3.29c7.5,0,10.34-2.23,10.34-9.73v-79c0-9.42-2.84-13.86-12-13.86v-3.29c3.29.31,6.59.46,9.73.46,6.12,0,11.79-.61,16.3-2.14v16.54c4.75-10.88,14-17,25.12-17C1471.45,389.42,1484.16,403.05,1484.16,428.31Zm-15.24,2.15c0-24.89-6.27-36.37-18.22-36.37-9.11,0-17.46,6.58-20.83,19.83v46.94c2.91,5.81,8.35,10.1,16.62,10.1C1463.87,471,1468.92,452.74,1468.92,430.46Z" transform="translate(-44 -49)" style="fill:#f5e6f1"/><path d="M1570.08,432.07c0,30.09-15.7,42.49-35.61,42.49s-35.6-12.4-35.6-42.49,15.69-42.65,35.6-42.65S1570.08,401.9,1570.08,432.07Zm-56,0c0,28,8.49,39.35,20.36,39.35s20.37-11.33,20.37-39.35-8.42-39.51-20.37-39.51S1514.11,404,1514.11,432.07Z" transform="translate(-44 -49)" style="fill:#f5e6f1"/><path d="M1650.1,460.86c3.6,4.9,6.28,7.58,11,8.19v3.29c-2.38-.15-8-.61-12.72-.61-6.58,0-14.08.46-17.38.61v-3.29c3,0,4.83-1.23,4.83-3a4.24,4.24,0,0,0-.92-2.37l-18-26.34c-3.83-5.36-6.28-6.66-11.8-6.89v27.33c0,8.73,2.84,11.26,10.34,11.26v3.29c-3.29-.15-10.8-.61-17.38-.61-7.2,0-15.39.46-19,.61v-3.29c8.65,0,12-2.53,12-11.26V368.21c0-9.42-2.84-13.78-12-13.78v-3.3c3.29.31,6.59.46,9.72.46,6.13,0,11.8-.61,16.31-2.22v77.87c6.21-.84,9.88-2.75,13.48-6.51l11.64-12c3.52-3.67,5-6.51,5-8.65,0-3.83-5-5.36-11.57-5.36v-3.14c5.44.31,13.17.61,17.69.61,5.21,0,10.49-.3,13.63-.61v3.14c-5.13.46-9.72,2.83-14.09,7.35l-19.06,20.06Z" transform="translate(-44 -49)" style="fill:#f5e6f1"/><path d="M1730.34,453.5A30.67,30.67,0,0,1,1701,474.56c-22.74,0-36.06-16.61-36.06-40.66,0-27.56,13.93-44.48,35.45-44.48,18.37,0,29.32,10.79,29.32,34.45h-49a83.31,83.31,0,0,0-.54,10c0,21.52,12,34.08,24,34.08,9.42,0,17.61-4,23-15.7Zm-49.84-32.61h34.15c.53-15.32-4.37-28.49-14.86-28.49C1690.45,392.4,1682.18,401.13,1680.5,420.89Z" transform="translate(-44 -49)" style="fill:#f5e6f1"/><path d="M1811,395.31c3.9,4.29,5.43,9.88,5.43,20.6v41.88c0,8.73,3.3,11.26,11.95,11.26v3.29c-3.6-.15-11.95-.61-18.84-.61s-14.24.46-17.53.61v-3.29c7.5,0,10.33-2.53,10.33-11.26V412.46c0-9.72-1.37-18.07-12.71-18.07-13.17,0-22,12.56-22,28.56v34.84c0,8.73,2.83,11.26,10.41,11.26v3.29c-3.29-.15-10.72-.61-17.61-.61s-15.24.46-18.83.61v-3.29c8.65,0,11.94-2.53,11.94-11.26V408.71c0-9.42-2.83-13.86-11.94-13.86v-3.29c3.29.31,6.58.46,9.72.46,6.13,0,11.79-.61,16.31-2.14v18.45c5.51-14.09,16-18.91,26.72-18.91C1802.32,389.42,1807.38,391.56,1811,395.31Z" transform="translate(-44 -49)" style="fill:#f5e6f1"/><path d="M283.19,579.75v3.14c-3.91.46-7.51,2.83-10.19,11l-22.74,67.38h-2.68L222.7,598.2l-22.36,63.09h-2.6L172,591.84c-3.29-8.34-6.89-8.8-9.11-8.8v-3.29a91.19,91.19,0,0,0,13.78,1c6.43,0,14.17-.53,20.37-1V583c-6,0-11-.08-11,5.74a22.76,22.76,0,0,0,1.61,7.43l15.69,45.1,22.51-62.18h3.6l24,63.48,14.71-45a25.13,25.13,0,0,0,1.45-7.12c0-5.13-3.52-7.12-11.64-7.65v-3.14c5.51.3,8.35.46,13.17.46S279.89,580.05,283.19,579.75Z" transform="translate(-44 -49)" style="fill:#f5e6f1"/><path d="M360.83,620.25c0,30.09-15.69,42.5-35.6,42.5s-35.6-12.41-35.6-42.5,15.69-42.65,35.6-42.65S360.83,590.08,360.83,620.25Zm-56,0c0,28,8.5,39.36,20.37,39.36s20.37-11.33,20.37-39.36-8.43-39.51-20.37-39.51S304.86,592.15,304.86,620.25Z" transform="translate(-44 -49)" style="fill:#f5e6f1"/><path d="M435.8,589.93c0,5.36-3.45,9.88-9,9.88-4.36,0-8.34-2.91-8.34-8.12,0-3.9,2.52-6.74,5.36-8.5a3.82,3.82,0,0,0-3.3-1.53c-13.17,0-21.82,17.84-21.82,29.48v33.23c0,10.18,6.28,12.86,16.62,12.86v3.3c-4.83-.16-14.4-.62-24.12-.62-7.2,0-14.93.46-18.53.62v-3.3c8.65,0,11.94-2.52,11.94-11.25V596.9c0-9.42-2.83-13.86-11.94-13.86v-3.29c3.29.3,6.58.46,9.72.46,6.13,0,11.79-.62,16.31-2.15v19.6c3.29-9.11,11.79-20.06,22.74-20.06C430,577.6,435.8,583.19,435.8,589.93Z" transform="translate(-44 -49)" style="fill:#f5e6f1"/><path d="M510.69,643.45c0,9.42,2.83,13.78,11.94,13.78v3.3c-3.29-.31-6.58-.46-9.72-.46-6.13,0-11.79.61-16.31,2.22V648.35c-3.83,9.34-11.41,14.4-22.28,14.4-19.6,0-32.16-14-32-42.5-.15-28.56,16.62-42.65,35.45-42.65,7.43,0,14.78,2.61,18.84,9.27V556.39c0-9.41-2.83-13.78-11.94-13.78v-3.29c3.29.3,6.58.46,9.72.46,6.12,0,11.79-.61,16.31-2.22Zm-14.09-3.52V593.3c-3.06-8.5-9.42-12.1-17.53-12.1-12.41,0-21.67,12.56-21.52,39C457.4,645.6,464.9,658,478.84,658,486.72,658,494.15,651.8,496.6,639.93Z" transform="translate(-44 -49)" style="fill:#f5e6f1"/><path d="M592.55,566.12c0,17.76-14.25,29.48-35.23,34.84v22.89h-3.13V599.5c20.82-7.66,24.42-18.14,24.42-30.4,0-19.75-9-28.1-22-28.1-5,0-11.72,1.15-15.32,5.67a7.73,7.73,0,0,1,6.59,8c0,5.28-3.91,8.42-8.66,8.42a8,8,0,0,1-8.27-8.27c0-4.44,2.91-8.34,7.36-11.33s11.25-5.67,21.28-5.67C579.22,537.86,592.55,548.58,592.55,566.12Zm-26.65,86.6a10,10,0,1,1-10-10A10.12,10.12,0,0,1,565.9,652.72Z" transform="translate(-44 -49)" style="fill:#f5e6f1"/></svg>