<svg data-name="Layer 1" xmlns="http://www.w3.org/2000/svg" viewBox="0 0 900 200"><path style="fill:#f7eec9" d="M0 0h900v200H0z"/><path style="fill:#07448e" d="M205.8 30h7.1v139.2h-7.1zM29.9 30h139.2v139.2H29.9z"/><path d="M104.2 57.3 97.6 71a24.37 24.37 0 0 1 2.7-.1 28.49 28.49 0 0 1 28.5 28.5 28.77 28.77 0 0 1-2.8 12.3l.7-.8 6 15.8 14.1 4.8a56.5 56.5 0 0 0-46.5-88.6 27.15 27.15 0 0 0-2.8.1Z" style="fill:#f9c7e4"/><path d="m61.4 120.6 15.1-5.4a28.51 28.51 0 0 1 8-39.5 28.85 28.85 0 0 1 7.3-3.5l7.1-14.9-6.4-13.9a56.56 56.56 0 0 0-36.4 91.4Z" style="fill:#f9c7e4"/><path d="m129.2 130.4-5.6-14.6a28.41 28.41 0 0 1-39.7 6.9 31 31 0 0 1-4.3-3.7L65 124.2l-5.3 14.6a56.53 56.53 0 0 0 79.9 1.3 60.16 60.16 0 0 0 4.2-4.6Z" style="fill:#f9c7e4"/><path d="M247.6 28h11.5c4.4 0 7.8 1.2 10.1 3.7s3.5 5.9 3.5 10.3v25.3c0 5.1-1.2 8.8-3.7 11.2s-6 3.6-10.6 3.6h-10.8Zm7.8 46.8h3.6c2.2 0 3.7-.5 4.6-1.6a8 8 0 0 0 1.4-5.1V42a7.73 7.73 0 0 0-1.3-4.9c-.9-1.2-2.4-1.7-4.7-1.7h-3.6Zm24.2-34a15 15 0 0 1 1.1-5.8 11.8 11.8 0 0 1 3-4.1 13.18 13.18 0 0 1 8.9-3.3 15.46 15.46 0 0 1 4.7.8 15.07 15.07 0 0 1 4.2 2.5 14 14 0 0 1 3 4.1 13.35 13.35 0 0 1 1.1 5.8v28.6a14.63 14.63 0 0 1-1.1 5.8 14 14 0 0 1-3 4.1 13.18 13.18 0 0 1-8.9 3.3 15.46 15.46 0 0 1-4.7-.8 15.07 15.07 0 0 1-4.2-2.5 14 14 0 0 1-3-4.1 13.07 13.07 0 0 1-1.1-5.8Zm7.7 28.5c0 1.9.5 3.3 1.6 4.1a5.41 5.41 0 0 0 3.7 1.3 5.58 5.58 0 0 0 3.7-1.3 5.33 5.33 0 0 0 1.6-4.1V40.8c0-1.9-.5-3.3-1.6-4.1a5.41 5.41 0 0 0-3.7-1.3 5.58 5.58 0 0 0-3.7 1.3 5.33 5.33 0 0 0-1.6 4.1Zm49.7.7a11.17 11.17 0 0 1-1 4.8 13.13 13.13 0 0 1-2.6 4 11.86 11.86 0 0 1-3.9 2.7 11.17 11.17 0 0 1-4.8 1 17.4 17.4 0 0 1-4.5-.6 10.67 10.67 0 0 1-4.1-2.1 11.93 11.93 0 0 1-3-3.9 14 14 0 0 1-1.2-6.2V40a13 13 0 0 1 .9-4.9 13.13 13.13 0 0 1 2.6-4 11.09 11.09 0 0 1 4-2.6 14 14 0 0 1 5.1-1 11.31 11.31 0 0 1 4.9 1 11.79 11.79 0 0 1 4 2.7 11.51 11.51 0 0 1 2.6 4.1 14.58 14.58 0 0 1 1 5.2v3h-7.8v-2.6a6.39 6.39 0 0 0-1.3-4 4.27 4.27 0 0 0-3.5-1.7c-1.9 0-3.2.6-3.8 1.8a10 10 0 0 0-1 4.5v27.7a7.21 7.21 0 0 0 1 4c.7 1.1 1.9 1.6 3.7 1.6a4.53 4.53 0 0 0 1.6-.3 5.07 5.07 0 0 0 1.6-.9 4.34 4.34 0 0 0 1.2-1.7 6.84 6.84 0 0 0 .5-2.7v-2.7h7.8Zm-84.3 56.5h-9v-7.3h25.7v7.3h-9v46.8h-7.8v-46.8h.1zm18.8 5.5a15 15 0 0 1 1.1-5.8 11.8 11.8 0 0 1 3-4.1 13.18 13.18 0 0 1 8.9-3.3 15.46 15.46 0 0 1 4.7.8 15.07 15.07 0 0 1 4.2 2.5 14 14 0 0 1 3 4.1 13.35 13.35 0 0 1 1.1 5.8v28.6a14.63 14.63 0 0 1-1.1 5.8 14 14 0 0 1-3 4.1 13.18 13.18 0 0 1-8.9 3.3 15.46 15.46 0 0 1-4.7-.8 15.07 15.07 0 0 1-4.2-2.5 14 14 0 0 1-3-4.1 13.07 13.07 0 0 1-1.1-5.8Zm7.8 28.5c0 1.9.5 3.3 1.6 4.1a5.41 5.41 0 0 0 3.7 1.3 5.58 5.58 0 0 0 3.7-1.3 5.33 5.33 0 0 0 1.6-4.1V132c0-1.9-.5-3.3-1.6-4.1a5.41 5.41 0 0 0-3.7-1.3 5.58 5.58 0 0 0-3.7 1.3 5.33 5.33 0 0 0-1.6 4.1Zm24.6-28.5a15 15 0 0 1 1.1-5.8 11.8 11.8 0 0 1 3-4.1 13.18 13.18 0 0 1 8.9-3.3 15.46 15.46 0 0 1 4.7.8 15.07 15.07 0 0 1 4.2 2.5 14 14 0 0 1 3 4.1 13.35 13.35 0 0 1 1.1 5.8v28.6a14.63 14.63 0 0 1-1.1 5.8 14 14 0 0 1-3 4.1 13.18 13.18 0 0 1-8.9 3.3 15.46 15.46 0 0 1-4.7-.8 15.07 15.07 0 0 1-4.2-2.5 14 14 0 0 1-3-4.1 13.07 13.07 0 0 1-1.1-5.8Zm7.7 28.5c0 1.9.5 3.3 1.6 4.1a5.41 5.41 0 0 0 3.7 1.3 5.58 5.58 0 0 0 3.7-1.3 5.33 5.33 0 0 0 1.6-4.1V132c0-1.9-.5-3.3-1.6-4.1a5.41 5.41 0 0 0-3.7-1.3 5.58 5.58 0 0 0-3.7 1.3 5.33 5.33 0 0 0-1.6 4.1Zm25.1-41.3h7.8v46.4h15.4v7.8h-23.1v-54.2h-.1zm28.4 0h7.8v54.1h-7.8zm14.9 0h7.4l11.7 32.6h.2v-32.6h7.8v54.1h-7.3l-11.9-32.5h-.2v32.5H380v-54.1zm33.6 12.8a15 15 0 0 1 1.1-5.8 11.8 11.8 0 0 1 3-4.1 13.18 13.18 0 0 1 8.9-3.3 15.46 15.46 0 0 1 4.7.8 15.07 15.07 0 0 1 4.2 2.5 14 14 0 0 1 3 4.1 13.35 13.35 0 0 1 1.1 5.8v2.7h-7.8V132c0-1.9-.5-3.3-1.6-4.1a5.41 5.41 0 0 0-3.7-1.3 5.58 5.58 0 0 0-3.7 1.3 5.33 5.33 0 0 0-1.6 4.1v28.6c0 1.9.5 3.3 1.6 4.1a5.41 5.41 0 0 0 3.7 1.3 5.58 5.58 0 0 0 3.7-1.3 5.33 5.33 0 0 0 1.6-4.1v-10.2h-6.2v-6.8h13.9v17a14.63 14.63 0 0 1-1.1 5.8 14 14 0 0 1-3 4.1 13.18 13.18 0 0 1-8.9 3.3 15.46 15.46 0 0 1-4.7-.8 15.07 15.07 0 0 1-4.2-2.5 14 14 0 0 1-3-4.1 13.07 13.07 0 0 1-1.1-5.8V132Z" style="fill:#07448e"/></svg>