<svg data-name="Layer 1" xmlns="http://www.w3.org/2000/svg" viewBox="0 0 900 200"><path style="fill:#f7eec9" d="M0 0h900v200H0z"/><path style="fill:#07448e" d="M205.8 30h7.1v139.2h-7.1zM29.9 30h139.2v139.2H29.9z"/><path d="M104.2 57.3 97.6 71a24.37 24.37 0 0 1 2.7-.1 28.49 28.49 0 0 1 28.5 28.5 28.77 28.77 0 0 1-2.8 12.3l.7-.8 6 15.8 14.1 4.8a56.5 56.5 0 0 0-46.5-88.6 27.15 27.15 0 0 0-2.8.1Z" style="fill:#f9c7e4"/><path d="m61.4 120.6 15.1-5.4a28.51 28.51 0 0 1 8-39.5 28.85 28.85 0 0 1 7.3-3.5l7.1-14.9-6.4-13.9a56.56 56.56 0 0 0-36.4 91.4Z" style="fill:#f9c7e4"/><path d="m129.2 130.4-5.6-14.6a28.41 28.41 0 0 1-39.7 6.9 31 31 0 0 1-4.3-3.7L65 124.2l-5.3 14.6a56.53 56.53 0 0 0 79.9 1.3 60.16 60.16 0 0 0 4.2-4.6Z" style="fill:#f9c7e4"/><path d="M272.7 43.6H265v-1.7a7.78 7.78 0 0 0-1.3-4.6 4.61 4.61 0 0 0-4.2-1.9 5 5 0 0 0-2.6.6 4.1 4.1 0 0 0-1.6 1.6 7.16 7.16 0 0 0-.8 2.2 11 11 0 0 0-.2 2.6 21 21 0 0 0 .1 2.7 5.31 5.31 0 0 0 .6 1.9 4.27 4.27 0 0 0 1.3 1.4 13.32 13.32 0 0 0 2.4 1.2l5.9 2.4a16.5 16.5 0 0 1 4.2 2.3 9.26 9.26 0 0 1 2.5 3.1 13.07 13.07 0 0 1 1.2 4.1 41.06 41.06 0 0 1 .3 5.3 24.81 24.81 0 0 1-.7 6.3 14.32 14.32 0 0 1-2.2 5 10.35 10.35 0 0 1-4.1 3.3 14.75 14.75 0 0 1-6.3 1.2 12.69 12.69 0 0 1-5.2-1 15.13 15.13 0 0 1-4.2-2.7 12 12 0 0 1-2.8-4.1 12.55 12.55 0 0 1-1-5.1v-2.9h7.8v2.4a5.85 5.85 0 0 0 1.3 3.8c.8 1.1 2.2 1.7 4.2 1.7a6.84 6.84 0 0 0 3.1-.6 4.36 4.36 0 0 0 1.7-1.6 6.12 6.12 0 0 0 .7-2.5 32.51 32.51 0 0 0 .2-3.3 31.58 31.58 0 0 0-.2-3.5 6.39 6.39 0 0 0-.6-2.2 3.76 3.76 0 0 0-1.4-1.4 16.66 16.66 0 0 0-2.3-1.1l-5.5-2.3c-3.3-1.4-5.6-3.2-6.7-5.4a19.49 19.49 0 0 1-1.7-8.5 22 22 0 0 1 .8-5.8 14.08 14.08 0 0 1 2.5-4.7 13 13 0 0 1 4.1-3.2 13.51 13.51 0 0 1 5.9-1.2 13.22 13.22 0 0 1 5.3 1.1 12 12 0 0 1 4.1 2.8 14 14 0 0 1 2.6 3.9 11.17 11.17 0 0 1 .9 4.4v4ZM287.1 28h6.5l12.1 54.1h-7.8l-2.3-11.6H285l-2.3 11.6H275Zm3.3 15.6h-.2l-3.8 19.6h7.8Zm19-15.6h23.1v7.3h-15.4v16.4h13.4V59h-13.4v23.1h-7.8V28h.1zm28.2 0h23.1v7.3h-15.4v15.9h13.4v7.3h-13.4v15.9h15.4v7.8h-23.1V28zm33.2 7.3h-9V28h25.7v7.3h-9v46.8h-7.8V35.3h.1zm27.3 23.9L387.5 28h8.2l6.2 21.5h.2l6.2-21.5h8.2l-10.6 31.2v22.9h-7.8V59.2zm-125.8 102a11.17 11.17 0 0 1-1 4.8 13.13 13.13 0 0 1-2.6 4 11.86 11.86 0 0 1-3.9 2.7 11.17 11.17 0 0 1-4.8 1 17.4 17.4 0 0 1-4.5-.6 10.67 10.67 0 0 1-4.1-2.1 11.93 11.93 0 0 1-3-3.9 14 14 0 0 1-1.2-6.2v-29.8a13 13 0 0 1 .9-4.9 13.13 13.13 0 0 1 2.6-4 11.09 11.09 0 0 1 4-2.6 14 14 0 0 1 5.1-1 11.31 11.31 0 0 1 4.9 1 11.79 11.79 0 0 1 4 2.7 11.51 11.51 0 0 1 2.6 4.1 14.58 14.58 0 0 1 1 5.2v3h-7.8V132a6.39 6.39 0 0 0-1.3-4 4.27 4.27 0 0 0-3.5-1.7c-1.9 0-3.2.6-3.8 1.8a10 10 0 0 0-1 4.5v27.7a7.21 7.21 0 0 0 1 4c.7 1.1 1.9 1.6 3.7 1.6a4.53 4.53 0 0 0 1.6-.3 5.07 5.07 0 0 0 1.6-.9 4.34 4.34 0 0 0 1.2-1.7 6.84 6.84 0 0 0 .5-2.7v-2.7h7.8Zm6.3-42h7.8v23.2h9.6v-23.2h7.8v54.1H296v-24.1h-9.6v24.1h-7.8v-54.1zm32.4 0h23.1v7.3h-15.4v15.9h13.4v7.3h-13.4v15.9h15.4v7.8H311v-54.2zm52.7 42a11.17 11.17 0 0 1-1 4.8 13.13 13.13 0 0 1-2.6 4 11.86 11.86 0 0 1-3.9 2.7 11.17 11.17 0 0 1-4.8 1 17.4 17.4 0 0 1-4.5-.6 10.67 10.67 0 0 1-4.1-2.1 11.93 11.93 0 0 1-3-3.9 14 14 0 0 1-1.2-6.2v-29.8a13 13 0 0 1 .9-4.9 13.13 13.13 0 0 1 2.6-4 11.09 11.09 0 0 1 4-2.6 14 14 0 0 1 5.1-1 11.31 11.31 0 0 1 4.9 1 11.79 11.79 0 0 1 4 2.7 11.51 11.51 0 0 1 2.6 4.1 14.58 14.58 0 0 1 1 5.2v3h-7.8V132a6.39 6.39 0 0 0-1.3-4 4.27 4.27 0 0 0-3.5-1.7c-1.9 0-3.2.6-3.8 1.8a10 10 0 0 0-1 4.5v27.7a7.21 7.21 0 0 0 1 4c.7 1.1 1.9 1.6 3.7 1.6a4.53 4.53 0 0 0 1.6-.3 5.07 5.07 0 0 0 1.6-.9 4.34 4.34 0 0 0 1.2-1.7 6.84 6.84 0 0 0 .5-2.7v-2.7h7.8Zm6.3-42h7.8v24.7h.2l11.3-24.7h7.8l-10.6 21.7 12.5 32.5h-8.2l-8.8-24-4.2 7.8v16.2H370v-54.2zm57.5 15.6h-7.8V133a7.78 7.78 0 0 0-1.3-4.6 4.61 4.61 0 0 0-4.2-1.9 5 5 0 0 0-2.6.6 4.1 4.1 0 0 0-1.6 1.6 7.16 7.16 0 0 0-.8 2.2 11 11 0 0 0-.2 2.6 21 21 0 0 0 .1 2.7 5.31 5.31 0 0 0 .6 1.9 4.27 4.27 0 0 0 1.3 1.4 13.32 13.32 0 0 0 2.4 1.2l5.9 2.4a16.5 16.5 0 0 1 4.2 2.3 9.26 9.26 0 0 1 2.5 3.1 13.07 13.07 0 0 1 1.2 4.1 41.06 41.06 0 0 1 .3 5.3 24.81 24.81 0 0 1-.7 6.3 14.32 14.32 0 0 1-2.2 5 10.35 10.35 0 0 1-4.1 3.3 14.75 14.75 0 0 1-6.3 1.2 12.69 12.69 0 0 1-5.2-1 15.13 15.13 0 0 1-4.2-2.7 12 12 0 0 1-2.8-4.1 12.55 12.55 0 0 1-1-5.1V158h7.8v2.4a5.85 5.85 0 0 0 1.3 3.8c.8 1.1 2.2 1.7 4.2 1.7a6.84 6.84 0 0 0 3.1-.6 4.36 4.36 0 0 0 1.7-1.6 6.12 6.12 0 0 0 .7-2.5 32.51 32.51 0 0 0 .2-3.3 31.58 31.58 0 0 0-.2-3.5 6.39 6.39 0 0 0-.6-2.2 3.76 3.76 0 0 0-1.4-1.4 16.66 16.66 0 0 0-2.3-1.1l-5.5-2.3c-3.3-1.4-5.6-3.2-6.7-5.4a19.49 19.49 0 0 1-1.7-8.5 22 22 0 0 1 .8-5.8 14.08 14.08 0 0 1 2.5-4.7 13 13 0 0 1 4.1-3.2 13.51 13.51 0 0 1 5.9-1.2 13.22 13.22 0 0 1 5.3 1.1 12 12 0 0 1 4.1 2.8 14 14 0 0 1 2.6 3.9 11.17 11.17 0 0 1 .9 4.4v4Z" style="fill:#07448e"/></svg>