<svg data-name="Layer 1" xmlns="http://www.w3.org/2000/svg" viewBox="0 0 900 900"><path style="fill:#07448e" d="M0 0h900v900H0z"/><path d="M297 135.71h-.12a5.72 5.72 0 0 0-.58-.37l-27.42-13.19a.89.89 0 0 1-.59-.92V89.5a.85.85 0 0 1 .59-.91q12.39-5.59 24.71-11.28c1.59-.73 3.17-1.48 4.75-2.22h.26a6.19 6.19 0 0 0 .57.3l28.18 12.93a.84.84 0 0 1 .6.91v31.68a.86.86 0 0 1-.6.92l-25 11.41c-1.79.81-3.55 1.65-5.35 2.47Zm-26-45.65v29.77a.68.68 0 0 0 .46.71L297 132.68c.15.07.3.12.49.19v-30.21a.78.78 0 0 0-.58-.81L271.57 90.3Zm29.11 41.82.43-.18 24.38-11.52c.4-.18.42-.46.42-.79V89.7l-.65.29c-2.29 1.12-4.58 2.25-6.88 3.35a.77.77 0 0 0-.51.8v13.15a.75.75 0 0 1-.46.78c-2.29 1.24-4.58 2.52-6.9 3.78-.14.08-.3.14-.58.27V97.58l-.64.3c-2.69 1.32-5.38 2.65-8.08 4a.83.83 0 0 0-.55.89v27Zm-26.18-43 .21.15 24 10.85a.7.7 0 0 0 .55 0q4.19-2 8.39-4l-.22-.17-23.21-10.9a.86.86 0 0 0-.55 0c-3.04 1.3-6.05 2.65-9.18 4.03Zm48.29-.22c-.21-.11-.35-.2-.51-.27Q310.32 83.15 298.9 78a1.19 1.19 0 0 0-.87 0c-2 .88-4 1.8-6 2.71l-.43.24.1.07 23.9 10.53a.69.69 0 0 0 .49 0c2.04-.99 4.06-1.93 6.12-2.93Zm51.29 47.05h-.12a5.57 5.57 0 0 0-.57-.37l-27.43-13.19a.91.91 0 0 1-.59-.92V89.5a.85.85 0 0 1 .59-.91q12.35-5.59 24.67-11.28c1.6-.73 3.17-1.48 4.75-2.22h.24c.19.1.37.22.56.3l28.22 12.93a.84.84 0 0 1 .59.91v31.68a.86.86 0 0 1-.6.92l-25 11.41c-1.82.81-3.55 1.65-5.31 2.47Zm-26.05-45.65v29.77a.68.68 0 0 0 .46.71l25.58 12.14c.15.07.3.12.49.19v-30.21a.78.78 0 0 0-.58-.81L348 90.3Zm29.1 41.82.43-.18 24.38-11.52c.4-.18.42-.46.42-.79V89.7l-.65.29-6.86 3.35a.77.77 0 0 0-.51.8v13.15a.75.75 0 0 1-.46.78c-2.29 1.24-4.58 2.52-6.87 3.78-.15.08-.31.14-.59.27V97.58l-.64.3c-2.69 1.32-5.37 2.65-8.07 4a.84.84 0 0 0-.56.89v27Zm-26.18-43 .2.15 24 10.85a.7.7 0 0 0 .55 0l8.4-4-.22-.17-23.22-10.9a.83.83 0 0 0-.54 0c-3 1.32-6.08 2.67-9.18 4Zm48.29-.22-.51-.27L375.36 78a1.19 1.19 0 0 0-.87 0c-2 .88-4 1.8-6 2.71l-.43.24.09.07 23.9 10.53a.72.72 0 0 0 .5 0c2-1 4-1.89 6.1-2.89ZM450 135.71h-.12a5.57 5.57 0 0 0-.57-.37l-27.43-13.19a.89.89 0 0 1-.58-.92V89.5a.83.83 0 0 1 .58-.91Q434.2 83 446.54 77.31c1.59-.73 3.16-1.48 4.75-2.22h.23c.19.1.37.22.56.3l28.22 12.93a.84.84 0 0 1 .59.91v31.68a.86.86 0 0 1-.6.92l-25 11.41c-1.78.81-3.55 1.65-5.29 2.47Zm-26-45.65v29.77a.68.68 0 0 0 .46.71l25.58 12.14c.15.07.31.12.49.19v-30.21a.78.78 0 0 0-.58-.81L424.51 90.3Zm29.11 41.82.42-.18 24.38-11.52c.4-.18.42-.46.42-.79V89.7l-.65.29c-2.29 1.12-4.58 2.25-6.85 3.35a.76.76 0 0 0-.51.8v13.15a.78.78 0 0 1-.46.78c-2.29 1.24-4.59 2.52-6.88 3.78-.15.08-.31.14-.58.27V97.58l-.64.3c-2.7 1.32-5.38 2.65-8.08 4a.83.83 0 0 0-.55.89v27Zm-26.19-43 .21.15 24 10.85a.68.68 0 0 0 .54 0c2.8-1.32 5.59-2.65 8.4-4l-.22-.17-23.25-10.92a.86.86 0 0 0-.55 0c-3.05 1.32-6.05 2.67-9.19 4.05Zm48.3-.22-.51-.27L451.85 78a1.21 1.21 0 0 0-.88 0c-2 .88-4 1.8-6 2.71l-.42.24.09.07 23.9 10.53a.69.69 0 0 0 .49 0c2.04-.99 4.05-1.93 6.13-2.93Zm-30.58 192.02h-.11c-.19-.13-.38-.26-.58-.37l-27.43-13.19a.89.89 0 0 1-.58-.92v-31.72a.85.85 0 0 1 .58-.92q12.36-5.62 24.68-11.27c1.59-.73 3.16-1.49 4.75-2.23h.24a5 5 0 0 0 .56.3L475 233.29a.84.84 0 0 1 .6.91v31.68a.86.86 0 0 1-.61.92q-12.49 5.7-25 11.42c-1.82.78-3.58 1.64-5.35 2.46ZM418.6 235v29.8a.66.66 0 0 0 .46.71l25.58 12.14a5.07 5.07 0 0 0 .49.19v-30.21a.8.8 0 0 0-.58-.81l-25.34-11.55Zm29.11 41.82.43-.18 24.38-11.52c.4-.18.41-.46.41-.79v-29.66l-.64.3-6.86 3.34a.78.78 0 0 0-.51.81v13.14a.75.75 0 0 1-.46.78l-6.87 3.78c-.15.08-.31.14-.59.27v-14.53l-.64.29c-2.69 1.32-5.37 2.65-8.07 4a.84.84 0 0 0-.56.89v27Zm-26.18-43 .2.15 24 10.85a.7.7 0 0 0 .55 0l8.4-4-.22-.16q-11.61-5.46-23.22-10.9a.72.72 0 0 0-.54 0c-3.03 1.33-6.07 2.67-9.17 4.05Zm48.3-.22c-.22-.11-.36-.2-.52-.27l-22.8-10.39a1.19 1.19 0 0 0-.87 0c-2 .88-4 1.8-6 2.71-.14.07-.28.16-.43.25l.09.06 23.91 10.53a.69.69 0 0 0 .49 0Zm56.62-97.89h-.12a5.57 5.57 0 0 0-.57-.37l-27.43-13.19a.89.89 0 0 1-.58-.92V89.5a.84.84 0 0 1 .58-.91Q510.68 83 523 77.31c1.59-.73 3.16-1.48 4.75-2.22h.25c.19.1.37.22.56.3l28.24 12.93a.84.84 0 0 1 .6.91v31.68a.87.87 0 0 1-.61.92l-25 11.41c-1.79.81-3.57 1.65-5.34 2.47Zm-26-45.65v29.77a.68.68 0 0 0 .46.71l25.58 12.14c.15.07.31.12.49.19v-30.21a.77.77 0 0 0-.58-.81Q513.65 96.06 501 90.3Zm29.11 41.82.42-.18 24.38-11.52c.4-.18.42-.46.42-.79V89.7l-.65.29c-2.29 1.12-4.58 2.25-6.88 3.35a.76.76 0 0 0-.5.8v13.15a.78.78 0 0 1-.46.78c-2.29 1.24-4.59 2.52-6.9 3.78-.15.08-.31.14-.59.27V97.58l-.64.3c-2.69 1.32-5.37 2.65-8.07 4a.83.83 0 0 0-.56.89v27Zm-26.19-43 .21.15 24 10.85a.7.7 0 0 0 .55 0q4.18-2 8.39-4l-.22-.17-23.21-10.9a.86.86 0 0 0-.55 0c-3.06 1.3-6.1 2.65-9.21 4.03Zm48.3-.22c-.21-.11-.36-.2-.52-.27L528.32 78a1.19 1.19 0 0 0-.87 0c-2 .88-4 1.8-6 2.71l-.42.24.09.07 23.9 10.53a.69.69 0 0 0 .49 0c2.04-.99 4.04-1.93 6.12-2.93Zm51.25 47.05h-.11c-.19-.13-.38-.26-.58-.37l-27.43-13.19a.89.89 0 0 1-.58-.92V89.5a.84.84 0 0 1 .58-.91q12.35-5.59 24.68-11.28c1.59-.73 3.16-1.48 4.75-2.22h.26a5 5 0 0 0 .56.3l28.19 12.93a.84.84 0 0 1 .59.91v31.68a.86.86 0 0 1-.6.92l-25 11.41c-1.78.81-3.54 1.65-5.31 2.47Zm-26-45.65v29.77a.66.66 0 0 0 .45.71l25.58 12.14c.15.07.31.12.5.19v-30.21a.79.79 0 0 0-.59-.81l-25.4-11.55ZM606 131.88l.43-.18 24.37-11.52c.4-.18.42-.46.42-.79V89.7l-.64.29c-2.3 1.12-4.59 2.25-6.88 3.35a.76.76 0 0 0-.51.8v13.15a.78.78 0 0 1-.46.78c-2.29 1.24-4.59 2.52-6.9 3.78-.15.08-.31.14-.59.27V97.58l-.64.3c-2.69 1.32-5.37 2.65-8.07 4a.85.85 0 0 0-.56.89v27Zm-26.19-43 .19.12 24 10.85a.7.7 0 0 0 .55 0q4.18-2 8.39-4l-.22-.17-23.21-10.9a.86.86 0 0 0-.55 0c-2.96 1.33-6.03 2.68-9.16 4.06Zm48.3-.22c-.21-.11-.36-.2-.52-.27L604.79 78a1.19 1.19 0 0 0-.87 0c-2 .88-4 1.8-6 2.71-.14.07-.27.16-.42.24l.09.07 23.9 10.53a.69.69 0 0 0 .49 0c2.02-.99 4.02-1.93 6.12-2.93ZM486 438.44h-75.91c.33-7.26 6.56-15 13.51-16.65a3.57 3.57 0 0 0 2.79-3.27 87.31 87.31 0 0 0 1-12c0-4.65-.81-9.3-.81-14a29.53 29.53 0 0 1 3.05-13.18c3.44-7 9-10.6 16.9-10.42a53.86 53.86 0 0 1 6 .17c6.42.92 10.91 4.55 13.55 10.37 3.17 7 3.7 14.26 2.61 21.79a44 44 0 0 0 .07 15.48 13.73 13.73 0 0 0 1.34 3.57 2.83 2.83 0 0 0 1.73 1.29c5.16 1 8.56 4.18 10.85 8.66 1.2 2.6 2.14 5.31 3.32 8.19Zm-21.82-43.29c-1.32 2.53-2.81 1.34-4.35.54q-8.85-4.59-17.75-9.14c-2.46-1.26-4.86-1.06-6.52 1.15-1.34 1.79-2 4.05-3 6.1-.24.5-.28 1.19-.66 1.49-2.1 1.67-1.69 6.67.66 8a3.14 3.14 0 0 1 1.27 1.38 26 26 0 0 0 6.09 9.21c5 4.68 10.74 4.72 15.78.1a25.2 25.2 0 0 0 6.11-9.2 3.11 3.11 0 0 1 .84-1.4 5.93 5.93 0 0 0 1.57-8.22ZM433.92 421c1.07 3.42 7.89 7 13.85 7s12.71-3.58 13.86-7.08l-3.91-4.31c-6.18 5.32-12.45 6.3-19.76 0Z" style="fill:#f7eec9"/><path style="fill:#f9c7e4" d="M40 641h815v13H40zm248.97-480.73-5.96 6.88 12.38 11.01 24.76-29.35h-9.63l-14.67 17.88-6.88-6.42zm76.47 0-5.96 6.88 12.38 11.01 24.77-29.35H387l-14.68 17.88-6.88-6.42zm76.47 0-5.96 6.88 12.38 11.01 24.77-29.35h-9.63l-14.68 17.88-6.88-6.42zm-6.47 155.71-5.96 6.88 12.38 11.01 24.77-29.36h-9.64l-14.67 17.89-6.88-6.42zm-.62 161.17-5.96 6.88 12.38 11.01 24.77-29.35h-9.63l-14.68 17.88-6.88-6.42zm83.56-316.88-5.96 6.88 12.38 11.01 24.77-29.35h-9.63l-14.68 17.88-6.88-6.42zm76.47 0-5.96 6.88 12.38 11.01 24.77-29.35h-9.63l-14.68 17.88-6.88-6.42zM51.06 695.21l-7.75 5.7v-8.21l7.75-5.7h7.75v54.11h-7.75v-45.9zM85.33 687h11.48q6.61 0 10.11 3.69c2.33 2.45 3.5 5.89 3.5 10.29v25.31q0 7.61-3.69 11.21t-10.6 3.61h-10.8Zm7.76 46.82h3.57q3.27 0 4.63-1.64c.92-1.09 1.37-2.8 1.37-5.13V701a8.22 8.22 0 0 0-1.29-4.94c-.86-1.16-2.43-1.75-4.71-1.75h-3.57ZM117.71 687h23.1v7.29h-15.35v15.89h13.38v7.3h-13.38v15.88h15.35v7.75h-23.1V687zm43.32 54.11h-6.84L143.17 687h8.21l6.15 37.77h.16l6.23-37.77h8.21l-11.1 54.11zM176.76 687h23.11v7.29h-15.36v15.89h13.38v7.3h-13.38v15.88h15.36v7.75h-23.11V687zm28.12 0h7.75v46.36h15.36v7.75h-23.11V687zm27.66 12.77a13.83 13.83 0 0 1 1.14-5.78 12 12 0 0 1 3-4.14 12.91 12.91 0 0 1 4.18-2.47 13.4 13.4 0 0 1 9.34 0 12.91 12.91 0 0 1 4.18 2.47 12 12 0 0 1 3 4.14 13.83 13.83 0 0 1 1.14 5.78v28.57a13.8 13.8 0 0 1-1.14 5.82 12.1 12.1 0 0 1-3 4.1 12.91 12.91 0 0 1-4.18 2.47 13.4 13.4 0 0 1-9.34 0 12.91 12.91 0 0 1-4.18-2.47 12.1 12.1 0 0 1-3-4.1 13.8 13.8 0 0 1-1.14-5.82Zm7.76 28.57a5.19 5.19 0 0 0 1.55 4.15 5.78 5.78 0 0 0 7.38 0 5.2 5.2 0 0 0 1.56-4.15v-28.57a5.2 5.2 0 0 0-1.56-4.15 5.78 5.78 0 0 0-7.38 0 5.19 5.19 0 0 0-1.55 4.15ZM265.38 687H277a17.23 17.23 0 0 1 5.63.84 10.73 10.73 0 0 1 4.41 3 11.6 11.6 0 0 1 2.73 5 31 31 0 0 1 .76 7.71 38.3 38.3 0 0 1-.42 6.12 12.91 12.91 0 0 1-1.78 4.75 11.43 11.43 0 0 1-4.26 4.14 14.28 14.28 0 0 1-7 1.48h-3.95v21.13h-7.75Zm7.75 25.69h3.72a7.87 7.87 0 0 0 3.65-.69 4.33 4.33 0 0 0 1.9-1.86 7 7 0 0 0 .72-2.85q.12-1.66.12-3.72c0-1.27 0-2.47-.12-3.61a8.43 8.43 0 0 0-.68-3 4.37 4.37 0 0 0-1.79-2 6.9 6.9 0 0 0-3.49-.73h-4ZM296.31 687h23.1v7.29h-15.35v15.89h13.38v7.3h-13.38v15.88h15.35v7.75h-23.1V687zm28.12 0h12.46q13.68 0 13.68 15.88a20.07 20.07 0 0 1-1.48 8.1 11.46 11.46 0 0 1-5.21 5.43l8.36 24.7H344L336.82 718h-4.64v23.1h-7.75Zm7.75 24.17h4.41a7.83 7.83 0 0 0 3.27-.57 4.2 4.2 0 0 0 1.86-1.64 6.92 6.92 0 0 0 .87-2.62 28.45 28.45 0 0 0 0-7.22 6.52 6.52 0 0 0-.95-2.66 4.28 4.28 0 0 0-2-1.63 9 9 0 0 0-3.42-.54h-4Zm24.17 22.19h7.75v7.75l-7.75 5.63v-13.38zM409.7 729a12.44 12.44 0 0 1-.95 4.79 12.58 12.58 0 0 1-2.62 4 12.76 12.76 0 0 1-3.92 2.74 11.49 11.49 0 0 1-4.82 1 17.63 17.63 0 0 1-4.49-.61 10.86 10.86 0 0 1-4.1-2.09 11.18 11.18 0 0 1-3-3.91 14.1 14.1 0 0 1-1.18-6.16V699a13.11 13.11 0 0 1 .91-4.94 11.66 11.66 0 0 1 2.58-4 12.16 12.16 0 0 1 4-2.63 13.5 13.5 0 0 1 5.13-1 12.75 12.75 0 0 1 4.94 1 12 12 0 0 1 4 2.66 12.42 12.42 0 0 1 2.62 4.11 14 14 0 0 1 .95 5.2v3H402v-2.58a6.27 6.27 0 0 0-1.3-3.95 4.16 4.16 0 0 0-3.49-1.68c-1.93 0-3.21.6-3.84 1.79a9.61 9.61 0 0 0-.95 4.52v27.67a7.1 7.1 0 0 0 1 4 4 4 0 0 0 3.68 1.6 5.61 5.61 0 0 0 1.64-.27 4.59 4.59 0 0 0 1.59-.87 4.44 4.44 0 0 0 1.18-1.68 6.82 6.82 0 0 0 .46-2.66v-2.66h7.75Zm6.53-42h7.75v54.11h-7.75zm44.61 54.11H454L442.98 687h8.21l6.16 37.77h.15l6.23-37.77h8.21l-11.1 54.11zM476.57 687h23.11v7.29h-15.35v15.89h13.37v7.3h-13.37v15.88h15.35v7.75h-23.11V687zm28.13 0h12.46q13.68 0 13.68 15.88a20.24 20.24 0 0 1-1.48 8.1 11.51 11.51 0 0 1-5.21 5.43l8.36 24.7h-8.21L517.08 718h-4.63v23.1h-7.75Zm7.75 24.17h4.41a7.78 7.78 0 0 0 3.26-.57A4.28 4.28 0 0 0 522 709a6.92 6.92 0 0 0 .87-2.62 28.45 28.45 0 0 0 0-7.22 6.52 6.52 0 0 0-1-2.66 4.28 4.28 0 0 0-2-1.63 9.07 9.07 0 0 0-3.42-.54h-4ZM537.3 687h7.75v54.11h-7.75zm15.27 0h23.11v7.29h-15.35v16.42h13.37v7.3h-13.37v23.1h-7.76V687zm28.35 0h7.75v54.11h-7.75zm15.28 0h23.1v7.29h-15.35v15.89h13.38v7.3h-13.38v15.88h15.35v7.75h-23.1V687zm28.12 0h11.47q6.62 0 10.11 3.69c2.33 2.45 3.5 5.89 3.5 10.29v25.31q0 7.61-3.69 11.21t-10.6 3.61h-10.79Zm7.75 46.82h3.57c2.18 0 3.72-.55 4.64-1.64s1.36-2.8 1.36-5.13V701a8.22 8.22 0 0 0-1.29-4.94c-.86-1.16-2.43-1.75-4.71-1.75h-3.57Zm24.17-.46h7.75v7.75l-7.75 5.63v-13.38zM42.93 778.2H54.4q6.62 0 10.11 3.69c2.33 2.45 3.5 5.89 3.5 10.29v25.31q0 7.6-3.69 11.21t-10.6 3.61H42.93Zm7.75 46.8h3.57q3.27 0 4.64-1.64t1.37-5.13v-26.05a8.15 8.15 0 0 0-1.3-4.94q-1.29-1.74-4.71-1.74h-3.57Zm24.62-46.8h23.11v7.3H83.06v15.88h13.37v7.3H83.06v15.88h15.35v7.75H75.3V778.2zm43.32 54.11h-6.84l-11.02-54.11h8.21l6.16 37.77h.15l6.23-37.77h8.21l-11.1 54.11zm15.73-54.11h23.11v7.3h-15.35v15.88h13.37v7.3h-13.37v15.88h15.35v7.75h-23.11V778.2zm28.12 0h7.76v46.36h15.35v7.75h-23.11V778.2zm27.67 12.8a13.83 13.83 0 0 1 1.14-5.78 12.08 12.08 0 0 1 3-4.14 12.91 12.91 0 0 1 4.18-2.47 13.43 13.43 0 0 1 9.35 0 13 13 0 0 1 4.18 2.47 12.08 12.08 0 0 1 3 4.14 13.83 13.83 0 0 1 1.14 5.78v28.57a13.8 13.8 0 0 1-1.14 5.82 12.21 12.21 0 0 1-3 4.1 12.84 12.84 0 0 1-4.18 2.47 13.43 13.43 0 0 1-9.35 0 12.74 12.74 0 0 1-4.18-2.47 12.21 12.21 0 0 1-3-4.1 13.8 13.8 0 0 1-1.14-5.82Zm7.75 28.57a5.16 5.16 0 0 0 1.56 4.15 5.77 5.77 0 0 0 7.37 0 5.16 5.16 0 0 0 1.56-4.15V791a5.13 5.13 0 0 0-1.56-4.14 5.77 5.77 0 0 0-7.37 0 5.13 5.13 0 0 0-1.56 4.14ZM223 778.2h11.6a17.17 17.17 0 0 1 5.62.84 10.73 10.73 0 0 1 4.41 3 11.62 11.62 0 0 1 2.74 5 31.44 31.44 0 0 1 .76 7.71 38.3 38.3 0 0 1-.42 6.12 12.93 12.93 0 0 1-1.79 4.75 11.33 11.33 0 0 1-4.25 4.14 14.35 14.35 0 0 1-7 1.48h-3.95v21.13H223Zm7.75 25.69h3.73a7.82 7.82 0 0 0 3.64-.69 4.28 4.28 0 0 0 1.9-1.86 7.19 7.19 0 0 0 .73-2.85c.07-1.11.11-2.35.11-3.72s0-2.47-.11-3.61a8.65 8.65 0 0 0-.69-3 4.35 4.35 0 0 0-1.78-2 7 7 0 0 0-3.5-.72h-4Zm23.15-25.69H277v7.3h-15.35v15.88h13.38v7.3h-13.38v15.88H277v7.75h-23.1V778.2zm28.1 0h12.46q13.68 0 13.69 15.88a20.06 20.06 0 0 1-1.49 8.1 11.48 11.48 0 0 1-5.2 5.43l8.36 24.7h-8.21l-7.22-23.1h-4.64v23.1H282Zm7.75 24.17h4.41a7.8 7.8 0 0 0 3.27-.57 4.2 4.2 0 0 0 1.86-1.64 6.86 6.86 0 0 0 .87-2.62 28.45 28.45 0 0 0 0-7.22 6.38 6.38 0 0 0-.95-2.66 4.28 4.28 0 0 0-2-1.63 9 9 0 0 0-3.42-.53h-4Zm38.78-24.17h11.63a17.17 17.17 0 0 1 5.62.84 10.73 10.73 0 0 1 4.41 3 11.62 11.62 0 0 1 2.74 5 31.44 31.44 0 0 1 .76 7.71 38.3 38.3 0 0 1-.42 6.12 12.76 12.76 0 0 1-1.79 4.75 11.33 11.33 0 0 1-4.25 4.14 14.33 14.33 0 0 1-7 1.48h-4v21.13h-7.75Zm7.75 25.69H340a7.9 7.9 0 0 0 3.65-.69 4.33 4.33 0 0 0 1.9-1.86 7.36 7.36 0 0 0 .72-2.85c.07-1.11.11-2.35.11-3.72s0-2.47-.11-3.61a8.65 8.65 0 0 0-.69-3 4.35 4.35 0 0 0-1.78-2 7 7 0 0 0-3.5-.72h-4Zm48.26 16.26a12.41 12.41 0 0 1-1 4.94 12.72 12.72 0 0 1-6.69 6.69 12.45 12.45 0 0 1-9.73 0 12.72 12.72 0 0 1-6.69-6.69 12.25 12.25 0 0 1-1-4.94V778.2h7.75v41.19a5.81 5.81 0 0 0 1.37 4.26 5 5 0 0 0 6.84 0 5.81 5.81 0 0 0 1.37-4.26V778.2h7.75Zm7.3-41.95h11.32a15.91 15.91 0 0 1 6.35 1.14 11.86 11.86 0 0 1 4.29 3 11.41 11.41 0 0 1 2.4 4.37 18.27 18.27 0 0 1 .72 5.13v2a17.74 17.74 0 0 1-.34 3.72 8.94 8.94 0 0 1-1 2.66 8.52 8.52 0 0 1-1.67 2 14.49 14.49 0 0 1-2.28 1.64 8.41 8.41 0 0 1 4 3.84 15.11 15.11 0 0 1 1.29 6.8v3q0 7.14-3.46 10.94t-11.06 3.8h-10.56Zm7.75 22.19h3.5c2.58 0 4.32-.64 5.2-1.94a10 10 0 0 0 1.33-5.66 8.54 8.54 0 0 0-1.48-5.47c-1-1.22-2.77-1.82-5.36-1.82h-3.19Zm0 24.17h3.34a8.29 8.29 0 0 0 3.69-.68 4.68 4.68 0 0 0 2-1.9 7.1 7.1 0 0 0 .84-2.89c.1-1.12.15-2.33.15-3.65a23.24 23.24 0 0 0-.23-3.57 5.76 5.76 0 0 0-.95-2.55 4.53 4.53 0 0 0-2-1.56 9.22 9.22 0 0 0-3.42-.53h-3.42Zm24.62-46.36h7.76v46.36h15.35v7.75h-23.11V778.2zm28.35 0h7.75v54.11h-7.75zm40.36 15.58h-7.75V792a8.28 8.28 0 0 0-1.26-4.6 4.63 4.63 0 0 0-4.22-1.93 5.13 5.13 0 0 0-2.62.6 4.57 4.57 0 0 0-1.59 1.56 6.24 6.24 0 0 0-.8 2.21 14.76 14.76 0 0 0-.23 2.62c0 1.06 0 2 .11 2.7a5 5 0 0 0 .57 1.9 4.4 4.4 0 0 0 1.33 1.4 12 12 0 0 0 2.4 1.22l5.93 2.35a14.81 14.81 0 0 1 4.17 2.32 9.52 9.52 0 0 1 2.48 3.12 13.2 13.2 0 0 1 1.17 4.1 39.72 39.72 0 0 1 .31 5.28 27.65 27.65 0 0 1-.69 6.35 13.33 13.33 0 0 1-2.24 5 10.81 10.81 0 0 1-4.14 3.3 14.76 14.76 0 0 1-6.31 1.22 13.77 13.77 0 0 1-5.24-1 12.61 12.61 0 0 1-8-11.86V817h7.75v2.43a6.37 6.37 0 0 0 1.25 3.84c.84 1.14 2.25 1.71 4.22 1.71a6.82 6.82 0 0 0 3.08-.57 4 4 0 0 0 1.67-1.6 6.5 6.5 0 0 0 .72-2.55c.1-1 .16-2.12.16-3.34a33 33 0 0 0-.16-3.5 5.51 5.51 0 0 0-.64-2.2 4 4 0 0 0-1.37-1.37 19.38 19.38 0 0 0-2.32-1.14l-5.55-2.28q-5-2.06-6.72-5.43a18.72 18.72 0 0 1-1.71-8.48 19.54 19.54 0 0 1 .83-5.77 13.38 13.38 0 0 1 2.47-4.71 11.78 11.78 0 0 1 4.15-3.16 13.69 13.69 0 0 1 5.85-1.18 12.87 12.87 0 0 1 5.28 1.07 13.16 13.16 0 0 1 4.1 2.81 12.44 12.44 0 0 1 2.62 3.91 11.37 11.37 0 0 1 .92 4.45Zm5.77-15.58h7.75v23.18h9.58V778.2h7.75v54.11h-7.75v-24.09h-9.58v24.09h-7.75V778.2zm32.38 0h23.1v7.3h-15.35v15.88h13.38v7.3h-13.38v15.88h15.35v7.75h-23.1V778.2zm28.12 0h11.47q6.62 0 10.11 3.69c2.33 2.45 3.5 5.89 3.5 10.29v25.31q0 7.6-3.69 11.21T570 832.31h-10.81Zm7.75 46.8h3.57q3.27 0 4.64-1.64t1.37-5.13v-26.05a8.22 8.22 0 0 0-1.3-4.94q-1.29-1.74-4.71-1.74h-3.57ZM158.63 537.86h-7.75v-1.75a8.28 8.28 0 0 0-1.26-4.6 4.62 4.62 0 0 0-4.21-1.93 5.11 5.11 0 0 0-2.62.6 4.52 4.52 0 0 0-1.6 1.56 6.52 6.52 0 0 0-.8 2.21 14.76 14.76 0 0 0-.23 2.62 25.69 25.69 0 0 0 .12 2.7 4.66 4.66 0 0 0 .57 1.9 4.2 4.2 0 0 0 1.33 1.4 12.17 12.17 0 0 0 2.39 1.22l5.93 2.35a14.88 14.88 0 0 1 4.18 2.32 9.49 9.49 0 0 1 2.47 3.12 13.48 13.48 0 0 1 1.18 4.1 41.61 41.61 0 0 1 .3 5.28 28.17 28.17 0 0 1-.68 6.35 13.65 13.65 0 0 1-2.24 5 10.77 10.77 0 0 1-4.15 3.3 14.73 14.73 0 0 1-6.31 1.22 13.77 13.77 0 0 1-5.24-1 12.87 12.87 0 0 1-4.18-2.7 12.72 12.72 0 0 1-2.77-4.06 12.53 12.53 0 0 1-1-5.1v-2.88h7.75v2.43a6.31 6.31 0 0 0 1.26 3.84c.83 1.14 2.24 1.71 4.21 1.71a6.79 6.79 0 0 0 3.08-.57 3.86 3.86 0 0 0 1.67-1.6 6.67 6.67 0 0 0 .73-2.55c.1-1 .15-2.12.15-3.34a33.36 33.36 0 0 0-.15-3.5 5.67 5.67 0 0 0-.65-2.2 4 4 0 0 0-1.37-1.37 19.14 19.14 0 0 0-2.31-1.14l-5.55-2.28q-5-2.06-6.73-5.43a18.69 18.69 0 0 1-1.71-8.48 19.54 19.54 0 0 1 .84-5.77 13.22 13.22 0 0 1 2.47-4.71 11.83 11.83 0 0 1 4.14-3.16 13.69 13.69 0 0 1 5.85-1.17 12.8 12.8 0 0 1 5.28 1.06 13.21 13.21 0 0 1 4.11 2.81 12.54 12.54 0 0 1 2.62 3.92 11.27 11.27 0 0 1 .91 4.44Zm5.78-15.58h23.1v7.3h-15.35v15.88h13.37v7.3h-13.37v15.88h15.35v7.75h-23.1v-54.11zm28.12 0h7.44l9.96 28.65h.15l9.88-28.65h7.53v54.11h-7.76v-32.91h-.15l-7.67 23.26h-3.88l-7.6-23.26h-.15v32.91h-7.75v-54.11zm57.45 54.11h-6.84l-11.02-54.11h8.21l6.16 37.77h.15l6.23-37.77h8.21l-11.1 54.11zm15.73-54.11h23.11v7.3h-15.35v15.88h13.37v7.3h-13.37v15.88h15.35v7.75h-23.11v-54.11zm28.12 0h12.47q13.68 0 13.68 15.89a20.22 20.22 0 0 1-1.48 8.09 11.46 11.46 0 0 1-5.21 5.43l8.36 24.7h-8.21l-7.22-23.1h-4.64v23.1h-7.75Zm7.75 24.17H306a7.8 7.8 0 0 0 3.27-.57 4.18 4.18 0 0 0 1.86-1.63 7 7 0 0 0 .88-2.63 28.45 28.45 0 0 0 0-7.22 6.58 6.58 0 0 0-.95-2.66 4.3 4.3 0 0 0-2-1.63 9 9 0 0 0-3.42-.53h-4Zm38.76-24.17h11.33a15.83 15.83 0 0 1 6.34 1.14 12.11 12.11 0 0 1 4.3 3 11.39 11.39 0 0 1 2.39 4.37 18.27 18.27 0 0 1 .72 5.13v2a17.09 17.09 0 0 1-.34 3.72 9.21 9.21 0 0 1-1 2.66 8.56 8.56 0 0 1-1.68 2 14.49 14.49 0 0 1-2.3 1.7 8.32 8.32 0 0 1 4 3.84 15.11 15.11 0 0 1 1.29 6.8v3q0 7.14-3.45 10.94t-11.06 3.8h-10.54Zm7.76 22.19h3.49c2.59 0 4.32-.64 5.21-1.93a10.08 10.08 0 0 0 1.33-5.67 8.6 8.6 0 0 0-1.48-5.47c-1-1.22-2.78-1.82-5.36-1.82h-3.19Zm0 24.17h3.34a8.29 8.29 0 0 0 3.69-.68 4.8 4.8 0 0 0 2-1.9 7.25 7.25 0 0 0 .84-2.89c.1-1.12.15-2.33.15-3.65a24.58 24.58 0 0 0-.23-3.57 5.93 5.93 0 0 0-.95-2.55 4.53 4.53 0 0 0-2-1.56 9.3 9.3 0 0 0-3.42-.53h-3.42Zm49.7-4.41a12.25 12.25 0 0 1-1 4.94 12.72 12.72 0 0 1-6.69 6.69 12.42 12.42 0 0 1-9.72 0 12.72 12.72 0 0 1-6.69-6.69 12.25 12.25 0 0 1-1-4.94v-42h7.75v41.19a5.81 5.81 0 0 0 1.37 4.26 5 5 0 0 0 6.84 0 5.81 5.81 0 0 0 1.37-4.26v-41.14h7.75Zm7.3-41.95h7.44l9.96 28.65h.15l9.88-28.65h7.53v54.11h-7.76v-32.91h-.15l-7.67 23.26h-3.88l-7.6-23.26h-.15v32.91h-7.75v-54.11zm42.25 0H459a17.17 17.17 0 0 1 5.62.84 10.73 10.73 0 0 1 4.41 3 11.62 11.62 0 0 1 2.74 5 31.44 31.44 0 0 1 .76 7.71 38.21 38.21 0 0 1-.42 6.12 12.93 12.93 0 0 1-1.79 4.75 11.25 11.25 0 0 1-4.25 4.14 14.35 14.35 0 0 1-7 1.48h-3.97v21.13h-7.75ZM455.1 548h3.73a8 8 0 0 0 3.64-.68 4.37 4.37 0 0 0 1.91-1.87 7.36 7.36 0 0 0 .72-2.85c.07-1.11.11-2.35.11-3.72s0-2.47-.11-3.61a8.65 8.65 0 0 0-.69-3 4.35 4.35 0 0 0-1.78-2 7 7 0 0 0-3.5-.72h-4Zm57.9 24.29a16.58 16.58 0 0 1-4.75 3.42 13.16 13.16 0 0 1-5.58 1.14 10.64 10.64 0 0 1-4.33-.91 11 11 0 0 1-3.58-2.55 11.83 11.83 0 0 1-2.39-3.95 14.53 14.53 0 0 1-.87-5.13 14.26 14.26 0 0 1 2.12-7.83 30.62 30.62 0 0 1 5.32-6.23 33.6 33.6 0 0 1-3.38-6 16.14 16.14 0 0 1-1.33-6.49 12 12 0 0 1 .69-4.07 9.45 9.45 0 0 1 2-3.34 9.25 9.25 0 0 1 3.27-2.25 12 12 0 0 1 4.64-.83 11.29 11.29 0 0 1 4.4.79 9.85 9.85 0 0 1 3.2 2.13 9 9 0 0 1 2 3.12 10.32 10.32 0 0 1 .69 3.76 12.73 12.73 0 0 1-2.36 7.26 35.42 35.42 0 0 1-5.55 6.35c1 1.46 2.07 3.24 3.31 5.31s2.52 4.08 3.84 6l4.18-5.7 4.78 3.34-5.77 7.45 5.85 9.27h-7.8Zm-14.66-8.36a7.4 7.4 0 0 0 1.63 4.82 5.09 5.09 0 0 0 4.14 2 5.85 5.85 0 0 0 3.35-1.1 11.35 11.35 0 0 0 2.43-2.17l-7.45-11.86a18.86 18.86 0 0 0-2.93 3.77 8.83 8.83 0 0 0-1.16 4.54Zm2.73-26a9.82 9.82 0 0 0 .84 3.76 25.6 25.6 0 0 0 2.13 4.06l1.52-1.55a14 14 0 0 0 1.52-1.94 12.2 12.2 0 0 0 1.14-2.32 7.89 7.89 0 0 0 .45-2.7 4.13 4.13 0 0 0-1-2.66 3.31 3.31 0 0 0-2.73-1.21 3.35 3.35 0 0 0-2.81 1.4 5.11 5.11 0 0 0-1.05 3.17Zm42.04-15.65h11.63a17.21 17.21 0 0 1 5.62.84 10.73 10.73 0 0 1 4.41 3 11.6 11.6 0 0 1 2.73 5 31 31 0 0 1 .76 7.71 39.54 39.54 0 0 1-.41 6.12 12.93 12.93 0 0 1-1.79 4.75 11.21 11.21 0 0 1-4.26 4.14 14.28 14.28 0 0 1-7 1.48h-3.95v21.13h-7.75Zm7.75 25.72h3.72a8 8 0 0 0 3.65-.68 4.35 4.35 0 0 0 1.9-1.87 7 7 0 0 0 .72-2.85q.12-1.67.12-3.72c0-1.27 0-2.47-.12-3.61a8.43 8.43 0 0 0-.68-3 4.37 4.37 0 0 0-1.79-2 6.91 6.91 0 0 0-3.49-.72h-4Zm48.26 16.23a12.25 12.25 0 0 1-1 4.94 12.72 12.72 0 0 1-6.69 6.69 12.42 12.42 0 0 1-9.72 0 12.72 12.72 0 0 1-6.69-6.69 12.25 12.25 0 0 1-1-4.94v-42h7.75v41.19a5.81 5.81 0 0 0 1.37 4.26 5 5 0 0 0 6.84 0 5.81 5.81 0 0 0 1.37-4.26v-41.14h7.75Zm7.3-41.95h11.32a15.83 15.83 0 0 1 6.34 1.14 12.11 12.11 0 0 1 4.3 3 11.39 11.39 0 0 1 2.39 4.37 18.28 18.28 0 0 1 .73 5.13v2a17 17 0 0 1-.35 3.72 8.93 8.93 0 0 1-1 2.66 8.76 8.76 0 0 1-1.67 2 14.49 14.49 0 0 1-2.28 1.64 8.34 8.34 0 0 1 4 3.84 15.1 15.1 0 0 1 1.3 6.8v3q0 7.14-3.46 10.94T617 576.39h-10.58Zm7.75 22.19h3.49c2.59 0 4.32-.64 5.21-1.93a10.08 10.08 0 0 0 1.33-5.67 8.54 8.54 0 0 0-1.48-5.47c-1-1.22-2.78-1.82-5.36-1.82h-3.19Zm0 24.17h3.34a8.29 8.29 0 0 0 3.69-.68 4.8 4.8 0 0 0 2-1.9 7.1 7.1 0 0 0 .84-2.89c.1-1.12.15-2.33.15-3.65A24.58 24.58 0 0 0 624 556a5.93 5.93 0 0 0-1-2.55 4.53 4.53 0 0 0-2-1.56 9.26 9.26 0 0 0-3.42-.53h-3.42Zm24.62-46.36h7.75v46.36h15.35v7.75h-23.1v-54.11zm28.35 0h7.75v54.11h-7.75zm40.35 15.58h-7.75v-1.75a8.36 8.36 0 0 0-1.25-4.6 4.64 4.64 0 0 0-4.22-1.93 5.13 5.13 0 0 0-2.62.6 4.52 4.52 0 0 0-1.6 1.56 6.74 6.74 0 0 0-.8 2.21 14.78 14.78 0 0 0-.22 2.62 26 26 0 0 0 .11 2.7 5 5 0 0 0 .57 1.9 4.3 4.3 0 0 0 1.33 1.4 12.17 12.17 0 0 0 2.39 1.22l5.93 2.35a14.88 14.88 0 0 1 4.18 2.32 9.36 9.36 0 0 1 2.47 3.12 13.2 13.2 0 0 1 1.18 4.1 41.61 41.61 0 0 1 .3 5.28 27.6 27.6 0 0 1-.68 6.35 13.49 13.49 0 0 1-2.24 5 10.81 10.81 0 0 1-4.14 3.3 14.79 14.79 0 0 1-6.31 1.22 13.82 13.82 0 0 1-5.25-1 12.87 12.87 0 0 1-4.18-2.7 12.75 12.75 0 0 1-3.8-9.16v-2.88h7.76v2.43a6.31 6.31 0 0 0 1.25 3.84c.84 1.14 2.24 1.71 4.22 1.71a6.85 6.85 0 0 0 3.08-.57 3.91 3.91 0 0 0 1.67-1.6 6.5 6.5 0 0 0 .72-2.55c.1-1 .15-2.12.15-3.34a33.36 33.36 0 0 0-.15-3.5 5.5 5.5 0 0 0-.65-2.2 4 4 0 0 0-1.36-1.37 20.17 20.17 0 0 0-2.32-1.14l-5.55-2.28q-5-2.06-6.73-5.43a18.69 18.69 0 0 1-1.71-8.48 19.54 19.54 0 0 1 .84-5.77 13.38 13.38 0 0 1 2.47-4.71 11.83 11.83 0 0 1 4.14-3.16 13.69 13.69 0 0 1 5.85-1.17 12.88 12.88 0 0 1 5.29 1.06 13.28 13.28 0 0 1 4.1 2.81 12.54 12.54 0 0 1 2.62 3.92 11.27 11.27 0 0 1 .91 4.44Zm5.78-15.58h7.75v23.18h9.58v-23.18h7.75v54.11h-7.75V552.3h-9.58v24.09h-7.75v-54.11z"/></svg>