<svg data-name="Layer 1" xmlns="http://www.w3.org/2000/svg" viewBox="0 0 900 200"><path style="fill:#f7eec9" d="M0 0h900v200H0z"/><path style="fill:#07448e" d="M205.8 30h7.1v139.2h-7.1zM29.9 30h139.2v139.2H29.9z"/><path d="M104.2 57.3 97.6 71a24.37 24.37 0 0 1 2.7-.1 28.49 28.49 0 0 1 28.5 28.5 28.77 28.77 0 0 1-2.8 12.3l.7-.8 6 15.8 14.1 4.8a56.5 56.5 0 0 0-46.5-88.6 27.15 27.15 0 0 0-2.8.1Z" style="fill:#f9c7e4"/><path d="m61.4 120.6 15.1-5.4a28.51 28.51 0 0 1 8-39.5 28.85 28.85 0 0 1 7.3-3.5l7.1-14.9-6.4-13.9a56.56 56.56 0 0 0-36.4 91.4Z" style="fill:#f9c7e4"/><path d="m129.2 130.4-5.6-14.6a28.41 28.41 0 0 1-39.7 6.9 31 31 0 0 1-4.3-3.7L65 124.2l-5.3 14.6a56.53 56.53 0 0 0 79.9 1.3 60.16 60.16 0 0 0 4.2-4.6Z" style="fill:#f9c7e4"/><path style="fill:#07448e" d="M252.7 35.3h-9V28h25.7v7.3h-9v46.8h-7.8V35.3h.1zm24.6-7.3h6.5l12.1 54.1h-7.8l-2.3-11.6h-10.6L273 82.1h-7.8Zm3.3 15.6h-.2l-3.8 19.6h7.8Zm19-15.6h7.8v46.4h15.4v7.8h-23.1V28h-.1zm28.1 0h7.8v24.7h.2L347 28h7.8l-10.6 21.7 12.5 32.5h-8.2l-8.8-24-4.2 7.8v16.2h-7.8V28zm-55 106.8H265V133a7.78 7.78 0 0 0-1.3-4.6 4.61 4.61 0 0 0-4.2-1.9 5 5 0 0 0-2.6.6 4.1 4.1 0 0 0-1.6 1.6 7.16 7.16 0 0 0-.8 2.2 11 11 0 0 0-.2 2.6 21 21 0 0 0 .1 2.7 5.31 5.31 0 0 0 .6 1.9 4.27 4.27 0 0 0 1.3 1.4 13.32 13.32 0 0 0 2.4 1.2l5.9 2.4a16.5 16.5 0 0 1 4.2 2.3 9.26 9.26 0 0 1 2.5 3.1 13.07 13.07 0 0 1 1.2 4.1 41.06 41.06 0 0 1 .3 5.3 24.81 24.81 0 0 1-.7 6.3 14.32 14.32 0 0 1-2.2 5 10.35 10.35 0 0 1-4.1 3.3 14.75 14.75 0 0 1-6.3 1.2 12.69 12.69 0 0 1-5.2-1 15.13 15.13 0 0 1-4.2-2.7 12 12 0 0 1-2.8-4.1 12.55 12.55 0 0 1-1-5.1V158h7.8v2.4a5.85 5.85 0 0 0 1.3 3.8c.8 1.1 2.2 1.7 4.2 1.7a6.84 6.84 0 0 0 3.1-.6 4.36 4.36 0 0 0 1.7-1.6 6.12 6.12 0 0 0 .7-2.5 32.51 32.51 0 0 0 .2-3.3 31.58 31.58 0 0 0-.2-3.5 6.39 6.39 0 0 0-.6-2.2 3.76 3.76 0 0 0-1.4-1.4 16.66 16.66 0 0 0-2.3-1.1l-5.5-2.3c-3.3-1.4-5.6-3.2-6.7-5.4a19.49 19.49 0 0 1-1.7-8.5 22 22 0 0 1 .8-5.8 14.08 14.08 0 0 1 2.5-4.7 13 13 0 0 1 4.1-3.2 13.51 13.51 0 0 1 5.9-1.2 13.22 13.22 0 0 1 5.3 1.1 12 12 0 0 1 4.1 2.8 14 14 0 0 1 2.6 3.9 11.17 11.17 0 0 1 .9 4.4v4Zm30.9 26.3a11.31 11.31 0 0 1-1 4.9 15.64 15.64 0 0 1-2.7 4 14.08 14.08 0 0 1-4 2.7 11.31 11.31 0 0 1-4.9 1 11.94 11.94 0 0 1-4.9-1 12.67 12.67 0 0 1-6.7-6.7 11.62 11.62 0 0 1-1-4.9v-42h7.8v41.2a6.17 6.17 0 0 0 1.4 4.3 4.39 4.39 0 0 0 3.4 1.4 4.76 4.76 0 0 0 3.4-1.4 5.84 5.84 0 0 0 1.4-4.3v-41.2h7.8Zm7.3-41.9h7.4l10 28.7h.2l9.9-28.7h7.5v54.1h-7.8v-32.9h-.2l-7.7 23.3h-3.9l-7.6-23.3h-.2v32.9h-7.8v-54.1h.2zm42.2 0h7.4l10 28.7h.2l9.9-28.7h7.5v54.1h-7.8v-32.9h-.2l-7.7 23.3h-3.9l-7.6-23.3h-.2v32.9h-7.8v-54.1h.2zm50.9 0h6.5l12.1 54.1h-7.8l-2.3-11.6h-10.6l-2.3 11.6h-7.8Zm3.2 15.6h-.2l-3.8 19.6h7.8Zm20-8.3h-9v-7.3H444v7.3h-9v46.8h-7.8v-46.8zm20.4-7.3h7.8v54.1h-7.8zm14.8 12.8a15 15 0 0 1 1.1-5.8 10.67 10.67 0 0 1 3-4.1 13.18 13.18 0 0 1 8.9-3.3 15.46 15.46 0 0 1 4.7.8 15.07 15.07 0 0 1 4.2 2.5 14 14 0 0 1 3 4.1 13.35 13.35 0 0 1 1.1 5.8v28.6a14.63 14.63 0 0 1-1.1 5.8 14 14 0 0 1-3 4.1 12.67 12.67 0 0 1-4.2 2.5 12.92 12.92 0 0 1-4.7.8 15.46 15.46 0 0 1-4.7-.8 15.07 15.07 0 0 1-4.2-2.5 14 14 0 0 1-3-4.1 13.07 13.07 0 0 1-1.1-5.8Zm7.8 28.5c0 1.9.5 3.3 1.6 4.1a5.41 5.41 0 0 0 3.7 1.3 5.58 5.58 0 0 0 3.7-1.3 5.33 5.33 0 0 0 1.6-4.1V132c0-1.9-.5-3.3-1.6-4.1a5.41 5.41 0 0 0-3.7-1.3 5.58 5.58 0 0 0-3.7 1.3 5.33 5.33 0 0 0-1.6 4.1Zm24.8-41.3h7.4l11.7 32.6h.2v-32.6h7.8v54.1h-7.3l-11.9-32.5h-.2v32.5H495v-54.1z"/></svg>