<svg data-name="Layer 1" xmlns="http://www.w3.org/2000/svg" viewBox="0 0 900 200"><path style="fill:#f7eec9" d="M0 0h900v200H0z"/><path style="fill:#07448e" d="M205.8 30.01h7.06v139.17h-7.06zm-175.86 0h139.17v139.17H29.94z"/><path d="M104.17 57.35 97.6 71.07c.9-.08 1.8-.13 2.71-.13a28.48 28.48 0 0 1 25.69 40.8l.74-.77 6 15.76 14.08 4.8a56.53 56.53 0 0 0-46.51-88.63c-.93 0-1.85 0-2.77.07Z" style="fill:#f9c7e4"/><path d="m61.43 120.55 15.14-5.41a28.49 28.49 0 0 1 15.37-42.95l7.12-14.88-6.4-13.89a56.52 56.52 0 0 0-36.43 91.36Z" style="fill:#f9c7e4"/><path d="m129.2 130.41-5.58-14.63a28.48 28.48 0 0 1-44 3.19L65 124.17l-5.32 14.56a56.53 56.53 0 0 0 84.18-3.32Z" style="fill:#f9c7e4"/><path d="M257.65 30h11.47q6.61 0 10.11 3.69c2.33 2.45 3.5 5.89 3.5 10.29v25.31q0 7.6-3.69 11.21t-10.6 3.61h-10.79Zm7.75 46.82h3.6q3.27 0 4.64-1.64t1.36-5.13V44a8.22 8.22 0 0 0-1.3-4.94q-1.31-1.76-4.7-1.76h-3.6ZM290 30h23.11v7.3h-15.33v15.88h13.37v7.3h-13.37v15.88h15.35v7.75H290Zm43.34 54.11h-6.84L315.48 30h8.21l6.16 37.77h.15L336.23 30h8.21ZM349.07 30h23.11v7.3h-15.35v15.88h13.37v7.3h-13.37v15.88h15.35v7.75h-23.11Zm28.12 0H385v46.36h15.3v7.75h-23.11Zm27.67 12.77A13.83 13.83 0 0 1 406 37a12.08 12.08 0 0 1 3-4.14 12.91 12.91 0 0 1 4.18-2.47 13.43 13.43 0 0 1 9.35 0 13 13 0 0 1 4.18 2.47 12.08 12.08 0 0 1 3 4.14 13.83 13.83 0 0 1 1.14 5.78v28.56a13.8 13.8 0 0 1-1.14 5.82 12.21 12.21 0 0 1-3 4.1 13 13 0 0 1-4.18 2.47 13.43 13.43 0 0 1-9.35 0 12.91 12.91 0 0 1-4.18-2.47 12.21 12.21 0 0 1-3-4.1 13.8 13.8 0 0 1-1.14-5.82Zm7.75 28.57a5.16 5.16 0 0 0 1.56 4.15 5.77 5.77 0 0 0 7.37 0 5.16 5.16 0 0 0 1.56-4.15V42.77a5.13 5.13 0 0 0-1.56-4.14 5.77 5.77 0 0 0-7.37 0 5.13 5.13 0 0 0-1.56 4.14ZM437.69 30h11.63a17.17 17.17 0 0 1 5.62.84 10.73 10.73 0 0 1 4.41 3 11.62 11.62 0 0 1 2.74 5 31.44 31.44 0 0 1 .76 7.71 38.3 38.3 0 0 1-.42 6.12 12.93 12.93 0 0 1-1.79 4.75 11.33 11.33 0 0 1-4.25 4.14 14.35 14.35 0 0 1-7 1.48h-3.95v21.07h-7.75Zm7.75 25.69h3.73a7.82 7.82 0 0 0 3.64-.69 4.28 4.28 0 0 0 1.9-1.86 7.19 7.19 0 0 0 .73-2.85c.07-1.11.11-2.35.11-3.72s0-2.47-.11-3.61a8.65 8.65 0 0 0-.69-3A4.31 4.31 0 0 0 453 38a6.91 6.91 0 0 0-3.49-.72h-4ZM468.62 30h23.1v7.3h-15.35v15.88h13.38v7.3h-13.38v15.88h15.35v7.75h-23.1Zm28.12 0h12.47q13.67 0 13.67 15.88A20.07 20.07 0 0 1 521.4 54a11.48 11.48 0 0 1-5.2 5.43l8.36 24.7h-8.21L509.13 61h-4.64v23.1h-7.75Zm7.75 24.17h4.41a7.8 7.8 0 0 0 3.27-.57A4.2 4.2 0 0 0 514 52a6.92 6.92 0 0 0 .87-2.62 24.07 24.07 0 0 0 .23-3.61 24.07 24.07 0 0 0-.23-3.61 6.52 6.52 0 0 0-.94-2.66 4.35 4.35 0 0 0-2-1.63 9 9 0 0 0-3.42-.53h-4ZM567.88 72a12.4 12.4 0 0 1-1 4.79 12.59 12.59 0 0 1-2.63 4 12.86 12.86 0 0 1-3.91 2.73 11.38 11.38 0 0 1-4.83 1 17.56 17.56 0 0 1-4.48-.61 10.86 10.86 0 0 1-4.1-2.09A11.32 11.32 0 0 1 544 78a14.24 14.24 0 0 1-1.18-6.16V42a13.12 13.12 0 0 1 .92-4.94 11.66 11.66 0 0 1 2.58-4 12.16 12.16 0 0 1 4-2.63 13.5 13.5 0 0 1 5.13-.95 12.79 12.79 0 0 1 4.94.95 11.86 11.86 0 0 1 3.95 2.66 12.29 12.29 0 0 1 2.63 4.11 14 14 0 0 1 1 5.2v3h-7.76v-2.48a6.27 6.27 0 0 0-1.29-4 4.17 4.17 0 0 0-3.49-1.67c-1.93 0-3.21.59-3.84 1.78a9.49 9.49 0 0 0-1 4.52v27.72a7.18 7.18 0 0 0 1 4 4.07 4.07 0 0 0 3.69 1.6 5.5 5.5 0 0 0 1.63-.27 4.24 4.24 0 0 0 2.76-2.6 6.84 6.84 0 0 0 .45-2.66v-2.66h7.76Zm6.53-42h7.75v54.11h-7.75Zm-316.76 91.2H269a15.91 15.91 0 0 1 6.35 1.14 11.86 11.86 0 0 1 4.29 3 11.41 11.41 0 0 1 2.4 4.37 18.27 18.27 0 0 1 .72 5.13v2a17.74 17.74 0 0 1-.34 3.72 8.94 8.94 0 0 1-1 2.66 8.52 8.52 0 0 1-1.67 2 14.49 14.49 0 0 1-2.28 1.64 8.41 8.41 0 0 1 4 3.84 15.11 15.11 0 0 1 1.29 6.8v3q0 7.14-3.46 10.94t-11.06 3.8h-10.59Zm7.75 22.19h3.5c2.58 0 4.31-.64 5.2-1.94a10 10 0 0 0 1.33-5.66 8.54 8.54 0 0 0-1.48-5.47c-1-1.22-2.77-1.82-5.36-1.82h-3.19Zm0 24.17h3.34a8.29 8.29 0 0 0 3.69-.68 4.68 4.68 0 0 0 2-1.9 7.1 7.1 0 0 0 .84-2.89c.1-1.12.15-2.33.15-3.65a23.24 23.24 0 0 0-.23-3.57 5.88 5.88 0 0 0-.95-2.55 4.53 4.53 0 0 0-2-1.56 9.22 9.22 0 0 0-3.42-.53h-3.42ZM290 121.2h23.11v7.3h-15.33v15.88h13.37v7.3h-13.37v15.88h15.35v7.75H290Zm27.84 0h7.45L337 153.8h.15v-32.6h7.76v54.11h-7.3l-11.86-32.53h-.15v32.53h-7.75Zm34.05 0H375v7.3h-15.36v15.88H373v7.3h-13.36v15.88H375v7.75h-23.1Zm28.11 0h23.1v7.3h-15.34v16.41h13.37v7.3h-13.37v23.1H380Zm28.35 0h7.75v54.11h-7.75Zm20.37 7.3h-9v-7.3h25.69v7.3h-9v46.81h-7.75Zm45.22 8.28h-7.75V135a8.28 8.28 0 0 0-1.26-4.6 4.63 4.63 0 0 0-4.22-1.93 5.16 5.16 0 0 0-2.62.6 4.57 4.57 0 0 0-1.59 1.56 6.44 6.44 0 0 0-.8 2.21 14.76 14.76 0 0 0-.23 2.62 25.69 25.69 0 0 0 .12 2.7 4.66 4.66 0 0 0 .57 1.9 4.2 4.2 0 0 0 1.33 1.4 12.17 12.17 0 0 0 2.39 1.22l5.93 2.35a15 15 0 0 1 4.18 2.32 9.49 9.49 0 0 1 2.47 3.12 13.2 13.2 0 0 1 1.17 4.1 39.72 39.72 0 0 1 .31 5.28 28.23 28.23 0 0 1-.68 6.35 13.5 13.5 0 0 1-2.25 5 10.81 10.81 0 0 1-4.14 3.3 14.76 14.76 0 0 1-6.31 1.22 13.77 13.77 0 0 1-5.24-1 12.76 12.76 0 0 1-4.18-2.7 12.75 12.75 0 0 1-3.8-9.16V160h7.75v2.43a6.31 6.31 0 0 0 1.26 3.84c.83 1.14 2.24 1.71 4.21 1.71a6.79 6.79 0 0 0 3.08-.57 3.92 3.92 0 0 0 1.67-1.6 6.67 6.67 0 0 0 .73-2.55c.1-1 .15-2.12.15-3.34a33.36 33.36 0 0 0-.15-3.5 5.67 5.67 0 0 0-.65-2.2 4 4 0 0 0-1.37-1.37 18.65 18.65 0 0 0-2.32-1.14l-5.54-2.28q-5-2.06-6.73-5.43a18.72 18.72 0 0 1-1.71-8.48 19.54 19.54 0 0 1 .84-5.77 13.22 13.22 0 0 1 2.47-4.71 11.74 11.74 0 0 1 4.14-3.16 13.69 13.69 0 0 1 5.85-1.18 12.84 12.84 0 0 1 5.28 1.07 13.21 13.21 0 0 1 4.11 2.81 12.79 12.79 0 0 1 2.62 3.91 11.54 11.54 0 0 1 .91 4.45Zm18.39-15.58h11.48q6.6 0 10.1 3.69c2.33 2.45 3.5 5.89 3.5 10.29v25.31q0 7.6-3.69 11.21t-10.6 3.61h-10.79Zm7.75 46.8h3.57q3.27 0 4.64-1.64t1.37-5.13v-26.05a8.22 8.22 0 0 0-1.29-4.94q-1.31-1.74-4.72-1.74h-3.57Zm24.63-46.8h23.1v7.3h-15.35v15.88h13.37v7.3h-13.37v15.88h15.35v7.75h-23.1Zm28.12 0h7.44l10 28.65h.15l9.88-28.65h7.53v54.11H580V142.4h-.15l-7.67 23.26h-3.88l-7.6-23.26h-.15v32.91h-7.75Zm41.79 12.8a13.68 13.68 0 0 1 1.15-5.78 12.08 12.08 0 0 1 3-4.14 12.91 12.91 0 0 1 4.18-2.47 13.4 13.4 0 0 1 9.34 0 12.91 12.91 0 0 1 4.18 2.47 12 12 0 0 1 3 4.14 13.83 13.83 0 0 1 1.14 5.78v28.57a13.8 13.8 0 0 1-1.14 5.82 12.1 12.1 0 0 1-3 4.1 12.74 12.74 0 0 1-4.18 2.47 13.4 13.4 0 0 1-9.34 0 12.74 12.74 0 0 1-4.18-2.47 12.21 12.21 0 0 1-3-4.1 13.64 13.64 0 0 1-1.15-5.82Zm7.76 28.57a5.16 5.16 0 0 0 1.56 4.15 5.77 5.77 0 0 0 7.37 0 5.16 5.16 0 0 0 1.56-4.15V134a5.13 5.13 0 0 0-1.56-4.14 5.77 5.77 0 0 0-7.37 0 5.13 5.13 0 0 0-1.56 4.14Z" style="fill:#07448e"/></svg>