<svg id="Layer_1" data-name="Layer 1" xmlns="http://www.w3.org/2000/svg" viewBox="0 0 912.86 71"><defs><style>.cls-3{fill:#f9c7e4}</style></defs><path style="fill:#fff" d="M0 0h912.86v71H0z"/><path style="fill:#07448e" d="M431.07 0h70.99v70.99h-70.99z"/><path class="cls-3" d="m468.94 13.94-3.35 7q.68-.06 1.38-.06a14.54 14.54 0 0 1 13.1 20.81l.37-.4 3.07 8.05 7.18 2.44A28.82 28.82 0 0 0 467 6.57h-1.42Z"/><path class="cls-3" d="m447.13 46.18 7.73-2.76a14.51 14.51 0 0 1 7.84-21.91l3.63-7.59-3.27-7.08a28.83 28.83 0 0 0-18.58 46.6Z"/><path class="cls-3" d="m481.7 51.21-2.84-7.46a14.52 14.52 0 0 1-20.23 3.54 14 14 0 0 1-2.22-1.92L449 48l-2.71 7.42a28.81 28.81 0 0 0 40.71.68 30.72 30.72 0 0 0 2.19-2.37Z"/></svg>