<svg data-name="Layer 1" xmlns="http://www.w3.org/2000/svg" viewBox="0 0 900 900"><path style="fill:#07448e" d="M0 0h900v900H0z"/><path d="M69.73 843a12.25 12.25 0 0 1-1 4.94 12.72 12.72 0 0 1-6.69 6.69 12.45 12.45 0 0 1-9.73 0 12.79 12.79 0 0 1-4-2.7 12.59 12.59 0 0 1-2.69-4 12.25 12.25 0 0 1-1-4.94V801h7.78v41.19a5.81 5.81 0 0 0 1.37 4.26 5 5 0 0 0 6.84 0 5.81 5.81 0 0 0 1.39-4.26V801h7.75Z" transform="translate(-1)" style="fill:#f9c7e4"/><path style="fill:#f9c7e4" d="M75.72 801h7.45l11.7 32.6h.15V801h7.76v54.11h-7.3l-11.86-32.53h-.15v32.53h-7.75V801zm34.27 0h7.75v54.11h-7.75zm20.37 7.29h-8.97V801h25.69v7.29h-8.97v46.82h-7.75v-46.82z"/><path d="M176.58 816.58h-7.75v-1.75a8.28 8.28 0 0 0-1.26-4.6 4.63 4.63 0 0 0-4.21-1.94 5.17 5.17 0 0 0-2.63.61 4.57 4.57 0 0 0-1.59 1.56 6.52 6.52 0 0 0-.8 2.21 14.76 14.76 0 0 0-.23 2.62 25.69 25.69 0 0 0 .12 2.7 4.56 4.56 0 0 0 .57 1.89 4.13 4.13 0 0 0 1.33 1.41 12.17 12.17 0 0 0 2.39 1.22l5.93 2.35a14.77 14.77 0 0 1 4.18 2.32 9.49 9.49 0 0 1 2.47 3.12 13.48 13.48 0 0 1 1.18 4.1 41.61 41.61 0 0 1 .3 5.28 28.23 28.23 0 0 1-.68 6.35 13.38 13.38 0 0 1-2.25 5 10.66 10.66 0 0 1-4.14 3.31 14.73 14.73 0 0 1-6.31 1.22 13.77 13.77 0 0 1-5.24-1 12.87 12.87 0 0 1-4.18-2.7 12.75 12.75 0 0 1-3.8-9.16v-2.88h7.75v2.43a6.34 6.34 0 0 0 1.26 3.84c.83 1.14 2.24 1.71 4.21 1.71a6.93 6.93 0 0 0 3.08-.57 3.92 3.92 0 0 0 1.67-1.6 6.73 6.73 0 0 0 .73-2.55c.1-1 .15-2.13.15-3.34a33.36 33.36 0 0 0-.15-3.5 5.67 5.67 0 0 0-.65-2.2 4 4 0 0 0-1.37-1.37 18.65 18.65 0 0 0-2.32-1.14l-5.54-2.28q-5-2.06-6.73-5.43a18.72 18.72 0 0 1-1.71-8.48 19.54 19.54 0 0 1 .84-5.77 13.22 13.22 0 0 1 2.47-4.71 11.83 11.83 0 0 1 4.14-3.16 13.69 13.69 0 0 1 5.85-1.18 12.81 12.81 0 0 1 5.28 1.07 13 13 0 0 1 4.11 2.81 12.61 12.61 0 0 1 2.62 3.91 11.36 11.36 0 0 1 .91 4.45Zm19.42-2.81a13.83 13.83 0 0 1 1.14-5.78 12.08 12.08 0 0 1 3-4.14 12.91 12.91 0 0 1 4.18-2.47 13.43 13.43 0 0 1 9.35 0 13.13 13.13 0 0 1 4.18 2.47 12.08 12.08 0 0 1 3 4.14 13.83 13.83 0 0 1 1.14 5.78v28.57a13.8 13.8 0 0 1-1.14 5.82 12.21 12.21 0 0 1-3 4.1 13.13 13.13 0 0 1-4.18 2.47 13.43 13.43 0 0 1-9.35 0 12.91 12.91 0 0 1-4.18-2.47 12.21 12.21 0 0 1-3-4.1 13.8 13.8 0 0 1-1.14-5.82Zm7.75 28.57a5.16 5.16 0 0 0 1.56 4.15 5.77 5.77 0 0 0 7.37 0 5.16 5.16 0 0 0 1.56-4.15v-28.57a5.16 5.16 0 0 0-1.56-4.15 5.77 5.77 0 0 0-7.37 0 5.16 5.16 0 0 0-1.56 4.15Z" transform="translate(-1)" style="fill:#f9c7e4"/><path style="fill:#f9c7e4" d="M227.87 801h23.1v7.29h-15.35v16.42H249v7.3h-13.38v23.1h-7.75V801zm42.25 0h7.45l9.95 28.65h.16l9.88-28.65h7.52v54.11h-7.75V822.2h-.15l-7.68 23.26h-3.87l-7.61-23.26h-.15v32.91h-7.75V801zm42.26 0h23.1v7.29h-15.35v15.89h13.37v7.3h-13.37v15.88h15.35v7.75h-23.1V801z"/><path d="M350.08 801h6.46l12.09 54.11h-7.75l-2.28-11.63H348l-2.28 11.63H338Zm3.27 15.58h-.15l-3.8 19.61h7.75Zm44.16 0h-7.75v-1.75a8.28 8.28 0 0 0-1.26-4.6 4.64 4.64 0 0 0-4.22-1.94 5.16 5.16 0 0 0-2.62.61 4.57 4.57 0 0 0-1.59 1.56 6.52 6.52 0 0 0-.8 2.21 14.76 14.76 0 0 0-.23 2.62c0 1.06 0 2 .11 2.7a4.88 4.88 0 0 0 .57 1.89 4.33 4.33 0 0 0 1.33 1.41 12.3 12.3 0 0 0 2.4 1.22l5.93 2.35a14.77 14.77 0 0 1 4.18 2.32 9.62 9.62 0 0 1 2.44 3.12 13.2 13.2 0 0 1 1.17 4.1 39.72 39.72 0 0 1 .31 5.28 27.65 27.65 0 0 1-.69 6.35 13.21 13.21 0 0 1-2.24 5 10.74 10.74 0 0 1-4.14 3.31 14.76 14.76 0 0 1-6.31 1.22 13.77 13.77 0 0 1-5.24-1 12.61 12.61 0 0 1-8-11.86v-2.88h7.75v2.43a6.39 6.39 0 0 0 1.25 3.84c.84 1.14 2.25 1.71 4.22 1.71a6.93 6.93 0 0 0 3.08-.57 4 4 0 0 0 1.67-1.6 6.55 6.55 0 0 0 .72-2.55 31.17 31.17 0 0 0 .16-3.34 30.51 30.51 0 0 0-.16-3.5 5.51 5.51 0 0 0-.64-2.2 4 4 0 0 0-1.37-1.37 19.38 19.38 0 0 0-2.32-1.14l-5.55-2.28q-5-2.06-6.72-5.43a18.72 18.72 0 0 1-1.71-8.48 19.88 19.88 0 0 1 .83-5.77 13.38 13.38 0 0 1 2.47-4.71 11.78 11.78 0 0 1 4.15-3.16 13.69 13.69 0 0 1 5.85-1.18 13 13 0 0 1 9.38 3.88 12.64 12.64 0 0 1 2.63 3.91 11.54 11.54 0 0 1 .91 4.45ZM428.36 843a12.41 12.41 0 0 1-1 4.94 12.72 12.72 0 0 1-6.69 6.69 12.45 12.45 0 0 1-9.73 0 12.72 12.72 0 0 1-6.69-6.69 12.25 12.25 0 0 1-1-4.94v-42H411v41.19a5.81 5.81 0 0 0 1.36 4.26 5 5 0 0 0 6.84 0 5.77 5.77 0 0 0 1.37-4.26V801h7.75Zm7.3-42h12.46q13.68 0 13.68 15.88a20.07 20.07 0 0 1-1.48 8.1 11.48 11.48 0 0 1-5.2 5.43l8.36 24.7h-8.21L448.05 832h-4.64v23.1h-7.75Zm7.75 24.17h4.41a7.8 7.8 0 0 0 3.27-.57A4.2 4.2 0 0 0 453 823a6.92 6.92 0 0 0 .87-2.62 28.45 28.45 0 0 0 0-7.22 6.52 6.52 0 0 0-.95-2.66 4.28 4.28 0 0 0-2-1.63 9 9 0 0 0-3.42-.54h-4Z" transform="translate(-1)" style="fill:#f9c7e4"/><path style="fill:#f9c7e4" d="M467.04 801h23.1v7.29h-15.35v15.89h13.37v7.3h-13.37v15.88h15.35v7.75h-23.1V801z"/><path d="M123.6 219h7.55q4.35 0 6.65 2.42a9.49 9.49 0 0 1 2.3 6.78v16.65q0 5-2.42 7.37t-7 2.38h-7.1Zm5.1 30.8h2.35a3.78 3.78 0 0 0 3-1.08 5.18 5.18 0 0 0 .9-3.37V228.2a5.37 5.37 0 0 0-.85-3.25 3.62 3.62 0 0 0-3.1-1.15h-2.3Z" transform="translate(-1)" style="fill:#f9c7e4"/><path style="fill:#f9c7e4" d="M143.9 219h15.2v4.8H149v10.45h8.8v4.8H149v10.45h10.1v5.1h-15.2V219zm28.5 35.6h-4.5l-7.25-35.6h5.4l4.05 24.85h.1l4.1-24.85h5.4l-7.3 35.6zm10.35-35.6h15.2v4.8h-10.1v10.45h8.8v4.8h-8.8v10.45h10.1v5.1h-15.2V219zm18.5 0h5.1v30.5h10.1v5.1h-15.2V219z"/><path d="M220.45 227.4a9.11 9.11 0 0 1 .75-3.8 8 8 0 0 1 2-2.73 8.57 8.57 0 0 1 2.75-1.62 8.89 8.89 0 0 1 3.07-.55 9 9 0 0 1 3.08.55 8.79 8.79 0 0 1 2.75 1.62 8.06 8.06 0 0 1 2 2.73 9.11 9.11 0 0 1 .75 3.8v18.8a9 9 0 0 1-.75 3.82 7.93 7.93 0 0 1-2 2.7 8.63 8.63 0 0 1-2.75 1.63 9 9 0 0 1-3.08.55 8.89 8.89 0 0 1-3.07-.55 8.42 8.42 0 0 1-2.75-1.63 7.83 7.83 0 0 1-2-2.7 9 9 0 0 1-.75-3.82Zm5.1 18.8a3.36 3.36 0 0 0 1 2.72 3.57 3.57 0 0 0 2.42.88 3.62 3.62 0 0 0 2.43-.88 3.39 3.39 0 0 0 1-2.72v-18.8a3.42 3.42 0 0 0-1-2.73 3.66 3.66 0 0 0-2.43-.87 3.61 3.61 0 0 0-2.42.87 3.4 3.4 0 0 0-1 2.73Zm16.5-27.2h7.65a11.3 11.3 0 0 1 3.7.55 7.16 7.16 0 0 1 2.9 1.95 7.52 7.52 0 0 1 1.8 3.27 20.71 20.71 0 0 1 .5 5.08 25.58 25.58 0 0 1-.27 4 8.63 8.63 0 0 1-1.18 3.13 7.38 7.38 0 0 1-2.8 2.72 9.43 9.43 0 0 1-4.6 1h-2.6v13.9h-5.1Zm5.1 16.9h2.45a5.23 5.23 0 0 0 2.4-.45 2.86 2.86 0 0 0 1.25-1.23 4.67 4.67 0 0 0 .48-1.87c.05-.73.07-1.55.07-2.45s0-1.63-.07-2.38a5.59 5.59 0 0 0-.45-2 2.91 2.91 0 0 0-1.18-1.3 4.62 4.62 0 0 0-2.3-.47h-2.65Z" transform="translate(-1)" style="fill:#f9c7e4"/><path style="fill:#f9c7e4" d="M261.4 219h15.2v4.8h-10.1v10.45h8.8v4.8h-8.8v10.45h10.1v5.1h-15.2V219z"/><path d="M280.9 219h8.2q9 0 9 10.45a13.16 13.16 0 0 1-1 5.32 7.47 7.47 0 0 1-3.42 3.58l5.5 16.25h-5.4l-4.75-15.2H286v15.2h-5.1Zm5.1 15.9h2.9a5.11 5.11 0 0 0 2.15-.38 2.72 2.72 0 0 0 1.22-1.07 4.47 4.47 0 0 0 .58-1.73 16.48 16.48 0 0 0 .15-2.37 16.73 16.73 0 0 0-.15-2.38 4.44 4.44 0 0 0-.62-1.75 2.83 2.83 0 0 0-1.33-1.07 6.1 6.1 0 0 0-2.25-.35H286Zm347.9-15.25a8.21 8.21 0 0 1-2.35 5.77 8.51 8.51 0 0 1-2.57 1.8 7.6 7.6 0 0 1-3.18.68 11.26 11.26 0 0 1-2.95-.4 7.12 7.12 0 0 1-4.67-3.95 9.25 9.25 0 0 1-.78-4.05v-19.6a8.66 8.66 0 0 1 .6-3.25 7.67 7.67 0 0 1 1.7-2.6 8 8 0 0 1 2.63-1.73 8.91 8.91 0 0 1 3.37-.62 8.47 8.47 0 0 1 3.25.62 7.79 7.79 0 0 1 2.6 1.75 8 8 0 0 1 1.73 2.7 9.38 9.38 0 0 1 .62 3.43v2h-5.1v-1.7a4.1 4.1 0 0 0-.85-2.6 2.76 2.76 0 0 0-2.3-1.1 2.58 2.58 0 0 0-2.52 1.17 6.29 6.29 0 0 0-.63 3v18.2a4.72 4.72 0 0 0 .68 2.6 2.65 2.65 0 0 0 2.42 1.05 3.69 3.69 0 0 0 1.08-.18 2.84 2.84 0 0 0 1.05-.57 3 3 0 0 0 .77-1.1 4.47 4.47 0 0 0 .3-1.75v-1.75h5.1Z" transform="translate(-1)" style="fill:#f9c7e4"/><path style="fill:#f9c7e4" d="M637.2 192h5.1v35.6h-5.1z"/><path d="M673.75 219.65a8.23 8.23 0 0 1-.62 3.15 8.36 8.36 0 0 1-1.73 2.62 8.51 8.51 0 0 1-2.57 1.8 7.6 7.6 0 0 1-3.18.68 11.26 11.26 0 0 1-2.95-.4 7.12 7.12 0 0 1-4.67-3.95 9.25 9.25 0 0 1-.78-4.05v-19.6a8.66 8.66 0 0 1 .6-3.25 7.67 7.67 0 0 1 1.7-2.6 8 8 0 0 1 2.63-1.73 8.91 8.91 0 0 1 3.37-.62 8.47 8.47 0 0 1 3.25.62 7.79 7.79 0 0 1 2.6 1.75 8.18 8.18 0 0 1 1.73 2.7 9.38 9.38 0 0 1 .62 3.43v2h-5.1v-1.7a4.1 4.1 0 0 0-.85-2.6 2.76 2.76 0 0 0-2.3-1.1 2.58 2.58 0 0 0-2.5 1.2 6.29 6.29 0 0 0-.63 3v18.2a4.72 4.72 0 0 0 .68 2.6 2.65 2.65 0 0 0 2.42 1.05 3.69 3.69 0 0 0 1.08-.18 2.84 2.84 0 0 0 1.05-.57 3 3 0 0 0 .77-1.1 4.47 4.47 0 0 0 .3-1.75v-1.75h5.1Z" transform="translate(-1)" style="fill:#f9c7e4"/><path style="fill:#f9c7e4" d="M676.9 192h5.1v15.25h6.3V192h5.1v35.6h-5.1v-15.85H682v15.85h-5.1V192zm21.3 0h15.2v4.8h-10.1v10.45h8.8v4.8h-8.8v10.45h10.1v5.1h-15.2V192z"/><path d="M733.9 219.65a8.23 8.23 0 0 1-.62 3.15 8.36 8.36 0 0 1-1.73 2.62 8.51 8.51 0 0 1-2.57 1.8 7.6 7.6 0 0 1-3.18.68 11.26 11.26 0 0 1-2.95-.4 7.12 7.12 0 0 1-4.67-3.95 9.25 9.25 0 0 1-.78-4.05v-19.6a8.66 8.66 0 0 1 .6-3.25 7.67 7.67 0 0 1 1.7-2.6 8 8 0 0 1 2.63-1.73 8.91 8.91 0 0 1 3.37-.62 8.47 8.47 0 0 1 3.25.62 7.79 7.79 0 0 1 2.6 1.75 8.18 8.18 0 0 1 1.73 2.7 9.38 9.38 0 0 1 .62 3.43v2h-5.1v-1.7a4.1 4.1 0 0 0-.85-2.6 2.76 2.76 0 0 0-2.3-1.1 2.58 2.58 0 0 0-2.52 1.17 6.29 6.29 0 0 0-.63 3v18.2a4.72 4.72 0 0 0 .68 2.6 2.65 2.65 0 0 0 2.42 1.05 3.69 3.69 0 0 0 1.08-.18 2.84 2.84 0 0 0 1.05-.57 3 3 0 0 0 .77-1.1 4.47 4.47 0 0 0 .3-1.75v-1.75h5.1Z" transform="translate(-1)" style="fill:#f9c7e4"/><path style="fill:#f9c7e4" d="M737.05 192h5.1v16.25h.1L749.7 192h5.1l-6.95 14.25 8.25 21.35h-5.4l-5.8-15.8-2.75 5.15v10.65h-5.1V192z"/><path d="M613.55 492h7.65a11.3 11.3 0 0 1 3.7.55 7.16 7.16 0 0 1 2.9 1.95 7.52 7.52 0 0 1 1.8 3.27 20.71 20.71 0 0 1 .5 5.08 25.8 25.8 0 0 1-.27 4 8.65 8.65 0 0 1-1.18 3.12 7.38 7.38 0 0 1-2.8 2.72 9.32 9.32 0 0 1-4.6 1h-2.6v13.9h-5.1Zm5.1 16.9h2.45a5.23 5.23 0 0 0 2.4-.45 2.86 2.86 0 0 0 1.25-1.23 4.67 4.67 0 0 0 .48-1.87c0-.73.07-1.55.07-2.45s0-1.63-.07-2.38a5.59 5.59 0 0 0-.45-1.95 2.91 2.91 0 0 0-1.18-1.3 4.62 4.62 0 0 0-2.3-.47h-2.65ZM637.7 492h4.3l7.95 35.6h-5.1l-1.55-7.6h-6.95l-1.5 7.65h-5.1Zm2.15 10.25h-.1l-2.5 12.9h5.1Zm28.75 17.4a8.23 8.23 0 0 1-.62 3.15 8.36 8.36 0 0 1-1.73 2.62 8.51 8.51 0 0 1-2.57 1.8 7.6 7.6 0 0 1-3.18.68 11.31 11.31 0 0 1-3-.4 7.12 7.12 0 0 1-4.67-4 9.25 9.25 0 0 1-.78-4v-19.6a8.66 8.66 0 0 1 .6-3.25 7.67 7.67 0 0 1 1.7-2.6 8 8 0 0 1 2.63-1.73 8.91 8.91 0 0 1 3.37-.62 8.47 8.47 0 0 1 3.25.62 7.79 7.79 0 0 1 2.6 1.75 8.18 8.18 0 0 1 1.73 2.7 9.38 9.38 0 0 1 .62 3.43v2h-5.1v-1.7a4.1 4.1 0 0 0-.85-2.6 2.76 2.76 0 0 0-2.3-1.1 2.58 2.58 0 0 0-2.52 1.17 6.29 6.29 0 0 0-.63 3v18.2a4.72 4.72 0 0 0 .68 2.6 2.65 2.65 0 0 0 2.42 1 3.69 3.69 0 0 0 1.08-.18 2.84 2.84 0 0 0 1-.57 3 3 0 0 0 .77-1.1 4.47 4.47 0 0 0 .3-1.75v-1.75h5.1Z" transform="translate(-1)" style="fill:#f9c7e4"/><path style="fill:#f9c7e4" d="M671.75 492h5.1v16.25h.1L684.4 492h5.1l-6.95 14.25 8.25 21.35h-5.4l-5.8-15.8-2.75 5.15v10.65h-5.1V492z"/><path d="M699.7 492h4.3l7.95 35.6h-5.1l-1.55-7.6h-6.95l-1.5 7.65h-5.1Zm2.15 10.25h-.1l-2.5 12.9h5.1Zm12.25-1.85a9.11 9.11 0 0 1 .75-3.8 7.81 7.81 0 0 1 2-2.72 8.42 8.42 0 0 1 2.75-1.63 8.89 8.89 0 0 1 3.07-.55 9 9 0 0 1 3.08.55 8.63 8.63 0 0 1 2.75 1.63 7.92 7.92 0 0 1 2 2.72 9.11 9.11 0 0 1 .75 3.8v1.8h-5.1v-1.8a3.42 3.42 0 0 0-1-2.73 3.66 3.66 0 0 0-2.43-.87 3.61 3.61 0 0 0-2.42.87 3.4 3.4 0 0 0-1 2.73v18.8a3.36 3.36 0 0 0 1 2.72 3.57 3.57 0 0 0 2.42.88 3.62 3.62 0 0 0 2.43-.88 3.39 3.39 0 0 0 1-2.72v-6.7h-4.05V508h9.15v11.2a9 9 0 0 1-.75 3.82 7.93 7.93 0 0 1-2 2.7 8.63 8.63 0 0 1-2.75 1.63 9 9 0 0 1-3.08.55 8.89 8.89 0 0 1-3.07-.55 8.42 8.42 0 0 1-2.75-1.63 7.83 7.83 0 0 1-2-2.7 9 9 0 0 1-.75-3.82Z" transform="translate(-1)" style="fill:#f9c7e4"/><path style="fill:#f9c7e4" d="M734.7 492h15.2v4.8h-10.1v10.45h8.8v4.8h-8.8v10.45h10.1v5.1h-15.2V492zm18.2 30.5h5.1v5.1l-5.1 3.7v-8.8zM618.53 552h4.9l6.55 18.85h.1l6.5-18.85h4.95v35.6h-5.1v-21.65h-.1l-5.05 15.3h-2.55l-5-15.3h-.1v21.65h-5.1V552z"/><path d="M647 560.4a9.11 9.11 0 0 1 .75-3.8 7.79 7.79 0 0 1 2-2.72 8.53 8.53 0 0 1 2.75-1.63 8.87 8.87 0 0 1 6.15 0 8.53 8.53 0 0 1 2.75 1.63 7.81 7.81 0 0 1 2 2.72 9.11 9.11 0 0 1 .75 3.8v18.8a9 9 0 0 1-.75 3.82 7.83 7.83 0 0 1-2 2.7 8.53 8.53 0 0 1-2.75 1.63 8.87 8.87 0 0 1-6.15 0 8.53 8.53 0 0 1-2.75-1.63 7.8 7.8 0 0 1-2-2.7 9 9 0 0 1-.75-3.82Zm5.1 18.8a3.39 3.39 0 0 0 1 2.72 3.78 3.78 0 0 0 4.85 0 3.39 3.39 0 0 0 1-2.72v-18.8a3.43 3.43 0 0 0-1-2.73 3.81 3.81 0 0 0-4.85 0 3.42 3.42 0 0 0-1 2.73Zm16.53-27.2h7.55c2.9 0 5.11.81 6.65 2.42a9.49 9.49 0 0 1 2.3 6.78v16.65q0 5-2.43 7.37t-7 2.38h-7.1Zm5.1 30.8h2.35a3.78 3.78 0 0 0 3-1.08 5.18 5.18 0 0 0 .9-3.37V561.2a5.44 5.44 0 0 0-.85-3.25 3.62 3.62 0 0 0-3.1-1.15h-2.35Zm32.7-3.2a8.13 8.13 0 0 1-.65 3.25 8.5 8.5 0 0 1-1.78 2.62 8.33 8.33 0 0 1-2.62 1.78 8.2 8.2 0 0 1-6.4 0 8.35 8.35 0 0 1-4.4-4.4 8 8 0 0 1-.65-3.25V552H695v27.1a3.81 3.81 0 0 0 .9 2.8 3.26 3.26 0 0 0 4.5 0 3.81 3.81 0 0 0 .9-2.8V552h5.1Z" transform="translate(-1)" style="fill:#f9c7e4"/><path style="fill:#f9c7e4" d="M710.23 552h5.1v30.5h10.1v5.1h-15.2V552zm18.5 0h15.2v4.8h-10.1v10.45h8.8v4.8h-8.8v10.45h10.1v5.1h-15.2V552zm18.2 30.5h5.1v5.1l-5.1 3.7v-8.8z"/><path d="M600 639.6a8 8 0 0 1-.65 3.25 8.35 8.35 0 0 1-4.4 4.4 8.2 8.2 0 0 1-6.4 0 8.33 8.33 0 0 1-2.62-1.78 8.5 8.5 0 0 1-1.78-2.62 8.13 8.13 0 0 1-.65-3.25V612h5.1v27.1a3.81 3.81 0 0 0 .9 2.8 3.26 3.26 0 0 0 4.5 0 3.81 3.81 0 0 0 .9-2.8V612h5.1Z" transform="translate(-1)" style="fill:#f9c7e4"/><path style="fill:#f9c7e4" d="M603.55 612h4.9l7.7 21.45h.1V612h5.1v35.6h-4.8l-7.8-21.4h-.1v21.4h-5.1V612zm22.55 0h5.1v35.6h-5.1zm13.4 4.8h-5.9V612h16.9v4.8h-5.9v30.8h-5.1v-30.8z"/><path d="M662.75 620.4a9.11 9.11 0 0 1 .75-3.8 7.81 7.81 0 0 1 2-2.72 8.42 8.42 0 0 1 2.75-1.63 8.89 8.89 0 0 1 3.07-.55 9 9 0 0 1 3.08.55 8.48 8.48 0 0 1 2.74 1.63 7.81 7.81 0 0 1 2 2.72 9.11 9.11 0 0 1 .75 3.8v18.8a9 9 0 0 1-.75 3.82 7.83 7.83 0 0 1-2 2.7 8.48 8.48 0 0 1-2.74 1.63 9 9 0 0 1-3.08.55 8.89 8.89 0 0 1-3.07-.55 8.42 8.42 0 0 1-2.75-1.63 7.83 7.83 0 0 1-2-2.7 9 9 0 0 1-.75-3.82Zm5.1 18.8a3.36 3.36 0 0 0 1 2.72 3.57 3.57 0 0 0 2.42.88 3.62 3.62 0 0 0 2.43-.88 3.39 3.39 0 0 0 1-2.72v-18.8a3.42 3.42 0 0 0-1-2.73 3.66 3.66 0 0 0-2.43-.87 3.61 3.61 0 0 0-2.42.87 3.4 3.4 0 0 0-1 2.73Z" transform="translate(-1)" style="fill:#f9c7e4"/><path style="fill:#f9c7e4" d="M683.35 612h15.2v4.8h-10.1v10.8h8.8v4.8h-8.8v15.2h-5.1V612z"/><path d="M728.35 639.65a8.05 8.05 0 0 1-.63 3.15 8.17 8.17 0 0 1-1.72 2.62 8.43 8.43 0 0 1-2.58 1.8 7.52 7.52 0 0 1-3.17.68 11.26 11.26 0 0 1-3-.4 7.22 7.22 0 0 1-2.7-1.38 7.42 7.42 0 0 1-2-2.57 9.41 9.41 0 0 1-.77-4V619.9a8.66 8.66 0 0 1 .6-3.25 7.67 7.67 0 0 1 1.7-2.6 8 8 0 0 1 2.62-1.73 9 9 0 0 1 3.38-.62 8.47 8.47 0 0 1 3.25.62 7.79 7.79 0 0 1 2.6 1.75 8 8 0 0 1 1.72 2.7 9.18 9.18 0 0 1 .63 3.43v2h-5.1v-1.7a4.1 4.1 0 0 0-.85-2.6 2.76 2.76 0 0 0-2.3-1.1 2.6 2.6 0 0 0-2.53 1.17 6.42 6.42 0 0 0-.62 3v18.2a4.72 4.72 0 0 0 .67 2.6 2.66 2.66 0 0 0 2.43 1 3.58 3.58 0 0 0 1.07-.18 2.69 2.69 0 0 0 1-.57A2.87 2.87 0 0 0 723 641a4.47 4.47 0 0 0 .3-1.75v-1.75h5.1Zm3.85-19.25a9.11 9.11 0 0 1 .75-3.8 7.92 7.92 0 0 1 2-2.72 8.63 8.63 0 0 1 2.75-1.63 9 9 0 0 1 3.08-.55 8.89 8.89 0 0 1 3.07.55 8.42 8.42 0 0 1 2.75 1.63 7.81 7.81 0 0 1 2 2.72 9.11 9.11 0 0 1 .75 3.8v18.8a9 9 0 0 1-.75 3.82 7.83 7.83 0 0 1-2 2.7 8.42 8.42 0 0 1-2.75 1.63 8.89 8.89 0 0 1-3.07.55 9 9 0 0 1-3.08-.55 8.63 8.63 0 0 1-2.75-1.63 7.93 7.93 0 0 1-2-2.7 9 9 0 0 1-.75-3.82Zm5.1 18.8a3.39 3.39 0 0 0 1 2.72 3.62 3.62 0 0 0 2.43.88 3.57 3.57 0 0 0 2.42-.88 3.36 3.36 0 0 0 1-2.72v-18.8a3.4 3.4 0 0 0-1-2.73 3.61 3.61 0 0 0-2.42-.87 3.66 3.66 0 0 0-2.43.87 3.42 3.42 0 0 0-1 2.73Zm16.5-27.2h7.55q4.35 0 6.65 2.42a9.49 9.49 0 0 1 2.3 6.78v16.65q0 5-2.42 7.37t-7 2.38h-7.1Zm5.1 30.8h2.35a3.78 3.78 0 0 0 3-1.08 5.18 5.18 0 0 0 .9-3.37V621.2a5.37 5.37 0 0 0-.85-3.25 3.62 3.62 0 0 0-3.1-1.15h-2.3Z" transform="translate(-1)" style="fill:#f9c7e4"/><path style="fill:#f9c7e4" d="M774.1 612h15.2v4.8h-10.1v10.45h8.8v4.8h-8.8v10.45h10.1v5.1h-15.2V612z"/><path d="M683 454.92h-.34a14.8 14.8 0 0 0-1.62-1q-38.88-18.74-77.76-37.42a2.48 2.48 0 0 1-1.65-2.64q.06-45 0-89.94a2.41 2.41 0 0 1 1.65-2.61q35-15.93 70-31.95c4.51-2.07 9-4.21 13.46-6.32h.67c.53.29 1 .62 1.6.88q40 18.36 80 36.69a2.42 2.42 0 0 1 1.69 2.59q-.06 44.91 0 89.81a2.44 2.44 0 0 1-1.72 2.59q-35.53 16.1-70.98 32.32c-5 2.3-10 4.66-15 7Zm-73.83-129.41c0 .62-.1 1.05-.1 1.48v82.9a1.93 1.93 0 0 0 1.27 2q36.27 17.18 72.51 34.4c.42.2.87.34 1.39.53 0-.55.06-.88.06-1.22v-84.41a2.23 2.23 0 0 0-1.66-2.3q-35.94-16.31-71.84-32.69c-.49-.2-.99-.42-1.63-.69Zm82.52 118.54c.6-.25.91-.37 1.21-.51q34.55-16.34 69.1-32.64c1.12-.53 1.18-1.25 1.18-2.25V324.5c-.76.35-1.31.57-1.84.83-6.48 3.17-12.94 6.36-19.43 9.49a2.16 2.16 0 0 0-1.44 2.27v37.27a2.15 2.15 0 0 1-1.3 2.21c-6.55 3.53-13.05 7.13-19.57 10.7-.42.23-.87.41-1.65.77v-41.19c-.82.37-1.33.58-1.82.82-7.63 3.74-15.24 7.52-22.89 11.21a2.38 2.38 0 0 0-1.57 2.52v76.55Zm-74.23-122a5.39 5.39 0 0 0 .58.42q34.05 15.39 68.09 30.75a2.17 2.17 0 0 0 1.56.08c7.92-3.75 15.81-7.54 23.8-11.36a6.35 6.35 0 0 0-.62-.47Q678 326 645.06 310.59a2.06 2.06 0 0 0-1.54 0c-8.64 3.74-17.26 7.57-26.06 11.47Zm136.91-.62c-.61-.32-1-.58-1.46-.78q-32.31-14.75-64.63-29.45a3.37 3.37 0 0 0-2.46 0c-5.67 2.51-11.3 5.11-16.93 7.7-.4.18-.78.44-1.21.69a1.65 1.65 0 0 0 .26.19q33.87 14.94 67.76 29.84a1.84 1.84 0 0 0 1.38.05c5.71-2.67 11.39-5.41 17.29-8.23Z" transform="translate(-1)" style="fill:#f7eec9"/><path style="fill:#f9c7e4" d="M128.23 529.6h-4.79l-3.91-23.1h-.09l-3.86 23.1h-4.8l-5.3-35.6h5.41l2.55 22.6h.09l4-22.6h3.91l4.14 23.15h.11l2.44-23.15h5.4l-5.3 35.6zm8.5-35.6h5.1v15.25h6.3V494h5.1v35.6h-5.1v-15.85h-6.3v15.85h-5.1V494zm21.3 0h15.2v4.8h-10.1v10.45h8.8v4.8h-8.8v10.45h10.1v5.1h-15.2V494zm21.85 4.8h-5.9V494h16.9v4.8h-5.9v30.8h-5.1v-30.8zm13.25-4.8h5.1v15.25h6.3V494h5.1v35.6h-5.1v-15.85h-6.3v15.85h-5.1V494zm21.3 0h15.2v4.8h-10.1v10.45h8.8v4.8h-8.8v10.45h10.1v5.1h-15.2V494z"/><path d="M233.93 494h8.2q9 0 9 10.45a13.17 13.17 0 0 1-1 5.32 7.54 7.54 0 0 1-3.43 3.58l5.5 16.25h-5.4l-4.75-15.2H239v15.2h-5.1Zm5.1 15.9h2.9a5.11 5.11 0 0 0 2.15-.38 2.8 2.8 0 0 0 1.23-1.07 4.64 4.64 0 0 0 .57-1.73 16.48 16.48 0 0 0 .15-2.37 16.73 16.73 0 0 0-.15-2.38 4.44 4.44 0 0 0-.62-1.75 2.83 2.83 0 0 0-1.33-1.07 6.1 6.1 0 0 0-2.25-.35H239Z" transform="translate(-1)" style="fill:#f9c7e4"/><path style="fill:#f9c7e4" d="M263.68 494h5.1v35.6h-5.1zm13.4 4.8h-5.9V494h16.9v4.8h-5.9v30.8h-5.1v-30.8zm22.7-4.8h5.1v35.6h-5.1z"/><path d="M327.33 504.25h-5.1v-1.15a5.46 5.46 0 0 0-.83-3 3 3 0 0 0-2.77-1.27 3.33 3.33 0 0 0-1.73.4 3 3 0 0 0-1 1 4.3 4.3 0 0 0-.52 1.45 9.69 9.69 0 0 0-.15 1.73 17.69 17.69 0 0 0 .07 1.77 3.11 3.11 0 0 0 .38 1.25 2.94 2.94 0 0 0 .87.93 8.2 8.2 0 0 0 1.58.8l3.9 1.55a9.71 9.71 0 0 1 2.75 1.52 6.24 6.24 0 0 1 1.62 2 8.52 8.52 0 0 1 .78 2.7 27.7 27.7 0 0 1 .2 3.48 18.26 18.26 0 0 1-.45 4.17 8.61 8.61 0 0 1-1.48 3.3 7 7 0 0 1-2.72 2.18 9.78 9.78 0 0 1-4.15.8 9.09 9.09 0 0 1-3.45-.65 8.26 8.26 0 0 1-2.75-1.78 8.3 8.3 0 0 1-2.5-6v-1.9h5.1v1.6a4.15 4.15 0 0 0 .82 2.52 3.23 3.23 0 0 0 2.78 1.13 4.45 4.45 0 0 0 2-.38 2.58 2.58 0 0 0 1.1-1 4.43 4.43 0 0 0 .48-1.68 21.29 21.29 0 0 0 .1-2.2 20.74 20.74 0 0 0-.1-2.3 3.66 3.66 0 0 0-.43-1.45 2.43 2.43 0 0 0-.9-.9 12.68 12.68 0 0 0-1.52-.75l-3.65-1.5a8.08 8.08 0 0 1-4.46-3.62 12.28 12.28 0 0 1-1.12-5.57 12.84 12.84 0 0 1 .55-3.8 9.06 9.06 0 0 1 1.62-3.1 7.81 7.81 0 0 1 2.73-2.08 9.06 9.06 0 0 1 3.85-.77 8.41 8.41 0 0 1 3.47.7 8.64 8.64 0 0 1 2.7 1.85 8.37 8.37 0 0 1 1.73 2.57 7.49 7.49 0 0 1 .6 2.93Zm-238.57 60h-5.1v-1.15a5.46 5.46 0 0 0-.83-3 3 3 0 0 0-2.77-1.27 3.33 3.33 0 0 0-1.73.4 3 3 0 0 0-1 1 4.3 4.3 0 0 0-.52 1.45 9.69 9.69 0 0 0-.15 1.73 17.69 17.69 0 0 0 .07 1.77 3.11 3.11 0 0 0 .38 1.25 2.94 2.94 0 0 0 .87.93 8.2 8.2 0 0 0 1.58.8l3.9 1.55a9.71 9.71 0 0 1 2.75 1.52 6.24 6.24 0 0 1 1.62 2 8.52 8.52 0 0 1 .78 2.7 27.7 27.7 0 0 1 .2 3.48 18.26 18.26 0 0 1-.45 4.17 8.61 8.61 0 0 1-1.48 3.3 7 7 0 0 1-2.72 2.18 9.75 9.75 0 0 1-4.15.8 9.17 9.17 0 0 1-3.45-.65 8.3 8.3 0 0 1-5.25-7.8v-1.9h5.1v1.6a4.15 4.15 0 0 0 .82 2.52A3.23 3.23 0 0 0 80 584.8a4.43 4.43 0 0 0 2-.38 2.58 2.58 0 0 0 1.1-1 4.43 4.43 0 0 0 .48-1.68 21.29 21.29 0 0 0 .1-2.2 20.74 20.74 0 0 0-.1-2.3 3.66 3.66 0 0 0-.43-1.45 2.43 2.43 0 0 0-.9-.9 12.68 12.68 0 0 0-1.52-.75l-3.65-1.5a8.08 8.08 0 0 1-4.45-3.64 12.28 12.28 0 0 1-1.12-5.57 12.84 12.84 0 0 1 .55-3.8 9.06 9.06 0 0 1 1.62-3.1 7.81 7.81 0 0 1 2.73-2.08 9.06 9.06 0 0 1 3.85-.77 8.37 8.37 0 0 1 3.47.7 8.64 8.64 0 0 1 2.7 1.85 8.37 8.37 0 0 1 1.73 2.57 7.49 7.49 0 0 1 .6 2.93Z" transform="translate(-1)" style="fill:#f9c7e4"/><path style="fill:#f9c7e4" d="M91.56 554h15.2v4.8h-10.1v10.45h8.8v4.8h-8.8v10.45h10.1v5.1h-15.2V554z"/><path d="M127.26 581.65a8.05 8.05 0 0 1-.63 3.15 8.17 8.17 0 0 1-1.72 2.62 8.55 8.55 0 0 1-2.58 1.8 7.52 7.52 0 0 1-3.17.68 11.26 11.26 0 0 1-3-.4 7.22 7.22 0 0 1-2.7-1.38 7.42 7.42 0 0 1-2-2.57 9.41 9.41 0 0 1-.77-4V561.9a8.66 8.66 0 0 1 .6-3.25 7.67 7.67 0 0 1 1.7-2.6 8 8 0 0 1 2.62-1.73 9 9 0 0 1 3.38-.62 8.51 8.51 0 0 1 3.25.62 7.89 7.89 0 0 1 2.6 1.75 8 8 0 0 1 1.72 2.7 9.18 9.18 0 0 1 .63 3.43v2h-5.1v-1.7a4.1 4.1 0 0 0-.85-2.6 2.78 2.78 0 0 0-2.3-1.1 2.6 2.6 0 0 0-2.53 1.17 6.42 6.42 0 0 0-.62 3v18.2a4.72 4.72 0 0 0 .67 2.6 2.66 2.66 0 0 0 2.43 1 3.58 3.58 0 0 0 1.07-.18 2.69 2.69 0 0 0 1-.57 2.87 2.87 0 0 0 .78-1.1 4.47 4.47 0 0 0 .3-1.75v-1.75h5.1Zm20.65-.05a8.13 8.13 0 0 1-.65 3.25 8.45 8.45 0 0 1-4.4 4.4 8.2 8.2 0 0 1-6.4 0 8.35 8.35 0 0 1-4.4-4.4 8 8 0 0 1-.65-3.25V554h5.1v27.1a3.81 3.81 0 0 0 .9 2.8 3.26 3.26 0 0 0 4.5 0 3.81 3.81 0 0 0 .9-2.8V554h5.1Zm4.8-27.6h8.2q9 0 9 10.45a13.16 13.16 0 0 1-1 5.32 7.52 7.52 0 0 1-3.42 3.58L171 589.6h-5.4l-4.75-15.2h-3.05v15.2h-5.1Zm5.1 15.9h2.9a5.11 5.11 0 0 0 2.15-.38 2.72 2.72 0 0 0 1.22-1.07 4.47 4.47 0 0 0 .58-1.73 16.48 16.48 0 0 0 .15-2.37 16.73 16.73 0 0 0-.15-2.38 4.29 4.29 0 0 0-.63-1.75 2.8 2.8 0 0 0-1.32-1.07 6.1 6.1 0 0 0-2.25-.35h-2.65Z" transform="translate(-1)" style="fill:#f9c7e4"/><path style="fill:#f9c7e4" d="M173.01 554h15.2v4.8h-10.1v10.45h8.8v4.8h-8.8v10.45h10.1v5.1h-15.2V554z"/><path d="M201.51 562.4a9.11 9.11 0 0 1 .75-3.8 7.92 7.92 0 0 1 2-2.72 8.53 8.53 0 0 1 2.75-1.63 8.87 8.87 0 0 1 6.15 0 8.53 8.53 0 0 1 2.75 1.63 7.81 7.81 0 0 1 2 2.72 9.11 9.11 0 0 1 .75 3.8v18.8a9 9 0 0 1-.75 3.82 7.83 7.83 0 0 1-2 2.7 8.53 8.53 0 0 1-2.75 1.63 8.87 8.87 0 0 1-6.15 0 8.53 8.53 0 0 1-2.75-1.63 7.93 7.93 0 0 1-2-2.7 9 9 0 0 1-.75-3.82Zm5.1 18.8a3.39 3.39 0 0 0 1 2.72 3.78 3.78 0 0 0 4.85 0 3.36 3.36 0 0 0 1-2.72v-18.8a3.4 3.4 0 0 0-1-2.73 3.81 3.81 0 0 0-4.85 0 3.42 3.42 0 0 0-1 2.73Zm16.5-27.2h8.2q9 0 9 10.45a13.16 13.16 0 0 1-1 5.32 7.52 7.52 0 0 1-3.42 3.58l5.5 16.25H236l-4.75-15.2h-3v15.2h-5.1Zm5.1 15.9h2.9a5.15 5.15 0 0 0 2.15-.38 2.72 2.72 0 0 0 1.22-1.07 4.64 4.64 0 0 0 .58-1.73 16.48 16.48 0 0 0 .15-2.37 16.73 16.73 0 0 0-.15-2.38 4.29 4.29 0 0 0-.63-1.75 2.85 2.85 0 0 0-1.32-1.07 6.1 6.1 0 0 0-2.25-.35h-2.65Z" transform="translate(-1)" style="fill:#f9c7e4"/><path style="fill:#f9c7e4" d="M273.86 589.6h-4.8l-3.9-23.1h-.1l-3.85 23.1h-4.8L251.1 554h5.41l2.55 22.6h.1l4-22.6h3.9l4.15 23.15h.1l2.45-23.15h5.4l-5.3 35.6z"/><path d="M282.46 562.4a9.11 9.11 0 0 1 .75-3.8 7.79 7.79 0 0 1 2-2.72 8.53 8.53 0 0 1 2.75-1.63 8.87 8.87 0 0 1 6.15 0 8.53 8.53 0 0 1 2.75 1.63 7.81 7.81 0 0 1 2 2.72 9.11 9.11 0 0 1 .75 3.8v18.8a9 9 0 0 1-.75 3.82 7.83 7.83 0 0 1-2 2.7 8.53 8.53 0 0 1-2.75 1.63 8.87 8.87 0 0 1-6.15 0 8.53 8.53 0 0 1-2.75-1.63 7.8 7.8 0 0 1-2-2.7 9 9 0 0 1-.75-3.82Zm5.1 18.8a3.39 3.39 0 0 0 1 2.72 3.78 3.78 0 0 0 4.85 0 3.39 3.39 0 0 0 1-2.72v-18.8a3.43 3.43 0 0 0-1-2.73 3.81 3.81 0 0 0-4.85 0 3.42 3.42 0 0 0-1 2.73Zm16.5-27.2h8.2q9 0 9 10.45a13.16 13.16 0 0 1-1 5.32 7.52 7.52 0 0 1-3.42 3.58l5.5 16.25H317l-4.75-15.2h-3v15.2h-5.1Zm5.1 15.9h2.9a5.15 5.15 0 0 0 2.15-.38 2.72 2.72 0 0 0 1.22-1.07 4.64 4.64 0 0 0 .58-1.73 16.48 16.48 0 0 0 .15-2.37A16.73 16.73 0 0 0 316 562a4.29 4.29 0 0 0-.63-1.75 2.85 2.85 0 0 0-1.32-1.07 6.1 6.1 0 0 0-2.25-.35h-2.65Z" transform="translate(-1)" style="fill:#f9c7e4"/><path style="fill:#f9c7e4" d="M324.36 554h5.09v16.25h.11L337 554h5.11l-6.96 14.25 8.25 21.35H338l-5.8-15.8-2.75 5.15v10.65h-5.09V554z"/><path d="M363.16 564.25h-5.11v-1.15a5.45 5.45 0 0 0-.82-3 3.05 3.05 0 0 0-2.77-1.27 3.31 3.31 0 0 0-1.73.4 3 3 0 0 0-1.05 1 4.1 4.1 0 0 0-.52 1.45 8.83 8.83 0 0 0-.16 1.73 17.34 17.34 0 0 0 .08 1.77 2.85 2.85 0 0 0 1.25 2.18 7.91 7.91 0 0 0 1.58.8l3.89 1.55a9.44 9.44 0 0 1 2.75 1.52 6.27 6.27 0 0 1 1.63 2A9.07 9.07 0 0 1 363 576a27.7 27.7 0 0 1 .2 3.48 18.84 18.84 0 0 1-.45 4.17 8.76 8.76 0 0 1-1.48 3.3 7 7 0 0 1-2.73 2.18 9.7 9.7 0 0 1-4.14.8 9.09 9.09 0 0 1-3.45-.65 8.26 8.26 0 0 1-2.75-1.78 8.3 8.3 0 0 1-2.5-6v-1.9h5.09v1.6a4.16 4.16 0 0 0 .83 2.52 3.21 3.21 0 0 0 2.78 1.13 4.45 4.45 0 0 0 2-.38 2.63 2.63 0 0 0 1.1-1 4.43 4.43 0 0 0 .48-1.68c.06-.67.09-1.4.09-2.2s0-1.7-.09-2.3a3.66 3.66 0 0 0-.43-1.45 2.59 2.59 0 0 0-.9-.9 12.68 12.68 0 0 0-1.52-.75l-3.65-1.5A8 8 0 0 1 347 569a12.28 12.28 0 0 1-1.12-5.57 12.84 12.84 0 0 1 .55-3.8 8.72 8.72 0 0 1 1.62-3.1 7.87 7.87 0 0 1 2.72-2.08 9.14 9.14 0 0 1 3.86-.77 8.41 8.41 0 0 1 3.47.7 8.64 8.64 0 0 1 2.7 1.85 8.17 8.17 0 0 1 1.72 2.57 7.33 7.33 0 0 1 .61 2.93Z" transform="translate(-1)" style="fill:#f9c7e4"/><path style="fill:#f9c7e4" d="M119.08 614h5.1v35.6h-5.1z"/><path d="M146.63 624.25h-5.1v-1.15a5.45 5.45 0 0 0-.82-3 3.06 3.06 0 0 0-2.78-1.27 3.29 3.29 0 0 0-1.72.4 3 3 0 0 0-1.05 1 4.31 4.31 0 0 0-.53 1.45 9.69 9.69 0 0 0-.15 1.73 17.34 17.34 0 0 0 .08 1.77 3.11 3.11 0 0 0 .37 1.25 2.86 2.86 0 0 0 .88.93 8.07 8.07 0 0 0 1.57.8l3.9 1.55a9.58 9.58 0 0 1 2.75 1.52 6.27 6.27 0 0 1 1.63 2 8.78 8.78 0 0 1 .77 2.7 25.93 25.93 0 0 1 .2 3.48 18.26 18.26 0 0 1-.45 4.17 8.75 8.75 0 0 1-1.47 3.3 7 7 0 0 1-2.71 2.22 9.72 9.72 0 0 1-4.15.8 9.17 9.17 0 0 1-3.45-.65 8.23 8.23 0 0 1-4.57-4.45 8.29 8.29 0 0 1-.68-3.35v-1.9h5.1v1.6a4.16 4.16 0 0 0 .83 2.52 3.21 3.21 0 0 0 2.77 1.13 4.47 4.47 0 0 0 2-.38 2.63 2.63 0 0 0 1.1-1 4.26 4.26 0 0 0 .47-1.68 21.29 21.29 0 0 0 .1-2.2 20.74 20.74 0 0 0-.1-2.3 3.66 3.66 0 0 0-.42-1.45 2.59 2.59 0 0 0-.9-.9 12.92 12.92 0 0 0-1.53-.75l-3.65-1.5a8 8 0 0 1-4.42-3.58 12.27 12.27 0 0 1-1.13-5.57 13.17 13.17 0 0 1 .55-3.8 8.9 8.9 0 0 1 1.63-3.1 7.77 7.77 0 0 1 2.72-2.08 9.09 9.09 0 0 1 3.85-.77 8.42 8.42 0 0 1 3.48.7 8.64 8.64 0 0 1 2.7 1.85 8.34 8.34 0 0 1 1.72 2.57 7.49 7.49 0 0 1 .6 2.93Zm29.6 17.35a8.13 8.13 0 0 1-.65 3.25 8.35 8.35 0 0 1-4.4 4.4 8.2 8.2 0 0 1-6.4 0 8.33 8.33 0 0 1-2.62-1.78 8.5 8.5 0 0 1-1.78-2.62 8.13 8.13 0 0 1-.65-3.25V614h5.1v27.1a3.81 3.81 0 0 0 .9 2.8 3.26 3.26 0 0 0 4.5 0 3.81 3.81 0 0 0 .9-2.8V614h5.1Z" transform="translate(-1)" style="fill:#f9c7e4"/><path style="fill:#f9c7e4" d="M179.83 614h4.9l7.7 21.45h.1V614h5.1v35.6h-4.8l-7.8-21.4h-.1v21.4h-5.1V614zm22.4 0h5.1v16.25h.1l7.45-16.25h5.1l-6.95 14.25 8.25 21.35h-5.4l-5.8-15.8-2.75 5.15v10.65h-5.1V614zm21.1 0h4.9l7.7 21.45h.1V614h5.1v35.6h-4.8l-7.8-21.4h-.1v21.4h-5.1V614z"/><path d="M246.43 622.4a9.11 9.11 0 0 1 .75-3.8 7.81 7.81 0 0 1 2-2.72 8.42 8.42 0 0 1 2.75-1.63 8.89 8.89 0 0 1 3.07-.55 9 9 0 0 1 3.08.55 8.63 8.63 0 0 1 2.75 1.63 7.92 7.92 0 0 1 2 2.72 9.11 9.11 0 0 1 .75 3.8v18.8a9 9 0 0 1-.75 3.82 7.93 7.93 0 0 1-2 2.7 8.63 8.63 0 0 1-2.75 1.63 9 9 0 0 1-3.08.55 8.89 8.89 0 0 1-3.07-.55 8.42 8.42 0 0 1-2.75-1.63 7.83 7.83 0 0 1-2-2.7 9 9 0 0 1-.75-3.82Zm5.1 18.8a3.36 3.36 0 0 0 1 2.72 3.57 3.57 0 0 0 2.42.88 3.62 3.62 0 0 0 2.43-.88 3.39 3.39 0 0 0 1-2.72v-18.8a3.42 3.42 0 0 0-1-2.73 3.66 3.66 0 0 0-2.43-.87 3.61 3.61 0 0 0-2.42.87 3.4 3.4 0 0 0-1 2.73Z" transform="translate(-1)" style="fill:#f9c7e4"/><path style="fill:#f9c7e4" d="M287.58 649.6h-4.8l-3.9-23.1h-.1l-3.85 23.1h-4.8l-5.3-35.6h5.4l2.55 22.6h.1l4-22.6h3.9l4.15 23.15h.1l2.45-23.15h5.4l-5.3 35.6zm8.3-35.6h4.9l7.7 21.45h.1V614h5.1v35.6h-4.8l-7.8-21.4h-.1v21.4h-5.1V614z"/><path d="M229.39 413.05H204q-.1-5.49-.1-6.68 0-12.37 4.09-20.36t16.36-18q12.27-10 14.67-13.07a17.48 17.48 0 0 0 3.69-10.77 18.17 18.17 0 0 0-6.53-14q-6.54-5.83-17.61-5.84-10.68 0-17.86 6.09T190.78 349L165 345.8q1.1-17.85 15.21-30.33T217.32 303q24.15 0 38.41 12.62T270 345a32.31 32.31 0 0 1-5.24 17.56q-5.24 8.29-22.4 22.55-8.88 7.39-11 11.88t-1.97 16.06ZM204 450.77v-28h28v28Zm84-268.15H147.44c.61-13.44 12.15-27.79 25-30.82 3.48-.82 4.81-3.43 5.16-6.05a163.69 163.69 0 0 0 1.83-22.19c0-8.62-1.51-17.23-1.52-25.84a55 55 0 0 1 5.63-24.41c6.37-13 16.7-19.62 31.29-19.28 3.67.08 7.39-.2 11 .31 11.89 1.68 20.2 8.42 25.1 19.19 5.86 12.89 6.85 26.41 4.84 40.35-1.38 9.52-1.93 19.14.12 28.66a25.09 25.09 0 0 0 2.47 6.61 5.28 5.28 0 0 0 3.2 2.39c9.56 1.82 15.86 7.74 20.09 16 2.4 4.72 4.13 9.75 6.35 15.08Zm-40.4-80.15c-2.44 4.69-5.2 2.48-8 1Q223.16 95 206.7 86.56c-4.57-2.34-9-2-12.09 2.12-2.47 3.32-3.78 7.49-5.61 11.32-.43.92-.52 2.21-1.21 2.77-3.89 3.07-3.13 12.34 1.22 14.86a5.81 5.81 0 0 1 2.35 2.56c2.69 6.42 6.17 12.28 11.28 17.07 9.24 8.66 19.88 8.74 29.2.17a46.43 46.43 0 0 0 11.32-17 5.66 5.66 0 0 1 1.56-2.59 11 11 0 0 0 2.88-15.37Zm-56 47.83c2 6.34 14.61 13 25.63 13s23.55-6.64 25.66-13.1l-7.24-8c-11.43 9.84-23 11.65-36.58 0Z" transform="translate(-1)" style="fill:#f7eec9"/><path style="fill:#f9c7e4" d="M40 730h815v13H40z"/><path style="fill:#f7eec9" d="m646.76 99.87-18.13 20.93 37.66 33.48L741.62 65h-29.29l-44.64 54.4-20.93-19.53z"/></svg>