<svg data-name="Layer 1" xmlns="http://www.w3.org/2000/svg" viewBox="0 0 900 900"><path style="fill:#07448e" d="M0 0h900v900H0z"/><text transform="translate(52 722.31)" style="font-size:51px;fill:#f9c7e4;font-family:DINCondensed-Bold,DIN Condensed;font-weight:700">MU<tspan x="50.08" y="0" style="letter-spacing:-.0730124080882353em">L</tspan><tspan x="65.23" y="0">TIPLE DEVS, MERGING IN</tspan><tspan x="449.56" y="0" style="letter-spacing:-.011010263480392158em">T</tspan><tspan x="465.93" y="0">O 1 PKG, USED BY 1 </tspan></text><text transform="translate(52 783.51)" style="font-size:51px;fill:#f9c7e4;font-family:DINCondensed-Bold,DIN Condensed;font-weight:700">DEV <tspan x="70.84" y="0" style="letter-spacing:-.010991115196078432em">W</tspan><tspan x="100.52" y="0">ORKING ON 1 PKG WHICH IS BEING MERGED </tspan></text><text transform="translate(52 844.71)" style="font-size:51px;fill:#f9c7e4;font-family:DINCondensed-Bold,DIN Condensed;font-weight:700">IN<tspan x="33.05" y="0" style="letter-spacing:-.011010263480392158em">T</tspan><tspan x="49.42" y="0">O BY MU</tspan><tspan x="181.71" y="0" style="letter-spacing:-.0730124080882353em">L</tspan><tspan x="196.86" y="0" style="letter-spacing:-.00001914828431372549em">TIPLE OHTHER DEVS ...[</tspan><tspan x="555.68" y="0" style="letter-spacing:-.011010263480392158em">T</tspan><tspan x="572.05" y="0">O INFINITY]</tspan></text><path style="fill:#f9c7e4" d="M52 634h815v13H52z"/><path d="M453.8 597.89h-.18a8.25 8.25 0 0 0-.88-.57q-20.91-10.08-41.85-20.13a1.35 1.35 0 0 1-.89-1.42v-48.42a1.3 1.3 0 0 1 .89-1.4q18.84-8.58 37.65-17.2c2.43-1.11 4.83-2.27 7.25-3.4h.36c.28.16.56.34.85.47q21.53 9.88 43.05 19.75A1.31 1.31 0 0 1 501 527v48.33a1.31 1.31 0 0 1-.92 1.4q-19.08 8.68-38.16 17.42c-2.74 1.2-5.43 2.48-8.12 3.74Zm-39.74-69.66c0 .34-.05.57-.05.8v44.62a1 1 0 0 0 .68 1.09l39 18.52c.23.11.47.18.75.29v-46.09a1.2 1.2 0 0 0-.89-1.24l-38.61-17.62c-.26-.12-.54-.22-.88-.37ZM458.48 592c.32-.14.49-.2.65-.28q18.58-8.79 37.2-17.57c.6-.28.63-.67.63-1.21v-45.25c-.41.18-.71.31-1 .45-3.49 1.7-7 3.42-10.46 5.1a1.17 1.17 0 0 0-.78 1.22v20.07a1.15 1.15 0 0 1-.7 1.18c-3.52 1.91-7 3.84-10.53 5.76-.23.13-.47.22-.89.42v-22.17c-.45.2-.72.31-1 .44-4.11 2-8.2 4-12.32 6a1.3 1.3 0 0 0-.85 1.36v41.2Zm-40-65.67a2.38 2.38 0 0 0 .32.23l36.65 16.55a1.09 1.09 0 0 0 .83 0c4.27-2 8.52-4.05 12.81-6.11a2.38 2.38 0 0 0-.33-.25q-17.7-8.33-35.42-16.63a1.14 1.14 0 0 0-.83 0c-4.61 2.09-9.25 4.15-13.99 6.25Zm73.69-.33c-.32-.17-.55-.31-.78-.42q-17.39-7.93-34.79-15.85a1.82 1.82 0 0 0-1.32 0c-3.06 1.35-6.08 2.75-9.11 4.14-.22.1-.42.24-.66.38a1.41 1.41 0 0 1 .14.1q18.24 8 36.47 16.06a1 1 0 0 0 .75 0c3.13-1.41 6.13-2.85 9.34-4.41Z" style="fill:#f7eec9"/><path style="fill:none;stroke:#f9c7e4;stroke-miterlimit:10;stroke-width:13px" d="m236.5 329.5 154.49 98.98"/><path style="fill:#f9c7e4" d="m357.3 433.07 30.45-6.66-6.67-30.45 15.75 10.09 6.67 30.45-30.45 6.67-15.75-10.1z"/><path style="fill:#07448e" d="M170 320h567v31H170z"/><path transform="rotate(-47.14 166.916 123.855)" style="fill:#f9c7e4" d="M164.16 62.9h5.5v121.91h-5.5z"/><path style="fill:#f9c7e4" d="m197.22 164.7 13.19-.49-.5-13.19 5.8 5.39.5 13.19-13.19.49-5.8-5.39z"/><path transform="rotate(-89.87 240.66 124.694)" style="fill:#f9c7e4" d="M201.12 121.94h79.09v5.5h-79.09z"/><path style="fill:#f9c7e4" d="m231.27 153.25 9.31 9.36 9.35-9.31-.02 7.92-9.35 9.31-9.31-9.35.02-7.93z"/><path transform="rotate(-43.29 313.972 125.106)" style="fill:#f9c7e4" d="M251.67 122.36h124.57v5.5H251.67z"/><path style="fill:#f9c7e4" d="m270.2 153.52-.4 13.19 13.19.39-5.76 5.43-13.19-.39.39-13.19 5.77-5.43z"/><path style="fill:#07448e" d="M81.81 80.07h300.54v10.16H81.81z"/><path d="M132.11 227.68H132a3.42 3.42 0 0 0-.4-.26q-9.6-4.63-19.21-9.24a.62.62 0 0 1-.41-.66V195.3a.59.59 0 0 1 .41-.64l17.28-7.9c1.12-.51 2.22-1 3.33-1.56h.16l.4.22q9.87 4.53 19.76 9.06a.6.6 0 0 1 .42.64v22.19a.6.6 0 0 1-.43.64l-17.51 8Zm-18.25-32v20.85a.49.49 0 0 0 .32.51q9 4.23 17.91 8.5l.35.13v-21.16a.55.55 0 0 0-.44-.51l-17.74-8.09ZM134.25 225l.3-.12q8.53-4 17.08-8.07c.28-.13.29-.31.29-.55v-20.8l-.46.21c-1.6.78-3.19 1.57-4.8 2.34a.52.52 0 0 0-.35.56v9.21a.53.53 0 0 1-.32.55c-1.62.87-3.23 1.76-4.84 2.64a4.46 4.46 0 0 1-.41.19V201l-.45.2c-1.88.92-3.76 1.86-5.65 2.77a.58.58 0 0 0-.39.62v18.92Zm-18.34-30.14.15.1 16.82 7.6a.5.5 0 0 0 .38 0c2-.92 3.91-1.86 5.89-2.8l-.16-.12-16.26-7.64a.5.5 0 0 0-.38 0Zm33.83-.15a3.28 3.28 0 0 0-.36-.19c-5.32-2.43-10.64-4.87-16-7.28a.81.81 0 0 0-.61 0c-1.4.62-2.79 1.26-4.18 1.9l-.3.17h.07q8.36 3.69 16.74 7.37a.4.4 0 0 0 .34 0c1.44-.61 2.84-1.28 4.3-1.98Zm35.93 32.97h-.09a3.42 3.42 0 0 0-.4-.26q-9.6-4.63-19.21-9.24a.62.62 0 0 1-.41-.66V195.3a.59.59 0 0 1 .41-.64l17.28-7.9c1.12-.51 2.22-1 3.33-1.56h.17l.39.22q9.86 4.58 19.76 9.06a.6.6 0 0 1 .42.64v22.19a.6.6 0 0 1-.43.64l-17.51 8Zm-18.24-32a2.86 2.86 0 0 0 0 .37v20.48a.49.49 0 0 0 .32.51q9 4.23 17.91 8.5l.35.13v-21.16a.55.55 0 0 0-.41-.57l-17.74-8.09ZM187.81 225l.3-.12q8.53-4 17.08-8.07c.28-.13.29-.31.29-.55v-20.8l-.46.21c-1.6.78-3.19 1.57-4.8 2.34a.53.53 0 0 0-.35.56v9.21a.53.53 0 0 1-.32.55c-1.62.87-3.23 1.76-4.84 2.64a4.46 4.46 0 0 1-.41.19V201l-.45.2c-1.88.92-3.76 1.86-5.65 2.77a.58.58 0 0 0-.39.62v18.92Zm-18.34-30.14.15.1 16.82 7.6a.53.53 0 0 0 .39 0l5.88-2.8-.16-.12-16.26-7.64a.5.5 0 0 0-.38 0Zm33.83-.15a3.28 3.28 0 0 0-.36-.19c-5.32-2.43-10.64-4.87-16-7.28a.81.81 0 0 0-.61 0c-1.4.62-2.79 1.26-4.18 1.9l-.3.17h.07q8.37 3.69 16.74 7.37a.41.41 0 0 0 .34 0c1.44-.61 2.84-1.28 4.3-1.98Zm35.93 32.97h-.09a3.42 3.42 0 0 0-.4-.26q-9.6-4.63-19.21-9.24a.62.62 0 0 1-.41-.66V195.3a.59.59 0 0 1 .41-.64l17.28-7.9c1.12-.51 2.22-1 3.33-1.56h.17l.39.22q9.87 4.53 19.76 9.06a.6.6 0 0 1 .42.64v22.19a.61.61 0 0 1-.42.64q-8.77 4-17.52 8ZM221 195.7v20.85a.49.49 0 0 0 .32.51q9 4.23 17.91 8.5l.35.13v-21.16a.55.55 0 0 0-.41-.57l-17.74-8.09Zm20.38 29.3.29-.12q8.54-4 17.08-8.07c.28-.13.29-.31.29-.55v-20.8l-.46.21c-1.6.78-3.19 1.57-4.8 2.34a.53.53 0 0 0-.35.56v9.21a.53.53 0 0 1-.32.55c-1.62.87-3.23 1.76-4.84 2.64-.1.06-.21.1-.4.19V201l-.46.2c-1.88.92-3.76 1.86-5.65 2.77a.58.58 0 0 0-.39.62v18.92ZM223 194.85l.15.1 16.82 7.6a.53.53 0 0 0 .39 0l5.88-2.8-.16-.12-16.23-7.63a.5.5 0 0 0-.38 0Zm33.83-.15a3.28 3.28 0 0 0-.36-.19c-5.32-2.43-10.64-4.87-16-7.28a.81.81 0 0 0-.61 0c-1.4.62-2.79 1.26-4.18 1.9l-.3.17h.07l16.74 7.37a.41.41 0 0 0 .34 0c1.47-.6 2.87-1.27 4.33-1.97Zm35.96 32.98h-.08a3.54 3.54 0 0 0-.41-.26q-9.6-4.63-19.21-9.24a.62.62 0 0 1-.41-.66V195.3a.59.59 0 0 1 .41-.64q8.66-3.94 17.28-7.9c1.12-.51 2.22-1 3.33-1.56h.17l.39.22q9.89 4.53 19.76 9.06a.6.6 0 0 1 .42.64v22.19a.61.61 0 0 1-.42.64q-8.77 4-17.52 8Zm-18.24-32v20.85a.49.49 0 0 0 .32.51q9 4.23 17.91 8.5l.35.13v-21.16a.55.55 0 0 0-.41-.57L275 195.87ZM294.94 225l.29-.12q8.55-4 17.08-8.07c.28-.13.29-.31.29-.55v-20.8l-.46.21c-1.6.78-3.19 1.57-4.8 2.34a.55.55 0 0 0-.35.56v9.21a.53.53 0 0 1-.32.55c-1.62.87-3.22 1.76-4.84 2.64-.1.06-.21.1-.4.19V201l-.45.2c-1.89.92-3.77 1.86-5.66 2.77a.58.58 0 0 0-.39.62v18.92Zm-18.35-30.14.15.1 16.82 7.6a.53.53 0 0 0 .39 0l5.88-2.8-.16-.12q-8.12-3.83-16.26-7.63a.5.5 0 0 0-.38 0Zm33.83-.15a3.28 3.28 0 0 0-.36-.19c-5.32-2.43-10.64-4.87-16-7.28a.81.81 0 0 0-.61 0c-1.4.62-2.79 1.26-4.18 1.9l-.3.17h.07l16.74 7.37a.41.41 0 0 0 .34 0c1.44-.61 2.88-1.28 4.3-1.98Zm35.93 32.97h-.08a3.54 3.54 0 0 0-.41-.26q-9.6-4.63-19.21-9.24a.62.62 0 0 1-.41-.66V195.3a.59.59 0 0 1 .41-.64l17.29-7.9c1.11-.51 2.21-1 3.32-1.56h.17l.39.22q9.89 4.53 19.76 9.06a.6.6 0 0 1 .42.64v22.19a.6.6 0 0 1-.42.64l-17.52 8Zm-18.24-32v20.85a.48.48 0 0 0 .31.51q9 4.23 17.92 8.5c.1.05.21.08.34.13v-21.16a.55.55 0 0 0-.41-.57l-17.74-8.09ZM348.5 225l.29-.12 17.08-8.07c.28-.13.29-.31.29-.55v-20.8l-.45.21c-1.6.78-3.2 1.57-4.81 2.34a.55.55 0 0 0-.35.56v9.21a.53.53 0 0 1-.32.55c-1.62.87-3.22 1.76-4.84 2.64-.1.06-.21.1-.4.19V201l-.45.2c-1.89.92-3.77 1.86-5.66 2.77a.59.59 0 0 0-.39.62v18.92Zm-18.35-30.14.15.1 16.82 7.6a.53.53 0 0 0 .39 0l5.88-2.8-.15-.12L337 192a.5.5 0 0 0-.38 0Zm33.85-.16a3.28 3.28 0 0 0-.36-.19c-5.32-2.43-10.64-4.87-16-7.28a.78.78 0 0 0-.6 0c-1.41.62-2.8 1.26-4.19 1.9l-.3.17h.07l16.74 7.37a.41.41 0 0 0 .34 0c1.42-.6 2.83-1.27 4.3-1.97ZM263 331h-53.18c.23-5.08 4.6-10.51 9.47-11.66a2.5 2.5 0 0 0 2-2.29 62.18 62.18 0 0 0 .69-8.39c0-3.26-.57-6.52-.57-9.78a20.69 20.69 0 0 1 2.13-9.24c2.41-4.89 6.31-7.42 11.83-7.29a34.05 34.05 0 0 1 4.17.12 11.76 11.76 0 0 1 9.49 7.26 26.79 26.79 0 0 1 1.78 15.27 30.38 30.38 0 0 0 .05 10.84 9.43 9.43 0 0 0 .93 2.5 2 2 0 0 0 1.21.9 10.53 10.53 0 0 1 7.6 6.07c.91 1.77 1.56 3.69 2.4 5.69Zm-15.28-30.32c-.93 1.77-2 .94-3.05.38-4.13-2.15-8.28-4.27-12.43-6.4-1.72-.89-3.41-.75-4.57.8a23.89 23.89 0 0 0-2.11 4.27c-.16.35-.2.84-.46 1-1.47 1.16-1.18 4.67.46 5.62a2.19 2.19 0 0 1 .89 1 18.23 18.23 0 0 0 4.27 6.46c3.5 3.27 7.52 3.3 11.05.07a17.65 17.65 0 0 0 4.28-6.45 2.1 2.1 0 0 1 .59-1 4.15 4.15 0 0 0 1.08-5.75Zm-21.19 18.1c.74 2.39 5.53 4.92 9.69 4.92s8.91-2.51 9.71-5l-2.74-3c-4.32 3.72-8.71 4.41-13.84 0ZM131.93 83h-19.12a4.87 4.87 0 0 1 3.4-4.19.9.9 0 0 0 .71-.83 23.5 23.5 0 0 0 .25-3c0-1.18-.21-2.35-.21-3.52a7.39 7.39 0 0 1 .77-3.32 4.3 4.3 0 0 1 4.27-2.63 12.47 12.47 0 0 1 1.5 0 4.23 4.23 0 0 1 3.41 2.61 9.64 9.64 0 0 1 .66 5.49 10.88 10.88 0 0 0 0 3.9 3.25 3.25 0 0 0 .33.9.72.72 0 0 0 .44.32 3.8 3.8 0 0 1 2.73 2.27c.33.59.56 1.27.86 2Zm-5.49-10.9c-.33.64-.71.34-1.1.13l-4.47-2.3a1.21 1.21 0 0 0-1.64.29 8.82 8.82 0 0 0-.76 1.54c-.06.12-.07.3-.16.37a1.44 1.44 0 0 0 .16 2 .81.81 0 0 1 .32.34 6.63 6.63 0 0 0 1.54 2.33 2.69 2.69 0 0 0 4 0 6.29 6.29 0 0 0 1.54-2.32.82.82 0 0 1 .21-.35 1.49 1.49 0 0 0 .36-2.03Zm-7.62 6.5c.27.87 2 1.78 3.48 1.78s3.21-.91 3.5-1.79l-1-1.08c-1.55 1.34-3.13 1.58-5 0ZM368.89 83h-19.12a4.84 4.84 0 0 1 3.4-4.19.9.9 0 0 0 .7-.83 21.82 21.82 0 0 0 .25-3c0-1.18-.2-2.35-.2-3.52a7.38 7.38 0 0 1 .76-3.32 4.32 4.32 0 0 1 4.26-2.62 12.3 12.3 0 0 1 1.49 0 4.26 4.26 0 0 1 3.42 2.61 9.64 9.64 0 0 1 .66 5.49 10.88 10.88 0 0 0 0 3.9 3.63 3.63 0 0 0 .34.9.73.73 0 0 0 .43.32A3.83 3.83 0 0 1 368 81c.35.59.59 1.27.89 2Zm-5.5-10.9c-.33.64-.7.34-1.09.13l-4.47-2.3a1.21 1.21 0 0 0-1.64.29 8.17 8.17 0 0 0-.76 1.54c-.06.12-.07.3-.17.37a1.44 1.44 0 0 0 .17 2 .81.81 0 0 1 .32.34 6.6 6.6 0 0 0 1.53 2.33 2.69 2.69 0 0 0 4 0 6.17 6.17 0 0 0 1.54-2.32c.06-.12.11-.28.22-.35a1.49 1.49 0 0 0 .35-2.03Zm-7.62 6.5c.27.87 2 1.78 3.49 1.78s3.2-.91 3.49-1.79l-1-1.08a3.38 3.38 0 0 1-5 0ZM250.41 83h-19.12a4.84 4.84 0 0 1 3.4-4.19.9.9 0 0 0 .71-.83 21.8 21.8 0 0 0 .24-3c0-1.18-.2-2.35-.2-3.52a7.51 7.51 0 0 1 .76-3.32 4.32 4.32 0 0 1 4.26-2.62 12.52 12.52 0 0 1 1.5 0 4.26 4.26 0 0 1 3.41 2.61 9.64 9.64 0 0 1 .66 5.49 11.11 11.11 0 0 0 0 3.9 3.63 3.63 0 0 0 .34.9.72.72 0 0 0 .44.32 3.81 3.81 0 0 1 2.74 2.26c.32.59.56 1.27.86 2Zm-5.49-10.9c-.34.64-.71.34-1.1.13l-4.47-2.3a1.21 1.21 0 0 0-1.64.29 8.17 8.17 0 0 0-.76 1.54c-.06.12-.07.3-.17.37a1.44 1.44 0 0 0 .17 2 .81.81 0 0 1 .32.34 6.74 6.74 0 0 0 1.53 2.33 2.7 2.7 0 0 0 4 0 6.29 6.29 0 0 0 1.54-2.32.73.73 0 0 1 .21-.35 1.5 1.5 0 0 0 .37-2.03Zm-7.62 6.5c.26.87 2 1.78 3.48 1.78s3.21-.91 3.49-1.79l-1-1.08a3.38 3.38 0 0 1-5 0ZM79.4 40.26l-.14-.09-7.08-3.41a.22.22 0 0 1-.15-.24v-8.18a.23.23 0 0 1 .15-.24l6.37-2.9 1.22-.58h.06l.15.08 7.24 3.3a.21.21 0 0 1 .16.23v8.18a.23.23 0 0 1-.16.23l-6.45 3c-.46.19-.91.41-1.37.62Zm-6.71-11.77v7.68a.17.17 0 0 0 .12.18l6.6 3.13.12.05v-7.79a.21.21 0 0 0-.15-.21l-6.54-3Zm7.5 10.78h.11l6.29-3a.19.19 0 0 0 .11-.21V28.4l-.17.07-1.77.86a.21.21 0 0 0-.13.21v3.39a.19.19 0 0 1-.12.2l-1.78 1-.15.07v-3.77l-.17.07c-.69.34-1.38.69-2.08 1a.22.22 0 0 0-.14.23v7Zm-6.75-11.1 6.2 2.8h.14L82 30h-.06l-6-2.81h-.14Zm12.46-.05-.14-.07q-2.92-1.35-5.88-2.68h-.22l-1.54.7-.11.06 6.17 2.71h.12Zm13.23 12.14-.13-.09-7.08-3.41a.22.22 0 0 1-.15-.24v-8.18a.23.23 0 0 1 .15-.24l6.37-2.9 1.22-.58h.06l.15.08L107 28a.22.22 0 0 1 .15.23v8.18a.23.23 0 0 1-.16.23l-6.45 3Zm-6.72-11.77v7.68a.17.17 0 0 0 .11.18l6.6 3.13.13.05v-7.79a.2.2 0 0 0-.15-.21l-6.53-3Zm7.51 10.78h.11c2.09-1 4.19-2 6.29-3 .1 0 .1-.12.1-.21V28.4l-.16.07-1.77.86a.2.2 0 0 0-.13.21v3.39a.19.19 0 0 1-.12.2l-1.78 1-.15.07v-3.77l-.16.07c-.7.34-1.39.69-2.09 1a.23.23 0 0 0-.14.23v7.52Zm-6.76-11.1h.06L99.41 31h.14l2.17-1h-.06l-6-2.81h-.14Zm12.46-.05-.13-.07-5.88-2.68h-.23l-1.54.7-.11.06 6.16 2.71h.13Zm13.23 12.14-.15-.09-7.07-3.41a.21.21 0 0 1-.15-.24v-8.18a.22.22 0 0 1 .15-.24l6.37-2.9 1.23-.58h.06l.14.08 7.24 3.3a.22.22 0 0 1 .15.23v8.18a.22.22 0 0 1-.15.23l-6.45 3c-.46.19-.91.41-1.37.62Zm-6.72-11.77v7.68a.17.17 0 0 0 .12.18l6.6 3.13.12.05v-7.79a.21.21 0 0 0-.15-.21l-6.54-3Zm7.51 10.78h.11c2.1-1 4.19-2 6.29-3a.19.19 0 0 0 .11-.21V28.4l-.17.07-1.77.86a.21.21 0 0 0-.13.21v3.39a.2.2 0 0 1-.12.2l-1.78 1-.15.07v-3.77l-.17.07-2.08 1a.22.22 0 0 0-.14.23v7Zm-6.75-11.1 6.2 2.8h.14l2.16-1-6-2.81h-.14Zm12.46-.05-.14-.07-5.88-2.68h-.22l-1.54.7-.11.06 6.17 2.71h.12Zm13.23 12.14-.14-.09-7.08-3.41a.22.22 0 0 1-.15-.24v-8.18a.23.23 0 0 1 .15-.24l6.37-2.9 1.22-.58h.05l.15.08 7.24 3.3a.21.21 0 0 1 .16.23v8.18a.23.23 0 0 1-.16.23l-6.45 3c-.46.19-.94.41-1.36.62Zm-6.72-11.77v7.68a.17.17 0 0 0 .11.18l6.6 3.13.13.05v-7.79a.2.2 0 0 0-.15-.21l-6.53-3Zm7.51 10.78h.11l6.28-3c.11 0 .11-.12.11-.21V28.4l-.17.07-1.76.86a.2.2 0 0 0-.14.21v3.39a.19.19 0 0 1-.12.2l-1.78 1-.15.07v-3.77l-.17.07c-.69.34-1.38.69-2.08 1a.23.23 0 0 0-.14.23v7.52Zm-6.76-11.1h.06l6.19 2.8h.14l2.17-1h-.06l-6-2.81H135Zm12.46-.05-.13-.07-5.88-2.68h-.23l-1.54.7-.11.06 6.16 2.71h.13Zm13.23 12.14-.15-.09-7.07-3.41a.21.21 0 0 1-.15-.24v-8.18a.22.22 0 0 1 .15-.24l6.36-2.9 1.22-.58h.07l.14.08 7.25 3.3a.22.22 0 0 1 .15.23v8.18a.22.22 0 0 1-.15.23q-3.24 1.47-6.45 3c-.46.19-.92.41-1.37.62Zm-6.72-11.77v7.68a.17.17 0 0 0 .12.18l6.59 3.13.13.05v-7.79a.2.2 0 0 0-.15-.21l-6.53-3Zm7.51 10.78h.11c2.1-1 4.19-2 6.29-3a.19.19 0 0 0 .11-.21V28.4l-.16.07-1.77.86a.2.2 0 0 0-.13.21v3.39a.19.19 0 0 1-.12.2l-1.78 1-.15.07v-3.77l-.16.07-2.08 1a.22.22 0 0 0-.15.23v7Zm-6.75-11.1 6.19 2.8h.15l2.16-1h-.06l-6-2.81h-.14Zm12.45-.05-.13-.07-5.88-2.68h-.22l-1.54.7-.12.06 6.16 2.71h.13Zm157.3 12.14-.14-.09-7.08-3.41a.22.22 0 0 1-.15-.24v-8.18a.23.23 0 0 1 .15-.24l6.37-2.9 1.22-.58h.06l.15.08 7.24 3.3a.21.21 0 0 1 .16.23v8.18a.23.23 0 0 1-.16.23l-6.45 3c-.46.19-.91.41-1.37.62Zm-6.71-11.77v7.68a.16.16 0 0 0 .11.18l6.6 3.13.13.05v-7.79a.2.2 0 0 0-.15-.21l-6.53-3Zm7.51 10.78h.11l6.28-3c.11 0 .11-.12.11-.21V28.4l-.17.07-1.77.86a.21.21 0 0 0-.13.21v3.39a.19.19 0 0 1-.12.2l-1.78 1-.15.07v-3.77l-.17.07c-.69.34-1.38.69-2.08 1a.23.23 0 0 0-.14.23v7.52Zm-6.76-11.1h.05l6.2 2.8h.14l2.17-1h-.06l-6-2.81h-.14Zm12.46-.05-.13-.07-5.88-2.68h-.23l-1.54.7-.11.06 6.17 2.71h.13Zm13.23 12.14-.15-.09-7.08-3.41a.22.22 0 0 1-.15-.24v-8.18a.23.23 0 0 1 .15-.24l6.37-2.9 1.22-.58h.07l.14.08 7.25 3.3a.22.22 0 0 1 .15.23v8.18a.22.22 0 0 1-.15.23l-6.46 3Zm-6.72-11.77v7.68a.17.17 0 0 0 .11.18l6.6 3.13.13.05v-7.79a.2.2 0 0 0-.15-.21l-6.53-3Zm7.51 10.78h.11c2.09-1 4.19-2 6.29-3 .1 0 .1-.12.1-.21V28.4l-.16.07-1.77.86a.2.2 0 0 0-.13.21v3.39a.19.19 0 0 1-.12.2l-1.78 1-.15.07v-3.77l-.16.07c-.7.34-1.39.69-2.09 1a.23.23 0 0 0-.14.23v7.52Zm-6.76-11.1h.06L342.1 31h.15l2.16-1h-.06l-6-2.81h-.14Zm12.46-.05-.13-.07-5.88-2.68h-.23l-1.54.7-.11.06 6.16 2.71h.13Zm13.23 12.14-.15-.09-7.07-3.41a.21.21 0 0 1-.15-.24v-8.18a.22.22 0 0 1 .15-.24l6.36-2.9 1.23-.58h.06l.14.08 7.25 3.3a.22.22 0 0 1 .15.23v8.18a.23.23 0 0 1-.16.23l-6.45 3c-.45.19-.9.41-1.36.62Zm-6.72-11.77v7.68a.17.17 0 0 0 .12.18l6.6 3.13.12.05v-7.79a.21.21 0 0 0-.15-.21l-6.54-3Zm7.51 10.78h.11c2.1-1 4.19-2 6.29-3a.19.19 0 0 0 .11-.21V28.4l-.17.07-1.77.86a.21.21 0 0 0-.13.21v3.39a.19.19 0 0 1-.12.2l-1.78 1-.15.07v-3.77l-.17.07-2.08 1a.22.22 0 0 0-.14.23v7Zm-6.75-11.1h.05l6.2 2.8h.17l2.16-1h-.05l-6-2.81H358Zm12.42-.05-.14-.07-5.86-2.68h-.22l-1.54.7-.11.06 6.17 2.71h.12Zm13.27 12.14-.15-.09-7.12-3.41a.22.22 0 0 1-.15-.24v-8.18a.23.23 0 0 1 .15-.24l6.37-2.9 1.22-.58h.06l.15.08 7.28 3.3a.21.21 0 0 1 .16.23v8.18a.23.23 0 0 1-.16.23l-6.45 3Zm-6.72-11.77v7.68a.17.17 0 0 0 .11.18l6.6 3.13.13.05v-7.79a.2.2 0 0 0-.15-.21l-6.53-3Zm7.51 10.78h.11l6.28-3c.11 0 .11-.12.11-.21V28.4l-.17.07-1.76.86a.2.2 0 0 0-.14.21v3.39a.19.19 0 0 1-.12.2l-1.78 1-.15.07v-3.77l-.17.07c-.69.34-1.38.69-2.08 1a.23.23 0 0 0-.14.23v7.52Zm-6.76-11.1h.06l6.19 2.8h.14l2.17-1h-.06l-6-2.81h-.14Zm12.46-.05-.13-.07-5.88-2.68h-.23l-1.54.7-.11.06 6.16 2.71h.13ZM401 40.26l-.15-.09-7.07-3.41a.21.21 0 0 1-.15-.24v-8.18a.22.22 0 0 1 .15-.24l6.36-2.9 1.23-.58h.06l.14.08 7.24 3.3a.22.22 0 0 1 .15.23v8.18a.22.22 0 0 1-.15.23l-6.45 3c-.46.19-.92.41-1.36.62Zm-6.72-11.77v7.68a.17.17 0 0 0 .12.18l6.6 3.13.13.05v-7.79a.2.2 0 0 0-.15-.21l-6.53-3Zm7.51 10.78h.11c2.1-1 4.19-2 6.29-3a.19.19 0 0 0 .11-.21V28.4l-.17.07-1.77.86a.2.2 0 0 0-.13.21v3.39a.19.19 0 0 1-.12.2l-1.78 1-.15.07v-3.77l-.16.07-2.08 1a.22.22 0 0 0-.15.23v7ZM395 28.17h.05l6.19 2.8h.15l2.16-1h-.05l-6-2.81h-.14Zm12.45-.05-.13-.07-5.88-2.68h-.22l-1.54.7-.11.06 6.16 2.71h.13Zm-206.7 12.14-.15-.09-7.07-3.41a.21.21 0 0 1-.15-.24v-8.18a.22.22 0 0 1 .15-.24l6.36-2.9 1.23-.58h.06l.14.08 7.25 3.3a.22.22 0 0 1 .15.23v8.18a.22.22 0 0 1-.15.23l-6.45 3c-.46.19-.92.41-1.37.62ZM194 28.49v7.68a.17.17 0 0 0 .12.18l6.59 3.13.13.05v-7.79a.2.2 0 0 0-.15-.21l-6.53-3Zm7.51 10.78h.11c2.1-1 4.19-2 6.29-3a.19.19 0 0 0 .11-.21V28.4l-.16.07-1.77.86a.2.2 0 0 0-.13.21v3.39a.19.19 0 0 1-.12.2l-1.78 1-.15.07v-3.77l-.16.07-2.08 1a.22.22 0 0 0-.15.23v7.52Zm-6.75-11.1h.05L201 31h.15l2.16-1h-.05l-6-2.81h-.14Zm12.45-.05-.13-.07-5.88-2.68h-.2l-1.54.7-.12.06 6.16 2.71h.13Zm13.26 12.14-.15-.09-7.07-3.41a.22.22 0 0 1-.15-.24v-8.18a.22.22 0 0 1 .15-.24l6.36-2.9 1.23-.58h.06l.15.08 7.24 3.3a.23.23 0 0 1 .16.23v8.18a.23.23 0 0 1-.16.23l-6.45 3c-.46.19-.91.41-1.37.62Zm-6.71-11.77v7.68a.17.17 0 0 0 .12.18l6.6 3.13.12.05v-7.79a.21.21 0 0 0-.15-.21l-6.54-3Zm7.5 10.78h.11c2.1-1 4.19-2 6.29-3a.19.19 0 0 0 .11-.21V28.4l-.17.07-1.77.86a.21.21 0 0 0-.13.21v3.39a.19.19 0 0 1-.12.2l-1.78 1-.15.07v-3.77l-.17.07c-.69.34-1.38.69-2.08 1a.22.22 0 0 0-.14.23v7Zm-6.75-11.1h.05l6.2 2.8h.14l2.17-1h-.06l-6-2.81h-.14Zm12.49-.05-.14-.07-5.86-2.68h-.22l-1.54.7-.11.06 6.17 2.71h.12Zm13.2 12.14-.15-.09-7.08-3.41a.22.22 0 0 1-.15-.24v-8.18a.23.23 0 0 1 .15-.24l6.37-2.9 1.22-.58h.06l.15.08L248 28a.22.22 0 0 1 .15.23v8.18a.23.23 0 0 1-.16.23l-6.45 3Zm-6.72-11.77v7.68a.17.17 0 0 0 .11.18l6.6 3.13.13.05v-7.79a.2.2 0 0 0-.15-.21l-6.53-3ZM241 39.27h.11c2.09-1 4.19-2 6.29-3 .1 0 .1-.12.1-.21V28.4l-.17.07-1.76.86a.2.2 0 0 0-.13.21v3.39a.19.19 0 0 1-.12.2l-1.78 1-.15.07v-3.77l-.16.07c-.7.34-1.39.69-2.09 1a.23.23 0 0 0-.14.23v7.52Zm-6.76-11.1h.06l6.19 2.8h.14l2.17-1h-.06l-6-2.81h-.14Zm12.46-.05-.13-.07-5.88-2.68h-.23l-1.54.7-.11.06 6.19 2.73h.13Zm13.22 12.14-.15-.09-7.07-3.41a.21.21 0 0 1-.15-.24v-8.18a.22.22 0 0 1 .15-.24l6.3-2.9 1.23-.58h.06l.14.08 7.31 3.3a.22.22 0 0 1 .15.23v8.18a.22.22 0 0 1-.15.23l-6.45 3c-.46.19-.91.41-1.37.62Zm-6.72-11.77v7.68a.17.17 0 0 0 .12.18l6.59 3.13.13.05v-7.79a.21.21 0 0 0-.15-.21l-6.54-3Zm7.51 10.78h.11c2.1-1 4.19-2 6.29-3a.19.19 0 0 0 .11-.21V28.4l-.17.07-1.77.86a.21.21 0 0 0-.13.21v3.39a.19.19 0 0 1-.11.2l-1.78 1-.16.07v-3.77l-.16.07-2.08 1a.22.22 0 0 0-.15.23v7ZM254 28.17l6.2 2.8h.14l2.16-1h-.05l-6-2.81h-.14Zm12.45-.05-.13-.07-5.88-2.68h-.22l-1.54.7-.11.06 6.16 2.71h.13Zm13.19 12.14-.14-.09-7.08-3.41a.22.22 0 0 1-.15-.24v-8.18a.23.23 0 0 1 .15-.24l6.37-2.9 1.22-.58H280l.15.08 7.31 3.3a.21.21 0 0 1 .16.23v8.18a.23.23 0 0 1-.16.23l-6.45 3c-.46.19-.91.41-1.37.62Zm-6.71-11.77v7.68a.15.15 0 0 0 .11.18l6.6 3.13.12.05v-7.79a.21.21 0 0 0-.15-.21l-6.53-3Zm7.51 10.78h.1l6.29-3c.11 0 .11-.12.11-.21V28.4l-.17.07c-.59.29-1.17.58-1.77.86a.21.21 0 0 0-.13.21v3.39a.19.19 0 0 1-.12.2l-1.78 1-.15.07v-3.77l-.17.07c-.69.34-1.38.69-2.08 1a.23.23 0 0 0-.14.23v7.52Zm-6.76-11.1h.05l6.2 2.8h.14l2.17-1h-.06l-6-2.81h-.14Zm12.46-.05-.14-.07q-2.92-1.35-5.88-2.68h-.22l-1.54.7-.11.06 6.17 2.71h.12Z" style="fill:#f7eec9"/><path d="M80 53.46h-1.75V53a3.07 3.07 0 0 1 .27-1.37 4.35 4.35 0 0 1 1.11-1.21 8.78 8.78 0 0 0 1-.88 1.24 1.24 0 0 0 .25-.73 1.25 1.25 0 0 0-.44-1 1.76 1.76 0 0 0-1.19-.39 1.83 1.83 0 0 0-1.21.41 2.18 2.18 0 0 0-.66 1.25l-1.74-.21a2.89 2.89 0 0 1 1-2.05 3.66 3.66 0 0 1 2.52-.82 3.76 3.76 0 0 1 2.59.85 2.59 2.59 0 0 1 1 2 2.23 2.23 0 0 1-.35 1.19 8 8 0 0 1-1.51 1.52 3 3 0 0 0-.75.8 2.8 2.8 0 0 0-.14 1.1ZM78.25 56v-1.89h1.9V56Zm21.55-2.54h-1.72V53a3.07 3.07 0 0 1 .27-1.37 4.35 4.35 0 0 1 1.11-1.21 8.78 8.78 0 0 0 1-.88 1.24 1.24 0 0 0 .25-.73 1.25 1.25 0 0 0-.44-1 1.74 1.74 0 0 0-1.19-.39 1.85 1.85 0 0 0-1.21.41 2.18 2.18 0 0 0-.66 1.25l-1.74-.21a2.89 2.89 0 0 1 1-2.05A3.66 3.66 0 0 1 99 46a3.76 3.76 0 0 1 2.59.85 2.59 2.59 0 0 1 1 2 2.23 2.23 0 0 1-.35 1.19 8 8 0 0 1-1.51 1.52 3 3 0 0 0-.75.8 2.8 2.8 0 0 0-.18 1.1ZM98.08 56v-1.89H100V56Zm21.55-2.54h-1.72V53a3.07 3.07 0 0 1 .27-1.37 4.35 4.35 0 0 1 1.11-1.21 8.78 8.78 0 0 0 1-.88 1.24 1.24 0 0 0 .25-.73 1.25 1.25 0 0 0-.44-1 1.74 1.74 0 0 0-1.19-.39 1.85 1.85 0 0 0-1.21.41 2.18 2.18 0 0 0-.66 1.25l-1.74-.21a2.86 2.86 0 0 1 1-2.05 3.62 3.62 0 0 1 2.5-.84 3.76 3.76 0 0 1 2.59.85 2.59 2.59 0 0 1 1 2 2.23 2.23 0 0 1-.35 1.19 8 8 0 0 1-1.51 1.52 3 3 0 0 0-.75.8 2.8 2.8 0 0 0-.15 1.12ZM117.91 56v-1.89h1.9V56Zm21.55-2.54h-1.71V53a3.07 3.07 0 0 1 .27-1.37 4.35 4.35 0 0 1 1.11-1.21 8.78 8.78 0 0 0 1-.88 1.24 1.24 0 0 0 .25-.73 1.25 1.25 0 0 0-.44-1 1.74 1.74 0 0 0-1.19-.39 1.85 1.85 0 0 0-1.21.41 2.18 2.18 0 0 0-.66 1.25l-1.74-.21a2.86 2.86 0 0 1 1-2.05 3.62 3.62 0 0 1 2.5-.84 3.76 3.76 0 0 1 2.59.85 2.59 2.59 0 0 1 1 2 2.23 2.23 0 0 1-.35 1.19 8 8 0 0 1-1.51 1.52 3 3 0 0 0-.75.8 2.8 2.8 0 0 0-.16 1.12ZM137.75 56v-1.89h1.89V56Zm21.54-2.54h-1.71V53a3.07 3.07 0 0 1 .27-1.37 4.35 4.35 0 0 1 1.15-1.21 8.78 8.78 0 0 0 1-.88 1.24 1.24 0 0 0 .25-.73 1.25 1.25 0 0 0-.44-1 1.74 1.74 0 0 0-1.19-.39 1.85 1.85 0 0 0-1.21.41 2.18 2.18 0 0 0-.66 1.25l-1.75-.16a2.86 2.86 0 0 1 1-2.05 3.64 3.64 0 0 1 2.5-.84 3.76 3.76 0 0 1 2.59.85 2.59 2.59 0 0 1 1 2 2.14 2.14 0 0 1-.35 1.19 8 8 0 0 1-1.51 1.52 3 3 0 0 0-.75.8 2.8 2.8 0 0 0-.19 1.07ZM157.58 56v-1.89h1.89V56Zm-18.47 204.61h-4.54v-1.19a7.9 7.9 0 0 1 .73-3.63 11.16 11.16 0 0 1 2.92-3.21 20.43 20.43 0 0 0 2.61-2.33 3.1 3.1 0 0 0 .66-1.92 3.25 3.25 0 0 0-1.16-2.5 4.58 4.58 0 0 0-3.14-1 4.73 4.73 0 0 0-3.19 1.09 5.77 5.77 0 0 0-1.76 3.3l-4.59-.56a7.59 7.59 0 0 1 2.71-5.41A9.58 9.58 0 0 1 137 241a10 10 0 0 1 6.85 2.25 6.81 6.81 0 0 1 2.55 5.24 5.68 5.68 0 0 1-.94 3.13 20.31 20.31 0 0 1-4 4 7.61 7.61 0 0 0-2 2.11 7.15 7.15 0 0 0-.35 2.88Zm-4.54 6.73v-5h5v5Zm56.95-6.73H187v-1.19a8 8 0 0 1 .73-3.63 11.16 11.16 0 0 1 2.92-3.21 21.66 21.66 0 0 0 2.62-2.33 3.1 3.1 0 0 0 .66-1.92 3.23 3.23 0 0 0-1.17-2.5 4.56 4.56 0 0 0-3.14-1 4.75 4.75 0 0 0-3.19 1.09 5.77 5.77 0 0 0-1.76 3.3l-4.59-.56a7.63 7.63 0 0 1 2.71-5.41 9.61 9.61 0 0 1 6.62-2.23 10 10 0 0 1 6.85 2.25 6.83 6.83 0 0 1 2.54 5.24 5.75 5.75 0 0 1-.93 3.13 20.73 20.73 0 0 1-4 4 7.53 7.53 0 0 0-2 2.11 7.1 7.1 0 0 0-.35 2.86Zm-4.52 6.73v-5h5v5Zm56.93-6.73h-4.54v-1.19a7.9 7.9 0 0 1 .73-3.63 11 11 0 0 1 2.91-3.21 21.66 21.66 0 0 0 2.62-2.33 3.1 3.1 0 0 0 .66-1.92 3.23 3.23 0 0 0-1.17-2.5 4.54 4.54 0 0 0-3.14-1 4.71 4.71 0 0 0-3.18 1.09 5.77 5.77 0 0 0-1.77 3.3l-4.59-.56a7.6 7.6 0 0 1 2.72-5.41 9.58 9.58 0 0 1 6.61-2.23 10 10 0 0 1 6.85 2.25 6.8 6.8 0 0 1 2.54 5.24 5.75 5.75 0 0 1-.93 3.13 20.31 20.31 0 0 1-4 4 7.45 7.45 0 0 0-2 2.11 7.1 7.1 0 0 0-.32 2.86Zm-4.54 6.73v-5h5v5Zm56.95-6.73h-4.53v-1.19a7.9 7.9 0 0 1 .73-3.63 11 11 0 0 1 2.92-3.21 20.43 20.43 0 0 0 2.61-2.33 3.1 3.1 0 0 0 .66-1.92 3.25 3.25 0 0 0-1.16-2.5 4.58 4.58 0 0 0-3.15-1 4.72 4.72 0 0 0-3.18 1.09 5.71 5.71 0 0 0-1.76 3.3l-4.59-.56a7.59 7.59 0 0 1 2.71-5.41 9.58 9.58 0 0 1 6.61-2.23 10 10 0 0 1 6.85 2.25 6.81 6.81 0 0 1 2.55 5.24 5.68 5.68 0 0 1-.94 3.13 20.31 20.31 0 0 1-4 4 7.61 7.61 0 0 0-2 2.11 7.29 7.29 0 0 0-.33 2.86Zm-4.53 6.73v-5h5v5Zm56.95-6.73h-4.54v-1.19a7.9 7.9 0 0 1 .73-3.63 11.16 11.16 0 0 1 2.92-3.21 21.66 21.66 0 0 0 2.62-2.33 3.16 3.16 0 0 0 .65-1.92 3.22 3.22 0 0 0-1.16-2.5 4.58 4.58 0 0 0-3.14-1 4.75 4.75 0 0 0-3.19 1.09 5.77 5.77 0 0 0-1.76 3.3l-4.59-.56a7.59 7.59 0 0 1 2.71-5.41 9.6 9.6 0 0 1 6.59-2.25 10 10 0 0 1 6.86 2.25 6.83 6.83 0 0 1 2.54 5.24 5.75 5.75 0 0 1-.93 3.13 20.73 20.73 0 0 1-4 4 7.78 7.78 0 0 0-2 2.11 7.15 7.15 0 0 0-.31 2.88Zm-4.54 6.73v-5h5v5Zm224.89-2.73h-4.54v-1.19a7.9 7.9 0 0 1 .73-3.63 11.16 11.16 0 0 1 2.92-3.21 20.43 20.43 0 0 0 2.61-2.33 3.1 3.1 0 0 0 .66-1.92 3.25 3.25 0 0 0-1.16-2.5 4.58 4.58 0 0 0-3.14-1 4.73 4.73 0 0 0-3.19 1.09 5.77 5.77 0 0 0-1.76 3.3l-4.59-.56a7.59 7.59 0 0 1 2.71-5.41A9.58 9.58 0 0 1 567 245a10 10 0 0 1 6.85 2.25 6.81 6.81 0 0 1 2.55 5.24 5.68 5.68 0 0 1-.94 3.13 20.31 20.31 0 0 1-4 4 7.61 7.61 0 0 0-2 2.11 7.15 7.15 0 0 0-.35 2.88Zm-4.54 6.73v-5h5v5Zm56.95-6.73H617v-1.19a8 8 0 0 1 .73-3.63 11.16 11.16 0 0 1 2.92-3.21 21.66 21.66 0 0 0 2.62-2.33 3.1 3.1 0 0 0 .66-1.92 3.23 3.23 0 0 0-1.17-2.5 4.56 4.56 0 0 0-3.14-1 4.75 4.75 0 0 0-3.19 1.09 5.77 5.77 0 0 0-1.76 3.3l-4.59-.56a7.63 7.63 0 0 1 2.71-5.41 9.61 9.61 0 0 1 6.62-2.23 10 10 0 0 1 6.85 2.25 6.83 6.83 0 0 1 2.54 5.24 5.75 5.75 0 0 1-.93 3.13 20.73 20.73 0 0 1-4 4 7.53 7.53 0 0 0-2 2.11 7.1 7.1 0 0 0-.35 2.86Zm-4.52 6.73v-5h5v5Zm56.93-6.73h-4.54v-1.19a7.9 7.9 0 0 1 .73-3.63 11.1 11.1 0 0 1 2.91-3.21 20.83 20.83 0 0 0 2.62-2.33 3.1 3.1 0 0 0 .66-1.92 3.23 3.23 0 0 0-1.17-2.5 4.54 4.54 0 0 0-3.14-1 4.71 4.71 0 0 0-3.18 1.09 5.77 5.77 0 0 0-1.77 3.3l-4.59-.56a7.6 7.6 0 0 1 2.72-5.41 9.58 9.58 0 0 1 6.61-2.23 10 10 0 0 1 6.85 2.25 6.8 6.8 0 0 1 2.54 5.24 5.75 5.75 0 0 1-.93 3.13 20.31 20.31 0 0 1-4 4 7.45 7.45 0 0 0-2 2.11 7.1 7.1 0 0 0-.32 2.86Zm-4.54 6.73v-5h5v5Zm56.95-6.73h-4.53v-1.19a7.9 7.9 0 0 1 .73-3.63 11 11 0 0 1 2.92-3.21 20.43 20.43 0 0 0 2.61-2.33 3.1 3.1 0 0 0 .66-1.92 3.25 3.25 0 0 0-1.16-2.5 4.58 4.58 0 0 0-3.15-1 4.71 4.71 0 0 0-3.18 1.09 5.77 5.77 0 0 0-1.76 3.3l-4.59-.56a7.59 7.59 0 0 1 2.71-5.41 9.58 9.58 0 0 1 6.61-2.23 10 10 0 0 1 6.85 2.25 6.81 6.81 0 0 1 2.55 5.24 5.68 5.68 0 0 1-.94 3.13 20.31 20.31 0 0 1-4 4 7.61 7.61 0 0 0-2 2.11 7.29 7.29 0 0 0-.33 2.86Zm-4.53 6.73v-5h5v5Zm56.95-6.73h-4.54v-1.19a7.9 7.9 0 0 1 .73-3.63 11.16 11.16 0 0 1 2.92-3.21 21.66 21.66 0 0 0 2.62-2.33 3.16 3.16 0 0 0 .65-1.92 3.22 3.22 0 0 0-1.16-2.5 4.58 4.58 0 0 0-3.14-1 4.75 4.75 0 0 0-3.19 1.09 5.77 5.77 0 0 0-1.76 3.3l-4.59-.56a7.59 7.59 0 0 1 2.71-5.41 9.6 9.6 0 0 1 6.59-2.25 10 10 0 0 1 6.86 2.25 6.83 6.83 0 0 1 2.54 5.24 5.75 5.75 0 0 1-.93 3.13 20.73 20.73 0 0 1-4 4 7.61 7.61 0 0 0-2 2.11 7.15 7.15 0 0 0-.31 2.88Zm-4.54 6.73v-5h5v5ZM458.89 465.23h-8.84v-2.32a15.44 15.44 0 0 1 1.42-7.07 21.58 21.58 0 0 1 5.68-6.24 41.33 41.33 0 0 0 5.1-4.54 6 6 0 0 0 1.28-3.74 6.28 6.28 0 0 0-2.27-4.87 8.8 8.8 0 0 0-6.12-2 9.25 9.25 0 0 0-6.2 2.11 11.26 11.26 0 0 0-3.43 6.45l-9-1.11a14.87 14.87 0 0 1 5.29-10.54q4.9-4.33 12.88-4.33 8.39 0 13.34 4.38t5 10.21a11.23 11.23 0 0 1-1.82 6.1q-1.81 2.88-7.78 7.84a14.69 14.69 0 0 0-3.83 4.12c-.52 1.01-.74 2.87-.7 5.55Zm-8.84 13.11v-9.74h9.74v9.74ZM201.36 53.46h-1.71V53a2.93 2.93 0 0 1 .28-1.37 4.13 4.13 0 0 1 1.1-1.21 8.78 8.78 0 0 0 1-.88 1.17 1.17 0 0 0 .25-.73 1.25 1.25 0 0 0-.44-1 1.74 1.74 0 0 0-1.19-.39 1.85 1.85 0 0 0-1.21.41 2.18 2.18 0 0 0-.66 1.25l-1.78-.16a2.86 2.86 0 0 1 1-2.05 3.64 3.64 0 0 1 2.5-.84 3.76 3.76 0 0 1 2.59.85 2.59 2.59 0 0 1 1 2 2.14 2.14 0 0 1-.35 1.19 8 8 0 0 1-1.51 1.52 3 3 0 0 0-.75.8 2.8 2.8 0 0 0-.12 1.07ZM199.65 56v-1.89h1.89V56Zm21.54-2.54h-1.71V53a2.93 2.93 0 0 1 .28-1.37 4.13 4.13 0 0 1 1.1-1.21 8.78 8.78 0 0 0 1-.88 1.17 1.17 0 0 0 .25-.73 1.25 1.25 0 0 0-.44-1 1.74 1.74 0 0 0-1.19-.39 1.85 1.85 0 0 0-1.21.41 2.18 2.18 0 0 0-.66 1.25l-1.74-.21a2.86 2.86 0 0 1 1-2.05 3.64 3.64 0 0 1 2.5-.84 3.76 3.76 0 0 1 2.59.85 2.59 2.59 0 0 1 1 2 2.14 2.14 0 0 1-.35 1.19 8 8 0 0 1-1.51 1.52 3 3 0 0 0-.75.8 2.8 2.8 0 0 0-.16 1.12ZM219.48 56v-1.89h1.89V56ZM241 53.46h-1.71V53a2.93 2.93 0 0 1 .28-1.37 4.13 4.13 0 0 1 1.1-1.21 8.78 8.78 0 0 0 1-.88 1.17 1.17 0 0 0 .25-.73 1.25 1.25 0 0 0-.44-1 1.74 1.74 0 0 0-1.19-.39 1.85 1.85 0 0 0-1.21.41 2.18 2.18 0 0 0-.66 1.25l-1.74-.21a2.86 2.86 0 0 1 1-2.05 3.64 3.64 0 0 1 2.5-.84 3.74 3.74 0 0 1 2.59.85 2.59 2.59 0 0 1 1 2 2.14 2.14 0 0 1-.35 1.19 8 8 0 0 1-1.51 1.52 2.74 2.74 0 0 0-.74.8 2.75 2.75 0 0 0-.17 1.12ZM239.31 56v-1.89h1.89V56Zm21.54-2.54h-1.71V53a2.93 2.93 0 0 1 .28-1.37 4.13 4.13 0 0 1 1.1-1.21 8.78 8.78 0 0 0 1-.88 1.17 1.17 0 0 0 .25-.73 1.25 1.25 0 0 0-.44-1 1.74 1.74 0 0 0-1.19-.39 1.8 1.8 0 0 0-1.2.41 2.13 2.13 0 0 0-.67 1.25l-1.74-.21a2.86 2.86 0 0 1 1-2.05A3.64 3.64 0 0 1 260 46a3.74 3.74 0 0 1 2.59.85 2.59 2.59 0 0 1 1 2 2.14 2.14 0 0 1-.35 1.19 7.66 7.66 0 0 1-1.51 1.52 2.74 2.74 0 0 0-.74.8 2.75 2.75 0 0 0-.14 1.1ZM259.14 56v-1.89H261V56Zm21.55-2.54H279V53a2.93 2.93 0 0 1 .28-1.37 4.13 4.13 0 0 1 1.1-1.21 8.78 8.78 0 0 0 1-.88 1.17 1.17 0 0 0 .25-.73 1.25 1.25 0 0 0-.44-1 1.72 1.72 0 0 0-1.19-.39 1.8 1.8 0 0 0-1.2.41 2.13 2.13 0 0 0-.67 1.25l-1.74-.21a2.86 2.86 0 0 1 1-2.05 3.64 3.64 0 0 1 2.5-.84 3.74 3.74 0 0 1 2.59.85 2.6 2.6 0 0 1 1 2 2.16 2.16 0 0 1-.36 1.19 7.66 7.66 0 0 1-1.51 1.52 2.74 2.74 0 0 0-.74.8 2.61 2.61 0 0 0-.18 1.12ZM279 56v-1.89h1.89V56Zm43.76-2.54H321V53a2.93 2.93 0 0 1 .28-1.37 4.13 4.13 0 0 1 1.1-1.21 8.78 8.78 0 0 0 1-.88 1.17 1.17 0 0 0 .25-.73 1.25 1.25 0 0 0-.44-1 1.72 1.72 0 0 0-1.19-.39 1.8 1.8 0 0 0-1.2.41 2.13 2.13 0 0 0-.67 1.25l-1.74-.21a2.86 2.86 0 0 1 1-2.05 3.64 3.64 0 0 1 2.5-.84 3.74 3.74 0 0 1 2.59.85 2.6 2.6 0 0 1 1 2 2.16 2.16 0 0 1-.36 1.19 7.66 7.66 0 0 1-1.51 1.52 2.74 2.74 0 0 0-.74.8 2.61 2.61 0 0 0-.11 1.12ZM321 56v-1.89h1.89V56Zm21.59-2.54h-1.72V53a2.93 2.93 0 0 1 .28-1.37 4.13 4.13 0 0 1 1.1-1.21 8.78 8.78 0 0 0 1-.88 1.17 1.17 0 0 0 .25-.73 1.25 1.25 0 0 0-.44-1 1.72 1.72 0 0 0-1.19-.39 1.8 1.8 0 0 0-1.2.41 2.13 2.13 0 0 0-.67 1.25l-1.74-.21a2.86 2.86 0 0 1 1-2.05 3.64 3.64 0 0 1 2.5-.84 3.74 3.74 0 0 1 2.59.85 2.56 2.56 0 0 1 1 2 2.16 2.16 0 0 1-.36 1.19 7.66 7.66 0 0 1-1.51 1.52 2.74 2.74 0 0 0-.74.8 2.61 2.61 0 0 0-.15 1.12ZM340.87 56v-1.89h1.89V56Zm21.55-2.54h-1.72V53a2.93 2.93 0 0 1 .28-1.37 4.13 4.13 0 0 1 1.1-1.21 7.89 7.89 0 0 0 1-.88 1.17 1.17 0 0 0 .25-.73 1.25 1.25 0 0 0-.44-1 1.72 1.72 0 0 0-1.19-.39 1.8 1.8 0 0 0-1.2.41 2.13 2.13 0 0 0-.67 1.25l-1.74-.21a2.9 2.9 0 0 1 1-2.05 3.65 3.65 0 0 1 2.5-.84 3.74 3.74 0 0 1 2.59.85 2.56 2.56 0 0 1 1 2 2.16 2.16 0 0 1-.36 1.19 7.66 7.66 0 0 1-1.51 1.52 2.74 2.74 0 0 0-.74.8 2.61 2.61 0 0 0-.15 1.12ZM360.7 56v-1.89h1.89V56Zm21.55-2.54h-1.72V53a3.06 3.06 0 0 1 .28-1.37 4.13 4.13 0 0 1 1.1-1.21 7.16 7.16 0 0 0 1-.88 1.17 1.17 0 0 0 .25-.73 1.22 1.22 0 0 0-.44-1 1.72 1.72 0 0 0-1.19-.39 1.8 1.8 0 0 0-1.2.41 2.13 2.13 0 0 0-.67 1.25l-1.74-.21a2.9 2.9 0 0 1 1-2.05 3.65 3.65 0 0 1 2.5-.84 3.74 3.74 0 0 1 2.59.85 2.56 2.56 0 0 1 1 2 2.16 2.16 0 0 1-.36 1.19 7.66 7.66 0 0 1-1.51 1.52 2.74 2.74 0 0 0-.74.8 2.61 2.61 0 0 0-.15 1.12ZM380.53 56v-1.89h1.89V56Zm21.55-2.54h-1.72V53a3.06 3.06 0 0 1 .28-1.37 4.13 4.13 0 0 1 1.1-1.21 7.16 7.16 0 0 0 1-.88 1.17 1.17 0 0 0 .25-.73 1.22 1.22 0 0 0-.44-1 1.72 1.72 0 0 0-1.19-.39 1.8 1.8 0 0 0-1.2.41 2.13 2.13 0 0 0-.67 1.25l-1.74-.21a2.9 2.9 0 0 1 1-2.05 3.65 3.65 0 0 1 2.5-.84 3.74 3.74 0 0 1 2.59.85 2.56 2.56 0 0 1 1 2 2.16 2.16 0 0 1-.36 1.19 7.66 7.66 0 0 1-1.48 1.55 2.9 2.9 0 0 0-.74.8 2.61 2.61 0 0 0-.18 1.09ZM400.36 56v-1.89h1.89V56ZM511 58.46h-1.72V58a3.07 3.07 0 0 1 .27-1.37 4.35 4.35 0 0 1 1.11-1.21 8.78 8.78 0 0 0 1-.88 1.21 1.21 0 0 0-.2-1.68 1.7 1.7 0 0 0-1.18-.39 1.83 1.83 0 0 0-1.21.41 2.18 2.18 0 0 0-.66 1.25l-1.74-.21a2.89 2.89 0 0 1 1-2.05 3.66 3.66 0 0 1 2.51-.84 3.76 3.76 0 0 1 2.59.85 2.59 2.59 0 0 1 1 2 2.23 2.23 0 0 1-.35 1.19 8 8 0 0 1-1.51 1.52 3 3 0 0 0-.75.8 2.61 2.61 0 0 0-.16 1.07ZM509.25 61v-1.89h1.9V61Zm21.55-2.54h-1.72V58a3.07 3.07 0 0 1 .27-1.37 4.35 4.35 0 0 1 1.11-1.21 8.78 8.78 0 0 0 1-.88 1.24 1.24 0 0 0 .25-.73 1.25 1.25 0 0 0-.44-1 1.74 1.74 0 0 0-1.19-.39 1.85 1.85 0 0 0-1.21.41 2.18 2.18 0 0 0-.66 1.25l-1.74-.21a2.86 2.86 0 0 1 1-2.05A3.62 3.62 0 0 1 530 51a3.76 3.76 0 0 1 2.59.85 2.59 2.59 0 0 1 1 2 2.23 2.23 0 0 1-.35 1.19 8 8 0 0 1-1.51 1.52 3 3 0 0 0-.75.8 2.8 2.8 0 0 0-.18 1.1ZM529.08 61v-1.89H531V61Zm21.55-2.54h-1.71V58a3.07 3.07 0 0 1 .27-1.37 4.35 4.35 0 0 1 1.11-1.21 8.78 8.78 0 0 0 1-.88 1.24 1.24 0 0 0 .25-.73 1.25 1.25 0 0 0-.44-1 1.74 1.74 0 0 0-1.19-.39 1.85 1.85 0 0 0-1.21.41 2.18 2.18 0 0 0-.66 1.25l-1.74-.21a2.86 2.86 0 0 1 1-2.05 3.62 3.62 0 0 1 2.5-.84 3.76 3.76 0 0 1 2.59.85 2.59 2.59 0 0 1 1 2 2.23 2.23 0 0 1-.35 1.19 8 8 0 0 1-1.51 1.52 3 3 0 0 0-.75.8 2.8 2.8 0 0 0-.16 1.12ZM548.92 61v-1.89h1.89V61Zm21.54-2.54h-1.71V58a3.07 3.07 0 0 1 .27-1.37 4.35 4.35 0 0 1 1.11-1.21 8.78 8.78 0 0 0 1-.88 1.24 1.24 0 0 0 .25-.73 1.25 1.25 0 0 0-.44-1 1.74 1.74 0 0 0-1.19-.39 1.85 1.85 0 0 0-1.21.41 2.18 2.18 0 0 0-.66 1.25l-1.74-.21a2.86 2.86 0 0 1 1-2.05 3.64 3.64 0 0 1 2.5-.84 3.76 3.76 0 0 1 2.59.85 2.59 2.59 0 0 1 1 2 2.23 2.23 0 0 1-.35 1.19 8 8 0 0 1-1.51 1.52 3 3 0 0 0-.75.8 2.8 2.8 0 0 0-.16 1.12ZM568.75 61v-1.89h1.89V61Zm21.54-2.54h-1.71V58a3.07 3.07 0 0 1 .27-1.37 4.35 4.35 0 0 1 1.15-1.21 8.78 8.78 0 0 0 1-.88 1.24 1.24 0 0 0 .25-.73 1.25 1.25 0 0 0-.44-1 1.74 1.74 0 0 0-1.19-.39 1.85 1.85 0 0 0-1.21.41 2.18 2.18 0 0 0-.66 1.25l-1.75-.16a2.86 2.86 0 0 1 1-2.05 3.64 3.64 0 0 1 2.5-.84 3.76 3.76 0 0 1 2.59.85 2.59 2.59 0 0 1 1 2 2.14 2.14 0 0 1-.35 1.19 8 8 0 0 1-1.51 1.52 3 3 0 0 0-.75.8 2.8 2.8 0 0 0-.19 1.07ZM588.58 61v-1.89h1.89V61Zm43.78-2.54h-1.71V58a2.93 2.93 0 0 1 .28-1.37 4.13 4.13 0 0 1 1.1-1.21 8.78 8.78 0 0 0 1-.88 1.17 1.17 0 0 0 .25-.73 1.25 1.25 0 0 0-.44-1 1.74 1.74 0 0 0-1.19-.39 1.85 1.85 0 0 0-1.21.41 2.18 2.18 0 0 0-.66 1.25l-1.78-.16a2.86 2.86 0 0 1 1-2.05 3.64 3.64 0 0 1 2.5-.84 3.76 3.76 0 0 1 2.59.85 2.59 2.59 0 0 1 1 2 2.14 2.14 0 0 1-.35 1.19 8 8 0 0 1-1.51 1.52 3 3 0 0 0-.75.8 2.8 2.8 0 0 0-.12 1.07ZM630.65 61v-1.89h1.89V61Zm21.54-2.54h-1.71V58a2.93 2.93 0 0 1 .28-1.37 4.13 4.13 0 0 1 1.1-1.21 8.78 8.78 0 0 0 1-.88 1.17 1.17 0 0 0 .25-.73 1.25 1.25 0 0 0-.44-1 1.74 1.74 0 0 0-1.19-.39 1.85 1.85 0 0 0-1.21.41 2.18 2.18 0 0 0-.66 1.25l-1.74-.21a2.86 2.86 0 0 1 1-2.05 3.64 3.64 0 0 1 2.5-.84 3.76 3.76 0 0 1 2.59.85 2.59 2.59 0 0 1 1 2 2.14 2.14 0 0 1-.35 1.19 8 8 0 0 1-1.51 1.52 2.74 2.74 0 0 0-.74.8 2.57 2.57 0 0 0-.17 1.12ZM650.48 61v-1.89h1.89V61ZM672 58.46h-1.71V58a2.93 2.93 0 0 1 .28-1.37 4.13 4.13 0 0 1 1.1-1.21 8.78 8.78 0 0 0 1-.88 1.17 1.17 0 0 0 .25-.73 1.25 1.25 0 0 0-.44-1 1.74 1.74 0 0 0-1.19-.39 1.85 1.85 0 0 0-1.21.41 2.18 2.18 0 0 0-.66 1.25l-1.74-.21a2.86 2.86 0 0 1 1-2.05 3.64 3.64 0 0 1 2.5-.84 3.74 3.74 0 0 1 2.59.85 2.59 2.59 0 0 1 1 2 2.14 2.14 0 0 1-.35 1.19 8 8 0 0 1-1.51 1.52 2.74 2.74 0 0 0-.74.8 2.57 2.57 0 0 0-.17 1.12ZM670.31 61v-1.89h1.89V61Zm21.54-2.54h-1.71V58a2.93 2.93 0 0 1 .28-1.37 4.13 4.13 0 0 1 1.1-1.21 8.78 8.78 0 0 0 1-.88 1.17 1.17 0 0 0 .25-.73 1.25 1.25 0 0 0-.44-1 1.74 1.74 0 0 0-1.19-.39 1.8 1.8 0 0 0-1.2.41 2.13 2.13 0 0 0-.67 1.25l-1.74-.21a2.86 2.86 0 0 1 1-2.05A3.64 3.64 0 0 1 691 51a3.74 3.74 0 0 1 2.59.85 2.59 2.59 0 0 1 1 2 2.14 2.14 0 0 1-.35 1.19 7.66 7.66 0 0 1-1.51 1.52 1.8 1.8 0 0 0-.88 1.89ZM690.14 61v-1.89H692V61Zm21.55-2.54H710V58a2.93 2.93 0 0 1 .28-1.37 4.13 4.13 0 0 1 1.1-1.21 8.78 8.78 0 0 0 1-.88 1.17 1.17 0 0 0 .25-.73 1.25 1.25 0 0 0-.44-1 1.72 1.72 0 0 0-1.19-.39 1.8 1.8 0 0 0-1.2.41 2.13 2.13 0 0 0-.67 1.25l-1.74-.21a2.86 2.86 0 0 1 1-2.05 3.64 3.64 0 0 1 2.5-.84 3.74 3.74 0 0 1 2.59.85 2.59 2.59 0 0 1 1 2 2.14 2.14 0 0 1-.35 1.19 7.66 7.66 0 0 1-1.51 1.52 2.74 2.74 0 0 0-.74.8 2.61 2.61 0 0 0-.19 1.12ZM710 61v-1.89h1.89V61Zm43.76-2.54H752V58a2.93 2.93 0 0 1 .28-1.37 4.13 4.13 0 0 1 1.1-1.21 8.78 8.78 0 0 0 1-.88 1.17 1.17 0 0 0 .25-.73 1.25 1.25 0 0 0-.44-1 1.72 1.72 0 0 0-1.19-.39 1.8 1.8 0 0 0-1.2.41 2.13 2.13 0 0 0-.67 1.25l-1.74-.21a2.86 2.86 0 0 1 1-2.05 3.64 3.64 0 0 1 2.5-.84 3.74 3.74 0 0 1 2.59.85 2.6 2.6 0 0 1 1 2 2.16 2.16 0 0 1-.36 1.19 7.66 7.66 0 0 1-1.51 1.52 2.74 2.74 0 0 0-.74.8 2.61 2.61 0 0 0-.11 1.12ZM752 61v-1.89h1.89V61Zm21.59-2.54h-1.72V58a2.93 2.93 0 0 1 .28-1.37 4.13 4.13 0 0 1 1.1-1.21 8.78 8.78 0 0 0 1-.88 1.17 1.17 0 0 0 .25-.73 1.25 1.25 0 0 0-.44-1 1.72 1.72 0 0 0-1.19-.39 1.8 1.8 0 0 0-1.2.41 2.13 2.13 0 0 0-.67 1.25l-1.74-.21a2.86 2.86 0 0 1 1-2.05 3.65 3.65 0 0 1 2.5-.84 3.74 3.74 0 0 1 2.59.85 2.56 2.56 0 0 1 1 2 2.16 2.16 0 0 1-.36 1.19 7.66 7.66 0 0 1-1.51 1.52 2.74 2.74 0 0 0-.74.8 2.61 2.61 0 0 0-.15 1.12ZM771.87 61v-1.89h1.89V61Zm21.55-2.54h-1.72V58a2.93 2.93 0 0 1 .28-1.37 4.13 4.13 0 0 1 1.1-1.21 7.89 7.89 0 0 0 1-.88 1.17 1.17 0 0 0 .25-.73 1.22 1.22 0 0 0-.44-1 1.72 1.72 0 0 0-1.19-.39 1.8 1.8 0 0 0-1.2.41 2.13 2.13 0 0 0-.67 1.25l-1.74-.21a2.86 2.86 0 0 1 1-2.05 3.65 3.65 0 0 1 2.5-.84 3.74 3.74 0 0 1 2.59.85 2.56 2.56 0 0 1 1 2 2.16 2.16 0 0 1-.36 1.19 7.66 7.66 0 0 1-1.51 1.52 2.74 2.74 0 0 0-.74.8 2.61 2.61 0 0 0-.15 1.12ZM791.7 61v-1.89h1.89V61Zm21.55-2.54h-1.72V58a3.06 3.06 0 0 1 .28-1.37 4.13 4.13 0 0 1 1.1-1.21 7.16 7.16 0 0 0 1-.88 1.17 1.17 0 0 0 .25-.73 1.22 1.22 0 0 0-.44-1 1.72 1.72 0 0 0-1.19-.39 1.8 1.8 0 0 0-1.2.41 2.13 2.13 0 0 0-.67 1.25l-1.74-.21a2.9 2.9 0 0 1 1-2.05 3.65 3.65 0 0 1 2.5-.84 3.74 3.74 0 0 1 2.59.85 2.56 2.56 0 0 1 1 2 2.16 2.16 0 0 1-.36 1.19 7.66 7.66 0 0 1-1.51 1.52 2.74 2.74 0 0 0-.74.8 2.61 2.61 0 0 0-.15 1.12ZM811.53 61v-1.89h1.89V61Zm21.55-2.54h-1.72V58a3.06 3.06 0 0 1 .28-1.37 4.13 4.13 0 0 1 1.1-1.21 7.16 7.16 0 0 0 1-.88 1.17 1.17 0 0 0 .25-.73 1.22 1.22 0 0 0-.44-1 1.72 1.72 0 0 0-1.19-.39 1.8 1.8 0 0 0-1.2.41 2.13 2.13 0 0 0-.67 1.25l-1.74-.21a2.9 2.9 0 0 1 1-2.05 3.65 3.65 0 0 1 2.5-.84 3.74 3.74 0 0 1 2.59.85 2.56 2.56 0 0 1 1 2 2.16 2.16 0 0 1-.36 1.19 7.66 7.66 0 0 1-1.48 1.55 2.9 2.9 0 0 0-.74.8 2.61 2.61 0 0 0-.18 1.09ZM831.36 61v-1.89h1.89V61Z" style="fill:#f9c7e4"/><path style="fill:none;stroke:#f9c7e4;stroke-miterlimit:10;stroke-width:13px" d="m675.5 332.5-154.49 98.98"/><path style="fill:#f9c7e4" d="m530.92 398.96-6.67 30.45 30.45 6.66-15.75 10.1-30.45-6.67 6.67-30.45 15.75-10.09z"/><path style="fill:#07448e" d="M175 323h567v31H175z"/><path transform="rotate(-42.86 745.067 126.857)" style="fill:#f9c7e4" d="M684.13 124.11h121.91v5.5H684.13z"/><path style="fill:#f9c7e4" d="m714.78 167.7-13.18-.49.49-13.19-5.81 5.39-.49 13.19 13.19.49 5.8-5.39z"/><path transform="rotate(-.13 682.997 128.589)" style="fill:#f9c7e4" d="M668.58 88.15h5.5v79.09h-5.5z"/><path style="fill:#f9c7e4" d="m680.73 156.25-9.31 9.36-9.35-9.31.02 7.92 9.35 9.31 9.31-9.35-.02-7.93z"/><path transform="rotate(-46.7 598.106 128.095)" style="fill:#f9c7e4" d="M595.3 65.82h5.5v124.57h-5.5z"/><path style="fill:#f9c7e4" d="m641.8 156.52.4 13.19-13.19.39 5.76 5.43 13.19-.39-.39-13.19-5.77-5.43z"/><path style="fill:#07448e" d="M529.65 83.07h300.54v10.16H529.65z"/><path d="m776.18 229-17.51-8a.6.6 0 0 1-.43-.64v-22.19a.61.61 0 0 1 .42-.64q9.89-4.51 19.76-9.06l.4-.22h.18c1.11.52 2.21 1.05 3.33 1.56l17.28 7.9a.59.59 0 0 1 .41.64v22.22a.62.62 0 0 1-.41.66q-9.62 4.6-19.21 9.24a3.42 3.42 0 0 0-.4.26h-.09Zm21.55-30.08L780 207a.55.55 0 0 0-.41.57v21.16l.35-.13q9-4.26 17.91-8.5a.49.49 0 0 0 .32-.51v-20.85Zm-20 27.62v-18.92a.58.58 0 0 0-.39-.62c-1.89-.91-3.77-1.85-5.65-2.77l-.45-.2v10.17a4.46 4.46 0 0 1-.41-.19c-1.61-.88-3.22-1.77-4.84-2.64a.53.53 0 0 1-.32-.55v-9.21a.52.52 0 0 0-.35-.56l-4.8-2.34-.46-.21v20.8c0 .24 0 .42.29.55q8.55 4 17.08 8.07l.3.12ZM789.65 195a.5.5 0 0 0-.38 0L773 202.65l-.15.12c2 .94 3.92 1.88 5.88 2.8a.5.5 0 0 0 .38 0l16.82-7.6.15-.1Zm-23.12 4.72a.4.4 0 0 0 .34 0l16.75-7.37h.06l-.3-.17c-1.39-.64-2.78-1.28-4.18-1.9a.81.81 0 0 0-.61 0c-5.33 2.41-10.65 4.85-16 7.28a3.28 3.28 0 0 0-.36.19c1.49.65 2.89 1.32 4.3 1.98ZM722.62 229l-17.51-8a.6.6 0 0 1-.43-.64v-22.19a.6.6 0 0 1 .42-.64q9.89-4.51 19.76-9.06l.39-.22h.17c1.11.52 2.21 1.05 3.33 1.56l17.28 7.9a.59.59 0 0 1 .41.64v22.22a.62.62 0 0 1-.41.66q-9.62 4.6-19.21 9.24a3.42 3.42 0 0 0-.4.26h-.09Zm21.55-30.08L726.43 207a.55.55 0 0 0-.41.57v21.16l.35-.13q9-4.26 17.91-8.5a.49.49 0 0 0 .32-.51v-20.85Zm-20 27.62v-18.92a.58.58 0 0 0-.39-.62c-1.89-.91-3.77-1.85-5.65-2.77l-.45-.2v10.17a4.46 4.46 0 0 1-.41-.19c-1.61-.88-3.22-1.77-4.84-2.64a.53.53 0 0 1-.32-.55v-9.21a.53.53 0 0 0-.35-.56c-1.61-.77-3.2-1.56-4.8-2.34l-.46-.21v20.8c0 .24 0 .42.29.55q8.55 4 17.08 8.07l.3.12ZM736.09 195a.5.5 0 0 0-.38 0l-16.26 7.63-.16.12 5.88 2.8a.53.53 0 0 0 .39 0l16.82-7.6.15-.1ZM713 199.73a.41.41 0 0 0 .34 0q8.38-3.67 16.74-7.37h.07l-.3-.17c-1.39-.64-2.78-1.28-4.18-1.9a.81.81 0 0 0-.61 0c-5.33 2.41-10.65 4.85-16 7.28a3.28 3.28 0 0 0-.36.19c1.46.64 2.86 1.31 4.3 1.97ZM669.06 229l-17.52-8a.61.61 0 0 1-.42-.64v-22.19a.6.6 0 0 1 .42-.64q9.88-4.51 19.76-9.06l.39-.22h.17c1.11.52 2.21 1.05 3.33 1.56l17.28 7.9a.59.59 0 0 1 .41.64v22.22a.62.62 0 0 1-.41.66q-9.62 4.6-19.21 9.24a3.42 3.42 0 0 0-.4.26h-.09Zm21.55-30.08L672.87 207a.55.55 0 0 0-.41.57v21.16l.35-.13q9-4.26 17.91-8.5a.49.49 0 0 0 .32-.51v-20.85Zm-20 27.62v-18.92a.58.58 0 0 0-.39-.62c-1.89-.91-3.77-1.85-5.65-2.77l-.46-.2v10.17c-.19-.09-.3-.13-.4-.19-1.61-.88-3.22-1.77-4.84-2.64a.53.53 0 0 1-.32-.55v-9.21a.53.53 0 0 0-.35-.56c-1.61-.77-3.2-1.56-4.8-2.34l-.46-.21v20.8c0 .24 0 .42.29.55q8.55 4 17.08 8.07l.29.12ZM682.53 195a.5.5 0 0 0-.38 0l-16.26 7.63-.16.12 5.88 2.8a.53.53 0 0 0 .39 0l16.82-7.6.15-.1Zm-23.12 4.72a.41.41 0 0 0 .34 0l16.74-7.37h.07l-.3-.17c-1.39-.64-2.78-1.28-4.18-1.9a.81.81 0 0 0-.61 0c-5.33 2.41-10.65 4.85-16 7.28a3.28 3.28 0 0 0-.36.19c1.48.65 2.89 1.32 4.3 1.98ZM615.5 229l-17.52-8a.61.61 0 0 1-.42-.64v-22.19a.6.6 0 0 1 .42-.64q9.88-4.51 19.76-9.06l.39-.22h.17c1.11.52 2.21 1.05 3.33 1.56q8.63 4 17.28 7.9a.59.59 0 0 1 .41.64v22.22a.62.62 0 0 1-.41.66q-9.61 4.6-19.21 9.24a3.54 3.54 0 0 0-.41.26h-.08Zm21.55-30.08L619.31 207a.55.55 0 0 0-.41.57v21.16l.35-.13q9-4.26 17.91-8.5a.49.49 0 0 0 .32-.51v-20.85Zm-20 27.62v-18.92a.58.58 0 0 0-.39-.62c-1.89-.91-3.77-1.85-5.66-2.77l-.45-.2v10.17c-.19-.09-.3-.13-.4-.19-1.62-.88-3.22-1.77-4.84-2.64a.53.53 0 0 1-.32-.55v-9.21a.55.55 0 0 0-.35-.56c-1.61-.77-3.2-1.56-4.8-2.34l-.46-.21v20.8c0 .24 0 .42.29.55l17.08 8.07.29.12ZM629 195a.5.5 0 0 0-.38 0l-16.26 7.63-.16.12 5.88 2.8a.53.53 0 0 0 .39 0l16.82-7.6.15-.1Zm-23.12 4.72a.41.41 0 0 0 .34 0l16.74-7.37h.07l-.3-.17c-1.39-.64-2.78-1.28-4.18-1.9a.81.81 0 0 0-.61 0c-5.33 2.41-10.65 4.85-16 7.28a3.28 3.28 0 0 0-.36.19c1.42.65 2.86 1.32 4.27 1.98ZM561.94 229l-17.52-8a.6.6 0 0 1-.42-.64v-22.19a.6.6 0 0 1 .42-.64q9.89-4.51 19.76-9.06l.39-.22h.17c1.11.52 2.21 1.05 3.33 1.56q8.63 4 17.28 7.9a.59.59 0 0 1 .41.64v22.22a.62.62 0 0 1-.41.66q-9.61 4.6-19.21 9.24a3.54 3.54 0 0 0-.41.26h-.08Zm21.55-30.08L565.75 207a.55.55 0 0 0-.41.57v21.16l.35-.13q9-4.26 17.91-8.5a.48.48 0 0 0 .31-.51V198.7Zm-20 27.62v-18.92a.59.59 0 0 0-.39-.62c-1.89-.91-3.77-1.85-5.66-2.77L557 204v10.17l-.41-.19c-1.61-.88-3.21-1.77-4.83-2.64a.53.53 0 0 1-.32-.55v-9.21a.55.55 0 0 0-.35-.56c-1.61-.77-3.21-1.56-4.81-2.34l-.45-.21v20.8c0 .24 0 .42.29.55l17.08 8.07.29.12ZM575.41 195a.5.5 0 0 0-.38 0l-16.27 7.63-.15.12 5.88 2.8a.53.53 0 0 0 .39 0L581.7 198l.14-.1c-2.17-1.01-4.3-1.96-6.43-2.9Zm-23.12 4.72a.41.41 0 0 0 .34 0l16.74-7.37h.07l-.3-.17c-1.39-.64-2.78-1.28-4.18-1.9a.81.81 0 0 0-.61 0c-5.33 2.41-10.65 4.85-16 7.28a3.28 3.28 0 0 0-.36.19c1.48.65 2.89 1.32 4.3 1.98Zm99.11 128.59a10.53 10.53 0 0 1 7.6-6.07 2 2 0 0 0 1.21-.9 9.43 9.43 0 0 0 .93-2.5 30.38 30.38 0 0 0 .05-10.84 26.79 26.79 0 0 1 1.81-15.27 11.76 11.76 0 0 1 9.49-7.26 34.05 34.05 0 0 1 4.17-.12c5.52-.13 9.42 2.4 11.83 7.29a20.69 20.69 0 0 1 2.13 9.24c0 3.26-.56 6.52-.57 9.78a62.18 62.18 0 0 0 .69 8.39 2.5 2.5 0 0 0 2 2.29c4.87 1.15 9.24 6.58 9.47 11.66H649c.84-2 1.49-3.92 2.4-5.69Zm14-18.84a2.19 2.19 0 0 1 .59 1 17.65 17.65 0 0 0 4.28 6.45c3.53 3.23 7.55 3.2 11-.07a18.23 18.23 0 0 0 4.27-6.46 2.19 2.19 0 0 1 .89-1c1.64-.95 1.93-4.46.46-5.62-.26-.21-.3-.7-.46-1a23.89 23.89 0 0 0-2.11-4.27c-1.16-1.55-2.85-1.69-4.57-.8-4.15 2.13-8.3 4.25-12.43 6.4-1.08.56-2.12 1.39-3.05-.38a4.15 4.15 0 0 0 1.09 5.75Zm17.29 9.27c-5.13 4.4-9.52 3.71-13.84 0l-2.74 3c.8 2.45 5.55 5 9.71 5s9-2.53 9.69-4.92ZM780.93 84a3.8 3.8 0 0 1 2.73-2.18.72.72 0 0 0 .44-.32 3.25 3.25 0 0 0 .33-.9 10.88 10.88 0 0 0 0-3.9 9.64 9.64 0 0 1 .66-5.49 4.23 4.23 0 0 1 3.41-2.61 12.47 12.47 0 0 1 1.5 0 4.3 4.3 0 0 1 4.25 2.62 7.39 7.39 0 0 1 .77 3.32c0 1.17-.2 2.34-.21 3.52a23.5 23.5 0 0 0 .25 3 .9.9 0 0 0 .71.83 4.87 4.87 0 0 1 3.4 4.19h-19.1c.3-.81.53-1.49.86-2.08Zm5-6.77a.82.82 0 0 1 .21.35 6.29 6.29 0 0 0 1.54 2.32 2.69 2.69 0 0 0 4 0 6.63 6.63 0 0 0 1.54-2.33.81.81 0 0 1 .32-.34 1.44 1.44 0 0 0 .16-2c-.09-.07-.1-.25-.16-.37a8.82 8.82 0 0 0-.76-1.54 1.21 1.21 0 0 0-1.64-.29l-4.47 2.3c-.39.21-.77.51-1.1-.13a1.49 1.49 0 0 0 .43 1.98Zm6.22 3.33a3.37 3.37 0 0 1-5 0l-1 1.08c.29.88 2 1.79 3.5 1.79s3.21-.91 3.48-1.78ZM544 84a3.83 3.83 0 0 1 2.74-2.18.73.73 0 0 0 .43-.32 3.63 3.63 0 0 0 .34-.9 11.11 11.11 0 0 0 0-3.9 9.55 9.55 0 0 1 .65-5.49 4.26 4.26 0 0 1 3.42-2.61 12.3 12.3 0 0 1 1.49 0 4.32 4.32 0 0 1 4.26 2.62 7.38 7.38 0 0 1 .76 3.32c0 1.17-.2 2.34-.2 3.52a21.82 21.82 0 0 0 .25 3 .89.89 0 0 0 .7.83 4.84 4.84 0 0 1 3.4 4.19h-19.13c.3-.81.54-1.49.89-2.08Zm5-6.77c.11.07.16.23.22.35a6.17 6.17 0 0 0 1.54 2.32 2.69 2.69 0 0 0 4 0 6.6 6.6 0 0 0 1.53-2.33.81.81 0 0 1 .32-.34 1.43 1.43 0 0 0 .17-2c-.1-.07-.11-.25-.17-.37a8.17 8.17 0 0 0-.76-1.54 1.21 1.21 0 0 0-1.64-.29l-4.47 2.3c-.39.21-.76.51-1.09-.13a1.49 1.49 0 0 0 .35 1.98Zm6.22 3.33a3.38 3.38 0 0 1-5 0l-1 1.08c.29.88 2 1.79 3.49 1.79s3.22-.91 3.49-1.78ZM662.45 84a3.81 3.81 0 0 1 2.73-2.18.72.72 0 0 0 .44-.32 3.63 3.63 0 0 0 .34-.9 11.11 11.11 0 0 0 0-3.9 9.64 9.64 0 0 1 .66-5.49 4.26 4.26 0 0 1 3.38-2.66 12.52 12.52 0 0 1 1.5 0 4.32 4.32 0 0 1 4.26 2.62 7.51 7.51 0 0 1 .76 3.32c0 1.17-.2 2.34-.2 3.52a21.8 21.8 0 0 0 .24 3 .9.9 0 0 0 .71.83 4.84 4.84 0 0 1 3.4 4.19h-19.08c.3-.76.54-1.44.86-2.03Zm5-6.77a.73.73 0 0 1 .21.35 6.29 6.29 0 0 0 1.54 2.32 2.7 2.7 0 0 0 4 0 6.6 6.6 0 0 0 1.53-2.33.81.81 0 0 1 .32-.34 1.44 1.44 0 0 0 .17-2c-.1-.07-.11-.25-.17-.37a8.17 8.17 0 0 0-.76-1.54 1.21 1.21 0 0 0-1.64-.29l-4.47 2.3c-.39.21-.76.51-1.1-.13a1.5 1.5 0 0 0 .39 1.98Zm6.22 3.33a3.37 3.37 0 0 1-5 0l-1 1.08c.28.88 2 1.79 3.49 1.79s3.22-.91 3.48-1.78Zm157.56-37.93-6.45-3a.23.23 0 0 1-.16-.23v-8.18a.21.21 0 0 1 .16-.23l7.27-3.34.15-.08h.06l1.23.58 6.36 2.9a.23.23 0 0 1 .15.24v8.18a.22.22 0 0 1-.15.24l-7.08 3.41-.14.09c-.49-.16-.94-.38-1.4-.58Zm7.94-11.08-6.54 3a.21.21 0 0 0-.15.21v7.79l.12-.05 6.6-3.13a.17.17 0 0 0 .12-.18v-7.68Zm-7.37 10.17v-7a.23.23 0 0 0-.14-.23c-.7-.33-1.39-.68-2.08-1l-.17-.07v3.75l-.15-.07-1.78-1a.19.19 0 0 1-.12-.2v-3.39a.21.21 0 0 0-.13-.21l-1.77-.86-.17-.07v7.65c0 .09 0 .16.11.21l6.29 3h.1c.01-.16.02-.33.01-.51Zm4.39-11.59h-.14l-6 2.81-.05.06 2.17 1h.14l6.2-2.8Zm-8.52 1.74h.13l6.2-2.72-.11-.06-1.54-.7h-.22q-3 1.34-5.88 2.68l-.14.07Zm-16.16 10.76-6.46-3a.23.23 0 0 1-.15-.23v-8.13a.22.22 0 0 1 .15-.23l7.28-3.34.15-.08h.06l1.22.58 6.37 2.9a.23.23 0 0 1 .15.24v8.18a.22.22 0 0 1-.15.24l-7.08 3.41-.15.09Zm7.93-11.08-6.53 3a.2.2 0 0 0-.15.21v7.79l.13-.05 6.6-3.13a.17.17 0 0 0 .11-.18v-7.7Zm-7.36 10.17v-7a.23.23 0 0 0-.14-.23c-.7-.33-1.39-.68-2.09-1l-.16-.07v3.75l-.15-.07-1.78-1a.19.19 0 0 1-.12-.2v-3.36a.2.2 0 0 0-.13-.21l-1.77-.86-.16-.07v7.65c0 .09 0 .16.1.21 2.1 1 4.2 2 6.29 3h.11Zm4.38-11.59h-.14l-6 2.81h-.06l2.17 1h.14l6.19-2.8h.06ZM808 31.87h.13l6.16-2.71-.11-.06-1.54-.7h-.23l-5.88 2.68-.13.07Zm-16.22 10.76-6.45-3a.22.22 0 0 1-.15-.23v-8.13a.22.22 0 0 1 .15-.23l7.28-3.34.14-.08h.06l1.23.58 6.36 2.9a.22.22 0 0 1 .15.24v8.18a.21.21 0 0 1-.15.24l-7.07 3.41-.15.09c-.49-.21-.94-.43-1.4-.63Zm7.94-11.08-6.54 3a.21.21 0 0 0-.15.21v7.79l.13-.05 6.59-3.13a.17.17 0 0 0 .12-.18v-7.7Zm-7.36 10.17v-7a.22.22 0 0 0-.15-.23l-2.08-1-.17-.07v3.75l-.15-.07-1.78-1a.19.19 0 0 1-.11-.2v-3.36a.21.21 0 0 0-.13-.21l-1.79-.86-.17-.07v7.65a.19.19 0 0 0 .11.21c2.1 1 4.19 2 6.29 3h.11Zm4.38-11.59h-.14l-6 2.81h-.05l2.16 1h.14l6.2-2.8h.05Zm-8.51 1.74h.12l6.17-2.71-.11-.06-1.54-.7h-.22l-5.88 2.68-.13.07Zm-16.17 10.76-6.45-3a.23.23 0 0 1-.16-.23v-8.18a.21.21 0 0 1 .16-.23l7.27-3.34.15-.08h.06l1.22.58 6.37 2.9a.23.23 0 0 1 .15.24v8.18a.22.22 0 0 1-.15.24l-7.08 3.41-.14.09c-.46-.16-.94-.38-1.4-.58ZM780 31.55l-6.53 3a.2.2 0 0 0-.15.21v7.79l.13-.05 6.6-3.13a.17.17 0 0 0 .11-.18v-7.7Zm-7.36 10.17v-7a.23.23 0 0 0-.14-.23c-.7-.33-1.39-.68-2.08-1l-.17-.07v3.75l-.15-.07-1.78-1a.19.19 0 0 1-.12-.2v-3.39a.21.21 0 0 0-.13-.21c-.6-.28-1.18-.57-1.77-.86l-.17-.07v7.65c0 .09 0 .16.11.21l6.28 3h.11ZM777 30.13h-.14l-6 2.81h-.06L773 34h.14l6.19-2.8h.06Zm-8.52 1.74h.13l6.16-2.71-.11-.06-1.54-.7h-.23l-5.88 2.68-.13.07Zm-16.15 10.76-6.45-3a.22.22 0 0 1-.15-.23v-8.13a.22.22 0 0 1 .15-.23l7.28-3.34.14-.08h.07l1.22.58 6.41 2.9a.21.21 0 0 1 .15.24v8.18a.22.22 0 0 1-.14.24l-7.08 3.41-.15.09c-.53-.21-.99-.43-1.45-.63Zm7.94-11.08-6.53 3a.2.2 0 0 0-.15.21v7.79l.13-.05 6.59-3.13a.17.17 0 0 0 .12-.18v-7.7Zm-7.36 10.17v-7a.22.22 0 0 0-.15-.23l-2.08-1-.16-.07v3.75l-.15-.07-1.78-1a.19.19 0 0 1-.12-.2v-3.36a.2.2 0 0 0-.13-.21l-1.77-.86-.16-.07v7.65a.19.19 0 0 0 .11.21c2.1 1 4.2 2 6.29 3h.11Zm4.38-11.59h-.14l-6 2.81h-.06l2.16 1h.15l6.19-2.8Zm-8.51 1.74h.13l6.16-2.71-.11-.06-1.54-.7h-.22l-5.88 2.68-.13.07ZM588.54 42.63l-6.45-3a.23.23 0 0 1-.16-.23v-8.18a.21.21 0 0 1 .16-.23l7.27-3.34.15-.08h.06l1.22.58 6.37 2.9a.23.23 0 0 1 .15.24v8.18a.22.22 0 0 1-.15.24l-7.08 3.41-.14.09c-.49-.16-.94-.38-1.4-.58Zm7.93-11.08-6.53 3a.2.2 0 0 0-.15.21v7.79l.13-.05 6.6-3.13a.16.16 0 0 0 .11-.18v-7.7Zm-7.36 10.17v-7a.23.23 0 0 0-.14-.23c-.7-.33-1.39-.68-2.08-1l-.17-.07v3.75l-.15-.07-1.78-1a.19.19 0 0 1-.12-.2v-3.39a.21.21 0 0 0-.13-.21l-1.77-.86-.17-.07v7.65c0 .09 0 .16.11.21l6.28 3h.11Zm4.39-11.59h-.14l-6 2.81h-.06l2.17 1h.14l6.2-2.8Zm-8.5 1.74h.13l6.17-2.71-.11-.06-1.54-.7h-.23l-5.88 2.68-.13.07Zm-16.18 10.76-6.46-3a.22.22 0 0 1-.15-.23v-8.13a.22.22 0 0 1 .15-.23l7.28-3.34.14-.08h.07l1.22.58 6.37 2.9a.23.23 0 0 1 .15.24v8.18a.22.22 0 0 1-.15.24l-7.08 3.41-.15.09Zm7.93-11.08-6.53 3a.2.2 0 0 0-.15.21v7.79l.13-.05 6.6-3.13a.17.17 0 0 0 .11-.18v-7.7Zm-7.36 10.17v-7a.23.23 0 0 0-.14-.23c-.7-.33-1.39-.68-2.09-1l-.16-.07v3.75l-.15-.07-1.78-1a.19.19 0 0 1-.12-.2v-3.36a.2.2 0 0 0-.13-.21l-1.77-.86-.16-.07v7.65a.19.19 0 0 0 .11.21c2.1 1 4.2 2 6.29 3h.11Zm4.38-11.59h-.14l-6 2.81h-.06l2.16 1h.15l6.19-2.8h.06Zm-8.51 1.74h.13l6.16-2.71-.11-.06-1.55-.7h-.22l-5.88 2.68-.13.07Zm-16.17 10.76-6.45-3a.22.22 0 0 1-.15-.23v-8.13a.22.22 0 0 1 .15-.23l7.28-3.34.14-.08h.06l1.23.58 6.36 2.9a.22.22 0 0 1 .15.24v8.18a.21.21 0 0 1-.15.24l-7.07 3.41-.15.09c-.49-.21-.94-.43-1.4-.63ZM557 31.55l-6.54 3a.21.21 0 0 0-.15.21v7.79l.12-.05 6.6-3.13a.17.17 0 0 0 .12-.18v-7.68Zm-7.36 10.17v-7a.22.22 0 0 0-.15-.23l-2.08-1-.17-.07v3.75l-.15-.07-1.78-1a.19.19 0 0 1-.12-.2v-3.39a.21.21 0 0 0-.13-.21l-1.77-.86-.17-.07v7.65a.19.19 0 0 0 .11.21c2.1 1 4.19 2 6.29 3h.11Zm4.38-11.59h-.14l-6 2.81L550 34h.14l6.2-2.8Zm-8.51 1.74h.12l6.17-2.71-.11-.06-1.54-.7H550l-5.88 2.68-.14.07Zm-16.14 10.76-6.45-3a.23.23 0 0 1-.16-.23v-8.18a.21.21 0 0 1 .16-.23l7.27-3.34.15-.08h.06l1.22.58L538 31.1a.23.23 0 0 1 .15.24v8.18a.22.22 0 0 1-.15.24l-7.08 3.41-.15.09c-.49-.21-.94-.43-1.4-.63Zm7.93-11.08-6.53 3a.2.2 0 0 0-.15.21v7.79l.13-.05 6.6-3.13a.17.17 0 0 0 .11-.18v-7.7Zm-7.36 10.17v-7a.23.23 0 0 0-.14-.23c-.7-.33-1.39-.68-2.08-1l-.17-.07v3.75l-.15-.07-1.78-1a.19.19 0 0 1-.12-.2v-3.36a.19.19 0 0 0-.13-.21l-1.76-.86-.17-.07v7.65c0 .09 0 .16.1.21 2.1 1 4.2 2 6.29 3h.11Zm4.39-11.59h-.14l-6 2.81h-.06l2.17 1h.14l6.19-2.8h.06Zm-8.52 1.74h.13l6.16-2.71-.11-.06-1.54-.7h-.23l-5.88 2.68-.13.07Zm-16.17 10.76-6.45-3a.22.22 0 0 1-.15-.23v-8.13a.22.22 0 0 1 .15-.23l7.28-3.34.14-.08h.06l1.23.58 6.36 2.9a.21.21 0 0 1 .15.24v8.18a.21.21 0 0 1-.15.24l-7.07 3.41-.15.09c-.49-.21-.94-.43-1.4-.63Zm7.94-11.08-6.53 3a.2.2 0 0 0-.15.21v7.79l.13-.05 6.59-3.13a.17.17 0 0 0 .12-.18v-7.7Zm-7.36 10.17v-7a.22.22 0 0 0-.15-.23l-2.08-1-.16-.07v3.75l-.15-.07-1.78-1a.19.19 0 0 1-.12-.2v-3.36a.2.2 0 0 0-.13-.21l-1.77-.86-.17-.07v7.65a.19.19 0 0 0 .11.21c2.1 1 4.19 2 6.29 3h.11Zm4.38-11.59h-.14l-6 2.81h-.05l2.16 1h.15l6.19-2.8h.05Zm-8.51 1.74h.13l6.16-2.71-.11-.06-1.54-.7h-.22l-5.88 2.68-.13.07Zm203.79 10.76c-2.14-1-4.3-2-6.45-3a.22.22 0 0 1-.15-.23v-8.13a.22.22 0 0 1 .15-.23l7.28-3.34.14-.08h.07l1.22.58 6.36 2.9a.23.23 0 0 1 .16.24v8.18a.2.2 0 0 1-.15.24l-7.07 3.41-.15.09c-.5-.21-.95-.43-1.41-.63Zm7.94-11.08-6.53 3a.2.2 0 0 0-.15.21v7.79l.13-.05 6.59-3.13a.17.17 0 0 0 .12-.18v-7.7Zm-7.36 10.17v-7a.22.22 0 0 0-.15-.23l-2.08-1-.16-.07v3.75l-.15-.07-1.78-1a.19.19 0 0 1-.12-.2v-3.36a.2.2 0 0 0-.13-.21l-1.77-.86-.12-.07v7.65a.19.19 0 0 0 .11.21c2.1 1 4.19 2 6.29 3h.11Zm4.38-11.59h-.14l-6 2.81h-.05l2.16 1h.19l6.19-2.8h.05Zm-8.51 1.74h.13l6.16-2.71-.11-.06-1.54-.7h-.22l-5.88 2.68-.13.07Zm-16.17 10.76-6.45-3a.23.23 0 0 1-.16-.23v-8.18a.23.23 0 0 1 .16-.23L691 27.7l.14-.08h.06l1.23.58 6.36 2.9a.22.22 0 0 1 .15.24v8.18a.22.22 0 0 1-.15.24l-7.07 3.41-.15.09c-.5-.21-.95-.43-1.41-.63Zm7.94-11.08-6.54 3a.21.21 0 0 0-.15.21v7.79l.12-.05 6.6-3.13a.17.17 0 0 0 .12-.18v-7.68Zm-7.36 10.17v-7a.22.22 0 0 0-.14-.23c-.7-.33-1.39-.68-2.08-1l-.17-.07v3.75l-.15-.07-1.78-1a.19.19 0 0 1-.12-.2v-3.39a.21.21 0 0 0-.13-.21l-1.77-.86-.17-.07v7.65a.19.19 0 0 0 .11.21c2.1 1 4.19 2 6.29 3h.11Zm4.38-11.59H695l-6 2.81h-.06l2.17 1h.14l6.2-2.8Zm-8.51 1.74h.12l6.17-2.71-.11-.06-1.54-.7h-.22l-5.88 2.68-.14.07Zm-16.17 10.76-6.45-3a.23.23 0 0 1-.16-.23v-8.13A.22.22 0 0 1 664 31l7.28-3.34.15-.08h.06l1.22.58 6.37 2.9a.23.23 0 0 1 .15.24v8.18a.22.22 0 0 1-.15.24L672 43.17l-.15.09Zm7.93-11.08-6.53 3a.2.2 0 0 0-.15.21v7.79l.13-.05 6.6-3.13a.17.17 0 0 0 .11-.18v-7.7ZM671 41.72v-7a.23.23 0 0 0-.14-.23c-.7-.33-1.39-.68-2.08-1l-.17-.07v3.75l-.15-.07-1.78-1a.19.19 0 0 1-.12-.2v-3.36a.2.2 0 0 0-.13-.21l-1.76-.86-.17-.07v7.65c0 .09 0 .16.1.21 2.1 1 4.2 2 6.29 3h.11Zm4.39-11.59h-.14l-6 2.81h-.06l2.17 1h.14l6.19-2.8h.06Zm-8.52 1.74h.13l6.16-2.71-.11-.06-1.54-.7h-.23l-5.88 2.68-.13.07Zm-16.16 10.76-6.45-3a.22.22 0 0 1-.15-.23v-8.13a.22.22 0 0 1 .15-.23l7.28-3.34.14-.08h.06l1.23.58 6.36 2.9a.22.22 0 0 1 .15.24v8.18a.21.21 0 0 1-.15.24l-7.07 3.41-.15.09c-.49-.21-.94-.43-1.4-.63Zm7.94-11.08-6.53 3a.21.21 0 0 0-.16.21v7.79l.13-.05 6.59-3.13a.17.17 0 0 0 .12-.18v-7.7Zm-7.36 10.17v-7a.22.22 0 0 0-.15-.23l-2.08-1-.16-.07v3.75l-.15-.07-1.79-1a.19.19 0 0 1-.11-.2v-3.36a.21.21 0 0 0-.13-.21l-1.72-.86-.17-.07v7.65a.19.19 0 0 0 .11.21c2.1 1 4.19 2 6.29 3h.11Zm4.38-11.59h-.14l-6 2.81 2.16 1h.14l6.2-2.8Zm-8.51 1.74h.13l6.16-2.71-.11-.06-1.54-.7h-.22l-5.88 2.68-.13.07ZM631 42.63l-6.45-3a.23.23 0 0 1-.16-.23v-8.18a.21.21 0 0 1 .16-.23l7.27-3.34.15-.08h.03l1.23.58 6.36 2.9a.23.23 0 0 1 .15.24v8.18a.22.22 0 0 1-.15.24l-7.07 3.41-.15.09c-.47-.16-.92-.38-1.37-.58Zm7.93-11.08-6.53 3a.21.21 0 0 0-.15.21v7.79l.12-.05 6.6-3.13a.16.16 0 0 0 .11-.18v-7.7Zm-7.36 10.17v-7a.23.23 0 0 0-.14-.23c-.7-.33-1.39-.68-2.08-1l-.17-.07v3.75l-.15-.07-1.78-1a.19.19 0 0 1-.12-.2v-3.39a.21.21 0 0 0-.13-.21l-1.77-.86-.17-.07v7.65c0 .09 0 .16.11.21l6.29 3h.1ZM636 30.13h-.14l-6 2.81h-.06l2.17 1h.14l6.2-2.8h.05Zm-8.52 1.74h.13l6.17-2.71-.11-.06-1.54-.7h-.22q-3 1.34-5.88 2.68l-.14.07Z" style="fill:#f7eec9"/></svg>