<svg id="Layer_1" data-name="Layer 1" xmlns="http://www.w3.org/2000/svg" viewBox="0 0 986.24 783.68"><defs><style>.cls-1{fill:#83c2e5;}.cls-2{fill:#fff;}.cls-3{fill:#b54e67;}.cls-4{fill:#ff7bac;}</style></defs><title>ecma-v</title><path class="cls-1" d="M421.16,433.15l80.19,205.79,80.9-205.79H747.59L563.09,906.46H440.32L255.82,433.15Zm88,416.55L649.66,489.92H629.79L501.35,817.05,373.62,489.92H353.75L494.25,849.69Z" transform="translate(-6.9 -122.78)"/><path class="cls-2" d="M509.15,848.71,649.66,488.93H629.79L501.35,816.06,372.63,488.93H353.75L494.25,848.71Z" transform="translate(-6.9 -122.78)"/><polygon class="cls-3" points="0.1 227.9 0.05 3.92 185.54 3.87 185.59 51.73 69.45 51.78 69.5 87.32 177.14 87.27 177.19 132.99 69.45 133.04 69.5 177.14 188.9 177.09 188.95 227.9 0.1 227.9"/><path class="cls-4" d="M192.44,126.7v47.81H76.35V210.1H184v45.67H76.35v44.14H195.8v50.71H7V126.7H192.44m.1-.1H6.9V350.73h189V299.82H76.45V255.88H184.14V210H76.45V174.61H192.54v-48Z" transform="translate(-6.9 -122.78)"/><path class="cls-3" d="M341.37,354.5c-24.23,0-44.31-3.57-59.67-10.61s-28.81-19.61-40-37.34-16.81-40.75-16.81-68.42c0-36.88,9.95-65.63,29.57-85.44s47.77-29.86,83.67-29.86c28.08,0,50.48,5.76,66.55,17.12s28.18,29,36,52.57l-61.14,13.66c-2.18-6.82-4.44-11.85-6.77-15A40,40,0,0,0,358.61,179a41,41,0,0,0-18.77-4.27c-15.59,0-27.71,6.36-36,18.9-6.28,9.3-9.46,24.13-9.46,44.06,0,24.69,3.8,41.85,11.29,51s18.17,13.79,31.73,13.79c13.16,0,23.25-3.75,30-11.13S379.07,273.05,382.1,259l60.71,18.29c-4,17-10.5,31.34-19.22,42.7A84,84,0,0,1,391,345.79C378,351.57,361.34,354.5,341.37,354.5Z" transform="translate(-6.9 -122.78)"/><path class="cls-4" d="M338.16,122.88q42.31,0,66.52,17.11t36,52.55l-61.1,13.59q-3.21-10.23-6.72-15a39.86,39.86,0,0,0-14.21-12.22,40.84,40.84,0,0,0-18.79-4.28q-23.52,0-36,18.92-9.47,14-9.47,44.09,0,37.23,11.3,51t31.77,13.81q19.85,0,30-11.15T382.15,259l60.64,18.33q-6.11,25.51-19.25,42.62a83.53,83.53,0,0,1-32.61,25.81q-19.48,8.71-49.57,8.71-36.51,0-59.65-10.61t-39.94-37.32Q225,279.81,225,238.13q0-55.56,29.56-85.41t83.63-29.84m0-.1c-18,0-34.09,2.51-48,7.47A92.51,92.51,0,0,0,232.27,189c-4.91,14.18-7.39,30.72-7.39,49.17,0,27.68,5.66,50.7,16.82,68.44s24.61,30.31,40,37.36,35.45,10.62,59.69,10.62c20,0,36.67-2.93,49.61-8.72A84,84,0,0,0,423.63,320c8.72-11.36,15.21-25.71,19.26-42.65l0-.09-.09,0-60.64-18.33-.1,0,0,.11c-3,14.07-8,25-14.72,32.34s-16.8,11.12-29.94,11.12c-13.55,0-24.22-4.63-31.69-13.77s-11.28-26.29-11.28-51c0-19.92,3.18-34.74,9.45-44a41.44,41.44,0,0,1,15.24-14.16,44.16,44.16,0,0,1,20.73-4.72A40.92,40.92,0,0,1,358.58,179a39.94,39.94,0,0,1,14.17,12.19c2.32,3.13,4.58,8.16,6.71,14.94l0,.09.09,0,61.1-13.59.11,0,0-.11c-7.81-23.54-19.93-41.23-36-52.6s-38.49-17.13-66.58-17.13Z" transform="translate(-6.9 -122.78)"/><polygon class="cls-3" points="663.95 227.9 663.9 57.08 620.33 227.86 568.99 227.9 525.36 57.09 525.46 227.85 468.74 227.9 468.69 3.92 559.74 3.87 594.88 140.16 629.63 3.91 720.62 3.87 720.67 227.9 663.95 227.9"/><path class="cls-4" d="M727.52,126.7V350.63H670.85V179.86L627.19,350.63H575.89L532.31,179.86V350.63H475.64V126.7h91L601.73,263,636.58,126.7h90.95m.1-.1H636.5l0,.08L601.73,262.55l-35-135.88,0-.08H475.54V350.73h56.87V180.65l43.39,170,0,.08h51.45l0-.08,43.47-170V350.73h56.87V126.6Z" transform="translate(-6.9 -122.78)"/><path class="cls-3" d="M920.54,350.68l-11.25-37-78.51,0-10.87,36.93-70.7,0,84.12-224,75.52,0,84.22,224Zm-74.68-85.42L895,265.2l-24.72-80.28Z" transform="translate(-6.9 -122.78)"/><path class="cls-4" d="M908.85,126.7,993,350.63H920.54l-11.2-37H830.78l-10.91,37H749.21L833.38,126.7h75.48m-63,138.54H895l-24.72-80.5-24.46,80.5M908.92,126.6H833.31l0,.06L749.12,350.6l-.05.14h70.87l0-.07,10.89-36.89h78.41l11.18,36.89,0,.07h72.68l-.05-.14L908.95,126.67l0-.06Zm-63,138.54,24.32-80.06,24.58,80.06Z" transform="translate(-6.9 -122.78)"/></svg>