<svg id="Layer_1" data-name="Layer 1" xmlns="http://www.w3.org/2000/svg" viewBox="0 0 961.09 753"><defs><style>.cls-1{fill:#83c2e5;}.cls-2{fill:#fff;}.cls-3{fill:#b54e67;}.cls-4{fill:#ff7bac;}</style></defs><title>es-check</title><path class="cls-1" d="M594.44,555.76l58.14,108.45L820.28,267.7H981L728.23,875.81H609L413.29,555.76Z" transform="translate(-19.91 -122.81)"/><path class="cls-2" d="M668.55,817.83,887.62,325.7H869.86L660.72,793.61,549.91,613.76H529.37L655.64,817.83Z" transform="translate(-19.91 -122.81)"/><polygon class="cls-3" points="0.1 374.48 0.05 6.38 304.88 6.33 304.93 84.96 114.08 85.01 114.13 143.45 291.07 143.4 291.12 218.52 114.08 218.57 114.13 291.07 310.41 291.02 310.46 374.48 0.1 374.48"/><path class="cls-4" d="M324.79,129.18v78.58H134v58.5H311v75.07H134v72.56H330.31v83.35H20v-368H324.79m.1-.1h-305V497.33H330.41V413.78H134.08V341.42h177V266.16h-177v-58.3h190.8V129.08Z" transform="translate(-19.91 -122.81)"/><path class="cls-3" d="M542.71,503.56c-62.32,0-106.08-12.17-130.08-36.17s-37.77-54.93-40.94-91.92l108.25-6.83c2.38,17.53,7.2,31,14.35,40.19,11.65,14.81,28.52,22.33,50.17,22.33,16.15,0,28.77-3.84,37.5-11.41s13.16-16.47,13.16-26.45c0-9.48-4.22-18.08-12.54-25.57s-27.92-14.67-58.22-21.33c-49.65-11.16-85.56-26.2-106.72-44.7-21.33-18.5-32.15-42.42-32.15-71.09,0-18.83,5.54-36.88,16.45-53.63s27.56-30.1,49.48-39.69,52.37-14.44,90.53-14.44c46.81,0,83,8.83,107.61,26.24s39.41,45.51,44.08,83.51l-107.25,6.33c-2.89-16.52-8.92-28.68-18-36.16s-21.77-11.29-37.75-11.29c-13.15,0-23.19,2.83-29.84,8.4s-10,12.45-10,20.42c0,5.82,2.78,11.13,8.27,15.78,5.33,4.83,18.16,9.39,38.14,13.55,49.47,10.66,85.42,21.6,106.84,32.52s37.22,24.65,47,40.81,14.69,34.51,14.69,54.51a117.26,117.26,0,0,1-19.59,65.3c-13,19.83-31.42,35.08-54.75,45.33S578.19,503.56,542.71,503.56Z" transform="translate(-19.91 -122.81)"/><path class="cls-4" d="M542,122.91q70.55,0,107.58,26.24t44.06,83.48l-107.2,6.28q-4.27-24.85-18-36.15t-37.78-11.3q-19.83,0-29.88,8.41t-10,20.46q0,8.79,8.28,15.82,8,7.29,38.16,13.56Q611.75,265.76,644,282.2T691,323q14.69,24.35,14.69,54.48a116.69,116.69,0,0,1-19.58,65.27q-19.58,29.88-54.73,45.32T542.7,503.51q-93.9,0-130-36.15t-40.92-91.89l108.21-6.78q3.51,26.36,14.31,40.17,17.57,22.35,50.21,22.34,24.35,0,37.53-11.42t13.18-26.49q0-14.31-12.55-25.61t-58.25-21.34q-74.81-16.82-106.7-44.69-32.14-27.87-32.14-71,0-28.37,16.44-53.6t49.46-39.67q33-14.44,90.51-14.44m0-.1c-38.17,0-68.63,4.86-90.55,14.44s-38.59,23-49.5,39.7-16.46,34.81-16.46,53.66a94.94,94.94,0,0,0,8,39.39,92.53,92.53,0,0,0,24.13,31.73c10.59,9.25,24.93,17.71,42.64,25.12s39.27,14,64.1,19.59c30.3,6.66,49.88,13.83,58.2,21.32s12.52,16.07,12.52,25.53c0,10-4.42,18.85-13.15,26.41s-21.33,11.4-37.47,11.4c-10.82,0-20.52-1.88-28.83-5.58a55.74,55.74,0,0,1-21.3-16.73c-7.15-9.14-12-22.64-14.29-40.12v-.09h-.09l-108.21,6.78h-.1v.1a157.76,157.76,0,0,0,12.62,50.87,136.45,136.45,0,0,0,28.33,41.08c12,12,29,21.14,50.63,27.14s48.33,9,79.49,9c35.49,0,65.32-5.2,88.66-15.45s41.77-25.51,54.77-45.35a117.31,117.31,0,0,0,19.6-65.33c0-20-4.95-38.36-14.7-54.53s-25.57-29.91-47-40.83-57.38-21.86-106.85-32.52c-20-4.16-32.8-8.71-38.11-13.53-5.48-4.64-8.25-9.94-8.25-15.74,0-8,3.37-14.82,10-20.38s16.67-8.39,29.81-8.39c16,0,28.66,3.79,37.72,11.27s15.08,19.62,17.92,36.09l0,.09h.09l107.2-6.28h.11v-.11c-2.33-19-7.23-35.67-14.54-49.52a96.19,96.19,0,0,0-29.56-34c-12.3-8.71-27.59-15.34-45.45-19.69s-38.78-6.56-62.19-6.56Z" transform="translate(-19.91 -122.81)"/></svg>