<svg xmlns="http://www.w3.org/2000/svg" viewBox="0 0 856.62 429.43"><defs><style>.cls-1{fill:#abcced;}.cls-2{fill:#3d69aa;}</style></defs><title>tracksuit</title><g id="Layer_2" data-name="Layer 2"><path class="cls-1" d="M461.26,61.44l17.37-5.29s3.51,21.59,34.49,21.4c0,0,30.21,2.77,35.24-21.4l14.35,4.53s-6,45.31,8.31,53.62c0,0-2.6,36.71-2.77,51.1S571,204.67,571,204.67s-50.6,19.63-115.79,2c0,0,4.53-76.78,0-91.12C455.22,115.56,471.84,106,461.26,61.44Z" transform="translate(-79.77 -56.15)"/></g><g id="Layer_6" data-name="Layer 6"><path class="cls-2" d="M174.44,304.22c6.67,0,11.2,6.13,11.2,11.73,0,4-2.4,7.73-7.73,8.8-15.2,2.93-30.67,4.27-46.14,5.07V464c0,6.67-5.07,9.87-10.4,9.87S111,470.64,111,464V330.36c-7.2,0-14.13.27-21.07.27s-10.13-5.07-10.13-10.4S83,309.56,89.9,309.56H111v-.27c0-6.67,5.33-10.13,10.4-10.13s10.4,3.47,10.4,9.87a294.71,294.71,0,0,0,40.54-4.53A5.87,5.87,0,0,1,174.44,304.22Z" transform="translate(-79.77 -56.15)"/><path class="cls-2" d="M272.32,462.11c0,5.87-5.6,10.67-11.2,10.67-3.2,0-6.13-1.6-8.27-5.33-9.07-16.8-25.07-29.6-38.94-43.47.27,14.67.27,29.34.27,43.74,0,6.93-5.33,10.13-10.67,10.13s-10.4-3.2-10.4-10.13v-28.8c0-14.4,0-29.07-.53-43.74a52.18,52.18,0,0,1-3.47-10.93,7.39,7.39,0,0,1-.27-2.4,11.62,11.62,0,0,1,2.93-7.73,537.8,537.8,0,0,0-7.2-65.34c0-.8-.27-1.33-.27-2.13,0-6.13,5.33-10.13,10.4-10.93a10,10,0,0,1,3.47-4,41.41,41.41,0,0,1,23.47-7.47c25.07,0,49.07,23.2,49.07,49.87,0,1.07-.27,2.4-.27,3.47-2.13,28-31.74,43.74-57.34,51.21V389c6.13,11.47,16.8,21.07,25.87,29.87,11.74,11.73,24,23.47,32,38.14A9.63,9.63,0,0,1,272.32,462.11ZM249.39,333.29c0-14.4-13.07-28-27.2-28a23.24,23.24,0,0,0-13.33,4.27,15.91,15.91,0,0,1-2.93,1.6c2.93,18.67,5.07,37.34,6.13,56.27,13.33-4.27,27.2-10.93,33.87-21.87A23.86,23.86,0,0,0,249.39,333.29Z" transform="translate(-79.77 -56.15)"/><path class="cls-2" d="M387.53,464.78c0,4.53-5.33,7.2-10.67,7.2-4,0-8.27-1.6-10.13-5.6-7.2-14.94-11.2-30.67-14.67-46.41-16,2.67-31.47,3.47-47.47,3.73a246.12,246.12,0,0,0-1.33,28c0,8.8,1.33,17.87,1.33,26.67,0,4.8-4.27,7.2-9.07,7.2-5.07,0-10.93-2.67-11.47-8.27-1.07-8.8-1.07-17.87-1.07-26.67a288.3,288.3,0,0,1,1.87-33.87c-.27-1.87-.53-3.73.53-5.33,1.33-11.47,3.2-22.67,5.33-33.61,5.33-25.34,12.8-70.41,41.87-84.81a10.45,10.45,0,0,1,4.8-1.07c4.27,0,8.53,2.4,10.13,6.13C369.13,348.23,363,412,386.46,461.58A7.59,7.59,0,0,1,387.53,464.78Zm-38.4-61.87c-4.27-26.67-7.47-61.34-16.27-87.21-5.33,6.13-8.53,21.87-11.47,28.54-5.87,15.2-9.6,30.94-12.53,46.94a150,150,0,0,0-2.4,15.2C320.86,406.1,335,405.3,349.13,402.9Z" transform="translate(-79.77 -56.15)"/><path class="cls-2" d="M431.27,453.58c4,0,15.47-13.87,20.54-20.54a10.87,10.87,0,0,1,9.07-4.53c5.87,0,11.73,4.27,11.73,9.6a9.24,9.24,0,0,1-1.87,5.33,130.37,130.37,0,0,1-12.27,14.94c-8.53,8.8-19.2,14.13-28.8,14.13-9.87,0-18.94-5.6-24.27-18.67-5.87-14.13-7.73-30.4-7.73-46.67,0-13.34,1.33-26.4,2.67-38.41,2.93-26.4,6.4-58.67,22.4-81.61,6.4-9.07,13.6-12.8,20.54-12.8,10.93,0,21.34,9.07,27.47,21.87a10.16,10.16,0,0,1,1.07,4.53c0,6.4-6.13,11.2-12,11.2-3.2,0-6.13-1.6-8-5.33s-2.93-13.07-6.67-13.07h-.53c-1.33.27-1.6,1.87-2.4,2.93a48.65,48.65,0,0,0-5.33,9.6c-9.6,22.94-13.6,48-15.74,72.54-1.07,11.73-5.33,27.74-5.33,42.4,0,12.8,3.2,24.8,14.67,32.27A1,1,0,0,0,431.27,453.58Z" transform="translate(-79.77 -56.15)"/><path class="cls-2" d="M585.15,453.31c0,5.33-5.07,10.4-10.4,10.4a9.36,9.36,0,0,1-6.67-2.93c-18.14-18.4-30.94-61.34-60.27-64v77.61c0,6.4-4.8,9.6-9.87,9.6s-10.13-3.2-10.13-9.6V293.82c0-6.4,5.07-9.87,10.13-9.87s9.87,3.47,9.87,9.87V360c11.47-22.67,24.54-44.27,37.07-66.14a8.87,8.87,0,0,1,8-4.8c5.33,0,10.93,4.53,10.93,10.13a8.24,8.24,0,0,1-1.33,4.8c-14.14,24.54-29.6,49.34-41.87,75.21,29.6,9.87,40.27,45.87,61.61,67.48A9.35,9.35,0,0,1,585.15,453.31Z" transform="translate(-79.77 -56.15)"/><path class="cls-2" d="M672.36,306.09c0,5.6-4.8,11.2-10.93,11.2a10.85,10.85,0,0,1-4.8-1.33,17.29,17.29,0,0,0-7.74-1.87c-13.6,0-24,18.4-26.14,30.94,0,.53-.27,1.07-.27,1.6,0,7.73,10.4,14.13,14.67,19.74,11.73,14.67,21.34,32.8,21.34,51.47a51.09,51.09,0,0,1-2.67,16.53c-5.33,16.27-16.8,33.34-34.4,37.07a40,40,0,0,1-5.33.53c-15.47,0-23.2-16-23.2-30.94,0-6.4,5.07-9.6,10.13-9.6,5.33,0,10.67,3.2,10.93,10.14.27,6.4,2.13,8.8,4.53,8.8,5.6,0,14.13-12.27,16.27-18.67a44.94,44.94,0,0,0,2.4-14.13c0-18.4-12.53-33.34-25.34-48-6.67-7.47-9.33-15.2-9.33-22.94,0-9.6,4-19.2,9.87-29.07,9.07-14.93,21.07-24.8,35.74-24.8A41.19,41.19,0,0,1,667,297.82,9,9,0,0,1,672.36,306.09Z" transform="translate(-79.77 -56.15)"/><path class="cls-2" d="M770.24,456c0,6.4-5.87,11.47-11.47,11.47-3.2,0-5.87-1.6-7.73-5.33a225.78,225.78,0,0,1-13.6-39.74c-6.13,16.54-17.07,36.8-32,36.8a17.48,17.48,0,0,1-6.13-1.07c-19.74-6.93-18.94-37.6-19.2-54.41v-4.27c0-22.4,1.87-44.27,2.13-66.67,0-6.93,5.33-10.14,10.67-10.14s10.4,3.2,10.4,10.14c0,18.14-1.87,36-2.13,54.14,0,3.47-.27,7.2-.27,10.67a195.11,195.11,0,0,0,1.07,21.6c.27,2.4.27,4.8.53,7.2.27,1.33.27,2.67.53,4a4.54,4.54,0,0,1,.27,1.87,4.55,4.55,0,0,0,.27,1.87,2.7,2.7,0,0,0,1.87,1.07c.8,0,1.6-1.07,2.13-1.6a39,39,0,0,0,4.27-5.07,18.07,18.07,0,0,0,1.87-2.93c6.93-12,9.07-26.67,10.13-40.27,2.4-28.27-.27-56.81,3.2-84.81a11.42,11.42,0,0,1,11.47-10.13c5.07,0,9.6,3.2,9.6,10.13,0,50.94,0,103.48,21.07,151A10.15,10.15,0,0,1,770.24,456Z" transform="translate(-79.77 -56.15)"/><path class="cls-2" d="M800.64,278.09c5.6,0,12.27,4.53,12.27,12,0,.53-.27,1.33-.27,2.13-4.27,29.07-5.33,58.67-5.33,88,0,28.54,1.07,57.07,1.07,85.61,0,7.47-5.6,10.93-10.93,10.93s-10.67-3.47-10.67-10.93c0-27.74-1.07-55.21-1.07-82.94,0-32.27,1.33-64.54,6.13-96.54C792.64,280.49,796.37,278.09,800.64,278.09Z" transform="translate(-79.77 -56.15)"/><path class="cls-2" d="M925.19,304.22c6.67,0,11.2,6.13,11.2,11.73,0,4-2.4,7.73-7.73,8.8-15.2,2.93-30.67,4.27-46.14,5.07V464c0,6.67-5.07,9.87-10.4,9.87s-10.4-3.2-10.4-9.87V330.36c-7.2,0-14.14.27-21.07.27s-10.14-5.07-10.14-10.4,3.2-10.67,10.14-10.67h21.07v-.27c0-6.67,5.33-10.13,10.4-10.13s10.4,3.47,10.4,9.87a294.72,294.72,0,0,0,40.54-4.53A5.86,5.86,0,0,1,925.19,304.22Z" transform="translate(-79.77 -56.15)"/></g></svg>
