<svg id="24ecdd7b-39f2-4f86-bfed-79130326f5d1" data-name="Layer 1" xmlns="http://www.w3.org/2000/svg" viewBox="0 0 177.43 45.2"><defs><style>.\34 e153a4f-637c-4153-bc8e-577fbe82f516{fill:#ec6a56;}</style></defs><title>reframe</title><path class="4e153a4f-637c-4153-bc8e-577fbe82f516" d="M90.61,11.57a6.48,6.48,0,0,1-.29,1.86,7.72,7.72,0,0,1-.9,1.93,9.62,9.62,0,0,1-1.55,1.84,10.48,10.48,0,0,1-2.27,1.59,15,15,0,0,1-3,1.17,18.11,18.11,0,0,1-3.8.59,6.81,6.81,0,0,1,2.13,1.22,7.43,7.43,0,0,1,1.43,1.67,10.64,10.64,0,0,1,1,2,14.75,14.75,0,0,1,.59,2q0.19,0.95.42,1.82a16.15,16.15,0,0,0,.49,1.57A3.26,3.26,0,0,0,85.45,32a1.37,1.37,0,0,0,1.05.42,5,5,0,0,0,1.37-.21,9,9,0,0,0,1.53-.6,11.88,11.88,0,0,0,1.54-.92,11.44,11.44,0,0,0,1.43-1.18l2.13,3.6a2.08,2.08,0,0,0-.35.23q-0.35.25-1,.63t-1.48.83a16.61,16.61,0,0,1-4.06,1.48,10.69,10.69,0,0,1-2.34.26A3.93,3.93,0,0,1,83,35.9a5.75,5.75,0,0,1-1.62-1.75,11.28,11.28,0,0,1-1.11-2.47q-0.44-1.39-.72-2.67l-0.6-2.78q-0.32-1.49-.68-2.64a5.62,5.62,0,0,0-.89-1.81,1.62,1.62,0,0,0-1.32-.66H74.78q-0.57,4-1.08,7.18a27.91,27.91,0,0,1-1.37,5.44,8.86,8.86,0,0,1-2.13,3.42,4.46,4.46,0,0,1-3.14,1.18,6.38,6.38,0,0,1-2.69-.56,7.65,7.65,0,0,1-2.21-1.54,10.3,10.3,0,0,1-1.72-2.28,15.37,15.37,0,0,1-1.22-2.8,19.84,19.84,0,0,1-.74-3.1,20.72,20.72,0,0,1-.25-3.18,22.23,22.23,0,0,1,6-15.2,21.16,21.16,0,0,1,4.26-3.51A20.69,20.69,0,0,1,79.53,3a14.67,14.67,0,0,1,2.74.26A13.76,13.76,0,0,1,84.86,4a11.55,11.55,0,0,1,2.29,1.23A8.7,8.7,0,0,1,89,6.94,7.71,7.71,0,0,1,90.17,9,7,7,0,0,1,90.61,11.57ZM79.2,7.14A16.19,16.19,0,0,0,73.78,8a14.42,14.42,0,0,0-4.19,2.28,14.68,14.68,0,0,0-3.08,3.33,19.7,19.7,0,0,0-2.06,4,22.13,22.13,0,0,0-1.15,4.21,24.49,24.49,0,0,0-.36,4.06,17.59,17.59,0,0,0,.26,3A10.75,10.75,0,0,0,64,31.52a5.56,5.56,0,0,0,1.43,1.94,3.14,3.14,0,0,0,2.11.74,1.5,1.5,0,0,0,1.1-.49,4.45,4.45,0,0,0,.85-1.31,11.76,11.76,0,0,0,.64-1.89,14.93,14.93,0,0,0,.39-2.24l0.23-2.34L71,23.73q0.1-1,.14-1.82t0-1.21A11.65,11.65,0,0,1,69,19.5a1.61,1.61,0,0,1-.74-1.29q0-.2,0-0.49a2.07,2.07,0,0,1,.12-0.53,1.15,1.15,0,0,1,.26-0.42,0.63,0.63,0,0,1,.46-0.17l0.51,0,0.8,0,0.77,0h0.46l0,0q0-.4.06-0.86t0.16-1a7.9,7.9,0,0,1,.32-1.19,4.29,4.29,0,0,1,.57-1.08,3,3,0,0,1,.84-0.79,2.23,2.23,0,0,1,1.2-.3,1.44,1.44,0,0,1,1.23.43,1.82,1.82,0,0,1,.31,1.09v0.17a8,8,0,0,1-.41,1.9,27.69,27.69,0,0,0-.7,2.74,21.67,21.67,0,0,0,5.2-.62,10.29,10.29,0,0,0,3.25-1.41,5,5,0,0,0,1.68-1.87,4.56,4.56,0,0,0,.48-2A3.69,3.69,0,0,0,85.47,10a4.35,4.35,0,0,0-1.28-1.46,6.66,6.66,0,0,0-2.09-1A10.06,10.06,0,0,0,79.2,7.14Z" transform="translate(-58.23 -0.78)"/><path class="4e153a4f-637c-4153-bc8e-577fbe82f516" d="M97.27,34.79a6.7,6.7,0,0,1-3-.64,6.24,6.24,0,0,1-2.15-1.71A7.39,7.39,0,0,1,90.83,30a10.15,10.15,0,0,1-.43-3,9.41,9.41,0,0,1,.38-2.42q0.38-1.41.8-2.5a11.57,11.57,0,0,1,1-2.08,8.27,8.27,0,0,1,1.45-1.74,6.71,6.71,0,0,1,1.87-1.2,5.74,5.74,0,0,1,2.3-.44,5.42,5.42,0,0,1,1.91.33,4.68,4.68,0,0,1,1.54.93,4.2,4.2,0,0,1,1,1.44,4.69,4.69,0,0,1,.37,1.89,5.37,5.37,0,0,1-.75,2.5,10,10,0,0,1-1.74,2.37,11,11,0,0,1-2.37,1.76,12.84,12.84,0,0,1-3,1.2,5.7,5.7,0,0,0,.54.81,2.45,2.45,0,0,0,.54.5,1.84,1.84,0,0,0,.58.25,2.84,2.84,0,0,0,.66.07,7,7,0,0,0,2.33-.43,15.33,15.33,0,0,0,2.38-1.08,20.24,20.24,0,0,0,2.19-1.41,18.69,18.69,0,0,0,1.75-1.45l2.37,2.41a24.49,24.49,0,0,1-3.44,3q-0.79.57-1.7,1.12a15.21,15.21,0,0,1-1.91,1,13,13,0,0,1-2.08.68A9.39,9.39,0,0,1,97.27,34.79ZM94.82,26a3.73,3.73,0,0,0,1.45-.33,6.56,6.56,0,0,0,1.46-.85A7,7,0,0,0,99,23.45,2.7,2.7,0,0,0,99.69,22a2.61,2.61,0,0,0-.3-1.33,0.88,0.88,0,0,0-.75-0.52,2.83,2.83,0,0,0-2.3,1,3.84,3.84,0,0,0-.61,1q-0.23.58-.54,1.45a5.59,5.59,0,0,0-.34,1.42Q94.82,25.64,94.82,26Z" transform="translate(-58.23 -0.78)"/><path class="4e153a4f-637c-4153-bc8e-577fbe82f516" d="M103.87,35.49q0-.09,0-1.12t0.2-2.73l0.35-3.94q0.2-2.24.57-4.72t0.86-5.09q0.5-2.61,1.18-5.08a43.55,43.55,0,0,1,1.57-4.66,20.9,20.9,0,0,1,2-3.83,9.75,9.75,0,0,1,2.45-2.59,5,5,0,0,1,3-1,4.4,4.4,0,0,1,1.31.22,3.57,3.57,0,0,1,1.26.7A3.75,3.75,0,0,1,119.56,3a4.58,4.58,0,0,1,.38,2,10.44,10.44,0,0,1-.35,2.49,23.8,23.8,0,0,1-1,3q-0.63,1.6-1.5,3.32t-1.88,3.44q-1,1.72-2.15,3.38t-2.3,3.11l0,0.29a4.58,4.58,0,0,1,.58-0.21,1.67,1.67,0,0,1,.41,0,1.72,1.72,0,0,1,.41,0l0.29,0.09,0.27,0.09a1.2,1.2,0,0,0,.34,0,10.91,10.91,0,0,0,3.22-.43,12.34,12.34,0,0,0,2.35-1,8.66,8.66,0,0,0,1.95-1.41l-0.4,4.48a11.89,11.89,0,0,1-2.54,1,23.08,23.08,0,0,1-2.45.56,23.33,23.33,0,0,1-2.63.26A24.35,24.35,0,0,1,113.82,30a20.46,20.46,0,0,1,.9,2.51,10,10,0,0,1,.4,2.8q0,0.16,0,.7t-0.16,1.3q-0.12.77-.33,1.71a16.84,16.84,0,0,1-.55,1.89,13,13,0,0,1-.82,1.84,7.56,7.56,0,0,1-1.13,1.58,5.26,5.26,0,0,1-1.48,1.11,4.16,4.16,0,0,1-1.9.42A3.29,3.29,0,0,1,107,45.4a4.18,4.18,0,0,1-1.28-1.24,7.6,7.6,0,0,1-.89-1.82,14.24,14.24,0,0,1-.56-2.19,22.7,22.7,0,0,1-.28-2.36Q103.87,36.6,103.87,35.49Zm4.86-9.67a0.62,0.62,0,0,0-.17.42,7.94,7.94,0,0,0-.14,1.06l-0.14,1.81L108.12,31q-0.06.75-.1,1.42t0,1.06q0,2.7.1,4.3a21.21,21.21,0,0,0,.26,2.43,2.84,2.84,0,0,0,.35,1.08,0.53,0.53,0,0,0,.4.25,1.16,1.16,0,0,0,1-.57,4.26,4.26,0,0,0,.57-1.44,12.4,12.4,0,0,0,.26-1.91q0.06-1,.06-2,0-.64,0-1.58t-0.11-2q-0.07-1.09-.31-2.46a6,6,0,0,0-.65-2.06q-0.42-.69-0.68-1.19A0.74,0.74,0,0,0,108.73,25.82ZM113.38,6.6a44.69,44.69,0,0,0-1.78,4.64,36,36,0,0,0-1,3.58q-0.32,1.56-.45,2.74t-0.26,2.19q1.18-2.11,2.44-4.11t2.2-3.75a36,36,0,0,0,1.61-3.39,7.31,7.31,0,0,0,.67-2.33,2.84,2.84,0,0,0-.27-1.42,1,1,0,0,0-.91-0.45,1.66,1.66,0,0,0-1.35.44A12.76,12.76,0,0,0,113.38,6.6Z" transform="translate(-58.23 -0.78)"/><path class="4e153a4f-637c-4153-bc8e-577fbe82f516" d="M118.83,31q0-.81.09-1.88t0.25-2.27q0.16-1.2.37-2.44t0.54-2.65q0.33-1.41.57-2.34a13.19,13.19,0,0,1,.48-1.54,3.6,3.6,0,0,1,.29-0.64,1.28,1.28,0,0,1,.34-0.38,1.11,1.11,0,0,1,.48-0.18,4.59,4.59,0,0,1,.71,0,4.67,4.67,0,0,1,.74,0,0.59,0.59,0,0,1,.4.22,1,1,0,0,1,.16.51q0,0.33,0,.9t-0.09,1.93a19.62,19.62,0,0,0-.06,2.19h0.2q0.37-.74.92-1.93a10.49,10.49,0,0,1,1.16-2,6.31,6.31,0,0,1,1.38-1.33,3,3,0,0,1,1.78-.54,2,2,0,0,1,.68.12,1.77,1.77,0,0,1,.58.34,1.62,1.62,0,0,1,.4.54,1.73,1.73,0,0,1,.15.73,5.77,5.77,0,0,1-.09.87q-0.09.56-.29,1.46t-0.29,1.48a6.33,6.33,0,0,0-.09,1,4,4,0,0,0,.13,1.1,2.05,2.05,0,0,0,.34.71,1.2,1.2,0,0,0,.48.38,1.45,1.45,0,0,0,.56.11,4.43,4.43,0,0,0,1.71-.37,11.11,11.11,0,0,0,1.62-.83A15.39,15.39,0,0,0,137.13,23l-0.28,4.3-1.08.7a13.71,13.71,0,0,1-1.3.73,9.68,9.68,0,0,1-1.43.57,5.11,5.11,0,0,1-1.52.23,4,4,0,0,1-2.22-.56A4.08,4.08,0,0,1,128,27.47a7.45,7.45,0,0,1-.74-2q-0.24-1.13-.39-2.29h-0.29l-3.29,9.18a11.91,11.91,0,0,1-.49,1.19,4,4,0,0,1-.47.76,1.39,1.39,0,0,1-.51.41,1.51,1.51,0,0,1-.61.12,1.93,1.93,0,0,1-1.92-1.19,4.13,4.13,0,0,1-.33-1.23A12,12,0,0,1,118.83,31Z" transform="translate(-58.23 -0.78)"/><path class="4e153a4f-637c-4153-bc8e-577fbe82f516" d="M154,30.24a17.5,17.5,0,0,1-1.13,1.39,13.9,13.9,0,0,1-1.59,1.52,10,10,0,0,1-1.89,1.23,4.52,4.52,0,0,1-2,.5,2.84,2.84,0,0,1-2-.77,6.3,6.3,0,0,1-1.41-2.25,9,9,0,0,1-1.09,1,9.75,9.75,0,0,1-1.42,1,9.14,9.14,0,0,1-1.6.7,5.33,5.33,0,0,1-1.67.27,4.29,4.29,0,0,1-1.72-.36,4.47,4.47,0,0,1-1.48-1,5.08,5.08,0,0,1-1-1.65,5.92,5.92,0,0,1-.39-2.2,10.86,10.86,0,0,1,.39-2.82,18,18,0,0,1,1.2-3.13,17,17,0,0,1,1.75-2.91,12.86,12.86,0,0,1,2-2.14,10,10,0,0,1,2.34-1.46,6.17,6.17,0,0,1,2.51-.54,1.15,1.15,0,0,1,.67.17,1.67,1.67,0,0,1,.4.38l0.31,0.42a0.86,0.86,0,0,0,.37.3,1.68,1.68,0,0,0,.45.12l0.47,0h0.83a2.3,2.3,0,0,1,.52.06,0.87,0.87,0,0,1,.42.24,1.24,1.24,0,0,1,.29.52,3.28,3.28,0,0,1,.1.91,11.67,11.67,0,0,1-.18,2q-0.18,1.07-.42,2.2l-0.54,2.56a12.11,12.11,0,0,0-.3,2.43,4.38,4.38,0,0,0,.16,1.32,0.64,0.64,0,0,0,.67.48,2,2,0,0,0,.81-0.19,5,5,0,0,0,.86-0.5,9.77,9.77,0,0,0,.86-0.7q0.43-.39.82-0.81a28.22,28.22,0,0,0,1.82-2.22ZM138.21,28.8a6.4,6.4,0,0,0,.06.92,2.8,2.8,0,0,0,.23.8,1.56,1.56,0,0,0,.44.57,1.1,1.1,0,0,0,.7.22,1.66,1.66,0,0,0,1.23-.59,5.77,5.77,0,0,0,1-1.43,10.25,10.25,0,0,0,.65-1.72,10.52,10.52,0,0,0,.32-1.48l1.37-6a3.15,3.15,0,0,0-1.47.37,5.48,5.48,0,0,0-1.35,1,9.06,9.06,0,0,0-1.17,1.46,13.4,13.4,0,0,0-1,2,12.92,12.92,0,0,0-.73,2.11A7.6,7.6,0,0,0,138.21,28.8Z" transform="translate(-58.23 -0.78)"/><path class="4e153a4f-637c-4153-bc8e-577fbe82f516" d="M160.17,31.46q0-.24,0-0.68t0.11-1q0.07-.57.17-1.21l0.18-1.26q0.2-1.48.5-3.18h-0.28a5.25,5.25,0,0,0-.51.83q-0.29.56-.8,1.63t-1.31,2.78q-0.8,1.71-2.07,4.19a2.17,2.17,0,0,1-.86,1,2.26,2.26,0,0,1-1.08.26,2.12,2.12,0,0,1-1.21-.31,2,2,0,0,1-.71-0.84,3.92,3.92,0,0,1-.33-1.2,11.27,11.27,0,0,1-.08-1.38q0-.76.09-1.8t0.24-2.18q0.15-1.15.43-2.62l0.5-2.57q0.21-1.09.43-2t0.4-1.48a7.58,7.58,0,0,1,.35-0.95,1.74,1.74,0,0,1,.38-0.55,1.08,1.08,0,0,1,.51-0.26,3.63,3.63,0,0,1,.75-0.06,10,10,0,0,1,1.09,0,1,1,0,0,1,.59.22,0.78,0.78,0,0,1,.23.51,8.77,8.77,0,0,1,0,.91q0,0.32,0,.72t-0.08.87q0,0.46-.11.95-0.13.93-.15,1-0.26,1.26-.53,2.82l0.2,0.22s0.19-.36.49-1,0.63-1.23,1-1.84,0.73-1.24,1.13-1.9,0.79-1.25,1.16-1.75a6.5,6.5,0,0,1,1.13-1.26,2.15,2.15,0,0,1,1.43-.5,2,2,0,0,1,1.32.45,1.58,1.58,0,0,1,.55,1.29,9.8,9.8,0,0,1-.09,1.37,11.39,11.39,0,0,1-.22,1.26q-0.13.48-.29,1.19t-0.46,1.76a4.39,4.39,0,0,0-.11.54,1.15,1.15,0,0,0,0,.15l0.2,0.22,0.51-1q0.48-.92,1-1.83l1.2-1.91q0.63-1,1.19-1.76a9,9,0,0,1,1.07-1.25,1.82,1.82,0,0,1,1.31-.51,2.34,2.34,0,0,1,1.46.45,1.53,1.53,0,0,1,.6,1.29,21.89,21.89,0,0,1-.13,2.43q-0.13,1.15-.39,2.54t-0.39,2.53a21.64,21.64,0,0,0-.13,2.42A4.38,4.38,0,0,0,172,29.9a0.79,0.79,0,0,0,.63.63,2.2,2.2,0,0,0,.81-0.17,6.2,6.2,0,0,0,.86-0.43,7,7,0,0,0,.86-0.6q0.42-.34.81-0.71a21,21,0,0,0,1.78-1.93L178.12,31q-0.81.62-1.61,1.29a14,14,0,0,1-1.69,1.21,9.26,9.26,0,0,1-2,.89,7.74,7.74,0,0,1-2.41.35,1.56,1.56,0,0,1-1.11-.42,3,3,0,0,1-.73-1.18,7.9,7.9,0,0,1-.4-1.78,19.39,19.39,0,0,1-.12-2.23q0-1.17.08-2.48T168.41,24h-0.28L164.4,33.5a2.55,2.55,0,0,1-1.07,1,3.28,3.28,0,0,1-1.36.26,1.35,1.35,0,0,1-.94-0.31,2.07,2.07,0,0,1-.54-0.8,4.18,4.18,0,0,1-.26-1.08A10.52,10.52,0,0,1,160.17,31.46Z" transform="translate(-58.23 -0.78)"/><path class="4e153a4f-637c-4153-bc8e-577fbe82f516" d="M182.47,34.79a6.7,6.7,0,0,1-3-.64,6.23,6.23,0,0,1-2.15-1.71A7.38,7.38,0,0,1,176,30a10.14,10.14,0,0,1-.43-3,9.42,9.42,0,0,1,.38-2.42q0.38-1.41.8-2.5a11.55,11.55,0,0,1,1-2.08,8.26,8.26,0,0,1,1.45-1.74,6.71,6.71,0,0,1,1.87-1.2,5.74,5.74,0,0,1,2.3-.44,5.42,5.42,0,0,1,1.91.33,4.69,4.69,0,0,1,1.54.93,4.19,4.19,0,0,1,1,1.44,4.69,4.69,0,0,1,.37,1.89,5.37,5.37,0,0,1-.75,2.5,10,10,0,0,1-1.74,2.37,11,11,0,0,1-2.37,1.76,12.84,12.84,0,0,1-3,1.2,5.68,5.68,0,0,0,.54.81,2.45,2.45,0,0,0,.54.5,1.85,1.85,0,0,0,.58.25,2.85,2.85,0,0,0,.66.07,7,7,0,0,0,2.33-.43,15.33,15.33,0,0,0,2.38-1.08,20.24,20.24,0,0,0,2.19-1.41,18.69,18.69,0,0,0,1.75-1.45l2.37,2.41a24.49,24.49,0,0,1-3.44,3q-0.79.57-1.7,1.12a15.21,15.21,0,0,1-1.91,1,13,13,0,0,1-2.08.68A9.39,9.39,0,0,1,182.47,34.79ZM180,26a3.73,3.73,0,0,0,1.45-.33,6.56,6.56,0,0,0,1.46-.85,7,7,0,0,0,1.32-1.4,2.7,2.7,0,0,0,.65-1.46,2.61,2.61,0,0,0-.3-1.33,0.88,0.88,0,0,0-.75-0.52,2.83,2.83,0,0,0-2.3,1,3.85,3.85,0,0,0-.61,1q-0.23.58-.54,1.45a5.6,5.6,0,0,0-.34,1.42Q180,25.64,180,26Z" transform="translate(-58.23 -0.78)"/><path class="4e153a4f-637c-4153-bc8e-577fbe82f516" d="M200.16,31.59s0,0.16,0,.34a3,3,0,0,1-.12.62,3.82,3.82,0,0,1-.31.75,2.6,2.6,0,0,1-.6.73,3.12,3.12,0,0,1-1,.55,4.15,4.15,0,0,1-1.43.22,4.43,4.43,0,0,1-1.23-.16,2.6,2.6,0,0,1-.95-0.49,2.2,2.2,0,0,1-.62-0.84,3.1,3.1,0,0,1-.22-1.23,3.71,3.71,0,0,1,.19-1.18,2.92,2.92,0,0,1,.6-1,2.85,2.85,0,0,1,1-.72,4,4,0,0,1,1.53-.27,3.38,3.38,0,0,1,2.32.7A2.56,2.56,0,0,1,200.16,31.59Z" transform="translate(-58.23 -0.78)"/><path class="4e153a4f-637c-4153-bc8e-577fbe82f516" d="M203.66,34.79a7,7,0,0,1,.13-1q0.13-.74.35-1.78t0.43-2.33L205,27l0.49-2.9q0.26-1.55.54-2.72t0.57-2.08a7.82,7.82,0,0,1,.57-1.4,2.1,2.1,0,0,1,.58-0.66,2.29,2.29,0,0,1,.73-0.35,4,4,0,0,1,.82-0.14l0.85,0a1.08,1.08,0,0,1,.93.39,1.34,1.34,0,0,1,.29.81,3.8,3.8,0,0,1-.1.7q-0.1.48-.25,1t-0.29,1q-0.13.46-.22,0.74l-1,3.37q1-.17,2-0.23c0.64,0,6.52,4.31,6.52,4.31s0,2.59-1.53,2.66c-0.66,0-1.83-1.34-2-1.53l-0.06-.07a3.3,3.3,0,0,0-1.73-1.15l0.8,1.44L214,32.69a12.86,12.86,0,0,1,.29,2.69q0,0.24,0,1.11T214,38.54a19.43,19.43,0,0,1-.55,2.49,10.13,10.13,0,0,1-1,2.41,6,6,0,0,1-1.64,1.81,4,4,0,0,1-2.4.72,3.3,3.3,0,0,1-2.19-.75A5.3,5.3,0,0,1,204.72,43a14.43,14.43,0,0,1-.81-3.51A40.21,40.21,0,0,1,203.66,34.79Zm4.08-23.21a3.14,3.14,0,0,1,.78-2,3.32,3.32,0,0,1,1.1-.8,4,4,0,0,1,1.72-.32,4.81,4.81,0,0,1,1.21.15,3,3,0,0,1,1,.45,2.16,2.16,0,0,1,.67.81,2.65,2.65,0,0,1,.25,1.19,3.78,3.78,0,0,1-.2,1.23,2.86,2.86,0,0,1-.64,1.06,3.32,3.32,0,0,1-1.11.75,4.07,4.07,0,0,1-1.61.29,3.26,3.26,0,0,1-2.39-.77A2.77,2.77,0,0,1,207.74,11.58Zm1.16,15-0.75,5.76a46.35,46.35,0,0,0-.38,6,9.16,9.16,0,0,0,.13,1.68,4.71,4.71,0,0,0,.32,1.08,1.87,1.87,0,0,0,.39.59,0.55,0.55,0,0,0,.34.17,1.08,1.08,0,0,0,1-.66,5.48,5.48,0,0,0,.53-1.64,15.57,15.57,0,0,0,.22-2.11q0-1.13,0-2.07,0-.53-0.06-1.21a12.9,12.9,0,0,0-.21-1.38l-0.29-1.44-0.29-1.45Q209.43,28.28,208.9,26.57Z" transform="translate(-58.23 -0.78)"/><path class="4e153a4f-637c-4153-bc8e-577fbe82f516" d="M217.36,27.85q1-.89,1.67-1.49A13.57,13.57,0,0,0,220.32,25q0.64-.79,1-1.29l0.89-1.19,1.25-1.68q0.73-1,1.91-2.48a6.41,6.41,0,0,1,.53-0.65,4.08,4.08,0,0,1,.65-0.57,3.42,3.42,0,0,1,.79-0.41,2.79,2.79,0,0,1,1-.16,3.73,3.73,0,0,1,1.36.2,1.68,1.68,0,0,1,.7.47,1.16,1.16,0,0,1,.26.59,4.54,4.54,0,0,1,0,.53,1.85,1.85,0,0,1-.35,1,10.35,10.35,0,0,1-.77,1q-0.42.5-.8,0.92a1.94,1.94,0,0,0-.43.62,6,6,0,0,0,.08,1.05,7.78,7.78,0,0,0,.23.93l0.29,1q0.15,0.51.29,1.18a6.71,6.71,0,0,1,0,1.84q-0.1,1.17-.1,2.36a10.94,10.94,0,0,1,1.43-.81l1.59-.75q0.83-.39,1.7-0.86a13.84,13.84,0,0,0,1.76-1.14l0,4.16a17.19,17.19,0,0,1-2.64,1.6,26.16,26.16,0,0,1-3.15,1.31,25,25,0,0,1-3.34.9,16.71,16.71,0,0,1-3.19.33,10,10,0,0,1-2-.19,5.4,5.4,0,0,1-1.65-.61,3.42,3.42,0,0,1-1.15-1.08,3.49,3.49,0,0,1-.53-1.62,3.66,3.66,0,0,1-.51.07l-0.49,0-0.55,0a0.91,0.91,0,0,1-.44-0.14,0.81,0.81,0,0,1-.29-0.39,2.11,2.11,0,0,1-.11-0.77,1.62,1.62,0,0,1,.22-0.83,3.31,3.31,0,0,1,.51-0.68,5.45,5.45,0,0,1,.59-0.52Zm2.29,2.38a0.73,0.73,0,0,1,.49.28l0.62,0.61a4.66,4.66,0,0,0,.81.61,2,2,0,0,0,1,.28,2.58,2.58,0,0,0,1.19-.24,2,2,0,0,0,.74-0.64,2.52,2.52,0,0,0,.39-0.93A5.41,5.41,0,0,0,225,29.1a8.32,8.32,0,0,0-.06-1,5.78,5.78,0,0,1,0-1.29,3.28,3.28,0,0,0,0-1.19l-0.21-.72Z" transform="translate(-58.23 -0.78)"/></svg>
