<?xml version="1.0" encoding="utf-8"?>
<!-- Generator: Adobe Illustrator 21.1.0, SVG Export Plug-In . SVG Version: 6.00 Build 0)  -->
<svg version="1.1" id="Layer_1" xmlns="http://www.w3.org/2000/svg" xmlns:xlink="http://www.w3.org/1999/xlink" x="0px" y="0px"
	 viewBox="0 0 987 987" style="enable-background:new 0 0 987 987;" xml:space="preserve">
<style type="text/css">
	.st0{fill:#010094;}
	.st1{enable-background:new    ;}
	.st2{fill:#FFFFFF;}
</style>
<title>jeffry.in</title>
<path class="st0" d="M492.6,974.3c-266-0.2-481.5-215.9-481.3-481.9c0.1-193.3,115.8-367.9,293.9-443.2
	c245-103.5,527.5,11.2,631,256.2S925.1,833,680,936.5C620.8,961.5,557,974.4,492.6,974.3z"/>
<g class="st1">
	<path class="st2" d="M375.9,595.7c-3.1,15-8.8,28.9-17.2,41.4c-8.3,12.6-19.9,23-34.8,31.1c-14.9,8.2-34.1,12.3-57.6,12.3
		c-29.4,0-53.9-7.6-73.5-22.8s-32.7-34.7-39.2-58.6l74-25c2.3,9.2,6.5,16.5,12.5,22.1c6,5.6,13.5,8.3,22.3,8.3
		c13.7,0,22.8-4.7,27.2-14.2c4.4-9.5,6.6-21.9,6.6-37.3V324h84.3v228.5C380.6,566.2,379,580.6,375.9,595.7z"/>
	<path class="st2" d="M533.1,349c0,6.2-1.2,12-3.7,17.4c-2.5,5.4-5.7,10.1-9.8,14c-4.1,3.9-9,7-14.7,9.3c-5.7,2.3-11.7,3.4-17.9,3.4
		c-13.1,0-24-4.3-32.8-13c-8.8-8.7-13.2-19-13.2-31.1c0-5.9,1.1-11.5,3.4-16.9c2.3-5.4,5.6-10.1,9.8-14c4.2-3.9,9.1-7.1,14.7-9.6
		c5.6-2.5,11.6-3.7,18.1-3.7c6.2,0,12.2,1.1,17.9,3.4c5.7,2.3,10.6,5.4,14.7,9.3c4.1,3.9,7.4,8.6,9.8,14
		C531.8,337,533.1,342.8,533.1,349z M446.8,671.2V427h80.4v244.2H446.8z"/>
	<path class="st2" d="M751.2,671.2V537.8c0-6.9-0.6-13.4-1.7-19.6c-1.1-6.2-3-11.7-5.6-16.4c-2.6-4.7-6.3-8.5-11-11.3
		c-4.7-2.8-10.7-4.2-17.9-4.2c-7.2,0-13.5,1.4-18.9,4.2c-5.4,2.8-9.9,6.6-13.5,11.5c-3.6,4.9-6.3,10.5-8.1,16.9
		c-1.8,6.4-2.7,13-2.7,19.9v132.4h-80.9V427h78v33.8h1c2.9-5.2,6.8-10.4,11.5-15.4c4.7-5.1,10.3-9.4,16.7-13
		c6.4-3.6,13.3-6.5,20.8-8.8c7.5-2.3,15.5-3.4,24-3.4c16.3,0,30.2,2.9,41.7,8.8c11.4,5.9,20.7,13.5,27.7,22.8
		c7,9.3,12.1,20,15.2,32.1c3.1,12.1,4.7,24.2,4.7,36.3v151H751.2z"/>
</g>
</svg>
