<?xml version="1.0" encoding="utf-8"?>
<!-- Generator: Adobe Illustrator 21.1.0, SVG Export Plug-In . SVG Version: 6.00 Build 0)  -->
<svg version="1.1" id="Layer_1" xmlns="http://www.w3.org/2000/svg" xmlns:xlink="http://www.w3.org/1999/xlink" x="0px" y="0px"
	 viewBox="0 0 987 987" style="enable-background:new 0 0 987 987;" xml:space="preserve">
<style type="text/css">
	.st0{fill:#010094;}
	.st1{enable-background:new    ;}
	.st2{fill:#FFFFFF;}
</style>
<rect y="-0.4" class="st0" width="987" height="987"/>
<title>jeffry.in</title>
<g class="st1">
	<path class="st2" d="M375.9,563.1c-3.1,15-8.8,28.9-17.2,41.4c-8.3,12.6-19.9,23-34.8,31.1c-14.9,8.2-34.1,12.3-57.6,12.3
		c-29.4,0-53.9-7.6-73.5-22.8s-32.7-34.7-39.2-58.6l74-25c2.3,9.2,6.5,16.5,12.5,22.1s13.5,8.3,22.3,8.3c13.7,0,22.8-4.7,27.2-14.2
		c4.4-9.5,6.6-21.9,6.6-37.3v-229h84.3v228.5C380.6,533.6,379,548,375.9,563.1z"/>
	<path class="st2" d="M533.1,316.4c0,6.2-1.2,12-3.7,17.4s-5.7,10.1-9.8,14s-9,7-14.7,9.3s-11.7,3.4-17.9,3.4
		c-13.1,0-24-4.3-32.8-13s-13.2-19-13.2-31.1c0-5.9,1.1-11.5,3.4-16.9s5.6-10.1,9.8-14c4.2-3.9,9.1-7.1,14.7-9.6s11.6-3.7,18.1-3.7
		c6.2,0,12.2,1.1,17.9,3.4c5.7,2.3,10.6,5.4,14.7,9.3c4.1,3.9,7.4,8.6,9.8,14C531.8,304.4,533.1,310.2,533.1,316.4z M446.8,638.6
		V394.4h80.4v244.2H446.8z"/>
	<path class="st2" d="M751.2,638.6V505.2c0-6.9-0.6-13.4-1.7-19.6c-1.1-6.2-3-11.7-5.6-16.4c-2.6-4.7-6.3-8.5-11-11.3
		s-10.7-4.2-17.9-4.2s-13.5,1.4-18.9,4.2c-5.4,2.8-9.9,6.6-13.5,11.5s-6.3,10.5-8.1,16.9s-2.7,13-2.7,19.9v132.4h-80.9V394.4h78
		v33.8h1c2.9-5.2,6.8-10.4,11.5-15.4c4.7-5.1,10.3-9.4,16.7-13s13.3-6.5,20.8-8.8s15.5-3.4,24-3.4c16.3,0,30.2,2.9,41.7,8.8
		c11.4,5.9,20.7,13.5,27.7,22.8s12.1,20,15.2,32.1c3.1,12.1,4.7,24.2,4.7,36.3v151H751.2z"/>
</g>
</svg>
