<?xml version="1.0" encoding="utf-8"?>
<!-- Generator: Adobe Illustrator 16.0.0, SVG Export Plug-In . SVG Version: 6.00 Build 0)  -->
<!DOCTYPE svg PUBLIC "-//W3C//DTD SVG 1.1//EN" "http://www.w3.org/Graphics/SVG/1.1/DTD/svg11.dtd">
<svg version="1.1" id="Layer_1" xmlns="http://www.w3.org/2000/svg" xmlns:xlink="http://www.w3.org/1999/xlink" x="0px" y="0px"
	 width="1000px" height="1000px" viewBox="0 0 1000 1000" enable-background="new 0 0 1000 1000" xml:space="preserve">
<g>
	<path d="M495.916,992.832C222.466,992.832,0,770.363,0,496.916C0,223.467,222.466,1,495.916,1
		c273.447,0,495.916,222.467,495.916,495.916C991.832,770.363,769.363,992.832,495.916,992.832z M495.916,31.675
		c-256.536,0-465.241,208.706-465.241,465.241s208.706,465.24,465.241,465.24s465.242-208.705,465.242-465.24
		C961.158,240.38,752.451,31.675,495.916,31.675z"/>
</g>
<g>
	<path d="M149.633,575.869c0,17.873,5.462,32.276,25.325,32.276c20.358,0,24.827-12.914,24.827-32.276v-292.47h31.283v292.47
		c0,36.248-11.421,60.082-56.11,60.082c-43.2,0-56.607-24.332-56.607-60.082v-44.194h31.283V575.869z"/>
	<path d="M395.921,545.579v32.773c0,34.759-11.42,57.599-54.621,57.599c-43.696,0-55.613-22.84-55.613-57.599V435.841
		c0-34.759,12.414-58.097,55.613-58.097c43.201,0,54.621,23.338,54.621,58.097v72H315.48v70.512c0,21.35,8.441,31.775,25.82,31.775
		c18.87,0,25.325-11.419,25.325-31.775v-32.773H395.921z M366.625,436.337c0-21.351-5.959-32.772-25.325-32.772
		c-19.366,0-25.82,11.422-25.82,32.276v48.662h51.145V436.337z"/>
	<path d="M475.365,490.958l48.167-108.249h32.771l-56.109,119.67l61.074,128.606h-33.27l-52.633-116.193v116.193h-29.792V278.433
		h29.792V490.958z"/>
	<path d="M576.16,712.917v-26.816c4.965,1.988,12.414,3.477,19.367,3.477c14.896,0,23.834-8.936,27.807-28.798l5.461-29.298
		l-48.66-248.772h30.783l32.277,194.151l31.779-194.151h30.785l-53.627,279.063c-7.449,37.736-20.854,53.627-56.605,53.627
		C589.568,715.399,580.631,714.406,576.16,712.917z"/>
	<path d="M772.795,278.433v352.552h-29.793V278.433H772.795z"/>
	<path d="M854.725,278.433v352.552h-29.793V278.433H854.725z"/>
</g>
</svg>
