<?xml version="1.0" encoding="utf-8"?>
<!-- Generator: Adobe Illustrator 16.0.0, SVG Export Plug-In . SVG Version: 6.00 Build 0)  -->
<!DOCTYPE svg PUBLIC "-//W3C//DTD SVG 1.1//EN" "http://www.w3.org/Graphics/SVG/1.1/DTD/svg11.dtd">
<svg version="1.1" xmlns="http://www.w3.org/2000/svg" xmlns:xlink="http://www.w3.org/1999/xlink" x="0px" y="0px" width="1000px"
	 height="1000px" viewBox="0 0 1000 1000" enable-background="new 0 0 1000 1000" xml:space="preserve">
<g id="Layer_1">
</g>
<g id="Layer_2">
	<g>
		<path d="M500,995.916C226.55,995.916,4.084,773.447,4.084,500C4.084,226.551,226.55,4.084,500,4.084
			c273.447,0,495.916,222.467,495.916,495.916C995.916,773.447,773.447,995.916,500,995.916z M500,34.759
			C243.464,34.759,34.759,243.465,34.759,500S243.465,965.241,500,965.241S965.241,756.535,965.241,500
			C965.241,243.464,756.535,34.759,500,34.759z"/>
	</g>
	<g>
		<path d="M340.75,741.5c-37.808,0-68.006-11.306-89.754-33.603c-32.744-33.57-34.203-79.803-33.869-93.173L217.125,615h43
			c0,0.129-0.002,0.396-0.012,0.796c-0.099,3.979-0.333,39.523,21.665,62.077c13.351,13.687,33.191,20.627,58.972,20.627
			c22.284,0,39.427-5.88,50.953-17.476c9.378-9.436,20.513-28.18,20.297-63.895l-2-388.019L453,228.889l2,388
			c0.168,27.854-5.385,66.868-32.799,94.448C402.307,731.353,374.903,741.5,340.75,741.5z"/>
	</g>
	<g>
		<path d="M593.75,739.5c-37.808,0-68.006-11.306-89.754-33.603c-32.745-33.57-34.203-79.803-33.87-93.173L470.125,613h43
			c0,0.129-0.002,0.396-0.012,0.796c-0.1,3.979-0.334,39.523,21.664,62.077C548.128,689.56,567.97,696.5,593.75,696.5
			c20.093,0,35.142-5.664,46.005-17.138C661.585,656.306,660.054,617,660.032,616h0.009c-0.041-1-0.051-1.338-0.029-2.074
			c0.406-13.781-1.248-83.542-73.916-104.295l-1.191-0.319l-1.145-0.464c-1.104-0.459-27.345-11.442-53.8-31.073
			c-37.243-27.637-57.306-59.549-58.124-92.398c-1.34-9.586-5.107-49.533,19.215-80.856c17.125-22.054,43.316-34.455,77.844-36.861
			c41.207-2.878,73.488,7.081,95.909,29.585c31.881,31.999,32.21,77.87,30.872,96.106l-0.021,0.291
			c0.052-0.769,0.037-1.283,0.033-1.527l-42.994,0.672c-0.017-1.032,0.041-1.82,0.098-2.583c0.707-9.634,1.466-42.62-18.449-62.609
			c-13.224-13.272-34.237-19.009-62.459-17.039c-21.8,1.519-37.569,8.362-46.869,20.339c-15.337,19.75-10.606,48.543-10.554,48.829
			l0.34,1.865l0.01,1.896c0.194,40.449,59.978,74.747,84.398,85.221c32.21,9.474,57.92,27.29,75.8,52.271
			c0,0,23.491,42.024,25.491,74.524c0.254,4.126,3.256,78.896-29.521,113.514C651.825,729.243,625.842,739.5,593.75,739.5z
			 M702.939,613.304l0.028,0.522c0.004,0.075,0.011,0.205,0.019,0.387C702.978,613.908,702.962,613.605,702.939,613.304z"/>
	</g>
</g>
</svg>
