<?xml version="1.0" encoding="utf-8"?>
<!-- Generator: Adobe Illustrator 16.0.0, SVG Export Plug-In . SVG Version: 6.00 Build 0)  -->
<!DOCTYPE svg PUBLIC "-//W3C//DTD SVG 1.1//EN" "http://www.w3.org/Graphics/SVG/1.1/DTD/svg11.dtd">
<svg version="1.1" id="Layer_1" xmlns="http://www.w3.org/2000/svg" xmlns:xlink="http://www.w3.org/1999/xlink" x="0px" y="0px"
	 width="1000px" height="1000px" viewBox="0 0 1000 1000" enable-background="new 0 0 1000 1000" xml:space="preserve">
<g id="Layer_1_1_">
</g>
<g>
	<path d="M500,994.832c-273.45,0-495.916-222.469-495.916-495.916C4.084,225.467,226.55,3,500,3
		c273.447,0,495.916,222.467,495.916,495.916C995.916,772.363,773.447,994.832,500,994.832z M500,33.675
		c-256.536,0-465.241,208.706-465.241,465.241S243.465,964.156,500,964.156c256.535,0,465.242-208.705,465.242-465.24
		C965.242,242.38,756.535,33.675,500,33.675z"/>
</g>
<g>
	<path d="M327.751,688.75c0,29.206,8.925,52.735,41.376,52.735c33.261,0,40.562-21.095,40.562-52.735V210.917h51.11V688.75
		c0,59.223-18.66,98.164-91.672,98.164c-70.581,0-92.485-39.752-92.485-98.164v-72.201h51.109V688.75z"/>
	<path d="M545.979,458.353c0-56.788,20.283-93.296,87.616-93.296c68.146,0,87.617,36.508,87.617,93.296v46.241h-47.865v-46.241
		c0-36.506-12.169-51.109-39.752-51.109c-28.394,0-39.751,15.413-39.751,51.109v15.415c0,101.408,127.368,66.521,127.368,188.21
		v32.452c0,56.788-18.659,92.484-87.617,92.484c-68.957,0-87.616-35.696-87.616-92.484v-55.164h47.865v55.164
		c0,36.508,11.357,50.299,39.751,50.299c28.395,0,39.752-14.603,39.752-50.299v-30.828c0-98.974-127.368-63.278-127.368-189.834
		V458.353z"/>
</g>
</svg>
