<?xml version="1.0" encoding="utf-8"?>
<!-- Generator: Adobe Illustrator 16.0.0, SVG Export Plug-In . SVG Version: 6.00 Build 0)  -->
<!DOCTYPE svg PUBLIC "-//W3C//DTD SVG 1.1//EN" "http://www.w3.org/Graphics/SVG/1.1/DTD/svg11.dtd">
<svg version="1.1" id="Layer_1" xmlns="http://www.w3.org/2000/svg" xmlns:xlink="http://www.w3.org/1999/xlink" x="0px" y="0px"
	 width="1000px" height="1000px" viewBox="0 0 1000 1000" enable-background="new 0 0 1000 1000" xml:space="preserve">
<g>
	<path d="M499,997.916C225.55,997.916,3.084,775.447,3.084,502C3.084,228.551,225.55,6.084,499,6.084
		c273.447,0,495.916,222.467,495.916,495.916C994.916,775.447,772.447,997.916,499,997.916z M499,36.759
		C242.464,36.759,33.759,245.465,33.759,502S242.465,967.241,499,967.241S964.241,758.535,964.241,502
		C964.241,245.464,755.535,36.759,499,36.759z"/>
</g>
<polygon points="788.955,591.472 767.379,570.425 678.424,682.322 677.424,282.981 644.424,282.981 644.424,683.323 
	565.244,565.317 539.096,584.705 660.424,755.306 "/>
<g>
	<path d="M319.323,285.981l64.128,393.362l64.789-393.362h52.889V748.76h-39.667V590.754c0-46.938,3.967-169.905,5.289-230.728
		L403.945,748.76h-40.327l-62.805-388.733c1.321,61.483,5.287,183.127,5.287,230.728V748.76h-39.666V285.981H319.323z"/>
</g>
</svg>
