<?xml version="1.0" encoding="utf-8"?>
<!-- Generator: Adobe Illustrator 16.0.0, SVG Export Plug-In . SVG Version: 6.00 Build 0)  -->
<!DOCTYPE svg PUBLIC "-//W3C//DTD SVG 1.1//EN" "http://www.w3.org/Graphics/SVG/1.1/DTD/svg11.dtd">
<svg version="1.1" id="Layer_1" xmlns="http://www.w3.org/2000/svg" xmlns:xlink="http://www.w3.org/1999/xlink" x="0px" y="0px"
	 width="1000px" height="1000px" viewBox="0 0 1000 1000" enable-background="new 0 0 1000 1000" xml:space="preserve">
<g>
	<path d="M499,997.916C225.55,997.916,3.084,775.447,3.084,502C3.084,228.551,225.55,6.084,499,6.084
		c273.447,0,495.916,222.467,495.916,495.916C994.916,775.447,772.447,997.916,499,997.916z M499,36.759
		C242.464,36.759,33.759,245.465,33.759,502S242.465,967.241,499,967.241S964.241,758.535,964.241,502
		C964.241,245.464,755.535,36.759,499,36.759z"/>
</g>
<polygon points="375.053,377.734 242.207,244.695 242.207,750.625 283.922,750.625 283.922,339.556 375.053,442.201 
	466.183,338.463 466.183,750.625 507.898,750.625 507.898,244.695 "/>
<polygon points="804.955,591.472 777.379,560.425 682.424,667.322 682.424,282.981 643.424,282.981 643.424,665.323 
	557.244,556.317 523.096,586.705 658.424,755.306 "/>
</svg>
