<?xml version="1.0" encoding="utf-8"?>
<!-- Generator: Adobe Illustrator 16.0.0, SVG Export Plug-In . SVG Version: 6.00 Build 0)  -->
<!DOCTYPE svg PUBLIC "-//W3C//DTD SVG 1.1//EN" "http://www.w3.org/Graphics/SVG/1.1/DTD/svg11.dtd">
<svg version="1.1" id="Layer_1" xmlns="http://www.w3.org/2000/svg" xmlns:xlink="http://www.w3.org/1999/xlink" x="0px" y="0px"
	 width="1000px" height="1000px" viewBox="0 0 1000 1000" enable-background="new 0 0 1000 1000" xml:space="preserve">
<g>
	<g>
		<path d="M497.916,993.832C224.466,993.832,2,771.363,2,497.916C2,224.467,224.466,2,497.916,2
			c273.447,0,495.916,222.467,495.916,495.916C993.832,771.363,771.363,993.832,497.916,993.832z M497.916,32.675
			c-256.536,0-465.241,208.706-465.241,465.241c0,256.535,208.706,465.241,465.241,465.241
			c256.535,0,465.241-208.706,465.241-465.241C963.157,241.38,754.451,32.675,497.916,32.675z"/>
	</g>
	<g>
		<polygon points="720.761,791.009 515.34,497.094 717.353,206.535 684.244,206.535 498.254,472.646 313.46,208.244 280.35,208.244 
			481.17,497.089 276.941,789.297 312.184,789.297 498.257,521.665 685.519,791.009 		"/>
	</g>
</g>
</svg>
