<?xml version="1.0" standalone="no"?>
<!DOCTYPE svg PUBLIC "-//W3C//DTD SVG 20010904//EN"
 "http://www.w3.org/TR/2001/REC-SVG-20010904/DTD/svg10.dtd">
<svg version="1.0" xmlns="http://www.w3.org/2000/svg"
 width="988.000000pt" height="988.000000pt" viewBox="0 0 988.000000 988.000000"
 preserveAspectRatio="xMidYMid meet">
<metadata>
Created by potrace 1.11, written by Peter Selinger 2001-2013
</metadata>
<g transform="translate(0.000000,988.000000) scale(0.100000,-0.100000)"
fill="#000000" stroke="none">
<path d="M0 4935 l0 -4935 4940 0 4940 0 0 4935 0 4935 -4940 0 -4940 0 0
-4935z m6323 3047 c43 -11 81 -22 84 -26 7 -6 -42 -284 -51 -293 -2 -3 -46 0
-96 7 -216 28 -270 -17 -270 -224 l0 -86 160 0 160 0 0 -165 0 -165 -160 0
-160 0 0 -645 0 -645 -215 0 -215 0 0 645 0 645 -120 0 -120 0 0 165 0 165
119 0 118 0 6 163 c3 112 10 179 22 217 42 133 145 218 308 256 88 20 326 12
430 -14z m967 14 c134 -24 160 -34 160 -60 0 -26 -48 -267 -54 -274 -2 -2 -48
2 -101 9 -110 13 -190 2 -220 -31 -30 -33 -44 -92 -45 -187 l0 -93 160 0 160
0 0 -165 0 -165 -160 0 -160 0 0 -645 0 -645 -215 0 -215 0 0 645 0 645 -120
0 -120 0 0 165 0 165 120 0 120 0 0 123 c1 276 57 396 223 476 100 49 310 65
467 37z m-3990 -818 c0 -845 -3 -913 -50 -1053 -59 -176 -195 -312 -375 -378
-180 -64 -442 -63 -618 3 -129 49 -246 157 -307 286 -36 74 -66 200 -75 311
l-7 82 34 5 c35 6 357 36 381 36 9 0 17 -25 25 -88 16 -122 37 -175 87 -227
32 -33 58 -48 101 -61 109 -31 244 3 292 75 57 87 61 160 62 1029 l0 772 225
0 225 0 0 -792z m1335 192 c122 -38 203 -87 291 -175 67 -66 89 -97 128 -175
71 -145 106 -312 106 -502 l0 -88 -535 0 c-503 0 -535 -1 -535 -17 0 -10 7
-48 14 -84 36 -166 143 -274 293 -294 125 -16 225 35 281 144 18 36 34 66 36
68 4 4 375 -54 408 -63 16 -5 16 -8 1 -47 -81 -206 -236 -348 -443 -407 -93
-27 -292 -37 -400 -21 -401 61 -630 364 -630 831 0 436 210 752 556 840 109
28 325 23 429 -10z m1425 -3325 l0 -195 -215 0 -215 0 0 195 0 195 215 0 215
0 0 -195z m-3145 -389 c28 -7 72 -23 99 -34 38 -17 47 -19 42 -7 -5 13 25 15
223 15 209 0 229 -2 236 -17 4 -10 88 -259 187 -553 99 -294 183 -541 188
-549 6 -11 95 251 339 999 l38 115 227 3 c154 2 225 -1 221 -8 -6 -9 -92 -243
-300 -815 -276 -759 -387 -1058 -414 -1118 -104 -230 -251 -324 -521 -335
-117 -4 -265 9 -282 26 -9 9 -43 320 -36 327 3 3 40 0 84 -6 134 -19 228 2
292 64 40 38 109 170 117 224 5 33 -26 123 -220 633 -125 327 -257 675 -293
773 -37 97 -69 177 -72 177 -3 0 -27 -64 -54 -143 -27 -78 -55 -156 -63 -174
l-13 -32 -61 29 c-157 74 -291 34 -356 -107 -52 -112 -55 -153 -60 -660 l-5
-473 -219 0 -219 0 0 810 0 810 206 0 205 0 -3 -105 c-2 -58 -1 -105 2 -104 3
0 32 37 66 82 60 83 128 136 199 156 46 14 164 12 220 -3z m4654 -1 c145 -34
262 -117 319 -223 67 -125 66 -112 70 -799 l3 -623 -215 0 -216 0 0 488 c0
533 -7 637 -45 713 -61 120 -214 160 -360 95 -96 -43 -151 -108 -182 -214 -15
-49 -17 -127 -21 -569 l-3 -513 -215 0 -214 0 0 810 0 810 200 0 200 0 0 -108
0 -109 74 72 c97 94 203 150 341 179 49 10 206 4 264 -9z m-1509 -835 l0 -810
-215 0 -215 0 0 810 0 810 215 0 215 0 0 -810z m-870 -595 l0 -215 -215 0
-215 0 0 215 0 215 215 0 215 0 0 -215z"/>
<path d="M4350 7061 c-137 -28 -249 -178 -250 -333 l0 -38 315 0 315 0 0 45
c0 59 -34 159 -71 209 -71 97 -188 141 -309 117z"/>
</g>
</svg>
