<?xml version="1.0" encoding="utf-8"?>
<!-- Generator: Adobe Illustrator 16.0.0, SVG Export Plug-In . SVG Version: 6.00 Build 0)  -->
<!DOCTYPE svg PUBLIC "-//W3C//DTD SVG 1.1//EN" "http://www.w3.org/Graphics/SVG/1.1/DTD/svg11.dtd">
<svg version="1.1" id="Layer_1" xmlns="http://www.w3.org/2000/svg" xmlns:xlink="http://www.w3.org/1999/xlink" x="0px" y="0px"
	 width="1000px" height="1000px" viewBox="0 0 1000 1000" enable-background="new 0 0 1000 1000" xml:space="preserve">
<g>
	<path d="M501.084,994.832c-273.45,0-495.916-222.469-495.916-495.916C5.168,225.467,227.634,3,501.084,3
		C774.531,3,997,225.467,997,498.916C997,772.363,774.531,994.832,501.084,994.832z M501.084,33.675
		c-256.536,0-465.241,208.706-465.241,465.241s208.706,465.24,465.241,465.24c256.535,0,465.242-208.705,465.242-465.24
		C966.326,242.38,757.619,33.675,501.084,33.675z"/>
</g>
<g>
	<path d="M263.901,594.879c0-119.679-100.319-72.158-100.319-193.011v-35.2c0-42.239,13.494-72.16,68.639-72.16
		c55.146,0,68.641,29.921,68.641,72.16v45.173h-36.96v-45.173c0-21.12-7.04-38.72-31.68-38.72c-25.812,0-31.68,16.427-31.68,38.72
		v34.613c0,100.907,100.32,55.146,100.32,193.013v50.453c0,42.241-13.494,72.16-68.641,72.16c-55.145,0-68.639-29.919-68.639-72.16
		v-51.04h36.959v51.04c0,21.707,7.627,39.307,31.68,39.307c25.814,0,31.68-16.427,31.68-39.307V594.879z"/>
	<path d="M353.661,612.48c0-45.173,21.706-68.64,95.626-90.934v-42.826c0-21.707-8.8-36.374-28.747-36.374
		c-23.467,0-29.333,14.667-29.333,36.959v13.494h-34.613v-14.08c0-39.307,14.08-66.88,63.947-66.88
		c50.452,0,63.945,27.573,63.945,66.88V711.04h-20.532l-9.388-17.602c-7.627,15.254-19.946,23.468-41.652,23.468
		c-41.653,0-59.253-22.294-59.253-66.88V612.48z M449.287,547.947c-49.868,15.84-60.426,33.439-60.426,63.946v38.133
		c0,22.879,7.625,36.373,30.505,36.373c21.707,0,29.921-15.253,29.921-36.373V547.947z"/>
	<path d="M537.281,479.307c0-41.065,14.668-67.466,63.359-67.466c49.281,0,63.359,26.4,63.359,67.466v33.439h-34.613v-33.439
		c0-26.399-8.799-36.959-28.746-36.959c-20.533,0-28.746,11.146-28.746,36.959v11.147c0,73.333,92.105,48.105,92.105,136.105v23.467
		c0,41.066-13.492,66.88-63.359,66.88c-49.865,0-63.359-25.813-63.359-66.88v-39.893h34.613v39.893
		c0,26.4,8.213,36.373,28.746,36.373c20.535,0,28.746-10.561,28.746-36.373v-22.292c0-71.574-92.105-45.762-92.105-137.28V479.307z"
		/>
	<path d="M713.867,479.307c0-41.065,14.666-67.466,63.361-67.466c49.279,0,63.357,26.4,63.357,67.466v33.439h-34.611v-33.439
		c0-26.399-8.801-36.959-28.746-36.959c-20.535,0-28.746,11.146-28.746,36.959v11.147c0,73.333,92.104,48.105,92.104,136.105v23.467
		c0,41.066-13.492,66.88-63.357,66.88c-49.867,0-63.361-25.813-63.361-66.88v-39.893h34.615v39.893
		c0,26.4,8.211,36.373,28.746,36.373c20.533,0,28.746-10.561,28.746-36.373v-22.292c0-71.574-92.107-45.762-92.107-137.28V479.307z"
		/>
</g>
</svg>
