<?xml version="1.0" encoding="utf-8"?>
<!-- Generator: Adobe Illustrator 16.0.0, SVG Export Plug-In . SVG Version: 6.00 Build 0)  -->
<!DOCTYPE svg PUBLIC "-//W3C//DTD SVG 1.1//EN" "http://www.w3.org/Graphics/SVG/1.1/DTD/svg11.dtd">
<svg version="1.1" id="Layer_1" xmlns="http://www.w3.org/2000/svg" xmlns:xlink="http://www.w3.org/1999/xlink" x="0px" y="0px"
	 width="1000px" height="1000px" viewBox="0 0 1000 1000" enable-background="new 0 0 1000 1000" xml:space="preserve">
<g>
	<path stroke="#000000" stroke-width="10" stroke-miterlimit="10" d="M477.553,966.561c-266.482,0-483.28-216.801-483.28-483.281
		C-5.727,216.798,211.07,0,477.553,0c266.48,0,483.28,216.798,483.28,483.28C960.833,749.76,744.033,966.561,477.553,966.561z
		 M477.553,29.893c-250,0-453.387,203.388-453.387,453.387c0,250,203.388,453.386,453.387,453.386
		c249.999,0,453.387-203.387,453.387-453.386S727.552,29.893,477.553,29.893z"/>
</g>
<g>
	<path d="M302.987,755.947c-39.988,0-71.928-11.957-94.931-35.542c-34.634-35.504-36.176-84.405-35.824-98.546l-0.001,0.292h45.48
		c0,0.136-0.002,0.419-0.012,0.843c-0.106,4.208-0.354,41.803,22.914,65.656c14.121,14.477,35.107,21.815,62.374,21.815
		c21.251,0,37.168-5.99,48.658-18.125c23.09-24.387,21.471-65.96,21.447-67.018h0.009c-0.043-1.059-0.054-1.415-0.03-2.194
		c0.43-14.575-1.32-88.359-78.179-110.31l-1.259-0.337l-1.211-0.492c-1.167-0.485-28.922-12.102-56.903-32.863
		c-39.392-29.231-60.611-62.985-61.477-97.728c-1.417-10.139-5.402-52.39,20.323-85.52c18.113-23.326,45.814-36.442,82.333-38.987
		c43.583-3.044,77.727,7.49,101.441,31.292c33.721,33.845,34.067,82.361,32.652,101.649l-0.021,0.308
		c0.055-0.813,0.038-1.357,0.033-1.615l-45.473,0.711c-0.02-1.092,0.043-1.925,0.104-2.732c0.748-10.189,1.551-45.078-19.513-66.22
		c-13.985-14.038-36.211-20.105-66.062-18.022c-23.057,1.607-39.735,8.844-49.572,21.512
		c-16.222,20.889-11.217,51.343-11.163,51.646l0.359,1.972l0.01,2.005c0.206,42.782,63.438,79.059,89.267,90.136
		c34.067,10.02,61.26,28.864,80.171,55.285c0,0,24.847,44.448,26.961,78.822c0.27,4.363,3.443,83.447-31.223,120.062
		C364.412,745.1,336.93,755.947,302.987,755.947z M418.474,622.474l0.029,0.553c0.004,0.08,0.013,0.217,0.021,0.407
		C418.516,623.111,418.498,622.791,418.474,622.474z"/>
</g>
<g>
	<path d="M766.339,755.947c-22.382,0-40.259-6.707-53.132-19.933c-19.382-19.909-20.246-47.337-20.049-55.267v0.166h25.454
		c0,0.074-0.002,0.233-0.01,0.472c-0.059,2.358-0.196,23.442,12.826,36.819c7.9,8.119,19.647,12.235,34.909,12.235
		c11.893,0,20.803-3.36,27.234-10.165c12.921-13.678,12.015-36.991,11.999-37.584h0.007c-0.024-0.592-0.03-0.794-0.018-1.231
		c0.239-8.172-0.738-49.552-43.755-61.862l-0.705-0.188l-0.677-0.276c-0.655-0.271-16.188-6.787-31.848-18.431
		c-22.047-16.395-33.924-35.323-34.407-54.808c-0.795-5.687-3.023-29.382,11.374-47.96c10.137-13.083,25.642-20.438,46.08-21.865
		c24.393-1.707,43.503,4.201,56.773,17.549c18.872,18.979,19.066,46.188,18.273,57.004l-0.013,0.174
		c0.032-0.455,0.022-0.761,0.02-0.904l-25.448,0.397c-0.011-0.612,0.023-1.079,0.059-1.532c0.419-5.714,0.866-25.279-10.922-37.137
		c-7.829-7.873-20.269-11.276-36.973-10.104c-12.904,0.898-22.238,4.959-27.745,12.062c-9.077,11.716-6.277,28.794-6.248,28.964
		l0.202,1.104l0.007,1.127c0.112,23.993,35.504,44.336,49.959,50.549c19.066,5.618,34.286,16.188,44.869,31.004
		c0,0,13.906,24.929,15.091,44.206c0.147,2.445,1.928,46.797-17.475,67.332C800.717,749.864,785.336,755.947,766.339,755.947z
		 M830.974,681.093l0.017,0.312c0.002,0.043,0.007,0.122,0.012,0.229C830.996,681.452,830.987,681.271,830.974,681.093z"/>
</g>
<g>
	<path d="M610.851,755.947c-22.38,0-40.257-6.707-53.131-19.933c-19.382-19.909-20.246-47.337-20.049-55.267v0.166h25.453
		c0,0.074-0.001,0.233-0.005,0.472c-0.062,2.358-0.2,23.442,12.822,36.819c7.902,8.119,19.648,12.235,34.908,12.235
		c11.896,0,20.805-3.36,27.234-10.165c12.921-13.678,12.015-36.991,12.001-37.584h0.007c-0.024-0.592-0.031-0.794-0.018-1.231
		c0.241-8.172-0.739-49.552-43.756-61.862l-0.705-0.188l-0.675-0.276c-0.655-0.271-16.189-6.787-31.85-18.431
		c-22.048-16.395-33.923-35.323-34.406-54.808c-0.794-5.687-3.024-29.382,11.373-47.96c10.139-13.083,25.644-20.438,46.082-21.865
		c24.392-1.707,43.499,4.201,56.771,17.549c18.874,18.979,19.065,46.188,18.276,57.004l-0.014,0.174
		c0.029-0.455,0.021-0.761,0.018-0.904l-25.447,0.397c-0.012-0.612,0.022-1.079,0.058-1.532c0.418-5.714,0.867-25.279-10.921-37.137
		c-7.828-7.873-20.266-11.276-36.974-10.104c-12.904,0.898-22.238,4.959-27.744,12.062c-9.08,11.716-6.279,28.794-6.248,28.964
		l0.202,1.104l0.005,1.127c0.116,23.993,35.506,44.336,49.96,50.549c19.066,5.618,34.285,16.188,44.871,31.004
		c0,0,13.905,24.929,15.088,44.206c0.151,2.445,1.93,46.797-17.473,67.332C645.229,749.864,629.848,755.947,610.851,755.947z
		 M675.485,681.093l0.018,0.312c0.002,0.043,0.007,0.122,0.01,0.229C675.51,681.452,675.499,681.271,675.485,681.093z"/>
</g>
<path d="M511.998,749.553l24.153-3.187l-71.73-274.292l-45.466,283.873l24.631-2.248l12.597-87.209l33.921-1.285L511.998,749.553z
	 M458.206,648.99l10.261-80.413l17.678,79.395L458.206,648.99z"/>
</svg>
