<svg id="55f332ab-3c6c-400b-bdfd-c3e4eb7c47dd" data-name="Layer 1" xmlns="http://www.w3.org/2000/svg" viewBox="0 0 2001 1730"><title>moments-between-words</title><rect x="0.5" y="0.5" width="2000" height="1729" style="fill:#010319;stroke:#fff;stroke-miterlimit:10"/><polygon points="846.7 1504.04 797.38 1304.41 835.51 1294.99 882.16 1504.31 846.7 1504.04" style="fill:#d3cd63"/><path d="M764.05,1321.62c-45,0-84.27-32.39-95.38-78.73l-39.77-165.6L666.81,1067l39.76,165.6c6.72,27.92,30.34,47.42,57.48,47.42,49,0,92.55-5.51,129.36-16.38l10.49,40.08c-40.23,11.85-87.28,17.88-139.85,17.88Z" transform="translate(1 1)" style="fill:#d3cd63"/><path d="M1214.17,1176.72a147.37,147.37,0,0,1,31-89.81c9.58-12.33,18.78-25.45,27.38-39C1399.44,917.2,1453,794.34,1431.65,682.68c-29-151.86-185.14-223.53-191.77-226.5l-1.47-.6C993.28,367.71,845,464.94,808.75,493.42l-.21-.38C648.57,595.26,628,776,627.1,854.66L559.56,983.8A95.5,95.5,0,0,0,548.78,1028c0,35.82,27.44,65,61.16,65h95.4v-41.58h-95.4c-12.14,0-22-10.49-22-23.38a52.16,52.16,0,0,1,5.85-24l72.43-138.5v-5.38c0-68.21,15.76-236.6,161.08-330.48l.7.75c1.39-1.29,141.2-127.66,395.85-36.76,10.32,4.86,143.62,69.91,167.82,196.69,18.72,98.13-31.49,209.23-149.25,330.21,0,0-18.17,28.08-27.39,40a190.83,190.83,0,0,0-40,116.25,236.05,236.05,0,0,0,4.11,44l52.5,282.33h39.65l-53.78-290.5A193.94,193.94,0,0,1,1214.17,1176.72Z" transform="translate(1 1)" style="fill:#d3cd63"/><path d="M981.3,661.71c-30.12,0-54.65,25.17-54.65,56.06a56.78,56.78,0,0,0,18.24,41.83l93.85,86,93.72-86a56.78,56.78,0,0,0,18.24-41.83c0-30.89-24.53-56.06-54.65-56.06-13.71,0-27.64,7.24-41.44,21.56l-15.94,16.55-15.92-16.55C1008.94,669,995,661.71,981.3,661.71Zm57.37,243.06L915,793.89a103.39,103.39,0,0,1-33.2-76.12c0-56.27,44.61-102,99.46-102,20.09,0,39.32,7,57.37,20.87,18.06-13.86,37.29-20.87,57.38-20.87,54.85,0,99.46,45.76,99.46,102a103.39,103.39,0,0,1-33.2,76.12Z" transform="translate(1 1)" style="fill:#d3cd63"/><polygon points="1614.35 456.7 1630.14 483.84 1454.52 586 1438.73 558.86 1614.35 456.7 1614.35 456.7" style="fill:#d3cd63"/><polygon points="1323.61 326.24 1276.98 422.35 1246.97 407.79 1293.59 311.68 1323.61 326.24 1323.61 326.24" style="fill:#d3cd63"/><polygon points="1202.74 226.84 1169.31 386.35 1136.66 379.51 1170.09 220 1202.74 226.84 1202.74 226.84" style="fill:#d3cd63"/><polygon points="1050.54 269.91 1052 372.28 1025.59 372.66 1024.13 270.29 1050.54 269.91 1050.54 269.91" style="fill:#d3cd63"/><polygon points="872.11 257.63 920.16 396.93 888.63 407.8 840.58 268.5 872.11 257.63 872.11 257.63" style="fill:#d3cd63"/><polygon points="679.92 286.12 789.33 453.04 761.43 471.32 652.02 304.41 679.92 286.12 679.92 286.12" style="fill:#d3cd63"/><polygon points="1442.45 394.17 1374.5 479.46 1349.58 458.74 1417.53 373.44 1442.45 394.17" style="fill:#d3cd63"/><polygon points="1629.7 664.18 1490.57 691.33 1484.18 658.59 1623.32 631.44 1629.7 664.18 1629.7 664.18" style="fill:#d3cd63"/><polygon points="591.76 1167.29 417.26 1201.34 410.88 1168.6 585.37 1134.55 591.76 1167.29 591.76 1167.29" style="fill:#d3cd63"/><polygon points="628.82 1295.69 490.48 1326.66 483.19 1294.11 621.53 1263.14 628.82 1295.69 628.82 1295.69" style="fill:#d3cd63"/><polygon points="788.25 1430.74 649.11 1457.89 642.72 1425.15 781.86 1398 788.25 1430.74 788.25 1430.74" style="fill:#d3cd63"/><polygon points="1439.39 1354.96 1300.25 1382.11 1293.86 1349.37 1433 1322.22 1439.39 1354.96 1439.39 1354.96" style="fill:#d3cd63"/><polygon points="1612.31 832.17 1472.78 807.14 1478.67 774.31 1618.2 799.34 1612.31 832.17 1612.31 832.17" style="fill:#d3cd63"/><polygon points="598.83 696.22 467.27 643.41 479.7 612.45 611.26 665.26 598.83 696.22 598.83 696.22" style="fill:#d3cd63"/><polygon points="664.75 568.92 550.78 484.61 570.62 457.79 684.59 542.1 664.75 568.92 664.75 568.92" style="fill:#d3cd63"/><polygon points="1567.67 961.59 1435.48 910.37 1447.53 879.27 1579.72 930.48 1567.67 961.59 1567.67 961.59" style="fill:#d3cd63"/><polygon points="1478.54 1103.89 1366.45 1017.1 1386.87 990.73 1498.96 1077.51 1478.54 1103.89 1478.54 1103.89" style="fill:#d3cd63"/><polygon points="1434.13 1242.57 1278.34 1121.95 1298.76 1095.58 1454.55 1216.19 1434.13 1242.57 1434.13 1242.57" style="fill:#d3cd63"/><polygon points="558.24 867.84 436.31 795.53 453.33 766.84 575.26 839.15 558.24 867.84 558.24 867.84" style="fill:#d3cd63"/><polygon points="495.36 1003 363.18 951.78 375.23 920.68 507.41 971.89 495.36 1003 495.36 1003" style="fill:#d3cd63"/></svg>