<svg id="fd710bf8-092d-485b-9fe5-017b7e301076" data-name="Layer 1" xmlns="http://www.w3.org/2000/svg" viewBox="0 0 1971.34 1630.75"><title>moments-between-words</title><path d="M1980.91,1047.39c-14.5-94-32.64-195.28-101.5-260.93-16.94-16.15-36.7-29.8-50-49.07s-18.51-46.95-4.22-65.49c15-19.52,44.93-21.45,61.63-39.57,27.49-29.83,2.71-77.15-22.54-108.89-39.14-49.22-82.8-100.23-143.06-118.18-12-3.58-25.06-6-34.37-14.45C1672,377.39,1648,355,1652.11,335.42c3.39-15.92,3-125.45,19.39-136.92-84-21-261.82,9.29-354-15-94.41-24.88-64-30-127-80-26.27-20.85-63.42-50.33-94-36.45-16.55,7.53-28.71,22-40.27,36.05l-159.89,194c-19.42,13.66-48.46,14.05-71.23,4.35-28.85-12.27-50.65-36.3-73.71-57.54-46.93-43.22-106.08-78.11-169.88-78s-130.09,44.56-137.9,107.89c-2.39,19.33.34,40-8.46,57.39-19,37.59-73.33,33.18-114.26,23.14l-72.56-17.79c-7.91-1.94-16.52-3.83-24-.54-5.82,2.58-9.88,7.89-13.69,13-31.95,42.84-65.35,89.92-64.79,143.36.29,27.78,9.94,54.77,10.76,82.53,3.74,126-142.2,365.58-142.2,491.67,0,42,71-1,142.15,46,8.71,5.75,37.11,22,39.85,32,4,14.74-25.67,32.83-32.3,46.59-31.14,64.66-16.63,148.38,34.46,198.78,11.29,11.15,25.17,22.93,25.11,38.8-.1,26-34.44,35.18-51.33,54.91-19.51,22.77-12.59,59.57,7.11,82.17s48.68,34.45,76.54,45.53l-122.92,76.34c387.61,16.54,776-29.37,1163.5-10.36,202.84,10,645.08-6.06,646.07-14.42a289.45,289.45,0,0,0-22.65-149.94c-14.46-32.66-66.25-63.47-71-98.87s45.72-78,81.22-81.85c-5.3-74.2-39.46-146-93.7-196.89l111.5-30.31c9.59-2.61,19.73-5.54,26.42-12.9C1985,1080.54,1983.29,1062.8,1980.91,1047.39ZM896.47,297l13.1-13.75A48.07,48.07,0,0,1,896.47,297Z" transform="translate(-12.95 -61.99)"/><path d="M1982.36,1047c-11.51-74.46-24.26-152.9-65.73-217.47a240.88,240.88,0,0,0-34-42c-14.4-14.11-31-25.94-44.34-41.18-14.25-16.33-25-39.49-18.17-61.41,6.25-20,26.12-27.28,43.35-35.39,14.09-6.63,27.3-15.16,33.36-30.2,5.67-14.1,3.72-29.84-1-43.92-11.62-34.93-38.49-64.44-62.49-91.5-25.17-28.38-53.77-55.14-88.53-71.25-18.09-8.39-41.49-10-56.95-22.91-13.06-10.89-29.7-26.14-33.89-43.21-2.3-9.38.87-22.31,1.43-32,.8-13.88,1.46-27.76,2.42-41.63,1-15.08,2.24-30.22,4.73-45.15,1.41-8.42,2.64-22.49,10-28.19a1.51,1.51,0,0,0-.66-2.51c-47-11.45-97.64-8.41-145.56-7.13-55.31,1.47-111.19,4.83-166.36-.71-25.69-2.58-50.5-8.68-75-16.64-15.8-5.12-31.56-11.14-43.84-22.7-11.34-10.67-21.12-22.81-32.73-33.26-20.15-18.13-42.86-37.2-67.83-48.15-10.66-4.68-22.4-7.78-34.09-5.93-12.77,2-23.87,10.3-33,19-12.68,12.2-23.34,26.61-34.51,40.16l-36.23,44-74.94,90.94-18.74,22.73c-6.2,7.52-11.89,16.4-20.82,20.79-15.67,7.7-34.68,8.08-51.35,3.71-33.26-8.72-57.74-36.24-82-58.81-23.2-21.58-48.72-40.94-76.95-55.5C627,163.29,567.08,154.4,514.28,180.47c-22.44,11.08-42.54,27.73-56,49A108,108,0,0,0,443.83,264c-3.29,15-2.24,30.31-4.13,45.43-9.27,74.35-103.56,47-150.81,35.44-16.68-4.09-34-10.21-51.13-11.94-12.54-1.28-20.19,4.58-27.5,14.16-19.52,25.61-38.76,52.42-51.74,82.05C146,457.79,142,487,146.85,517.89c4.46,28.71,10.3,55.9,7,85-5.32,47.56-21.65,93.88-38,138.57C97.08,792.67,76.07,843,56.9,894c-16.68,44.42-33.26,90-40.76,137a244.59,244.59,0,0,0-3,27.4c-.32,7.08-1,15.16,3.41,21.22,9.17,12.58,32.77,9.32,46,9.56,33.74.61,65,6.51,93.87,25,9.84,6.28,20.06,12.19,29,19.68,3.87,3.22,9.07,7.26,9.7,12.55.81,6.84-5.18,13.37-9.4,18-7.25,8-16.53,15-22.08,24.39-6.5,11-10.33,24.58-13.1,37a182.11,182.11,0,0,0,.5,80.3A177.21,177.21,0,0,0,186,1378.22c9.48,11.64,22.38,20.81,30.57,33.44,9.48,14.6,5.54,29.42-6.8,40.51-17.86,16-42.18,24.77-48.71,50.28-6.3,24.64,4.24,51.32,21.6,68.89,20,20.22,47.06,31.06,73,41.39l-.36-2.74-122.92,76.34a1.51,1.51,0,0,0,.76,2.79c197.16,8.31,394.46.67,591.52-6.46,193.79-7,387.31-12,581.14-3.47,119.91,5.25,240.3,3,360.24,0,56.15-1.39,112.3-3.21,168.41-5.85,32.81-1.55,66.09-2.37,98.69-6.7,11.25-1.5,11.1-1.64,12.11-14.45a290.83,290.83,0,0,0-19.6-129.82c-12.92-32.46-40.78-51.9-61.23-79.14-10.08-13.42-17.33-28.89-12.33-45.82,4.89-16.57,17.44-30.55,30.6-41.24,13.59-11,30-20.22,47.6-22.49.76-.1,1.57-.61,1.5-1.5a306.39,306.39,0,0,0-94.14-198l-.66,2.51c38.11-10.36,76.44-20.15,114.39-31.11,11.82-3.41,23.5-8.11,29.11-19.88,5.7-12,3.72-26.13,1.84-38.76-.29-1.9-3.18-1.09-2.89.8,2.18,14.62,4.51,32.74-7,44.27-10.53,10.5-29.48,12.77-43.29,16.53l-92.91,25.25a1.51,1.51,0,0,0-.66,2.51,301.73,301.73,0,0,1,90.92,174.37c.54,3.64,3.61,14.4,2.1,18.33-1.17,3.06-4,2.44-7.25,3.29a95.49,95.49,0,0,0-22.93,9.53c-24.12,13.58-54.63,41.34-50.8,72.16,4.07,32.73,38.94,56,58.29,79.7,14.76,18.12,22.18,41,28,63.33a289.16,289.16,0,0,1,9.25,77.31q-.15,8.93-.85,17.82c-.16,2,.11,9-.7,9.77-.64.57-1.91.44-2.65.75-3.74,1.57-9.13,1.36-13.11,1.78-41,4.26-82.42,5.57-123.58,7.27-132.74,5.49-265.74,8.3-398.59,6.86-75.89-.82-151.65-5.46-227.53-6.82-107.67-1.93-215.36.15-323,3.47-214,6.61-428,18.21-642.19,13.37q-38.91-.87-77.79-2.52l.76,2.8,122.91-76.34a1.52,1.52,0,0,0-.35-2.74c-29.63-11.8-63.25-25-81.62-52.74-8.4-12.69-13.29-28.19-12.45-43.47,1-17.17,10.06-30.07,23.39-40.15,14.65-11.08,37.66-21.61,39.36-42.5,1-11.72-5.68-21.69-13.25-30-10-10.92-20.9-20.43-29.6-32.54-34-47.32-42.74-112.14-21.27-166.47,5.32-13.45,13.64-21.66,23.49-31.87,5.55-5.75,13-13,13.72-21.44.71-7.78-6-13.3-11.52-17.73-8.43-6.82-17.75-12.41-26.89-18.21-24.71-15.7-50.93-24-80.14-25.93-12.15-.79-24.33-.44-36.49-1-8.28-.42-19.83-.84-24.77-8.75-4.54-7.28-2.4-18.89-1.7-27a284.89,284.89,0,0,1,4.7-31.58c4.43-22,10.69-43.66,17.62-65C71,855.12,117.84,761.86,145,662c5.43-20,10-40.37,12.12-61,2.72-26.23-1.66-50.91-6.16-76.72-6.44-36.87-1.71-70.38,15-103.91a345.86,345.86,0,0,1,24.73-41.11c4.39-6.4,8.92-12.69,13.51-18.94,5.35-7.31,10.63-17,18.59-21.77,8.91-5.34,19.71-1.91,29,.36q14.32,3.5,28.64,7c16.62,4.08,33.2,8.58,50,12.08,22.84,4.77,47.78,7.69,70.61,1.34,22.56-6.27,37.5-22.87,41.21-46.07,2.42-15.17,1-30.69,3.95-45.8a105.58,105.58,0,0,1,15.37-37.61c33.27-51.07,98.6-70.51,156.34-58.77,32.21,6.55,62.3,21.11,89.37,39.49,27.67,18.77,50.31,42.57,75.36,64.42,20.82,18.16,44.89,33.86,73.37,34.6,13,.34,26.29-2.24,37.55-8.88,6.34-3.74,10.53-10.56,15.15-16.18l18.74-22.73,73.7-89.42c23.06-28,45-57.74,69.95-84.08,11.82-12.47,26.63-24.12,44.71-23.24,15.58.76,30.14,8.56,43,16.84a352.78,352.78,0,0,1,60.35,49.18c8.71,8.91,16.49,19,26.49,26.55,13.73,10.36,31,15.68,47.21,20.56,101.65,30.53,209.4,10.83,313.69,14.36,21.64.73,43.48,2.28,64.58,7.42l-.66-2.51c-5.49,4.27-7.27,13-8.74,19.32-2.63,11.32-3.94,23-5.07,34.52-2.43,24.94-2.93,50-5,74.94-.74,9.29-2.55,17.06,1.18,26.15,6.37,15.54,20.32,28.87,32.93,39.5,13.86,11.7,33.13,13.33,49.52,19.9,20.07,8,38.41,20,55,33.81,30.76,25.62,58.73,57.74,81.6,90.56,23.11,33.15,42.46,83.17-2.72,107.25-14.33,7.64-31.11,12.25-42.48,24.47-10.78,11.58-13.26,27.59-10.31,42.73,7.59,39,46.42,59.62,71.51,86.6,62.45,67.17,78.09,163.37,91.58,250.6C1979.76,1049.69,1982.65,1048.89,1982.36,1047Z" transform="translate(-12.95 -61.99)" style="fill:#fff"/><path d="M897.53,298.1l13.1-13.75-2.36-1.81a48.28,48.28,0,0,1-12.56,13.2c-1.55,1.12-.06,3.72,1.51,2.59a52.09,52.09,0,0,0,13.64-14.28,1.5,1.5,0,0,0-2.35-1.82L895.41,296C894.07,297.37,896.19,299.5,897.53,298.1Z" transform="translate(-12.95 -61.99)" style="fill:#fff"/><path d="M920.61,1373l-15.16-33.88c16.15-8.16,23.23-15,23.31-15l24.29,27.22c-1,1.07-10.93,10.83-32.44,21.69Z" transform="translate(-12.95 -61.99)" style="fill:#fff"/><path d="M1155.29,587c6.26-32.6,10.68-66.35,29.48-93.71,5-7.33,1.1-10.23-3.9-2.95a244.09,244.09,0,0,0-38.87,93c-1.66,8.66,11.62,12.38,13.29,3.66Z" transform="translate(-12.95 -61.99)" style="fill:#fff"/><path d="M1346.19,755.51c35.65-.67,61.92-37.4,96.85-39.69,8.81-.57,8.87-6.36,0-5.78-35.12,2.3-61.84,31-96.85,31.69-8.85.17-8.88,13.95,0,13.78Z" transform="translate(-12.95 -61.99)" style="fill:#fff"/><path d="M1291.86,637.87c34.88-23.45,70.22-49,110.6-60.71,8.51-2.47,6.89-7.77-1.66-5.29A412.63,412.63,0,0,0,1284.9,626c-7.32,4.92-.43,16.87,7,11.9Z" transform="translate(-12.95 -61.99)" style="fill:#fff"/><path d="M1362.45,937.55c28.57,16.64,61.94,30.06,88,50.43,6.91,5.41,10.73.72,3.75-4.74a749.19,749.19,0,0,0-84.78-57.59c-7.68-4.47-14.62,7.44-7,11.9Z" transform="translate(-12.95 -61.99)" style="fill:#fff"/><path d="M1323.49,1079.47c16.71,6.34,32.4,7.73,49.06,14.2,16.23,6.31,49.23,9.13,58.45,24.29,4.6,7.56,13.53,9.64,8.9,2-9.28-15.25-23.81-19.38-39.64-25.61q-36.46-14.34-73.11-28.21c-8.3-3.15-11.89,10.17-3.66,13.29Z" transform="translate(-12.95 -61.99)" style="fill:#fff"/><path d="M1392.88,856.78c32.16,0,64.31-8,96.47-8,8.86,0,8.88-5.78,0-5.78h-96.47c-8.87,0-8.88,13.78,0,13.78Z" transform="translate(-12.95 -61.99)" style="fill:#fff"/><path d="M1032.6,575c0-49-5-98-3.18-147,.33-8.87-5.45-8.86-5.78,0-1.85,49-4.79,98-4.82,147,0,8.87,13.78,8.88,13.78,0Z" transform="translate(-12.95 -61.99)" style="fill:#fff"/><path d="M836.49,583.23c-18.73-18.85-38.77-29.22-60.37-44.73-10.53-7.56-21.42-13.67-32.58-20.26-13-7.71-35.26-16.45-42.3-30.79-3.9-8-9.79-6-5.9,2,10.24,20.85,36,29.05,54.5,40.89,28,17.91,53.49,39.11,76.9,62.68,6.26,6.3,16-3.44,9.75-9.75Z" transform="translate(-12.95 -61.99)" style="fill:#fff"/><path d="M668.55,652.54C599.82,623,529.41,608,455.22,601.11c-8.83-.82-8.77,4,0,4.78,71.67,6.68,140,30,206.37,58.55,8.06,3.47,15.09-8.4,7-11.9Z" transform="translate(-12.95 -61.99)" style="fill:#fff"/><path d="M593.93,797.17c-42,4.61-83.32,9.36-124.6-.08-8.64-2-12.32,4.31-3.67,6.29A383.44,383.44,0,0,0,593.93,811c8.72-1,8.82-14.74,0-13.78Z" transform="translate(-12.95 -61.99)" style="fill:#fff"/><path d="M563.56,914c-49.81-10.23-100.11-6.3-151-6.09-8.87,0-8.89,4.82,0,4.78a714.6,714.6,0,0,1,147.3,14.6c8.65,1.78,12.35-11.5,3.66-13.29Z" transform="translate(-12.95 -61.99)" style="fill:#fff"/><path d="M506.77,1011.64c-58.94-2.63-117.87,2.75-176.81.12-8.87-.4-8.85,5.39,0,5.78l176.81,7.88c8.87.39,8.85-13.39,0-13.78Z" transform="translate(-12.95 -61.99)" style="fill:#fff"/><path d="M495.26,1190c-39.79,1.44-76.42,16.16-114.33,28.4-8.4,2.72-6.81,8,1.66,5.29a412.41,412.41,0,0,1,112.67-19.91c8.84-.32,8.89-14.1,0-13.78Z" transform="translate(-12.95 -61.99)" style="fill:#fff"/><path d="M592,1279.29a146.32,146.32,0,0,0-82,45.53c-6,6.53-.26,8.3,5.74,1.75,20.42-22.3,50.24-28.51,79.95-34,8.71-1.61,5-14.89-3.66-13.29Z" transform="translate(-12.95 -61.99)" style="fill:#fff"/><path d="M624,1378.91c-43.15.48-77.82,32.53-112.84,54.35-7.51,4.68-3.6,8.61,4,3.9,32.09-20,69.56-44,108.88-44.47,8.86-.1,8.88-13.88,0-13.78Z" transform="translate(-12.95 -61.99)" style="fill:#fff"/><path d="M706.31,1459.85c-11.94,31.41-18.38,60.85-37.19,88.69-5,7.37-1,9.27,3.9,2,19.46-28.81,34.23-54.49,46.58-87,3.15-8.3-10.16-11.88-13.29-3.66Z" transform="translate(-12.95 -61.99)" style="fill:#fff"/><path d="M1216.76,1363.59c31.4,8.68,63,17,94.2,26.18,32.29,9.53,68.1,15.41,89.68,42.53,5.52,6.93,11.22,3.13,5.75-3.75-19.47-24.46-47-37.51-76.08-47.2-36-12-73.28-20.92-109.89-31-8.56-2.37-12.21,10.92-3.66,13.29Z" transform="translate(-12.95 -61.99)" style="fill:#fff"/><path d="M1230.4,1230.27c83.17,15,163.27,30.3,241.67,61.84,8.23,3.31,9.81-3,1.67-6.29A1204.71,1204.71,0,0,0,1234.06,1217c-8.67-1.56-12.39,11.72-3.66,13.29Z" transform="translate(-12.95 -61.99)" style="fill:#fff"/><path d="M779.11,949c-7.65,0-15.31,5-23,5-8.87,0-9.89,7.78-1,7.78,7.65,0,16.31,1,24,1,8.87,0,8.89-13.78,0-13.78Z" transform="translate(-12.95 -61.99)" style="fill:#fff"/><path d="M1177.37,896.18c7.66,0,15.32-4,23-4,8.87,0,8.88-9.79,0-9.79h-24c-8.86,0-7.88,13.79,1,13.79Z" transform="translate(-12.95 -61.99)" style="fill:#fff"/><path d="M1075.49,904.51c-1.53-8.75-15-6-13.52,2.71,13.71,78.59-87.55,82.42-119,36.22-5-7.3-15.24,1.92-10.29,9.17C976.4,1016.8,1090.31,989.49,1075.49,904.51Z" transform="translate(-12.95 -61.99)" style="fill:#fff"/><path d="M991.26,807.56l38.5,21.64c7.74,4.35,14.7-7.55,7-11.9l-38.51-21.64C990.47,791.31,983.52,803.21,991.26,807.56Z" transform="translate(-12.95 -61.99)" style="fill:#fff"/><path d="M942.83,840c6.57-6-3.2-15.71-9.74-9.74a58.63,58.63,0,0,0-17.46,29.38c-2.12,8.61,10.16,12.29,12.29,3.67C930.19,854.13,935.84,846.38,942.83,840Z" transform="translate(-12.95 -61.99)" style="fill:#fff"/><path d="M1140.11,840.52C1106.15,762,999.78,724,918.91,731.69a18.9,18.9,0,0,0-6.48,1.63c-36.63,10.88-48.4,51.53-71.59,78.87-23.72,27.95-49.37,44.52-47.72,85.18,1.54,38.34,18.25,78,37.32,110.83,18.37,31.59,41.41,62.41,79.18,70,41,8.28,87.73,2.26,129.15-.07,34.4-1.92,70.28-8.33,93.48-36.24C1174.54,991.06,1164.5,897,1140.11,840.52Zm-90.37,223.12c-40.74,3.58-86.33,7.65-127,2.82-52.4-6.21-81.18-58.69-99.06-103.34-8.23-20.53-15.95-43.46-16.76-65.75-1-27.43,12-43.12,30.47-61C865.69,809,881,751,922.9,743.16c2.79-.52,5-.67,4.79-.7,44.84-2.2,88.44,11.37,128.25,31.74,41,21,68,52,80.2,96.74,8.63,31.78,12.48,86.3,5.23,118.81C1130.75,1037.33,1096.73,1059.52,1049.74,1063.64Z" transform="translate(-12.95 -61.99)" style="fill:#fff"/><path d="M866.2,736.86c3.75,8,15.64,1,11.9-7l-12.63-27c-3.75-8-12.63-1-8.9,7C860.78,718.85,862,727.85,866.2,736.86Z" transform="translate(-12.95 -61.99)" style="fill:#fff"/><path d="M980.8,717c3.37,0,7.34-3.18,6.89-6.89-.72-5.81-4.08-11.07-2-16.52,1.34-3.47,2.52-7.56-.82-8.48a8.19,8.19,0,0,0-9.47,4.81c-2.48,6.41-2.36,13.37-1.52,20.19C974.36,713.82,976.75,717,980.8,717Z" transform="translate(-12.95 -61.99)" style="fill:#fff"/><path d="M1100.45,763.24c2.94-3.51,6.43-11,10.79-12.2,8.52-2.43,4.9-10.73-3.66-8.29-6.53,1.86-13.5,5.53-17.87,10.75-2.39,2.85-1.8,7,1,9.74C1093.16,765.7,1098.05,766.11,1100.45,763.24Z" transform="translate(-12.95 -61.99)" style="fill:#fff"/><path d="M1097.87,1089.11c0,4.59,6,12.18,6,16.78,0,8.86,7.78,5.88,7.78-3,0-4.6-1-9.19-1-13.78C1110.65,1080.24,1097.87,1080.22,1097.87,1089.11Z" transform="translate(-12.95 -61.99)" style="fill:#fff"/><path d="M994.14,1111.63c-.8,9.19,3.4,18.37,2.61,27.55-.77,8.84,7,7.79,7.78-1,.8-9.18,3.59-17.36,4.39-26.55C1009.69,1102.8,994.9,1102.85,994.14,1111.63Z" transform="translate(-12.95 -61.99)" style="fill:#fff"/><path d="M840.32,1053.82a41.33,41.33,0,0,0-30,14c-5.8,6.66.91,10.44,6.75,3.74,5.26-6,14.14-3.65,22.21-3.94,8.84-.32,9.88-14.11,1-13.79Z" transform="translate(-12.95 -61.99)" style="fill:#fff"/><path d="M1830.7,1247.84l-182.43-80.21c-30.41-13.37-60.89-26.57-91.22-40.11-3.77-1.68-11.83-5.53-12.18-10.51-.14-1.89-.77-.88.78-2,.57-.41,3.91-.27,4.9-.34q7.35-.53,14.69-1.09,24.48-1.9,48.92-4.3,54.39-5.34,108.48-13.16c3.71-.53,4-5.4,2-7.69-46.42-52.87-125.06-53.18-177.25-97.15A1359.63,1359.63,0,0,0,1738,956.63a4.64,4.64,0,0,0,2-7.69A657.58,657.58,0,0,0,1559.86,822.6c55.37-36.46,126.42-45.78,189.33-24.29,3.59,1.23,7.57-3.53,5.19-6.76-39.67-53.71-101-90-167-99.7a249.76,249.76,0,0,0-34.52-2.62l82.69-39c3.58-1.68,2.6-7.56-1.1-8.4l-164.8-37.54,182.6-73.84c3.67-1.48,5-8,0-8.86q-75.49-13.05-152-18.66-38.51-2.77-77.12-3.63-19.6-.42-39.22-.34c-5.92,0-11.84.21-17.75.16-5.41-.05-12.08-.32-14.28-6.27-3.39-9.21,2.66-22.76,5.42-31.49a273.45,273.45,0,0,1,13-33.54,284.53,284.53,0,0,1,16.17-29.79c5.7-9.14,12.85-17.48,18.13-26.84,4.07-7.22,7.5-16.63,3.34-24.59-4.56-8.7-15.36-11.05-24.25-12.6-18.33-3.2-36.91-.84-54.62,4.5-39.26,11.83-73.74,35.71-113.25,46.9-20.84,5.91-42.72,7.69-59.63-8-12.86-11.94-20.42-28.81-26.45-45-11.59-31.09-21.37-71.06-54.49-86.55a48.16,48.16,0,0,0-46.16,2.82c-14,8.93-23.17,23.83-29.65,38.77-6.31,14.53-10.09,29.76-14.31,45-4.34,15.68-8.94,31.29-13.55,46.89-10.05,33.94-20.41,67.8-30,101.88q-1.67,5.9-3.26,11.8C855.61,425.73,762.46,369.7,666.6,323.48c-26-12.52-52.33-24.19-79.19-34.66-3-1.19-5.55,1.79-5.82,4.44a1575.45,1575.45,0,0,0-5.44,256.53c-88.4-42.94-183.83-86.1-284.39-72.09-2.57.36-3.65,3.49-3.21,5.66q8.19,40.45,16.37,80.93c4.76,23.5,8.37,47.89,18.59,69.79,16.58,35.54,51.26,55.91,85.2,72.85a1033.91,1033.91,0,0,0-164,60c-3.39,1.58-2.76,7.86,1.1,8.41a386.08,386.08,0,0,1,128,41.85,640.7,640.7,0,0,0-177.14,37.56c-3,1.1-4.84,5.22-2,7.69A447.74,447.74,0,0,0,324,941.58Q272,950.5,219.51,956c-7.7.81-17.36-.25-23.5,4.86-8.13,6.77-16.15,13.67-24.22,20.51l-46.44,39.31c-3,2.53-.61,8.11,3.25,7.85,76.1-5,143.53,38.1,213.62,60.45a312.8,312.8,0,0,0,44.13,10.8c-59.4,30-100.73,90.81-109.3,156.84a188.06,188.06,0,0,0,2.16,61.35,4.59,4.59,0,0,0,4.43,3.38L435,1307.28a1718.66,1718.66,0,0,1-94.45,145.58c-2.5,3.46,1.62,7.59,5.19,6.76l91.84-21.37A215.36,215.36,0,0,0,356,1540.18c-1,2.6,1.62,6.16,4.44,5.82q110.37-13,221.27-20.85a402,402,0,0,1-150.75,104.39c-5.12,2-3.34,10,1.48,9.15a1.74,1.74,0,0,0,.68.16c50.42.54,100.89-3.46,151-8.74,54-5.68,107.88-13.23,161.44-22.28,26.87-4.55,53.68-9.49,80.36-15a1.35,1.35,0,0,0,.78-.43l32.41-8-39.94-182.45a379.36,379.36,0,0,0,58.08-12l-9.47-36.17c-33.21,9.81-72.49,14.78-116.73,14.78-24.49,0-45.8-17.59-51.86-42.79l-30.27-126H698v-37.52H611.93c-10.95,0-19.87-9.47-19.87-21.1a47,47,0,0,1,5.28-21.65l65.36-125v-4.86c0-61.34,14.17-212.45,144.06-297.33,0,0,141.5-104.67,343.66,7.16,5.9,3.16,144.18,79.58,119.13,265.51-4.84,53.6-88,171.67-88,171.67-7.4,11.78-15.34,23.14-23.61,33.79a172.21,172.21,0,0,0-36.08,104.9,213.11,213.11,0,0,0,3.71,39.69l52.19,277.26,31.53-6.71a1.51,1.51,0,0,0,1,1.09c65.94,23.19,136.79,30.16,206.33,29.73,35.9-.21,71.58-3,107.32-6.07l118.41-10.18,133.59-11.49a1.56,1.56,0,0,0,1.08-2.62c-35.52-44.62-86.25-76.42-141.72-89.59a251.46,251.46,0,0,0-41.2-6.21c3.79-9.31,23.64-9.89,31.16-11l47.57-7.29,96.34-14.77c4.12-.64,4.18-6.53,1.1-8.41a1143.83,1143.83,0,0,0-240.07-110.36c39.63-17.17,82.89-23.61,125.64-28.12,41.71-4.4,86-5,125.76-20,20-7.51,37.79-19,50.77-36.17C1833.73,1252.3,1832.79,1248.76,1830.7,1247.84Zm-110.59,46.62c-44.67,5.31-89.8,7.51-133.9,16.85-24.52,5.19-48.45,12.81-71,23.86-3.74,1.84-2.43,7.3,1.09,8.41a1133,1133,0,0,1,238.35,106.53l-96.51,14.8c-17.07,2.62-34.66,4.27-51.51,8-10.6,2.37-21.93,8.08-22.41,20.24-.23,5.89,8.86,5.9,9.18.09a255.87,255.87,0,0,1,148.66,60.91,249.93,249.93,0,0,1,30.82,31.67l-231.78,19.94c-36.34,3.12-72.63,6.5-109.12,7.33a802.4,802.4,0,0,1-105.59-4.17c-38.8-4.26-77.31-12-114.21-24.85l-52-276.44a175.34,175.34,0,0,1-3-32.32,133.06,133.06,0,0,1,28-81c8.88-11.44,17.4-23.62,25.34-36.23l.07.05c79.68-107.8,94.56-183.51,95.16-186.68l.14-.9c15.1-110.73-23-187.25-57.65-231.94-37.6-48.51-78.84-70.67-80.28-71.43C967.53,556.31,791.14,663,791.14,663,646.79,755.25,628.19,913.71,627.41,984.74l-60.94,116.53a86.16,86.16,0,0,0-9.73,39.86c0,32.32,24.76,58.62,55.19,58.62h20.5l32.49,135.31c10,41.81,45.42,71,86.07,71,11.15,0,22-.33,32.58-.93l40.49,184.88c-102.33,21.17-206.69,36.28-311,43.16-24.39,1.61-48.83,2.65-73.28,2.6a411.66,411.66,0,0,0,156-112.79c2.37-2.76,1-8.14-3.25-7.85q-112.72,7.71-225,20.82A205.65,205.65,0,0,1,470.7,1430.34c4.91-2.24,1.33-9.53-3.54-8.4l-111.78,26q49.56-69.53,92-143.73c1.6-2.8-.38-7.25-4-6.91l-156.08,14.54c-11.76-66.1,15.95-136,66.41-179.51A177.08,177.08,0,0,1,404,1101.82c4.86-1.93,4.09-8.51-1.22-9-75.5-7.46-140.27-52.32-213.53-68.38A224.11,224.11,0,0,0,141.6,1019l61.57-52.12q70-6.65,139.29-19.22c4.84-.88,3.87-7.49,0-8.87a435.89,435.89,0,0,1-135.56-78,632.3,632.3,0,0,1,183-35.34c4.48-.19,6.37-6.19,2.32-8.57a392.82,392.82,0,0,0-129.45-48.13A1020,1020,0,0,1,423,712.66c3.64-.95,4.72-6.65,1.1-8.41-36.63-17.82-76.75-38-93.79-77.45-9.35-21.67-12.62-45.89-17.27-68.87L298.45,486c99-12.16,193.82,33.1,280.43,75.3,2.9,1.41,7.16-.23,6.92-4a1576.16,1576.16,0,0,1,4.35-257.61c98.32,38.88,192.1,92.22,278.68,152.59,23.59,16.45,46.65,33.66,68.84,52a4.79,4.79,0,0,0,2,1,4.29,4.29,0,0,0,5.6-2.64,4,4,0,0,0,.49-1.76c16.14-61.56,35.93-122.17,53-183.48,7.89-28.36,25.79-74.1,63.49-66.29,17.34,3.59,29.62,18.32,38.14,32.89,9.2,15.77,14,33.06,20.23,50.06,11.69,31.64,31.4,66.53,70,65.15,20.4-.73,40.46-8.42,59-16.36s36.23-17.18,54.61-25.2c17.89-7.82,36.91-14.7,56.57-15.81a89.07,89.07,0,0,1,28.75,2.88c5.54,1.52,11.25,3.93,11.15,10.53-.09,5.19-3.23,10.36-6,14.58-6,9.22-12.73,17.86-18.41,27.3a282.89,282.89,0,0,0-15.71,30,291.1,291.1,0,0,0-11.81,30.71c-3,9.36-6.73,19.59-6.81,29.54-.06,8.33,3.61,15.92,11.65,19.08,9.49,3.72,21.6,1.69,31.53,1.66q38-.12,76,1.65a1514,1514,0,0,1,151.2,14.63q11,1.62,22,3.43l-181.11,73.23c-3.83,1.55-4.88,7.76,0,8.87l166.07,37.83-91.12,42.94c-4.06,1.91-2.15,9,2.32,8.57,64.11-5.64,129.54,15.57,178.67,57.1a238.52,238.52,0,0,1,28.73,28.83c-64.19-17.22-135.34-4.72-189.5,34.13-2.51,1.8-3.43,6.36,0,7.94a650.15,650.15,0,0,1,179.32,122.43,1345,1345,0,0,1-190.88,33.49c-3.76.38-6.32,4.85-3.25,7.85,49.81,48.73,129.35,48.82,178.48,97.34q-49.4,6.91-99,11.79-26.26,2.57-52.6,4.56c-5.85.44-16.25-.8-21.11,2.91-3.93,3-4.65,7.8-3.08,12.3,4.4,12.58,19.08,16.71,29.94,21.49l50.17,22.06,98.06,43.11,106.75,46.94C1796.53,1282.08,1755.82,1290.21,1720.11,1294.46Z" transform="translate(-12.95 -61.99)" style="fill:#fff"/></svg>