<svg id="afddf591-c2d5-41c4-aaeb-94febecb7a32" data-name="Layer 1" xmlns="http://www.w3.org/2000/svg" viewBox="0 0 1760.47 1965.69"><title>sharing</title><path d="M1006.71,553.13S1149,187.28,1407.65,187.28c351.08,0,485.27,223.58,479.15,487.8s-309,463.19-460.37,599.58c-236.8,213.41-419.72,538.61-419.72,538.61S905.08,1589.7,607.31,1295C454.05,1143.3,120.49,878.33,126.62,654.75s98.11-467.47,448.45-467.47C844.11,187.28,1006.71,553.13,1006.71,553.13Z" transform="translate(-126.53 -17)" style="fill:#93cfe5"/><path d="M980.67,1697.06c-8.75,0-19.27-1.78-26.4-8.91-.29-.28-10.64-30.63-10.64-30.63l24.53-39.7h.57c.42,0,42.06.41,49,35.12l.07.36-20.94,41.86-.47.12A70.85,70.85,0,0,1,980.67,1697.06Zm-33.52-36.91c6.6,19.61,8.57,26.43,8.63,26.49,12.15,12.15,36,7.48,39.62,6.68l15.52-40.32c-6.36-30.5-36.74-28.21-41.63-28.38Z" transform="translate(-126.53 -17)"/><path d="M1169.91,1840.91a23.17,23.17,0,0,1-9.85-1.85l-22.19-14.78,1.64-.83c26.61-13.3,33.61-53.62,33.68-54l.34-2,22,22c11,11,10.4,22,8,29.35a37.1,37.1,0,0,1-8,13.26C1184.91,1839.11,1176.09,1840.91,1169.91,1840.91Zm-8.78-3.69s13.35,6.29,33.07-6.85c.64-.68,19.38-19.92-.16-39.46l-16.81-14.48c-1.73,8.36-7.35,34.12-30.51,46.92l14.41,13.87Z" transform="translate(-126.53 -17)"/><path d="M817.79,1809.34l-1.16-2.13c2.69,0,11.56-.83,12.79-2.55,3.75-5.19.05-16.49,0-16.6l-6.65-27-20.89,7v-3.49l22.05-7,7.54,29.89c.15.43,4.06,12.37-.32,18.45C829.52,1808.19,821.17,1809.34,817.79,1809.34Z" transform="translate(-126.53 -17)"/><path d="M1522.15,30.87l-7.57-2.55-27.5,220,0,.81c6.66,199.75-79.8,342.21-80.67,343.63l-.66,1.22c-26.92,60.58-430.89,790.92-430.89,790.92l-.35.62.09.7c.28,2.25,7.09,55.25,27.46,89.51.59,4.7,5.42,47.71-13.39,66.56-2,2.81-48.26,69.15-55.11,96.55-1.43,5-8.29,44.32.6,57,0,0,9.93,17.06,27.88,19.54l14.33,2.25s-10.58,22.64-10.7,25c-12.94-8.25-36.15-21-67.14-20.69-17.75-51.4-31.13-71.78-60.55-74-5.21-.39-5.94.51-8,.83l-21.43-80.36-.28-.94c-72.82-205.24,32.42-393.77,33.29-395.3,68.31-109.31,167.36-568,172.51-592.09,27.3-95.38,176.41-556.41,177.92-561.06L1185.3,17c-1.36,4.18-132.34,373.76-178.76,518.06-18.24-52.19-99.56-280.47-154-377.73L810,28l-3.85,3.26,34.25,130.16.61,1.51c54.25,96.43,136.38,354.84,153.73,410.32-.15.52-.32,1.09-.46,1.59l-.17.67c-.82,3.86-67.45,313.22-128.35,488.94-36.42-71-308.43-604.2-321-768.14l0-.46L474.37,21.34l-4,2.81L532,297.72c13.45,169.57,286.67,722.39,323.27,795.81-10.89,28.82-21.46,52.44-31.27,68.14-4.57,8-110.92,198.09-35.18,412.24l25.07,74.76c-22.4,9.11,0,72.9,0,72.9s-21.23,9.47-23,18.13c-3.78,18.69,6.31,48.16,18.56,81.07l21.24,49.33c2.48,5,14.18,21.41,29.58,30.06,7.69,6.59,112.24,69.77,112.07,70.49,5,3,23.45,12,47.09,12,13.86,0,24.87-4.66,40.61-15.16l82.68-66.51c1.14-.86,18.56-18.62,19.91-44.83,13.59.15,39,1,50.34-14.94,3.66-3.73,14.75-14.32,15.25-35.48.42-17.64-1.41-35.21-16.92-52.29l7.84-20.91c2.33-4.84,13.61-30.44,1.14-48.34-5.86-8.4-15.48-13.18-28.7-14.29,5-15.15,25.23-378.11-45.82-543.77,27.35-50.28,251.12-462.1,278.56-523.19,7.18-11.81,89.86-152.53,83.39-353.7ZM833.63,1654.49c35.87-6.51,57.84,71.33,59.12,77.29l2.74-1.37c42.17-6.49,76.8,29.68,76.8,29.68-4.28-4.27,16.48-46.11,16.48-46.11a43,43,0,0,0,8.91-4.1c9.6,9.89,65.74,76.6,68.68,79.9-5.11,4.11-71.22,62.41-109.5,49.67-.61-.2-61.4-17.14-81.37-37.11-.27-.27-27.31-27.48-40.7-54.24l-8.45-16.9c1.06-2.93,4.13-10.5,4.31-10.7,8.67-9.82,3.51-52,3.29-53.79l-.12-.93H818.68C820.16,1662.29,828.29,1655.46,833.63,1654.49Zm240.29,144.23c20.51,21.3,46.7,36.74,65.51,44.28l-18.33,42.53c-.07.29-1.91,2.76-10,7.4-9.57,5.46-19.86,5.64-38,.46-.74-.14-52.25-13.28-107.11-44.42,1.17.08,2.36.12,3.55.12C1011.54,1849.09,1070.4,1801.6,1073.92,1798.72Zm-260.7-130.81h18.71c.71,6.3,3.28,43.51-3.91,52.16l-4-.15C813.14,1694.63,810.3,1676.36,813.22,1667.91Zm168.6,295.58-.53-.26-116.41-72.66c-7.11-3.55-17.18-18.7-22.39-28.83,0,0-44.17-100.47-42-116,.81-5.7,21.62-8.68,21.62-8.68l6.5,13c13.7,27.39,42.38,58.56,42.66,58.84,15.57,15.56,54.5,27.32,73.29,34.26,39.67,32.79,100.27,51.38,120.57,56.92l-50.8,53.35C1014.26,1953.54,1004.7,1964.3,981.82,1963.49Zm152.75-71.62L1052.8,1960c-18.27,12-37.21,12.19-51,9.73,15.56-4.2,24.59-13.33,24.87-13.77l53.5-52.14a80.93,80.93,0,0,0,16.64,1.92q12.24,0,20.78-4.91c9.67-5.59,11.84-13.91,11.86-14l16-41.17c.88.34,2.91.67,3.73,1l2.5,7.7C1156.81,1874.62,1135.17,1891.4,1134.57,1891.87Zm78.88-86.88c-.24,15.51-10.66,25.47-10.71,25.51l-1.64,1.91c-8.56,12.85-39.4,16-39.4,16s-5.64-2.59-14.24-7.1h0c-21.66-11.35-62.11-34.85-78.79-59.87-22.4-33.6-50.7-66.33-61.58-77.61,2.91-2,4.69-5.39,7.64-7.92l31.07-41.24c2.79-2.1,21.19-15.22,34.62-27.9l44.1,76.09.73.88,66.89,59.47C1206.48,1777.53,1213.65,1791.6,1213.45,1805Zm-22.51-55.81c-4.09-3.1-8.34-7.16-8.63-8.85a4.69,4.69,0,0,1,1.15-3.77l13.26-26.31,7.32,3.66a54.32,54.32,0,0,1-3.58,10Zm-9.06-203.76s-7.75,128.82-7.85,129l-21.1,32.7,23.61-16.32c13.85-1.53,23.39.31,26.82,5.21,2.45,3.49,2.44,9,1.44,14.49l-9.61-4.81-14.37,28.73a8.12,8.12,0,0,0-1.89,6.46c.31,2,5.57,6.34,11.23,10.41l-1.18,3.14c-34.23-33.94-55.58-52.66-58.86-55.51l-43-80.45,20.76-60.1c5.19-3.72,31-41.78,35.35-76.79,0,0-25.7,60.64-42.43,67.48,0,0-23.51,64.09-25.46,68.65-13.53,13.44-38,33.56-38.26,33.77l-27.73,41.38c-2.68,2.28-2.12,2-13.44,9.63-10.77,6.33-21.14,8.93-30.92,7.58-17.65-2.41-28.43-17.69-28.43-17.69-2.76-9.16-4-34.43,1.12-52.38,6.68-26.7,54-86,54.24-86.37,21.07-21.06,18.86-76.86,18.58-78.86l-.29-9.34c-18.83-31.39-20.33-72.51-21.21-79l144.52-235.64C1197,1313,1182.07,1543.47,1181.88,1545.42Z" transform="translate(-126.53 -17)"/></svg>