<?xml version="1.0" encoding="utf-8"?>
<!-- Generator: Adobe Illustrator 16.0.0, SVG Export Plug-In . SVG Version: 6.00 Build 0)  -->
<!DOCTYPE svg PUBLIC "-//W3C//DTD SVG 1.1//EN" "http://www.w3.org/Graphics/SVG/1.1/DTD/svg11.dtd">
<svg version="1.1" id="Layer_1" xmlns="http://www.w3.org/2000/svg" xmlns:xlink="http://www.w3.org/1999/xlink" x="0px" y="0px"
	 width="1000px" height="1000px" viewBox="0 0 1000 1000" enable-background="new 0 0 1000 1000" xml:space="preserve">
<g>
	<path d="M751.721,96.728c-10.57-13.114-22.402-20.87-22.9-21.195l-0.212-0.132c-53.72-32.837-100.856-49.487-140.102-49.487
		c-48.5,0-67.636,25.72-68.426,26.815l-2.852,3.947l1.688,4.568c0.087,0.232,8.465,23.498-0.062,50.909L240.401,835.677
		l-0.093,0.248c-0.317,0.902-30.692,90.734,62.128,130.169c18.901,8.029,37.083,12.102,54.04,12.104c0.008,0,0.006,0,0.014,0
		c63.759,0,89.236-55.53,90.288-57.893l0.097-0.217l278.384-723.344c13.925-23.793,37.052-36.947,37.271-37.07l3.495-1.942
		l0.943-3.886C771.635,134.644,766.361,114.893,751.721,96.728z M749.913,145.989c-8.17,5.27-27.785,19.529-40.837,42.251
		l-0.352,0.612L430.017,913.038c-1.453,3.077-23.059,46.895-73.528,46.895c-0.003,0-0.008,0-0.011,0
		c-14.489-0.003-30.269-3.585-46.901-10.651c-76.16-32.354-53.5-102.989-52.072-107.194l278.502-723.648l0.188-0.538
		c7.916-25.148,4.084-47.443,1.517-57.446c5.909-5.46,21.33-16.275,50.795-16.275c35.804,0,79.689,15.719,130.442,46.724
		C720.809,92.146,754.518,115.188,749.913,145.989z"/>
	<path d="M701.991,106.006c-12.77-9.201-30.73-18.274-50.577-25.549c-23.431-8.591-46.342-13.517-62.857-13.517
		c-15.246,0-24.555,4.292-27.657,12.757c-3.6,9.814,2.787,20.707,18.979,32.375c12.768,9.2,30.73,18.274,50.577,25.548
		c23.43,8.59,46.341,13.517,62.857,13.517c15.25,0,24.555-4.292,27.658-12.758C724.567,128.563,718.182,117.671,701.991,106.006z
		 M693.313,132.871c-14.245,0-35.39-4.634-56.568-12.398c-34.031-12.476-54.094-27.54-57.91-34.135
		c1.644-0.534,4.724-1.131,9.722-1.131c14.244,0,35.392,4.636,56.57,12.4c34.027,12.475,54.091,27.539,57.907,34.134
		C701.389,132.275,698.313,132.871,693.313,132.871z"/>
</g>
<path d="M519.871,446.995c-48.708,13.699-90.12,24.883-100.916,50.176c-9.945,23.301-135.993,353.365-135.993,353.365
	s-21.098,50.827,37.27,77.522c59.703,27.307,86.466-26.838,86.466-26.838l200.15-515.978
	C606.848,385.243,571.188,432.562,519.871,446.995z M449.627,489.949c5.583,0,10.108,4.525,10.108,10.108
	c0,5.58-4.525,10.108-10.108,10.108s-10.109-4.528-10.109-10.108C439.518,494.475,444.044,489.949,449.627,489.949z
	 M407.792,687.086c-11.754,0-21.285-9.53-21.285-21.286c0-11.754,9.53-21.284,21.285-21.284c11.756,0,21.285,9.53,21.285,21.284
	C429.077,677.556,419.549,687.086,407.792,687.086z M439.52,774.097c-5.583,0-10.108-4.525-10.108-10.106
	c0-5.584,4.525-10.107,10.108-10.107c5.584,0,10.108,4.523,10.108,10.107C449.627,769.571,445.104,774.097,439.52,774.097z
	 M449.626,610.467c-16.244,0-29.412-13.17-29.412-29.413c0-16.242,13.168-29.412,29.412-29.412c16.244,0,29.411,13.17,29.411,29.412
	C479.038,597.297,465.871,610.467,449.626,610.467z M510.464,537.292c-5.583,0-10.107-4.526-10.107-10.106
	c0-5.583,4.524-10.108,10.107-10.108c5.584,0,10.108,4.525,10.108,10.108C520.572,532.766,516.048,537.292,510.464,537.292z"/>
</svg>
