<svg id="0462b8ce-9619-4e57-8872-1c09771a1f3d" data-name="Layer 1" xmlns="http://www.w3.org/2000/svg" viewBox="0 0 596.19 91.5"><title>linked-list</title><path d="M59.6,67.1a3.2,3.2,0,0,1-.5,1,2.67,2.67,0,0,0-.5,1.2,68.28,68.28,0,0,0-.4,7v1.6c0,.13.12.28.35.45s.35.32.35.45A2.78,2.78,0,0,1,57.5,81a3.69,3.69,0,0,0-1.35.6A18.4,18.4,0,0,0,54,83.4q-4.09,2.4-12.1,7.3-5.2,3.6-14.2,8.8l-2,1.2a10.76,10.76,0,0,1-2.3,1.1c-.53,0-.82-.38-.85-1.15a3.45,3.45,0,0,0-.25-1.45q-1.8-1.5-5.1-4.7Q14.61,91.8,14,91a5.41,5.41,0,0,1-.9-4.1A8.22,8.22,0,0,0,13,85.75a9.18,9.18,0,0,1-.15-1c0-.13.07-.92.2-2.35s.23-2.42.3-2.95-.05-1.17-.15-2.1S13,75.73,13,75.4c0-1,.07-2.7.2-5.1.13-2.2.2-3.93.2-5.2a2.4,2.4,0,0,1,.2-.7c-.07-1.2-.07-3,0-5.3.07-3,.1-4.2.1-3.6V50c0-.13,0-.52.1-1.15s.1-1.05.1-1.25c.13-1.67.27-4.07.4-7.2,0,.47-.1,0-.3-1.4a14.73,14.73,0,0,0,.2-2.7v-5c.33-3.27.5-5.33.5-6.2a35.18,35.18,0,0,1,.1-3.7c.07-.4.57-.93,1.5-1.6a18.17,18.17,0,0,0,1.9-1.3,29,29,0,0,1,4.6-3.4c1.33-.73,2.63-1.47,3.9-2.2a6.74,6.74,0,0,1,2.4-.8c.13.33.33.77.6,1.3a25,25,0,0,0,2.6,2.9,56.07,56.07,0,0,0,6,5.3v4.2A74.26,74.26,0,0,1,38,34c-.17.8-.25,1.13-.25,1a8.7,8.7,0,0,1,.5,2.9c-.2.67-.43,1.7-.7,3.1q-.2,4.3-.7,11.9a7.35,7.35,0,0,0,0,1.8c.13,1,.2,1.67.2,2,0,.67-.07,1.8-.2,3.4s-.2,2.83-.2,3.7h.8l4.4-2.3q.71-.2,1.8-.6l3.2-2.1a7.16,7.16,0,0,1,3.1-1.5,2.54,2.54,0,0,1,1.6.4,19.71,19.71,0,0,0,3,4.1l1.2,2c.8,1.33,1.43,2,1.9,2a.57.57,0,0,0,.4-.1.57.57,0,0,1,.4-.1c.27,0,.53.18.8.55A1.69,1.69,0,0,1,59.6,67.1Z" transform="translate(-12.8 -11.4)" style="fill:#d9f0f9"/><path d="M112.1,85.7c0,.73-.07,1.73-.2,3a2,2,0,0,1-1,1.4,8.47,8.47,0,0,1-3.4,1.4h-.1c0-.07-.07-.1-.2-.1A14.69,14.69,0,0,0,101,93a35.27,35.27,0,0,1-4.9,1.7c-.73.13-1.67.33-2.8.6a2.32,2.32,0,0,0-.5.4c-2.93.93-5.27,1.67-7,2.2a76.41,76.41,0,0,1-9.1,2.3,6.85,6.85,0,0,1-1-.25,5.49,5.49,0,0,0-1-.25.57.57,0,0,0-.4.1.4.4,0,0,1-.3.1q-.41,0-3.75-2.85a19.88,19.88,0,0,0-4.2-3.1,1.23,1.23,0,0,1-.85-1.35,3,3,0,0,1,.4-.95,3,3,0,0,0,.4-1,2.56,2.56,0,0,0-.8-1.5v-.5c0-.13.1-.2.3-.2a.69.69,0,0,0,.5-.2,72.68,72.68,0,0,1,1-8c0-.2.23-.43.7-.7a2,2,0,0,0,.1-.9v-.5a34.12,34.12,0,0,1,3.6-1.1c.13,0,.22,0,.25.1s.12.1.25.1,1.16-.33,3.1-1a22.1,22.1,0,0,0,3.6-1,1.21,1.21,0,0,0,.65-1c.1-.53.18-1,.25-1.5A11.67,11.67,0,0,0,80,69c0-.67,0-1.7.1-3.1s.1-2.43.1-3.1A3.49,3.49,0,0,0,80,62a3.3,3.3,0,0,1-.2-.9,1,1,0,0,0,.7-1.1,2,2,0,0,0-.5-1.6v-.6c.53-.13.8-.63.8-1.5,0-.2.23-1.77.7-4.7a10.63,10.63,0,0,1-.1-1.7,1.31,1.31,0,0,0,.3-.5c.07-.2.17-.58.3-1.15a6.6,6.6,0,0,0,.2-1.15,2.6,2.6,0,0,0-.1-.6v-.7a11.61,11.61,0,0,0-1.65.2c-.77.13-1.18.2-1.25.2a2.64,2.64,0,0,1-1.8-.85C76.8,44.78,76,44,74.9,42.9a6.89,6.89,0,0,1-1.5-.6,73.41,73.41,0,0,0-6.3-4.9c.13-.33-.22-1.07-1-2.2a5.34,5.34,0,0,1-1.25-2.4c0-.33.27-.63.8-.9a2.19,2.19,0,0,1,1.1,1.2,2.17,2.17,0,0,0,.2-1.8c-.2-.87-.3-1.23-.3-1.1,0-.07.13-.22.4-.45s.4-.42.4-.55c.07-.4.1-2.27.1-5.6a3.74,3.74,0,0,1,.4-1.4,3.35,3.35,0,0,1,1.5-.6c.13,0,.22.1.25.3a.32.32,0,0,0,.35.3q-.19,0,.3-.3l2.8-.3c1.33-.53,3.4-1.27,6.2-2.2q2.1-.7,5.8-1.6a2.15,2.15,0,0,1,.7-.4q3.8-1,10.9-2.9l1.8-1a7.24,7.24,0,0,1,2.4-.9,4.17,4.17,0,0,1,.95.25c.5.17.88.28,1.15.35a4.92,4.92,0,0,0,.9,1.3q5.7,3.41,6.6,6,1.31,3.6,1.3,13.1,0,.6-1,1.5a10.08,10.08,0,0,1-1.35,1,25.13,25.13,0,0,1-3.2.65,3.72,3.72,0,0,0-3,1.85,10,10,0,0,0-1,4.05c-.07,1.4-.14,2.8-.2,4.2-.07.87-.1,2.1-.1,3.7v5.6a.85.85,0,0,1-.1.4.85.85,0,0,0-.1.4V67.8c.2.2.33.3.4.3a1.47,1.47,0,0,0,.45-.2,1.27,1.27,0,0,1,.55-.2c.6,0,1.57.73,2.9,2.2.73.8,1.48,1.57,2.25,2.3s1.85,1.83,3.25,3.3Q112.1,83.5,112.1,85.7Z" transform="translate(-12.8 -11.4)" style="fill:#d9f0f9"/><path d="M171.3,20.4a2.88,2.88,0,0,1-.2.6,2.11,2.11,0,0,0-.2.7c-.07.53-.19,1.4-.35,2.6s-.25,1.87-.25,2v5.8a3.3,3.3,0,0,1-.1.6,3.74,3.74,0,0,1-.2.6c.06,1.27.06,3.1,0,5.5a28.56,28.56,0,0,0,.25,3.2c.16,1.4.25,2.07.25,2l-1,27.7c-.07.87-.37,3.83-.9,8.9a1.75,1.75,0,0,1-.5,1l-.9,1.1c-.2.2-.5.47-.9.8a3.46,3.46,0,0,1-.6.2c-.6.33-1.47.83-2.6,1.5a4.37,4.37,0,0,0-1.1.2q-5.4,2.89-7.2,2.9c-.14,0-.35-.22-.65-.65s-.52-.65-.65-.65-.2,0-.2.1-.07.1-.2.1-.9-1.43-2.5-4.3c-1.94-3.47-3.3-5.8-4.1-7-.07-.47-.2-1.2-.4-2.2q-1.2-4.31-2.3-7.9c-.47,0-.7.57-.7,1.7a24.87,24.87,0,0,1-.3,5.7v7.6l-1.2,10.7c0,.07,0,.37.1.9a3.64,3.64,0,0,0,.25,1.1,3.68,3.68,0,0,0,.85.9q-.41.7-.75,1.35a1.22,1.22,0,0,1-1.15.65,1.52,1.52,0,0,1-.5-.1h-.6a11.13,11.13,0,0,0-2,1.1c-1.54.87-2.49,1.38-2.85,1.55a10.56,10.56,0,0,1-1.15.45,28.7,28.7,0,0,0-4.5,3,1.9,1.9,0,0,1-1.2.5,1.8,1.8,0,0,1-1.8-1.3,27.07,27.07,0,0,0-7.2-9.3,3.37,3.37,0,0,0,1.1-2.3,3.27,3.27,0,0,1-.1-1.3c.27-1.07.4-1.4.4-1V69.6a9.55,9.55,0,0,1,.2-1.15,9.55,9.55,0,0,0,.2-1.15V48.2a63.52,63.52,0,0,0-.3-6.8,15.4,15.4,0,0,0-.4-3,4.25,4.25,0,0,1,.15-.8,4.25,4.25,0,0,0,.15-.8c0-.53.07-2,.2-4.5.06-.33.15-1,.25-1.9s.15-1.6.15-2a7.83,7.83,0,0,0-.15-1,2.5,2.5,0,0,1,0-1.1,3.18,3.18,0,0,1,.7-1.4h.5l.5.5a3,3,0,0,1,.45-.8,4.3,4.3,0,0,1,1.75-1.1q7.39-3.11,8.6-3.1a11.25,11.25,0,0,1,1.4.7,3.53,3.53,0,0,1,1,.5q.8,1.3,2.7,4a27.68,27.68,0,0,1,1.5,2.6,1.71,1.71,0,0,0,1.3.85,2.47,2.47,0,0,1,1.1.35c.8,1.33,2,3.47,3.7,6.4a25.79,25.79,0,0,0,3.5,5.5l.1-14.2q-.4-6.71-.4-7.5c0-1.4,0-1.93.1-1.6a.27.27,0,0,1-.3-.3v-1l10.7-4.3a6.05,6.05,0,0,0,2.7.7,5.82,5.82,0,0,0,1.5,1.7,2.6,2.6,0,0,1,.6.1,17,17,0,0,0,2.8,3,18.33,18.33,0,0,0,2.5.7A1.73,1.73,0,0,1,171.3,20.4Z" transform="translate(-12.8 -11.4)" style="fill:#d9f0f9"/><path d="M227.1,20q0,1.39-1.8,5.1l-9.4,17.6a5.62,5.62,0,0,1-.2,1.2,77.89,77.89,0,0,0-5.1,12.3c-.54,1.6-.8,2.27-.8,2,0,.2.23.52.7.95s.8.65,1,.65.33-.17.6-.5a1.77,1.77,0,0,1,.7-.6l.4.4c-.94.87-1.4,1.53-1.4,2q0-.3,3.1,3.9c1.4,1.6,3.16,3.7,5.3,6.3a5.84,5.84,0,0,1,1.2,1.1q5.4,8.7,5.4,9.1a1.5,1.5,0,0,1-.6,1.2c-.6-.13-1.19,0-.95.1a1.85,1.85,0,0,1,.4.15.48.48,0,0,0,.15.1c.06,0,.1.15.1.35,0,.6-.5,1-1.5,1.1a6.81,6.81,0,0,1-2.1,1.9q-4.91,2.4-6.7,2.4c-.47,0-1.47-.73-3-2.2-.87-.87-1.74-1.7-2.6-2.5a17.82,17.82,0,0,1-2.1-1.3c-2.87-2.47-4.54-4.23-5-5.3a3.38,3.38,0,0,0-.9-1.2,1.1,1.1,0,0,0-.2.5c-.07.27-.15.75-.25,1.45a12.19,12.19,0,0,0-.15,1.45,11.06,11.06,0,0,0,.1,1.25c.06.57.1.92.1,1v4.8a13.42,13.42,0,0,1-.25,1.35,10.81,10.81,0,0,0-.25,1.35v4.8a5.51,5.51,0,0,1-.4,2.6c-.47.8-1.64,1.57-3.5,2.3l-5.6,3.1a3.16,3.16,0,0,1-1.3.2.93.93,0,0,1-.6-.8v-1l-1.3-.6c-.34-.27-1.8-1.53-4.4-3.8q-1.6-1-4.1-2.8c-.27-.27-.4-1.8-.4-4.6a2.44,2.44,0,0,1-.3-.8L180.4,73l.6-16.1-1.5-15.1a23.34,23.34,0,0,1,.3-4.3c.06-.33.06-2.07,0-5.2-.07-2.13.36-3.6,1.3-4.4q.19-.2,4.4-2.1a14.34,14.34,0,0,1,1.2-.8q6.2-2.7,7.5-2.7a3.92,3.92,0,0,1,1.05.4,7.48,7.48,0,0,0,1.25.5,30.11,30.11,0,0,0,4.7,4.9c.2,0,.36-.13.5-.4q1.29-2.81,4.5-9.5a6.2,6.2,0,0,1,.1-1.9c.4-.2,1-.47,1.7-.8a66.79,66.79,0,0,1,10-3.8l9.1,5.2Z" transform="translate(-12.8 -11.4)" style="fill:#d9f0f9"/><path d="M282.3,84.7c-.2.27-.5.63-.9,1.1q-2.91,1.9-8.9,5.2a14.56,14.56,0,0,0-2.3.5,69.12,69.12,0,0,1-6.3,3.3,41.88,41.88,0,0,1-4,2.2,8,8,0,0,0-1.2.1c-2.14,1.07-4.24,2.13-6.3,3.2q-4,2-5.9,1.8l-1.9-1.6c-.34-.4-.77-1-1.3-1.7l-3.1-2.5q-1.41-1.5-4.6-4.3a5,5,0,0,1-1.7-1.2,11.35,11.35,0,0,1-.6-3.8l.7-21.9c-.2-.4-.44-.93-.7-1.6A1.05,1.05,0,0,1,234,63a.69.69,0,0,0,.45-.75c0-.4-.34-.9-1-1.5-.4-.47-.84-.93-1.3-1.4v-.6c.2-.2,1-.2,2.5,0a8.33,8.33,0,0,0,.3-2.2,6.91,6.91,0,0,0-.9-2.8,1.52,1.52,0,0,0,1-1.2q.3-4.2,1.4-13.5c0-1,0-2.47.1-4.4.26-1,.6-2.5,1-4.5a42,42,0,0,0-.1-5,6,6,0,0,1,1.2.1h.6a7,7,0,0,1,1.5-.4q1.7-.4,5.1-1.5a24,24,0,0,1,2.1-1.3c.6-.2,1.46-.47,2.6-.8.06,0,.2-.12.4-.35s.36-.35.5-.35a.41.41,0,0,1,.4.2.31.31,0,0,0,.3.2q-.6,0,4.6-2.4,7.29-3.4,11.5-4a3.65,3.65,0,0,0,.9-.25,3.34,3.34,0,0,1,1-.25,1.47,1.47,0,0,1,1,.7c.36.47.58.7.65.7,1.13,1.07,2.9,2.53,5.3,4.4a13.29,13.29,0,0,0,3.6.7c-.07.93-.1,2-.1,3.1.46,4.8.7,7.77.7,8.9s-.94,2.13-2.8,3l-3,1q-2,.9-7.2,3.7a43.94,43.94,0,0,0-4.9,1.6A17.79,17.79,0,0,0,260,44a3.49,3.49,0,0,0-.55,2.3c0,.53.2.8.6.8a13.34,13.34,0,0,0,3.65-1.45,11.38,11.38,0,0,1,4.55-1.45,6.39,6.39,0,0,1,2.9,1.4,17.37,17.37,0,0,0,1.6,2.3c.33.27,1.36,1,3.1,2.3.13.47.3,1.17.5,2.1q.6,5.7.6,7.5a3.78,3.78,0,0,1-.6,2.3l-1.8,1.6a12.24,12.24,0,0,1,1.1,1,5.82,5.82,0,0,0,.5,1.2,34.37,34.37,0,0,0,4.8,4.4c.2.53.5,1.3.9,2.3a15.76,15.76,0,0,1,.5,4.5Z" transform="translate(-12.8 -11.4)" style="fill:#d9f0f9"/><path d="M345.3,51.1a45.61,45.61,0,0,1-.9,10.4,15.57,15.57,0,0,1-1.5,4.1,6.69,6.69,0,0,0-1,1.6c-.8,2.13-1.67,4.17-2.6,6.1q-4.2,8.9-19.2,19.8a45.32,45.32,0,0,1-6.7,4q-2.5.6-7.3,2.2c-.07,0-.22.12-.45.35a1,1,0,0,1-.65.35q-.11,0-3-1.5a67.28,67.28,0,0,1-5.9-3.5,21.13,21.13,0,0,1-5.6-5.2c-.2-.27-.3-1.63-.3-4.1q0-2.3.4-14.5a3.33,3.33,0,0,1,.3-.9,3,3,0,0,0,.3-1.1V66.1c.06-1.33.1-2.33.1-3V56.8q.09-2.4.6-7.3c.33-3.27.5-4.87.5-4.8a3.06,3.06,0,0,0-.8-1.8,5.36,5.36,0,0,1,1.5-.9c-.34-.47-.84-1.2-1.5-2.2a5.71,5.71,0,0,0,1.3-.5,2.73,2.73,0,0,0,.4-1.3V30.5c0-.13.06-.63.2-1.5a15.38,15.38,0,0,0,.2-1.7c.26-2.07.53-5.13.8-9.2a4.92,4.92,0,0,0,.6-.75,1.44,1.44,0,0,0,.2-1.05,11.14,11.14,0,0,0,1.8.4q-.21,0,5.7-1.6c.6-.13,3.46-.5,8.6-1.1a3.33,3.33,0,0,0,.6-.2,2.37,2.37,0,0,1,.8-.2,21.63,21.63,0,0,1,7.3.9q3.5,1.3,9.5,5.9a11.12,11.12,0,0,1,2.8,2.8,6.23,6.23,0,0,0,.4,1.8,25.71,25.71,0,0,0,4.1,3.7,10.36,10.36,0,0,1,2.2,2.8,22.41,22.41,0,0,1,1.5,2.4q.9,1.6,2.4,5.1A40.55,40.55,0,0,1,345.3,51.1Z" transform="translate(-12.8 -11.4)" style="fill:#d9f0f9"/><path d="M326.8,43.4a31.45,31.45,0,0,1-.2-4.4,14.75,14.75,0,0,0-4.3-3.2,8,8,0,0,0-3.8-1.1,6.46,6.46,0,0,0-.95.1c-.44.07-.67.13-.7.2s-.1.2-.2.4a1.33,1.33,0,0,0-.15.6V56.6a17.33,17.33,0,0,1-.3,3.2q0,.11-.15.15c-.1,0-.15.15-.15.35a1.58,1.58,0,0,0,.25.65,1.75,1.75,0,0,1,.25.65q6.39-5.4,8.4-9A18.85,18.85,0,0,0,326.8,43.4Z" transform="translate(-12.8 -11.4)" style="fill:#fff"/><rect x="310.7" y="46.8" width="0.4" height="0.5"/><path d="M447.4,67.1a3.2,3.2,0,0,1-.5,1,2.56,2.56,0,0,0-.5,1.2,68.28,68.28,0,0,0-.4,7v1.6c0,.13.11.28.34.45s.35.32.35.45a2.76,2.76,0,0,1-1.4,2.2,3.77,3.77,0,0,0-1.35.6,19.28,19.28,0,0,0-2.15,1.8q-4.1,2.4-12.1,7.3-5.19,3.6-14.19,8.8l-2,1.2a10.71,10.71,0,0,1-2.31,1.1c-.53,0-.81-.38-.85-1.15a3.29,3.29,0,0,0-.25-1.45c-1.19-1-2.9-2.57-5.09-4.7q-2.61-2.7-3.21-3.5a5.45,5.45,0,0,1-.89-4.1,10.19,10.19,0,0,0-.15-1.15,10.38,10.38,0,0,1-.16-1c0-.13.07-.92.2-2.35s.24-2.42.3-2.95,0-1.17-.15-2.1-.15-1.57-.15-1.9q0-1.5.21-5.1c.13-2.2.19-3.93.19-5.2a2.21,2.21,0,0,1,.21-.7c-.07-1.2-.07-3,0-5.3.06-3,.1-4.2.1-3.6V50c0-.13,0-.52.09-1.15s.1-1.05.1-1.25q.21-2.51.4-7.2c0,.47-.09,0-.3-1.4a13.77,13.77,0,0,0,.21-2.7v-5c.33-3.27.5-5.33.5-6.2,0-2.07,0-3.3.09-3.7s.57-.93,1.5-1.6A18.31,18.31,0,0,0,406,18.5a29.33,29.33,0,0,1,4.59-3.4c1.34-.73,2.64-1.47,3.91-2.2a6.74,6.74,0,0,1,2.4-.8c.13.33.33.77.6,1.3a25.08,25.08,0,0,0,2.59,2.9,56.07,56.07,0,0,0,6,5.3v4.2a75.59,75.59,0,0,1-.34,8.2c-.17.8-.25,1.13-.25,1a9,9,0,0,1,.5,2.9,31.34,31.34,0,0,0-.71,3.1q-.19,4.3-.7,11.9a8.57,8.57,0,0,0,0,1.8,17.36,17.36,0,0,1,.2,2c0,.67-.06,1.8-.2,3.4s-.19,2.83-.19,3.7h.79l4.4-2.3c.47-.13,1.07-.33,1.81-.6l3.19-2.1a7.16,7.16,0,0,1,3.1-1.5,2.52,2.52,0,0,1,1.6.4,19.71,19.71,0,0,0,3,4.1l1.21,2c.79,1.33,1.43,2,1.9,2a.54.54,0,0,0,.39-.1.58.58,0,0,1,.4-.1,1.08,1.08,0,0,1,.81.55A1.77,1.77,0,0,1,447.4,67.1Z" transform="translate(-12.8 -11.4)" style="fill:#d9f0f9"/><path d="M499.89,85.7c0,.73-.06,1.73-.19,3a2.06,2.06,0,0,1-1,1.4,8.55,8.55,0,0,1-3.41,1.4h-.09c0-.07-.07-.1-.21-.1a14.73,14.73,0,0,0-6.2,1.6,34.82,34.82,0,0,1-4.9,1.7c-.73.13-1.66.33-2.8.6a2.32,2.32,0,0,0-.5.4c-2.93.93-5.26,1.67-7,2.2a76.41,76.41,0,0,1-9.1,2.3,7.74,7.74,0,0,1-.95-.25,5.17,5.17,0,0,0-1.05-.25.57.57,0,0,0-.4.1.38.38,0,0,1-.3.1q-.39,0-3.75-2.85a19.88,19.88,0,0,0-4.2-3.1A1.24,1.24,0,0,1,453,92.6a3.33,3.33,0,0,1,.4-.95,3,3,0,0,0,.4-1,2.51,2.51,0,0,0-.8-1.5v-.5c0-.13.1-.2.3-.2a.69.69,0,0,0,.5-.2,72.68,72.68,0,0,1,1-8c0-.2.24-.43.7-.7a2,2,0,0,0,.1-.9v-.5a34.12,34.12,0,0,1,3.6-1.1c.14,0,.22,0,.25.1s.12.1.25.1a32.41,32.41,0,0,0,3.1-1,21.84,21.84,0,0,0,3.6-1,1.19,1.19,0,0,0,.65-1c.1-.53.19-1,.25-1.5a11.4,11.4,0,0,0,.5-3.8c0-.67,0-1.7.1-3.1s.1-2.43.1-3.1a3,3,0,0,0-.2-.8,3.3,3.3,0,0,1-.2-.9,1,1,0,0,0,.7-1.1,2,2,0,0,0-.5-1.6v-.6c.54-.13.8-.63.8-1.5,0-.2.24-1.77.7-4.7a12,12,0,0,1-.1-1.7,1.1,1.1,0,0,0,.3-.5c.07-.2.17-.58.3-1.15a5.73,5.73,0,0,0,.2-1.15,2.6,2.6,0,0,0-.1-.6v-.7a11.61,11.61,0,0,0-1.65.2c-.76.13-1.18.2-1.25.2a2.64,2.64,0,0,1-1.8-.85c-.6-.57-1.43-1.38-2.5-2.45a7.3,7.3,0,0,1-1.5-.6,73.41,73.41,0,0,0-6.3-4.9c.14-.33-.21-1.07-1.05-2.2a5.34,5.34,0,0,1-1.25-2.4c0-.33.27-.63.8-.9a2.15,2.15,0,0,1,1.1,1.2,2.14,2.14,0,0,0,.2-1.8c-.2-.87-.3-1.23-.3-1.1,0-.07.14-.22.4-.45s.4-.42.4-.55c.07-.4.1-2.27.1-5.6a3.94,3.94,0,0,1,.4-1.4,3.43,3.43,0,0,1,1.5-.6c.14,0,.22.1.25.3a.32.32,0,0,0,.35.3q-.19,0,.3-.3l2.8-.3c1.34-.53,3.4-1.27,6.2-2.2,1.4-.47,3.34-1,5.8-1.6a2.26,2.26,0,0,1,.7-.4q3.81-1,10.9-2.9l1.8-1a7.19,7.19,0,0,1,2.41-.9,4.14,4.14,0,0,1,.94.25c.5.17.89.28,1.15.35a5.27,5.27,0,0,0,.91,1.3c3.79,2.27,6,4.27,6.59,6q1.31,3.6,1.3,13.1,0,.6-1,1.5a11,11,0,0,1-1.34,1,25.53,25.53,0,0,1-3.21.65A3.74,3.74,0,0,0,491,38.65,10.31,10.31,0,0,0,490,42.7c-.06,1.4-.13,2.8-.2,4.2-.06.87-.09,2.1-.09,3.7v5.6a.86.86,0,0,1-.11.4,1,1,0,0,0-.1.4V67.8c.21.2.34.3.4.3a1.38,1.38,0,0,0,.45-.2,1.32,1.32,0,0,1,.55-.2c.6,0,1.57.73,2.9,2.2.74.8,1.49,1.57,2.25,2.3s1.85,1.83,3.25,3.3C499.7,80.83,499.89,84.23,499.89,85.7Z" transform="translate(-12.8 -11.4)" style="fill:#d9f0f9"/><path d="M555.59,25.4c0,.33-1,1.5-2.9,3.5a26.14,26.14,0,0,0-3.8,4.3,16.77,16.77,0,0,0-1.8,1.6c-.4,0-.76-.53-1.1-1.6-.2-.73-1.06-1.6-2.6-2.6a7.67,7.67,0,0,0-3.2-1.5A5.15,5.15,0,0,0,537,30.4a7.94,7.94,0,0,0-2.35,2.8,7.79,7.79,0,0,0-1,3.8,10.05,10.05,0,0,0,1.75,5.5l3.45,5.3c.2.67.54,1.57,1,2.7a43.3,43.3,0,0,1,5.1,6.2,12,12,0,0,1,1,1.2q1.71,2.4,4.3,6.7c.14.73.4,1.8.8,3.2a13.39,13.39,0,0,1,1,2,27.77,27.77,0,0,1,1.1,6.7q-.2,7.8-2.6,11.6-2.79,4.4-10.7,8.6c-.86.27-2.16.63-3.9,1.1-3.2,1-4.86,1.5-5,1.5q.71,0-4.3-.7c-.66-.13-1.43-.27-2.3-.4-.4-.13-1.93-.6-4.6-1.4a9.19,9.19,0,0,1-3.1-2,21.25,21.25,0,0,1-2.7-2.1q-2.29-2.1-5.5-5.6-4.8-5-4.8-6.6a8.56,8.56,0,0,1,2.1-1.55,20.07,20.07,0,0,0,2.6-1.85,8.34,8.34,0,0,0,.9-.4c.8-.8,1.57-1.6,2.3-2.4,1.6-1.53,2.6-2.3,3-2.3.6,0,2.14,1,4.6,2.9a5.9,5.9,0,0,1,2.4,1.9,3.57,3.57,0,0,0-.9.5q.9,1.1,3,3.3a.86.86,0,0,1,.1-.3,1.38,1.38,0,0,1,0-.7,22,22,0,0,0,4.6-4.5q2.4-3.7,2.4-5.7a5.5,5.5,0,0,0-1.5-3.9q-2.1-2.8-6.5-8l-4.6-3.7a8.62,8.62,0,0,0-1-2q-1.2-1.09-3.3-3.2a40.39,40.39,0,0,1-2.6-3.7,29.8,29.8,0,0,1-2.2-7.7,8.78,8.78,0,0,1-.3-.9,4.46,4.46,0,0,1-.2-1c0-.07.15-.6.45-1.6a15.87,15.87,0,0,0,.55-2.2,20.57,20.57,0,0,1,3.6-9.2,22.08,22.08,0,0,1,8.3-7.6,4.41,4.41,0,0,1,.5-.6q1.8-.6,5.1-1.8c.07,0,.25-.15.55-.45a1.23,1.23,0,0,1,.75-.45,1.6,1.6,0,0,1,.7.35,1.62,1.62,0,0,0,.8.35l4.1.3a14.18,14.18,0,0,1,2.8.7q1.41,1,4.3,2.7a19.55,19.55,0,0,1,3.1.6q3.6,2.7,10.9,7.9A1.31,1.31,0,0,1,555.59,25.4Z" transform="translate(-12.8 -11.4)" style="fill:#d9f0f9"/><path d="M609,21.8a7.44,7.44,0,0,1-.4,1.35,6.32,6.32,0,0,0-.4,1.55,44,44,0,0,0-.6,7.6c0,2.73,0,3.87.1,3.4-1.33.53-3.17,1.33-5.5,2.4l-1.4.3a10.41,10.41,0,0,0-3,2q-.4,4.31-.4,7.3v6.2c0,.13-.08,1-.25,2.45s-.25,2.32-.25,2.45a17.76,17.76,0,0,0,.4,3.9,14.94,14.94,0,0,1,.3,3.8,2.62,2.62,0,0,1-.4,1.3c.27-.07.4,0,.4.3,0,.07,0,.37-.1.9v1.8c-.13,1.07-.3,2.93-.5,5.6-.07,1.2-.1,1.93-.1,2.2a2.1,2.1,0,0,1,.3.6V90.5a12.38,12.38,0,0,1-1.8,1.3,4.8,4.8,0,0,1-1,1.5q-2.29,1.2-7.1,4.1l-2,2c-.87.87-1.43,1.3-1.7,1.3a.87.87,0,0,1-.7-.4,25.37,25.37,0,0,0-8.4-9.1c.13-2.13.37-5.33.7-9.6,0,.07-.17-.2-.5-.8a6.2,6.2,0,0,0,.6-2.5c.07-1,.13-2,.2-3a3.2,3.2,0,0,0-.2-1.4,2.75,2.75,0,0,1,.4-.7q.3-10.4.3-9.8a21.31,21.31,0,0,1,.15-4.3,13,13,0,0,0,.25-2.5,12,12,0,0,0-.4-2.5c-.27-1.13-.4-1.73-.4-1.8,0-.33,0-.83.1-1.5s.1-1.13.1-1.4,0-.2-.3-.2c.27,0-.47.47-2.2,1.4a8.33,8.33,0,0,1-4.8.7,22,22,0,0,0-3.8-4.1q-3.2-3-3.6-3.4a3.14,3.14,0,0,1-.8-1.7c-.2-2.07-.3-4.63-.3-7.7l.9-8.3a1.09,1.09,0,0,1,.7-.4,2.15,2.15,0,0,1,.85.5,2,2,0,0,0,.95.5,34.85,34.85,0,0,0,5.1-2,30,30,0,0,0,3.1-.8c1.13-.47,2.4-1.07,3.8-1.8a19.54,19.54,0,0,0,2.1-.7q3.4-1.61,9.2-3.8a6.6,6.6,0,0,1,1-1q7.5-3.8,9.3-3.8a.55.55,0,0,1,.4.1.4.4,0,0,0,.3.1,4.7,4.7,0,0,0,1.3-.8,2.45,2.45,0,0,1,1.4-.4,3.2,3.2,0,0,1,.65.1,3.2,3.2,0,0,0,.65.1,1.28,1.28,0,0,1,.1,1.1q1.4,2.1,2.9,4.3c1.47,2,2.33,3,2.6,3a1.19,1.19,0,0,0,.5-.15,1.18,1.18,0,0,1,.4-.15,5.39,5.39,0,0,1,.5.4C608.89,21.63,609,22.07,609,21.8Z" transform="translate(-12.8 -11.4)" style="fill:#d9f0f9"/><path d="M59.6,67.1a3.2,3.2,0,0,1-.5,1,2.67,2.67,0,0,0-.5,1.2,68.28,68.28,0,0,0-.4,7v1.6c0,.13.12.28.35.45s.35.32.35.45A2.78,2.78,0,0,1,57.5,81a3.69,3.69,0,0,0-1.35.6A18.4,18.4,0,0,0,54,83.4q-4.09,2.4-12.1,7.3-5.2,3.6-14.2,8.8l-2,1.2a10.76,10.76,0,0,1-2.3,1.1c-.53,0-.82-.38-.85-1.15a3.45,3.45,0,0,0-.25-1.45q-1.8-1.5-5.1-4.7Q14.61,91.8,14,91a5.41,5.41,0,0,1-.9-4.1A8.22,8.22,0,0,0,13,85.75a9.18,9.18,0,0,1-.15-1c0-.13.07-.92.2-2.35s.23-2.42.3-2.95-.05-1.17-.15-2.1S13,75.73,13,75.4c0-1,.07-2.7.2-5.1.13-2.2.2-3.93.2-5.2a2.4,2.4,0,0,1,.2-.7c-.07-1.2-.07-3,0-5.3.07-3,.1-4.2.1-3.6V50c0-.13,0-.52.1-1.15s.1-1.05.1-1.25c.13-1.67.27-4.07.4-7.2,0,.47-.1,0-.3-1.4a14.73,14.73,0,0,0,.2-2.7v-5c.33-3.27.5-5.33.5-6.2a35.18,35.18,0,0,1,.1-3.7c.07-.4.57-.93,1.5-1.6a18.17,18.17,0,0,0,1.9-1.3,29,29,0,0,1,4.6-3.4c1.33-.73,2.63-1.47,3.9-2.2a6.74,6.74,0,0,1,2.4-.8c.13.33.33.77.6,1.3a25,25,0,0,0,2.6,2.9,56.07,56.07,0,0,0,6,5.3v4.2A74.26,74.26,0,0,1,38,34c-.17.8-.25,1.13-.25,1a8.7,8.7,0,0,1,.5,2.9c-.2.67-.43,1.7-.7,3.1q-.2,4.3-.7,11.9a7.35,7.35,0,0,0,0,1.8c.13,1,.2,1.67.2,2,0,.67-.07,1.8-.2,3.4s-.2,2.83-.2,3.7h.8l4.4-2.3q.71-.2,1.8-.6l3.2-2.1a7.16,7.16,0,0,1,3.1-1.5,2.54,2.54,0,0,1,1.6.4,19.71,19.71,0,0,0,3,4.1l1.2,2c.8,1.33,1.43,2,1.9,2a.57.57,0,0,0,.4-.1.57.57,0,0,1,.4-.1c.27,0,.53.18.8.55A1.69,1.69,0,0,1,59.6,67.1ZM16,74.5a1.56,1.56,0,0,0-1-1.2,1.05,1.05,0,0,1-.1.35,1.05,1.05,0,0,0-.1.35A1.25,1.25,0,0,0,16,74.5ZM15.2,80c.2-.27.13-.57-.2-.9a2,2,0,0,0,.1.45A2,2,0,0,1,15.2,80Zm1-11a4.44,4.44,0,0,0-.8-1.3.83.83,0,0,0-.3.5C15.1,68.73,15.47,69,16.2,69Zm-.4-9.4a1.4,1.4,0,0,0-.2-1.6l-.3.5A4.06,4.06,0,0,0,15.8,59.6Zm1.3,6.6c-.67-1.4-1.2-2.1-1.6-2.1-.13,0-.2.1-.2.3a1.46,1.46,0,0,0,.5,1.2,3.41,3.41,0,0,1,1.1.8Zm-.7,6.2c-.27-.33-.63-.8-1.1-1.4v1a1.63,1.63,0,0,1,.6.2A1.87,1.87,0,0,0,16.4,72.4Zm2.1-33.7-1.1-1.5c-.47-.6-.87-.87-1.2-.8l-.4.2A1.75,1.75,0,0,0,16.7,38,3.87,3.87,0,0,0,18.5,38.7ZM16.2,90.1l-.2-.2-.2.1.3.3Zm1.2-63.4a2.62,2.62,0,0,0-.9-1.3c-.2.13-.3.27-.3.4S16.6,26.37,17.4,26.7Zm.4,50.4a1.94,1.94,0,0,0-1-1.4C17.07,76,17.4,76.5,17.8,77.1ZM17.5,87l-.2-.9H17l.2.9Zm6.3-48.7a28.92,28.92,0,0,0-6.5-6.6q2.1,2.4,6.2,7A.68.68,0,0,0,23.8,38.3ZM25.9,26c-1.4-1.53-3.2-3.57-5.4-6.1a1.06,1.06,0,0,0-.5-.1c-.53.53-.77.87-.7,1q5.29,5.9,5.7,5.9C25.27,26.7,25.57,26.47,25.9,26ZM22.3,96.3a6.23,6.23,0,0,1-.7-1.1h-.7A2.56,2.56,0,0,0,22.3,96.3ZM34.4,21.7c-.07-.07-.23-.1-.5-.1s-1.53-1.05-3.8-3.15a34.79,34.79,0,0,0-3.6-3.15c-.33,0-1.77.8-4.3,2.4a11.5,11.5,0,0,0,1.6,4c.47.4,1,.9,1.7,1.5a22.62,22.62,0,0,1,2.1,2.2,3,3,0,0,0,1.9-1.2q-.3-.9-3-3.5a21.46,21.46,0,0,1-2.7-2.8c0-.27,0-.37.1-.3h.5A55.66,55.66,0,0,1,30,22.1c.2.33.5.77.9,1.3C31.77,23,32.93,22.43,34.4,21.7ZM23.2,66.4a1.63,1.63,0,0,0-.6-1A.92.92,0,0,0,23.2,66.4ZM23.1,58c.33-.2.33-.43,0-.7Zm.4-7.6c.2-.13.17-.37-.1-.7-.13,0-.2.1-.2.3A.68.68,0,0,0,23.5,50.4ZM56.6,69.6a2.67,2.67,0,0,0-.3-1.5h-.7a3.17,3.17,0,0,0-1.5,1.6q-2.81,0-14.8,8.8c-1.73,1.2-2.87,1.8-3.4,1.8-.73,0-1.1-.3-1.1-.9a1.11,1.11,0,0,1,.25-.65,1.05,1.05,0,0,0,.25-.55q0-.49-.9-1.2V69.4c0-.13.07-.9.2-2.3s.2-2.17.2-2.3V60.1c0-.07.08-.6.25-1.6a6.66,6.66,0,0,0,.15-2L35,52.9a12.5,12.5,0,0,1,.2-1.8,12.59,12.59,0,0,0,.2-1.7c.13-2.73.37-6.07.7-10a18.32,18.32,0,0,0,0-2.8,12.45,12.45,0,0,1,.1-3.6,15.47,15.47,0,0,0,.4-3.4q0,.3-.6-6.2a24.37,24.37,0,0,0-3.5,1.2c-.87.67-2,1.53-3.5,2.6a14.6,14.6,0,0,0-3.4,2.2q0,3.5-.2,10.1c0,2.53,0,4.37-.1,5.5s-.1,1.53-.1,1.2a7.54,7.54,0,0,0,.2,1c.13.57.2.88.2,1V63.3c0-.27-.13,1.2-.4,4.4a61.65,61.65,0,0,0-.3,7.2,1.6,1.6,0,0,0,.25.75c.17.3.22.52.15.65a4.26,4.26,0,0,0-.5,1.3c0,.73,0,1.9-.1,3.5v7.8a6.41,6.41,0,0,1-.2,1,6.41,6.41,0,0,0-.2,1,2.1,2.1,0,0,0,.3.6,2.85,2.85,0,0,1,0,1.5,5.51,5.51,0,0,0-.1,1.9,11.46,11.46,0,0,1,1.1,1.5c0,.6-.43.9-1.3.9v1.1c0,.27.07.43.2.5h.6q1.8-.8,4.4-2,5.7-3.8,11.5-7.4a25.92,25.92,0,0,1,2.5-1.9q2.4-1.6,7.1-4.5a27.18,27.18,0,0,0,4.1-2.9,2.26,2.26,0,0,0,.9-.7Q56.61,70,56.6,69.6ZM39.1,76a6.53,6.53,0,0,0-1.35-2.6c-.63-.73-1.12-1.1-1.45-1.1-.07,0-.1,0-.1.1a10.31,10.31,0,0,0,.25,3q.25.6.75,1.5A9.77,9.77,0,0,0,39.1,76Zm8.8-5.8a1.73,1.73,0,0,0-.6-1.2c-3.87-3.47-5.73-5.2-5.6-5.2a3.6,3.6,0,0,0-1.6.7c-.73.47-1.13.73-1.2.8q1.8,2.4,4.7,7l-.3.3h-.5a16.78,16.78,0,0,1-2.7-3.2,13.7,13.7,0,0,0-2.7-3.1,3.5,3.5,0,0,0-1,2.6,4.81,4.81,0,0,0,.8,1.7c.87,1.07,1.93,2.5,3.2,4.3A11.62,11.62,0,0,0,43,73.6c.93-.53,1.83-1.07,2.7-1.6C47.17,71.07,47.9,70.47,47.9,70.2Zm6.7-4.4c0-.27-.82-1.42-2.45-3.45S49.53,59.3,49.2,59.3h-.5a6.69,6.69,0,0,1-2.6,1.8,7.23,7.23,0,0,0-2.9,2.2,9.16,9.16,0,0,0,3,3.2A8.12,8.12,0,0,1,49,69.2h.7l1.8-1.5a11.61,11.61,0,0,0-2.3-2.85,11.25,11.25,0,0,1-2.4-3.15c.13-.13.23-.17.3-.1l2.2,1.7c.33.33,1,1.1,2.1,2.3.87.93,1.4,1.4,1.6,1.4a2.7,2.7,0,0,0,.9-.4C54.37,66.33,54.6,66.07,54.6,65.8Z" transform="translate(-12.8 -11.4)" style="fill:#252a68"/><path d="M112.1,85.7c0,.73-.07,1.73-.2,3a2,2,0,0,1-1,1.4,8.47,8.47,0,0,1-3.4,1.4h-.1c0-.07-.07-.1-.2-.1A14.69,14.69,0,0,0,101,93a35.27,35.27,0,0,1-4.9,1.7c-.73.13-1.67.33-2.8.6a2.32,2.32,0,0,0-.5.4c-2.93.93-5.27,1.67-7,2.2a76.41,76.41,0,0,1-9.1,2.3,6.85,6.85,0,0,1-1-.25,5.49,5.49,0,0,0-1-.25.57.57,0,0,0-.4.1.4.4,0,0,1-.3.1q-.41,0-3.75-2.85a19.88,19.88,0,0,0-4.2-3.1,1.23,1.23,0,0,1-.85-1.35,3,3,0,0,1,.4-.95,3,3,0,0,0,.4-1,2.56,2.56,0,0,0-.8-1.5v-.5c0-.13.1-.2.3-.2a.69.69,0,0,0,.5-.2,72.68,72.68,0,0,1,1-8c0-.2.23-.43.7-.7a2,2,0,0,0,.1-.9v-.5a34.12,34.12,0,0,1,3.6-1.1c.13,0,.22,0,.25.1s.12.1.25.1,1.16-.33,3.1-1a22.1,22.1,0,0,0,3.6-1,1.21,1.21,0,0,0,.65-1c.1-.53.18-1,.25-1.5A11.67,11.67,0,0,0,80,69c0-.67,0-1.7.1-3.1s.1-2.43.1-3.1A3.49,3.49,0,0,0,80,62a3.3,3.3,0,0,1-.2-.9,1,1,0,0,0,.7-1.1,2,2,0,0,0-.5-1.6v-.6c.53-.13.8-.63.8-1.5,0-.2.23-1.77.7-4.7a10.63,10.63,0,0,1-.1-1.7,1.31,1.31,0,0,0,.3-.5c.07-.2.17-.58.3-1.15a6.6,6.6,0,0,0,.2-1.15,2.6,2.6,0,0,0-.1-.6v-.7a11.61,11.61,0,0,0-1.65.2c-.77.13-1.18.2-1.25.2a2.64,2.64,0,0,1-1.8-.85C76.8,44.78,76,44,74.9,42.9a6.89,6.89,0,0,1-1.5-.6,73.41,73.41,0,0,0-6.3-4.9c.13-.33-.22-1.07-1-2.2a5.34,5.34,0,0,1-1.25-2.4c0-.33.27-.63.8-.9a2.19,2.19,0,0,1,1.1,1.2,2.17,2.17,0,0,0,.2-1.8c-.2-.87-.3-1.23-.3-1.1,0-.07.13-.22.4-.45s.4-.42.4-.55c.07-.4.1-2.27.1-5.6a3.74,3.74,0,0,1,.4-1.4,3.35,3.35,0,0,1,1.5-.6c.13,0,.22.1.25.3a.32.32,0,0,0,.35.3q-.19,0,.3-.3l2.8-.3c1.33-.53,3.4-1.27,6.2-2.2q2.1-.7,5.8-1.6a2.15,2.15,0,0,1,.7-.4q3.8-1,10.9-2.9l1.8-1a7.24,7.24,0,0,1,2.4-.9,4.17,4.17,0,0,1,.95.25c.5.17.88.28,1.15.35a4.92,4.92,0,0,0,.9,1.3q5.7,3.41,6.6,6,1.31,3.6,1.3,13.1,0,.6-1,1.5a10.08,10.08,0,0,1-1.35,1,25.13,25.13,0,0,1-3.2.65,3.72,3.72,0,0,0-3,1.85,10,10,0,0,0-1,4.05c-.07,1.4-.14,2.8-.2,4.2-.07.87-.1,2.1-.1,3.7v5.6a.85.85,0,0,1-.1.4.85.85,0,0,0-.1.4V67.8c.2.2.33.3.4.3a1.47,1.47,0,0,0,.45-.2,1.27,1.27,0,0,1,.55-.2c.6,0,1.57.73,2.9,2.2.73.8,1.48,1.57,2.25,2.3s1.85,1.83,3.25,3.3Q112.1,83.5,112.1,85.7ZM78,84.5A9.08,9.08,0,0,0,75.9,82c-1-.9-1.77-1.32-2.3-1.25l-.7-1.4Q71.81,79,72,79c.06,0-.8.37-2.6,1.1a6.67,6.67,0,0,0,.9,1.3c1.33.87,3.37,2.27,6.1,4.2A4,4,0,0,1,78,84.5Zm1.7-55.1a15.56,15.56,0,0,0-2.15-3.6c-1.17-1.6-2-2.4-2.45-2.4q-.41,0-.9.6Q74.3,24.2,79.7,29.4Zm2.5,53.4a21.12,21.12,0,0,0-2.1-1.9,3.67,3.67,0,0,1-1.4-2,13.82,13.82,0,0,1-.7-1.4c-.07,0-1.2.23-3.4.7v.5a3.85,3.85,0,0,1,.2.8c.53.53,1.33,1.27,2.4,2.2a9.67,9.67,0,0,1,1.3,1.4c.4.53.73.8,1,.8a7.67,7.67,0,0,0,2.3-.6A2.32,2.32,0,0,1,82.2,82.8ZM77,35.8a3.45,3.45,0,0,0-.6-.8C76.4,35.73,76.6,36,77,35.8Zm11.1-9.4q-1.3-1.3-3.6-3.7c-.4-.6-.94-1.43-1.6-2.5a13.63,13.63,0,0,0-5.7,2.5q1.6,2.3,4,6.2a1,1,0,0,0,.7.2,4.49,4.49,0,0,0,2.2-.8Q80,22.6,80,22.5c0-.2,0-.3.1-.3,1.27,1.07,2.2,1.87,2.8,2.4A7.78,7.78,0,0,1,85,27.7h1.3A2.22,2.22,0,0,0,88.1,26.4Zm22.1,60.2v-7c0-.13-.17-1-.5-2.5h-2.5a1.83,1.83,0,0,0-.7.25,2.18,2.18,0,0,1-.6.25,12.23,12.23,0,0,0-3.1,1.2,12.53,12.53,0,0,0-1.6,1,3.43,3.43,0,0,1-1.6.6c-.47,0-.7-.27-.7-.8,0-.13.18-.4.55-.8s.55-.67.55-.8a1.32,1.32,0,0,0-.25-.6,1.32,1.32,0,0,1-.25-.6,12.31,12.31,0,0,1,.1-2.6c.13-1.13.2-1.93.2-2.4V67.1q0-.1.15-2.85c.1-1.83.18-3.18.25-4q-.11-3.9,0-10.8.1-2.9,1-9.9a24.65,24.65,0,0,1,.9-2.3c.13-.33,1.5-1,4.1-1.9s3.9-2.07,3.9-3.4c0-.13-.1-.82-.3-2s-.33-2.15-.4-2.75a15.64,15.64,0,0,0,.1-2.1,17.21,17.21,0,0,0-.9-3.7h-.9a7.1,7.1,0,0,0-1.55.7,11.14,11.14,0,0,1-1.45.7.57.57,0,0,1-.4-.1.4.4,0,0,0-.3-.1c-.53,0-2.44.77-5.7,2.3Q93,27.1,92.9,27.2q-9.51,2.51-13.8,5.6V44.2h.6a21.31,21.31,0,0,0,3.1-.9c.07-.4.18-.63.35-.7a1.67,1.67,0,0,1,.65-.1,2,2,0,0,1,.55.1,2,2,0,0,0,.55.1,22.26,22.26,0,0,0,2.25-.6c1.37-.4,2.35-.67,2.95-.8a1.16,1.16,0,0,1,.4.4v2.4c-.07,1.47-.1,3.17-.1,5.1l.3.4V80.3a6.06,6.06,0,0,1-.7,2.4,1.48,1.48,0,0,1-1.1,1q-7.2.6-11,2.8a13.2,13.2,0,0,1-.1,1.5,2.32,2.32,0,0,1-.4.5,19.12,19.12,0,0,1,.1,2.3v4.7a.87.87,0,0,1-.15.35.92.92,0,0,0-.15.45,5.62,5.62,0,0,0,.4,1.9h.9a23.75,23.75,0,0,0,6.3-1.6q6-1.91,6.2-2c.13-.1.43-.28.9-.55q2.2-.41,5.7-1.3l3.7-1.6a24.25,24.25,0,0,0,2.9-.5,31.84,31.84,0,0,0,5.1-1.7C109.9,88.63,110.2,87.87,110.2,86.6ZM86.4,81.8v-.6c-1.53-.8-3.77-2-6.7-3.6l-.8.2v.7c.87.8,1.7,1.6,2.5,2.4,1.27,1.07,2.16,1.6,2.7,1.6A5.41,5.41,0,0,0,86.4,81.8Zm-2.3-9.1a13.87,13.87,0,0,0-2-2,.82.82,0,0,1-.2.6A22.45,22.45,0,0,1,84.1,72.7ZM86,63.2a11.71,11.71,0,0,0-3.1-2.8A33.39,33.39,0,0,0,86,63.2Zm8.6-38.9q-1.91-2-5.2-5.7a1.24,1.24,0,0,0-.7-.3,8.69,8.69,0,0,0-2.6.4,11.28,11.28,0,0,1-2.3,1v.7q1.7,1.39,3.3,2.9a9.7,9.7,0,0,1,2.5,3A15.73,15.73,0,0,0,94.6,24.3ZM88.3,69.6A21.21,21.21,0,0,0,85,66.4c.6.73,1.5,1.8,2.7,3.2Zm-1-11-.2-.6-.2.1.2.5Zm1.4,1a1.28,1.28,0,0,0-.65-.6,2.1,2.1,0,0,0-.75-.3,2.18,2.18,0,0,0,1.1,1.4A1.31,1.31,0,0,0,88.7,59.6Zm-.4,19.6-1-.5v1a1.46,1.46,0,0,1,.4.1,1.46,1.46,0,0,0,.4.1A1,1,0,0,0,88.3,79.2Zm18.6-59.3v-.7q-4.8-4.5-6.5-4.5a5.56,5.56,0,0,0-2.2.8q-1,.6-2.1,1.2L100,21a.69.69,0,0,1-.2.5h-.6a15.29,15.29,0,0,1-4-4.7l-2.5.4a3.2,3.2,0,0,0-2,1,15,15,0,0,0,2.6,2.9,5.5,5.5,0,0,1,2,3.1Zm-3.5-.6q-.6,0-2-1.35T100.1,16a1.38,1.38,0,0,1,.5-.8c-.07.6.4,1.33,1.4,2.2S103.47,18.9,103.4,19.3Zm.2,56.5a13.17,13.17,0,0,0-2-2.7c-.27,2.53-.4,3.87-.4,4,.27-.13.68-.35,1.25-.65S103.4,75.93,103.6,75.8Zm4-1q-2-1.8-5.9-5v.6q0,.1,3,4.9a3.59,3.59,0,0,0,.9.1A3.86,3.86,0,0,0,107.6,74.8Z" transform="translate(-12.8 -11.4)" style="fill:#252a68"/><path d="M171.3,20.4a2.88,2.88,0,0,1-.2.6,2.11,2.11,0,0,0-.2.7c-.07.53-.19,1.4-.35,2.6s-.25,1.87-.25,2v5.8a3.3,3.3,0,0,1-.1.6,3.74,3.74,0,0,1-.2.6c.06,1.27.06,3.1,0,5.5a28.56,28.56,0,0,0,.25,3.2c.16,1.4.25,2.07.25,2l-1,27.7c-.07.87-.37,3.83-.9,8.9a1.75,1.75,0,0,1-.5,1l-.9,1.1c-.2.2-.5.47-.9.8a3.46,3.46,0,0,1-.6.2c-.6.33-1.47.83-2.6,1.5a4.37,4.37,0,0,0-1.1.2q-5.4,2.89-7.2,2.9c-.14,0-.35-.22-.65-.65s-.52-.65-.65-.65-.2,0-.2.1-.07.1-.2.1-.9-1.43-2.5-4.3c-1.94-3.47-3.3-5.8-4.1-7-.07-.47-.2-1.2-.4-2.2q-1.2-4.31-2.3-7.9c-.47,0-.7.57-.7,1.7a24.87,24.87,0,0,1-.3,5.7v7.6l-1.2,10.7c0,.07,0,.37.1.9a3.64,3.64,0,0,0,.25,1.1,3.68,3.68,0,0,0,.85.9q-.41.7-.75,1.35a1.22,1.22,0,0,1-1.15.65,1.52,1.52,0,0,1-.5-.1h-.6a11.13,11.13,0,0,0-2,1.1c-1.54.87-2.49,1.38-2.85,1.55a10.56,10.56,0,0,1-1.15.45,28.7,28.7,0,0,0-4.5,3,1.9,1.9,0,0,1-1.2.5,1.8,1.8,0,0,1-1.8-1.3,27.07,27.07,0,0,0-7.2-9.3,3.37,3.37,0,0,0,1.1-2.3,3.27,3.27,0,0,1-.1-1.3c.27-1.07.4-1.4.4-1V69.6a9.55,9.55,0,0,1,.2-1.15,9.55,9.55,0,0,0,.2-1.15V48.2a63.52,63.52,0,0,0-.3-6.8,15.4,15.4,0,0,0-.4-3,4.25,4.25,0,0,1,.15-.8,4.25,4.25,0,0,0,.15-.8c0-.53.07-2,.2-4.5.06-.33.15-1,.25-1.9s.15-1.6.15-2a7.83,7.83,0,0,0-.15-1,2.5,2.5,0,0,1,0-1.1,3.18,3.18,0,0,1,.7-1.4h.5l.5.5a3,3,0,0,1,.45-.8,4.3,4.3,0,0,1,1.75-1.1q7.39-3.11,8.6-3.1a11.25,11.25,0,0,1,1.4.7,3.53,3.53,0,0,1,1,.5q.8,1.3,2.7,4a27.68,27.68,0,0,1,1.5,2.6,1.71,1.71,0,0,0,1.3.85,2.47,2.47,0,0,1,1.1.35c.8,1.33,2,3.47,3.7,6.4a25.79,25.79,0,0,0,3.5,5.5l.1-14.2q-.4-6.71-.4-7.5c0-1.4,0-1.93.1-1.6a.27.27,0,0,1-.3-.3v-1l10.7-4.3a6.05,6.05,0,0,0,2.7.7,5.82,5.82,0,0,0,1.5,1.7,2.6,2.6,0,0,1,.6.1,17,17,0,0,0,2.8,3,18.33,18.33,0,0,0,2.5.7A1.73,1.73,0,0,1,171.3,20.4ZM121.5,91.8l-.6-.3v.2l.5.3Zm.4.4-.3-.2-.1.2.2.2Zm1.1-56a3,3,0,0,0-1-1.1v1.5a1.32,1.32,0,0,0,.55-.2A1.38,1.38,0,0,1,123,36.2Zm-.1,7.2c.06-.2-.1-.63-.5-1.3a.55.55,0,0,0-.2.4C122.2,42.3,122.43,42.6,122.9,43.4Zm.7,36v-.6a17.36,17.36,0,0,1-1.2-1.4,1,1,0,0,0-.2.6C122.2,78.6,122.66,79.07,123.6,79.4Zm-.9-28.8-.2-.1-.2.4.2.1Zm.6,18.6a2.76,2.76,0,0,0-.8-1.3,1.06,1.06,0,0,1-.2.4Zm-.6,4.7h-.2l-.2.4.2.1Zm0,7.7-.2-.1-.2.4.2.1Zm.2-16.7v-.3a.69.69,0,0,1-.1-.3c-.2,0-.3.17-.3.5A.88.88,0,0,1,122.9,64.9Zm.1,19.8v-.4a.88.88,0,0,1-.4.1c0,.13.16.37.5.7A2,2,0,0,0,123,84.7Zm4,8.2q-.9-1.2-2.9-3.4a12.84,12.84,0,0,0,2.7,3.8A.92.92,0,0,1,127,92.9Zm1.5-64v-.5a35.27,35.27,0,0,0-2-3.2,1.86,1.86,0,0,0-1.7,1.3Q125,26.61,128.5,28.9Zm.6,45.8a13.37,13.37,0,0,0-1.7-2.4A15.72,15.72,0,0,0,129.1,74.7Zm-.6,25.6a3.33,3.33,0,0,0-1.1-1v.6l.7.7A2.21,2.21,0,0,1,128.5,100.3Zm0-4.6a.78.78,0,0,0-.3-.7c-.27.07-.4.2-.4.4a.93.93,0,0,0,.2.5A1,1,0,0,0,128.5,95.7Zm7.6-63.6c-1.14-1.4-2.7-3.4-4.7-6a4,4,0,0,1-.6-1.3c-.27-1-.64-1.57-1.1-1.7-.34.27-.84.7-1.5,1.3a29.41,29.41,0,0,0,1.1,3.1q.49.8,2.1,3c1.26,1.67,2.06,2.5,2.4,2.5C133.26,33,134,32.7,136.1,32.1ZM130,52.8a.77.77,0,0,0-.3-.8A.9.9,0,0,0,130,52.8Zm.4-2.9c.06-.33-.14-.5-.6-.5C129.93,49.73,130.13,49.9,130.4,49.9Zm38.1-29.4q-1.91.49-5.6,1.7c-.27.33-.7.8-1.3,1.4a6.17,6.17,0,0,0-1.4.9c-.07.2-.2,1.2-.4,3a7.47,7.47,0,0,0-.1,2.7v1.1c-.27,2.6-.4,3.83-.4,3.7a15.9,15.9,0,0,0,.1,1.6V38c0,.47-.14,1.73-.4,3.8,0,.07,0,.75.1,2.05s.1,2.18.1,2.65c-.07,1-.19,2.72-.35,5.15s-.25,3.68-.25,3.75.2,1.63.6,4.5a7.37,7.37,0,0,0,.35,1.75c.23.83.35,1.28.35,1.35-.27,1.07-.6,1.6-1,1.6s-.87-.67-1.2-2c-.27-.93-.54-1.87-.8-2.8a33.65,33.65,0,0,0-1.4-3.7q-1.5-2.9-4.1-8c-.94-1.67-2.2-3.93-3.8-6.8a3,3,0,0,1-.9-.8q-1.3-2.4-2.6-4.9-2.1-3.9-2.7-3.9a5.8,5.8,0,0,0-2.6,1c-.74.47-1.5.93-2.3,1.4a2.66,2.66,0,0,1-.4.3c-.6.33-1.8.87-3.6,1.6v4.7q-.1,5.89-.2,8.4-1.5,21.49-1.5,19.3a45.52,45.52,0,0,0,.3,5.4.69.69,0,0,0,.25.45.74.74,0,0,1,.25.45,1.2,1.2,0,0,1-.35.6,1.13,1.13,0,0,0-.35.6v4.4a2.4,2.4,0,0,0,.5.9,2.58,2.58,0,0,1,.5.9q0,.5-.9.9a3,3,0,0,1-.2.75,2.57,2.57,0,0,0-.2.75v4a6.85,6.85,0,0,1-.15,1,6.32,6.32,0,0,0-.15,1c.2,1.33.33,1.87.4,1.6a2.32,2.32,0,0,1-.4.5q0,2.4-.2,6.6a40.54,40.54,0,0,0,7.6-3.9,10.13,10.13,0,0,0,2.6-1.7,4.8,4.8,0,0,1-.3-1.3q.5-3.8,1.2-11.5V77q.09-2.81.5-8.2c.06-.53.1-1.73.1-3.6V60.6c0,.2-.07-.93-.2-3.4-.07-2.27-.1-4-.1-5.1.06-1.47.4-2.2,1-2.2a.72.72,0,0,1,.7.4,12.18,12.18,0,0,0,.25,2.15c.16.9.48,2.18,1,3.85.73,1.67,1.66,3.93,2.8,6.8a10.27,10.27,0,0,0,.1,1.3,13,13,0,0,1,1.1,2q1.59,5.2,4.9,15.5a3.56,3.56,0,0,1,.6,1.2c.13.47.26,1.07.4,1.8.53.87,1,1.3,1.5,1.3q1.5,0,10.9-4.7,0-1.8,1-12.2l.5-15.5c0-3.13.06-5.43.2-6.9Zm-29.3,9.3Q134,22,133.8,22a6,6,0,0,0-1.1.25,8.51,8.51,0,0,0-1.1.35,2.1,2.1,0,0,0-.5.4c0,.67.8,1.93,2.4,3.8l1.4,1.8c1.4,1.73,2.3,2.6,2.7,2.6C138.66,30.73,139.2,30.27,139.2,29.8Zm4.7,31.7v-.9h-.2v.9Zm8.2-19.4a2.86,2.86,0,0,0-.3-1.3c-.14,0-.17.2-.1.6A2,2,0,0,0,152.1,42.1Zm0-13.7V26.7h-.3v1.7Zm.8,9.1a1.53,1.53,0,0,0-1-1.1A3.21,3.21,0,0,0,152.9,37.5ZM159,22.6c-3.8-3.47-5.74-5.2-5.8-5.2h-.7l-.2.6q.9.6,3.7,2.9a16.88,16.88,0,0,0,2.6,1.9A.41.41,0,0,0,159,22.6Zm2.2-1.5c-.27-.27-1.14-1.37-2.6-3.3-1.27-1.53-2-2.3-2.2-2.3-1.27.4-2,.93-2.1,1.6q1.59,1.2,3.3,2.4c1.26,1.07,1.93,2,2,2.8h.6C160.93,21.63,161.26,21.23,161.2,21.1Zm-4.3,27.2a40.79,40.79,0,0,0-2.6-4.4,47.86,47.86,0,0,0,2.3,4.6C156.66,48.57,156.76,48.5,156.9,48.3Zm9-29.4-1.8-1.8c-.8-.87-1.37-1.27-1.7-1.2a15.33,15.33,0,0,1,2.6,2.9.73.73,0,0,1-.4.7q-1.8-.7-3.8-4.3a1,1,0,0,0-1-.7h-1.4a.55.55,0,0,0-.2.4,22.44,22.44,0,0,0,1.4,2.2q1,1.5,1.65,2.4a1.88,1.88,0,0,0,1.55.9,9.21,9.21,0,0,0,2.9-.9C165.83,19.43,165.9,19.23,165.9,18.9Z" transform="translate(-12.8 -11.4)" style="fill:#252a68"/><path d="M227.1,20q0,1.39-1.8,5.1l-9.4,17.6a5.62,5.62,0,0,1-.2,1.2,77.89,77.89,0,0,0-5.1,12.3c-.54,1.6-.8,2.27-.8,2,0,.2.23.52.7.95s.8.65,1,.65.33-.17.6-.5a1.77,1.77,0,0,1,.7-.6l.4.4c-.94.87-1.4,1.53-1.4,2q0-.3,3.1,3.9c1.4,1.6,3.16,3.7,5.3,6.3a5.84,5.84,0,0,1,1.2,1.1q5.4,8.7,5.4,9.1a1.5,1.5,0,0,1-.6,1.2c-.6-.13-1.3-.8-2.1-2-.54-1-1.1-2-1.7-2.9l-2.8-4.3q-1.6-1.8-4.5-5-1.6-2.1-5.9-7.1c-1.4-1.53-2.1-2.7-2.1-3.5a12,12,0,0,1,1.05-2l1.45-2.55q1.89-4.69,6.2-14l9.3-18.7a.57.57,0,0,0-.4-.1c.53,0-.27.37-2.4,1.1l-4.4,1.6a8.88,8.88,0,0,0-3.7,2.5c-.54,1.2-1.4,3.07-2.6,5.6a108.31,108.31,0,0,0-5.4,13.5,32.12,32.12,0,0,1-2.8,6.3,7.57,7.57,0,0,0-1.2,1.3,3.18,3.18,0,0,0-.3.9l.2.9a1.47,1.47,0,0,1-1,.5c-.67,0-1-.3-1.1-.9,0-.07.06-1,.2-2.7-.07-.73-.1-1.83-.1-3.3a2.33,2.33,0,0,1,.2-.6,1.27,1.27,0,0,0,.1-.8q-.41-4.9-.5-4.2c.13-1.93.2-3.23.2-3.9a9.56,9.56,0,0,0,.1-1.3,5.62,5.62,0,0,0,0-2.1q-.21-1.2-.9-1.2a8.81,8.81,0,0,0-3.1,1.5,9.34,9.34,0,0,1-1.6,1.4,28.19,28.19,0,0,1-3.7,1.6,2.2,2.2,0,0,1,.4,1.2,5.73,5.73,0,0,1-.3,2l-.4,1.4v4.1c0,.6-.07,2.17-.2,4.7q.49,8,.6,10.1.09,6.19-.1,14a3.34,3.34,0,0,1-.15.6,2.91,2.91,0,0,0-.15.7V88.9c0,1.93.26,3.23.8,3.9a1.29,1.29,0,0,1-.25.45,1.05,1.05,0,0,0-.25.55c.26,2.53.4,4.13.4,4.8l.2.2a21.06,21.06,0,0,0,5.3-1.3c.6-.4,1.46-1,2.6-1.7.06-.67.1-2.17.1-4.5a11.11,11.11,0,0,1,.2-1.7c.13-.8.2-1.23.2-1.3V79.9a22.88,22.88,0,0,0,.2-3.7,41,41,0,0,1,.3-5.7,19,19,0,0,0,.1-1.9c.2-1,.53-1.5,1-1.5s1.66,1.3,3.6,3.9a55.36,55.36,0,0,1,3.5,5.3c.53.67,1.36,1.7,2.5,3.1q.79,1.6,2.5,4.6c.53.6,1.26,1.53,2.2,2.8a16.88,16.88,0,0,1,2-.4,8.67,8.67,0,0,1,1.25-.6l2.35-.9,1.5-1.1a4.79,4.79,0,0,1,1.8-1.1,2.07,2.07,0,0,1,.55.1,1.85,1.85,0,0,1,.4.15.48.48,0,0,0,.15.1c.06,0,.1.15.1.35,0,.6-.5,1-1.5,1.1a6.81,6.81,0,0,1-2.1,1.9q-4.91,2.4-6.7,2.4c-.47,0-1.47-.73-3-2.2-.87-.87-1.74-1.7-2.6-2.5a17.82,17.82,0,0,1-2.1-1.3c-2.87-2.47-4.54-4.23-5-5.3a3.38,3.38,0,0,0-.9-1.2,1.1,1.1,0,0,0-.2.5c-.07.27-.15.75-.25,1.45a12.19,12.19,0,0,0-.15,1.45,11.06,11.06,0,0,0,.1,1.25c.06.57.1.92.1,1v4.8a13.42,13.42,0,0,1-.25,1.35,10.81,10.81,0,0,0-.25,1.35v4.8a5.51,5.51,0,0,1-.4,2.6c-.47.8-1.64,1.57-3.5,2.3l-5.6,3.1a3.16,3.16,0,0,1-1.3.2.93.93,0,0,1-.6-.8v-1l-1.3-.6c-.34-.27-1.8-1.53-4.4-3.8q-1.6-1-4.1-2.8c-.27-.27-.4-1.8-.4-4.6a2.44,2.44,0,0,1-.3-.8L180.4,73l.6-16.1-1.5-15.1a23.34,23.34,0,0,1,.3-4.3c.06-.33.06-2.07,0-5.2-.07-2.13.36-3.6,1.3-4.4q.19-.2,4.4-2.1a14.34,14.34,0,0,1,1.2-.8q6.2-2.7,7.5-2.7a3.92,3.92,0,0,1,1.05.4,7.48,7.48,0,0,0,1.25.5,30.11,30.11,0,0,0,4.7,4.9c.2,0,.36-.13.5-.4q1.29-2.81,4.5-9.5a6.2,6.2,0,0,1,.1-1.9c.4-.2,1-.47,1.7-.8a66.79,66.79,0,0,1,10-3.8l9.1,5.2ZM183.4,90.6a5.42,5.42,0,0,0-1.3-1.8l-.2,1A10.65,10.65,0,0,0,183.4,90.6Zm-.1-6.6a7.72,7.72,0,0,0-1.2-1.3v.9A1.77,1.77,0,0,0,183.3,84Zm.3-43.4a2,2,0,0,0-1.1-.9l-.2.6C183,40.7,183.4,40.8,183.6,40.6Zm-.3,38.2a2.6,2.6,0,0,0-1-.9C182.3,78.5,182.63,78.8,183.3,78.8Zm-.6,2.3v-.8h-.3v.8Zm.9-35.9a7.87,7.87,0,0,0-1.1-1.5v.8A1.84,1.84,0,0,0,183.6,45.2Zm.3,5.7a4.29,4.29,0,0,0-.9-1.2.65.65,0,0,0-.2.5C182.8,50.53,183.16,50.77,183.9,50.9Zm-.7,22.8v-.3a.69.69,0,0,1-.1-.3C182.76,73.1,182.8,73.3,183.2,73.7Zm16.7-42.3c-.14-.2-.34-.53-.6-1a1.53,1.53,0,0,1-.3,1.1,1.65,1.65,0,0,1-.7-.5q-.9-1.2-3-3.9a33.45,33.45,0,0,1-2.4-2.8c-1.4.2-2.1.57-2.1,1.1s.8,1.67,2.4,3.6q.8.6,2.1,1.8a1.46,1.46,0,0,1,.2.8c.06.27-.14.5-.6.7q-4.31-4.2-5-6.9h-.6c-.6.27-1.64.8-3.1,1.6-.54.2-1.1.4-1.7.6-1.07.53-1.6,1-1.6,1.3a1.27,1.27,0,0,0,.75,1.05c.5.3,1.25.82,2.25,1.55a3.34,3.34,0,0,0,.7.9,18.73,18.73,0,0,0,4.1,2.9v-.5q-1.9-2.8-4.1-5.8a6.73,6.73,0,0,1-.9-.8l.2-.3,1.5.3c-.07.47.2.93.8,1.4a14.11,14.11,0,0,1,1.5,1.5c.46.8,1.16,1.93,2.1,3.4a1.57,1.57,0,0,0,1.3.5q1.1,0,4.7-1.9C198.33,32.63,199,32.07,199.9,31.4Zm-11,56.2A17,17,0,0,0,186,85C186.13,85.4,187.1,86.27,188.9,87.6Zm-.2-4.6v-.7a15.22,15.22,0,0,0-2-1.6A30.32,30.32,0,0,0,188.7,83Zm-.4-55h-.7v-.3h.7Zm.6,41.9c0-.13-.24-.2-.7-.2l.6.6A1.46,1.46,0,0,1,188.9,69.9Zm-.1,8v-.8a3.33,3.33,0,0,0-.6-.2A1.63,1.63,0,0,0,188.8,77.9Zm.6,17a1.16,1.16,0,0,0-.8-.4C188.86,94.83,189.13,95,189.4,94.9Zm-.3-35.1-.2-.5-.2.1.2.4Zm6.4-34.4a4.66,4.66,0,0,0-.7-1.1h-.6C194.13,24.63,194.56,25,195.5,25.4ZM204.7,44c0-.33-.84-1.5-2.5-3.5a2.45,2.45,0,0,0-.4,1.4c0,1,.7,2.27,2.1,3.8A13.46,13.46,0,0,1,204.7,44Zm2-6.1c0-.93-1.2-2.87-3.6-5.8l-.75.35a.62.62,0,0,0-.35.65c0-.53.06.13.2,2,.86,1.07,2.2,2.6,4,4.6C206.53,38.23,206.7,37.63,206.7,37.9Zm-.7,2.2c-.6,0-1.32-.63-2.15-1.9s-1.45-1.93-1.85-2v2.4q0,1.8,3.1,4A16.21,16.21,0,0,0,206,40.1Zm-2.2,6.3v-.7a2.54,2.54,0,0,1-1.8-1.3v2.8a1.44,1.44,0,0,0,1.15-.1C203.58,46.9,203.8,46.67,203.8,46.4Zm4.3-11.8c0-.93-1.47-2.77-4.4-5.5-.27.73-.4,1-.4.9a2.67,2.67,0,0,0,.3,1.5,52.89,52.89,0,0,1,3.2,4.6l.7.2A10.44,10.44,0,0,0,208.1,34.6Zm1.3-2.9a7.45,7.45,0,0,0-1.3-2.25,17.9,17.9,0,0,1-1.3-1.95,8.56,8.56,0,0,0-1.7-2,3.66,3.66,0,0,0-.9,2,2.57,2.57,0,0,0,.2.75,3,3,0,0,1,.2.75,40.57,40.57,0,0,1,4.1,4.3A3.73,3.73,0,0,0,209.4,31.7Zm2.8-6.6c0-.8-.84-2.27-2.5-4.4a7.69,7.69,0,0,0-1.7-1.4c-1.74,2.67-2.6,4.47-2.6,5.4q1.09.6,4.3,5.3h.4a3.2,3.2,0,0,0,.7-1.6c0-.4-.67-1.43-2-3.1-.67-.87-1.37-1.73-2.1-2.6.06-.07.23-.1.5-.1q1.4,0,3.3,3.7c.2.13.43.3.7.5C211.86,25.53,212.2,25,212.2,25.1ZM207,79.6q-.3-.9-.9-.9A4.42,4.42,0,0,0,207,79.6Zm10.4-58.2-2.8-1.8a6.66,6.66,0,0,1-2.8-3.6h-.6a10.7,10.7,0,0,1-2.1,1.2,5,5,0,0,0,.8,1,24.77,24.77,0,0,1,2.6,1.3,26.2,26.2,0,0,1,2.5,2.1,5.26,5.26,0,0,0,.3.9C215.76,22.23,216.46,21.87,217.4,21.4Zm3.3-1.6q-5.5-5.21-6-5.2a3.67,3.67,0,0,0-.95.3l-1.05.4v1c0,.13.35.52,1.05,1.15A10.35,10.35,0,0,1,215,18.7l1.7.9a2.4,2.4,0,0,1,1.4,1.4h.8A2.24,2.24,0,0,0,220.7,19.8Zm3.8-1.8a13.67,13.67,0,0,1-4-2,16.08,16.08,0,0,1-1.6-1.5c-.54-.6-1-.9-1.4-.9-1.2,0-1.8.37-1.8,1.1,0,.13.13.3.4.5a42.13,42.13,0,0,1,6.3,4.5l1.5-.85C224.43,18.55,224.63,18.27,224.5,18Z" transform="translate(-12.8 -11.4)" style="fill:#252a68"/><path d="M282.3,84.7c-.2.27-.5.63-.9,1.1q-2.91,1.9-8.9,5.2a14.56,14.56,0,0,0-2.3.5,69.12,69.12,0,0,1-6.3,3.3,41.88,41.88,0,0,1-4,2.2,8,8,0,0,0-1.2.1c-2.14,1.07-4.24,2.13-6.3,3.2q-4,2-5.9,1.8l-1.9-1.6c-.34-.4-.77-1-1.3-1.7l-3.1-2.5q-1.41-1.5-4.6-4.3a5,5,0,0,1-1.7-1.2,11.35,11.35,0,0,1-.6-3.8l.7-21.9c-.2-.4-.44-.93-.7-1.6A1.05,1.05,0,0,1,234,63a.69.69,0,0,0,.45-.75c0-.4-.34-.9-1-1.5-.4-.47-.84-.93-1.3-1.4v-.6c.2-.2,1-.2,2.5,0a8.33,8.33,0,0,0,.3-2.2,6.91,6.91,0,0,0-.9-2.8,1.52,1.52,0,0,0,1-1.2q.3-4.2,1.4-13.5c0-1,0-2.47.1-4.4.26-1,.6-2.5,1-4.5a42,42,0,0,0-.1-5,6,6,0,0,1,1.2.1h.6a7,7,0,0,1,1.5-.4q1.7-.4,5.1-1.5a24,24,0,0,1,2.1-1.3c.6-.2,1.46-.47,2.6-.8.06,0,.2-.12.4-.35s.36-.35.5-.35a.41.41,0,0,1,.4.2.31.31,0,0,0,.3.2q-.6,0,4.6-2.4,7.29-3.4,11.5-4a3.65,3.65,0,0,0,.9-.25,3.34,3.34,0,0,1,1-.25,1.47,1.47,0,0,1,1,.7c.36.47.58.7.65.7,1.13,1.07,2.9,2.53,5.3,4.4a13.29,13.29,0,0,0,3.6.7c-.07.93-.1,2-.1,3.1.46,4.8.7,7.77.7,8.9s-.94,2.13-2.8,3l-3,1q-2,.9-7.2,3.7a43.94,43.94,0,0,0-4.9,1.6A17.79,17.79,0,0,0,260,44a3.49,3.49,0,0,0-.55,2.3c0,.53.2.8.6.8a13.34,13.34,0,0,0,3.65-1.45,11.38,11.38,0,0,1,4.55-1.45,6.39,6.39,0,0,1,2.9,1.4,17.37,17.37,0,0,0,1.6,2.3c.33.27,1.36,1,3.1,2.3.13.47.3,1.17.5,2.1q.6,5.7.6,7.5a3.78,3.78,0,0,1-.6,2.3l-1.8,1.6a12.24,12.24,0,0,1,1.1,1,5.82,5.82,0,0,0,.5,1.2,34.37,34.37,0,0,0,4.8,4.4c.2.53.5,1.3.9,2.3a15.76,15.76,0,0,1,.5,4.5Zm-46.2-2.8c-.27-.27-.5-.27-.7,0Zm.2-3.7v-.3h-.7v.3Zm1.1-3.2-.7-.3V75l.6.2Zm.4-24.3v-.3c-.07-.27-.4-.53-1-.8A1.52,1.52,0,0,0,237.8,50.7Zm1,25.2-1.2-.8-.1.2,1.1.8Zm-.7-33.2-.2-.5-.3.1.2.4Zm6.4,29.4q-.41-.9-4.6-4.6c-.34-.13-.84-.37-1.5-.7A75.89,75.89,0,0,0,244.5,72.1Zm-5,4.5-.6-.6-.2.2.6.6Zm-.4-42a.4.4,0,0,1-.2-.4c-.14,0-.14.07,0,.2S239,34.6,239.1,34.6Zm.9,42.3-.5-.2-.1.2.5.2Zm27.1-50q-2.1-1.7-4.1-3.5a15.55,15.55,0,0,1-3.3-3.7.87.87,0,0,0-.7-.4,4,4,0,0,0-2,.9q0,1.2,3,3.9c1.73,1.53,2.6,2.4,2.6,2.6s-.07.37-.2.3a39.92,39.92,0,0,1-3.4-2.15,11.69,11.69,0,0,1-1.9-2.25c-.8-1.13-1.27-1.7-1.4-1.7a4.75,4.75,0,0,0-1.2.5c-.67.33-1.1.53-1.3.6s-.3.27-.3.6c.53.6,1.26,1.4,2.2,2.4a15.56,15.56,0,0,1,1.8,1.3,5.82,5.82,0,0,1,1.5,2.7c0,.13-.14.27-.4.4a24.2,24.2,0,0,0-2-2.7l-4.3-3.9c-.2,0-.77.07-1.7.2a1.32,1.32,0,0,0-1.1.8l4.6,5.8a10.93,10.93,0,0,1,1,1.4.62.62,0,0,1-.1.4v.2a1.5,1.5,0,0,1-1.1-.9,32,32,0,0,0-4.2-5.6A7.55,7.55,0,0,0,248,24a6.13,6.13,0,0,0-2.6,1.1v.8l4.4,5.5a1,1,0,0,1-.2.5h-.4q-4.3-6.1-5.4-6.1a3.81,3.81,0,0,0-3.1,1.1,31.34,31.34,0,0,0,3.8,2.9,15.74,15.74,0,0,1,3.6,3.8,5.21,5.21,0,0,0,1.1,1.4,18.22,18.22,0,0,1,4.4-1.8,36.78,36.78,0,0,0,4-1.4ZM243.4,65.2a11.36,11.36,0,0,0-2.4-2.3A26.71,26.71,0,0,0,243.4,65.2Zm1.5,1.3a9.92,9.92,0,0,0-1.4-1.1c.26.33.56.77.9,1.3A2,2,0,0,0,244.9,66.5Zm1.2,15.8a4.62,4.62,0,0,1-.2-1.5,1.87,1.87,0,0,1-1.2.4A4.88,4.88,0,0,0,246.1,82.3Zm-.5,13.3v-.8h-.3v.8Zm.4-36.9a.35.35,0,0,0-.4.4,1,1,0,0,0,.2.6C246.33,59.43,246.4,59.1,246,58.7Zm1.1-19.6h-1a2.1,2.1,0,0,0,.8,1,2,2,0,0,1,.1-.55A2.75,2.75,0,0,0,247.1,39.1Zm-.7,24.3c0-.33-.07-.5-.2-.5s-.07.07,0,.2S246.33,63.4,246.4,63.4Zm1-26-.6-.6-.2.1.6.6ZM247,45v-.6h-.3V45Zm32.5-12.9a70.77,70.77,0,0,0-.7-8.8h-.6q-1.11.4-9.3,4.6a8.74,8.74,0,0,1-1,.8c-1.34.53-3.2,1.4-5.6,2.6-.74.47-1.67,1-2.8,1.6q-3.11,1-7.7,2.7a5.37,5.37,0,0,0-3,3.5v4.4c-.07.67,0,2.93.2,6.8a4.14,4.14,0,0,1-.1.65c-.07.3-.15.78-.25,1.45s-.15,1.07-.15,1.2a1.37,1.37,0,0,0,.6,1,4.59,4.59,0,0,0-.5.6c0,1.6,0,3.73-.1,6.4-.14,1-.24,1.93-.3,2.8,0,.4-.09,1.22-.25,2.45s-.25,1.88-.25,2a27,27,0,0,0,.2,3.1,1.05,1.05,0,0,0,.25.55,1.14,1.14,0,0,1,.25.55q0,.19-.3.45t-.3.45v5c0,1.33,0,1.87.1,1.6-.27,2.67-.4,3.67-.4,3V96.6c0-.07.2,1,.6,3.2h.6c.66-.2,1.53-.5,2.6-.9l5.8-2.9c.93-.27,2.2-.7,3.8-1.3.4-.27.86-.57,1.4-.9,1.2-.47,3-1.27,5.3-2.4a14.83,14.83,0,0,1,2.1-1.5q.49-.11,8.2-4a3.3,3.3,0,0,0,1.2-1.2c.06-1.53.16-3.17.3-4.9l.1-2.3v-3h-.6a9.86,9.86,0,0,1-.7,1.3c-.67-.2-.94-.3-.8-.3a27.21,27.21,0,0,1-3.4,2.1q-2.21.9-6.1,2.7a50.16,50.16,0,0,1-6.2,2.8c-.14.13-.37.33-.7.6a20.25,20.25,0,0,1-2.5.6c-.8,0-1.2-.33-1.2-1q0-.19,1.05-1t1-1a31.67,31.67,0,0,1-1.7-2.7l-.2,2.5a.52.52,0,0,1,.1.5c-.87.47-1.2.7-1,.7-.2,0-.5-.23-.9-.7V73.9c.53-.53.8-.9.8-1.1v-1a10,10,0,0,1,2.9-2.9,112.74,112.74,0,0,1,14.5-7.3c.86-.33,1.3-1.33,1.3-3,0-.13-.12-.93-.35-2.4s-.39-2.5-.45-3.1c-.27-.07-.94.33-2,1.2-2,.8-4.74,1.93-8.2,3.4L258.4,61c-.47-.2-.7-1.07-.7-2.6V56.7a1.15,1.15,0,0,1,.2-.55,1.27,1.27,0,0,0,.2-.55,31.2,31.2,0,0,0-.2-4.9,1,1,0,0,0-.3-.55q-.3-.34-.3-.45,0-6.6,2.1-7.6,1.69-.9,5.4-2.6a40,40,0,0,0,5.4-2.5c1.06-.47,2.6-1.17,4.6-2.1q.39-.19,4.2-1.8A1.08,1.08,0,0,0,279.5,32.1ZM258.9,76c-.27-.67-.47-1.2-.6-1.6a5.82,5.82,0,0,0-.5,1.2A3.05,3.05,0,0,0,258.9,76Zm14.9-10.4c-.07-.33-.2-.83-.4-1.5h-.6c-.2,0-.44.23-.7.7a81.53,81.53,0,0,0-12.6,6,3.09,3.09,0,0,0-.8,1h.6l7.9-4a13.57,13.57,0,0,0,2.2-.55Q270.79,66.8,273.8,65.6ZM262.9,80.7v-.6c-.47-.53-1.67-1.77-3.6-3.7a2,2,0,0,1-.1.4,1.57,1.57,0,0,0-.1.5,7.63,7.63,0,0,0,.7,2.3c.46,1.13.93,1.7,1.4,1.7A7.45,7.45,0,0,1,262.9,80.7Zm4.9-2.7c-3-3.87-4.64-5.8-4.9-5.8a5,5,0,0,0-1.9.65,7.41,7.41,0,0,0-1.6,1c-.07.4.56,1.37,1.9,2.9l3,3.3A11.57,11.57,0,0,0,267.8,78Zm-2.6-22.7c-.47-.53-1.1-1.27-1.9-2.2-.54-.73-1-1.47-1.5-2.2-.74-1.07-1.34-1.63-1.8-1.7l-.4.5a3,3,0,0,0,.2.8,3.3,3.3,0,0,1,.2.9,4,4,0,0,0,.2,1.7q2.49,3.1,3.3,3.1A2.53,2.53,0,0,0,265.2,55.3Zm-3,1.4a20.56,20.56,0,0,0-2-2.2,2.37,2.37,0,0,1-.2.8,2.11,2.11,0,0,0-.2.7v1.6A5.9,5.9,0,0,0,262.2,56.7Zm9.1-32.3q-1.8-2.1-5.6-6.1a8.78,8.78,0,0,1-.9-.6.74.74,0,0,1-.3-.8,29.57,29.57,0,0,0-4.2,1.9,2,2,0,0,0,.4,1.3q1.29,1.2,3.3,3.1c.26.13.56.3.9.5l3.2,2.8q-.3,0,3-1.5C271.23,24.93,271.3,24.73,271.3,24.4Zm-2.5,29.4c.2-.6-1.44-2.7-4.9-6.3a3.09,3.09,0,0,0-1.2.6,7.13,7.13,0,0,1-1.2.7,23.54,23.54,0,0,0,2.5,3.45c1.46,1.83,2.33,2.75,2.6,2.75A6,6,0,0,0,268.8,53.8ZM273.1,76c-.2-.2-1.94-2.3-5.2-6.3q-1.8-.11-3.8,2,.79.9,3,3.8a11.2,11.2,0,0,0,1.9,2.3Q268.6,77.8,273.1,76Zm2.6-54-6.4-5.9h-1.1a.93.93,0,0,0-.2.5c0,.33.43.93,1.3,1.8.46.47.9.92,1.3,1.35A13.22,13.22,0,0,1,272,21.7l-.2.1c-1.54-1.27-3.14-2.73-4.8-4.4-.4-.4-.54-.77-.4-1.1a15.88,15.88,0,0,0-1.8.4,38.89,38.89,0,0,1,4.5,4.1l3,3.4C272.76,24.2,273.9,23.47,275.7,22Zm-1.8,29a19.54,19.54,0,0,1-3.1-2.7c-1.47-1.33-2.6-2-3.4-2a4.94,4.94,0,0,0-2,.5v.7c0,.4.36.87,1.1,1.4.4.33.83.67,1.3,1,.6.8,1.33,1.87,2.2,3.2Q273,52.69,273.9,51Zm2.7,22.5a35.22,35.22,0,0,0-2.15-3.25c-1-1.43-1.69-2.15-1.95-2.15.26,0-.77.33-3.1,1-.14.07-.2.27-.2.6l4.4,5.6c.33.07.9-.17,1.7-.7A9.82,9.82,0,0,1,276.6,73.5Zm2.8-2c-1.2-.87-2.9-2-5.1-3.5,2.26,3.27,3.5,4.9,3.7,4.9C278.73,72.9,279.2,72.43,279.4,71.5Z" transform="translate(-12.8 -11.4)" style="fill:#252a68"/><path d="M345.3,51.1a45.61,45.61,0,0,1-.9,10.4,15.57,15.57,0,0,1-1.5,4.1,6.69,6.69,0,0,0-1,1.6c-.8,2.13-1.67,4.17-2.6,6.1q-4.2,8.9-19.2,19.8a45.32,45.32,0,0,1-6.7,4q-2.5.6-7.3,2.2c-.07,0-.22.12-.45.35a1,1,0,0,1-.65.35q-.11,0-3-1.5a67.28,67.28,0,0,1-5.9-3.5,21.13,21.13,0,0,1-5.6-5.2c-.2-.27-.3-1.63-.3-4.1q0-2.3.4-14.5a3.33,3.33,0,0,1,.3-.9,3,3,0,0,0,.3-1.1V66.1c.06-1.33.1-2.33.1-3V56.8q.09-2.4.6-7.3c.33-3.27.5-4.87.5-4.8a3.06,3.06,0,0,0-.8-1.8,5.36,5.36,0,0,1,1.5-.9c-.34-.47-.84-1.2-1.5-2.2a5.71,5.71,0,0,0,1.3-.5,2.73,2.73,0,0,0,.4-1.3V30.5c0-.13.06-.63.2-1.5a15.38,15.38,0,0,0,.2-1.7c.26-2.07.53-5.13.8-9.2a4.92,4.92,0,0,0,.6-.75,1.44,1.44,0,0,0,.2-1.05,11.14,11.14,0,0,0,1.8.4q-.21,0,5.7-1.6c.6-.13,3.46-.5,8.6-1.1a3.33,3.33,0,0,0,.6-.2,2.37,2.37,0,0,1,.8-.2,21.63,21.63,0,0,1,7.3.9q3.5,1.3,9.5,5.9a11.12,11.12,0,0,1,2.8,2.8,6.23,6.23,0,0,0,.4,1.8,25.71,25.71,0,0,0,4.1,3.7,10.36,10.36,0,0,1,2.2,2.8,22.41,22.41,0,0,1,1.5,2.4q.9,1.6,2.4,5.1A40.55,40.55,0,0,1,345.3,51.1ZM294.8,81.7a4.51,4.51,0,0,0-2.1-2.3l-.2,1A3.93,3.93,0,0,1,294.8,81.7Zm-.3-6.2a3.78,3.78,0,0,0-1.8-1.6c-.07.33.11.68.55,1A2,2,0,0,0,294.5,75.5ZM294,58.7c.26-.47.1-.7-.5-.7C293.5,58.2,293.66,58.43,294,58.7Zm2.3-8.9a12.14,12.14,0,0,1-1.5-1.8h-.9v1Zm-1,2.9c-.14-.4-.6-.73-1.4-1a8.42,8.42,0,0,0,.6,1Zm2.6-30.4c-.27-.53-.54-.53-.8,0Zm30.4,0q-1.2-.9-3.3-2.7a1.38,1.38,0,0,0-.6-.1,6.38,6.38,0,0,0-.9-.9c-.87-.53-2-1.17-3.4-1.9a11.5,11.5,0,0,0-3.6-.4,8.75,8.75,0,0,0-.95.1,8.58,8.58,0,0,1-1.05.1,3.4,3.4,0,0,1-.95-.35,3.52,3.52,0,0,0-.95-.35q-.3,0-1.5.15t-1.5.15a1.43,1.43,0,0,0-.8.4c.93,1.07,2.16,2.63,3.7,4.7-.14.13-.24.17-.3.1q-.81-.3-5.5-5a16.17,16.17,0,0,1-3.55.9,11,11,0,0,0-3.95,1.3,1.06,1.06,0,0,0-.1.5,7.29,7.29,0,0,0,2.75,2.4A8.76,8.76,0,0,1,304,22.8a4.34,4.34,0,0,1,.5.9A5.73,5.73,0,0,1,306,25l-.4.5a3.83,3.83,0,0,1,1.2-.4c0-.53.06-.87.2-1a6.65,6.65,0,0,1,1,.2q-4.61-5.81-4.6-5.5a.83.83,0,0,1,.3-.5c.53.47,1.7,1.63,3.5,3.5a14,14,0,0,0,2.3,2.1c-.07,0,1-.37,3.1-1.1a21.61,21.61,0,0,0,4.3-1.4q-.81-1.3-2.2-3.9h.2c.33.4,1.1,1.3,2.3,2.7.86,1,1.4,1.5,1.6,1.5s.7,0,1.7-.1,1.56-.1,1.7-.1,1,.12,2.6.35S327.56,22.23,328.3,22.3Zm-28.2,9.5a2.27,2.27,0,0,0-.9-1.2Q299.59,31.6,300.1,31.8Zm0,27.7-.5-.5C299.8,59.33,300,59.5,300.1,59.5ZM304,80.7c-.54-.53-1.27-1.22-2.2-2s-1.6-1.45-2-1.85a61.77,61.77,0,0,0,3.9,5.2Zm.6-16.8a9.42,9.42,0,0,0-4-3.7,51.94,51.94,0,0,0,3.7,4.2A.83.83,0,0,1,304.6,63.9Zm-1.8,30-.2-.6-.3.1.2.5Zm1-4.9-.5-.6-.2.3.5.4Zm.7-53.5c.4-.4.33-.73-.2-1C304,34.77,304.1,35.1,304.5,35.5Zm38.9,15.1a33.87,33.87,0,0,0-1.4-8.2,50.52,50.52,0,0,0-2.35-6.85,17,17,0,0,0-3.55-4.95l-4.5-4.1a12.29,12.29,0,0,0-3.1-1.7,10.82,10.82,0,0,0-3.5-1.1c-.14,0-.22,0-.25.1s-.15.1-.35.1a2.73,2.73,0,0,1-.85-.3,2.69,2.69,0,0,0-.95-.3,33.91,33.91,0,0,0-8.6,1.1,16.22,16.22,0,0,0-2.9,1.5,22.6,22.6,0,0,0-2.4.8,4.26,4.26,0,0,1-.8.6,86.32,86.32,0,0,0-1,9.7,2,2,0,0,0,.15.6.82.82,0,0,1,.05.6,14.94,14.94,0,0,0-.2,2,26.91,26.91,0,0,1-.3,3.3q-.21,2.51-.3,3v2.4a17.15,17.15,0,0,1-.15,1.85c-.1.83-.15,1.32-.15,1.45a33,33,0,0,0,.7,6.9c0,.13.11.28.35.45a.71.71,0,0,1,.35.55,1.65,1.65,0,0,1-.35.7,1.54,1.54,0,0,0-.35.7,33.4,33.4,0,0,0-.3,5.4.39.39,0,0,0,.3.4c.2.07.3.13.3.2a4.18,4.18,0,0,0-.5,2.1,2.9,2.9,0,0,0,.45,1.1,3.28,3.28,0,0,1,.45,1,.84.84,0,0,1-.35.6c-.24.2-.35.37-.35.5a9.59,9.59,0,0,0-.4,2.4c-.34,6.93-.5,10.07-.5,9.4V96.8h.9c1.26-.27,3.3-.83,6.1-1.7.73-.47,1.76-1.17,3.1-2.1,1.06-.53,2.33-1.27,3.8-2.2q3.19-2.4,6.4-4.9a29.91,29.91,0,0,0,5.6-5.7,12.2,12.2,0,0,0,1.3-1.3q1.39-1.7,3.7-5a72.78,72.78,0,0,0,5.4-12.25A40.28,40.28,0,0,0,343.4,50.6Zm-8.7.2a2.09,2.09,0,0,1-.25.7,1.88,1.88,0,0,0-.25.7q-.1,1.5-.6,4.5a25.07,25.07,0,0,1-2.6,6.2q-1.61,2.81-3.2,5.5a30.72,30.72,0,0,1-4.2,5.1,36.46,36.46,0,0,1-4.9,4.3Q314.59,80,315,80c-.87,0-1.3-.37-1.3-1.1a1.52,1.52,0,0,1,.15-.55,1.56,1.56,0,0,0,.15-.45q0-7.31.4-22.3.39-5.2.4-14.8V35.6a7.37,7.37,0,0,1,.8-2.9,8.09,8.09,0,0,0,1-.15,7.58,7.58,0,0,1,1-.15,10.72,10.72,0,0,1,4.1.7,21.09,21.09,0,0,1,9.6,7.8A17.3,17.3,0,0,1,334.7,50.8Zm-7.9-7.4a31.45,31.45,0,0,1-.2-4.4,14.75,14.75,0,0,0-4.3-3.2,8,8,0,0,0-3.8-1.1,6.46,6.46,0,0,0-.95.1c-.44.07-.67.13-.7.2s-.1.2-.2.4a1.33,1.33,0,0,0-.15.6V56.6a17.33,17.33,0,0,1-.3,3.2q0,.11-.15.15c-.1,0-.15.15-.15.35a1.58,1.58,0,0,0,.25.65,1.75,1.75,0,0,1,.25.65q6.39-5.4,8.4-9A18.85,18.85,0,0,0,326.8,43.4Zm-1.4,24.8-4.3-5.3a1.83,1.83,0,0,0-.9-.3,11.3,11.3,0,0,0,1.8,2.75,8.27,8.27,0,0,1,1.8,3.35h-.6q-1.2-1.8-2.45-3.6A4.9,4.9,0,0,0,318.4,63v.9a4.81,4.81,0,0,0,1.5,2.8c1.53,1.73,2.36,2.7,2.5,2.9a.78.78,0,0,1-.3.1c-2.67-1.87-4.07-3.83-4.2-5.9a7.65,7.65,0,0,0-2,1.1q.19.9.7,11.2h.7q1.2-.3,4.65-3.6T325.4,68.2Zm1.2-1.6v-.7c-1-1.4-2.64-3.37-4.9-5.9a3.45,3.45,0,0,0-.7,2,32.32,32.32,0,0,1,5.1,5Zm-2.7-7.9v-.5h-.4v.5Zm3.1,5.1a7.12,7.12,0,0,0-2.4-2.6,8.39,8.39,0,0,1,.8.9A5.05,5.05,0,0,0,327,63.8Z" transform="translate(-12.8 -11.4)" style="fill:#252a68"/><path d="M447.4,67.1a3.2,3.2,0,0,1-.5,1,2.56,2.56,0,0,0-.5,1.2,68.28,68.28,0,0,0-.4,7v1.6c0,.13.11.28.34.45s.35.32.35.45a2.76,2.76,0,0,1-1.4,2.2,3.77,3.77,0,0,0-1.35.6,19.28,19.28,0,0,0-2.15,1.8q-4.1,2.4-12.1,7.3-5.19,3.6-14.19,8.8l-2,1.2a10.71,10.71,0,0,1-2.31,1.1c-.53,0-.81-.38-.85-1.15a3.29,3.29,0,0,0-.25-1.45c-1.19-1-2.9-2.57-5.09-4.7q-2.61-2.7-3.21-3.5a5.45,5.45,0,0,1-.89-4.1,10.19,10.19,0,0,0-.15-1.15,10.38,10.38,0,0,1-.16-1c0-.13.07-.92.2-2.35s.24-2.42.3-2.95,0-1.17-.15-2.1-.15-1.57-.15-1.9q0-1.5.21-5.1c.13-2.2.19-3.93.19-5.2a2.21,2.21,0,0,1,.21-.7c-.07-1.2-.07-3,0-5.3.06-3,.1-4.2.1-3.6V50c0-.13,0-.52.09-1.15s.1-1.05.1-1.25q.21-2.51.4-7.2c0,.47-.09,0-.3-1.4a13.77,13.77,0,0,0,.21-2.7v-5c.33-3.27.5-5.33.5-6.2,0-2.07,0-3.3.09-3.7s.57-.93,1.5-1.6A18.31,18.31,0,0,0,406,18.5a29.33,29.33,0,0,1,4.59-3.4c1.34-.73,2.64-1.47,3.91-2.2a6.74,6.74,0,0,1,2.4-.8c.13.33.33.77.6,1.3a25.08,25.08,0,0,0,2.59,2.9,56.07,56.07,0,0,0,6,5.3v4.2a75.59,75.59,0,0,1-.34,8.2c-.17.8-.25,1.13-.25,1a9,9,0,0,1,.5,2.9,31.34,31.34,0,0,0-.71,3.1q-.19,4.3-.7,11.9a8.57,8.57,0,0,0,0,1.8,17.36,17.36,0,0,1,.2,2c0,.67-.06,1.8-.2,3.4s-.19,2.83-.19,3.7h.79l4.4-2.3c.47-.13,1.07-.33,1.81-.6l3.19-2.1a7.16,7.16,0,0,1,3.1-1.5,2.52,2.52,0,0,1,1.6.4,19.71,19.71,0,0,0,3,4.1l1.21,2c.79,1.33,1.43,2,1.9,2a.54.54,0,0,0,.39-.1.58.58,0,0,1,.4-.1,1.08,1.08,0,0,1,.81.55A1.77,1.77,0,0,1,447.4,67.1Zm-43.61,7.4a1.56,1.56,0,0,0-1-1.2,1.05,1.05,0,0,1-.1.35,1.39,1.39,0,0,0-.1.35A1.26,1.26,0,0,0,403.79,74.5ZM403,80c.19-.27.13-.57-.21-.9a2.21,2.21,0,0,0,.11.45A2.75,2.75,0,0,1,403,80Zm1-11a4.43,4.43,0,0,0-.81-1.3.85.85,0,0,0-.29.5C402.9,68.73,403.26,69,404,69Zm-.41-9.4a1.42,1.42,0,0,0-.19-1.6l-.31.5A4.06,4.06,0,0,0,403.59,59.6Zm1.31,6.6c-.67-1.4-1.21-2.1-1.61-2.1-.13,0-.2.1-.2.3a1.46,1.46,0,0,0,.5,1.2,3.41,3.41,0,0,1,1.1.8Zm-.71,6.2-1.1-1.4v1a1.53,1.53,0,0,1,.6.2A2,2,0,0,0,404.19,72.4Zm2.1-33.7-1.1-1.5c-.46-.6-.86-.87-1.19-.8l-.41.2A1.77,1.77,0,0,0,404.5,38,3.79,3.79,0,0,0,406.29,38.7ZM404,90.1l-.21-.2-.2.1.31.3Zm1.19-63.4a2.5,2.5,0,0,0-.9-1.3c-.2.13-.29.27-.29.4S404.4,26.37,405.19,26.7Zm.4,50.4a1.92,1.92,0,0,0-1-1.4C404.86,76,405.19,76.5,405.59,77.1Zm-.3,9.9-.2-.9h-.3l.21.9Zm6.3-48.7a28.92,28.92,0,0,0-6.5-6.6q2.12,2.4,6.2,7A.61.61,0,0,0,411.59,38.3Zm2.1-12.3c-1.4-1.53-3.19-3.57-5.4-6.1a1,1,0,0,0-.5-.1c-.53.53-.76.87-.7,1q5.31,5.9,5.7,5.9C413.06,26.7,413.36,26.47,413.69,26Zm-3.6,70.3a6.42,6.42,0,0,1-.69-1.1h-.71A2.63,2.63,0,0,0,410.09,96.3Zm12.1-74.6c-.06-.07-.23-.1-.5-.1s-1.53-1.05-3.79-3.15a32.93,32.93,0,0,0-3.61-3.15q-.5,0-4.29,2.4a11.61,11.61,0,0,0,1.59,4c.47.4,1,.9,1.7,1.5a26,26,0,0,1,2.11,2.2,2.94,2.94,0,0,0,1.89-1.2q-.3-.9-3-3.5a22.36,22.36,0,0,1-2.7-2.8c0-.27,0-.37.1-.3h.5a54.52,54.52,0,0,1,5.6,4.5c.21.33.5.77.9,1.3C419.56,23,420.73,22.43,422.19,21.7ZM411,66.4a1.68,1.68,0,0,0-.6-1A.91.91,0,0,0,411,66.4Zm-.1-8.4c.33-.2.33-.43,0-.7Zm.39-7.6c.21-.13.17-.37-.1-.7-.13,0-.19.1-.19.3A.63.63,0,0,0,411.29,50.4ZM444.4,69.6a2.66,2.66,0,0,0-.31-1.5h-.69a3.17,3.17,0,0,0-1.5,1.6q-2.81,0-14.81,8.8c-1.73,1.2-2.86,1.8-3.4,1.8-.73,0-1.1-.3-1.1-.9a1.18,1.18,0,0,1,.25-.65,1.05,1.05,0,0,0,.25-.55q0-.49-.9-1.2V69.4c0-.13.07-.9.21-2.3s.19-2.17.19-2.3V60.1c0-.07.09-.6.25-1.6a7.17,7.17,0,0,0,.16-2l-.21-3.6a11.48,11.48,0,0,1,.21-1.8,12.12,12.12,0,0,0,.19-1.7c.14-2.73.37-6.07.71-10a21.36,21.36,0,0,0,0-2.8A11.78,11.78,0,0,1,424,33a16.1,16.1,0,0,0,.4-3.4c0,.2-.21-1.87-.61-6.2a24.79,24.79,0,0,0-3.5,1.2c-.86.67-2,1.53-3.5,2.6a14.55,14.55,0,0,0-3.39,2.2q0,3.5-.21,10.1c0,2.53,0,4.37-.1,5.5s-.09,1.53-.09,1.2a6.88,6.88,0,0,0,.19,1,9.22,9.22,0,0,1,.21,1V63.3c0-.27-.14,1.2-.4,4.4a64.55,64.55,0,0,0-.31,7.2,1.72,1.72,0,0,0,.25.75c.17.3.22.52.15.65a4.26,4.26,0,0,0-.5,1.3c0,.73,0,1.9-.09,3.5v7.8a5.76,5.76,0,0,1-.21,1,6.41,6.41,0,0,0-.2,1,2,2,0,0,0,.31.6,2.85,2.85,0,0,1,0,1.5,5.48,5.48,0,0,0-.11,1.9,11.08,11.08,0,0,1,1.11,1.5c0,.6-.44.9-1.31.9v1.1c0,.27.07.43.2.5h.61c1.19-.53,2.66-1.2,4.39-2q5.7-3.8,11.5-7.4a28.71,28.71,0,0,1,2.5-1.9c1.61-1.07,4-2.57,7.11-4.5a28.22,28.22,0,0,0,4.1-2.9,2.26,2.26,0,0,0,.9-.7C444.06,73.17,444.4,69.87,444.4,69.6ZM426.9,76a6.42,6.42,0,0,0-1.36-2.6c-.63-.73-1.11-1.1-1.45-1.1-.06,0-.09,0-.09.1a10.31,10.31,0,0,0,.25,3,12.94,12.94,0,0,0,.75,1.5A10.05,10.05,0,0,0,426.9,76Zm8.79-5.8a1.69,1.69,0,0,0-.6-1.2c-3.86-3.47-5.73-5.2-5.59-5.2a3.56,3.56,0,0,0-1.6.7c-.74.47-1.14.73-1.21.8,1.21,1.6,2.77,3.93,4.71,7l-.31.3h-.5a16.45,16.45,0,0,1-2.69-3.2,13.44,13.44,0,0,0-2.71-3.1,3.54,3.54,0,0,0-1,2.6,4.71,4.71,0,0,0,.81,1.7c.86,1.07,1.93,2.5,3.19,4.3a11.39,11.39,0,0,0,2.6-1.3c.94-.53,1.84-1.07,2.71-1.6Q435.69,70.6,435.69,70.2Zm6.71-4.4q0-.4-2.46-3.45c-1.63-2-2.61-3.05-2.94-3.05h-.5a6.78,6.78,0,0,1-2.6,1.8,7.16,7.16,0,0,0-2.9,2.2,9.12,9.12,0,0,0,3,3.2,8,8,0,0,1,2.75,2.7h.71c.46-.4,1.06-.9,1.79-1.5A11.3,11.3,0,0,0,437,64.85a11.12,11.12,0,0,1-2.41-3.15c.14-.13.24-.17.31-.1l2.19,1.7c.34.33,1,1.1,2.1,2.3.87.93,1.4,1.4,1.6,1.4a2.54,2.54,0,0,0,.9-.4C442.16,66.33,442.4,66.07,442.4,65.8Z" transform="translate(-12.8 -11.4)" style="fill:#252a68"/><path d="M499.89,85.7c0,.73-.06,1.73-.19,3a2.06,2.06,0,0,1-1,1.4,8.55,8.55,0,0,1-3.41,1.4h-.09c0-.07-.07-.1-.21-.1a14.73,14.73,0,0,0-6.2,1.6,34.82,34.82,0,0,1-4.9,1.7c-.73.13-1.66.33-2.8.6a2.32,2.32,0,0,0-.5.4c-2.93.93-5.26,1.67-7,2.2a76.41,76.41,0,0,1-9.1,2.3,7.74,7.74,0,0,1-.95-.25,5.17,5.17,0,0,0-1.05-.25.57.57,0,0,0-.4.1.38.38,0,0,1-.3.1q-.39,0-3.75-2.85a19.88,19.88,0,0,0-4.2-3.1A1.24,1.24,0,0,1,453,92.6a3.33,3.33,0,0,1,.4-.95,3,3,0,0,0,.4-1,2.51,2.51,0,0,0-.8-1.5v-.5c0-.13.1-.2.3-.2a.69.69,0,0,0,.5-.2,72.68,72.68,0,0,1,1-8c0-.2.24-.43.7-.7a2,2,0,0,0,.1-.9v-.5a34.12,34.12,0,0,1,3.6-1.1c.14,0,.22,0,.25.1s.12.1.25.1a32.41,32.41,0,0,0,3.1-1,21.84,21.84,0,0,0,3.6-1,1.19,1.19,0,0,0,.65-1c.1-.53.19-1,.25-1.5a11.4,11.4,0,0,0,.5-3.8c0-.67,0-1.7.1-3.1s.1-2.43.1-3.1a3,3,0,0,0-.2-.8,3.3,3.3,0,0,1-.2-.9,1,1,0,0,0,.7-1.1,2,2,0,0,0-.5-1.6v-.6c.54-.13.8-.63.8-1.5,0-.2.24-1.77.7-4.7a12,12,0,0,1-.1-1.7,1.1,1.1,0,0,0,.3-.5c.07-.2.17-.58.3-1.15a5.73,5.73,0,0,0,.2-1.15,2.6,2.6,0,0,0-.1-.6v-.7a11.61,11.61,0,0,0-1.65.2c-.76.13-1.18.2-1.25.2a2.64,2.64,0,0,1-1.8-.85c-.6-.57-1.43-1.38-2.5-2.45a7.3,7.3,0,0,1-1.5-.6,73.41,73.41,0,0,0-6.3-4.9c.14-.33-.21-1.07-1.05-2.2a5.34,5.34,0,0,1-1.25-2.4c0-.33.27-.63.8-.9a2.15,2.15,0,0,1,1.1,1.2,2.14,2.14,0,0,0,.2-1.8c-.2-.87-.3-1.23-.3-1.1,0-.07.14-.22.4-.45s.4-.42.4-.55c.07-.4.1-2.27.1-5.6a3.94,3.94,0,0,1,.4-1.4,3.43,3.43,0,0,1,1.5-.6c.14,0,.22.1.25.3a.32.32,0,0,0,.35.3q-.19,0,.3-.3l2.8-.3c1.34-.53,3.4-1.27,6.2-2.2,1.4-.47,3.34-1,5.8-1.6a2.26,2.26,0,0,1,.7-.4q3.81-1,10.9-2.9l1.8-1a7.19,7.19,0,0,1,2.41-.9,4.14,4.14,0,0,1,.94.25c.5.17.89.28,1.15.35a5.27,5.27,0,0,0,.91,1.3c3.79,2.27,6,4.27,6.59,6q1.31,3.6,1.3,13.1,0,.6-1,1.5a11,11,0,0,1-1.34,1,25.53,25.53,0,0,1-3.21.65A3.74,3.74,0,0,0,491,38.65,10.31,10.31,0,0,0,490,42.7c-.06,1.4-.13,2.8-.2,4.2-.06.87-.09,2.1-.09,3.7v5.6a.86.86,0,0,1-.11.4,1,1,0,0,0-.1.4V67.8c.21.2.34.3.4.3a1.38,1.38,0,0,0,.45-.2,1.32,1.32,0,0,1,.55-.2c.6,0,1.57.73,2.9,2.2.74.8,1.49,1.57,2.25,2.3s1.85,1.83,3.25,3.3C499.7,80.83,499.89,84.23,499.89,85.7Zm-34.1-1.2a9.08,9.08,0,0,0-2.1-2.55c-1-.9-1.76-1.32-2.3-1.25-.06-.13-.3-.6-.7-1.4q-1.1-.3-.9-.3c.07,0-.8.37-2.6,1.1a6.67,6.67,0,0,0,.9,1.3q2,1.3,6.1,4.2A4.05,4.05,0,0,1,465.79,84.5Zm1.7-55.1a15.2,15.2,0,0,0-2.15-3.6c-1.16-1.6-2-2.4-2.45-2.4q-.39,0-.9.6Q462.1,24.2,467.49,29.4ZM470,82.8a18.64,18.64,0,0,0-2.1-1.9,3.73,3.73,0,0,1-1.4-2,13.82,13.82,0,0,1-.7-1.4c-.06,0-1.2.23-3.4.7v.5a3.85,3.85,0,0,1,.2.8c.54.53,1.34,1.27,2.4,2.2a9.67,9.67,0,0,1,1.3,1.4c.4.53.74.8,1,.8a7.6,7.6,0,0,0,2.3-.6A2.32,2.32,0,0,1,470,82.8Zm-5.2-47a3.45,3.45,0,0,0-.6-.8C464.19,35.73,464.39,36,464.79,35.8Zm11.1-9.4q-1.29-1.3-3.6-3.7c-.4-.6-.93-1.43-1.6-2.5a13.63,13.63,0,0,0-5.7,2.5q1.61,2.3,4,6.2a1,1,0,0,0,.7.2,4.46,4.46,0,0,0,2.2-.8q-4.09-5.7-4.1-5.8c0-.2,0-.3.1-.3,1.27,1.07,2.2,1.87,2.8,2.4a7.57,7.57,0,0,1,2.1,3.1h1.3A2.2,2.2,0,0,0,475.89,26.4ZM498,86.6v-7c0-.13-.16-1-.5-2.5H495a1.94,1.94,0,0,0-.7.25,2.32,2.32,0,0,1-.59.25,12.29,12.29,0,0,0-3.11,1.2,13.42,13.42,0,0,0-1.6,1,3.4,3.4,0,0,1-1.6.6c-.46,0-.69-.27-.69-.8,0-.13.18-.4.54-.8s.55-.67.55-.8a1.32,1.32,0,0,0-.25-.6,1.45,1.45,0,0,1-.25-.6,13,13,0,0,1,.1-2.6,21.85,21.85,0,0,0,.2-2.4V67.1q0-.1.15-2.85c.1-1.83.19-3.18.25-4q-.09-3.9,0-10.8.11-2.9,1-9.9c.07-.27.37-1,.9-2.3.14-.33,1.5-1,4.1-1.9s3.9-2.07,3.9-3.4c0-.13-.1-.82-.3-2s-.33-2.15-.39-2.75a18,18,0,0,0,.09-2.1,16.07,16.07,0,0,0-.9-3.7h-.9A7.14,7.14,0,0,0,494,22a11.57,11.57,0,0,1-1.46.7.57.57,0,0,1-.4-.1.38.38,0,0,0-.3-.1q-.8,0-5.7,2.3-5.29,2.29-5.39,2.4-9.51,2.51-13.81,5.6V44.2h.6a21,21,0,0,0,3.1-.9c.07-.4.19-.63.35-.7a1.74,1.74,0,0,1,.65-.1,2,2,0,0,1,.55.1,2.07,2.07,0,0,0,.55.1,20.8,20.8,0,0,0,2.25-.6c1.37-.4,2.35-.67,2.95-.8a1.08,1.08,0,0,1,.4.4v2.4c-.06,1.47-.1,3.17-.1,5.1l.3.4V80.3a6.06,6.06,0,0,1-.7,2.4,1.47,1.47,0,0,1-1.1,1q-7.2.6-11,2.8a13.2,13.2,0,0,1-.1,1.5,2,2,0,0,1-.4.5,19.12,19.12,0,0,1,.1,2.3v4.7a.87.87,0,0,1-.15.35.92.92,0,0,0-.15.45,5.88,5.88,0,0,0,.4,1.9h.9a23.57,23.57,0,0,0,6.3-1.6q6-1.91,6.2-2c.14-.1.44-.28.91-.55q2.19-.41,5.69-1.3l3.7-1.6a23.92,23.92,0,0,0,2.9-.5,31.84,31.84,0,0,0,5.1-1.7C497.7,88.63,498,87.87,498,86.6Zm-23.8-4.8v-.6q-2.29-1.2-6.7-3.6l-.8.2v.7c.87.8,1.7,1.6,2.5,2.4,1.27,1.07,2.17,1.6,2.7,1.6A5.41,5.41,0,0,0,474.19,81.8Zm-2.3-9.1a13.37,13.37,0,0,0-2-2,.78.78,0,0,1-.2.6A20.25,20.25,0,0,1,471.89,72.7Zm1.9-9.5a11.56,11.56,0,0,0-3.1-2.8A33.39,33.39,0,0,0,473.79,63.2Zm8.6-38.9c-1.26-1.33-3-3.23-5.2-5.7a1.22,1.22,0,0,0-.7-.3,8.74,8.74,0,0,0-2.6.4,11,11,0,0,1-2.3,1v.7q1.71,1.39,3.3,2.9a9.55,9.55,0,0,1,2.5,3A15.55,15.55,0,0,0,482.39,24.3Zm-6.3,45.3a21.21,21.21,0,0,0-3.3-3.2c.6.73,1.5,1.8,2.7,3.2Zm-1-11-.2-.6-.2.1.2.5Zm1.4,1c-.06-.2-.28-.4-.65-.6a2,2,0,0,0-.75-.3,2.18,2.18,0,0,0,1.1,1.4A1.1,1.1,0,0,0,476.49,59.6Zm-.4,19.6-1-.5v1a1.46,1.46,0,0,1,.4.1,1.55,1.55,0,0,0,.4.1A1,1,0,0,0,476.09,79.2ZM494.7,19.9v-.7c-3.21-3-5.37-4.5-6.5-4.5a5.59,5.59,0,0,0-2.21.8q-1,.6-2.1,1.2l3.9,4.3a.65.65,0,0,1-.2.5H487a15.29,15.29,0,0,1-4-4.7l-2.5.4a3.22,3.22,0,0,0-2,1,15.35,15.35,0,0,0,2.6,2.9c1.27,1.2,1.94,2.23,2,3.1Zm-3.5-.6c-.41,0-1.06-.45-2-1.35s-1.35-1.55-1.35-1.95a1.38,1.38,0,0,1,.5-.8c-.06.6.4,1.33,1.4,2.2S491.26,18.9,491.2,19.3Zm.19,56.5a12.81,12.81,0,0,0-2-2.7c-.26,2.53-.4,3.87-.4,4,.27-.13.69-.35,1.25-.65S491.2,75.93,491.39,75.8Zm4-1q-2-1.8-5.9-5v.6q0,.1,3,4.9a3.59,3.59,0,0,0,.9.1A3.83,3.83,0,0,0,495.39,74.8Z" transform="translate(-12.8 -11.4)" style="fill:#252a68"/><path d="M555.59,25.4c0,.33-1,1.5-2.9,3.5a26.14,26.14,0,0,0-3.8,4.3,16.77,16.77,0,0,0-1.8,1.6c-.4,0-.76-.53-1.1-1.6-.2-.73-1.06-1.6-2.6-2.6a7.67,7.67,0,0,0-3.2-1.5A5.15,5.15,0,0,0,537,30.4a7.94,7.94,0,0,0-2.35,2.8,7.79,7.79,0,0,0-1,3.8,10.05,10.05,0,0,0,1.75,5.5l3.45,5.3c.2.67.54,1.57,1,2.7a43.3,43.3,0,0,1,5.1,6.2,12,12,0,0,1,1,1.2q1.71,2.4,4.3,6.7c.14.73.4,1.8.8,3.2a13.39,13.39,0,0,1,1,2,27.77,27.77,0,0,1,1.1,6.7q-.2,7.8-2.6,11.6-2.79,4.4-10.7,8.6c-.86.27-2.16.63-3.9,1.1-3.2,1-4.86,1.5-5,1.5q.71,0-4.3-.7c-.66-.13-1.43-.27-2.3-.4-.4-.13-1.93-.6-4.6-1.4a9.19,9.19,0,0,1-3.1-2,21.25,21.25,0,0,1-2.7-2.1q-2.29-2.1-5.5-5.6-4.8-5-4.8-6.6a8.56,8.56,0,0,1,2.1-1.55,20.07,20.07,0,0,0,2.6-1.85,8.34,8.34,0,0,0,.9-.4c.8-.8,1.57-1.6,2.3-2.4,1.6-1.53,2.6-2.3,3-2.3.6,0,2.14,1,4.6,2.9a5.9,5.9,0,0,1,2.4,1.9,3.57,3.57,0,0,0-.9.5q.9,1.1,3,3.3a.86.86,0,0,1,.1-.3,1.38,1.38,0,0,1,0-.7,22,22,0,0,0,4.6-4.5q2.4-3.7,2.4-5.7a5.5,5.5,0,0,0-1.5-3.9q-2.1-2.8-6.5-8l-4.6-3.7a8.62,8.62,0,0,0-1-2q-1.2-1.09-3.3-3.2a40.39,40.39,0,0,1-2.6-3.7,29.8,29.8,0,0,1-2.2-7.7,8.78,8.78,0,0,1-.3-.9,4.46,4.46,0,0,1-.2-1c0-.07.15-.6.45-1.6a15.87,15.87,0,0,0,.55-2.2,20.57,20.57,0,0,1,3.6-9.2,22.08,22.08,0,0,1,8.3-7.6,4.41,4.41,0,0,1,.5-.6q1.8-.6,5.1-1.8c.07,0,.25-.15.55-.45a1.23,1.23,0,0,1,.75-.45,1.6,1.6,0,0,1,.7.35,1.62,1.62,0,0,0,.8.35l4.1.3a14.18,14.18,0,0,1,2.8.7q1.41,1,4.3,2.7a19.55,19.55,0,0,1,3.1.6q3.6,2.7,10.9,7.9A1.31,1.31,0,0,1,555.59,25.4Zm-39.1,55.8q-4.1-4.31-4.9-4.3c-.26,0-.8.4-1.6,1.2l4.2,4.4c0,.07-.1.2-.3.4a6.52,6.52,0,0,1-2.55-2.2,11,11,0,0,0-1.95-2.1c-1.53,1-2.3,1.73-2.3,2.2s.57,1.33,1.7,2.4c1.54,1.4,2.7,2.07,3.5,2h.6c.27-.33,1-1.1,2.2-2.3A7.67,7.67,0,0,0,516.49,81.2Zm-4.7,1.9a1.46,1.46,0,0,1-.2.6,11.22,11.22,0,0,1-2.8-2.3v-.6a1.53,1.53,0,0,1,.6.2A7.26,7.26,0,0,0,511.79,83.1Zm2.4-53.2a8.43,8.43,0,0,0-.8-.95,5.76,5.76,0,0,1-.7-.85l-.7.7A2.92,2.92,0,0,0,514.19,29.9Zm5.1,48.4a1.74,1.74,0,0,0-.3-1.2,9.06,9.06,0,0,0-2.8-2.3c-.86-.4-1.3-.43-1.3-.1a25.11,25.11,0,0,1,2.5,3.3.55.55,0,0,1-.4.1,29.27,29.27,0,0,0-3.4-3.1,6.39,6.39,0,0,0-1,.5,3.9,3.9,0,0,1-.4.8q1.8,1.61,5,4.3A9.78,9.78,0,0,0,519.29,78.3Zm33.8-52.5a2.46,2.46,0,0,0-.75-1.25,2,2,0,0,0-1.45-.85c-.13,0-.21,0-.25.1s-.11.1-.25.1a.72.72,0,0,1-.7-.4,18.41,18.41,0,0,1-1.6-1.6,11.87,11.87,0,0,0-.7-1.4c-.26-.2-.88-.63-1.85-1.3a7,7,0,0,0-1.65-1,.42.42,0,0,0-.35.25.41.41,0,0,1-.35.25Q538.9,17,538.69,17a15.61,15.61,0,0,0-1.55.25l-1.85.35a2,2,0,0,0-1.5.8,1.69,1.69,0,0,1-.5.8,1.71,1.71,0,0,1-.55-.4,1.25,1.25,0,0,0-.75-.4,4.82,4.82,0,0,0-.7.2,33.82,33.82,0,0,0-3.7,2.6,6.7,6.7,0,0,1-.7.3,17.29,17.29,0,0,0-2.3,3.25c-.26.63-.63,1.42-1.1,2.35-.06.6-.16,1.33-.3,2.2q-2.4,6.6-2.4,7.7a1.19,1.19,0,0,1-.15.5,1.19,1.19,0,0,0-.15.5q0-.8,1.2,4.5a30.62,30.62,0,0,0,6.7,14.1c.54.87,1.3,2,2.3,3.5l4.6,4.8a27.13,27.13,0,0,1,4.4,6.3,2,2,0,0,0,.2.75,8,8,0,0,0,.7,1.15,23.77,23.77,0,0,1,.6,4,8,8,0,0,1-3.6,6.6,28.54,28.54,0,0,0-3.1,1.6,2.65,2.65,0,0,1-.5.8,1.2,1.2,0,0,1-.6-.35,3.24,3.24,0,0,0-.6-.45,10,10,0,0,0-2.1-.2,7.54,7.54,0,0,0-1,.1h-.9q-3.49,0-8.5-5-.49.3-1,.6a24,24,0,0,0-3,3l-1.6,1.5c-.66.53-1,1-.9,1.4a2.65,2.65,0,0,1,1.1,1.3l.5,1.1a32.47,32.47,0,0,0,8.7,7c.8.13,1.84.33,3.1.6,2.67.6,3.84.9,3.5.9A29.71,29.71,0,0,0,536,96a24.41,24.41,0,0,0,4.6-1.8c2.54-1.8,4.1-3,4.7-3.5a13.91,13.91,0,0,0,3.5-3.3c.2-.6.47-1.37.8-2.3a16.45,16.45,0,0,0,1.5-7.4,20.85,20.85,0,0,0-.7-6.1q-.5-1.91-1.8-5.5a22.5,22.5,0,0,0-.9-2.2,12.68,12.68,0,0,1-1.1-1.3q-.6-2.2-5.9-8.5a29.1,29.1,0,0,1-2-2.3c-.4-.87-1.06-2.13-2-3.8a10.88,10.88,0,0,0-1.1-2.2q-3.9-3.9-3.9-8.3a8.92,8.92,0,0,1,1.9-6c.47-.53,1.1-1.2,1.9-2,.74-.6,1.47-1.17,2.2-1.7a3.25,3.25,0,0,1,2-.6q2.5,0,7.5,4.7a24.5,24.5,0,0,0,3.3-3C552.23,27.08,553.09,26.07,553.09,25.8Zm-34.6-2.6c-1.4-1.47-2.16-2.17-2.3-2.1s-.16.1-.3.3a2.66,2.66,0,0,1-.3.4A3.18,3.18,0,0,0,518.49,23.2Zm.4,12c.07-.47-.66-.93-2.2-1.4l2,2A.82.82,0,0,1,518.89,35.2Zm4-11.2v-.5q-.79-1.8-4.3-4.5c-.33.2-.7.4-1.1.6v.7A13.51,13.51,0,0,0,522.89,24Zm-1.7,3.4a10.62,10.62,0,0,0-1.9-.8l1.5,2C521.13,28,521.26,27.6,521.19,27.4Zm6-8.6a16.51,16.51,0,0,1-2.5-1.9,6.73,6.73,0,0,0-1.2-1.7,8.27,8.27,0,0,0-2.1,1.9,2.84,2.84,0,0,0-1.8,1.4,50.32,50.32,0,0,0,4.8,3c.67-.6,1-1,1-1.1,0-.53-.6-1.12-1.8-1.75a16,16,0,0,1-2-1.15l.3-.3h.5c.87.47,2.14,1.23,3.8,2.3C526.46,19.3,526.79,19.07,527.19,18.8Zm-5.3,7c.14-.13,0-.33-.4-.6A1.61,1.61,0,0,0,521.89,25.8Zm17.5,51.8a12.72,12.72,0,0,0-1.6-5.5.65.65,0,0,0-.4-.3c.4-.07.17-.1-.7-.1,0,.07.1.2.3.4a.83.83,0,0,1,.3.5q0,.3-.6.6-1.2-.9-3.6-2.5a1.34,1.34,0,0,0-.4,1.3c.67.27,1.64.7,2.9,1.3.4.33,1,.8,1.9,1.4.07.07,0,.2-.1.4h-.5a26.28,26.28,0,0,0-4.2-1.9,27.08,27.08,0,0,0,3.8,3.1l-.3.3a4.93,4.93,0,0,1-2-1.2c-.46-.4-.93-.83-1.4-1.3-.26-.07-.66-.2-1.2-.4a2.25,2.25,0,0,1-.45.85,2.25,2.25,0,0,0-.45.85,22.14,22.14,0,0,0,2.9,2.75,21.34,21.34,0,0,1,2.9,2.75c-.06.47-.3.7-.7.7s-1.53-.8-3-2.4a21.59,21.59,0,0,1-2.2-2.6,3.82,3.82,0,0,0-1.5.4c-.46.53-1.1,1.23-1.9,2.1-.6.47-1.43,1.13-2.5,2,0,.13.54.5,1.6,1.1a7.52,7.52,0,0,0,1.9.9h.6c.14-.27,0-.57-.5-.9l-1.1-.7V81a1.69,1.69,0,0,0,.7-.3,34.25,34.25,0,0,1,2.6,2.5.69.69,0,0,0,.5-.2,38.17,38.17,0,0,1-2.7-3.2,4,4,0,0,0-.2-1.1.6.6,0,0,1,.6-.1,9.29,9.29,0,0,0,.4,1.3,43.14,43.14,0,0,1,4.2,3.5,25,25,0,0,0,3.7-1.7,9.16,9.16,0,0,0,1.35-1.85A5.67,5.67,0,0,0,539.39,77.6Zm-8.6-61.2c-1-1.8-1.76-2.7-2.3-2.7a5.86,5.86,0,0,0-2.9,1.4,15.2,15.2,0,0,0,3.3,2.8C530.16,17.37,530.79,16.87,530.79,16.4Zm6.2-.9a.59.59,0,0,1-.2-.4,5.24,5.24,0,0,0-3.5-1.1,7.84,7.84,0,0,0-.9.1,7.4,7.4,0,0,1-1,.1,1.54,1.54,0,0,0,.7,1.15,2.08,2.08,0,0,0,1.1.55C533.73,15.9,535,15.77,537,15.5Z" transform="translate(-12.8 -11.4)" style="fill:#252a68"/><path d="M609,21.8a7.44,7.44,0,0,1-.4,1.35,6.32,6.32,0,0,0-.4,1.55,44,44,0,0,0-.6,7.6c0,2.73,0,3.87.1,3.4-1.33.53-3.17,1.33-5.5,2.4l-1.4.3a10.41,10.41,0,0,0-3,2q-.4,4.31-.4,7.3v6.2c0,.13-.08,1-.25,2.45s-.25,2.32-.25,2.45a17.76,17.76,0,0,0,.4,3.9,14.94,14.94,0,0,1,.3,3.8,2.62,2.62,0,0,1-.4,1.3c.27-.07.4,0,.4.3,0,.07,0,.37-.1.9v1.8c-.13,1.07-.3,2.93-.5,5.6-.07,1.2-.1,1.93-.1,2.2a2.1,2.1,0,0,1,.3.6V90.5a12.38,12.38,0,0,1-1.8,1.3,4.8,4.8,0,0,1-1,1.5q-2.29,1.2-7.1,4.1l-2,2c-.87.87-1.43,1.3-1.7,1.3a.87.87,0,0,1-.7-.4,25.37,25.37,0,0,0-8.4-9.1c.13-2.13.37-5.33.7-9.6,0,.07-.17-.2-.5-.8a6.2,6.2,0,0,0,.6-2.5c.07-1,.13-2,.2-3a3.2,3.2,0,0,0-.2-1.4,2.75,2.75,0,0,1,.4-.7q.3-10.4.3-9.8a21.31,21.31,0,0,1,.15-4.3,13,13,0,0,0,.25-2.5,12,12,0,0,0-.4-2.5c-.27-1.13-.4-1.73-.4-1.8,0-.33,0-.83.1-1.5s.1-1.13.1-1.4,0-.2-.3-.2c.27,0-.47.47-2.2,1.4a8.33,8.33,0,0,1-4.8.7,22,22,0,0,0-3.8-4.1q-3.2-3-3.6-3.4a3.14,3.14,0,0,1-.8-1.7c-.2-2.07-.3-4.63-.3-7.7l.9-8.3a1.09,1.09,0,0,1,.7-.4,2.15,2.15,0,0,1,.85.5,2,2,0,0,0,.95.5,34.85,34.85,0,0,0,5.1-2,30,30,0,0,0,3.1-.8c1.13-.47,2.4-1.07,3.8-1.8a19.54,19.54,0,0,0,2.1-.7q3.4-1.61,9.2-3.8a6.6,6.6,0,0,1,1-1q7.5-3.8,9.3-3.8a.55.55,0,0,1,.4.1.4.4,0,0,0,.3.1,4.7,4.7,0,0,0,1.3-.8,2.45,2.45,0,0,1,1.4-.4,3.2,3.2,0,0,1,.65.1,3.2,3.2,0,0,0,.65.1,1.28,1.28,0,0,1,.1,1.1q1.4,2.1,2.9,4.3c1.47,2,2.33,3,2.6,3a1.19,1.19,0,0,0,.5-.15,1.18,1.18,0,0,1,.4-.15,5.39,5.39,0,0,1,.5.4C608.89,21.63,609,22.07,609,21.8Zm-35.3,12a10.33,10.33,0,0,1-1.8-2.4,19.31,19.31,0,0,0-1.9-2.55q-1.61-2-2.1-2a2.88,2.88,0,0,0-1.2.7,5.11,5.11,0,0,0-1.2,1.2q6.19,6.19,6,6.2A2.23,2.23,0,0,0,573.69,33.8Zm15.2-5.5a23,23,0,0,1-1.5-2.2,25.39,25.39,0,0,0-2.45-2.8c-1.5-1.6-2.38-2.4-2.65-2.4a6.9,6.9,0,0,0-2.35.9c-1.17.6-1.75,1.1-1.75,1.5q2,2.2,5.3,6.1l-.3.3h-.4q-6.4-6-6.3-6a5.62,5.62,0,0,0-1.45.5,2.8,2.8,0,0,0-1.35.9q5.2,4.61,5.2,5.4a.91.91,0,0,1-.5.8,2.44,2.44,0,0,1-1.25-.8c-.23-.33-.5-.73-.8-1.2A16.4,16.4,0,0,0,574.19,27c-1.13-1.1-1.86-1.65-2.2-1.65a6.15,6.15,0,0,0-2.1.9v.7c.47.53,1.13,1.33,2,2.4l.8,1.6q.9.9,2.4,2.7Zm-18.2,20.1a6.5,6.5,0,0,0-.4-2,11.75,11.75,0,0,0-.1,2.3C570.52,48.7,570.69,48.6,570.69,48.4Zm36-25.5c-.6-.6-1-.9-1.3-.9a56.38,56.38,0,0,0-6.1,2.5q-2.81,1.61-8.3,4.5a51.76,51.76,0,0,1-6.4,2.8q-3.6,1.39-10.5,4.2c-.07.4-.6.8-1.6,1.2a.72.72,0,0,0-.3.3c-.07.4-.15,1-.25,1.85s-.15,1.28-.15,1.35q0,1.9.7,7.6,1.8-.7,5.1-2.1,1.5-.8,4.3-2.1a16.53,16.53,0,0,1,1.6-.8,14.65,14.65,0,0,0,2.1-.6q.79,0,.9,1.2a6.75,6.75,0,0,1,0,2.3c-.13,1.13-.2,1.6-.2,1.4V60.9c.07.27.17.85.3,1.75s.2,1.42.2,1.55a10.34,10.34,0,0,1-.15,1.1,10.34,10.34,0,0,0-.15,1.1v4.2l-1.6,22.7c0,.07,0,.35.1.85a8.58,8.58,0,0,1,.1,1l-.2.2h1q3.9-2.5,9-5.6a29.32,29.32,0,0,0,.6-3.9v-5a1.46,1.46,0,0,0-.3-.5V77.1c0-1.27.14-3.43.4-6.5l.4-4.3q0-.19-.45-3.15T595.09,60a44.06,44.06,0,0,1,.8-7.7,3.37,3.37,0,0,0,0-1.2,22,22,0,0,1,0-4.2,34.72,34.72,0,0,0,.3-5.8,8.88,8.88,0,0,0-.2-.9,2.85,2.85,0,0,1,0-1.1.93.93,0,0,1,.6-.7c.6-.27,1.47-.63,2.6-1.1a14.52,14.52,0,0,0,1.9-.4c1.47-.67,2.57-1.2,3.3-1.6,1.13-.67,1.7-1.27,1.7-1.8C606.22,32.37,606.42,28.83,606.69,22.9Zm-28.4,58.5a2.15,2.15,0,0,0-1.1-1.2,1.06,1.06,0,0,1-.2.4A2.57,2.57,0,0,0,578.29,81.4Zm-.2-10.3-.3-.1-.2.5.2.1Zm1.1-18.3a2.82,2.82,0,0,0-1.4-1.4V52A2.23,2.23,0,0,0,579.19,52.8Zm-.5,11.3c-.13-.27-.33-.63-.6-1.1-.07,0-.17.27-.3.8A1.48,1.48,0,0,0,578.69,64.1Zm4.7,24.3h-.3v-.8h.3Zm.4-4.9h-.3l-.2,1h.3Zm.4-11.4-.4.4c.07.13.17.3.3.5A2,2,0,0,0,584.19,72.1Zm9.9-47.1q-1.8-2-5.6-6.5c-1.8.67-3.27,1.17-4.4,1.5a.33.33,0,0,0-.2.3q3.2,3.6,6.1,7.3C592.33,26.87,593.69,26,594.09,25Zm-9.6,32.3c-.27,0-.4.17-.4.5a1.5,1.5,0,0,0,.4.7Q584.9,58.1,584.49,57.3Zm16-35-5.8-7a8.92,8.92,0,0,0-2.8,1.2,17.79,17.79,0,0,0-2.5,1.5c.6.6,1.4,1.43,2.4,2.5.54.8,1.23,1.8,2.1,3,.67.73,1.23,1.1,1.7,1.1S597.83,23.83,600.49,22.3Zm4-2.2c-.4-.53-.91-1.28-1.55-2.25a20,20,0,0,0-1.85-2.45c-.93-1.13-1.67-1.7-2.2-1.7a6.29,6.29,0,0,0-1.3.5,8.79,8.79,0,0,1-1.6.6v.6a4.49,4.49,0,0,1,1.4,1.1c.8,1.07,1.23,1.67,1.3,1.8s.17.37.3.7a20.35,20.35,0,0,1,2.4,2.4c.6.13.83.2.7.2a3.67,3.67,0,0,0,1.3-.65A4.38,4.38,0,0,0,604.49,20.1Z" transform="translate(-12.8 -11.4)" style="fill:#252a68"/></svg>